<?xml version="1.0" standalone="no"?>
<!DOCTYPE svg PUBLIC "-//W3C//DTD SVG 1.1//EN" "http://www.w3.org/Graphics/SVG/1.1/DTD/svg11.dtd" >
<svg xmlns="http://www.w3.org/2000/svg" xmlns:xlink="http://www.w3.org/1999/xlink" version="1.1">
<metadata>
Created by FontForge 20170731 at Tue Dec  2 23:24:22 2014
 By Aleksey,,,
Copyright (c) 2013 by Ahmet Altun. All rights reserved.
</metadata>
<defs>
<font id="HalisR-Light" horiz-adv-x="572" >
  <font-face 
    font-family="Halis R Light"
    font-weight="300"
    font-stretch="normal"
    units-per-em="1000"
    panose-1="2 0 5 5 4 0 0 2 0 4"
    ascent="800"
    descent="-200"
    x-height="500"
    cap-height="700"
    bbox="-174.889 -346.389 1109 969"
    underline-thickness="50"
    underline-position="-230"
    unicode-range="U+0020-FB04"
  />
<missing-glyph horiz-adv-x="490" 
d="M210 209q0 -12 9 -21t22 -9q12 0 20.5 9t8.5 21t-8.5 20t-20.5 8q-13 0 -22 -8t-9 -20zM262 267v28q0 13 18 33.5t36.5 47t18.5 54.5q0 39 -24.5 60.5t-62.5 21.5q-55 0 -104 -52l29 -28q35 37 65 38q47 2 47 -41q0 -29 -34 -67t-34 -65v-30h45zM460 636v-572
q0 -14 -14 -14h-402q-14 0 -14 14v572q0 14 14 14h402q14 0 14 -14z" />
    <glyph glyph-name="f_f" unicode="ff" horiz-adv-x="589" 
d="M594 677l-6 -18q-5 -13 -18 -9q-38 12 -72 12q-50 0 -83 -26t-33 -86v-50h99q14 0 14 -14v-15q0 -14 -14 -14h-99v-443q0 -14 -14 -14h-33q-14 0 -14 14v443h-183v-443q0 -14 -14 -14h-33q-14 0 -14 14v443h-53q-14 0 -14 14v15q0 14 14 14h53v54q0 77 47 117t119 40
q69 0 124 -42q46 41 120 41q50 0 99 -16q14 -4 8 -17zM138 500h183v54q0 45 16 76q-42 31 -94 31q-43 0 -74 -26.5t-31 -84.5v-50z" />
    <glyph glyph-name="fi" unicode="fi" horiz-adv-x="481" 
d="M401 486v-473q0 -14 -14 -14h-34q-14 0 -14 14v444h-201v-443q0 -14 -14 -14h-33q-14 0 -14 14v443h-53q-14 0 -14 14v15q0 14 14 14h53v54q0 76 47 116t119 40q50 0 99 -16q14 -4 8 -17l-6 -18q-5 -13 -18 -9q-37 12 -72 12q-50 0 -83 -26t-33 -86v-50h249q14 0 14 -14z
" />
    <glyph glyph-name="fl" unicode="fl" horiz-adv-x="493" 
d="M138 500h106q14 0 14 -14v-15q0 -14 -14 -14h-106v-443q0 -14 -14 -14h-33q-14 0 -14 14v443h-53q-14 0 -14 14v15q0 14 14 14h53v54q0 77 46 115t113 38q33 0 69 -16t56 -41l10 36q3 14 18 14h10q14 0 14 -14v-672q0 -14 -14 -14h-34q-14 0 -14 14v575q-15 31 -46 48.5
t-65 17.5q-102 0 -102 -105v-50z" />
    <glyph glyph-name="f_f_i" unicode="ffi" horiz-adv-x="725" 
d="M594 677l-6 -18q-5 -13 -18 -9q-38 12 -72 12q-50 0 -83 -26t-33 -86v-50h249q14 0 14 -14v-473q0 -14 -14 -14h-34q-14 0 -14 14v444h-201v-443q0 -14 -14 -14h-33q-14 0 -14 14v443h-183v-443q0 -14 -14 -14h-33q-14 0 -14 14v443h-53q-14 0 -14 14v15q0 14 14 14h53
v54q0 77 47 117t119 40q69 0 124 -42q46 41 120 41q50 0 99 -16q14 -4 8 -17zM138 500h183v54q0 45 16 76q-42 31 -94 31q-43 0 -74 -26.5t-31 -84.5v-50z" />
    <glyph glyph-name="f_f_l" unicode="ffl" horiz-adv-x="736" 
d="M381 500h106q14 0 14 -14v-15q0 -14 -14 -14h-106v-443q0 -14 -14 -14h-33q-14 0 -14 14v443h-182v-443q0 -14 -14 -14h-33q-14 0 -14 14v443h-53q-14 0 -14 14v15q0 14 14 14h53v54q0 77 47 117t119 40q68 0 123 -42q44 38 113 38q33 0 69 -16t56 -41l10 36q4 14 18 14
h10q14 0 14 -14v-672q0 -14 -14 -14h-34q-14 0 -14 14v575q-15 31 -46 48.5t-65 17.5q-102 0 -102 -105v-50zM138 500h182v54q0 42 16 76q-42 31 -93 31q-43 0 -74 -26.5t-31 -84.5v-50z" />
    <glyph glyph-name="f_h" unicode="fh" horiz-adv-x="844" 
d="M138 500h106q14 0 14 -14v-15q0 -14 -14 -14h-106v-443q0 -14 -14 -14h-33q-14 0 -14 14v443h-53q-14 0 -14 14v15q0 14 14 14h53v54q0 77 46 115t113 38q33 0 69 -16t56 -41l10 36q3 14 18 14h10q14 0 14 -14v-240q62 62 170 62q201 0 201 -250v-244q0 -14 -14 -14h-33
q-14 0 -14 14v244q0 109 -37 155t-108 46q-44 0 -90.5 -21t-74.5 -59v-365q0 -14 -14 -14h-34q-14 0 -14 14v575q-15 31 -46 48.5t-65 17.5q-102 0 -102 -105v-50z" />
    <glyph glyph-name="f_j" unicode="fj" horiz-adv-x="482" 
d="M401 486v-504q0 -153 -109 -183q-25 -7 -53 -7q-60 0 -106 27q-13 5 -5 19l10 16q6 11 20 6q40 -16 73 -16q108 0 108 138v475h-201v-443q0 -14 -14 -14h-33q-14 0 -14 14v443h-53q-14 0 -14 14v15q0 14 14 14h53v54q0 76 47 116t119 40q50 0 99 -16q14 -4 8 -17l-6 -18
q-5 -13 -18 -9q-37 12 -72 12q-50 0 -83 -26t-33 -86v-50h249q14 0 14 -14z" />
    <glyph glyph-name="f_k" unicode="fk" horiz-adv-x="743" 
d="M138 500h106q14 0 14 -14v-15q0 -14 -14 -14h-106v-443q0 -14 -14 -14h-33q-14 0 -14 14v443h-53q-14 0 -14 14v15q0 14 14 14h53v54q0 77 46 115t113 38q33 0 69 -16t56 -41l10 36q3 14 18 14h10q14 0 14 -14v-418l202 222q10 10 23 10h42q4 0 5.5 -3.5t-0.5 -6.5
l-207 -230l226 -250q2 -3 0.5 -6.5t-5.5 -3.5h-43q-13 0 -23 10l-220 242v-238q0 -14 -14 -14h-34q-14 0 -14 14v575q-15 31 -46 48.5t-65 17.5q-102 0 -102 -105v-50z" />
    <glyph glyph-name="f_b" unicode="fb" horiz-adv-x="880" 
d="M138 500h106q14 0 14 -14v-15q0 -14 -14 -14h-106v-443q0 -14 -14 -14h-33q-14 0 -14 14v443h-53q-14 0 -14 14v15q0 14 14 14h53v54q0 77 46 115t113 38q33 0 69 -16t56 -41l10 36q3 14 18 14h10q14 0 14 -14v-224q72 45 158 45q68 0 119 -25t78 -65.5t39.5 -82.5
t12.5 -85q0 -34 -7.5 -68t-25.5 -68.5t-45 -61t-69.5 -43t-95.5 -16.5q-108 0 -178 79l-11 -57q-4 -14 -17 -14h-6q-14 0 -14 14v575q-15 31 -46 48.5t-65 17.5q-102 0 -102 -105v-50zM576 47q57 0 97 23t57.5 58.5t24.5 64.5t7 56q0 29 -8 60.5t-27.5 67t-60.5 58.5t-99 23
q-33 0 -78 -15.5t-71 -37.5v-281q22 -30 65 -53.5t93 -23.5z" />
    <glyph glyph-name="f_f_b" unicode="ffb" horiz-adv-x="1123" 
d="M381 500h106q14 0 14 -14v-15q0 -14 -14 -14h-106v-443q0 -14 -14 -14h-33q-14 0 -14 14v443h-182v-443q0 -14 -14 -14h-33q-14 0 -14 14v443h-53q-14 0 -14 14v15q0 14 14 14h53v54q0 77 47 117t119 40q68 0 123 -42q44 38 113 38q33 0 69 -16t56 -41l10 36q4 14 18 14
h10q14 0 14 -14v-224q72 45 158 45q68 0 119 -25t78 -65.5t39.5 -82.5t12.5 -85q0 -34 -7.5 -68t-25.5 -68.5t-45 -61t-69.5 -43t-95.5 -16.5q-108 0 -178 79l-11 -57q-3 -14 -17 -14h-6q-14 0 -14 14v575q-15 31 -46 48.5t-65 17.5q-102 0 -102 -105v-50zM814 47
q57 0 97 23t57.5 58.5t24.5 64.5t7 56q0 29 -8 60.5t-27.5 67t-60.5 58.5t-99 23q-33 0 -78 -15.5t-71 -37.5v-281q22 -30 65 -53.5t93 -23.5zM138 500h182v54q0 42 16 76q-42 31 -93 31q-43 0 -74 -26.5t-31 -84.5v-50z" />
    <glyph glyph-name="f_f_h" unicode="ffh" horiz-adv-x="1087" 
d="M381 500h106q14 0 14 -14v-15q0 -14 -14 -14h-106v-443q0 -14 -14 -14h-33q-14 0 -14 14v443h-182v-443q0 -14 -14 -14h-33q-14 0 -14 14v443h-53q-14 0 -14 14v15q0 14 14 14h53v54q0 77 47 117t119 40q68 0 123 -42q44 38 113 38q33 0 69 -16t56 -41l10 36q4 14 18 14
h10q14 0 14 -14v-240q62 62 170 62q201 0 201 -250v-244q0 -14 -14 -14h-33q-14 0 -14 14v244q0 109 -37 155t-108 46q-44 0 -90.5 -21t-74.5 -59v-365q0 -14 -14 -14h-34q-14 0 -14 14v575q-15 31 -46 48.5t-65 17.5q-102 0 -102 -105v-50zM138 500h182v54q0 42 16 76
q-42 31 -93 31q-43 0 -74 -26.5t-31 -84.5v-50z" />
    <glyph glyph-name="f_f_j" unicode="ffj" horiz-adv-x="726" 
d="M594 677l-6 -18q-5 -13 -18 -9q-38 12 -72 12q-50 0 -83 -26t-33 -86v-50h249q14 0 14 -14v-498q0 -153 -109 -183q-24 -7 -53 -7q-60 0 -106 27q-13 5 -5 19l10 16q6 11 20 6q40 -16 73 -16q108 0 108 138v469h-201v-443q0 -14 -14 -14h-33q-14 0 -14 14v443h-183v-443
q0 -14 -14 -14h-33q-14 0 -14 14v443h-53q-14 0 -14 14v15q0 14 14 14h53v54q0 77 47 117t119 40q69 0 124 -42q46 41 120 41q50 0 99 -16q14 -4 8 -17zM138 500h183v54q0 45 16 76q-42 31 -94 31q-43 0 -74 -26.5t-31 -84.5v-50z" />
    <glyph glyph-name="f_f_k" unicode="ffk" horiz-adv-x="987" 
d="M381 500h106q14 0 14 -14v-15q0 -14 -14 -14h-106v-443q0 -14 -14 -14h-33q-14 0 -14 14v443h-182v-443q0 -14 -14 -14h-33q-14 0 -14 14v443h-53q-14 0 -14 14v15q0 14 14 14h53v54q0 77 47 117t119 40q68 0 123 -42q44 38 113 38q33 0 69 -16t56 -41l10 36q4 14 18 14
h10q14 0 14 -14v-418l203 222q10 10 23 10h42q4 0 5.5 -3.5t-0.5 -6.5l-207 -230l226 -250q2 -3 0.5 -6.5t-5.5 -3.5h-43q-13 0 -23 10l-220 242v-238q0 -14 -14 -14h-35q-14 0 -14 14v575q-15 31 -46 48.5t-65 17.5q-102 0 -102 -105v-50zM138 500h182v54q0 42 16 76
q-42 31 -93 31q-43 0 -74 -26.5t-31 -84.5v-50z" />
    <glyph glyph-name=".notdef" horiz-adv-x="490" 
d="M210 209q0 -12 9 -21t22 -9q12 0 20.5 9t8.5 21t-8.5 20t-20.5 8q-13 0 -22 -8t-9 -20zM262 267v28q0 13 18 33.5t36.5 47t18.5 54.5q0 39 -24.5 60.5t-62.5 21.5q-55 0 -104 -52l29 -28q35 37 65 38q47 2 47 -41q0 -29 -34 -67t-34 -65v-30h45zM460 636v-572
q0 -14 -14 -14h-402q-14 0 -14 14v572q0 14 14 14h402q14 0 14 -14z" />
    <glyph glyph-name=".null" horiz-adv-x="0" 
 />
    <glyph glyph-name="nonmarkingreturn" horiz-adv-x="333" 
 />
    <glyph glyph-name="space" unicode=" " horiz-adv-x="300" 
 />
    <glyph glyph-name="exclam" unicode="!" horiz-adv-x="283" 
d="M173 686v-270l-17 -194q-2 -14 -15 -14h-1q-13 0 -15 14l-14 194v270q0 14 14 14h34q14 0 14 -14zM100 37q0 17 12.5 29.5t29.5 12.5t29 -12.5t12 -29.5t-12 -29t-29 -12t-29.5 12t-12.5 29z" />
    <glyph glyph-name="quotedbl" unicode="&#x22;" horiz-adv-x="282" 
d="M57 473l-16 213q-1 6 3 10t10 4h35q13 0 13 -14l-16 -213q-2 -13 -15 -13q-12 0 -14 13zM196 473l-16 213q-1 6 3 10t10 4h35q13 0 13 -14l-16 -213q-2 -13 -15 -13q-12 0 -14 13z" />
    <glyph glyph-name="numbersign" unicode="#" horiz-adv-x="571" 
d="M497 121h-82v-107q0 -14 -14 -14h-16q-14 0 -14 14v107h-170v-107q0 -14 -14 -14h-16q-14 0 -14 14v107h-83q-14 0 -14 14v16q0 14 14 14h83v170h-83q-14 0 -14 14v16q0 14 14 14h83v107q0 14 14 14h16q14 0 14 -14v-107h170v107q0 14 14 14h16q14 0 14 -14v-107h82
q14 0 14 -14v-16q0 -14 -14 -14h-82v-170h82q14 0 14 -14v-16q0 -14 -14 -14zM371 165v170h-170v-170h170z" />
    <glyph glyph-name="dollar" unicode="$" horiz-adv-x="605" 
d="M307 -85h-17q-14 0 -14 14v61q-104 4 -200 49q-13 5 -7 19l11 24q6 14 19 8q95 -39 177 -44v296q-35 11 -53.5 17.5t-48.5 19.5t-46 26.5t-33.5 32.5t-25.5 44t-8 56q-1 84 57.5 128.5t151.5 44.5h6v64q0 14 14 14h17q14 0 14 -14v-67q84 -10 163 -40q13 -6 8 -18
l-12 -30q-5 -13 -18 -9q-83 27 -141 34v-254q41 -14 66 -23.5t59 -28t52.5 -39t32 -52.5t13.5 -72q-1 -75 -63 -128t-160 -58v-61q0 -14 -14 -14zM479 187q-5 55 -45 85t-113 56v-281q58 6 103 37t54 75q3 12 1 28zM121 544v-1q0 -52 40 -81.5t115 -55.5v243h-3
q-62 0 -106 -25t-46 -80z" />
    <glyph glyph-name="percent" unicode="%" horiz-adv-x="717" 
d="M542 298q75 0 110 -47t35 -104q0 -58 -35 -104.5t-110 -46.5q-76 0 -110.5 46t-34.5 105q0 35 12 67t46.5 58t86.5 26zM174 706q40 0 69.5 -14.5t45 -38t23 -48.5t7.5 -50q0 -58 -34.5 -104.5t-110.5 -46.5q-75 0 -109.5 46.5t-34.5 104.5q0 25 7.5 50t23 48.5t45 38
t68.5 14.5zM255 0h-21q-11 0 -11 10l1 1v2l220 675q3 13 18 13h19q10 0 10 -10v-3l-218 -675q-3 -13 -18 -13zM542 37q29 0 49.5 12.5t29.5 32t12.5 35t3.5 30.5t-3.5 30.5t-12.5 35t-29.5 31.5t-49.5 12t-50 -12.5t-30.5 -31.5t-13 -35t-3.5 -30t3.5 -30t13 -35.5t30.5 -32
t50 -12.5zM174 445q29 0 50 12.5t30 32t12.5 35t3.5 30.5q0 14 -3.5 30t-12.5 35t-30 31.5t-50 12.5t-50 -12.5t-30 -31.5t-12.5 -35t-3.5 -30q0 -15 3.5 -30.5t12.5 -35t30 -32t50 -12.5z" />
    <glyph glyph-name="ampersand" unicode="&#x26;" horiz-adv-x="692" 
d="M186 552q2 -63 91 -145q55 35 84.5 70.5t29.5 86.5q0 42 -27 73t-76 31q-33 0 -55.5 -14t-31.5 -35.5t-12 -37t-3 -29.5zM144 186q0 -65 46 -105.5t108 -40.5q96 0 175 81q-167 171 -207 214q-60 -40 -90.5 -72.5t-31.5 -76.5zM449 565q0 -60 -36.5 -106.5t-98.5 -91.5
q33 -38 102.5 -110.5t88.5 -92.5q33 65 50 141q3 11 13 11h4l24 -5q12 -3 12 -15v-2q-14 -85 -66 -171l80 -83q4 -4 4 -10q0 -4 -4 -10l-22 -20q-4 -4 -9 -4q-6 0 -11 5l-72 77q-90 -92 -209 -92q-96 0 -157.5 59t-61.5 138q0 64 39 108.5t106 85.5l-43 48q-56 64 -55 136
q0 61 43.5 107.5t122.5 46.5q75 0 115.5 -44t40.5 -106z" />
    <glyph glyph-name="quotesingle" unicode="'" horiz-adv-x="143" 
d="M57 473l-16 213q-1 6 3 10t10 4h35q13 0 13 -14l-16 -213q-2 -13 -15 -13q-12 0 -14 13z" />
    <glyph glyph-name="parenleft" unicode="(" horiz-adv-x="254" 
d="M30 294q0 252 148 480q7 12 20 5l14 -9q12 -7 5 -19q-123 -235 -123 -456q0 -227 122 -462q7 -12 -5 -19l-13 -9q-12 -7 -20 5q-148 229 -148 484z" />
    <glyph glyph-name="parenright" unicode=")" horiz-adv-x="254" 
d="M224 294q0 -255 -148 -484q-8 -12 -20 -5l-13 9q-12 7 -5 19q122 235 122 462q0 219 -124 456q-5 13 6 19l14 9q12 7 20 -5q148 -228 148 -480z" />
    <glyph glyph-name="asterisk" unicode="*" horiz-adv-x="447" 
d="M247 560l113 56q14 5 20 -6q7 -12 -5 -20l-103 -71l103 -69q12 -8 5 -20l-1 -1q-7 -12 -20 -6l-112 54l-8 -124q-2 -14 -15 -14h-1q-13 0 -15 14l-9 124l-111 -54q-14 -5 -20 6l-1 1q-7 12 5 20l103 69l-104 71q-10 9 -4 20t19 6l113 -55l9 125q2 14 15 14t15 -14z" />
    <glyph glyph-name="plus" unicode="+" horiz-adv-x="553" 
d="M300 304v-159q0 -14 -14 -14h-19q-14 0 -14 14v159h-159q-14 0 -14 14v19q0 14 14 14h159v159q0 14 14 14h19q14 0 14 -14v-159h159q14 0 14 -14v-19q0 -14 -14 -14h-159z" />
    <glyph glyph-name="comma" unicode="," horiz-adv-x="255" 
d="M93 -156q-10 6 -5 16q34 79 38 132q-19 0 -32.5 13.5t-13.5 32.5t14 33t33 14q20 0 34 -13t14 -35q0 -79 -65 -188q-5 -11 -17 -5z" />
    <glyph glyph-name="hyphen" unicode="-" horiz-adv-x="432" 
d="M94 317h244q14 0 14 -14v-26q0 -14 -14 -14h-244q-14 0 -14 14v26q0 14 14 14z" />
    <glyph glyph-name="period" unicode="." horiz-adv-x="254" 
d="M80 41q0 19 14 33t33 14t33 -14t14 -33t-14 -33t-33 -14t-33 14t-14 33z" />
    <glyph glyph-name="slash" unicode="/" horiz-adv-x="335" 
d="M65 0h-21q-5 0 -8.5 4t-1.5 9l220 675q3 13 18 13h19q5 0 8.5 -4t1.5 -9l-218 -675q-3 -13 -18 -13z" />
    <glyph glyph-name="zero" unicode="0" horiz-adv-x="640" 
d="M319 681q71 0 124.5 -33t81.5 -86.5t41.5 -110t13.5 -114.5q0 -60 -13.5 -117t-41.5 -110t-81.5 -85.5t-124.5 -32.5t-124 32.5t-81 85.5t-41 110t-13 117q0 58 13 114.5t41 110t81 86.5t124 33zM319 39q50 0 88.5 24t59 58t33 78.5t16 76.5t3.5 61t-3.5 60.5t-16 75.5
t-33 77t-59 57t-88.5 24t-88 -24t-58 -57.5t-33 -77t-16.5 -75.5t-3.5 -60t3.5 -60.5t16.5 -76.5t33 -78.5t58 -58.5t88 -24z" />
    <glyph glyph-name="one" unicode="1" horiz-adv-x="355" 
d="M55 503l-7 10q-8 12 3 21l168 138q10 9 25 9h7q14 0 14 -14v-653q0 -14 -14 -14h-34q-14 0 -14 14v568l-128 -83q-13 -9 -20 4z" />
    <glyph glyph-name="two" unicode="2" horiz-adv-x="505" 
d="M61 568l-11 13q-4 4 -4 10t5 11q88 81 193 81q88 0 144.5 -49.5t56.5 -139.5q0 -32 -11.5 -65t-36 -69t-41.5 -56.5t-50 -58.5l-170 -194h280q14 0 14 -14v-23q0 -14 -14 -14h-354q-14 0 -14 14v3q0 15 9 25q108 124 258 298q71 83 71 157q0 20 -6 40.5t-20.5 43
t-44.5 36.5t-71 14q-84 0 -163 -65q-5 -3 -9 -3q-7 0 -11 5z" />
    <glyph glyph-name="three" unicode="3" horiz-adv-x="499" 
d="M439 500q0 -50 -26.5 -92.5t-75.5 -69.5q47 -22 74.5 -64.5t27.5 -93.5q0 -30 -9.5 -59.5t-31.5 -60t-66.5 -49.5t-106.5 -19q-100 0 -174 62q-11 9 -2 20l12 16q9 11 20 2q74 -54 144 -54q65 0 111.5 38t46.5 104q0 68 -45.5 103t-112.5 35h-52q-14 0 -14 14v16
q0 14 14 14h52q65 0 111.5 37t46.5 101q0 68 -45.5 103t-112.5 35q-74 0 -146 -49q-12 -8 -19 3l-11 15q-7 11 3 20q79 60 173 60q61 0 106 -19t67 -49.5t31.5 -59.5t9.5 -59z" />
    <glyph glyph-name="four" unicode="4" horiz-adv-x="540" 
d="M411 138v-124q0 -14 -14 -14h-31q-14 0 -14 14v124h-308q-14 0 -14 14v1q0 13 8 26l314 486q8 12 22 12h23q14 0 14 -14v-478h85q14 0 14 -14v-19q0 -14 -14 -14h-85zM352 576l-253 -391h253v391z" />
    <glyph glyph-name="five" unicode="5" horiz-adv-x="535" 
d="M70 83l13 14q10 10 21 1q68 -55 138 -55q80 0 126 51t46 121q0 69 -45.5 116.5t-127.5 47.5h-130q-14 0 -14 14v269q0 14 14 14h293q14 0 14 -14v-18q0 -14 -14 -14h-245v-202h82q67 0 115.5 -21.5t72.5 -56.5t35 -70t11 -72q0 -23 -6.5 -49t-23 -57t-42 -55t-67.5 -40
t-95 -16q-101 0 -171 72q-11 9 0 20z" />
    <glyph glyph-name="six" unicode="6" horiz-adv-x="579" 
d="M342 679l10 -15q7 -12 -4 -20q-153 -99 -214 -266q60 58 155 58q66 0 114 -23.5t71.5 -61t34 -72.5t10.5 -68q0 -21 -6 -46t-22 -56t-40.5 -56t-66.5 -42t-95 -17q-64 0 -111 24.5t-71.5 64t-35.5 78.5t-11 77q0 83 24 157.5t64 129t83 93.5t91 66q12 7 20 -5zM289 43
q81 0 126.5 51t45.5 121t-45 120.5t-127 50.5q-81 0 -126.5 -46.5t-45.5 -119.5q0 -66 46.5 -121.5t125.5 -55.5z" />
    <glyph glyph-name="seven" unicode="7" horiz-adv-x="460" 
d="M30 644v18q0 14 14 14h372q5 0 8 -4t1 -9l-274 -650q-5 -13 -19 -13h-33q-5 0 -8 4t-1 9l254 617h-300q-14 0 -14 14z" />
    <glyph glyph-name="eight" unicode="8" horiz-adv-x="569" 
d="M80 499q0 29 9.5 58t31.5 59.5t67 49.5t106 19t106 -19t67 -49.5t32 -59.5t10 -58q0 -44 -23.5 -90.5t-73.5 -70.5q50 -24 73.5 -68t23.5 -91q0 -29 -10 -58.5t-32 -60t-67 -49.5t-106 -19t-106 19t-67 49.5t-31.5 60t-9.5 58.5q0 44 23.5 89.5t74.5 69.5
q-51 26 -74.5 70.5t-23.5 90.5zM294 360q68 0 114 35.5t46 103.5q0 69 -46.5 106t-113.5 37q-66 0 -112.5 -37t-46.5 -106q0 -67 46.5 -103t112.5 -36zM294 316q-67 0 -113 -34.5t-46 -102.5q0 -69 46.5 -106t112.5 -37q67 0 113.5 37t46.5 106q0 68 -46 102.5t-114 34.5z
" />
    <glyph glyph-name="nine" unicode="9" horiz-adv-x="579" 
d="M237 0l-10 15q-8 12 4 19q153 102 214 267q-60 -58 -155 -58q-66 0 -114 23.5t-71.5 61t-34 72.5t-10.5 68q0 21 6 46t22 56t40.5 56t66.5 42t95 17q64 0 111 -24.5t71.5 -64t35.5 -78.5t11 -77q0 -83 -24 -157.5t-64 -129t-83.5 -93.5t-90.5 -66q-12 -7 -20 5zM290 638
q-81 0 -126.5 -51.5t-45.5 -122.5q0 -70 45 -120.5t127 -50.5q81 0 126.5 46.5t45.5 119.5q0 72 -46 125.5t-126 53.5z" />
    <glyph glyph-name="colon" unicode=":" horiz-adv-x="255" 
d="M80 43q0 19 14 33t33 14q20 0 34 -14t14 -33t-14.5 -33.5t-33.5 -14.5t-33 14t-14 34zM80 456q0 20 14 33.5t33 13.5q20 0 34 -14t14 -33q0 -20 -14.5 -34.5t-33.5 -14.5t-33 14.5t-14 34.5z" />
    <glyph glyph-name="semicolon" unicode=";" horiz-adv-x="255" 
d="M80 456q0 20 14 33.5t33 13.5q20 0 34 -14t14 -33q0 -20 -14.5 -34.5t-33.5 -14.5t-33 14.5t-14 34.5zM93 -156q-10 6 -5 16q34 79 38 132q-19 0 -32.5 13.5t-13.5 32.5t14 33t33 14q20 0 34 -13t14 -35q0 -79 -65 -188q-5 -11 -17 -5z" />
    <glyph glyph-name="less" unicode="&#x3c;" horiz-adv-x="409" 
d="M367 454l-243 -154l243 -157q12 -8 5 -20l-7 -12q-7 -12 -19 -5l-313 187q-3 1 -3 5t3 4l312 188q12 7 19 -5l7 -11q8 -11 -4 -20z" />
    <glyph glyph-name="equal" unicode="=" horiz-adv-x="502" 
d="M408 454h-314q-14 0 -14 14v18q0 14 14 14h314q14 0 14 -14v-18q0 -14 -14 -14zM408 199h-314q-14 0 -14 14v18q0 14 14 14h314q14 0 14 -14v-18q0 -14 -14 -14z" />
    <glyph glyph-name="greater" unicode="&#x3e;" horiz-adv-x="409" 
d="M285 300l-243 154q-12 8 -5 20l7 11q8 12 20 5l312 -188q3 0 3 -4t-3 -5l-313 -187q-12 -7 -19 5l-7 12q-7 12 5 20z" />
    <glyph glyph-name="question" unicode="?" horiz-adv-x="530" 
d="M220 37q0 17 12 29.5t29 12.5t29.5 -12.5t12.5 -29.5t-12.5 -29t-29.5 -12t-29 12t-12 29zM288 252v-39q0 -14 -14 -14h-26q-14 0 -14 14v39q0 29 16 58t38 54t44.5 51t38.5 60.5t16 71.5q0 17 -4.5 34t-16.5 36t-38.5 30.5t-63.5 11.5q-65 0 -143 -69q-9 -9 -19 1
l-13 14q-9 11 1 21q44 43 87.5 62.5t101.5 19.5q75 0 123 -42t48 -118q0 -43 -24.5 -88t-54 -76.5t-55.5 -68t-28 -63.5z" />
    <glyph glyph-name="at" unicode="@" horiz-adv-x="1169" 
d="M593 736q235 0 375.5 -139t140.5 -353q0 -60 -11 -116t-36 -108.5t-72.5 -84.5t-111.5 -32q-43 0 -80 25t-47 75q-81 -75 -175 -75q-65 0 -114 24t-75.5 63.5t-39 81.5t-12.5 86q0 43 12.5 85t38 81.5t73.5 64t112 24.5q43 0 91.5 -18t88.5 -55l20 53q3 12 16 12t13 -13
v-371q1 -43 18 -68t67 -25q73 0 118.5 82t45.5 206q0 192 -122.5 317t-334.5 125q-217 0 -344.5 -138t-127.5 -367q0 -93 33.5 -179t114.5 -166t202 -128q12 -5 7 -18l-10 -24q-7 -13 -19 -8q-187 72 -286.5 208.5t-101.5 307.5q0 162 63 289.5t185.5 201.5t284.5 74z
M739 65v236q-15 26 -65 54t-96 28t-80.5 -16.5t-52.5 -39.5t-29.5 -53t-14.5 -51.5t-3 -40.5q0 -20 3.5 -41.5t15.5 -50.5t30.5 -51.5t53.5 -38t81 -15.5q51 0 94.5 24.5t62.5 55.5z" />
    <glyph glyph-name="A" unicode="A" horiz-adv-x="666" 
d="M562 14l-76 187h-305l-75 -187q-5 -13 -19 -13h-43q-5 0 -8 4t-1 9l285 687q4 9 14 9q9 0 14 -9l285 -687q2 -5 -1 -9t-8 -4h-43q-14 0 -19 13zM334 577l-134 -330h267z" />
    <glyph glyph-name="B" unicode="B" horiz-adv-x="649" 
d="M478 348q58 -23 84.5 -70t26.5 -90q0 -32 -12 -63t-37 -60t-73.5 -47t-112.5 -18h-240q-14 0 -14 14v672q0 14 14 14h240q64 0 112.5 -18t73.5 -47.5t37 -60.5t12 -63q0 -28 -9 -56.5t-35 -59t-67 -47.5zM162 371h206q47 1 80.5 16.5t49 39t22 44.5t6.5 41
q0 16 -6.5 36.5t-22 45t-50.5 41t-83 16.5h-202v-280zM162 50h202q48 0 83 16t50.5 40.5t22 44.5t6.5 37q0 22 -6.5 42t-22 41.5t-49 34.5t-80.5 14h-206v-270z" />
    <glyph glyph-name="C" unicode="C" horiz-adv-x="710" 
d="M641 607l-20 -22q-10 -10 -20 -1q-92 73 -196 72q-70 -1 -123.5 -26.5t-82 -60t-46.5 -79t-23 -76.5t-5 -60q0 -23 4 -50t13.5 -63t30.5 -68t50 -60.5t76 -45t106 -16.5q103 0 197 68q11 7 20 -3l17 -23q9 -11 -2 -20q-103 -80 -232 -80q-77 0 -138 23.5t-99 60t-63 85.5
t-35 96.5t-10 95.5q0 46 10 92.5t35 95t63 85.5t99 60.5t138 23.5q136 0 234 -85q11 -10 2 -19z" />
    <glyph glyph-name="D" unicode="D" horiz-adv-x="741" 
d="M335 0h-221q-14 0 -14 14v672q0 14 14 14h221q77 0 138.5 -22.5t99 -58t63 -83t35.5 -93t10 -92.5q0 -48 -10 -94.5t-35 -93.5t-63.5 -82.5t-99.5 -58t-138 -22.5zM163 50h172q69 0 123 24.5t83.5 59t48.5 78.5t24.5 77.5t5.5 61.5t-5.5 61.5t-24.5 77.5t-48.5 78.5
t-83.5 58.5t-123 24h-172v-601z" />
    <glyph glyph-name="E" unicode="E" horiz-adv-x="604" 
d="M447 320h-284v-270h367q14 0 14 -14v-22q0 -14 -14 -14h-416q-14 0 -14 14v672q0 14 14 14h416q14 0 14 -14v-22q0 -14 -14 -14h-367v-280h284q14 0 14 -14v-22q0 -14 -14 -14z" />
    <glyph glyph-name="F" unicode="F" horiz-adv-x="604" 
d="M447 320h-284v-306q0 -14 -14 -14h-35q-14 0 -14 14v672q0 14 14 14h416q14 0 14 -14v-22q0 -14 -14 -14h-367v-280h284q14 0 14 -14v-22q0 -14 -14 -14z" />
    <glyph glyph-name="G" unicode="G" horiz-adv-x="710" 
d="M586 267h-143q-14 0 -14 14v22q0 14 14 14h193q14 0 14 -14v-207q0 -14 -10 -24q-96 -81 -235 -81q-95 0 -165.5 34t-108 89.5t-54.5 114t-17 119.5q0 60 17 118.5t54.5 115t108 91.5t165.5 35q130 0 218 -77q11 -11 1 -20l-17 -19q-10 -10 -20 -1q-75 61 -182 61
q-69 0 -123 -24.5t-83 -60t-47 -80t-23.5 -78t-4.5 -61.5q1 -30 6 -62t23.5 -77.5t47 -79.5t82 -58.5t122.5 -24.5q105 0 181 58v163z" />
    <glyph glyph-name="H" unicode="H" horiz-adv-x="758" 
d="M163 320v-306q0 -14 -14 -14h-35q-14 0 -14 14v672q0 14 14 14h35q14 0 14 -14v-316h431v316q0 14 14 14h36q14 0 14 -14v-672q0 -14 -14 -14h-36q-14 0 -14 14v306h-431z" />
    <glyph glyph-name="I" unicode="I" horiz-adv-x="263" 
d="M163 686v-672q0 -14 -14 -14h-35q-14 0 -14 14v672q0 14 14 14h35q14 0 14 -14z" />
    <glyph glyph-name="J" unicode="J" horiz-adv-x="594" 
d="M33 163l26 11q13 5 18 -7q49 -116 174 -113q48 1 83.5 18t53 39.5t27.5 54.5t12 52.5t2 43.5v424q0 14 14 14h37q14 0 14 -14v-424q0 -47 -11 -90t-36.5 -85t-75.5 -67.5t-120 -25.5q-166 0 -226 150q-5 12 8 19z" />
    <glyph glyph-name="K" unicode="K" horiz-adv-x="620" 
d="M149 0h-35q-14 0 -14 14v672q0 14 14 14h35q14 0 14 -14v-314l306 318q10 10 24 10h45q4 0 5.5 -3.5t-1.5 -6.5l-311 -329l339 -351q3 -3 1.5 -6.5t-5.5 -3.5h-47q-14 0 -24 10l-332 342v-338q0 -14 -14 -14z" />
    <glyph glyph-name="L" unicode="L" horiz-adv-x="508" 
d="M163 686v-636h271q14 0 14 -14v-22q0 -14 -14 -14h-320q-14 0 -14 14v672q0 14 14 14h35q14 0 14 -14z" />
    <glyph glyph-name="M" unicode="M" horiz-adv-x="1010" 
d="M44 0q-5 0 -8.5 4t-1.5 9l216 683q3 10 13 10t14 -9l228 -569l229 568q3 10 15 10q10 0 13 -10l214 -683q2 -5 -1.5 -9t-8.5 -4h-42q-15 0 -18 13l-164 530l-222 -542q-3 -10 -14 -10q-12 0 -15 10l-223 541l-164 -529q-3 -13 -18 -13h-42z" />
    <glyph glyph-name="N" unicode="N" horiz-adv-x="758" 
d="M150 0h-36q-14 0 -14 14v679q0 13 13 13t21 -10l461 -557v547q0 14 14 14h35q14 0 14 -14v-679q0 -13 -13 -13t-21 10l-460 554v-544q0 -14 -14 -14z" />
    <glyph glyph-name="O" unicode="O" horiz-adv-x="811" 
d="M405 709q77 0 138.5 -23.5t99.5 -60t63 -85t35 -95t10 -93.5q0 -48 -10 -95t-35 -96t-63 -85.5t-99.5 -59.5t-138.5 -23t-138 23t-99 59.5t-63 85.5t-35 96t-10 95q0 47 10 93.5t35 95t63 85t99 60t138 23.5zM405 48q51 0 93 13t70 33.5t50 49t34.5 56.5t20 58.5t10 52.5
t2.5 41q0 29 -5 61.5t-23 77t-46.5 79t-82 59t-123.5 24.5t-123.5 -24.5t-82 -59t-46.5 -79t-23 -77t-5 -61.5q0 -19 2.5 -41t10 -52.5t20 -58.5t34.5 -56.5t50 -49t70 -33.5t93 -13z" />
    <glyph glyph-name="P" unicode="P" horiz-adv-x="651" 
d="M163 278v-264q0 -14 -14 -14h-35q-14 0 -14 14v672q0 14 14 14h241q65 0 113 -20.5t73.5 -53.5t37.5 -67t12 -69q0 -92 -68 -152t-153 -60h-207zM163 328h202q46 1 80.5 18.5t51.5 45t24.5 52t7.5 46.5q0 24 -7.5 49t-25 51.5t-52.5 43.5t-83 17h-198v-323z" />
    <glyph glyph-name="Q" unicode="Q" horiz-adv-x="811" 
d="M405 709q77 0 138.5 -23.5t99.5 -60t63 -85t35 -95t10 -93.5q0 -92 -42 -180t-133 -144l151 -180l2 -4q0 -7 -7 -7h-42q-14 0 -23 11l-137 159q-64 -14 -115 -14q-77 0 -138 23t-99 59.5t-63 85.5t-35 96t-10 95q0 47 10 93.5t35 95t63 85t99 60t138 23.5zM405 49
q59 0 106 16.5t76 45t50 60.5t30.5 68.5t13.5 63t4 49.5q0 19 -2.5 41t-10 52.5t-20 58t-34.5 55.5t-50 48.5t-70 33.5t-93 13t-93 -13t-70 -33.5t-50 -48.5t-34.5 -55.5t-20 -58t-10 -52.5t-2.5 -41q0 -23 4 -49.5t13.5 -63t30.5 -68.5t50 -60.5t76 -45t106 -16.5z" />
    <glyph glyph-name="R" unicode="R" horiz-adv-x="649" 
d="M161 278v-264q0 -14 -14 -14h-33q-14 0 -14 14v672q0 14 14 14h238q65 0 113.5 -20.5t74 -53.5t37.5 -67t12 -69q0 -73 -47.5 -134.5t-128.5 -75.5l129 -267q2 -4 -0.5 -8.5t-7.5 -4.5h-36q-14 0 -20 13l-126 265h-191zM363 328q38 1 67.5 13t46.5 30t28.5 41t15.5 42
t4 36q0 24 -7.5 49t-24 51.5t-51.5 43.5t-83 17h-198v-323h202z" />
    <glyph glyph-name="S" unicode="S" horiz-adv-x="605" 
d="M124 544v-1q0 -38 23.5 -66t60.5 -44.5t82 -31t90 -31.5t82 -39.5t60 -62t22 -92.5q-1 -78 -69 -132.5t-173 -54.5q-118 0 -226 50q-13 5 -7 19l11 24q6 14 19 8q108 -44 195 -44q72 0 126.5 36t57.5 91q0 60 -43 97t-104 56t-122 39t-104 62.5t-44 110.5
q-1 84 57.5 128.5t151.5 44.5q105 0 214 -43q13 -6 8 -18l-10 -28q-5 -13 -18 -9q-110 36 -191 36q-62 0 -104.5 -25t-44.5 -80z" />
    <glyph glyph-name="T" unicode="T" horiz-adv-x="589" 
d="M261 14v636h-202q-14 0 -14 14v22q0 14 14 14h471q14 0 14 -14v-22q0 -14 -14 -14h-205v-636q0 -14 -14 -14h-36q-14 0 -14 14z" />
    <glyph glyph-name="U" unicode="U" horiz-adv-x="715" 
d="M356 44q58 0 101 25t63.5 62.5t30 70t9.5 59.5v425q0 14 14 14h37q14 0 14 -14v-425q0 -36 -8.5 -72t-29 -72t-50.5 -63t-77 -44t-104 -17t-103 17t-76 44t-50 63t-28.5 72t-8.5 72v425q0 14 14 14h34q14 0 14 -14v-425q0 -20 5.5 -45.5t20 -56.5t36 -56t59 -42t83.5 -17
z" />
    <glyph glyph-name="V" unicode="V" horiz-adv-x="668" 
d="M334 124l228 563q5 13 19 13h43q5 0 8 -4t1 -9l-285 -687q-5 -9 -14 -9q-10 0 -14 9l-285 687q-2 5 1 9t8 4h43q14 0 19 -13z" />
    <glyph glyph-name="W" unicode="W" horiz-adv-x="1134" 
d="M106 687l228 -552l222 567q3 8 11 8q9 0 12 -8l221 -567l228 552q5 13 19 13h43q5 0 8 -4t1 -9l-287 -685q-3 -8 -12 -8q-8 0 -11 8l-222 543l-222 -543q-3 -8 -12 -8q-8 0 -13 8l-285 685q-2 5 1 9t8 4h43q14 0 19 -13z" />
    <glyph glyph-name="X" unicode="X" horiz-adv-x="574" 
d="M465 12l-178 282l-179 -282q-6 -12 -21 -12h-43q-4 0 -6.5 4t-0.5 8l214 339l-214 338q-2 4 0.5 8t6.5 4h44q14 0 21 -12l178 -281l177 281q9 12 22 12h44q5 0 7 -4t-1 -8l-213 -338l213 -339q3 -4 1 -8t-7 -4h-43q-15 0 -22 12z" />
    <glyph glyph-name="Y" unicode="Y" horiz-adv-x="600" 
d="M332 320v-306q0 -14 -14 -14h-37q-14 0 -14 14v305l-230 370q-2 4 0.5 8t6.5 4h42q14 0 21 -12l193 -314l193 314q7 12 21 12h42q4 0 6.5 -4t0.5 -8z" />
    <glyph glyph-name="Z" unicode="Z" horiz-adv-x="614" 
d="M153 50h387q14 0 14 -14v-22q0 -14 -14 -14h-458q-14 0 -14 14v1q0 12 7 26l381 610h-368q-14 0 -14 14v21q0 14 14 14h450q11 0 11 -11q0 -10 -6 -19z" />
    <glyph glyph-name="bracketleft" unicode="[" horiz-adv-x="219" 
d="M30 -188v950q0 14 14 14h131q14 0 14 -14v-7q0 -14 -14 -14h-84v-908h84q14 0 14 -14v-7q0 -14 -14 -14h-131q-14 0 -14 14z" />
    <glyph glyph-name="backslash" unicode="\" horiz-adv-x="335" 
d="M291 0h-21q-15 0 -18 13l-218 675q-2 5 1.5 9t8.5 4h19q15 0 18 -13l220 -675q2 -5 -1.5 -9t-8.5 -4z" />
    <glyph glyph-name="bracketright" unicode="]" horiz-adv-x="219" 
d="M189 762v-950q0 -14 -14 -14h-131q-14 0 -14 14v7q0 14 14 14h84v908h-84q-14 0 -14 14v7q0 14 14 14h131q14 0 14 -14z" />
    <glyph glyph-name="asciicircum" unicode="^" horiz-adv-x="604" 
d="M493 425l-8 -6q-11 -7 -20 3l-163 192l-163 -192q-9 -10 -20 -3l-8 6q-11 9 -3 20l186 250q4 4 8 4t8 -4l186 -250q8 -11 -3 -20z" />
    <glyph glyph-name="underscore" unicode="_" horiz-adv-x="412" 
d="M5 -19v2q0 14 14 14h374q14 0 14 -14v-2q0 -14 -14 -14h-374q-14 0 -14 14z" />
    <glyph glyph-name="grave" unicode="`" horiz-adv-x="510" 
d="M179 716l122 -91q10 -7 3 -20l-4 -6q-9 -10 -20 -4l-129 79q-11 6 -4 19l13 19q7 12 19 4z" />
    <glyph glyph-name="a" unicode="a" horiz-adv-x="527" 
d="M112 434l-6 20q-5 12 8 19q85 35 148 35q50 0 85.5 -12.5t54.5 -30t29.5 -47t13 -54t2.5 -60.5v-290q0 -14 -14 -14h-6q-13 0 -17 14l-11 55q-64 -77 -169 -77q-170 0 -170 153q0 36 11.5 64.5t31 46t46.5 28.5t55 15.5t60 4.5q68 0 120 -13v18q0 92 -31 121t-99 27
q-41 -1 -124 -31q-12 -5 -18 8zM384 126v113q-54 15 -104 15q-33 0 -58.5 -4t-50.5 -14.5t-38.5 -33t-13.5 -56.5q0 -49 32 -76.5t82 -27.5q46 0 90 26.5t61 57.5z" />
    <glyph glyph-name="b" unicode="b" horiz-adv-x="609" 
d="M300 507q68 0 119 -25t78 -65.5t39.5 -82.5t12.5 -85q0 -34 -7.5 -68t-25.5 -68.5t-45 -61t-69.5 -43t-95.5 -16.5q-108 0 -178 79l-11 -57q-3 -14 -17 -14h-6q-14 0 -14 14v672q0 14 14 14h34q14 0 14 -14v-224q72 45 158 45zM300 47q57 0 97 23t57.5 58.5t24.5 64.5
t7 56q0 29 -8 60.5t-27.5 67t-60.5 58.5t-99 23q-33 0 -78 -15.5t-71 -37.5v-281q22 -30 65 -53.5t93 -23.5z" />
    <glyph glyph-name="c" unicode="c" horiz-adv-x="542" 
d="M122 253q0 -96 54.5 -151.5t131.5 -55.5q62 0 129 48q11 9 20 -1l15 -17q11 -9 0 -20q-69 -62 -163 -62q-55 0 -99.5 17t-72 43.5t-45.5 62t-25 69t-7 67.5t7 67.5t25 69t45.5 62t72 43.5t99.5 17q94 0 163 -62q11 -11 0 -20l-15 -17q-9 -10 -20 -1q-63 45 -129 45
q-77 0 -131.5 -54.5t-54.5 -149.5z" />
    <glyph glyph-name="d" unicode="d" horiz-adv-x="609" 
d="M309 507q86 0 158 -45v224q0 14 14 14h34q14 0 14 -14v-672q0 -14 -14 -14h-6q-13 0 -17 14l-11 57q-70 -79 -178 -79q-53 0 -95.5 16.5t-69.5 43t-45 61t-25.5 68.5t-7.5 68q0 43 12.5 85t39.5 82.5t78 65.5t119 25zM309 47q50 0 93 23.5t65 53.5v281q-26 22 -71 37.5
t-78 15.5q-58 0 -99 -23t-60.5 -58.5t-27.5 -67t-8 -60.5q0 -27 7 -56t24.5 -64.5t57.5 -58.5t97 -23z" />
    <glyph glyph-name="e" unicode="e" horiz-adv-x="551" 
d="M476 85l11 -14q9 -11 -2 -20q-72 -59 -176 -59q-68 0 -119 25t-78 65.5t-39.5 83t-12.5 86.5q0 43 12.5 85.5t39.5 83t78 65.5t119 25q94 0 145.5 -56.5t51.5 -153.5q0 -11 -2 -37q0 -14 -15 -14h-368q2 -33 12 -66t30 -67t58 -55t88 -21q82 0 147 46q11 9 20 -2z
M308 460q-81 0 -125.5 -47.5t-60.5 -117.5h324q8 63 -25.5 112.5t-112.5 52.5z" />
    <glyph glyph-name="f" unicode="f" horiz-adv-x="345" 
d="M350 677l-6 -18q-5 -13 -18 -9q-37 12 -72 12q-50 0 -83 -26t-33 -86v-50h99q14 0 14 -14v-15q0 -14 -14 -14h-99v-443q0 -14 -14 -14h-33q-14 0 -14 14v443h-53q-14 0 -14 14v15q0 14 14 14h53v54q0 76 47 116t119 40q50 0 99 -16q14 -4 8 -17z" />
    <glyph glyph-name="g" unicode="g" horiz-adv-x="546" 
d="M62 -78q5 29 28 53t64 29q-36 7 -53 37.5t-17 55.5q0 33 18 58.5t54 34.5q-32 24 -46.5 65t-14.5 75q0 29 9 58t28.5 57t57 45t86.5 17q72 0 115 -33l66 60q3 4 9 4q7 0 11 -4l9 -8q4 -6 4 -10q0 -6 -4 -9l-63 -68q34 -46 34 -109q0 -30 -9 -59.5t-28.5 -57t-55.5 -44.5
t-84 -17q-19 0 -42 4.5t-33 4.5q-28 0 -45 -14t-21 -26t-4 -21q0 -33 26 -53.5t74 -20.5h22q71 0 117.5 -8t71.5 -24t34.5 -36.5t9.5 -49.5q0 -15 -4.5 -31t-18 -36.5t-35.5 -36t-62 -26.5t-91 -11q-116 0 -167.5 42.5t-51.5 95.5q0 7 2 17zM276 203q36 0 61.5 14.5t37 37
t16 41t4.5 34.5t-4.5 34t-15.5 41t-36 38t-61 15t-62 -15.5t-37.5 -38.5t-16.5 -41.5t-5 -32.5q0 -16 4.5 -34.5t16 -41t37 -37t61.5 -14.5zM276 -187q21 0 46 5t52 15t44.5 29.5t17.5 45.5q0 34 -35.5 51.5t-124.5 17.5q-95 0 -128.5 -20.5t-33.5 -53.5q0 -10 6 -22.5
t21.5 -28.5t50.5 -27t84 -12z" />
    <glyph glyph-name="h" unicode="h" horiz-adv-x="573" 
d="M128 0h-34q-14 0 -14 14v673q0 14 14 14h34q14 0 14 -14v-241q62 62 170 62q201 0 201 -250v-244q0 -14 -14 -14h-33q-14 0 -14 14v244q0 109 -37 155t-108 46q-44 0 -90.5 -21t-74.5 -59v-365q0 -14 -14 -14z" />
    <glyph glyph-name="i" unicode="i" horiz-adv-x="243" 
d="M80 633q0 18 11.5 30t29.5 12q17 0 29.5 -12.5t12.5 -29.5t-12.5 -29t-29.5 -12q-18 0 -29.5 12t-11.5 29zM151 486v-473q0 -14 -14 -14h-34q-14 0 -14 14v473q0 14 14 14h34q14 0 14 -14z" />
    <glyph glyph-name="j" unicode="j" horiz-adv-x="243" 
d="M80 633q0 18 11.5 30t29.5 12q17 0 29.5 -12.5t12.5 -29.5t-12.5 -29t-29.5 -12q-18 0 -29.5 12t-11.5 29zM-12 -208q-60 0 -106 27q-13 5 -5 19l10 16q6 11 20 6q40 -16 73 -16q107 0 107 138v504q0 14 14 14h35q14 0 14 -14v-504q0 -153 -109 -183q-24 -7 -53 -7z" />
    <glyph glyph-name="k" unicode="k" horiz-adv-x="526" 
d="M402 10l-259 242v-238q0 -14 -14 -14h-35q-14 0 -14 14v674q0 14 14 14h35q14 0 14 -14v-420l241 222q9 10 24 10h60q4 0 5 -3.5t-1 -6.5l-251 -230l265 -250q2 -3 1 -6.5t-5 -3.5h-56q-15 0 -24 10z" />
    <glyph glyph-name="l" unicode="l" horiz-adv-x="242" 
d="M152 688v-674q0 -14 -14 -14h-34q-14 0 -14 14v674q0 14 14 14h34q14 0 14 -14z" />
    <glyph glyph-name="m" unicode="m" horiz-adv-x="906" 
d="M142 362v-348q0 -14 -14 -14h-34q-14 0 -14 14v472q0 14 14 14h5q13 0 17 -14l12 -59q76 81 177 81q121 0 164 -82q77 83 186 83q52 0 89.5 -15.5t56.5 -37.5t30 -59.5t13 -66t2 -71.5v-244q0 -14 -14 -14h-35q-14 0 -14 14v286q0 31 -5 54t-18 47t-41 37t-69 13
q-49 0 -96 -27.5t-66 -57.5q8 -40 8 -109v-244q0 -14 -14 -14h-35q-14 0 -14 14v286q0 31 -5 54t-18 47t-41 37t-69 13q-48 0 -93.5 -29t-64.5 -60z" />
    <glyph glyph-name="n" unicode="n" 
d="M142 370v-356q0 -14 -14 -14h-34q-14 0 -14 14v472q0 14 14 14h5q13 0 17 -14l12 -59q76 81 177 81q53 0 91.5 -15.5t60 -38.5t34.5 -58t17 -66.5t4 -71.5v-244q0 -14 -14 -14h-35q-14 0 -14 14v243v30.5t-2.5 34t-7.5 39t-16 34t-26.5 31.5t-40 19.5t-56.5 8.5
q-49 0 -94.5 -27t-63.5 -57z" />
    <glyph glyph-name="o" unicode="o" horiz-adv-x="618" 
d="M309 508q68 0 119 -25t78 -65.5t39.5 -82.5t12.5 -85q0 -44 -12.5 -87t-39.5 -83.5t-78 -65.5t-119 -25t-119 25t-78 65.5t-39.5 83.5t-12.5 87q0 43 12.5 85t39.5 82.5t78 65.5t119 25zM309 43q46 0 82 17.5t55 42t31.5 55t16 53t3.5 39.5q0 24 -7 53t-25 65.5
t-58.5 60.5t-97.5 24q-46 0 -81.5 -16.5t-55 -40.5t-31.5 -54t-15.5 -52t-3.5 -40t3.5 -40.5t15.5 -53t31.5 -55t55 -41.5t81.5 -17z" />
    <glyph glyph-name="p" unicode="p" horiz-adv-x="609" 
d="M286 -7q-78 4 -144 45v-224q0 -14 -14 -14h-34q-14 0 -14 14v672q0 14 14 14h6q14 0 17 -14l11 -57q70 79 178 79q53 0 95.5 -16.5t69.5 -43t45 -61t25.5 -68.5t7.5 -68q0 -42 -12 -83t-37.5 -80.5t-73.5 -65.5t-112 -29h-28zM300 453q-50 0 -93 -23.5t-65 -53.5v-281
q26 -22 71 -37.5t78 -15.5q58 0 99 23t60.5 58.5t27.5 67t8 60.5q0 27 -7 56t-24.5 64.5t-57.5 58.5t-97 23z" />
    <glyph glyph-name="q" unicode="q" horiz-adv-x="609" 
d="M295 -7q-64 3 -112 29t-73.5 65.5t-37.5 80.5t-12 83q0 34 7.5 68t25.5 68.5t45 61t69.5 43t95.5 16.5q108 0 178 -79l11 57q4 14 17 14h6q14 0 14 -14v-672q0 -14 -14 -14h-34q-14 0 -14 14v224q-66 -41 -144 -45h-28zM309 453q-57 0 -97 -23t-57.5 -58.5t-24.5 -64.5
t-7 -56q0 -29 8 -60.5t27.5 -67t60.5 -58.5t99 -23q33 0 78 15.5t71 37.5v281q-22 30 -65 53.5t-93 23.5z" />
    <glyph glyph-name="r" unicode="r" horiz-adv-x="366" 
d="M343 491l-5 -26q-3 -14 -17 -12q-4 0 -11 0.5t-10 0.5q-49 0 -94.5 -27t-63.5 -57v-356q0 -14 -14 -14h-34q-14 0 -14 14v472q0 14 14 14h5q13 0 17 -14l12 -59q76 81 177 81q19 0 27 -1q15 -2 11 -16z" />
    <glyph glyph-name="s" unicode="s" horiz-adv-x="472" 
d="M118 380q0 -35 30.5 -57.5t73.5 -35t86 -28.5t73.5 -49.5t30.5 -85.5q0 -59 -50 -97t-126 -38q-85 0 -164 38q-12 7 -6 20l9 17q5 13 19 7q75 -34 136 -34q49 0 84.5 23.5t35.5 62.5t-30 64t-72 38t-84.5 27t-72.5 44.5t-30 77.5q0 61 43.5 97.5t109.5 36.5q78 0 153 -31
q13 -4 7 -18l-7 -16q-7 -13 -19 -8q-71 25 -114 25q-108 0 -116 -80z" />
    <glyph glyph-name="t" unicode="t" horiz-adv-x="328" 
d="M102 456h-53q-14 0 -14 14v16q0 14 14 14h53l6 87q2 14 15 14h28q14 0 14 -14v-87h99q14 0 14 -14v-16q0 -14 -14 -14h-99v-330q0 -39 16 -61.5t58 -22.5q19 0 43 6q14 4 16 -11l3 -13q2 -14 -11 -18q-39 -12 -75 -12q-109 0 -113 117v345z" />
    <glyph glyph-name="u" unicode="u" 
d="M430 131v356q0 14 14 14h34q14 0 14 -14v-472q0 -14 -14 -14h-5q-13 0 -17 14l-12 59q-76 -81 -177 -81q-53 0 -91.5 15.5t-60 38.5t-34.5 58t-17 66.5t-4 71.5v244q0 14 14 14h35q14 0 14 -14v-243v-30.5t2.5 -34t7.5 -39t16 -34t26.5 -31.5t40 -19.5t56.5 -8.5
q49 0 94.5 27t63.5 57z" />
    <glyph glyph-name="v" unicode="v" horiz-adv-x="497" 
d="M104 487l145 -373l144 373q5 13 19 13h41q5 0 8 -4t1 -9l-196 -483q-5 -12 -18 -12q-12 0 -17 12l-196 483q-2 5 1 9t8 4h41q14 0 19 -13z" />
    <glyph glyph-name="w" unicode="w" horiz-adv-x="796" 
d="M104 487l145 -360l137 374q3 8 11 8q9 0 12 -8l139 -374l144 360q5 13 19 13h41q5 0 8 -4t1 -9l-202 -488q-3 -8 -12 -8q-8 0 -11 8l-138 355l-138 -355q-3 -8 -12 -8t-12 8l-201 488q-2 5 1 9t8 4h41q14 0 19 -13z" />
    <glyph glyph-name="x" unicode="x" horiz-adv-x="447" 
d="M336 12l-113 186l-112 -186q-7 -12 -21 -12h-46q-5 0 -7 4t1 8l153 237l-153 239q-3 4 -1 8t7 4h45q14 0 21 -12l113 -188l114 188q7 12 21 12h45q5 0 7 -4t-1 -8l-155 -239l155 -237q3 -4 1 -8t-7 -4h-46q-14 0 -21 12z" />
    <glyph glyph-name="y" unicode="y" horiz-adv-x="553" 
d="M103 487l174 -421l170 421q5 13 19 13h43q5 0 7.5 -4t0.5 -9l-291 -684q-5 -13 -19 -13h-37q-5 0 -8 4t-1 9l84 195l-210 489q-2 5 1 9t8 4h40q14 0 19 -13z" />
    <glyph glyph-name="z" unicode="z" horiz-adv-x="461" 
d="M64 460v26q0 14 14 14h326q8 0 8 -8t-4 -13l-268 -425h260q14 0 14 -14v-26q0 -14 -14 -14h-344q-7 0 -7 7q0 9 4 14l264 425h-239q-14 0 -14 14z" />
    <glyph glyph-name="braceleft" unicode="{" horiz-adv-x="277" 
d="M247 763v-7q0 -12 -14 -16q-73 -16 -73 -138v-214q0 -36 -14 -60t-55 -39q69 -21 69 -100v-213q0 -122 73 -138q14 -4 14 -16v-7q0 -6 -4 -10t-10 -3q-18 2 -36.5 9t-43 23.5t-40 50.5t-15.5 81v211q0 71 -55 94q-13 6 -13 18t13 18q55 23 55 94v211q0 46 15 80
t39.5 50.5t43 23.5t37.5 10q6 1 10 -3t4 -10z" />
    <glyph glyph-name="bar" unicode="|" horiz-adv-x="165" 
d="M91 -198h-17q-14 0 -14 14v946q0 14 14 14h17q14 0 14 -14v-946q0 -14 -14 -14z" />
    <glyph glyph-name="braceright" unicode="}" horiz-adv-x="277" 
d="M30 756v7q0 6 4 10t10 3q19 -3 37.5 -10t43 -23.5t39.5 -50.5t15 -80v-211q0 -71 55 -94q13 -6 13 -18t-13 -18q-55 -23 -55 -94v-211q0 -47 -15.5 -81t-40 -50.5t-43 -23.5t-36.5 -9q-6 -1 -10 3t-4 10v7q0 12 14 16q73 16 73 138v213q0 79 69 100q-41 15 -55 39t-14 60
v214q0 122 -73 138q-14 4 -14 16z" />
    <glyph glyph-name="asciitilde" unicode="~" horiz-adv-x="601" 
d="M84 253l-13 9q-12 8 -3 19q55 75 140 75q32 0 91 -33t97 -33q55 0 102 50q10 10 20 1l12 -9q11 -9 3 -21q-55 -79 -138 -79q-39 0 -99.5 33.5t-92.5 33.5q-55 0 -98 -44q-12 -10 -21 -2z" />
    <glyph glyph-name="exclamdown" unicode="&#xa1;" horiz-adv-x="283" 
d="M100 461q0 17 12.5 29t29.5 12t29 -12t12 -29t-12 -29.5t-29 -12.5t-29.5 12.5t-12.5 29.5zM173 82v-270q0 -14 -14 -14h-34q-14 0 -14 14v270l14 194q2 14 15 14h1q13 0 15 -14z" />
    <glyph glyph-name="cent" unicode="&#xa2;" horiz-adv-x="542" 
d="M316 578v-66q90 -3 156 -62q11 -11 0 -20l-15 -17q-9 -10 -20 -1q-57 40 -121 43v-404q64 2 121 43q11 9 20 -1l15 -17q11 -9 0 -20q-66 -59 -156 -62v-65q0 -14 -14 -14h-17q-14 0 -14 14v67q-58 7 -101 34t-66 65.5t-33.5 78t-10.5 79.5t10.5 79t33.5 78t66 66t101 34
v68q0 14 14 14h17q14 0 14 -14zM122 253q0 -83 42 -135t107 -64v398q-65 -13 -107 -64.5t-42 -134.5z" />
    <glyph glyph-name="sterling" unicode="&#xa3;" horiz-adv-x="586" 
d="M65 6l-9 8q-12 10 -3 20q34 44 71 58v265h-49q-14 0 -14 14v14q0 14 14 14h49v153q0 76 46.5 115.5t118.5 39.5q52 0 99 -16q14 -4 8 -17l-7 -19q-5 -12 -19 -9q-43 12 -77 12q-46 0 -75.5 -23.5t-31.5 -76.5v-159h165q14 0 14 -14v-14q0 -14 -14 -14h-165v-247
q55 -3 108 -35.5t88 -32.5q53 0 101 52q10 10 20 1l12 -9q11 -9 3 -21q-57 -79 -137 -79q-40 0 -99.5 35t-92.5 35q-55 0 -103 -49q-11 -9 -21 -1z" />
    <glyph glyph-name="currency" unicode="&#xa4;" horiz-adv-x="629" 
d="M319 459q69 0 115 -36l99 99q4 4 10 4t10 -4l6 -6q4 -4 4 -10t-4 -10l-99 -99q41 -52 41 -126q0 -67 -35 -119l93 -93q4 -4 4 -10t-4 -10l-6 -6q-5 -5 -10 -5t-10 5l-91 91q-46 -41 -123 -41q-79 0 -127 46l-96 -96q-5 -5 -10 -5t-10 5l-6 6q-5 5 -5 10t5 10l99 98
q-32 50 -32 114q0 69 37 120l-104 105q-5 5 -5 10t5 10l6 6q4 4 10 4t10 -4l103 -103q47 40 120 40zM319 140q36 0 61 15t36.5 38t16 42t4.5 36q0 16 -4.5 35t-16 42.5t-36.5 38.5t-61 15t-61 -15t-36 -38.5t-15.5 -42t-4.5 -35.5t4.5 -36t15.5 -42t36 -38t61 -15z" />
    <glyph glyph-name="yen" unicode="&#xa5;" horiz-adv-x="600" 
d="M457 97h-125v-83q0 -14 -14 -14h-37q-14 0 -14 14v83h-124q-14 0 -14 14v18q0 14 14 14h124v131h-124q-14 0 -14 14v18q0 14 14 14h123l-229 369q-2 4 0.5 8t6.5 4h42q14 0 21 -12l193 -314l193 314q7 12 21 12h42q4 0 6.5 -4t0.5 -8l-231 -369h125q14 0 14 -14v-18
q0 -14 -14 -14h-125v-131h125q14 0 14 -14v-18q0 -14 -14 -14z" />
    <glyph glyph-name="brokenbar" unicode="&#xa6;" horiz-adv-x="162" 
d="M102 168v-353q0 -14 -14 -14h-14q-14 0 -14 14v353q0 14 14 14h14q14 0 14 -14zM102 760v-353q0 -14 -14 -14h-14q-14 0 -14 14v353q0 14 14 14h14q14 0 14 -14z" />
    <glyph glyph-name="section" unicode="&#xa7;" horiz-adv-x="557" 
d="M88 -150l13 17q8 10 21 3q80 -51 146 -51q51 0 90 29.5t39 82.5q0 39 -32 72t-77.5 59.5t-91.5 54t-78 67t-32 87.5q0 47 28.5 85t61.5 60q-36 25 -59 62t-23 78q0 61 50 111t139 50q70 0 149 -49q12 -7 5 -19l-12 -20q-7 -12 -19 -5q-71 35 -117 38q-64 0 -97 -30.5
t-36 -71.5q0 -39 34 -76t94 -65q45 -22 73.5 -38t59 -40.5t45.5 -53.5t15 -63q0 -71 -95 -146q92 -69 85 -154q-4 -68 -60.5 -114t-133.5 -46q-90 0 -182 66q-11 9 -3 20zM145 282q0 -49 49 -90t143 -90q20 18 31 29.5t24.5 36.5t14.5 52q0 42 -35.5 74t-92.5 59.5t-65 33.5
q-69 -52 -69 -105z" />
    <glyph glyph-name="dieresis" unicode="&#xa8;" 
d="M110 633q0 18 11.5 30t29.5 12q17 0 29.5 -12.5t12.5 -29.5t-12.5 -29t-29.5 -12q-18 0 -29.5 12t-11.5 29zM376 633q0 18 11.5 30t29.5 12q17 0 29.5 -12.5t12.5 -29.5t-12.5 -29t-29.5 -12q-18 0 -29.5 12t-11.5 29z" />
    <glyph glyph-name="copyright" unicode="&#xa9;" horiz-adv-x="586" 
d="M293 702q105 0 179 -74.5t74 -179.5q0 -104 -74 -178.5t-179 -74.5q-100 0 -176.5 74.5t-76.5 181.5q0 99 74 175t179 76zM293 229q92 0 156 63.5t64 155.5t-64 156.5t-156 64.5t-156 -64.5t-64 -156.5t64 -155.5t156 -63.5zM203 452q0 44 28 72.5t65 28.5q35 0 67 -18
q11 -7 19 3q8 12 -2 18q-38 29 -84 29q-68 0 -100.5 -42.5t-32.5 -90.5t32.5 -90t100.5 -42q46 0 84 29q10 6 2 18q-8 10 -19 3q-36 -19 -67 -19q-38 0 -65.5 27.5t-27.5 73.5z" />
    <glyph glyph-name="ordfeminine" unicode="&#xaa;" horiz-adv-x="390" 
d="M85 688q56 22 106 22q46 0 76 -12.5t42.5 -37t16.5 -47t4 -56.5v-215q0 -13 -13 -13t-16 13l-7 39q-50 -58 -127 -58q-39 0 -66 11.5t-39 29.5t-17 33.5t-5 30.5q0 57 37 84t93 27q42 0 112 -21v43q0 69 -23 91.5t-74 22.5q-30 0 -89 -19q-13 -6 -17 8q-2 4 -2 6
q-5 12 8 18zM282 424v58q-50 22 -106 22q-38 0 -65.5 -19.5t-27.5 -49.5q0 -35 24.5 -54.5t61.5 -19.5q35 0 68 19.5t45 43.5z" />
    <glyph glyph-name="guillemotleft" unicode="&#xab;" horiz-adv-x="423" 
d="M93 251l124 -148q8 -10 -1 -21l-6 -5q-10 -9 -20 1l-158 168q-2 2 -2 5t2 5l158 169q11 10 20 1l8 -7q10 -10 1 -20zM258 251l124 -148q8 -10 -1 -21l-6 -5q-9 -9 -20 1l-158 168q-2 2 -2 5t2 5l158 169q11 10 20 1l8 -7q10 -10 1 -20z" />
    <glyph glyph-name="logicalnot" unicode="&#xac;" horiz-adv-x="627" 
d="M547 406v-248q0 -14 -14 -14h-57q-14 0 -14 14v184h-368q-14 0 -14 14v50q0 14 14 14h439q14 0 14 -14z" />
    <glyph glyph-name="uni00AD" unicode="&#xad;" horiz-adv-x="400" 
d="M75 234h254q14 0 14 -14v-22q0 -14 -14 -14h-254q-14 0 -14 14v22q0 14 14 14z" />
    <glyph glyph-name="registered" unicode="&#xae;" horiz-adv-x="586" 
d="M293 702q105 0 179 -74.5t74 -179.5q0 -104 -74 -178.5t-179 -74.5q-100 0 -176.5 74.5t-76.5 181.5q0 99 74 175t179 76zM293 229q92 0 156 63.5t64 155.5t-64 156.5t-156 64.5t-156 -64.5t-64 -156.5t64 -155.5t156 -63.5zM241 412v-81q0 -14 -14 -14h-7q-14 0 -14 14
v241q0 14 14 14h88q49 0 72 -27t23 -60q0 -27 -17 -51t-45 -33l44 -86q2 -4 -1 -8t-7 -4h-9q-15 0 -20 12l-42 83h-65zM312 444q30 1 42 18.5t12 36.5q0 21 -12 38.5t-44 17.5h-69v-111h71z" />
    <glyph glyph-name="macron" unicode="&#xaf;" horiz-adv-x="516" 
d="M127 638h273q14 0 14 -14v-18q0 -14 -14 -14h-273q-14 0 -14 14v18q0 14 14 14z" />
    <glyph glyph-name="degree" unicode="&#xb0;" horiz-adv-x="330" 
d="M165 440q-56 0 -95.5 39.5t-39.5 95.5t39.5 95.5t95.5 39.5t95.5 -39.5t39.5 -95.5t-39.5 -95.5t-95.5 -39.5zM165 480q39 0 66.5 27.5t27.5 67.5q0 39 -27.5 66.5t-66.5 27.5q-40 0 -67.5 -27.5t-27.5 -66.5q0 -40 27.5 -67.5t67.5 -27.5z" />
    <glyph glyph-name="plusminus" unicode="&#xb1;" horiz-adv-x="553" 
d="M94 81h365q14 0 14 -14v-13q0 -14 -14 -14h-365q-14 0 -14 14v13q0 14 14 14zM300 304v-118q0 -14 -14 -14h-19q-14 0 -14 14v118h-159q-14 0 -14 14v19q0 14 14 14h159v159q0 14 14 14h19q14 0 14 -14v-159h159q14 0 14 -14v-19q0 -14 -14 -14h-159z" />
    <glyph glyph-name="twosuperior" unicode="&#xb2;" horiz-adv-x="255" 
d="M34 742l-2 2q-9 11 1 20q45 38 93 38q44 0 71.5 -24.5t27.5 -68.5q0 -49 -66 -121l-73 -83h118q14 0 14 -14v-5q0 -14 -14 -14h-168q-9 0 -9 9t6 16l123 142q32 38 32 71q0 20 -14 39t-48 19q-36 0 -72 -28q-11 -9 -20 2z" />
    <glyph glyph-name="threesuperior" unicode="&#xb3;" horiz-adv-x="249" 
d="M219 711q0 -49 -42 -76q20 -11 31 -31.5t11 -43.5q0 -36 -24 -65t-81 -29q-42 0 -82 29q-11 8 -3 20l2 3q9 10 20 3q35 -22 63 -22q29 0 49 16t20 45q0 30 -20 45t-49 15h-22q-14 0 -14 14v2q0 14 14 14h22q28 0 48.5 16.5t20.5 44.5q0 30 -19.5 44.5t-49.5 14.5
q-32 0 -64 -21q-12 -8 -19 3l-3 4q-8 12 3 19q38 27 83 28q57 1 81 -28t24 -64z" />
    <glyph glyph-name="acute" unicode="&#xb4;" horiz-adv-x="510" 
d="M196 625l122 91q12 8 19 -4l13 -19q7 -13 -4 -19l-129 -79q-13 -7 -20 4l-4 6q-9 12 3 20z" />
    <glyph glyph-name="mu" unicode="&#xb5;" horiz-adv-x="592" 
d="M80 -184v671q0 14 14 14h35q14 0 14 -14v-243v-30.5t2.5 -34t7.5 -39t16 -34t26.5 -31.5t40 -19.5t56.5 -8.5q49 0 94.5 27t63.5 57v356q0 14 14 14h34q14 0 14 -14v-472q0 -14 -14 -14h-5q-13 0 -17 14l-12 59q-76 -81 -177 -81q-102 0 -144 53v-230q0 -14 -14 -14h-35
q-14 0 -14 14z" />
    <glyph glyph-name="mu" unicode="&#x3bc;" horiz-adv-x="592" 
d="M80 -184v671q0 14 14 14h35q14 0 14 -14v-243v-30.5t2.5 -34t7.5 -39t16 -34t26.5 -31.5t40 -19.5t56.5 -8.5q49 0 94.5 27t63.5 57v356q0 14 14 14h34q14 0 14 -14v-472q0 -14 -14 -14h-5q-13 0 -17 14l-12 59q-76 -81 -177 -81q-102 0 -144 53v-230q0 -14 -14 -14h-35
q-14 0 -14 14z" />
    <glyph glyph-name="paragraph" unicode="&#xb6;" horiz-adv-x="658" 
d="M40 497q0 34 10 67t31.5 65t61.5 51.5t94 19.5h327q14 0 14 -14v-12q0 -14 -14 -14h-61v-845q0 -14 -14 -14h-12q-14 0 -14 14v845h-149v-845q0 -14 -14 -14h-12q-14 0 -14 14v479h-37q-54 0 -94 19.5t-61.5 51.5t-31.5 65t-10 67z" />
    <glyph glyph-name="periodcentered" unicode="&#xb7;" horiz-adv-x="214" 
d="M60 295q0 19 14 33t33 14t33 -14t14 -33t-14 -33t-33 -14t-33 14t-14 33z" />
    <glyph glyph-name="cedilla" unicode="&#xb8;" horiz-adv-x="554" 
d="M287 -76q-2 4 -2 6v80h37v-54h19q40 -2 62 -27.5t22 -54.5q0 -47 -29 -70.5t-70 -23.5q-32 0 -65 15q-12 5 -6 19l3 6q5 13 19 7q27 -10 44 -10q32 0 46 17.5t14 39.5q0 20 -14.5 34t-47.5 14h-26q-2 0 -6 2z" />
    <glyph glyph-name="onesuperior" unicode="&#xb9;" horiz-adv-x="188" 
d="M29 709l-1 2q-8 12 3 19l94 68q5 3 8 3q5 0 5 -5v-313q0 -14 -14 -14h-10q-14 0 -14 14v251l-51 -29q-13 -7 -20 4z" />
    <glyph glyph-name="ordmasculine" unicode="&#xba;" horiz-adv-x="378" 
d="M189 706q54 0 89 -26.5t47.5 -59.5t12.5 -69q0 -27 -7.5 -52t-23.5 -49.5t-46.5 -39t-71.5 -14.5t-71.5 14.5t-46.5 39t-23.5 49.5t-7.5 52q0 36 12.5 69t47.5 59.5t89 26.5zM189 427q32 0 55.5 14.5t33.5 36.5t14 40t4 33t-4 32.5t-14 39.5t-33.5 36t-55.5 14t-55.5 -14
t-33.5 -36t-14 -39.5t-4 -32.5t4 -33t14 -40t33.5 -36.5t55.5 -14.5zM73 299h231q14 0 14 -14v-11q0 -14 -14 -14h-231q-14 0 -14 14v11q0 14 14 14z" />
    <glyph glyph-name="guillemotright" unicode="&#xbb;" horiz-adv-x="423" 
d="M206 103l124 148l-126 148q-9 10 1 20l8 7q9 9 20 -1l158 -169q2 -2 2 -5t-2 -5l-158 -168q-11 -10 -20 -1l-6 5q-10 10 -1 21zM41 103l124 148l-126 148q-9 10 1 20l8 7q9 9 20 -1l158 -169q2 -2 2 -5t-2 -5l-158 -168q-10 -10 -20 -1l-6 5q-10 10 -1 21z" />
    <glyph glyph-name="onequarter" unicode="&#xbc;" horiz-adv-x="480" 
d="M420 687l-337 -675q-7 -12 -20 -12h-17q-5 0 -7.5 4t-0.5 8l338 675q6 13 20 13h16q5 0 7.5 -4.5t0.5 -8.5zM29 608l-1 2q-8 12 3 19l94 68q5 3 8 3q5 0 5 -5v-313q0 -14 -14 -14h-10q-14 0 -14 14v251l-51 -29q-13 -7 -20 4zM418 63v-50q0 -14 -14 -14h-11q-14 0 -14 14
v50h-140q-10 0 -10 10t5 18l144 224q9 12 22 12h4q14 0 14 -14v-217h32q14 0 14 -14v-5q0 -14 -14 -14h-32zM379 257l-104 -161h104v161z" />
    <glyph glyph-name="onehalf" unicode="&#xbd;" horiz-adv-x="541" 
d="M420 687l-337 -675q-7 -12 -20 -12h-17q-5 0 -7.5 4t-0.5 8l338 675q6 13 20 13h16q5 0 7.5 -4.5t0.5 -8.5zM29 608l-1 2q-8 12 3 19l94 68q5 3 8 3q5 0 5 -5v-313q0 -14 -14 -14h-10q-14 0 -14 14v251l-51 -29q-13 -7 -20 4zM303 270l-2 2q-9 11 1 20q45 38 93 38
q44 0 71.5 -24.5t27.5 -68.5q0 -49 -66 -121l-73 -83h118q14 0 14 -14v-5q0 -14 -14 -14h-179q-5 0 -5 5t3 9l133 153q32 38 32 71q0 20 -14 39t-48 19q-36 0 -72 -28q-11 -9 -20 2z" />
    <glyph glyph-name="threequarters" unicode="&#xbe;" horiz-adv-x="562" 
d="M238 611q0 -49 -42 -76q20 -11 31 -31.5t11 -43.5q0 -36 -24 -65t-81 -29q-27 0 -57.5 14t-30.5 26q0 4 3 9l2 3q5 5 12 5q2 0 8 -2q35 -22 63 -22q29 0 49 16t20 45q0 30 -20 45t-49 15h-22q-14 0 -14 14v2q0 14 14 14h22q28 0 48.5 16.5t20.5 44.5q0 30 -19.5 44.5
t-49.5 14.5q-32 0 -64 -21q-5 -3 -8 -3q-8 0 -11 6l-3 4q-3 3 -3 8q0 13 29.5 26t59.5 13q58 0 81.5 -28.5t23.5 -63.5zM475 687l-337 -675q-7 -12 -20 -12h-17q-9 0 -9 9q0 2 1 3l338 675q7 13 20 13h16q9 0 9 -9v-3zM487 63v-50q0 -14 -14 -14h-11q-14 0 -14 14v50h-140
q-10 0 -10 10t5 18l144 224q9 12 22 12h4q14 0 14 -14v-217h32q14 0 14 -14v-5q0 -14 -14 -14h-32zM448 257l-104 -161h104v161z" />
    <glyph glyph-name="questiondown" unicode="&#xbf;" horiz-adv-x="530" 
d="M310 460q0 -17 -12 -29.5t-29 -12.5t-29.5 12.5t-12.5 29.5t12.5 29t29.5 12t29 -12t12 -29zM242 245v39q0 14 14 14h26q14 0 14 -14v-39q0 -29 -16 -58t-38 -54t-44.5 -51t-38.5 -60.5t-16 -71.5q0 -17 4.5 -34t16.5 -36t38.5 -30.5t63.5 -11.5q63 0 143 69q9 9 19 -2
l13 -14q9 -9 -1 -20q-44 -43 -87.5 -62.5t-101.5 -19.5q-75 0 -123 42t-48 118q0 43 24.5 88t54 76.5t55.5 68t28 63.5z" />
    <glyph glyph-name="Agrave" unicode="&#xc0;" horiz-adv-x="666" 
d="M562 14l-76 187h-305l-75 -187q-5 -13 -19 -13h-43q-5 0 -8 4t-1 9l285 687q4 9 14 9q9 0 14 -9l285 -687q2 -5 -1 -9t-8 -4h-43q-14 0 -19 13zM334 577l-134 -330h267zM286 916l122 -91q10 -7 3 -20l-4 -6q-9 -10 -20 -4l-129 79q-11 6 -4 19l13 19q7 12 19 4z" />
    <glyph glyph-name="Aacute" unicode="&#xc1;" horiz-adv-x="666" 
d="M562 14l-76 187h-305l-75 -187q-5 -13 -19 -13h-43q-5 0 -8 4t-1 9l285 687q4 9 14 9q9 0 14 -9l285 -687q2 -5 -1 -9t-8 -4h-43q-14 0 -19 13zM334 577l-134 -330h267zM257 825l122 91q12 8 19 -4l13 -19q7 -13 -4 -19l-129 -79q-13 -7 -20 4l-4 6q-9 12 3 20z" />
    <glyph glyph-name="Acircumflex" unicode="&#xc2;" horiz-adv-x="666" 
d="M562 14l-76 187h-305l-75 -187q-5 -13 -19 -13h-43q-5 0 -8 4t-1 9l285 687q4 9 14 9q9 0 14 -9l285 -687q2 -5 -1 -9t-8 -4h-43q-14 0 -19 13zM334 577l-134 -330h267zM200 824l122 91q11 9 22 0l122 -91q10 -7 3 -20l-4 -6q-9 -10 -20 -4l-112 68l-112 -68
q-13 -7 -20 4l-4 6q-9 12 3 20z" />
    <glyph glyph-name="Atilde" unicode="&#xc3;" horiz-adv-x="666" 
d="M562 14l-76 187h-305l-75 -187q-5 -13 -19 -13h-43q-5 0 -8 4t-1 9l285 687q4 9 14 9q9 0 14 -9l285 -687q2 -5 -1 -9t-8 -4h-43q-14 0 -19 13zM334 577l-134 -330h267zM459 870l11 -6q13 -7 5 -19q-36 -56 -93 -54q-27 1 -56 22t-51 21q-33 0 -55 -31q-7 -12 -20 -6
l-5 3q-13 5 -7 19q30 62 89 62q25 0 56.5 -21t50.5 -23q31 -4 55 28q9 11 20 5z" />
    <glyph glyph-name="Adieresis" unicode="&#xc4;" horiz-adv-x="666" 
d="M158 833q0 18 11.5 30t29.5 12q17 0 29.5 -12.5t12.5 -29.5t-12.5 -29t-29.5 -12q-18 0 -29.5 12t-11.5 29zM424 833q0 18 11.5 30t29.5 12q17 0 29.5 -12.5t12.5 -29.5t-12.5 -29t-29.5 -12q-18 0 -29.5 12t-11.5 29zM562 14l-76 187h-305l-75 -187q-5 -13 -19 -13h-43
q-5 0 -8 4t-1 9l285 687q4 9 14 9q9 0 14 -9l285 -687q2 -5 -1 -9t-8 -4h-43q-14 0 -19 13zM334 577l-134 -330h267z" />
    <glyph glyph-name="Aring" unicode="&#xc5;" horiz-adv-x="666" 
d="M243 879q0 37 26.5 63.5t63.5 26.5t63 -26.5t26 -63.5t-26 -63t-63 -26t-63.5 26t-26.5 63zM282 879q0 -20 15.5 -35t35.5 -15q19 0 34.5 15.5t15.5 34.5q0 20 -15 35.5t-35 15.5t-35.5 -15.5t-15.5 -35.5zM562 14l-76 187h-305l-75 -187q-5 -13 -19 -13h-43q-5 0 -8 4
t-1 9l285 687q4 9 14 9q9 0 14 -9l285 -687q2 -5 -1 -9t-8 -4h-43q-14 0 -19 13zM334 577l-134 -330h267z" />
    <glyph glyph-name="AE" unicode="&#xc6;" horiz-adv-x="838" 
d="M681 320h-284v-270h367q14 0 14 -14v-22q0 -14 -14 -14h-416q-14 0 -14 14v187h-151l-77 -188q-5 -13 -19 -13h-43q-5 0 -8 4t-1 9l283 674q5 13 19 13h427q14 0 14 -14v-22q0 -14 -14 -14h-367v-280h284q14 0 14 -14v-22q0 -14 -14 -14zM334 568l-132 -321h132v321z" />
    <glyph glyph-name="Ccedilla" unicode="&#xc7;" horiz-adv-x="710" 
d="M382 -76q-2 4 -2 6v64q-71 4 -128 29t-92 61.5t-58.5 84t-32.5 93.5t-9 92t10 92.5t35 95t63 85.5t99 60.5t138 23.5q136 0 234 -85q11 -10 2 -19l-20 -22q-10 -10 -20 -1q-92 73 -196 72q-70 -1 -123.5 -26.5t-82 -60t-46.5 -79t-23 -76.5t-5 -60q0 -23 4 -50t13.5 -63
t30.5 -68t50 -60.5t76 -45t106 -16.5q103 0 197 68q11 7 20 -3l17 -23q9 -11 -2 -20q-97 -76 -220 -80v-37h19q40 -2 62 -27.5t22 -54.5q0 -47 -29 -70.5t-70 -23.5q-32 0 -65 15q-12 5 -6 19l3 6q5 13 19 7q27 -10 44 -10q32 0 46 17.5t14 39.5q0 20 -14.5 34t-47.5 14h-26
q-2 0 -6 2z" />
    <glyph glyph-name="Egrave" unicode="&#xc8;" horiz-adv-x="604" 
d="M447 320h-284v-270h367q14 0 14 -14v-22q0 -14 -14 -14h-416q-14 0 -14 14v672q0 14 14 14h416q14 0 14 -14v-22q0 -14 -14 -14h-367v-280h284q14 0 14 -14v-22q0 -14 -14 -14zM255 916l122 -91q10 -7 3 -20l-4 -6q-9 -10 -20 -4l-129 79q-11 6 -4 19l13 19q7 12 19 4z
" />
    <glyph glyph-name="Eacute" unicode="&#xc9;" horiz-adv-x="604" 
d="M447 320h-284v-270h367q14 0 14 -14v-22q0 -14 -14 -14h-416q-14 0 -14 14v672q0 14 14 14h416q14 0 14 -14v-22q0 -14 -14 -14h-367v-280h284q14 0 14 -14v-22q0 -14 -14 -14zM226 825l122 91q12 8 19 -4l13 -19q7 -13 -4 -19l-129 -79q-13 -7 -20 4l-4 6q-9 12 3 20z
" />
    <glyph glyph-name="Ecircumflex" unicode="&#xca;" horiz-adv-x="604" 
d="M447 320h-284v-270h367q14 0 14 -14v-22q0 -14 -14 -14h-416q-14 0 -14 14v672q0 14 14 14h416q14 0 14 -14v-22q0 -14 -14 -14h-367v-280h284q14 0 14 -14v-22q0 -14 -14 -14zM182 824l122 91q11 9 22 0l122 -91q10 -7 3 -20l-4 -6q-9 -10 -20 -4l-112 68l-112 -68
q-13 -7 -20 4l-4 6q-9 12 3 20z" />
    <glyph glyph-name="Edieresis" unicode="&#xcb;" horiz-adv-x="604" 
d="M141 833q0 18 11.5 30t29.5 12q17 0 29.5 -12.5t12.5 -29.5t-12.5 -29t-29.5 -12q-18 0 -29.5 12t-11.5 29zM407 833q0 18 11.5 30t29.5 12q17 0 29.5 -12.5t12.5 -29.5t-12.5 -29t-29.5 -12q-18 0 -29.5 12t-11.5 29zM447 320h-284v-270h367q14 0 14 -14v-22
q0 -14 -14 -14h-416q-14 0 -14 14v672q0 14 14 14h416q14 0 14 -14v-22q0 -14 -14 -14h-367v-280h284q14 0 14 -14v-22q0 -14 -14 -14z" />
    <glyph glyph-name="Igrave" unicode="&#xcc;" horiz-adv-x="213" 
d="M138 686v-672q0 -14 -14 -14h-35q-14 0 -14 14v672q0 14 14 14h35q14 0 14 -14zM60 916l122 -91q10 -7 3 -20l-4 -6q-9 -10 -20 -4l-129 79q-11 6 -4 19l13 19q7 12 19 4z" />
    <glyph glyph-name="Iacute" unicode="&#xcd;" horiz-adv-x="213" 
d="M138 686v-672q0 -14 -14 -14h-35q-14 0 -14 14v672q0 14 14 14h35q14 0 14 -14zM31 825l122 91q12 8 19 -4l13 -19q7 -13 -4 -19l-129 -79q-13 -7 -20 4l-4 6q-9 12 3 20z" />
    <glyph glyph-name="Icircumflex" unicode="&#xce;" horiz-adv-x="288" 
d="M175 686v-672q0 -14 -14 -14h-35q-14 0 -14 14v672q0 14 14 14h35q14 0 14 -14zM11 824l122 91q11 9 22 0l122 -91q10 -7 3 -20l-4 -6q-9 -10 -20 -4l-112 68l-112 -68q-13 -7 -20 4l-4 6q-9 12 3 20z" />
    <glyph glyph-name="Idieresis" unicode="&#xcf;" horiz-adv-x="349" 
d="M0 833q0 18 11.5 30t29.5 12q17 0 29.5 -12.5t12.5 -29.5t-12.5 -29t-29.5 -12q-18 0 -29.5 12t-11.5 29zM266 833q0 18 11.5 30t29.5 12q17 0 29.5 -12.5t12.5 -29.5t-12.5 -29t-29.5 -12q-18 0 -29.5 12t-11.5 29zM206 686v-672q0 -14 -14 -14h-35q-14 0 -14 14v672
q0 14 14 14h35q14 0 14 -14z" />
    <glyph glyph-name="Eth" unicode="&#xd0;" horiz-adv-x="741" 
d="M52 377h48v309q0 14 14 14h221q77 0 138.5 -22.5t99 -58t63 -83t35.5 -93t10 -92.5q0 -48 -10 -94.5t-35 -93.5t-63.5 -82.5t-99.5 -58t-138 -22.5h-221q-14 0 -14 14v309h-48q-14 0 -14 14v26q0 14 14 14zM163 50h172q69 0 123 24.5t83.5 59t48.5 78.5t24.5 77.5
t5.5 61.5t-5.5 61.5t-24.5 77.5t-48.5 78.5t-83.5 58.5t-123 24h-172v-274h189q14 0 14 -14v-26q0 -14 -14 -14h-189v-273z" />
    <glyph glyph-name="Ntilde" unicode="&#xd1;" horiz-adv-x="758" 
d="M150 0h-36q-14 0 -14 14v683q0 10 9 10t16 -7l470 -555v541q0 14 14 14h35q14 0 14 -14v-684q0 -8 -9 -8q-8 0 -14 6l-471 554v-540q0 -14 -14 -14zM505 870l11 -6q13 -7 5 -19q-36 -56 -93 -54q-27 1 -56 22t-51 21q-33 0 -55 -31q-7 -12 -20 -6l-5 3q-13 5 -7 19
q30 62 89 62q25 0 56.5 -21t50.5 -23q31 -4 55 28q9 11 20 5z" />
    <glyph glyph-name="Ograve" unicode="&#xd2;" horiz-adv-x="811" 
d="M405 709q77 0 138.5 -23.5t99.5 -60t63 -85t35 -95t10 -93.5q0 -48 -10 -95t-35 -96t-63 -85.5t-99.5 -59.5t-138.5 -23t-138 23t-99 59.5t-63 85.5t-35 96t-10 95q0 47 10 93.5t35 95t63 85t99 60t138 23.5zM405 48q51 0 93 13t70 33.5t50 49t34.5 56.5t20 58.5t10 52.5
t2.5 41q0 29 -5 61.5t-23 77t-46.5 79t-82 59t-123.5 24.5t-123.5 -24.5t-82 -59t-46.5 -79t-23 -77t-5 -61.5q0 -19 2.5 -41t10 -52.5t20 -58.5t34.5 -56.5t50 -49t70 -33.5t93 -13zM353 916l122 -91q10 -7 3 -20l-4 -6q-9 -10 -20 -4l-129 79q-11 6 -4 19l13 19q7 12 19 4
z" />
    <glyph glyph-name="Oacute" unicode="&#xd3;" horiz-adv-x="811" 
d="M405 709q77 0 138.5 -23.5t99.5 -60t63 -85t35 -95t10 -93.5q0 -48 -10 -95t-35 -96t-63 -85.5t-99.5 -59.5t-138.5 -23t-138 23t-99 59.5t-63 85.5t-35 96t-10 95q0 47 10 93.5t35 95t63 85t99 60t138 23.5zM405 48q51 0 93 13t70 33.5t50 49t34.5 56.5t20 58.5t10 52.5
t2.5 41q0 29 -5 61.5t-23 77t-46.5 79t-82 59t-123.5 24.5t-123.5 -24.5t-82 -59t-46.5 -79t-23 -77t-5 -61.5q0 -19 2.5 -41t10 -52.5t20 -58.5t34.5 -56.5t50 -49t70 -33.5t93 -13zM324 825l122 91q12 8 19 -4l13 -19q7 -13 -4 -19l-129 -79q-11 -6 -20 4l-4 6q-7 13 3 20
z" />
    <glyph glyph-name="Ocircumflex" unicode="&#xd4;" horiz-adv-x="811" 
d="M405 709q77 0 138.5 -23.5t99.5 -60t63 -85t35 -95t10 -93.5q0 -48 -10 -95t-35 -96t-63 -85.5t-99.5 -59.5t-138.5 -23t-138 23t-99 59.5t-63 85.5t-35 96t-10 95q0 47 10 93.5t35 95t63 85t99 60t138 23.5zM405 48q51 0 93 13t70 33.5t50 49t34.5 56.5t20 58.5t10 52.5
t2.5 41q0 29 -5 61.5t-23 77t-46.5 79t-82 59t-123.5 24.5t-123.5 -24.5t-82 -59t-46.5 -79t-23 -77t-5 -61.5q0 -19 2.5 -41t10 -52.5t20 -58.5t34.5 -56.5t50 -49t70 -33.5t93 -13zM272 824l122 91q11 9 22 0l122 -91q10 -7 3 -20l-4 -6q-9 -10 -20 -4l-112 68l-112 -68
q-13 -7 -20 4l-4 6q-9 12 3 20z" />
    <glyph glyph-name="Otilde" unicode="&#xd5;" horiz-adv-x="811" 
d="M405 709q77 0 138.5 -23.5t99.5 -60t63 -85t35 -95t10 -93.5q0 -48 -10 -95t-35 -96t-63 -85.5t-99.5 -59.5t-138.5 -23t-138 23t-99 59.5t-63 85.5t-35 96t-10 95q0 47 10 93.5t35 95t63 85t99 60t138 23.5zM405 48q51 0 93 13t70 33.5t50 49t34.5 56.5t20 58.5t10 52.5
t2.5 41q0 29 -5 61.5t-23 77t-46.5 79t-82 59t-123.5 24.5t-123.5 -24.5t-82 -59t-46.5 -79t-23 -77t-5 -61.5q0 -19 2.5 -41t10 -52.5t20 -58.5t34.5 -56.5t50 -49t70 -33.5t93 -13zM532 870l11 -6q13 -7 5 -19q-36 -56 -93 -54q-27 1 -56 22t-51 21q-33 0 -55 -31
q-7 -12 -20 -6l-5 3q-13 5 -7 19q30 62 89 62q25 0 56.5 -21t50.5 -23q31 -4 55 28q9 11 20 5z" />
    <glyph glyph-name="Odieresis" unicode="&#xd6;" horiz-adv-x="811" 
d="M405 709q77 0 138.5 -23.5t99.5 -60t63 -85t35 -95t10 -93.5q0 -48 -10 -95t-35 -96t-63 -85.5t-99.5 -59.5t-138.5 -23t-138 23t-99 59.5t-63 85.5t-35 96t-10 95q0 47 10 93.5t35 95t63 85t99 60t138 23.5zM405 48q51 0 93 13t70 33.5t50 49t34.5 56.5t20 58.5t10 52.5
t2.5 41q0 29 -5 61.5t-23 77t-46.5 79t-82 59t-123.5 24.5t-123.5 -24.5t-82 -59t-46.5 -79t-23 -77t-5 -61.5q0 -19 2.5 -41t10 -52.5t20 -58.5t34.5 -56.5t50 -49t70 -33.5t93 -13zM231 833q0 18 11.5 30t29.5 12q17 0 29.5 -12.5t12.5 -29.5t-12.5 -29t-29.5 -12
q-18 0 -29.5 12t-11.5 29zM497 833q0 18 11.5 30t29.5 12q17 0 29.5 -12.5t12.5 -29.5t-12.5 -29t-29.5 -12q-18 0 -29.5 12t-11.5 29z" />
    <glyph glyph-name="multiply" unicode="&#xd7;" horiz-adv-x="517" 
d="M145 341l113 -113l113 113q10 10 20 0l14 -13q9 -11 0 -20l-112 -112l114 -114q10 -10 0 -20l-15 -15q-10 -10 -20 0l-114 114l-114 -114q-10 -10 -20 0l-14 14q-10 10 0 20l114 115l-112 113q-11 9 0 20l13 12q9 11 20 0z" />
    <glyph glyph-name="Oslash" unicode="&#xd8;" horiz-adv-x="812" 
d="M123 7l-14 12q-5 4 -5 11q0 4 3 9l45 53q-92 100 -92 260q0 47 10 93.5t35 95t63 85t99 60t138 23.5q127 0 212 -63l48 57q5 5 11 5q4 0 9 -3l14 -12q5 -5 5 -11t-3 -9l-49 -57q51 -52 75 -123t24 -141q0 -48 -10 -95t-35 -96t-63 -85.5t-99.5 -59.5t-138.5 -23
q-134 0 -219 67l-43 -51q-4 -5 -11 -5q-6 0 -9 3zM405 48q51 0 93 13t70 33.5t50 49t34.5 56.5t20 58.5t10 52.5t2.5 41q0 48 -16.5 107.5t-57.5 107.5l-386 -460q71 -59 180 -59zM125 352q0 -125 68 -211l385 458q-69 54 -173 54q-70 0 -123.5 -24.5t-82 -59t-46.5 -79
t-23 -77t-5 -61.5z" />
    <glyph glyph-name="Ugrave" unicode="&#xd9;" horiz-adv-x="715" 
d="M356 44q58 0 101 25t63.5 62.5t30 70t9.5 59.5v425q0 14 14 14h37q14 0 14 -14v-425q0 -36 -8.5 -72t-29 -72t-50.5 -63t-77 -44t-104 -17t-103 17t-76 44t-50 63t-28.5 72t-8.5 72v425q0 14 14 14h34q14 0 14 -14v-425q0 -20 5.5 -45.5t20 -56.5t36 -56t59 -42t83.5 -17
zM311 916l122 -91q5 -5 5 -11q0 -3 -2 -9l-4 -6q-4 -6 -12 -6q-6 0 -8 2l-129 79q-6 3 -6 11q0 5 2 8l13 19q3 6 11 6q4 0 8 -2z" />
    <glyph glyph-name="Uacute" unicode="&#xda;" horiz-adv-x="715" 
d="M356 44q58 0 101 25t63.5 62.5t30 70t9.5 59.5v425q0 14 14 14h37q14 0 14 -14v-425q0 -36 -8.5 -72t-29 -72t-50.5 -63t-77 -44t-104 -17t-103 17t-76 44t-50 63t-28.5 72t-8.5 72v425q0 14 14 14h34q14 0 14 -14v-425q0 -20 5.5 -45.5t20 -56.5t36 -56t59 -42t83.5 -17
zM282 825l122 91q4 2 8 2q6 0 11 -6l13 -19q2 -6 2 -8q0 -8 -6 -11l-129 -79q-3 -2 -8 -2q-9 0 -12 6l-4 6q-3 5 -3 9q0 6 6 11z" />
    <glyph glyph-name="Ucircumflex" unicode="&#xdb;" horiz-adv-x="715" 
d="M356 44q58 0 101 25t63.5 62.5t30 70t9.5 59.5v425q0 14 14 14h37q14 0 14 -14v-425q0 -36 -8.5 -72t-29 -72t-50.5 -63t-77 -44t-104 -17t-103 17t-76 44t-50 63t-28.5 72t-8.5 72v425q0 14 14 14h34q14 0 14 -14v-425q0 -20 5.5 -45.5t20 -56.5t36 -56t59 -42t83.5 -17
zM224 824l122 91q6 4 11 4t11 -4l122 -91q5 -5 5 -11q0 -3 -2 -9l-4 -6q-5 -6 -12 -6q-6 0 -8 2l-112 68l-112 -68q-3 -2 -8 -2q-9 0 -12 6l-4 6q-3 4 -3 9q0 6 6 11z" />
    <glyph glyph-name="Udieresis" unicode="&#xdc;" horiz-adv-x="715" 
d="M183 833q0 18 11.5 30t29.5 12q17 0 29.5 -12.5t12.5 -29.5t-12.5 -29t-29.5 -12q-18 0 -29.5 12t-11.5 29zM449 833q0 18 11.5 30t29.5 12q17 0 29.5 -12.5t12.5 -29.5t-12.5 -29t-29.5 -12q-18 0 -29.5 12t-11.5 29zM356 44q58 0 101 25t63.5 62.5t30 70t9.5 59.5v425
q0 14 14 14h37q14 0 14 -14v-425q0 -36 -8.5 -72t-29 -72t-50.5 -63t-77 -44t-104 -17t-103 17t-76 44t-50 63t-28.5 72t-8.5 72v425q0 14 14 14h34q14 0 14 -14v-425q0 -20 5.5 -45.5t20 -56.5t36 -56t59 -42t83.5 -17z" />
    <glyph glyph-name="Yacute" unicode="&#xdd;" horiz-adv-x="600" 
d="M332 320v-306q0 -14 -14 -14h-37q-14 0 -14 14v305l-230 370q-2 4 0.5 8t6.5 4h42q14 0 21 -12l193 -314l193 314q7 12 21 12h42q4 0 6.5 -4t0.5 -8zM224 825l122 91q12 8 19 -4l13 -19q7 -13 -4 -19l-129 -79q-13 -7 -20 4l-4 6q-9 12 3 20z" />
    <glyph glyph-name="Thorn" unicode="&#xde;" horiz-adv-x="618" 
d="M314 98h-153v-84q0 -14 -14 -14h-33q-14 0 -14 14v672q0 14 14 14h33q14 0 14 -14v-84h153q67 0 117 -24.5t76 -63.5t38.5 -80.5t12.5 -83.5t-12.5 -83.5t-38.5 -80.5t-76 -63.5t-117 -24.5zM161 555v-410h145q56 0 97 22.5t60.5 57t28 66t8.5 59.5t-8.5 59.5t-28 66
t-60.5 57t-97 22.5h-145z" />
    <glyph glyph-name="germandbls" unicode="&#xdf;" horiz-adv-x="637" 
d="M469 167q0 29 -15.5 56.5t-34 45.5t-34 41t-15.5 44q0 23 20 49.5t40 58.5t20 68q0 7 -1 16.5t-8.5 31.5t-20.5 38t-42 29.5t-68 13.5q-23 0 -44.5 -5.5t-46 -19.5t-40 -44.5t-15.5 -74.5v-571q0 -14 -14 -14h-36q-14 0 -14 14v569q0 55 20.5 95t46 58.5t59 29t48 12
t25.5 1.5q49 0 87.5 -13t60.5 -32.5t36.5 -45t19.5 -47.5t5 -42q0 -35 -11.5 -62.5t-25 -41.5t-25 -31.5t-11.5 -33.5q0 -24 16 -45t35 -36.5t35 -46t16 -69.5q0 -77 -59.5 -124t-174.5 -50q-14 0 -14 14v24q0 14 14 14q89 1 127.5 38t38.5 88z" />
    <glyph glyph-name="agrave" unicode="&#xe0;" horiz-adv-x="526" 
d="M216 716l122 -91q10 -7 3 -20l-4 -6q-9 -10 -20 -4l-129 79q-11 6 -4 19l13 19q7 12 19 4zM112 434l-6 20q-5 12 8 19q85 35 148 35q50 0 85.5 -12.5t54.5 -30t29.5 -47t13 -54t2.5 -60.5v-290q0 -14 -14 -14h-6q-13 0 -17 14l-11 55q-64 -77 -169 -77q-170 0 -170 153
q0 36 11.5 64.5t31 46t46.5 28.5t55 15.5t60 4.5q68 0 120 -13v18q0 92 -31 121t-99 27q-41 -1 -124 -31q-12 -5 -18 8zM384 126v113q-54 15 -104 15q-33 0 -58.5 -4t-50.5 -14.5t-38.5 -33t-13.5 -56.5q0 -49 32 -76.5t82 -27.5q46 0 90 26.5t61 57.5z" />
    <glyph glyph-name="aacute" unicode="&#xe1;" horiz-adv-x="526" 
d="M188 625l122 91q12 8 19 -4l13 -19q7 -13 -4 -19l-129 -79q-13 -7 -20 4l-4 6q-9 12 3 20zM112 434l-6 20q-5 12 8 19q85 35 148 35q50 0 85.5 -12.5t54.5 -30t29.5 -47t13 -54t2.5 -60.5v-290q0 -14 -14 -14h-6q-13 0 -17 14l-11 55q-64 -77 -169 -77q-170 0 -170 153
q0 36 11.5 64.5t31 46t46.5 28.5t55 15.5t60 4.5q68 0 120 -13v18q0 92 -31 121t-99 27q-41 -1 -124 -31q-12 -5 -18 8zM384 126v113q-54 15 -104 15q-33 0 -58.5 -4t-50.5 -14.5t-38.5 -33t-13.5 -56.5q0 -49 32 -76.5t82 -27.5q46 0 90 26.5t61 57.5z" />
    <glyph glyph-name="acircumflex" unicode="&#xe2;" horiz-adv-x="526" 
d="M130 624l122 91q11 9 22 0l122 -91q10 -7 3 -20l-4 -6q-9 -10 -20 -4l-112 68l-112 -68q-13 -7 -20 4l-4 6q-9 12 3 20zM112 434l-6 20q-5 12 8 19q85 35 148 35q50 0 85.5 -12.5t54.5 -30t29.5 -47t13 -54t2.5 -60.5v-290q0 -14 -14 -14h-6q-13 0 -17 14l-11 55
q-64 -77 -169 -77q-170 0 -170 153q0 36 11.5 64.5t31 46t46.5 28.5t55 15.5t60 4.5q68 0 120 -13v18q0 92 -31 121t-99 27q-41 -1 -124 -31q-12 -5 -18 8zM384 126v113q-54 15 -104 15q-33 0 -58.5 -4t-50.5 -14.5t-38.5 -33t-13.5 -56.5q0 -49 32 -76.5t82 -27.5
q46 0 90 26.5t61 57.5z" />
    <glyph glyph-name="atilde" unicode="&#xe3;" horiz-adv-x="526" 
d="M390 670l11 -6q13 -7 5 -19q-36 -56 -93 -54q-27 1 -56 22t-51 21q-33 0 -55 -31q-7 -12 -20 -6l-5 3q-13 5 -7 19q30 62 89 62q25 0 56.5 -21t50.5 -23q31 -4 55 28q9 11 20 5zM112 434l-6 20q-5 12 8 19q85 35 148 35q50 0 85.5 -12.5t54.5 -30t29.5 -47t13 -54
t2.5 -60.5v-290q0 -14 -14 -14h-6q-13 0 -17 14l-11 55q-64 -77 -169 -77q-170 0 -170 153q0 36 11.5 64.5t31 46t46.5 28.5t55 15.5t60 4.5q68 0 120 -13v18q0 92 -31 121t-99 27q-41 -1 -124 -31q-12 -5 -18 8zM384 126v113q-54 15 -104 15q-33 0 -58.5 -4t-50.5 -14.5
t-38.5 -33t-13.5 -56.5q0 -49 32 -76.5t82 -27.5q46 0 90 26.5t61 57.5z" />
    <glyph glyph-name="adieresis" unicode="&#xe4;" horiz-adv-x="526" 
d="M91 647q9 28 39 28q17 0 29.5 -12.5t12.5 -29.5t-12.5 -29t-29.5 -12q-31 0 -39 27q-5 14 0 28zM357 647q9 28 39 28q17 0 29.5 -12.5t12.5 -29.5t-12.5 -29t-29.5 -12q-31 0 -39 27q-5 14 0 28zM112 434l-6 20q-5 12 8 19q85 35 148 35q50 0 85.5 -12.5t54.5 -30
t29.5 -47t13 -54t2.5 -60.5v-290q0 -14 -14 -14h-6q-13 0 -17 14l-11 55q-64 -77 -169 -77q-170 0 -170 153q0 36 11.5 64.5t31 46t46.5 28.5t55 15.5t60 4.5q68 0 120 -13v18q0 92 -31 121t-99 27q-41 -1 -124 -31q-12 -5 -18 8zM384 126v113q-54 15 -104 15
q-33 0 -58.5 -4t-50.5 -14.5t-38.5 -33t-13.5 -56.5q0 -49 32 -76.5t82 -27.5q46 0 90 26.5t61 57.5z" />
    <glyph glyph-name="aring" unicode="&#xe5;" horiz-adv-x="526" 
d="M173 679q0 37 26.5 63.5t63.5 26.5t63 -26.5t26 -63.5t-26 -63t-63 -26t-63.5 26t-26.5 63zM212 679q0 -20 15.5 -35t35.5 -15q19 0 34.5 15.5t15.5 34.5q0 20 -15 35.5t-35 15.5t-35.5 -15.5t-15.5 -35.5zM112 434l-6 20q-5 12 8 19q85 35 148 35q50 0 85.5 -12.5
t54.5 -30t29.5 -47t13 -54t2.5 -60.5v-290q0 -14 -14 -14h-6q-13 0 -17 14l-11 55q-64 -77 -169 -77q-170 0 -170 153q0 36 11.5 64.5t31 46t46.5 28.5t55 15.5t60 4.5q68 0 120 -13v18q0 92 -31 121t-99 27q-41 -1 -124 -31q-12 -5 -18 8zM384 126v113q-54 15 -104 15
q-33 0 -58.5 -4t-50.5 -14.5t-38.5 -33t-13.5 -56.5q0 -49 32 -76.5t82 -27.5q46 0 90 26.5t61 57.5z" />
    <glyph glyph-name="ae" unicode="&#xe6;" horiz-adv-x="848" 
d="M773 85l11 -14q3 -5 3 -9q0 -6 -5 -11q-72 -59 -176 -59q-126 0 -194 85q-33 -38 -81.5 -61.5t-100.5 -23.5q-170 0 -170 153q0 36 11.5 64.5t31 46t46.5 28.5t55 15.5t60 4.5q40 0 96 -9q8 46 19 73q-9 51 -36.5 70t-76.5 19t-136 -31q-2 -1 -5 -1q-10 0 -13 9l-6 20
q-1 2 -1 5q0 18 60 33.5t97 15.5q120 0 161 -71q67 74 183 74q94 0 145.5 -56.5t51.5 -153.5v-7v-9.5t-0.5 -9.5t-1.5 -9.5t-3 -7.5t-5 -6t-7 -2h-368q2 -33 12 -66t30 -67t58 -55t88 -21q82 0 147 46q3 3 9 3t11 -5zM233 42q46 0 89.5 26t60.5 57q-24 54 -26 120
q-43 9 -77 9q-33 0 -58.5 -4t-50.5 -14.5t-38.5 -33t-13.5 -56.5q0 -49 32 -76.5t82 -27.5zM605 460q-81 0 -125.5 -47.5t-60.5 -117.5h324q1 7 1 23q0 57 -34 98t-105 44z" />
    <glyph glyph-name="ccedilla" unicode="&#xe7;" horiz-adv-x="542" 
d="M279 -76q-2 4 -2 6v61q-62 5 -106.5 31t-67.5 66t-33 80.5t-10 85.5q0 34 7 67.5t25 69t45.5 62t72 43.5t99.5 17q94 0 163 -62q11 -11 0 -20l-15 -17q-9 -10 -20 -1q-60 43 -129 43q-77 0 -131.5 -53.5t-54.5 -148.5q0 -86 49 -149.5t136 -63.5q67 0 125 46q11 9 20 -2
l14 -15q10 -10 -1 -20q-66 -57 -151 -60v-34h19q40 -2 62 -27.5t22 -54.5q0 -47 -29 -70.5t-70 -23.5q-32 0 -65 15q-12 5 -6 19l3 6q5 13 19 7q27 -10 44 -10q32 0 46 17.5t14 39.5q0 20 -14.5 34t-47.5 14h-26q-2 0 -6 2z" />
    <glyph glyph-name="egrave" unicode="&#xe8;" horiz-adv-x="551" 
d="M476 85l11 -14q3 -5 3 -9q0 -6 -5 -11q-72 -59 -176 -59q-68 0 -119 25t-78 65.5t-39.5 83t-12.5 86.5q0 43 12.5 85.5t39.5 83t78 65.5t119 25q94 0 145.5 -56.5t51.5 -153.5v-7v-9.5t-0.5 -9.5t-1.5 -9.5t-3 -7.5t-5 -6t-7 -2h-368q2 -33 12 -66t30 -67t58 -55t88 -21
q82 0 147 46q3 3 9 3t11 -5zM294 460q-75 -5 -116 -51.5t-56 -113.5h324q1 8 1 24q0 60 -37 100.5t-116 40.5zM229 716l122 -91q5 -5 5 -11q0 -3 -2 -9l-4 -6q-4 -6 -12 -6q-6 0 -8 2l-129 79q-6 3 -6 11q0 5 2 8l13 19q3 6 11 6q4 0 8 -2z" />
    <glyph glyph-name="eacute" unicode="&#xe9;" horiz-adv-x="551" 
d="M476 85l11 -14q3 -5 3 -9q0 -6 -5 -11q-72 -59 -176 -59q-68 0 -119 25t-78 65.5t-39.5 83t-12.5 86.5q0 43 12.5 85.5t39.5 83t78 65.5t119 25q94 0 145.5 -56.5t51.5 -153.5v-7v-9.5t-0.5 -9.5t-1.5 -9.5t-3 -7.5t-5 -6t-7 -2h-368q2 -33 12 -66t30 -67t58 -55t88 -21
q82 0 147 46q3 3 9 3t11 -5zM294 460q-75 -5 -116 -51.5t-56 -113.5h324q1 8 1 24q0 60 -37 100.5t-116 40.5zM234 625l122 91q4 2 8 2q6 0 11 -6l13 -19q2 -6 2 -8q0 -8 -6 -11l-129 -79q-3 -2 -8 -2q-9 0 -12 6l-4 6q-3 5 -3 9q0 6 6 11z" />
    <glyph glyph-name="ecircumflex" unicode="&#xea;" horiz-adv-x="551" 
d="M164 624l122 91q11 9 22 0l122 -91q10 -7 3 -20l-4 -6q-9 -10 -20 -4l-112 68l-112 -68q-13 -7 -20 4l-4 6q-9 12 3 20zM476 85l11 -14q9 -11 -2 -20q-72 -59 -176 -59q-68 0 -119 25t-78 65.5t-39.5 83t-12.5 86.5q0 43 12.5 85.5t39.5 83t78 65.5t119 25
q94 0 145.5 -56.5t51.5 -153.5q0 -11 -2 -37q0 -14 -15 -14h-368q2 -33 12 -66t30 -67t58 -55t88 -21q82 0 147 46q11 9 20 -2zM308 460q-81 0 -125.5 -47.5t-60.5 -117.5h324q8 63 -25.5 112.5t-112.5 52.5z" />
    <glyph glyph-name="edieresis" unicode="&#xeb;" horiz-adv-x="551" 
d="M476 85l11 -14q3 -5 3 -9q0 -6 -5 -11q-72 -59 -176 -59q-68 0 -119 25t-78 65.5t-39.5 83t-12.5 86.5q0 43 12.5 85.5t39.5 83t78 65.5t119 25q94 0 145.5 -56.5t51.5 -153.5v-7v-9.5t-0.5 -9.5t-1.5 -9.5t-3 -7.5t-5 -6t-7 -2h-368q2 -33 12 -66t30 -67t58 -55t88 -21
q82 0 147 46q3 3 9 3t11 -5zM294 460q-75 -5 -116 -51.5t-56 -113.5h324q1 8 1 24q0 60 -37 100.5t-116 40.5zM122 647q9 28 39 28q17 0 29.5 -12.5t12.5 -29.5t-12.5 -29t-29.5 -12q-18 0 -29.5 11.5t-11.5 29.5q0 9 2 14zM386 633q0 18 11.5 30t29.5 12q17 0 29.5 -12.5
t12.5 -29.5t-12.5 -29t-29.5 -12q-18 0 -29.5 12t-11.5 29z" />
    <glyph glyph-name="igrave" unicode="&#xec;" horiz-adv-x="213" 
d="M137 486v-473q0 -14 -14 -14h-34q-14 0 -14 14v473q0 14 14 14h34q14 0 14 -14zM60 716l122 -91q10 -7 3 -20l-4 -6q-9 -10 -20 -4l-129 79q-11 6 -4 19l13 19q7 12 19 4z" />
    <glyph glyph-name="iacute" unicode="&#xed;" horiz-adv-x="213" 
d="M137 486v-473q0 -14 -14 -14h-34q-14 0 -14 14v473q0 14 14 14h34q14 0 14 -14zM31 625l122 91q12 8 19 -4l13 -19q7 -13 -4 -19l-129 -79q-13 -7 -20 4l-4 6q-9 12 3 20z" />
    <glyph glyph-name="icircumflex" unicode="&#xee;" horiz-adv-x="288" 
d="M175 486v-473q0 -14 -14 -14h-34q-14 0 -14 14v473q0 14 14 14h34q14 0 14 -14zM11 624l122 91q11 9 22 0l122 -91q10 -7 3 -20l-4 -6q-9 -10 -20 -4l-112 68l-112 -68q-13 -7 -20 4l-4 6q-9 12 3 20z" />
    <glyph glyph-name="idieresis" unicode="&#xef;" horiz-adv-x="349" 
d="M205 486v-473q0 -14 -14 -14h-34q-14 0 -14 14v473q0 14 14 14h34q14 0 14 -14zM2 647q9 28 39 28q17 0 29.5 -12.5t12.5 -29.5t-12.5 -29t-29.5 -12q-31 0 -39 27q-5 14 0 28zM266 633q0 18 11.5 30t29.5 12q17 0 29.5 -12.5t12.5 -29.5t-12.5 -29t-29.5 -12
q-18 0 -29.5 12t-11.5 29z" />
    <glyph glyph-name="eth" unicode="&#xf0;" horiz-adv-x="579" 
d="M225 523l68 68q-36 29 -62 45q-12 9 -4 20l10 15q8 12 20 5q44 -26 72 -49l62 62q9 9 20 0l12 -13q10 -10 0 -20l-60 -60q156 -150 156 -358q0 -38 -11 -77t-35.5 -78.5t-71.5 -64t-111 -24.5q-53 0 -95 17t-66.5 42t-40.5 56t-22 56t-6 46q0 33 10.5 68t34 72.5t71.5 61
t114 23.5q95 0 155 -58q-35 98 -118 181l-70 -69q-10 -10 -20 0l-12 13q-11 9 0 20zM290 43q79 0 125.5 55.5t46.5 121.5q0 73 -45.5 119.5t-126.5 46.5q-82 0 -127 -50.5t-45 -120.5t45.5 -121t126.5 -51z" />
    <glyph glyph-name="ntilde" unicode="&#xf1;" 
d="M142 370v-356q0 -14 -14 -14h-34q-14 0 -14 14v472q0 14 14 14h5q13 0 17 -14l12 -59q76 81 177 81q53 0 91.5 -15.5t60 -38.5t34.5 -58t17 -66.5t4 -71.5v-244q0 -14 -14 -14h-35q-14 0 -14 14v243v30.5t-2.5 34t-7.5 39t-16 34t-26.5 31.5t-40 19.5t-56.5 8.5
q-49 0 -94.5 -27t-63.5 -57zM412 670l11 -6q13 -7 5 -19q-36 -56 -93 -54q-27 1 -56 22t-51 21q-33 0 -55 -31q-7 -12 -20 -6l-5 3q-13 5 -7 19q30 62 89 62q25 0 56.5 -21t50.5 -23q31 -4 55 28q9 11 20 5z" />
    <glyph glyph-name="ograve" unicode="&#xf2;" horiz-adv-x="618" 
d="M309 508q68 0 119 -25t78 -65.5t39.5 -82.5t12.5 -85q0 -44 -12.5 -86.5t-39.5 -82.5t-78 -64.5t-119 -24.5t-119 24.5t-78 64.5t-39.5 82.5t-12.5 86.5q0 43 12.5 85t39.5 82.5t78 65.5t119 25zM309 40q46 0 81.5 17t55 41t32 55t16 54t3.5 43t-3.5 43t-16 54t-32 55
t-55 41t-81.5 17t-81.5 -17t-55 -41t-31.5 -55t-15.5 -54t-3.5 -43t3.5 -43t15.5 -54t31.5 -55t55 -41t81.5 -17zM262 716l122 -91q5 -5 5 -11q0 -3 -2 -9l-4 -6q-5 -6 -12 -6q-6 0 -8 2l-129 79q-6 3 -6 11q0 5 2 8l13 19q3 6 11 6q4 0 8 -2z" />
    <glyph glyph-name="oacute" unicode="&#xf3;" horiz-adv-x="618" 
d="M309 508q68 0 119 -25t78 -65.5t39.5 -82.5t12.5 -85q0 -44 -12.5 -86.5t-39.5 -82.5t-78 -64.5t-119 -24.5t-119 24.5t-78 64.5t-39.5 82.5t-12.5 86.5q0 43 12.5 85t39.5 82.5t78 65.5t119 25zM309 40q46 0 81.5 17t55 41t32 55t16 54t3.5 43t-3.5 43t-16 54t-32 55
t-55 41t-81.5 17t-81.5 -17t-55 -41t-31.5 -55t-15.5 -54t-3.5 -43t3.5 -43t15.5 -54t31.5 -55t55 -41t81.5 -17zM233 625l122 91q12 8 19 -4l13 -19q7 -13 -4 -19l-129 -79q-13 -7 -20 4l-4 6q-9 12 3 20z" />
    <glyph glyph-name="ocircumflex" unicode="&#xf4;" horiz-adv-x="618" 
d="M309 508q68 0 119 -25t78 -65.5t39.5 -82.5t12.5 -85q0 -44 -12.5 -86.5t-39.5 -82.5t-78 -64.5t-119 -24.5t-119 24.5t-78 64.5t-39.5 82.5t-12.5 86.5q0 43 12.5 85t39.5 82.5t78 65.5t119 25zM309 40q46 0 81.5 17t55 41t32 55t16 54t3.5 43t-3.5 43t-16 54t-32 55
t-55 41t-81.5 17t-81.5 -17t-55 -41t-31.5 -55t-15.5 -54t-3.5 -43t3.5 -43t15.5 -54t31.5 -55t55 -41t81.5 -17zM176 624l122 91q11 9 22 0l122 -91q10 -7 3 -20l-4 -6q-9 -10 -20 -4l-112 68l-112 -68q-13 -7 -20 4l-4 6q-9 12 3 20z" />
    <glyph glyph-name="otilde" unicode="&#xf5;" horiz-adv-x="618" 
d="M309 508q68 0 119 -25t78 -65.5t39.5 -82.5t12.5 -85q0 -44 -12.5 -86.5t-39.5 -82.5t-78 -64.5t-119 -24.5t-119 24.5t-78 64.5t-39.5 82.5t-12.5 86.5q0 43 12.5 85t39.5 82.5t78 65.5t119 25zM309 40q46 0 81.5 17t55 41t32 55t16 54t3.5 43t-3.5 43t-16 54t-32 55
t-55 41t-81.5 17t-81.5 -17t-55 -41t-31.5 -55t-15.5 -54t-3.5 -43t3.5 -43t15.5 -54t31.5 -55t55 -41t81.5 -17zM435 670l11 -6q13 -7 5 -19q-36 -56 -93 -54q-27 1 -56 22t-51 21q-33 0 -55 -31q-7 -12 -20 -6l-5 3q-13 5 -7 19q30 62 89 62q25 0 56.5 -21t50.5 -23
q31 -4 55 28q9 11 20 5z" />
    <glyph glyph-name="odieresis" unicode="&#xf6;" horiz-adv-x="618" 
d="M309 508q68 0 119 -25t78 -65.5t39.5 -82.5t12.5 -85q0 -44 -12.5 -86.5t-39.5 -82.5t-78 -64.5t-119 -24.5t-119 24.5t-78 64.5t-39.5 82.5t-12.5 86.5q0 43 12.5 85t39.5 82.5t78 65.5t119 25zM309 40q46 0 81.5 17t55 41t32 55t16 54t3.5 43t-3.5 43t-16 54t-32 55
t-55 41t-81.5 17t-81.5 -17t-55 -41t-31.5 -55t-15.5 -54t-3.5 -43t3.5 -43t15.5 -54t31.5 -55t55 -41t81.5 -17zM134 633q0 18 11.5 30t29.5 12q17 0 29.5 -12.5t12.5 -29.5t-12.5 -29t-29.5 -12q-18 0 -29.5 12t-11.5 29zM400 633q0 18 11.5 30t29.5 12q17 0 29.5 -12.5
t12.5 -29.5t-12.5 -29t-29.5 -12q-18 0 -29.5 12t-11.5 29z" />
    <glyph glyph-name="divide" unicode="&#xf7;" horiz-adv-x="462" 
d="M75 220h313q14 0 14 -14v-19q0 -14 -14 -14h-313q-14 0 -14 14v19q0 14 14 14zM186 366q5 14 17 23.5t28 9.5q20 0 34 -14t14 -33q0 -20 -14.5 -34.5t-33.5 -14.5q-16 0 -28 10t-17 25q-5 14 0 28zM184 55q0 19 14 33t33 14q20 0 34 -14t14 -33q0 -20 -14.5 -34.5
t-33.5 -14.5t-33 14.5t-14 34.5z" />
    <glyph glyph-name="oslash" unicode="&#xf8;" horiz-adv-x="618" 
d="M516 500l13 -12q5 -5 5 -11t-3 -9l-34 -40q61 -72 61 -178q0 -44 -12.5 -86.5t-39.5 -82.5t-78 -64.5t-119 -24.5q-87 0 -145 40l-22 -26q-4 -5 -11 -5q-6 0 -9 3l-14 13q-5 4 -5 11q0 4 3 9l21 25q-67 72 -67 188q0 43 12.5 85t39.5 82.5t78 65.5t119 25q92 0 155 -48
l32 38q5 5 11 5q5 0 9 -3zM122 250q0 -84 43 -143l264 312q-48 41 -120 41q-46 0 -81.5 -17t-55 -41t-31.5 -55t-15.5 -54t-3.5 -43zM309 40q46 0 81.5 17t55 41t32 55t16 54t3.5 43q0 75 -38 133l-260 -310q43 -33 110 -33z" />
    <glyph glyph-name="ugrave" unicode="&#xf9;" 
d="M430 131v356q0 14 14 14h34q14 0 14 -14v-472q0 -14 -14 -14h-5q-13 0 -17 14l-12 59q-76 -81 -177 -81q-53 0 -91.5 15.5t-60 38.5t-34.5 58t-17 66.5t-4 71.5v244q0 14 14 14h35q14 0 14 -14v-243v-30.5t2.5 -34t7.5 -39t16 -34t26.5 -31.5t40 -19.5t56.5 -8.5
q49 0 94.5 27t63.5 57zM239 716l122 -91q10 -7 3 -20l-4 -6q-9 -10 -20 -4l-129 79q-11 6 -4 19l13 19q7 12 19 4z" />
    <glyph glyph-name="uacute" unicode="&#xfa;" 
d="M430 131v356q0 14 14 14h34q14 0 14 -14v-472q0 -14 -14 -14h-5q-13 0 -17 14l-12 59q-76 -81 -177 -81q-53 0 -91.5 15.5t-60 38.5t-34.5 58t-17 66.5t-4 71.5v244q0 14 14 14h35q14 0 14 -14v-243v-30.5t2.5 -34t7.5 -39t16 -34t26.5 -31.5t40 -19.5t56.5 -8.5
q49 0 94.5 27t63.5 57zM210 625l122 91q12 8 19 -4l13 -19q7 -13 -4 -19l-129 -79q-13 -7 -20 4l-4 6q-9 12 3 20z" />
    <glyph glyph-name="ucircumflex" unicode="&#xfb;" 
d="M430 131v356q0 14 14 14h34q14 0 14 -14v-472q0 -14 -14 -14h-5q-13 0 -17 14l-12 59q-76 -81 -177 -81q-53 0 -91.5 15.5t-60 38.5t-34.5 58t-17 66.5t-4 71.5v244q0 14 14 14h35q14 0 14 -14v-243v-30.5t2.5 -34t7.5 -39t16 -34t26.5 -31.5t40 -19.5t56.5 -8.5
q49 0 94.5 27t63.5 57zM153 624l122 91q11 9 22 0l122 -91q10 -7 3 -20l-4 -6q-9 -10 -20 -4l-112 68l-112 -68q-13 -7 -20 4l-4 6q-9 12 3 20z" />
    <glyph glyph-name="udieresis" unicode="&#xfc;" 
d="M107 633q0 18 11.5 30t29.5 12q17 0 29.5 -12.5t12.5 -29.5t-12.5 -29t-29.5 -12q-18 0 -29.5 12t-11.5 29zM373 633q0 18 11.5 30t29.5 12q17 0 29.5 -12.5t12.5 -29.5t-12.5 -29t-29.5 -12q-18 0 -29.5 12t-11.5 29zM430 131v356q0 14 14 14h34q14 0 14 -14v-472
q0 -14 -14 -14h-5q-13 0 -17 14l-12 59q-76 -81 -177 -81q-53 0 -91.5 15.5t-60 38.5t-34.5 58t-17 66.5t-4 71.5v244q0 14 14 14h35q14 0 14 -14v-243v-30.5t2.5 -34t7.5 -39t16 -34t26.5 -31.5t40 -19.5t56.5 -8.5q49 0 94.5 27t63.5 57z" />
    <glyph glyph-name="yacute" unicode="&#xfd;" horiz-adv-x="553" 
d="M103 487l174 -421l170 421q5 13 19 13h43q5 0 7.5 -4t0.5 -9l-291 -684q-5 -13 -19 -13h-37q-5 0 -8 4t-1 9l84 195l-210 489q-2 5 1 9t8 4h40q14 0 19 -13zM201 625l122 91q12 8 19 -4l13 -19q7 -13 -4 -19l-129 -79q-13 -7 -20 4l-4 6q-9 12 3 20z" />
    <glyph glyph-name="thorn" unicode="&#xfe;" horiz-adv-x="609" 
d="M286 -9q-78 4 -144 45v-224q0 -14 -14 -14h-34q-14 0 -14 14v874q0 14 14 14h34q14 0 14 -14v-224q72 45 158 45q68 0 119 -25t78 -65.5t39.5 -82.5t12.5 -85q0 -42 -12 -83t-37.5 -80.5t-73.5 -65.5t-112 -29h-28zM142 405v-312q26 -22 71 -37.5t78 -15.5q58 0 99 23
t60.5 58.5t27.5 67t8 60.5t-8 60.5t-27.5 67t-60.5 58.5t-99 23q-33 0 -78 -15.5t-71 -37.5z" />
    <glyph glyph-name="ydieresis" unicode="&#xff;" horiz-adv-x="553" 
d="M103 487l174 -421l170 421q5 13 19 13h43q5 0 7.5 -4t0.5 -9l-291 -684q-5 -13 -19 -13h-37q-5 0 -8 4t-1 9l84 195l-210 489q-2 5 1 9t8 4h40q14 0 19 -13zM104 647q9 28 39 28q17 0 29.5 -12.5t12.5 -29.5t-12.5 -29t-29.5 -12q-31 0 -39 27q-5 14 0 28zM368 633
q0 18 11.5 30t29.5 12q17 0 29.5 -12.5t12.5 -29.5t-12.5 -29t-29.5 -12q-18 0 -29.5 12t-11.5 29z" />
    <glyph glyph-name="Amacron" unicode="&#x100;" horiz-adv-x="666" 
d="M562 14l-76 187h-305l-75 -187q-5 -13 -19 -13h-43q-5 0 -8 4t-1 9l285 687q4 9 14 9q9 0 14 -9l285 -687q2 -5 -1 -9t-8 -4h-43q-14 0 -19 13zM334 577l-134 -330h267zM196 838h273q14 0 14 -14v-18q0 -14 -14 -14h-273q-14 0 -14 14v18q0 14 14 14z" />
    <glyph glyph-name="amacron" unicode="&#x101;" horiz-adv-x="526" 
d="M127 638h273q14 0 14 -14v-18q0 -14 -14 -14h-273q-14 0 -14 14v18q0 14 14 14zM112 434l-6 20q-5 12 8 19q85 35 148 35q50 0 85.5 -12.5t54.5 -30t29.5 -47t13 -54t2.5 -60.5v-290q0 -14 -14 -14h-6q-13 0 -17 14l-11 55q-64 -77 -169 -77q-170 0 -170 153
q0 36 11.5 64.5t31 46t46.5 28.5t55 15.5t60 4.5q68 0 120 -13v18q0 92 -31 121t-99 27q-41 -1 -124 -31q-12 -5 -18 8zM384 126v113q-54 15 -104 15q-33 0 -58.5 -4t-50.5 -14.5t-38.5 -33t-13.5 -56.5q0 -49 32 -76.5t82 -27.5q46 0 90 26.5t61 57.5z" />
    <glyph glyph-name="Abreve" unicode="&#x102;" horiz-adv-x="666" 
d="M562 14l-76 187h-305l-75 -187q-5 -13 -19 -13h-43q-5 0 -8 4t-1 9l285 687q4 9 14 9q9 0 14 -9l285 -687q2 -5 -1 -9t-8 -4h-43q-14 0 -19 13zM334 577l-134 -330h267zM441 910l15 -4q15 -4 9 -17q-37 -96 -128 -96t-128 96q-6 13 8 17l15 4q14 3 19 -9q24 -60 86 -60
q63 0 87 60q4 13 17 9z" />
    <glyph glyph-name="abreve" unicode="&#x103;" horiz-adv-x="526" 
d="M367 710l15 -4q15 -4 9 -17q-37 -96 -128 -96t-128 96q-6 13 8 17l15 4q14 3 19 -9q24 -60 86 -60q63 0 87 60q4 13 17 9zM112 434l-6 20q-5 12 8 19q85 35 148 35q50 0 85.5 -12.5t54.5 -30t29.5 -47t13 -54t2.5 -60.5v-290q0 -14 -14 -14h-6q-13 0 -17 14l-11 55
q-64 -77 -169 -77q-170 0 -170 153q0 36 11.5 64.5t31 46t46.5 28.5t55 15.5t60 4.5q68 0 120 -13v18q0 92 -31 121t-99 27q-41 -1 -124 -31q-12 -5 -18 8zM384 126v113q-54 15 -104 15q-33 0 -58.5 -4t-50.5 -14.5t-38.5 -33t-13.5 -56.5q0 -49 32 -76.5t82 -27.5
q46 0 90 26.5t61 57.5z" />
    <glyph glyph-name="Aogonek" unicode="&#x104;" horiz-adv-x="666" 
d="M567 0l-83 201h-301l-77 -188q-5 -13 -19 -13h-43q-5 0 -8 4t-1 9l279 682q5 13 19 13t19 -13l279 -682q2 -5 -1 -9t-8 -4h-23v-8q0 -13 -17.5 -49t-17.5 -57q0 -67 72 -67q23 0 57 9q4 2 8.5 -1t4.5 -8v-10q0 -14 -13 -19q-34 -11 -65 -11q-49 0 -81 25t-32 75
q0 29 26 68t26 48v5zM334 581l-132 -334h263z" />
    <glyph glyph-name="aogonek" unicode="&#x105;" horiz-adv-x="526" 
d="M111 434l-6 20q-5 12 8 19q85 35 148 35q50 0 85.5 -12.5t54.5 -30t29.5 -47t13 -54t2.5 -60.5v-312q0 -13 -17.5 -49t-17.5 -57q0 -67 72 -67q23 0 57 9q4 2 8.5 -1t4.5 -8v-10q0 -14 -13 -19q-34 -11 -65 -11q-49 0 -81 25t-32 75q0 29 25 68t25 48v5l-14 69
q-64 -77 -169 -77q-170 0 -170 153q0 36 11.5 64.5t31 46t46.5 28.5t55 15.5t60 4.5q68 0 120 -13v18q0 92 -31 121t-99 27q-41 -1 -124 -31q-12 -5 -18 8zM383 126v113q-54 15 -104 15q-33 0 -58.5 -4t-50.5 -14.5t-38.5 -33t-13.5 -56.5q0 -49 32 -76.5t82 -27.5
q46 0 90 26.5t61 57.5z" />
    <glyph glyph-name="Cacute" unicode="&#x106;" horiz-adv-x="710" 
d="M641 607l-20 -22q-10 -10 -20 -1q-92 73 -196 72q-70 -1 -123.5 -26.5t-82 -60t-46.5 -79t-23 -76.5t-5 -60q0 -23 4 -50t13.5 -63t30.5 -68t50 -60.5t76 -45t106 -16.5q103 0 197 68q11 7 20 -3l17 -23q9 -11 -2 -20q-103 -80 -232 -80q-77 0 -138 23.5t-99 60t-63 85.5
t-35 96.5t-10 95.5q0 46 10 92.5t35 95t63 85.5t99 60.5t138 23.5q136 0 234 -85q11 -10 2 -19zM320 825l122 91q12 8 19 -4l13 -19q7 -13 -4 -19l-129 -79q-13 -7 -20 4l-4 6q-9 12 3 20z" />
    <glyph glyph-name="cacute" unicode="&#x107;" horiz-adv-x="542" 
d="M472 431l-15 -17q-9 -10 -20 -1q-60 43 -129 43q-77 0 -131.5 -53.5t-54.5 -148.5q0 -86 49 -149.5t136 -63.5q67 0 125 46q11 9 20 -2l14 -15q10 -10 -1 -20q-68 -60 -158 -60q-57 0 -101.5 17t-71.5 43t-44 62t-23.5 70.5t-6.5 71.5q0 34 7 67.5t25 69t45.5 62t72 43.5
t99.5 17q94 0 163 -62q11 -11 0 -20zM233 625l122 91q12 8 19 -4l13 -19q7 -13 -4 -19l-129 -79q-13 -7 -20 4l-4 6q-9 12 3 20z" />
    <glyph glyph-name="Ccircumflex" unicode="&#x108;" horiz-adv-x="710" 
d="M641 607l-20 -22q-10 -10 -20 -1q-92 73 -196 72q-70 -1 -123.5 -26.5t-82 -60t-46.5 -79t-23 -76.5t-5 -60q0 -23 4 -50t13.5 -63t30.5 -68t50 -60.5t76 -45t106 -16.5q103 0 197 68q11 7 20 -3l17 -23q9 -11 -2 -20q-103 -80 -232 -80q-77 0 -138 23.5t-99 60t-63 85.5
t-35 96.5t-10 95.5q0 46 10 92.5t35 95t63 85.5t99 60.5t138 23.5q136 0 234 -85q11 -10 2 -19zM265 824l122 91q11 9 22 0l122 -91q10 -7 3 -20l-4 -6q-9 -10 -20 -4l-112 68l-112 -68q-13 -7 -20 4l-4 6q-9 12 3 20z" />
    <glyph glyph-name="ccircumflex" unicode="&#x109;" horiz-adv-x="542" 
d="M472 431l-15 -17q-9 -10 -20 -1q-60 43 -129 43q-77 0 -131.5 -53.5t-54.5 -148.5q0 -86 49 -149.5t136 -63.5q67 0 125 46q11 9 20 -2l14 -15q10 -10 -1 -20q-68 -60 -158 -60q-57 0 -101.5 17t-71.5 43t-44 62t-23.5 70.5t-6.5 71.5q0 34 7 67.5t25 69t45.5 62t72 43.5
t99.5 17q94 0 163 -62q11 -11 0 -20zM161 624l122 91q11 9 22 0l122 -91q10 -7 3 -20l-4 -6q-9 -10 -20 -4l-112 68l-112 -68q-13 -7 -20 4l-4 6q-9 12 3 20z" />
    <glyph glyph-name="Cdotaccent" unicode="&#x10a;" horiz-adv-x="710" 
d="M357 829q0 18 11.5 30t29.5 12q17 0 29.5 -12.5t12.5 -29.5t-12.5 -29t-29.5 -12q-18 0 -29.5 12t-11.5 29zM641 607l-20 -22q-10 -10 -20 -1q-92 73 -196 72q-70 -1 -123.5 -26.5t-82 -60t-46.5 -79t-23 -76.5t-5 -60q0 -23 4 -50t13.5 -63t30.5 -68t50 -60.5t76 -45
t106 -16.5q103 0 197 68q11 7 20 -3l17 -23q9 -11 -2 -20q-103 -80 -232 -80q-77 0 -138 23.5t-99 60t-63 85.5t-35 96.5t-10 95.5q0 46 10 92.5t35 95t63 85.5t99 60.5t138 23.5q136 0 234 -85q11 -10 2 -19z" />
    <glyph glyph-name="cdotaccent" unicode="&#x10b;" horiz-adv-x="542" 
d="M256 629q0 18 11.5 30t29.5 12q17 0 29.5 -12.5t12.5 -29.5t-12.5 -29t-29.5 -12q-18 0 -29.5 12t-11.5 29zM472 431l-15 -17q-9 -10 -20 -1q-60 43 -129 43q-77 0 -131.5 -53.5t-54.5 -148.5q0 -86 49 -149.5t136 -63.5q67 0 125 46q11 9 20 -2l14 -15q10 -10 -1 -20
q-68 -60 -158 -60q-57 0 -101.5 17t-71.5 43t-44 62t-23.5 70.5t-6.5 71.5q0 34 7 67.5t25 69t45.5 62t72 43.5t99.5 17q94 0 163 -62q11 -11 0 -20z" />
    <glyph glyph-name="Ccaron" unicode="&#x10c;" horiz-adv-x="710" 
d="M641 607l-20 -22q-10 -10 -20 -1q-92 73 -196 72q-70 -1 -123.5 -26.5t-82 -60t-46.5 -79t-23 -76.5t-5 -60q0 -23 4 -50t13.5 -63t30.5 -68t50 -60.5t76 -45t106 -16.5q103 0 197 68q11 7 20 -3l17 -23q9 -11 -2 -20q-103 -80 -232 -80q-77 0 -138 23.5t-99 60t-63 85.5
t-35 96.5t-10 95.5q0 46 10 92.5t35 95t63 85.5t99 60.5t138 23.5q136 0 234 -85q11 -10 2 -19zM389 793l-122 91q-12 8 -3 19l4 6q7 12 20 5l112 -68l112 68q12 7 20 -5l4 -6q8 -12 -3 -19l-122 -91q-11 -9 -22 0z" />
    <glyph glyph-name="ccaron" unicode="&#x10d;" horiz-adv-x="542" 
d="M472 431l-15 -17q-9 -10 -20 -1q-60 43 -129 43q-77 0 -131.5 -53.5t-54.5 -148.5q0 -86 49 -149.5t136 -63.5q67 0 125 46q11 9 20 -2l14 -15q10 -10 -1 -20q-68 -60 -158 -60q-57 0 -101.5 17t-71.5 43t-44 62t-23.5 70.5t-6.5 71.5q0 34 7 67.5t25 69t45.5 62t72 43.5
t99.5 17q94 0 163 -62q11 -11 0 -20zM284 593l-122 91q-12 8 -3 19l4 6q7 12 20 5l112 -68l112 68q12 7 20 -5l4 -6q8 -12 -3 -19l-122 -91q-11 -9 -22 0z" />
    <glyph glyph-name="Dcaron" unicode="&#x10e;" horiz-adv-x="741" 
d="M335 0h-221q-14 0 -14 14v672q0 14 14 14h221q77 0 138.5 -22.5t99 -58t63 -83t35.5 -93t10 -92.5q0 -48 -10 -94.5t-35 -93.5t-63.5 -82.5t-99.5 -58t-138 -22.5zM163 50h172q69 0 123 24.5t83.5 59t48.5 78.5t24.5 77.5t5.5 61.5t-5.5 61.5t-24.5 77.5t-48.5 78.5
t-83.5 58.5t-123 24h-172v-601zM258 793l-122 91q-12 8 -3 19l4 6q7 12 20 5l112 -68l112 68q12 7 20 -5l4 -6q8 -12 -3 -19l-122 -91q-11 -9 -22 0z" />
    <glyph glyph-name="dcaron" unicode="&#x10f;" horiz-adv-x="703" 
d="M309 507q-68 0 -119 -25t-78 -65.5t-39.5 -82.5t-12.5 -85q0 -34 7.5 -68t25.5 -68.5t45 -61t69.5 -43t95.5 -16.5q108 0 178 79l11 -57q4 -14 17 -14h6q14 0 14 14v672q0 14 -14 14h-34q-14 0 -14 -14v-224q-72 45 -158 45zM309 47q-57 0 -97 23t-57.5 58.5t-24.5 64.5
t-7 56q0 29 8 60.5t27.5 67t60.5 58.5t99 23q33 0 78 -15.5t71 -37.5v-281q-22 -30 -65 -53.5t-93 -23.5zM633 461l-21 10q35 79 42 129q0 7 -11 14t-22.5 18t-11.5 28q0 19 14 33t33 14q20 0 34 -13t14 -35q0 -86 -71 -198z" />
    <glyph glyph-name="Dcroat" unicode="&#x110;" horiz-adv-x="741" 
d="M52 377h48v309q0 14 14 14h221q77 0 138.5 -22.5t99 -58t63 -83t35.5 -93t10 -92.5q0 -48 -10 -94.5t-35 -93.5t-63.5 -82.5t-99.5 -58t-138 -22.5h-221q-14 0 -14 14v309h-48q-14 0 -14 14v26q0 14 14 14zM163 50h172q69 0 123 24.5t83.5 59t48.5 78.5t24.5 77.5
t5.5 61.5t-5.5 61.5t-24.5 77.5t-48.5 78.5t-83.5 58.5t-123 24h-172v-274h189q14 0 14 -14v-26q0 -14 -14 -14h-189v-273z" />
    <glyph glyph-name="dcroat" unicode="&#x111;" horiz-adv-x="606" 
d="M529 646h47q14 0 14 -14v-13q0 -14 -14 -14h-47v-591q0 -14 -14 -14h-6q-13 0 -17 14l-11 57q-70 -79 -178 -79q-53 0 -95.5 16.5t-69.5 43t-45 61t-25.5 68.5t-7.5 68q0 43 12.5 85t39.5 82.5t78 65.5t119 25q86 0 158 -45v143h-126q-14 0 -14 14v13q0 14 14 14h126v40
q0 14 14 14h34q14 0 14 -14v-40zM309 47q50 0 93 23.5t65 53.5v281q-26 22 -71 37.5t-78 15.5q-58 0 -99 -23t-60.5 -58.5t-27.5 -67t-8 -60.5q0 -27 7 -56t24.5 -64.5t57.5 -58.5t97 -23z" />
    <glyph glyph-name="Emacron" unicode="&#x112;" horiz-adv-x="604" 
d="M447 320h-284v-270h367q14 0 14 -14v-22q0 -14 -14 -14h-416q-14 0 -14 14v672q0 14 14 14h416q14 0 14 -14v-22q0 -14 -14 -14h-367v-280h284q14 0 14 -14v-22q0 -14 -14 -14zM165 838h273q14 0 14 -14v-18q0 -14 -14 -14h-273q-14 0 -14 14v18q0 14 14 14z" />
    <glyph glyph-name="emacron" unicode="&#x113;" horiz-adv-x="551" 
d="M167 638h273q14 0 14 -14v-18q0 -14 -14 -14h-273q-14 0 -14 14v18q0 14 14 14zM476 85l11 -14q9 -11 -2 -20q-72 -59 -176 -59q-68 0 -119 25t-78 65.5t-39.5 83t-12.5 86.5q0 43 12.5 85.5t39.5 83t78 65.5t119 25q94 0 145.5 -56.5t51.5 -153.5q0 -11 -2 -37
q0 -14 -15 -14h-368q2 -33 12 -66t30 -67t58 -55t88 -21q82 0 147 46q11 9 20 -2zM308 460q-81 0 -125.5 -47.5t-60.5 -117.5h324q8 63 -25.5 112.5t-112.5 52.5z" />
    <glyph glyph-name="Ebreve" unicode="&#x114;" horiz-adv-x="604" 
d="M447 320h-284v-270h367q14 0 14 -14v-22q0 -14 -14 -14h-416q-14 0 -14 14v672q0 14 14 14h416q14 0 14 -14v-22q0 -14 -14 -14h-367v-280h284q14 0 14 -14v-22q0 -14 -14 -14zM406 910l15 -4q15 -4 9 -17q-37 -96 -128 -96t-128 96q-6 13 8 17l15 4q14 3 19 -9
q24 -60 86 -60q63 0 87 60q4 13 17 9z" />
    <glyph glyph-name="ebreve" unicode="&#x115;" horiz-adv-x="551" 
d="M476 85l11 -14q9 -11 -2 -20q-72 -59 -176 -59q-68 0 -119 25t-78 65.5t-39.5 83t-12.5 86.5q0 43 12.5 85.5t39.5 83t78 65.5t119 25q94 0 145.5 -56.5t51.5 -153.5q0 -11 -2 -37q0 -14 -15 -14h-368q2 -33 12 -66t30 -67t58 -55t88 -21q82 0 147 46q11 9 20 -2z
M294 460q-75 -5 -116 -51.5t-56 -113.5h324q8 60 -22 108.5t-102 55.5q-9 1 -28 1zM407 710l15 -4q15 -4 9 -17q-37 -96 -128 -96t-128 96q-6 13 8 17l15 4q14 3 19 -9q24 -60 86 -60q63 0 87 60q4 13 17 9z" />
    <glyph glyph-name="Edotaccent" unicode="&#x116;" horiz-adv-x="604" 
d="M269 829q0 18 11.5 30t29.5 12q17 0 29.5 -12.5t12.5 -29.5t-12.5 -29t-29.5 -12q-18 0 -29.5 12t-11.5 29zM447 320h-284v-270h367q14 0 14 -14v-22q0 -14 -14 -14h-416q-14 0 -14 14v672q0 14 14 14h416q14 0 14 -14v-22q0 -14 -14 -14h-367v-280h284q14 0 14 -14v-22
q0 -14 -14 -14z" />
    <glyph glyph-name="edotaccent" unicode="&#x117;" horiz-adv-x="551" 
d="M266 629q0 18 11.5 30t29.5 12q17 0 29.5 -12.5t12.5 -29.5t-12.5 -29t-29.5 -12q-18 0 -29.5 12t-11.5 29zM476 85l11 -14q9 -11 -2 -20q-72 -59 -176 -59q-68 0 -119 25t-78 65.5t-39.5 83t-12.5 86.5q0 43 12.5 85.5t39.5 83t78 65.5t119 25q94 0 145.5 -56.5
t51.5 -153.5q0 -11 -2 -37q0 -14 -15 -14h-368q2 -33 12 -66t30 -67t58 -55t88 -21q82 0 147 46q11 9 20 -2zM308 460q-81 0 -125.5 -47.5t-60.5 -117.5h324q8 63 -25.5 112.5t-112.5 52.5z" />
    <glyph glyph-name="Eogonek" unicode="&#x118;" horiz-adv-x="610" 
d="M447 320h-284v-270h367q14 0 14 -14l-1 -44q0 -13 -17.5 -49t-17.5 -57q0 -67 72 -67q23 0 57 9q4 2 8.5 -1t4.5 -8v-10q0 -14 -13 -19q-34 -11 -65 -11q-49 0 -81 25t-32 75q0 29 26 68t26 48v5h-397q-14 0 -14 14v672q0 14 14 14h416q14 0 14 -14v-22q0 -14 -14 -14
h-367v-280h284q14 0 14 -14v-22q0 -14 -14 -14z" />
    <glyph glyph-name="eogonek" unicode="&#x119;" horiz-adv-x="551" 
d="M476 85l11 -14q9 -11 -2 -20q-19 -17 -50 -33v-22q0 -13 -17.5 -49t-17.5 -57q0 -67 72 -67q23 0 57 9q4 2 8.5 -1t4.5 -8v-10q0 -14 -13 -19q-34 -11 -65 -11q-49 0 -81 25t-32 75q0 29 26 68t26 48v6q-45 -13 -94 -13q-68 0 -119 25t-78 65.5t-39.5 83t-12.5 86.5
q0 43 12.5 85.5t39.5 83t78 65.5t119 25q94 0 145.5 -56.5t51.5 -153.5q0 -11 -2 -37q0 -14 -15 -14h-368q2 -33 12 -66t30 -67t58 -55t88 -21q82 0 147 46q11 9 20 -2zM308 460q-81 0 -125.5 -47.5t-60.5 -117.5h324q8 63 -25.5 112.5t-112.5 52.5z" />
    <glyph glyph-name="Ecaron" unicode="&#x11a;" horiz-adv-x="604" 
d="M447 320h-284v-270h367q14 0 14 -14v-22q0 -14 -14 -14h-416q-14 0 -14 14v672q0 14 14 14h416q14 0 14 -14v-22q0 -14 -14 -14h-367v-280h284q14 0 14 -14v-22q0 -14 -14 -14zM291 793l-122 91q-12 8 -3 19l4 6q7 12 20 5l112 -68l112 68q12 7 20 -5l4 -6q8 -12 -3 -19
l-122 -91q-11 -9 -22 0z" />
    <glyph glyph-name="ecaron" unicode="&#x11b;" horiz-adv-x="551" 
d="M476 85l11 -14q3 -5 3 -9q0 -6 -5 -11q-72 -59 -176 -59q-68 0 -119 25t-78 65.5t-39.5 83t-12.5 86.5q0 43 12.5 85.5t39.5 83t78 65.5t119 25q94 0 145.5 -56.5t51.5 -153.5v-7v-9.5t-0.5 -9.5t-1.5 -9.5t-3 -7.5t-5 -6t-7 -2h-368q2 -33 12 -66t30 -67t58 -55t88 -21
q82 0 147 46q3 3 9 3t11 -5zM294 460q-75 -5 -116 -51.5t-56 -113.5h324q1 8 1 24q0 60 -37 100.5t-116 40.5zM286 593l-122 91q-6 3 -6 11q0 5 3 8l4 6q5 7 12 7q2 0 8 -2l112 -68l112 68q4 2 7 2q8 0 13 -7l4 -6q2 -6 2 -8q0 -8 -5 -11l-122 -91q-4 -4 -11 -4t-11 4z" />
    <glyph glyph-name="Gcircumflex" unicode="&#x11c;" horiz-adv-x="710" 
d="M586 267h-143q-14 0 -14 14v22q0 14 14 14h193q14 0 14 -14v-207q0 -14 -10 -24q-96 -81 -235 -81q-95 0 -165.5 34t-108 89.5t-54.5 114t-17 119.5q0 60 17 118.5t54.5 115t108 91.5t165.5 35q130 0 218 -77q11 -11 1 -20l-17 -19q-10 -10 -20 -1q-75 61 -182 61
q-69 0 -123 -24.5t-83 -60t-47 -80t-23.5 -78t-4.5 -61.5q1 -30 6 -62t23.5 -77.5t47 -79.5t82 -58.5t122.5 -24.5q105 0 181 58v163zM256 824l122 91q11 9 22 0l122 -91q10 -7 3 -20l-4 -6q-9 -10 -20 -4l-112 68l-112 -68q-13 -7 -20 4l-4 6q-9 12 3 20z" />
    <glyph glyph-name="gcircumflex" unicode="&#x11d;" horiz-adv-x="546" 
d="M61 -78q13 68 88 86q-65 22 -65 89q0 33 18 58.5t54 34.5q-32 24 -46.5 65t-14.5 75q0 29 9 58t28.5 57t57 45t86.5 17q72 0 115 -33l66 60q3 4 9 4q7 0 11 -4l9 -8q4 -6 4 -10q0 -6 -4 -9l-63 -68q34 -46 34 -109q0 -30 -9 -59.5t-28.5 -57t-55.5 -44.5t-84 -17
q-19 0 -42 4.5t-33 4.5q-28 0 -45 -14t-21 -26t-4 -21q0 -33 26 -53.5t74 -20.5q104 0 160.5 -14t75.5 -38t19 -66q0 -15 -4.5 -31t-18 -36.5t-35.5 -36t-62 -26.5t-91 -11q-62 0 -107.5 13.5t-68.5 35.5t-33 45t-10 47q0 9 1 14zM276 203q36 0 61.5 14.5t37 37t16 41
t4.5 34.5t-4.5 34t-15.5 41t-36 38t-61 15t-62 -15.5t-37.5 -38.5t-16.5 -41.5t-5 -32.5q0 -16 4.5 -34.5t16 -41t37 -37t61.5 -14.5zM276 -187q21 0 46 5t52 15t44.5 29.5t17.5 45.5q0 34 -35.5 51.5t-124.5 17.5q-95 0 -128.5 -20.5t-33.5 -53.5q0 -10 6 -22.5t21.5 -28.5
t50.5 -27t84 -12zM140 624l122 91q6 4 11 4t11 -4l122 -91q5 -5 5 -11q0 -3 -2 -9l-4 -6q-5 -6 -12 -6q-6 0 -8 2l-112 68l-112 -68q-3 -2 -8 -2q-9 0 -12 6l-4 6q-3 4 -3 9q0 7 6 11z" />
    <glyph glyph-name="Gbreve" unicode="&#x11e;" horiz-adv-x="710" 
d="M586 267h-143q-14 0 -14 14v22q0 14 14 14h193q14 0 14 -14v-207q0 -14 -10 -24q-96 -81 -235 -81q-95 0 -165.5 34t-108 89.5t-54.5 114t-17 119.5q0 60 17 118.5t54.5 115t108 91.5t165.5 35q130 0 218 -77q11 -11 1 -20l-17 -19q-10 -10 -20 -1q-75 61 -182 61
q-69 0 -123 -24.5t-83 -60t-47 -80t-23.5 -78t-4.5 -61.5q1 -30 6 -62t23.5 -77.5t47 -79.5t82 -58.5t122.5 -24.5q105 0 181 58v163zM493 910l15 -4q15 -4 9 -17q-37 -96 -128 -96t-128 96q-6 13 8 17l15 4q14 3 19 -9q24 -60 86 -60q63 0 87 60q4 13 17 9z" />
    <glyph glyph-name="gbreve" unicode="&#x11f;" horiz-adv-x="546" 
d="M61 -78q15 74 84 90q-34 11 -47.5 36t-13.5 49q0 33 18 58.5t54 34.5q-32 24 -46.5 65t-14.5 75q0 29 9 58t28.5 57t57 45t86.5 17q72 0 115 -33l66 60q3 4 9 4q7 0 11 -4l9 -8q4 -6 4 -10q0 -6 -4 -9l-63 -68q34 -46 34 -109q0 -30 -9 -59.5t-28.5 -57t-55.5 -44.5
t-84 -17q-19 0 -42 4.5t-33 4.5q-28 0 -45 -14t-21 -26t-4 -21q0 -33 26 -53.5t74 -20.5h22q71 0 117.5 -8t71.5 -24t34.5 -36.5t9.5 -49.5q0 -15 -4.5 -31t-18 -36.5t-35.5 -36t-62 -26.5t-91 -11q-62 0 -107.5 13.5t-68.5 35.5t-33 45t-10 47q0 9 1 14zM276 203
q36 0 61.5 14.5t37 37t16 41t4.5 34.5t-4.5 34t-15.5 41t-36 38t-61 15t-62 -15.5t-37.5 -38.5t-16.5 -41.5t-5 -32.5q0 -16 4.5 -34.5t16 -41t37 -37t61.5 -14.5zM276 -187q21 0 46 5t52 15t44.5 29.5t17.5 45.5q0 34 -35.5 51.5t-124.5 17.5q-95 0 -128.5 -20.5
t-33.5 -53.5q0 -10 6 -22.5t21.5 -28.5t50.5 -27t84 -12zM385 710l15 -4q10 -3 10 -12q0 -4 -1 -5q-37 -96 -128 -96t-128 96q-1 1 -1 5q0 9 9 12l15 4h4q10 0 15 -9q24 -60 86 -60q63 0 87 60q3 9 13 9h4z" />
    <glyph glyph-name="Gdotaccent" unicode="&#x120;" horiz-adv-x="710" 
d="M355 829q0 18 11.5 30t29.5 12q17 0 29.5 -12.5t12.5 -29.5t-12.5 -29t-29.5 -12q-18 0 -29.5 12t-11.5 29zM586 267h-143q-14 0 -14 14v22q0 14 14 14h193q14 0 14 -14v-207q0 -14 -10 -24q-96 -81 -235 -81q-95 0 -165.5 34t-108 89.5t-54.5 114t-17 119.5
q0 60 17 118.5t54.5 115t108 91.5t165.5 35q130 0 218 -77q11 -11 1 -20l-17 -19q-10 -10 -20 -1q-75 61 -182 61q-69 0 -123 -24.5t-83 -60t-47 -80t-23.5 -78t-4.5 -61.5q1 -30 6 -62t23.5 -77.5t47 -79.5t82 -58.5t122.5 -24.5q105 0 181 58v163z" />
    <glyph glyph-name="gdotaccent" unicode="&#x121;" horiz-adv-x="546" 
d="M61 -78q15 74 84 90q-34 11 -47.5 36t-13.5 49q0 33 18 58.5t54 34.5q-32 24 -46.5 65t-14.5 75q0 29 9 58t28.5 57t57 45t86.5 17q72 0 115 -33l66 60q3 4 9 4q7 0 11 -4l9 -8q4 -6 4 -10q0 -6 -4 -9l-63 -68q34 -46 34 -109q0 -30 -9 -59.5t-28.5 -57t-55.5 -44.5
t-84 -17q-19 0 -42 4.5t-33 4.5q-28 0 -45 -14t-21 -26t-4 -21q0 -33 26 -53.5t74 -20.5h22q71 0 117.5 -8t71.5 -24t34.5 -36.5t9.5 -49.5q0 -15 -4.5 -31t-18 -36.5t-35.5 -36t-62 -26.5t-91 -11q-62 0 -107.5 13.5t-68.5 35.5t-33 45t-10 47q0 9 1 14zM276 203
q36 0 61.5 14.5t37 37t16 41t4.5 34.5t-4.5 34t-15.5 41t-36 38t-61 15t-62 -15.5t-37.5 -38.5t-16.5 -41.5t-5 -32.5q0 -16 4.5 -34.5t16 -41t37 -37t61.5 -14.5zM276 -187q21 0 46 5t52 15t44.5 29.5t17.5 45.5q0 34 -35.5 51.5t-124.5 17.5q-95 0 -128.5 -20.5
t-33.5 -53.5q0 -10 6 -22.5t21.5 -28.5t50.5 -27t84 -12zM237 629q0 18 11.5 30t29.5 12q17 0 29.5 -12.5t12.5 -29.5t-12.5 -29t-29.5 -12q-18 0 -29.5 12t-11.5 29z" />
    <glyph glyph-name="Gcommaaccent" unicode="&#x122;" horiz-adv-x="710" 
d="M586 267h-143q-14 0 -14 14v22q0 14 14 14h193q14 0 14 -14v-207q0 -14 -10 -24q-96 -81 -235 -81q-95 0 -165.5 34t-108 89.5t-54.5 114t-17 119.5q0 60 17 118.5t54.5 115t108 91.5t165.5 35q130 0 218 -77q11 -11 1 -20l-17 -19q-10 -10 -20 -1q-75 61 -182 61
q-69 0 -123 -24.5t-83 -60t-47 -80t-23.5 -78t-4.5 -61.5q1 -30 6 -62t23.5 -77.5t47 -79.5t82 -58.5t122.5 -24.5q105 0 181 58v163zM382 -312q-12 5 -7 17q26 63 30 112q-19 0 -32.5 13.5t-13.5 32.5t14 33t33 14q20 0 34 -13t14 -35q0 -69 -54 -167q-5 -11 -18 -7z" />
    <glyph glyph-name="gcommaaccent" unicode="&#x123;" horiz-adv-x="546" 
d="M61 -78q15 74 84 90q-34 11 -47.5 36t-13.5 49q0 33 18 58.5t54 34.5q-32 24 -46.5 65t-14.5 75q0 29 9 58t28.5 57t57 45t86.5 17q72 0 115 -33l66 60q3 4 9 4q7 0 11 -4l9 -8q4 -6 4 -10q0 -6 -4 -9l-63 -68q34 -46 34 -109q0 -30 -9 -59.5t-28.5 -57t-55.5 -44.5
t-84 -17q-19 0 -42 4.5t-33 4.5q-28 0 -45 -14t-21 -26t-4 -21q0 -33 26 -53.5t74 -20.5h22q71 0 117.5 -8t71.5 -24t34.5 -36.5t9.5 -49.5q0 -15 -4.5 -31t-18 -36.5t-35.5 -36t-62 -26.5t-91 -11q-62 0 -107.5 13.5t-68.5 35.5t-33 45t-10 47q0 9 1 14zM276 203
q36 0 61.5 14.5t37 37t16 41t4.5 34.5t-4.5 34t-15.5 41t-36 38t-61 15t-62 -15.5t-37.5 -38.5t-16.5 -41.5t-5 -32.5q0 -16 4.5 -34.5t16 -41t37 -37t61.5 -14.5zM276 -187q21 0 46 5t52 15t44.5 29.5t17.5 45.5q0 34 -35.5 51.5t-124.5 17.5q-95 0 -128.5 -20.5
t-33.5 -53.5q0 -10 6 -22.5t21.5 -28.5t50.5 -27t84 -12zM316 836q7 -4 7 -11q0 -4 -1 -5q-33 -79 -38 -132q19 0 32.5 -13.5t13.5 -32.5t-14 -33t-33 -14q-20 0 -34 13t-14 35q0 82 65 188q3 6 10 6q4 0 6 -1z" />
    <glyph glyph-name="Hcircumflex" unicode="&#x124;" horiz-adv-x="758" 
d="M163 320v-306q0 -14 -14 -14h-35q-14 0 -14 14v672q0 14 14 14h35q14 0 14 -14v-316h431v316q0 14 14 14h36q14 0 14 -14v-672q0 -14 -14 -14h-36q-14 0 -14 14v306h-431zM246 824l122 91q11 9 22 0l122 -91q10 -7 3 -20l-4 -6q-9 -10 -20 -4l-112 68l-112 -68
q-13 -7 -20 4l-4 6q-9 12 3 20z" />
    <glyph glyph-name="hcircumflex" unicode="&#x125;" horiz-adv-x="573" 
d="M128 0h-34q-14 0 -14 14v673q0 14 14 14h34q14 0 14 -14v-241q62 62 170 62q201 0 201 -250v-244q0 -14 -14 -14h-33q-14 0 -14 14v244q0 109 -37 155t-108 46q-44 0 -90.5 -21t-74.5 -59v-365q0 -14 -14 -14zM-5 825l122 91q11 9 22 0l122 -91q10 -7 3 -20l-4 -6
q-9 -10 -20 -4l-112 68l-112 -68q-13 -7 -20 4l-4 6q-9 12 3 20z" />
    <glyph glyph-name="Hbar" unicode="&#x126;" horiz-adv-x="762" 
d="M660 585h48q14 0 14 -14v-18q0 -14 -14 -14h-48v-525q0 -14 -14 -14h-35q-14 0 -14 14v306h-432v-306q0 -14 -14 -14h-35q-14 0 -14 14v525h-48q-14 0 -14 14v18q0 14 14 14h48v101q0 14 14 14h35q14 0 14 -14v-101h432v101q0 14 14 14h35q14 0 14 -14v-101zM165 370h432
v169h-432v-169z" />
    <glyph glyph-name="hbar" unicode="&#x127;" horiz-adv-x="576" 
d="M128 0h-34q-14 0 -14 14v570h-46q-14 0 -14 14v18q0 14 14 14h46v57q0 14 14 14h34q14 0 14 -14v-57h133q14 0 14 -14v-18q0 -14 -14 -14h-133v-138q62 62 170 62q201 0 201 -250v-244q0 -14 -14 -14h-33q-14 0 -14 14v244q0 109 -37 155t-108 46q-44 0 -90.5 -21
t-74.5 -59v-365q0 -14 -14 -14z" />
    <glyph glyph-name="Itilde" unicode="&#x128;" horiz-adv-x="299" 
d="M181 686v-672q0 -14 -14 -14h-35q-14 0 -14 14v672q0 14 14 14h35q14 0 14 -14zM276 870l11 -6q13 -7 5 -19q-36 -56 -93 -54q-27 1 -56 22t-51 21q-33 0 -55 -31q-7 -12 -20 -6l-5 3q-13 5 -7 19q30 62 89 62q25 0 56.5 -21t50.5 -23q31 -4 55 28q9 11 20 5z" />
    <glyph glyph-name="itilde" unicode="&#x129;" horiz-adv-x="299" 
d="M180 486v-473q0 -14 -14 -14h-34q-14 0 -14 14v473q0 14 14 14h34q14 0 14 -14zM276 670l11 -6q13 -7 5 -19q-36 -56 -93 -54q-27 1 -56 22t-51 21q-33 0 -55 -31q-7 -12 -20 -6l-5 3q-13 5 -7 19q30 62 89 62q25 0 56.5 -21t50.5 -23q31 -4 55 28q9 11 20 5z" />
    <glyph glyph-name="Imacron" unicode="&#x12a;" horiz-adv-x="301" 
d="M182 686v-672q0 -14 -14 -14h-35q-14 0 -14 14v672q0 14 14 14h35q14 0 14 -14zM14 838h273q14 0 14 -14v-18q0 -14 -14 -14h-273q-14 0 -14 14v18q0 14 14 14z" />
    <glyph glyph-name="imacron" unicode="&#x12b;" horiz-adv-x="301" 
d="M181 486v-473q0 -14 -14 -14h-34q-14 0 -14 14v473q0 14 14 14h34q14 0 14 -14zM14 638h273q14 0 14 -14v-18q0 -14 -14 -14h-273q-14 0 -14 14v18q0 14 14 14z" />
    <glyph glyph-name="Ibreve" unicode="&#x12c;" horiz-adv-x="266" 
d="M164 686v-672q0 -14 -14 -14h-35q-14 0 -14 14v672q0 14 14 14h35q14 0 14 -14zM237 910l15 -4q15 -4 9 -17q-37 -96 -128 -96t-128 96q-6 13 8 17l15 4q14 3 19 -9q24 -60 86 -60q63 0 87 60q4 13 17 9z" />
    <glyph glyph-name="ibreve" unicode="&#x12d;" horiz-adv-x="266" 
d="M164 486v-473q0 -14 -14 -14h-34q-14 0 -14 14v473q0 14 14 14h34q14 0 14 -14zM237 710l15 -4q15 -4 9 -17q-37 -96 -128 -96t-128 96q-6 13 8 17l15 4q14 3 19 -9q24 -60 86 -60q63 0 87 60q4 13 17 9z" />
    <glyph glyph-name="Iogonek" unicode="&#x12e;" horiz-adv-x="263" 
d="M163 686v-694q0 -13 -17.5 -49t-17.5 -57q0 -67 72 -67q23 0 57 9q4 2 8.5 -1t4.5 -8v-10q0 -14 -13 -19q-34 -11 -65 -11q-49 0 -81 25t-32 75q0 29 26 68t26 48v5h-17q-14 0 -14 14v672q0 14 14 14h35q14 0 14 -14z" />
    <glyph glyph-name="iogonek" unicode="&#x12f;" horiz-adv-x="243" 
d="M80 633q0 18 11.5 30t29.5 12q17 0 29.5 -12.5t12.5 -29.5t-12.5 -29t-29.5 -12q-18 0 -29.5 12t-11.5 29zM151 486v-493q0 -13 -17.5 -49.5t-17.5 -57.5q0 -67 72 -67q23 0 57 9q4 2 8.5 -1t4.5 -8v-10q0 -14 -13 -19q-34 -11 -65 -11q-49 0 -81 25t-32 75q0 29 26 68.5
t26 48.5v4h-16q-14 0 -14 14v472q0 14 14 14h34q14 0 14 -14z" />
    <glyph glyph-name="Idotaccent" unicode="&#x130;" horiz-adv-x="263" 
d="M90 829q0 18 11.5 30t29.5 12q17 0 29.5 -12.5t12.5 -29.5t-12.5 -29t-29.5 -12q-18 0 -29.5 12t-11.5 29zM163 686v-672q0 -14 -14 -14h-35q-14 0 -14 14v672q0 14 14 14h35q14 0 14 -14z" />
    <glyph glyph-name="dotlessi" unicode="&#x131;" horiz-adv-x="222" 
d="M142 486v-473q0 -14 -14 -14h-34q-14 0 -14 14v473q0 14 14 14h34q14 0 14 -14z" />
    <glyph glyph-name="IJ" unicode="&#x132;" horiz-adv-x="817" 
d="M163 686v-672q0 -14 -14 -14h-35q-14 0 -14 14v672q0 14 14 14h35q14 0 14 -14zM256 163l26 11q13 5 18 -7q49 -116 174 -113q48 1 83.5 18t53 39.5t27.5 54.5t12 52.5t2 43.5v424q0 14 14 14h37q14 0 14 -14v-424q0 -47 -11 -90t-36.5 -85t-75.5 -67.5t-120 -25.5
q-166 0 -226 150q-5 12 8 19z" />
    <glyph glyph-name="ij" unicode="&#x133;" horiz-adv-x="486" 
d="M80 633q0 18 11.5 30t29.5 12q17 0 29.5 -12.5t12.5 -29.5t-12.5 -29t-29.5 -12q-18 0 -29.5 12t-11.5 29zM323 633q0 18 11.5 30t29.5 12q17 0 29.5 -12.5t12.5 -29.5t-12.5 -29t-29.5 -12q-18 0 -29.5 12t-11.5 29zM151 486v-473q0 -14 -14 -14h-34q-14 0 -14 14v473
q0 14 14 14h34q14 0 14 -14zM231 -208q-60 0 -106 27q-13 5 -5 19l10 16q6 11 20 6q40 -16 73 -16q107 0 107 138v504q0 14 14 14h35q14 0 14 -14v-504q0 -153 -109 -183q-25 -7 -53 -7z" />
    <glyph glyph-name="Jcircumflex" unicode="&#x134;" horiz-adv-x="594" 
d="M33 163l26 11q13 5 18 -7q49 -116 174 -113q48 1 83.5 18t53 39.5t27.5 54.5t12 52.5t2 43.5v424q0 14 14 14h37q14 0 14 -14v-424q0 -47 -11 -90t-36.5 -85t-75.5 -67.5t-120 -25.5q-166 0 -226 150q-5 12 8 19zM321 824l122 91q11 9 22 0l122 -91q10 -7 3 -20l-4 -6
q-9 -10 -20 -4l-112 68l-112 -68q-13 -7 -20 4l-4 6q-9 12 3 20z" />
    <glyph glyph-name="jcircumflex" unicode="&#x135;" horiz-adv-x="243" 
d="M-26 -208q-55 4 -92 27q-13 5 -5 19l10 16q6 11 20 6q40 -16 73 -16q107 0 107 138v504q0 14 14 14h35q14 0 14 -14v-504q0 -150 -106 -183q-19 -6 -42 -7h-28zM-11 624l122 91q11 9 22 0l122 -91q10 -7 3 -20l-4 -6q-9 -10 -20 -4l-112 68l-112 -68q-13 -7 -20 4l-4 6
q-9 12 3 20z" />
    <glyph glyph-name="Kcommaaccent" unicode="&#x136;" horiz-adv-x="615" 
d="M149 0h-35q-14 0 -14 14v672q0 14 14 14h35q14 0 14 -14v-314l306 318q10 10 24 10h45q4 0 5.5 -3.5t-1.5 -6.5l-311 -329l339 -351q3 -3 1.5 -6.5t-5.5 -3.5h-47q-14 0 -24 10l-332 342v-338q0 -14 -14 -14zM283 -312q-12 5 -7 17q26 63 30 112q-19 0 -32.5 13.5
t-13.5 32.5t14 33t33 14q20 0 34 -13t14 -35q0 -69 -54 -167q-5 -11 -18 -7z" />
    <glyph glyph-name="kcommaaccent" unicode="&#x137;" horiz-adv-x="518" 
d="M402 10l-259 242v-238q0 -14 -14 -14h-35q-14 0 -14 14v674q0 14 14 14h35q14 0 14 -14v-420l241 222q9 10 24 10h60q4 0 5 -3.5t-1 -6.5l-251 -230l265 -250q2 -3 1 -6.5t-5 -3.5h-56q-15 0 -24 10zM212 -312q-12 5 -7 17q26 63 30 112q-19 0 -32.5 13.5t-13.5 32.5
t14 33t33 14q20 0 34 -13t14 -35q0 -69 -54 -167q-5 -11 -18 -7z" />
    <glyph glyph-name="kgreenlandic" unicode="&#x138;" horiz-adv-x="507" 
d="M393 10l-250 242v-238q0 -14 -14 -14h-35q-14 0 -14 14v472q0 14 14 14h35q14 0 14 -14v-218l232 222q10 10 24 10h48q4 0 5.5 -3.5t-1.5 -6.5l-240 -230l256 -250q3 -3 1.5 -6.5t-5.5 -3.5h-46q-15 0 -24 10z" />
    <glyph glyph-name="Lacute" unicode="&#x139;" horiz-adv-x="508" 
d="M163 686v-636h271q14 0 14 -14v-22q0 -14 -14 -14h-320q-14 0 -14 14v672q0 14 14 14h35q14 0 14 -14zM128 825l122 91q12 8 19 -4l13 -19q7 -13 -4 -19l-129 -79q-13 -7 -20 4l-4 6q-9 12 3 20z" />
    <glyph glyph-name="lacute" unicode="&#x13a;" horiz-adv-x="213" 
d="M137 688v-674q0 -14 -14 -14h-34q-14 0 -14 14v674q0 14 14 14h34q14 0 14 -14zM31 828l122 91q12 8 19 -4l13 -19q7 -13 -4 -19l-129 -79q-13 -7 -20 4l-4 6q-9 12 3 20z" />
    <glyph glyph-name="Lcommaaccent" unicode="&#x13b;" horiz-adv-x="508" 
d="M163 686v-636h271q14 0 14 -14v-22q0 -14 -14 -14h-320q-14 0 -14 14v672q0 14 14 14h35q14 0 14 -14zM229 -312q-12 5 -7 17q26 63 30 112q-19 0 -32.5 13.5t-13.5 32.5t14 33t33 14q20 0 34 -13t14 -35q0 -69 -54 -167q-5 -11 -18 -7z" />
    <glyph glyph-name="lcommaaccent" unicode="&#x13c;" horiz-adv-x="242" 
d="M152 688v-674q0 -14 -14 -14h-34q-14 0 -14 14v674q0 14 14 14h34q14 0 14 -14zM97 -312q-12 5 -7 17q26 63 30 112q-19 0 -32.5 13.5t-13.5 32.5t14 33t33 14q20 0 34 -13t14 -35q0 -69 -54 -167q-5 -11 -18 -7z" />
    <glyph glyph-name="Lcaron" unicode="&#x13d;" horiz-adv-x="508" 
d="M163 686v-636h271q14 0 14 -14v-22q0 -14 -14 -14h-320q-14 0 -14 14v672q0 14 14 14h35q14 0 14 -14zM281 463q-10 6 -5 16q34 79 38 132q-19 0 -32.5 13.5t-13.5 32.5t14 33t33 14q20 0 34 -13t14 -35q0 -79 -65 -188q-5 -11 -17 -5z" />
    <glyph glyph-name="lcaron" unicode="&#x13e;" horiz-adv-x="345" 
d="M152 688v-674q0 -14 -14 -14h-34q-14 0 -14 14v674q0 14 14 14h34q14 0 14 -14zM259 467q-10 6 -5 16q34 79 38 132q-19 0 -32.5 13.5t-13.5 32.5t14 33t33 14q20 0 34 -13t14 -35q0 -79 -65 -188q-5 -11 -17 -5z" />
    <glyph glyph-name="Ldot" unicode="&#x13f;" horiz-adv-x="508" 
d="M163 686v-636h271q14 0 14 -14v-22q0 -14 -14 -14h-320q-14 0 -14 14v672q0 14 14 14h35q14 0 14 -14zM272 295q0 19 14 33t33 14t33 -14t14 -33t-14 -33t-33 -14t-33 14t-14 33z" />
    <glyph glyph-name="ldot" unicode="&#x140;" horiz-adv-x="341" 
d="M152 688v-674q0 -14 -14 -14h-34q-14 0 -14 14v674q0 14 14 14h34q14 0 14 -14zM227 295q0 19 13.5 33t33.5 14t33.5 -14t13.5 -33t-13.5 -33t-33.5 -14t-33.5 14t-13.5 33z" />
    <glyph glyph-name="Lslash" unicode="&#x141;" horiz-adv-x="531" 
d="M25 279l-7 11q-8 11 4 19l100 57v320q0 14 14 14h36q14 0 14 -14v-283l160 93q12 7 20 -5l7 -11q7 -12 -4 -19l-183 -106v-305h271q14 0 14 -14v-22q0 -14 -14 -14h-321q-14 0 -14 14v304l-77 -44q-12 -7 -20 5z" />
    <glyph glyph-name="lslash" unicode="&#x142;" horiz-adv-x="328" 
d="M303 455l7 -11q8 -11 -4 -19l-128 -74v-336q0 -14 -14 -14h-37q-14 0 -14 14v298l-70 -40q-12 -7 -19 5l-7 12q-7 12 5 19l91 52v326q0 14 14 14h37q14 0 14 -14v-288l106 61q12 7 19 -5z" />
    <glyph glyph-name="Nacute" unicode="&#x143;" horiz-adv-x="758" 
d="M150 0h-36q-14 0 -14 14v679q0 13 13 13t21 -10l461 -557v547q0 14 14 14h35q14 0 14 -14v-679q0 -13 -13 -13t-21 10l-460 554v-544q0 -14 -14 -14zM303 825l122 91q12 8 19 -4l13 -19q7 -13 -4 -19l-129 -79q-13 -7 -20 4l-4 6q-9 12 3 20z" />
    <glyph glyph-name="nacute" unicode="&#x144;" 
d="M142 370v-356q0 -14 -14 -14h-34q-14 0 -14 14v472q0 14 14 14h5q13 0 17 -14l12 -59q76 81 177 81q53 0 91.5 -15.5t60 -38.5t34.5 -58t17 -66.5t4 -71.5v-244q0 -14 -14 -14h-35q-14 0 -14 14v243v30.5t-2.5 34t-7.5 39t-16 34t-26.5 31.5t-40 19.5t-56.5 8.5
q-49 0 -94.5 -27t-63.5 -57zM210 625l122 91q12 8 19 -4l13 -19q7 -13 -4 -19l-129 -79q-13 -7 -20 4l-4 6q-9 12 3 20z" />
    <glyph glyph-name="Ncommaaccent" unicode="&#x145;" horiz-adv-x="758" 
d="M150 0h-36q-14 0 -14 14v679q0 13 13 13t21 -10l461 -557v547q0 14 14 14h35q14 0 14 -14v-679q0 -13 -13 -13t-21 10l-460 554v-544q0 -14 -14 -14zM354 -312q-12 5 -7 17q26 63 30 112q-19 0 -32.5 13.5t-13.5 32.5t14 33t33 14q20 0 34 -13t14 -35q0 -69 -54 -167
q-5 -11 -18 -7z" />
    <glyph glyph-name="ncommaaccent" unicode="&#x146;" 
d="M142 370v-356q0 -14 -14 -14h-34q-14 0 -14 14v472q0 14 14 14h5q13 0 17 -14l12 -59q76 81 177 81q53 0 91.5 -15.5t60 -38.5t34.5 -58t17 -66.5t4 -71.5v-244q0 -14 -14 -14h-35q-14 0 -14 14v243v30.5t-2.5 34t-7.5 39t-16 34t-26.5 31.5t-40 19.5t-56.5 8.5
q-49 0 -94.5 -27t-63.5 -57zM261 -312q-12 5 -7 17q26 63 30 112q-19 0 -32.5 13.5t-13.5 32.5t14 33t33 14q20 0 34 -13t14 -35q0 -69 -54 -167q-5 -11 -18 -7z" />
    <glyph glyph-name="Ncaron" unicode="&#x147;" horiz-adv-x="758" 
d="M150 0h-36q-14 0 -14 14v679q0 13 13 13t21 -10l461 -557v547q0 14 14 14h35q14 0 14 -14v-679q0 -13 -13 -13t-21 10l-460 554v-544q0 -14 -14 -14zM368 793l-122 91q-12 8 -3 19l4 6q7 12 20 5l112 -68l112 68q12 7 20 -5l4 -6q8 -12 -3 -19l-122 -91q-11 -9 -22 0z
" />
    <glyph glyph-name="ncaron" unicode="&#x148;" 
d="M142 370v-356q0 -14 -14 -14h-34q-14 0 -14 14v472q0 14 14 14h5q13 0 17 -14l12 -59q76 81 177 81q53 0 91.5 -15.5t60 -38.5t34.5 -58t17 -66.5t4 -71.5v-244q0 -14 -14 -14h-35q-14 0 -14 14v243v30.5t-2.5 34t-7.5 39t-16 34t-26.5 31.5t-40 19.5t-56.5 8.5
q-49 0 -94.5 -27t-63.5 -57zM275 593l-122 91q-12 8 -3 19l4 6q7 12 20 5l112 -68l112 68q12 7 20 -5l4 -6q8 -12 -3 -19l-122 -91q-11 -9 -22 0z" />
    <glyph glyph-name="napostrophe" unicode="&#x149;" horiz-adv-x="639" 
d="M209 370v-356q0 -14 -14 -14h-34q-14 0 -14 14v472q0 14 14 14h5q14 0 17 -14l12 -59q76 81 177 81q53 0 91.5 -15.5t60 -38.5t34.5 -58t17 -66.5t4 -71.5v-244q0 -14 -14 -14h-35q-14 0 -14 14v243v30.5t-2.5 34t-7.5 39t-16 34t-26.5 31.5t-40 19.5t-56.5 8.5
q-49 0 -94.5 -27t-63.5 -57zM33 517q-12 5 -7 17q26 63 30 112q-19 0 -32.5 13.5t-13.5 32.5t14 33t33 14q20 0 34 -13t14 -35q0 -69 -54 -167q-5 -11 -18 -7z" />
    <glyph glyph-name="Eng" unicode="&#x14a;" horiz-adv-x="758" 
d="M496 -224q-60 0 -106 27q-13 5 -5 19l10 16q6 11 20 6q40 -16 73 -16q107 0 107 138v87l-431 512v-551q0 -14 -14 -14h-36q-14 0 -14 14v682q0 14 14 14h2q14 0 23 -11l456 -547v534q0 14 14 14h35q14 0 14 -14v-720q0 -153 -109 -183q-25 -7 -53 -7z" />
    <glyph glyph-name="eng" unicode="&#x14b;" 
d="M350 -221q-60 0 -106 27q-13 5 -5 19l10 16q6 11 20 6q40 -16 73 -16q107 0 107 138v288v30.5t-2.5 34t-7.5 39t-16 34t-26.5 31.5t-40 19.5t-56.5 8.5q-49 0 -94.5 -27t-63.5 -57v-356q0 -14 -14 -14h-34q-14 0 -14 14v472q0 14 14 14h5q13 0 17 -14l12 -59
q76 81 177 81q53 0 91.5 -15.5t60 -38.5t34.5 -58t17 -66.5t4 -71.5v-289q0 -153 -109 -183q-25 -7 -53 -7z" />
    <glyph glyph-name="Omacron" unicode="&#x14c;" horiz-adv-x="811" 
d="M405 709q77 0 138.5 -23.5t99.5 -60t63 -85t35 -95t10 -93.5q0 -48 -10 -95t-35 -96t-63 -85.5t-99.5 -59.5t-138.5 -23t-138 23t-99 59.5t-63 85.5t-35 96t-10 95q0 47 10 93.5t35 95t63 85t99 60t138 23.5zM405 48q51 0 93 13t70 33.5t50 49t34.5 56.5t20 58.5t10 52.5
t2.5 41q0 29 -5 61.5t-23 77t-46.5 79t-82 59t-123.5 24.5t-123.5 -24.5t-82 -59t-46.5 -79t-23 -77t-5 -61.5q0 -19 2.5 -41t10 -52.5t20 -58.5t34.5 -56.5t50 -49t70 -33.5t93 -13zM269 838h273q14 0 14 -14v-18q0 -14 -14 -14h-273q-14 0 -14 14v18q0 14 14 14z" />
    <glyph glyph-name="omacron" unicode="&#x14d;" horiz-adv-x="618" 
d="M309 508q68 0 119 -25t78 -65.5t39.5 -82.5t12.5 -85q0 -44 -12.5 -86.5t-39.5 -82.5t-78 -64.5t-119 -24.5t-119 24.5t-78 64.5t-39.5 82.5t-12.5 86.5q0 43 12.5 85t39.5 82.5t78 65.5t119 25zM309 40q46 0 81.5 17t55 41t32 55t16 54t3.5 43t-3.5 43t-16 54t-32 55
t-55 41t-81.5 17t-81.5 -17t-55 -41t-31.5 -55t-15.5 -54t-3.5 -43t3.5 -43t15.5 -54t31.5 -55t55 -41t81.5 -17zM172 638h273q14 0 14 -14v-18q0 -14 -14 -14h-273q-14 0 -14 14v18q0 14 14 14z" />
    <glyph glyph-name="Obreve" unicode="&#x14e;" horiz-adv-x="811" 
d="M405 709q77 0 138.5 -23.5t99.5 -60t63 -85t35 -95t10 -93.5q0 -48 -10 -95t-35 -96t-63 -85.5t-99.5 -59.5t-138.5 -23t-138 23t-99 59.5t-63 85.5t-35 96t-10 95q0 47 10 93.5t35 95t63 85t99 60t138 23.5zM405 48q51 0 93 13t70 33.5t50 49t34.5 56.5t20 58.5t10 52.5
t2.5 41q0 29 -5 61.5t-23 77t-46.5 79t-82 59t-123.5 24.5t-123.5 -24.5t-82 -59t-46.5 -79t-23 -77t-5 -61.5q0 -19 2.5 -41t10 -52.5t20 -58.5t34.5 -56.5t50 -49t70 -33.5t93 -13zM509 910l15 -4q15 -4 9 -17q-37 -96 -128 -96t-128 96q-6 13 8 17l15 4q14 3 19 -9
q24 -60 86 -60q63 0 87 60q4 13 17 9z" />
    <glyph glyph-name="obreve" unicode="&#x14f;" horiz-adv-x="618" 
d="M309 508q68 0 119 -25t78 -65.5t39.5 -82.5t12.5 -85q0 -44 -12.5 -86.5t-39.5 -82.5t-78 -64.5t-119 -24.5t-119 24.5t-78 64.5t-39.5 82.5t-12.5 86.5q0 43 12.5 85t39.5 82.5t78 65.5t119 25zM309 40q46 0 81.5 17t55 41t32 55t16 54t3.5 43t-3.5 43t-16 54t-32 55
t-55 41t-81.5 17t-81.5 -17t-55 -41t-31.5 -55t-15.5 -54t-3.5 -43t3.5 -43t15.5 -54t31.5 -55t55 -41t81.5 -17zM413 710l15 -4q15 -4 9 -17q-37 -96 -128 -96t-128 96q-6 13 8 17l15 4q14 3 19 -9q24 -60 86 -60q63 0 87 60q4 13 17 9z" />
    <glyph glyph-name="Ohungarumlaut" unicode="&#x150;" horiz-adv-x="811" 
d="M405 709q77 0 138.5 -23.5t99.5 -60t63 -85t35 -95t10 -93.5q0 -48 -10 -95t-35 -96t-63 -85.5t-99.5 -59.5t-138.5 -23t-138 23t-99 59.5t-63 85.5t-35 96t-10 95q0 47 10 93.5t35 95t63 85t99 60t138 23.5zM405 48q51 0 93 13t70 33.5t50 49t34.5 56.5t20 58.5t10 52.5
t2.5 41q0 29 -5 61.5t-23 77t-46.5 79t-82 59t-123.5 24.5t-123.5 -24.5t-82 -59t-46.5 -79t-23 -77t-5 -61.5q0 -19 2.5 -41t10 -52.5t20 -58.5t34.5 -56.5t50 -49t70 -33.5t93 -13zM386 933l-55 -128q-5 -13 -19 -13h-11q-5 0 -8.5 4t-1.5 9l41 128q3 13 18 13h27
q5 0 8 -4t1 -9zM556 933l-55 -128q-5 -13 -19 -13h-11q-5 0 -8.5 4t-1.5 9l41 128q3 13 18 13h27q5 0 8 -4t1 -9z" />
    <glyph glyph-name="ohungarumlaut" unicode="&#x151;" horiz-adv-x="618" 
d="M309 508q68 0 119 -25t78 -65.5t39.5 -82.5t12.5 -85q0 -44 -12.5 -86.5t-39.5 -82.5t-78 -64.5t-119 -24.5t-119 24.5t-78 64.5t-39.5 82.5t-12.5 86.5q0 43 12.5 85t39.5 82.5t78 65.5t119 25zM309 40q46 0 81.5 17t55 41t32 55t16 54t3.5 43t-3.5 43t-16 54t-32 55
t-55 41t-81.5 17t-81.5 -17t-55 -41t-31.5 -55t-15.5 -54t-3.5 -43t3.5 -43t15.5 -54t31.5 -55t55 -41t81.5 -17zM303 733l-55 -128q-5 -13 -19 -13h-11q-5 0 -8.5 4t-1.5 9l41 128q3 13 18 13h27q5 0 8 -4t1 -9zM473 733l-55 -128q-5 -13 -19 -13h-11q-5 0 -8.5 4t-1.5 9
l41 128q3 13 18 13h27q5 0 8 -4t1 -9z" />
    <glyph glyph-name="OE" unicode="&#x152;" horiz-adv-x="988" 
d="M831 320h-284v-270h367q14 0 14 -14v-22q0 -14 -14 -14h-419q-42 -9 -90 -9q-77 0 -138 23t-99 59.5t-63 85.5t-35 96t-10 95q0 47 10 93.5t35 95t63 85t99 60t138 23.5q35 0 79 -7h430q14 0 14 -14v-22q0 -14 -14 -14h-367v-280h284q14 0 14 -14v-22q0 -14 -14 -14z
M405 46q41 0 79 8v588q-36 9 -79 9q-70 0 -123.5 -24.5t-82 -59t-46.5 -79t-23 -77t-5 -61.5q0 -19 2.5 -41t10 -52.5t20 -58.5t34.5 -56.5t50 -49t70 -33.5t93 -13z" />
    <glyph glyph-name="oe" unicode="&#x153;" horiz-adv-x="1001" 
d="M911 85l11 -14q3 -5 3 -9q0 -6 -5 -11q-72 -59 -176 -59q-153 0 -217 125q-64 -125 -218 -125q-68 0 -119 24.5t-78 64.5t-39.5 82.5t-12.5 86.5q0 43 12.5 85t39.5 82.5t78 65.5t119 25q153 0 217 -123q62 126 218 126q94 0 145.5 -56.5t51.5 -153.5v-7v-9.5t-0.5 -9.5
t-1.5 -9.5t-3 -7.5t-5 -6t-7 -2h-366q0 -81 50.5 -145t135.5 -64q82 0 147 46q3 3 9 3t11 -5zM309 40q46 0 81.5 17t55 41t32 55t16 54t3.5 43t-3.5 43t-16 54t-32 55t-55 41t-81.5 17t-81.5 -17t-55 -41t-31.5 -55t-15.5 -54t-3.5 -43t3.5 -43t15.5 -54t31.5 -55t55 -41
t81.5 -17zM743 460q-82 0 -126.5 -48.5t-60.5 -118.5h325q2 16 2 25q0 56 -34.5 97.5t-105.5 44.5z" />
    <glyph glyph-name="Racute" unicode="&#x154;" horiz-adv-x="649" 
d="M249 825l122 91q4 2 8 2q7 0 11 -6l13 -19q2 -6 2 -8q0 -8 -6 -11l-129 -79q-3 -2 -8 -2q-9 0 -12 6l-4 6q-3 5 -3 9q0 6 6 11zM161 278v-264q0 -14 -14 -14h-33q-14 0 -14 14v672q0 14 14 14h238q65 0 113.5 -20.5t74 -53.5t37.5 -67t12 -69q0 -73 -47.5 -134.5
t-128.5 -75.5l129 -267q2 -4 -0.5 -8.5t-7.5 -4.5h-36q-14 0 -20 13l-126 265h-191zM363 328q38 1 67.5 13t46.5 30t28.5 41t15.5 42t4 36q0 24 -7.5 49t-24 51.5t-51.5 43.5t-83 17h-198v-323h202z" />
    <glyph glyph-name="racute" unicode="&#x155;" horiz-adv-x="366" 
d="M343 491l-5 -26q-3 -14 -17 -12q-4 0 -11 0.5t-10 0.5q-49 0 -94.5 -27t-63.5 -57v-356q0 -14 -14 -14h-34q-14 0 -14 14v472q0 14 14 14h5q13 0 17 -14l12 -59q76 81 177 81q19 0 27 -1q15 -2 11 -16zM108 625l122 91q12 8 19 -4l13 -19q7 -13 -4 -19l-129 -79
q-13 -7 -20 4l-4 6q-9 12 3 20z" />
    <glyph glyph-name="Rcommaaccent" unicode="&#x156;" horiz-adv-x="649" 
d="M161 278v-264q0 -14 -14 -14h-33q-14 0 -14 14v672q0 14 14 14h238q65 0 113.5 -20.5t74 -53.5t37.5 -67t12 -69q0 -73 -47.5 -134.5t-128.5 -75.5l129 -267q2 -4 -0.5 -8.5t-7.5 -4.5h-36q-14 0 -20 13l-126 265h-191zM363 328q38 1 67.5 13t46.5 30t28.5 41t15.5 42
t4 36q0 24 -7.5 49t-24 51.5t-51.5 43.5t-83 17h-198v-323h202zM300 -312q-12 5 -7 17q26 63 30 112q-19 0 -32.5 13.5t-13.5 32.5t14 33t33 14q20 0 34 -13t14 -35q0 -69 -54 -167q-5 -11 -18 -7z" />
    <glyph glyph-name="rcommaaccent" unicode="&#x157;" horiz-adv-x="366" 
d="M343 491l-5 -26q-3 -14 -17 -12q-4 0 -11 0.5t-10 0.5q-49 0 -94.5 -27t-63.5 -57v-356q0 -14 -14 -14h-34q-14 0 -14 14v472q0 14 14 14h5q13 0 17 -14l12 -59q76 81 177 81q19 0 27 -1q15 -2 11 -16zM88 -312q-12 5 -7 17q26 63 30 112q-19 0 -32.5 13.5t-13.5 32.5
t14 33t33 14q20 0 34 -13t14 -35q0 -69 -54 -167q-5 -11 -18 -7z" />
    <glyph glyph-name="Rcaron" unicode="&#x158;" horiz-adv-x="649" 
d="M161 278v-264q0 -14 -14 -14h-33q-14 0 -14 14v672q0 14 14 14h238q65 0 113.5 -20.5t74 -53.5t37.5 -67t12 -69q0 -73 -47.5 -134.5t-128.5 -75.5l129 -267q2 -4 -0.5 -8.5t-7.5 -4.5h-36q-14 0 -20 13l-126 265h-191zM363 328q38 1 67.5 13t46.5 30t28.5 41t15.5 42
t4 36q0 24 -7.5 49t-24 51.5t-51.5 43.5t-83 17h-198v-323h202zM287 793l-122 91q-12 8 -3 19l4 6q7 12 20 5l112 -68l112 68q12 7 20 -5l4 -6q8 -12 -3 -19l-122 -91q-11 -9 -22 0z" />
    <glyph glyph-name="rcaron" unicode="&#x159;" horiz-adv-x="366" 
d="M343 491l-5 -26q-3 -14 -17 -12q-4 0 -11 0.5t-10 0.5q-49 0 -94.5 -27t-63.5 -57v-356q0 -14 -14 -14h-34q-14 0 -14 14v472q0 14 14 14h5q13 0 17 -14l12 -59q76 81 177 81q19 0 27 -1q15 -2 11 -16zM172 593l-122 91q-12 8 -3 19l4 6q7 12 20 5l112 -68l112 68
q12 7 20 -5l4 -6q8 -12 -3 -19l-122 -91q-11 -9 -22 0z" />
    <glyph glyph-name="Sacute" unicode="&#x15a;" horiz-adv-x="605" 
d="M124 544v-1q0 -38 23.5 -66t60.5 -44.5t82 -31t90 -31.5t82 -39.5t60 -62t22 -92.5q-1 -78 -69 -132.5t-173 -54.5q-118 0 -226 50q-13 5 -7 19l11 24q6 14 19 8q108 -44 195 -44q72 0 126.5 36t57.5 91q0 60 -43 97t-104 56t-122 39t-104 62.5t-44 110.5
q-1 84 57.5 128.5t151.5 44.5q105 0 214 -43q13 -6 8 -18l-10 -28q-5 -13 -18 -9q-110 36 -191 36q-62 0 -104.5 -25t-44.5 -80zM227 825l122 91q12 8 19 -4l13 -19q7 -13 -4 -19l-129 -79q-13 -7 -20 4l-4 6q-9 12 3 20z" />
    <glyph glyph-name="sacute" unicode="&#x15b;" horiz-adv-x="472" 
d="M118 380q0 -35 30.5 -57.5t73.5 -35t86 -28.5t73.5 -49.5t30.5 -85.5q0 -59 -50 -97t-126 -38q-49 0 -110 14.5t-61 36.5q0 5 1 7l9 17q3 8 13 8q4 0 6 -1q75 -34 136 -34q49 0 84.5 23.5t35.5 62.5t-30 64t-72 38t-84.5 27t-72.5 44.5t-30 77.5q0 61 43.5 97.5
t109.5 36.5q78 0 153 -31q8 -3 8 -12q0 -4 -1 -6l-7 -16q-5 -9 -14 -9q-4 0 -5 1q-71 25 -114 25q-108 0 -116 -80zM161 625l122 91q4 2 8 2q7 0 11 -6l13 -19q2 -6 2 -8q0 -8 -6 -11l-129 -79q-3 -2 -8 -2q-9 0 -12 6l-4 6q-3 5 -3 9q0 6 6 11z" />
    <glyph glyph-name="Scircumflex" unicode="&#x15c;" horiz-adv-x="605" 
d="M124 544v-1q0 -38 23.5 -66t60.5 -44.5t82 -31t90 -31.5t82 -39.5t60 -62t22 -92.5q-1 -78 -69 -132.5t-173 -54.5q-118 0 -226 50q-13 5 -7 19l11 24q6 14 19 8q108 -44 195 -44q72 0 126.5 36t57.5 91q0 60 -43 97t-104 56t-122 39t-104 62.5t-44 110.5
q-1 84 57.5 128.5t151.5 44.5q105 0 214 -43q13 -6 8 -18l-10 -28q-5 -13 -18 -9q-110 36 -191 36q-62 0 -104.5 -25t-44.5 -80zM154 824l122 91q11 9 22 0l122 -91q10 -7 3 -20l-4 -6q-9 -10 -20 -4l-112 68l-112 -68q-13 -7 -20 4l-4 6q-9 12 3 20z" />
    <glyph glyph-name="scircumflex" unicode="&#x15d;" horiz-adv-x="472" 
d="M118 380q0 -35 30.5 -57.5t73.5 -35t86 -28.5t73.5 -49.5t30.5 -85.5q0 -59 -50 -97t-126 -38q-49 0 -110 14.5t-61 36.5q0 5 1 7l9 17q3 8 13 8q4 0 6 -1q75 -34 136 -34q49 0 84.5 23.5t35.5 62.5t-30 64t-72 38t-84.5 27t-72.5 44.5t-30 77.5q0 61 43.5 97.5
t109.5 36.5q78 0 153 -31q8 -3 8 -12q0 -4 -1 -6l-7 -16q-5 -9 -14 -9q-4 0 -5 1q-71 25 -114 25q-108 0 -116 -80zM103 624l122 91q6 4 11 4t11 -4l122 -91q5 -5 5 -11q0 -3 -2 -9l-4 -6q-4 -6 -12 -6q-6 0 -8 2l-112 68l-112 -68q-3 -2 -8 -2q-9 0 -12 6l-4 6q-3 4 -3 9
q0 7 6 11z" />
    <glyph glyph-name="Scedilla" unicode="&#x15e;" horiz-adv-x="605" 
d="M278 -76q-2 4 -2 6v60q-104 4 -200 49q-13 5 -7 19l11 24q6 14 19 8q108 -44 195 -44q72 0 126.5 36t57.5 91q0 60 -43 97t-104 56t-122 39t-104 62.5t-44 110.5q-1 84 57.5 128.5t151.5 44.5q105 0 214 -43q13 -6 8 -18l-10 -28q-5 -13 -18 -9q-110 36 -191 36
q-62 0 -104.5 -25t-44.5 -80v-1q0 -38 23.5 -66t60.5 -44.5t82 -31t90 -31.5t82 -39.5t60 -62t22 -92.5q-1 -76 -65.5 -129.5t-165.5 -57.5v-33h19q40 -2 62 -27.5t22 -54.5q0 -47 -29 -70.5t-70 -23.5q-32 0 -65 15q-12 5 -6 19l3 6q5 13 19 7q27 -10 44 -10q32 0 46 17.5
t14 39.5q0 20 -14.5 34t-47.5 14h-26q-2 0 -6 2z" />
    <glyph glyph-name="scedilla" unicode="&#x15f;" horiz-adv-x="472" 
d="M211 -76q-2 4 -2 6v60q-71 4 -137 38q-12 5 -6 19l9 17q5 13 19 7q75 -34 136 -34q49 0 84.5 23.5t35.5 62.5t-30 64t-72 38t-84.5 27t-72.5 44.5t-30 77.5q0 61 43.5 97.5t109.5 36.5q78 0 153 -31q13 -4 7 -18l-7 -16q-7 -13 -19 -8q-71 25 -114 25q-108 0 -116 -80
q0 -35 30.5 -57.5t73.5 -35t86 -28.5t73.5 -49.5t30.5 -85.5q0 -58 -47 -95t-119 -40v-33h19q40 -2 62 -27.5t22 -54.5q0 -47 -29 -70.5t-70 -23.5q-32 0 -65 15q-12 5 -6 19l3 6q5 13 19 7q27 -10 44 -10q32 0 46 17.5t14 39.5q0 20 -14.5 34t-47.5 14h-26q-2 0 -6 2z" />
    <glyph glyph-name="Scaron" unicode="&#x160;" horiz-adv-x="605" 
d="M124 544v-1q0 -38 23.5 -66t60.5 -44.5t82 -31t90 -31.5t82 -39.5t60 -62t22 -92.5q-1 -78 -69 -132.5t-173 -54.5q-118 0 -226 50q-13 5 -7 19l11 24q6 14 19 8q108 -44 195 -44q72 0 126.5 36t57.5 91q0 60 -43 97t-104 56t-122 39t-104 62.5t-44 110.5
q-1 84 57.5 128.5t151.5 44.5q105 0 214 -43q13 -6 8 -18l-10 -28q-5 -13 -18 -9q-110 36 -191 36q-62 0 -104.5 -25t-44.5 -80zM273 793l-122 91q-12 8 -3 19l4 6q7 12 20 5l112 -68l112 68q12 7 20 -5l4 -6q8 -12 -3 -19l-122 -91q-11 -9 -22 0z" />
    <glyph glyph-name="scaron" unicode="&#x161;" horiz-adv-x="472" 
d="M118 380q0 -35 30.5 -57.5t73.5 -35t86 -28.5t73.5 -49.5t30.5 -85.5q0 -59 -50 -97t-126 -38q-49 0 -110 14.5t-61 36.5q0 5 1 7l9 17q3 8 13 8q4 0 6 -1q75 -34 136 -34q49 0 84.5 23.5t35.5 62.5t-30 64t-72 38t-84.5 27t-72.5 44.5t-30 77.5q0 61 43.5 97.5
t109.5 36.5q78 0 153 -31q8 -3 8 -12q0 -4 -1 -6l-7 -16q-5 -9 -14 -9q-4 0 -5 1q-71 25 -114 25q-108 0 -116 -80zM217 593l-122 91q-6 3 -6 11q0 5 3 8l4 6q5 7 12 7q2 0 8 -2l112 -68l112 68q4 2 7 2q8 0 13 -7l4 -6q2 -6 2 -8q0 -8 -5 -11l-122 -91q-4 -4 -11 -4t-11 4z
" />
    <glyph glyph-name="Tcommaaccent" unicode="&#x162;" horiz-adv-x="589" 
d="M261 14v636h-202q-14 0 -14 14v22q0 14 14 14h471q14 0 14 -14v-22q0 -14 -14 -14h-205v-636q0 -14 -14 -14h-36q-14 0 -14 14zM270 -312q-12 5 -7 17q26 63 30 112q-19 0 -32.5 13.5t-13.5 32.5t14 33t33 14q20 0 34 -13t14 -35q0 -69 -54 -167q-5 -11 -18 -7z" />
    <glyph glyph-name="tcommaaccent" unicode="&#x163;" horiz-adv-x="288" 
d="M77 456h-53q-14 0 -14 14v16q0 14 14 14h53l6 87q2 14 15 14h28q14 0 14 -14v-87h99q14 0 14 -14v-16q0 -14 -14 -14h-99v-330q0 -39 16 -61.5t58 -22.5q19 0 43 6q14 4 16 -11l3 -13q2 -14 -11 -18q-39 -12 -75 -12q-109 0 -113 117v345zM119 -312q-12 5 -7 17
q26 63 30 112q-19 0 -32.5 13.5t-13.5 32.5t14 33t33 14q20 0 34 -13t14 -35q0 -69 -54 -167q-5 -11 -18 -7z" />
    <glyph glyph-name="Tcaron" unicode="&#x164;" horiz-adv-x="589" 
d="M261 14v636h-202q-14 0 -14 14v22q0 14 14 14h471q14 0 14 -14v-22q0 -14 -14 -14h-205v-636q0 -14 -14 -14h-36q-14 0 -14 14zM283 793l-122 91q-12 8 -3 19l4 6q7 12 20 5l112 -68l112 68q12 7 20 -5l4 -6q8 -12 -3 -19l-122 -91q-11 -9 -22 0z" />
    <glyph glyph-name="tcaron" unicode="&#x165;" horiz-adv-x="430" 
d="M328 470q-10 6 -5 16q34 79 38 132q-19 0 -32.5 13.5t-13.5 32.5t14 33t33 14q20 0 34 -13t14 -35q0 -79 -65 -188q-5 -11 -17 -5zM77 456h-53q-14 0 -14 14v16q0 14 14 14h53l6 87q2 14 15 14h28q14 0 14 -14v-87h99q14 0 14 -14v-16q0 -14 -14 -14h-99v-328
q0 -38 15.5 -56t58.5 -18q22 0 44 7q5 2 9.5 -1t5.5 -8l3 -28q2 -14 -11 -18q-39 -12 -75 -12q-109 0 -113 117v345z" />
    <glyph glyph-name="Tbar" unicode="&#x166;" horiz-adv-x="589" 
d="M158 368h103v282h-202q-14 0 -14 14v22q0 14 14 14h471q14 0 14 -14v-22q0 -14 -14 -14h-205v-282h106q14 0 14 -14v-12q0 -14 -14 -14h-106v-314q0 -14 -14 -14h-36q-14 0 -14 14v314h-103q-14 0 -14 14v12q0 14 14 14z" />
    <glyph glyph-name="tbar" unicode="&#x167;" horiz-adv-x="288" 
d="M24 321h53v135h-53q-14 0 -14 14v16q0 14 14 14h53l6 87q2 14 15 14h28q14 0 14 -14v-87h99q14 0 14 -14v-16q0 -14 -14 -14h-99v-135h99q14 0 14 -14v-13q0 -14 -14 -14h-99v-154q0 -39 16 -61.5t58 -22.5q19 0 43 6q14 4 16 -11l3 -13q2 -14 -11 -18q-39 -12 -75 -12
q-109 0 -113 117v169h-53q-14 0 -14 14v13q0 14 14 14z" />
    <glyph glyph-name="Utilde" unicode="&#x168;" horiz-adv-x="715" 
d="M356 44q58 0 101 25t63.5 62.5t30 70t9.5 59.5v425q0 14 14 14h37q14 0 14 -14v-425q0 -36 -8.5 -72t-29 -72t-50.5 -63t-77 -44t-104 -17t-103 17t-76 44t-50 63t-28.5 72t-8.5 72v425q0 14 14 14h34q14 0 14 -14v-425q0 -20 5.5 -45.5t20 -56.5t36 -56t59 -42t83.5 -17
zM484 870l11 -6q7 -5 7 -12q0 -3 -2 -7q-35 -54 -89 -54q-30 0 -59.5 21.5t-51.5 21.5q-33 0 -55 -31q-4 -7 -13 -7q-5 0 -7 1l-5 3q-8 3 -8 13q0 4 1 6q30 62 89 62q24 0 57 -22t55 -22q30 0 50 28q5 7 13 7q3 0 7 -2z" />
    <glyph glyph-name="utilde" unicode="&#x169;" 
d="M430 131v356q0 14 14 14h34q14 0 14 -14v-472q0 -14 -14 -14h-5q-13 0 -17 14l-12 59q-76 -81 -177 -81q-53 0 -91.5 15.5t-60 38.5t-34.5 58t-17 66.5t-4 71.5v244q0 14 14 14h35q14 0 14 -14v-243v-30.5t2.5 -34t7.5 -39t16 -34t26.5 -31.5t40 -19.5t56.5 -8.5
q49 0 94.5 27t63.5 57zM412 670l11 -6q13 -7 5 -19q-36 -56 -93 -54q-27 1 -56 22t-51 21q-33 0 -55 -31q-7 -12 -20 -6l-5 3q-13 5 -7 19q30 62 89 62q25 0 56.5 -21t50.5 -23q31 -4 55 28q9 11 20 5z" />
    <glyph glyph-name="Umacron" unicode="&#x16a;" horiz-adv-x="715" 
d="M356 44q58 0 101 25t63.5 62.5t30 70t9.5 59.5v425q0 14 14 14h37q14 0 14 -14v-425q0 -36 -8.5 -72t-29 -72t-50.5 -63t-77 -44t-104 -17t-103 17t-76 44t-50 63t-28.5 72t-8.5 72v425q0 14 14 14h34q14 0 14 -14v-425q0 -20 5.5 -45.5t20 -56.5t36 -56t59 -42t83.5 -17
zM221 838h273q14 0 14 -14v-18q0 -14 -14 -14h-273q-14 0 -14 14v18q0 14 14 14z" />
    <glyph glyph-name="umacron" unicode="&#x16b;" 
d="M430 131v356q0 14 14 14h34q14 0 14 -14v-472q0 -14 -14 -14h-5q-13 0 -17 14l-12 59q-76 -81 -177 -81q-53 0 -91.5 15.5t-60 38.5t-34.5 58t-17 66.5t-4 71.5v244q0 14 14 14h35q14 0 14 -14v-243v-30.5t2.5 -34t7.5 -39t16 -34t26.5 -31.5t40 -19.5t56.5 -8.5
q49 0 94.5 27t63.5 57zM149 638h273q14 0 14 -14v-18q0 -14 -14 -14h-273q-14 0 -14 14v18q0 14 14 14z" />
    <glyph glyph-name="Ubreve" unicode="&#x16c;" horiz-adv-x="715" 
d="M356 44q58 0 101 25t63.5 62.5t30 70t9.5 59.5v425q0 14 14 14h37q14 0 14 -14v-425q0 -36 -8.5 -72t-29 -72t-50.5 -63t-77 -44t-104 -17t-103 17t-76 44t-50 63t-28.5 72t-8.5 72v425q0 14 14 14h34q14 0 14 -14v-425q0 -20 5.5 -45.5t20 -56.5t36 -56t59 -42t83.5 -17
zM461 910l15 -4q10 -3 10 -12q0 -4 -1 -5q-37 -96 -128 -96t-128 96q-1 1 -1 5q0 9 9 12l15 4h4q10 0 15 -9q24 -60 86 -60q63 0 87 60q3 9 13 9h4z" />
    <glyph glyph-name="ubreve" unicode="&#x16d;" 
d="M430 131v356q0 14 14 14h34q14 0 14 -14v-472q0 -14 -14 -14h-5q-13 0 -17 14l-12 59q-76 -81 -177 -81q-53 0 -91.5 15.5t-60 38.5t-34.5 58t-17 66.5t-4 71.5v244q0 14 14 14h35q14 0 14 -14v-243v-30.5t2.5 -34t7.5 -39t16 -34t26.5 -31.5t40 -19.5t56.5 -8.5
q49 0 94.5 27t63.5 57zM384 710l15 -4q15 -4 9 -17q-37 -96 -128 -96t-128 96q-6 13 8 17l15 4q14 3 19 -9q24 -60 86 -60q63 0 87 60q4 13 17 9z" />
    <glyph glyph-name="Uring" unicode="&#x16e;" horiz-adv-x="715" 
d="M268 879q0 37 26 63.5t64 26.5q37 0 63 -26.5t26 -63.5t-26 -63t-63 -26t-63.5 26t-26.5 63zM307 879q0 -20 15.5 -35t35.5 -15t35 15.5t15 34.5q0 20 -15 35.5t-35 15.5t-35.5 -15.5t-15.5 -35.5zM356 44q58 0 101 25t63.5 62.5t30 70t9.5 59.5v425q0 14 14 14h37
q14 0 14 -14v-425q0 -36 -8.5 -72t-29 -72t-50.5 -63t-77 -44t-104 -17t-103 17t-76 44t-50 63t-28.5 72t-8.5 72v425q0 14 14 14h34q14 0 14 -14v-425q0 -20 5.5 -45.5t20 -56.5t36 -56t59 -42t83.5 -17z" />
    <glyph glyph-name="uring" unicode="&#x16f;" 
d="M186 679q0 37 26 63.5t64 26.5q37 0 63 -26.5t26 -63.5t-26 -63t-63 -26t-63.5 26t-26.5 63zM225 679q0 -20 15.5 -35t35.5 -15t35 15.5t15 34.5q0 20 -15 35.5t-35 15.5t-35.5 -15.5t-15.5 -35.5zM430 131v356q0 14 14 14h34q14 0 14 -14v-472q0 -14 -14 -14h-5
q-13 0 -17 14l-12 59q-76 -81 -177 -81q-53 0 -91.5 15.5t-60 38.5t-34.5 58t-17 66.5t-4 71.5v244q0 14 14 14h35q14 0 14 -14v-243v-30.5t2.5 -34t7.5 -39t16 -34t26.5 -31.5t40 -19.5t56.5 -8.5q49 0 94.5 27t63.5 57z" />
    <glyph glyph-name="Uhungarumlaut" unicode="&#x170;" horiz-adv-x="715" 
d="M356 44q58 0 101 25t63.5 62.5t30 70t9.5 59.5v425q0 14 14 14h37q14 0 14 -14v-425q0 -36 -8.5 -72t-29 -72t-50.5 -63t-77 -44t-104 -17t-103 17t-76 44t-50 63t-28.5 72t-8.5 72v425q0 14 14 14h34q14 0 14 -14v-425q0 -20 5.5 -45.5t20 -56.5t36 -56t59 -42t83.5 -17
zM333 933l-55 -128q-5 -13 -19 -13h-11q-11 0 -11 10l1 1v2l41 128q3 13 18 13h27q9 0 9 -10v-3zM503 933l-55 -128q-5 -13 -19 -13h-11q-11 0 -11 10l1 1v2l41 128q3 13 18 13h27q9 0 9 -10v-3z" />
    <glyph glyph-name="uhungarumlaut" unicode="&#x171;" 
d="M430 131v356q0 14 14 14h34q14 0 14 -14v-472q0 -14 -14 -14h-5q-13 0 -17 14l-12 59q-76 -81 -177 -81q-53 0 -91.5 15.5t-60 38.5t-34.5 58t-17 66.5t-4 71.5v244q0 14 14 14h35q14 0 14 -14v-243v-30.5t2.5 -34t7.5 -39t16 -34t26.5 -31.5t40 -19.5t56.5 -8.5
q49 0 94.5 27t63.5 57zM259 733l-55 -128q-5 -13 -19 -13h-11q-5 0 -8.5 4t-1.5 9l41 128q3 13 18 13h27q5 0 8 -4t1 -9zM429 733l-55 -128q-5 -13 -19 -13h-11q-5 0 -8.5 4t-1.5 9l41 128q3 13 18 13h27q5 0 8 -4t1 -9z" />
    <glyph glyph-name="Uogonek" unicode="&#x172;" horiz-adv-x="715" 
d="M356 44q58 0 101 25t63.5 62.5t30 70t9.5 59.5v425q0 14 14 14h37q14 0 14 -14v-425q0 -46 -13.5 -91t-47.5 -87t-83 -65v-26q0 -13 -17.5 -49t-17.5 -57q0 -67 72 -67q23 0 57 9q4 2 8.5 -1t4.5 -8v-10q0 -14 -13 -19q-34 -11 -65 -11q-49 0 -81 25t-32 75q0 29 26 68
t26 48v11q-44 -13 -93 -13q-57 0 -103 17t-76 44t-50 63t-28.5 72t-8.5 72v425q0 14 14 14h34q14 0 14 -14v-425q0 -20 5.5 -45.5t20 -56.5t36 -56t59 -42t83.5 -17z" />
    <glyph glyph-name="uogonek" unicode="&#x173;" 
d="M430 131v356q0 14 14 14h34q14 0 14 -14v-495q0 -13 -17.5 -49t-17.5 -57q0 -67 72 -67q23 0 57 9q4 2 8.5 -1t4.5 -8v-10q0 -14 -13 -19q-34 -11 -65 -11q-49 0 -81 25t-32 75q0 29 25.5 68t25.5 48v6l-15 73q-76 -81 -177 -81q-53 0 -91.5 15.5t-60 38.5t-34.5 58
t-17 66.5t-4 71.5v244q0 14 14 14h35q14 0 14 -14v-243v-30.5t2.5 -34t7.5 -39t16 -34t26.5 -31.5t40 -19.5t56.5 -8.5q49 0 94.5 27t63.5 57z" />
    <glyph glyph-name="Wcircumflex" unicode="&#x174;" horiz-adv-x="1134" 
d="M106 687l228 -552l222 567q3 8 11 8q9 0 12 -8l221 -567l228 552q5 13 19 13h43q5 0 8 -4t1 -9l-287 -685q-3 -8 -12 -8q-8 0 -11 8l-222 547l-222 -547q-3 -8 -12 -8q-8 0 -13 8l-285 685q-2 5 1 9t8 4h43q14 0 19 -13zM434 824l122 91q11 9 22 0l122 -91q10 -7 3 -20
l-4 -6q-9 -10 -20 -4l-112 68l-112 -68q-13 -7 -20 4l-4 6q-9 12 3 20z" />
    <glyph glyph-name="wcircumflex" unicode="&#x175;" horiz-adv-x="796" 
d="M104 487l145 -360l137 374q3 8 11 8q9 0 12 -8l139 -374l144 360q5 13 19 13h41q5 0 8 -4t1 -9l-202 -488q-3 -8 -12 -8q-8 0 -11 8l-138 355l-138 -355q-3 -8 -12 -8t-12 8l-201 488q-2 5 1 9t8 4h41q14 0 19 -13zM265 624l122 91q11 9 22 0l122 -91q10 -7 3 -20l-4 -6
q-9 -10 -20 -4l-112 68l-112 -68q-13 -7 -20 4l-4 6q-9 12 3 20z" />
    <glyph glyph-name="Ycircumflex" unicode="&#x176;" horiz-adv-x="600" 
d="M332 320v-306q0 -14 -14 -14h-37q-14 0 -14 14v305l-230 370q-2 4 0.5 8t6.5 4h42q14 0 21 -12l193 -311l193 311q7 12 21 12h42q4 0 6.5 -4t0.5 -8zM167 824l122 91q11 9 22 0l122 -91q10 -7 3 -20l-4 -6q-9 -10 -20 -4l-112 68l-112 -68q-13 -7 -20 4l-4 6q-9 12 3 20z
" />
    <glyph glyph-name="ycircumflex" unicode="&#x177;" horiz-adv-x="553" 
d="M103 487l174 -421l170 421q5 13 19 13h43q5 0 7.5 -4t0.5 -9l-291 -684q-5 -13 -19 -13h-37q-5 0 -8 4t-1 9l84 195l-210 489q-2 5 1 9t8 4h40q14 0 19 -13zM143 624l122 91q11 9 22 0l122 -91q10 -7 3 -20l-4 -6q-9 -10 -20 -4l-112 68l-112 -68q-13 -7 -20 4l-4 6
q-9 12 3 20z" />
    <glyph glyph-name="Ydieresis" unicode="&#x178;" horiz-adv-x="600" 
d="M125 833q0 18 11.5 30t29.5 12q17 0 29.5 -12.5t12.5 -29.5t-12.5 -29t-29.5 -12q-18 0 -29.5 12t-11.5 29zM391 833q0 18 11.5 30t29.5 12q17 0 29.5 -12.5t12.5 -29.5t-12.5 -29t-29.5 -12q-18 0 -29.5 12t-11.5 29zM332 320v-306q0 -14 -14 -14h-37q-14 0 -14 14v305
l-230 370q-2 4 0.5 8t6.5 4h42q14 0 21 -12l193 -314l193 314q7 12 21 12h42q4 0 6.5 -4t0.5 -8z" />
    <glyph glyph-name="Zacute" unicode="&#x179;" horiz-adv-x="614" 
d="M153 50h387q14 0 14 -14v-22q0 -14 -14 -14h-458q-14 0 -14 14v1q0 12 7 26l381 610h-368q-14 0 -14 14v21q0 14 14 14h450q11 0 11 -11q0 -10 -6 -19zM231 825l122 91q12 8 19 -4l13 -19q7 -13 -4 -19l-129 -79q-13 -7 -20 4l-4 6q-9 12 3 20z" />
    <glyph glyph-name="zacute" unicode="&#x17a;" horiz-adv-x="461" 
d="M64 460v26q0 14 14 14h326q8 0 8 -8t-4 -13l-268 -425h260q14 0 14 -14v-26q0 -14 -14 -14h-344q-7 0 -7 7q0 9 4 14l264 425h-239q-14 0 -14 14zM155 625l122 91q12 8 19 -4l13 -19q7 -13 -4 -19l-129 -79q-13 -7 -20 4l-4 6q-9 12 3 20z" />
    <glyph glyph-name="Zdotaccent" unicode="&#x17b;" horiz-adv-x="614" 
d="M265 829q0 18 11.5 30t29.5 12q17 0 29.5 -12.5t12.5 -29.5t-12.5 -29t-29.5 -12q-18 0 -29.5 12t-11.5 29zM153 50h387q14 0 14 -14v-22q0 -14 -14 -14h-458q-14 0 -14 14v1q0 12 7 26l381 610h-368q-14 0 -14 14v21q0 14 14 14h450q11 0 11 -11q0 -10 -6 -19z" />
    <glyph glyph-name="zdotaccent" unicode="&#x17c;" horiz-adv-x="461" 
d="M189 629q0 18 11.5 30t29.5 12q17 0 29.5 -12.5t12.5 -29.5t-12.5 -29t-29.5 -12q-18 0 -29.5 12t-11.5 29zM64 460v26q0 14 14 14h326q8 0 8 -8t-4 -13l-268 -425h260q14 0 14 -14v-26q0 -14 -14 -14h-344q-7 0 -7 7q0 9 4 14l264 425h-239q-14 0 -14 14z" />
    <glyph glyph-name="Zcaron" unicode="&#x17d;" horiz-adv-x="614" 
d="M154 50h386q14 0 14 -14v-22q0 -14 -14 -14h-453q-14 0 -14 14v1q0 15 7 26l371 610h-363q-14 0 -14 14v21q0 14 14 14h445q11 0 11 -11q0 -10 -6 -19zM296 793l-122 91q-12 8 -3 19l4 6q7 12 20 5l112 -68l112 68q12 7 20 -5l4 -6q8 -12 -3 -19l-122 -91q-11 -9 -22 0z
" />
    <glyph glyph-name="zcaron" unicode="&#x17e;" horiz-adv-x="461" 
d="M64 460v26q0 14 14 14h325q8 0 8 -8q0 -5 -4 -15l-267 -423h260q14 0 14 -14v-26q0 -14 -14 -14h-333q-5 0 -8.5 4t-3.5 8q0 14 7 24l255 410h-239q-14 0 -14 14zM220 593l-122 91q-12 8 -3 19l4 6q7 12 20 5l112 -68l112 68q12 7 20 -5l4 -6q8 -12 -3 -19l-122 -91
q-11 -9 -22 0z" />
    <glyph glyph-name="longs" unicode="&#x17f;" horiz-adv-x="345" 
d="M350 677l-6 -18q-5 -13 -18 -9q-37 12 -72 12q-50 0 -83 -26t-33 -86v-536q0 -14 -14 -14h-33q-14 0 -14 14v443h-53q-14 0 -14 14v15q0 14 14 14h53v54q0 76 47 116t119 40q50 0 99 -16q14 -4 8 -17z" />
    <glyph glyph-name="florin" unicode="&#x192;" horiz-adv-x="393" 
d="M-85 -187l6 18q5 13 18 9q37 -12 72 -12q49 0 81.5 26t32.5 86v517h-53q-14 0 -14 14v15q0 14 14 14h53v54q0 76 47 116t119 40q50 0 99 -16q14 -4 8 -17l-6 -18q-5 -13 -18 -9q-37 12 -72 12q-49 0 -81.5 -26t-32.5 -86v-50h99q14 0 14 -14v-15q0 -14 -14 -14h-99v-521
q0 -76 -47 -116t-119 -40q-48 0 -99 15q-13 6 -8 18z" />
    <glyph glyph-name="Scommaaccent" unicode="&#x218;" horiz-adv-x="605" 
d="M279 -312q-12 5 -7 17q26 63 30 112q-19 0 -32.5 13.5t-13.5 32.5t14 33t33 14q20 0 34 -13t14 -35q0 -69 -54 -167q-5 -11 -18 -7zM124 544v-1q0 -38 23.5 -66t60.5 -44.5t82 -31t90 -31.5t82 -39.5t60 -62t22 -92.5q-1 -78 -69 -132.5t-173 -54.5q-118 0 -226 50
q-13 5 -7 19l11 24q6 14 19 8q108 -44 195 -44q72 0 126.5 36t57.5 91q0 60 -43 97t-104 56t-122 39t-104 62.5t-44 110.5q-1 84 57.5 128.5t151.5 44.5q105 0 214 -43q13 -6 8 -18l-10 -28q-5 -13 -18 -9q-110 36 -191 36q-62 0 -104.5 -25t-44.5 -80z" />
    <glyph glyph-name="scommaaccent" unicode="&#x219;" horiz-adv-x="472" 
d="M118 380q0 -35 30.5 -57.5t73.5 -35t86 -28.5t73.5 -49.5t30.5 -85.5q0 -59 -50 -97t-126 -38q-49 0 -110 14.5t-61 36.5q0 5 1 7l9 17q3 8 13 8q4 0 6 -1q75 -34 136 -34q49 0 84.5 23.5t35.5 62.5t-30 64t-72 38t-84.5 27t-72.5 44.5t-30 77.5q0 61 43.5 97.5
t109.5 36.5q78 0 153 -31q8 -3 8 -12q0 -4 -1 -6l-7 -16q-5 -9 -14 -9q-4 0 -5 1q-71 25 -114 25q-108 0 -116 -80zM211 -312q-8 3 -8 11q0 4 1 6q26 63 30 112q-19 0 -32.5 13.5t-13.5 32.5t14 33t33 14q20 0 34 -13t14 -35q0 -36 -23 -105.5t-45 -69.5q-3 0 -4 1z" />
    <glyph glyph-name="circumflex" unicode="&#x2c6;" horiz-adv-x="518" 
d="M132 624l122 91q11 9 22 0l122 -91q10 -7 3 -20l-4 -6q-9 -10 -20 -4l-112 68l-112 -68q-13 -7 -20 4l-4 6q-9 12 3 20z" />
    <glyph glyph-name="caron" unicode="&#x2c7;" horiz-adv-x="500" 
d="M254 593l-122 91q-12 8 -3 19l4 6q7 12 20 5l112 -68l112 68q12 7 20 -5l4 -6q8 -12 -3 -19l-122 -91q-11 -9 -22 0z" />
    <glyph glyph-name="breve" unicode="&#x2d8;" horiz-adv-x="508" 
d="M368 710l15 -4q15 -4 9 -17q-37 -96 -128 -96t-128 96q-6 13 8 17l15 4q14 3 19 -9q24 -60 86 -60q63 0 87 60q4 13 17 9z" />
    <glyph glyph-name="dotaccent" unicode="&#x2d9;" horiz-adv-x="579" 
d="M245 629q0 18 11.5 30t29.5 12q17 0 29.5 -12.5t12.5 -29.5t-12.5 -29t-29.5 -12q-18 0 -29.5 12t-11.5 29z" />
    <glyph glyph-name="ring" unicode="&#x2da;" horiz-adv-x="523" 
d="M172 679q0 37 26 63.5t64 26.5q37 0 63 -26.5t26 -63.5t-26 -63t-63 -26t-63.5 26t-26.5 63zM211 679q0 -20 15.5 -35t35.5 -15t35 15.5t15 34.5q0 20 -15 35.5t-35 15.5t-35.5 -15.5t-15.5 -35.5z" />
    <glyph glyph-name="ogonek" unicode="&#x2db;" horiz-adv-x="608" 
d="M318 19h4q14 0 14 -14v-13q0 -13 -17.5 -49t-17.5 -57q0 -67 72 -67q23 0 57 9q4 2 8.5 -1t4.5 -8v-10q0 -14 -13 -19q-34 -11 -65 -11q-49 0 -81 25t-32 75q0 29 26 68t26 48v10q0 14 14 14z" />
    <glyph glyph-name="tilde" unicode="&#x2dc;" horiz-adv-x="518" 
d="M424 422l11 -6q13 -7 5 -19q-36 -56 -93 -54q-27 1 -56 22t-51 21q-33 0 -55 -31q-7 -12 -20 -6l-5 3q-13 5 -7 19q30 62 89 62q25 0 56.5 -21t50.5 -23q31 -4 55 28q9 11 20 5z" />
    <glyph glyph-name="hungarumlaut" unicode="&#x2dd;" horiz-adv-x="530" 
d="M240 733l-55 -128q-5 -13 -19 -13h-11q-5 0 -8.5 4t-1.5 9l41 128q3 13 18 13h27q5 0 8 -4t1 -9zM410 733l-55 -128q-5 -13 -19 -13h-11q-5 0 -8.5 4t-1.5 9l41 128q3 13 18 13h27q5 0 8 -4t1 -9z" />
    <glyph glyph-name="Delta" unicode="&#x394;" horiz-adv-x="712" 
d="M638 0h-564q-5 0 -8 4t-1 9l288 689q2 2 3 2t3 -2l288 -689q2 -5 -1 -9t-8 -4zM356 563l-207 -513h414z" />
    <glyph glyph-name="Delta" unicode="&#x2206;" horiz-adv-x="712" 
d="M638 0h-564q-5 0 -8 4t-1 9l288 689q2 2 3 2t3 -2l288 -689q2 -5 -1 -9t-8 -4zM356 563l-207 -513h414z" />
    <glyph glyph-name="Omega" unicode="&#x3a9;" horiz-adv-x="851" 
d="M645 50h132q14 0 14 -14v-22q0 -14 -14 -14h-206q-14 0 -14 14v28q0 14 12 21q40 27 69 68t42.5 83.5t19.5 75.5t6 59q0 23 -4 50t-14 64t-31 70t-50.5 62t-77 46t-105.5 17q-69 0 -122.5 -25.5t-82.5 -61t-47 -81t-23 -79t-5 -62.5q0 -37 9 -82t42 -106t86 -97
q12 -9 12 -22v-28q0 -14 -14 -14h-205q-14 0 -14 14v22q0 14 14 14h134q-129 137 -129 299q0 47 10 93.5t35 95.5t63 86t99.5 60.5t137.5 23.5q77 0 138.5 -23.5t99 -60.5t63 -86t35.5 -95.5t10 -93.5q0 -162 -125 -299z" />
    <glyph glyph-name="Omega" unicode="&#x2126;" horiz-adv-x="851" 
d="M645 50h132q14 0 14 -14v-22q0 -14 -14 -14h-206q-14 0 -14 14v28q0 14 12 21q40 27 69 68t42.5 83.5t19.5 75.5t6 59q0 23 -4 50t-14 64t-31 70t-50.5 62t-77 46t-105.5 17q-69 0 -122.5 -25.5t-82.5 -61t-47 -81t-23 -79t-5 -62.5q0 -37 9 -82t42 -106t86 -97
q12 -9 12 -22v-28q0 -14 -14 -14h-205q-14 0 -14 14v22q0 14 14 14h134q-129 137 -129 299q0 47 10 93.5t35 95.5t63 86t99.5 60.5t137.5 23.5q77 0 138.5 -23.5t99 -60.5t63 -86t35.5 -95.5t10 -93.5q0 -162 -125 -299z" />
    <glyph glyph-name="pi" unicode="&#x3c0;" horiz-adv-x="630" 
d="M492 -2q-109 0 -113 117v331h-186v-432q0 -14 -14 -14h-34q-14 0 -14 14v432h-67q-14 0 -14 14v26q0 14 14 14h465q14 0 14 -14v-26q0 -14 -14 -14h-87v-316q0 -39 16 -61.5t58 -22.5q19 0 43 6q14 4 16 -11l3 -13q2 -14 -11 -18q-39 -12 -75 -12z" />
    <glyph glyph-name="endash" unicode="&#x2013;" horiz-adv-x="550" 
d="M456 299h-362q-14 0 -14 14v15q0 14 14 14h362q14 0 14 -14v-15q0 -14 -14 -14z" />
    <glyph glyph-name="emdash" unicode="&#x2014;" horiz-adv-x="672" 
d="M539 366h-483q-14 0 -14 14v15q0 14 14 14h483q14 0 14 -14v-15q0 -14 -14 -14z" />
    <glyph glyph-name="quoteleft" unicode="&#x2018;" horiz-adv-x="215" 
d="M141 713q11 -6 6 -16q-33 -79 -38 -132q19 0 32.5 -13.5t13.5 -32.5t-14 -33t-33 -14q-20 0 -34 13t-14 35q0 82 65 188q5 10 16 5z" />
    <glyph glyph-name="quoteright" unicode="&#x2019;" horiz-adv-x="215" 
d="M73 477q-10 6 -5 16q34 79 38 132q-19 0 -32.5 13.5t-13.5 32.5t14 33t33 14q20 0 34 -13t14 -35q0 -79 -65 -188q-5 -11 -17 -5z" />
    <glyph glyph-name="quotesinglbase" unicode="&#x201a;" horiz-adv-x="255" 
d="M93 -156q-10 6 -5 16q34 79 38 132q-19 0 -32.5 13.5t-13.5 32.5t14 33t33 14q20 0 34 -13t14 -35q0 -79 -65 -188q-5 -11 -17 -5z" />
    <glyph glyph-name="quotedblleft" unicode="&#x201c;" horiz-adv-x="365" 
d="M141 713q11 -6 6 -16q-33 -79 -38 -132q19 0 32.5 -13.5t13.5 -32.5t-14 -33t-33 -14q-20 0 -34 13t-14 35q0 82 65 188q5 10 16 5zM291 713q11 -6 6 -16q-33 -79 -38 -132q19 0 32.5 -13.5t13.5 -32.5t-14 -33t-33 -14q-20 0 -34 13t-14 35q0 82 65 188q5 10 16 5z" />
    <glyph glyph-name="quotedblright" unicode="&#x201d;" horiz-adv-x="365" 
d="M223 477q-10 6 -5 16q34 79 38 132q-19 0 -32.5 13.5t-13.5 32.5t14 33t33 14q20 0 34 -13t14 -35q0 -79 -65 -188q-5 -11 -17 -5zM73 477q-10 6 -5 16q34 79 38 132q-19 0 -32.5 13.5t-13.5 32.5t14 33t33 14q20 0 34 -13t14 -35q0 -79 -65 -188q-5 -11 -17 -5z" />
    <glyph glyph-name="quotedblbase" unicode="&#x201e;" horiz-adv-x="363" 
d="M93 -156q-10 6 -5 16q34 79 38 132q-19 0 -32.5 13.5t-13.5 32.5t14 33t33 14q20 0 34 -13t14 -35q0 -79 -65 -188q-5 -11 -17 -5zM241 -156q-10 6 -5 16q34 79 38 132q-19 0 -32.5 13.5t-13.5 32.5t14 33t33 14q20 0 34 -13t14 -35q0 -79 -65 -188q-5 -11 -17 -5z" />
    <glyph glyph-name="dagger" unicode="&#x2020;" horiz-adv-x="550" 
d="M303 450v-596q0 -14 -14 -14h-28q-14 0 -14 14v596h-153q-14 0 -14 14v22q0 14 14 14h153v188q0 14 14 14h28q14 0 14 -14v-188h153q14 0 14 -14v-22q0 -14 -14 -14h-153z" />
    <glyph glyph-name="daggerdbl" unicode="&#x2021;" horiz-adv-x="550" 
d="M303 45v-191q0 -14 -14 -14h-28q-14 0 -14 14v191h-153q-14 0 -14 14v23q0 14 14 14h153v354h-153q-14 0 -14 14v22q0 14 14 14h153v188q0 14 14 14h28q14 0 14 -14v-188h153q14 0 14 -14v-22q0 -14 -14 -14h-153v-354h153q14 0 14 -14v-23q0 -14 -14 -14h-153z" />
    <glyph glyph-name="bullet" unicode="&#x2022;" horiz-adv-x="371" 
d="M184 205q-34 0 -59 25t-25 59q0 35 25 61t59 26q36 0 61.5 -26t25.5 -61q0 -34 -25.5 -59t-61.5 -25z" />
    <glyph glyph-name="ellipsis" unicode="&#x2026;" horiz-adv-x="561" 
d="M80 41q0 19 14 33t33 14t33 -14t14 -33t-14 -33t-33 -14t-33 14t-14 33zM253 41q0 19 13.5 33t33.5 14t33.5 -14t13.5 -33t-13.5 -33t-33.5 -14t-33.5 14t-13.5 33zM427 41q0 19 13.5 33t33.5 14t33.5 -14t13.5 -33t-13.5 -33t-33.5 -14t-33.5 14t-13.5 33z" />
    <glyph glyph-name="perthousand" unicode="&#x2030;" horiz-adv-x="1076" 
d="M542 298q75 0 110 -47t35 -104q0 -58 -35 -104.5t-110 -46.5q-76 0 -110.5 46t-34.5 105q0 35 12 67t46.5 58t86.5 26zM174 706q40 0 69.5 -14.5t45 -38t23 -48.5t7.5 -50q0 -58 -34.5 -104.5t-110.5 -46.5q-75 0 -109.5 46.5t-34.5 104.5q0 25 7.5 50t23 48.5t45 38
t68.5 14.5zM255 0h-21q-11 0 -11 10l1 1v2l220 675q3 13 18 13h19q10 0 10 -10v-3l-218 -675q-3 -13 -18 -13zM542 37q29 0 49.5 12.5t29.5 32t12.5 35t3.5 30.5t-3.5 30.5t-12.5 35t-29.5 31.5t-49.5 12t-50 -12.5t-30.5 -31.5t-13 -35t-3.5 -30t3.5 -30t13 -35.5t30.5 -32
t50 -12.5zM174 445q29 0 50 12.5t30 32t12.5 35t3.5 30.5q0 14 -3.5 30t-12.5 35t-30 31.5t-50 12.5t-50 -12.5t-30 -31.5t-12.5 -35t-3.5 -30q0 -15 3.5 -30.5t12.5 -35t30 -32t50 -12.5zM901 298q75 0 110 -47t35 -104q0 -58 -35 -104.5t-110 -46.5q-76 0 -110.5 46
t-34.5 105q0 35 12 67t46.5 58t86.5 26zM901 37q29 0 49.5 12.5t29.5 32t12.5 35t3.5 30.5t-3.5 30.5t-12.5 35t-29.5 31.5t-49.5 12t-50 -12.5t-30.5 -31.5t-13 -35t-3.5 -30t3.5 -30t13 -35.5t30.5 -32t50 -12.5z" />
    <glyph glyph-name="guilsinglleft" unicode="&#x2039;" horiz-adv-x="258" 
d="M93 251l124 -148q8 -10 -1 -21l-6 -5q-10 -9 -20 1l-158 168q-2 2 -2 5t2 5l158 169q11 10 20 1l8 -7q10 -10 1 -20z" />
    <glyph glyph-name="guilsinglright" unicode="&#x203a;" horiz-adv-x="258" 
d="M41 103l124 148l-126 148q-9 10 1 20l8 7q9 9 20 -1l158 -169q2 -2 2 -5t-2 -5l-158 -168q-10 -10 -20 -1l-6 5q-10 10 -1 21z" />
    <glyph glyph-name="fraction" unicode="&#x2044;" horiz-adv-x="34" 
d="M208 687l-337 -675q-7 -12 -20 -12h-17q-5 0 -7.5 4t-0.5 8l338 675q6 13 20 13h16q5 0 7.5 -4.5t0.5 -8.5z" />
    <glyph glyph-name="zerosuperior" unicode="&#x2070;" horiz-adv-x="315" 
d="M158 803q66 0 96.5 -51.5t30.5 -115.5q0 -40 -10.5 -75.5t-40.5 -63.5t-76 -28t-76 28t-41 63.5t-11 75.5q0 64 31 115.5t97 51.5zM158 503q27 0 46.5 15t27.5 39t11.5 43t3.5 36t-3.5 36.5t-11.5 43t-27.5 39t-46.5 15.5q-28 0 -47 -15.5t-27.5 -39.5t-11.5 -43t-3 -36
t3 -36t11.5 -43t27.5 -39t47 -15z" />
    <glyph glyph-name="foursuperior" unicode="&#x2074;" horiz-adv-x="275" 
d="M209 537v-50q0 -14 -14 -14h-11q-14 0 -14 14v50h-140q-10 0 -10 10t5 18l144 224q9 12 22 12h4q14 0 14 -14v-217h32q14 0 14 -14v-5q0 -14 -14 -14h-32zM170 731l-104 -161h104v161z" />
    <glyph glyph-name="fivesuperior" unicode="&#x2075;" horiz-adv-x="267" 
d="M39 519l3 3q10 10 20 1q29 -23 60 -23q36 0 56 22.5t20 53.5q0 30 -20 51t-56 21h-59q-14 0 -14 14v122q0 14 14 14h133q14 0 14 -14v-3q0 -14 -14 -14h-108v-86h34q62 0 88.5 -33.5t26.5 -74.5q0 -37 -27.5 -72t-87.5 -35q-47 0 -82 33q-10 9 -1 20z" />
    <glyph glyph-name="sixsuperior" unicode="&#x2076;" horiz-adv-x="286" 
d="M174 799l2 -3q7 -12 -4 -20q-65 -44 -91 -103q26 16 61 16q61 0 87.5 -35.5t26.5 -75.5q0 -33 -27 -69.5t-87 -36.5q-59 0 -85.5 38t-26.5 81q0 74 36.5 128t87.5 85q12 7 20 -5zM142 505q36 0 56.5 22t20.5 53q0 32 -20 54t-57 22q-36 0 -55.5 -20.5t-19.5 -52.5
q0 -29 20 -53.5t55 -24.5z" />
    <glyph glyph-name="sevensuperior" unicode="&#x2077;" horiz-adv-x="238" 
d="M20 785v3q0 14 14 14h174q7 0 7 -7t-3 -14l-123 -293q-5 -13 -19 -13h-13q-5 0 -8 4t-1 9l118 283h-132q-14 0 -14 14z" />
    <glyph glyph-name="eightsuperior" unicode="&#x2078;" horiz-adv-x="271" 
d="M30 713q0 33 24 62.5t81 29.5q58 0 82 -29t24 -63q0 -53 -40 -77q40 -26 40 -74q0 -35 -24 -64t-82 -29q-57 0 -81 29t-24 64q0 50 41 75q-41 26 -41 76zM135 652q30 0 50.5 15.5t20.5 45.5t-20.5 46t-50.5 16q-28 0 -48.5 -16t-20.5 -46t20 -45.5t49 -15.5zM135 622
q-29 0 -49 -15t-20 -45t20 -46.5t49 -16.5q30 0 50.5 16t20.5 47q0 30 -20.5 45t-50.5 15z" />
    <glyph glyph-name="ninesuperior" unicode="&#x2079;" horiz-adv-x="286" 
d="M112 480l-2 3q-8 11 4 20q63 43 91 103q-26 -16 -61 -16q-61 0 -87.5 35.5t-26.5 75.5q0 33 27 69.5t87 36.5q59 0 85.5 -38t26.5 -81q0 -74 -36.5 -128t-87.5 -85q-12 -7 -20 5zM144 774q-36 0 -56.5 -22t-20.5 -53q0 -32 20 -54t57 -22q36 0 55.5 20.5t19.5 52.5
q0 29 -20 53.5t-55 24.5z" />
    <glyph glyph-name="zeroinferior" unicode="&#x2080;" horiz-adv-x="315" 
d="M158 167q66 0 96.5 -51.5t30.5 -115.5q0 -40 -10.5 -75.5t-40.5 -63.5t-76 -28t-76 28t-41 63.5t-11 75.5q0 64 31 115.5t97 51.5zM158 -133q27 0 46.5 15t27.5 39t11.5 43t3.5 36t-3.5 36.5t-11.5 43t-27.5 39t-46.5 15.5q-28 0 -47 -15.5t-27.5 -39.5t-11.5 -43t-3 -36
t3 -36t11.5 -43t27.5 -39t47 -15z" />
    <glyph glyph-name="oneinferior" unicode="&#x2081;" horiz-adv-x="188" 
d="M29 78l-1 2q-9 10 3 20l78 63q7 7 18 7t11 -11v-307q0 -14 -14 -14h-10q-14 0 -14 14v257l-51 -34q-12 -9 -20 3z" />
    <glyph glyph-name="twoinferior" unicode="&#x2082;" horiz-adv-x="255" 
d="M34 109l-2 2q-9 11 1 20q45 38 93 38q44 0 71.5 -24.5t27.5 -68.5q0 -49 -66 -121l-73 -83h118q14 0 14 -14v-5q0 -14 -14 -14h-171q-8 0 -8 8q0 7 5 14l126 145q32 38 32 71q0 20 -14 39t-48 19q-36 0 -72 -28q-11 -9 -20 2z" />
    <glyph glyph-name="threeinferior" unicode="&#x2083;" horiz-adv-x="249" 
d="M219 77q0 -49 -42 -76q20 -11 31 -31.5t11 -43.5q0 -36 -24 -65t-81 -29q-42 0 -82 29q-11 8 -3 20l2 3q9 10 20 3q35 -22 63 -22q29 0 49 16t20 45q0 30 -20 45t-49 15h-22q-14 0 -14 14v2q0 14 14 14h22q28 0 48.5 16.5t20.5 44.5q0 30 -19.5 44.5t-49.5 14.5
q-32 0 -64 -21q-12 -8 -19 3l-3 4q-8 12 3 19q38 27 83 28q57 1 81 -28t24 -64z" />
    <glyph glyph-name="fourinferior" unicode="&#x2084;" horiz-adv-x="275" 
d="M209 -99v-50q0 -14 -14 -14h-11q-14 0 -14 14v50h-140q-10 0 -10 10t5 18l144 224q9 12 22 12h4q14 0 14 -14v-217h32q14 0 14 -14v-5q0 -14 -14 -14h-32zM170 95l-104 -161h104v161z" />
    <glyph glyph-name="fiveinferior" unicode="&#x2085;" horiz-adv-x="267" 
d="M39 -117l3 3q10 10 20 1q29 -23 60 -23q36 0 56 22.5t20 53.5q0 30 -20 51t-56 21h-59q-14 0 -14 14v122q0 14 14 14h133q14 0 14 -14v-3q0 -14 -14 -14h-108v-86h34q62 0 88.5 -33.5t26.5 -74.5q0 -37 -27.5 -72t-87.5 -35q-47 0 -82 33q-10 9 -1 20z" />
    <glyph glyph-name="sixinferior" unicode="&#x2086;" horiz-adv-x="286" 
d="M174 163l2 -3q7 -12 -4 -20q-65 -44 -91 -103q26 16 61 16q61 0 87.5 -35.5t26.5 -75.5q0 -33 -27 -69.5t-87 -36.5q-59 0 -85.5 38t-26.5 81q0 74 36.5 128t87.5 85q12 7 20 -5zM142 -131q36 0 56.5 22t20.5 53q0 32 -20 54t-57 22q-36 0 -55.5 -20.5t-19.5 -52.5
q0 -29 20 -53.5t55 -24.5z" />
    <glyph glyph-name="seveninferior" unicode="&#x2087;" horiz-adv-x="234" 
d="M20 149v3q0 14 14 14h171q9 0 9 -9t-3 -16l-122 -289q-5 -13 -19 -13h-13q-5 0 -8 4t-1 9l118 283h-132q-14 0 -14 14z" />
    <glyph glyph-name="eightinferior" unicode="&#x2088;" horiz-adv-x="271" 
d="M30 77q0 33 24 62.5t81 29.5q58 0 82 -29t24 -63q0 -53 -40 -77q40 -26 40 -74q0 -35 -24 -64t-82 -29q-57 0 -81 29t-24 64q0 50 41 75q-41 26 -41 76zM135 16q30 0 50.5 15.5t20.5 45.5t-20.5 46t-50.5 16q-28 0 -48.5 -16t-20.5 -46t20 -45.5t49 -15.5zM135 -14
q-29 0 -49 -15t-20 -45t20 -46.5t49 -16.5q30 0 50.5 16t20.5 47q0 30 -20.5 45t-50.5 15z" />
    <glyph glyph-name="nineinferior" unicode="&#x2089;" horiz-adv-x="286" 
d="M112 -156l-2 3q-8 11 4 20q63 43 91 103q-26 -16 -61 -16q-61 0 -87.5 35.5t-26.5 75.5q0 33 27 69.5t87 36.5q59 0 85.5 -38t26.5 -81q0 -74 -36.5 -128t-87.5 -85q-12 -7 -20 5zM144 138q-36 0 -56.5 -22t-20.5 -53q0 -32 20 -54t57 -22q36 0 55.5 20.5t19.5 52.5
q0 29 -20 53.5t-55 24.5z" />
    <glyph glyph-name="Euro" unicode="&#x20ac;" horiz-adv-x="526" 
d="M39 320h27q-1 13 -1 36q0 21 1 35h-42q-5 0 -8 4.5t-1 8.5l5 17q5 13 19 13h32q8 54 26.5 101.5t48 88t75 64.5t102.5 24q86 0 151 -57q10 -10 0 -19l-12 -13q-10 -10 -21 -1q-51 41 -118 41q-58 0 -100 -36t-61.5 -83.5t-29.5 -109.5h252q5 0 8 -4t1 -9l-6 -17
q-5 -13 -19 -13h-241q-3 -23 -3 -37q0 -21 1 -34h199q5 0 8 -4t1 -9l-6 -16q-5 -13 -19 -13h-178q6 -46 19.5 -85t35.5 -74.5t57.5 -56t80.5 -20.5q71 0 128 41q11 7 20 -3l6 -9q9 -11 -2 -20q-68 -58 -152 -58q-110 0 -173 81.5t-80 203.5h-46q-5 0 -8 4.5t-1 8.5l5 16
q5 13 19 13z" />
    <glyph glyph-name="afii61289" unicode="&#x2113;" horiz-adv-x="427" 
d="M20 328v17q0 14 14 14h49v197q0 48 15 82.5t39.5 51t47.5 23.5t46 7q81 0 123.5 -52t42.5 -124q0 -101 -69 -167.5t-183 -61.5v-132q0 -27 3.5 -48t13.5 -45.5t33 -37t58 -11.5q32 2 76 24q12 5 20 -6l7 -14q7 -13 -5 -20q-44 -27 -96 -30q-46 -3 -80 10.5t-51 34t-27 49
t-12 47t-2 36.5v142h-49q-14 0 -14 14zM145 359l17 1q79 0 132 52.5t48 145.5q-2 53 -35.5 85t-77.5 30q-37 -2 -60.5 -28t-23.5 -81v-205z" />
    <glyph glyph-name="trademark" unicode="&#x2122;" horiz-adv-x="670" 
d="M522 632l-77 -168q-3 -6 -10 -6t-10 6l-76 168l-51 -159q-3 -13 -18 -13h-20q-5 0 -8.5 4t-1.5 9l88 263q2 6 8 6q7 0 10 -6l79 -182l78 182q4 6 10 6q7 0 9 -7l88 -262q2 -4 -1 -8.5t-8 -4.5h-21q-15 0 -18 13zM126 702h-67q-14 0 -14 14v12q0 14 14 14h179q14 0 14 -14
v-12q0 -14 -14 -14h-67v-228q0 -14 -14 -14h-17q-14 0 -14 14v228z" />
    <glyph glyph-name="estimated" unicode="&#x212e;" horiz-adv-x="814" 
d="M649 123l5 -4q10 -10 1 -20q-47 -54 -104.5 -78.5t-143.5 -24.5q-77 0 -138 23.5t-99.5 60t-64 85.5t-35.5 96.5t-10 95.5q0 47 10 94t35.5 95.5t64 85.5t100 60.5t137.5 23.5q75 0 135 -22t98 -57t64 -82t37 -93t13 -93q0 -14 -14 -14h-561v-221q80 -107 228 -107
q131 0 222 96q12 10 20 0zM407 685q-149 0 -228 -106v-193h453v196q-75 103 -225 103z" />
    <glyph glyph-name="onethird" unicode="&#x2153;" horiz-adv-x="537" 
d="M29 616l-1 2q-8 11 3 20l81 64q6 6 16 6t10 -10v-308q0 -14 -14 -14h-10q-14 0 -14 14v255l-51 -33q-13 -7 -20 4zM420 687l-337 -675q-7 -12 -20 -12h-17q-5 0 -7.5 4t-0.5 8l338 675q6 13 20 13h16q5 0 7.5 -4.5t0.5 -8.5zM488 243q0 -49 -42 -76q20 -11 31 -31.5
t11 -43.5q0 -36 -24 -65t-81 -29q-42 0 -82 29q-11 8 -3 20l2 3q9 11 20 3q35 -22 63 -22q29 0 49 16t20 45q0 30 -20 45t-49 15h-22q-14 0 -14 14v2q0 14 14 14h22q28 0 48.5 16.5t20.5 44.5q0 30 -19.5 44.5t-49.5 14.5q-32 0 -64 -21q-12 -8 -19 3l-3 4q-8 12 3 19
q38 27 83 28q57 1 81 -28t24 -64z" />
    <glyph glyph-name="twothirds" unicode="&#x2154;" horiz-adv-x="585" 
d="M475 687l-337 -675q-7 -12 -20 -12h-17q-5 0 -7.5 4t-0.5 8l338 675q7 13 20 13h16q5 0 7.5 -4.5t0.5 -8.5zM538 243q0 -49 -42 -76q20 -11 31 -31.5t11 -43.5q0 -36 -24 -65t-81 -29q-42 0 -82 29q-11 8 -3 20l2 3q9 11 20 3q35 -22 63 -22q29 0 49 16t20 45
q0 30 -20 45t-49 15h-22q-14 0 -14 14v2q0 14 14 14h22q28 0 48.5 16.5t20.5 44.5q0 30 -19.5 44.5t-49.5 14.5q-32 0 -64 -21q-12 -8 -19 3l-3 4q-8 12 3 19q38 27 83 28q57 1 81 -28t24 -64zM41 646l-2 2q-9 11 1 20q45 38 93 38q44 0 71.5 -24.5t27.5 -68.5
q0 -49 -66 -121l-73 -83h118q14 0 14 -14v-5q0 -14 -14 -14h-171q-8 0 -8 8q0 7 5 14l126 145q32 38 32 71q0 20 -14 39t-48 19q-36 0 -72 -28q-11 -9 -20 2z" />
    <glyph glyph-name="oneeighth" unicode="&#x215b;" horiz-adv-x="523" 
d="M29 616l-1 2q-8 11 3 20l81 64q6 6 16 6t10 -10v-308q0 -14 -14 -14h-10q-14 0 -14 14v255l-51 -33q-13 -7 -20 4zM420 687l-337 -675q-7 -12 -20 -12h-17q-5 0 -7.5 4t-0.5 8l338 675q6 13 20 13h16q5 0 7.5 -4.5t0.5 -8.5zM269 245q0 33 24 62.5t81 29.5q58 0 82 -29
t24 -63q0 -53 -40 -77q40 -26 40 -74q0 -35 -24 -64t-82 -29q-57 0 -81 29t-24 64q0 50 41 75q-41 26 -41 76zM374 184q30 0 50.5 15.5t20.5 45.5t-20.5 46t-50.5 16q-28 0 -48.5 -16t-20.5 -46t20 -45.5t49 -15.5zM374 154q-29 0 -49 -15t-20 -45t20 -46.5t49 -16.5
q30 0 50.5 16t20.5 47q0 30 -20.5 45t-50.5 15z" />
    <glyph glyph-name="threeeighths" unicode="&#x215c;" horiz-adv-x="555" 
d="M441 687l-337 -675q-7 -12 -20 -12h-17q-5 0 -7.5 4t-0.5 8l338 675q7 13 20 13h16q5 0 7.5 -4.5t0.5 -8.5zM291 245q0 33 24 62.5t81 29.5q58 0 82 -29t24 -63q0 -53 -40 -77q40 -26 40 -74q0 -35 -24 -64t-82 -29q-57 0 -81 29t-24 64q0 50 41 75q-41 26 -41 76z
M396 184q30 0 50.5 15.5t20.5 45.5t-20.5 46t-50.5 16q-28 0 -48.5 -16t-20.5 -46t20 -45.5t49 -15.5zM396 154q-29 0 -49 -15t-20 -45t20 -46.5t49 -16.5q30 0 50.5 16t20.5 47q0 30 -20.5 45t-50.5 15zM214 617q0 -49 -42 -76q20 -11 31 -31.5t11 -43.5q0 -36 -24 -65
t-81 -29q-42 0 -82 29q-11 8 -3 20l2 3q9 10 20 3q35 -22 63 -22q29 0 49 16t20 45q0 30 -20 45t-49 15h-22q-14 0 -14 14v2q0 14 14 14h22q28 0 48.5 16.5t20.5 44.5q0 30 -19.5 44.5t-49.5 14.5q-32 0 -64 -21q-12 -8 -19 3l-3 4q-8 12 3 19q38 27 83 28q57 1 81 -28
t24 -64z" />
    <glyph glyph-name="fiveeighths" unicode="&#x215d;" horiz-adv-x="550" 
d="M455 687l-337 -675q-7 -12 -20 -12h-17q-5 0 -7.5 4t-0.5 8l338 675q7 13 20 13h16q5 0 7.5 -4.5t0.5 -8.5zM305 245q0 33 24 62.5t81 29.5q58 0 82 -29t24 -63q0 -53 -40 -77q40 -26 40 -74q0 -35 -24 -64t-82 -29q-57 0 -81 29t-24 64q0 50 41 75q-41 26 -41 76z
M410 184q30 0 50.5 15.5t20.5 45.5t-20.5 46t-50.5 16q-28 0 -48.5 -16t-20.5 -46t20 -45.5t49 -15.5zM410 154q-29 0 -49 -15t-20 -45t20 -46.5t49 -16.5q30 0 50.5 16t20.5 47q0 30 -20.5 45t-50.5 15zM30 422l3 3q10 10 20 1q29 -23 60 -23q36 0 56 22.5t20 53.5
q0 30 -20 51t-56 21h-59q-14 0 -14 14v122q0 14 14 14h133q14 0 14 -14v-3q0 -14 -14 -14h-108v-86h34q62 0 88.5 -33.5t26.5 -74.5q0 -37 -27.5 -72t-87.5 -35q-47 0 -82 33q-10 9 -1 20z" />
    <glyph glyph-name="seveneighths" unicode="&#x215e;" horiz-adv-x="514" 
d="M413 687l-337 -675q-7 -12 -20 -12h-17q-5 0 -7.5 4t-0.5 8l338 675q7 13 20 13h16q5 0 7.5 -4.5t0.5 -8.5zM262 245q0 33 24 62.5t81 29.5q58 0 82 -29t24 -63q0 -53 -40 -77q40 -26 40 -74q0 -35 -24 -64t-82 -29q-57 0 -81 29t-24 64q0 50 41 75q-41 26 -41 76z
M367 184q30 0 50.5 15.5t20.5 45.5t-20.5 46t-50.5 16q-28 0 -48.5 -16t-20.5 -46t20 -45.5t49 -15.5zM367 154q-29 0 -49 -15t-20 -45t20 -46.5t49 -16.5q30 0 50.5 16t20.5 47q0 30 -20.5 45t-50.5 15zM40 683v3q0 14 14 14h174q7 0 7 -7t-3 -14l-123 -293q-5 -13 -19 -13
h-13q-5 0 -8 4t-1 9l118 283h-132q-14 0 -14 14z" />
    <glyph glyph-name="arrowleft" unicode="&#x2190;" horiz-adv-x="605" 
d="M531 241h-365l175 -192q10 -8 0 -20l-14 -12q-10 -10 -20 0l-245 245q-2 2 -2 5t2 5l245 246q10 10 20 0l14 -13q10 -12 0 -20l-174 -190h364q14 0 14 -14v-26q0 -14 -14 -14z" />
    <glyph glyph-name="arrowup" unicode="&#x2191;" horiz-adv-x="591" 
d="M324 405v-365q0 -14 -14 -14h-26q-14 0 -14 14v364l-190 -175q-10 -9 -20 1l-13 14q-11 9 0 20l246 245q2 2 5 2t5 -2l245 -245q11 -11 0 -20l-12 -14q-10 -10 -20 -1z" />
    <glyph glyph-name="arrowright" unicode="&#x2192;" horiz-adv-x="605" 
d="M434 242h-365q-14 0 -14 14v26q0 14 14 14h364l-175 190q-10 10 1 20l14 13q9 11 20 0l245 -246q2 -2 2 -5t-2 -5l-245 -245q-11 -11 -20 0l-14 12q-11 10 -1 20z" />
    <glyph glyph-name="arrowdown" unicode="&#x2193;" horiz-adv-x="591" 
d="M324 497v-365l192 175q8 10 20 0l12 -14q10 -10 0 -20l-245 -245q-2 -2 -5 -2t-5 2l-246 245q-10 10 0 20l13 14q12 10 20 0l190 -174v364q0 14 14 14h26q14 0 14 -14z" />
    <glyph glyph-name="partialdiff" unicode="&#x2202;" horiz-adv-x="583" 
d="M227 676l10 15q8 12 20 5q47 -27 90.5 -68t83.5 -97.5t64 -133t24 -159.5q0 -38 -11 -77t-35.5 -78.5t-71.5 -64t-111 -24.5q-53 0 -95 17t-66.5 42t-40.5 56t-22 56t-6 46q0 33 10.5 68t34 72.5t71.5 61t114 23.5q95 0 155 -58q-66 180 -214 278q-12 9 -4 20zM290 43
q79 0 125.5 55.5t46.5 121.5q0 73 -45.5 119.5t-126.5 46.5q-82 0 -127 -50.5t-45 -120.5t45.5 -121t126.5 -51z" />
    <glyph glyph-name="product" unicode="&#x220f;" horiz-adv-x="616" 
d="M130 14v635h-71q-14 0 -14 14v23q0 14 14 14h498q14 0 14 -14v-23q0 -14 -14 -14h-72v-635q0 -14 -14 -14h-37q-14 0 -14 14v635h-225v-635q0 -14 -14 -14h-37q-14 0 -14 14z" />
    <glyph glyph-name="summation" unicode="&#x2211;" horiz-adv-x="477" 
d="M318 338l-191 -291h306q14 0 14 -14v-19q0 -14 -14 -14h-380q-12 0 -12 12t7 22l207 316l-207 315q-7 8 -7 22q0 5 3.5 9t8.5 4h380q14 0 14 -14v-19q0 -14 -14 -14h-306l191 -291q9 -12 0 -24z" />
    <glyph glyph-name="minus" unicode="&#x2212;" horiz-adv-x="557" 
d="M89 410h386q14 0 14 -14v-20q0 -14 -14 -14h-386q-14 0 -14 14v20q0 14 14 14z" />
    <glyph glyph-name="radical" unicode="&#x221a;" horiz-adv-x="654" 
d="M249 127l237 560q5 13 19 13h105q14 0 14 -14v-12q0 -14 -14 -14h-73l-284 -660q-2 -4 -7 -4q-4 0 -6 4l-205 487q-2 5 1 9t8 4h40q14 0 19 -13z" />
    <glyph glyph-name="infinity" unicode="&#x221e;" horiz-adv-x="672" 
d="M208 165q-63 0 -95.5 40.5t-32.5 96.5q0 55 32.5 96t95.5 41q39 0 75 -24.5t53 -69.5q52 94 128 94q64 0 96 -41t32 -98q0 -54 -32 -94.5t-96 -40.5q-41 0 -70 22t-58 68q-28 -48 -56.5 -69t-71.5 -21zM453 206q41 0 67 28t26 66q0 40 -25.5 66t-67.5 26q-32 0 -59 -25
t-43 -67q37 -94 102 -94zM219 205q34 0 61 28t39 69q-32 94 -100 94q-41 0 -67 -26t-26 -68q0 -45 25.5 -71t67.5 -26z" />
    <glyph glyph-name="integral" unicode="&#x222b;" horiz-adv-x="446" 
d="M449 679l-8 -16q-7 -12 -20 -6q-43 17 -76 17q-106 0 -106 -138v-555q0 -156 -113 -184q-23 -6 -49 -6q-57 0 -105 28q-13 5 -5 19l8 16q6 11 20 6q40 -16 75 -16q106 0 106 137v555q0 149 103 182q27 9 59 9q58 0 106 -29q12 -7 5 -19z" />
    <glyph glyph-name="approxequal" unicode="&#x2248;" horiz-adv-x="556" 
d="M101 354l-10 8q-12 8 -3 19q51 65 117 65q27 0 74.5 -29t76.5 -29q38 0 78 43q11 9 21 2l10 -8q12 -8 3 -20q-48 -66 -113 -66q-32 0 -80.5 29.5t-73.5 29.5q-36 0 -79 -42q-10 -10 -21 -2zM99 136l-7 6q-12 10 -3 20q50 65 116 65q29 0 76 -29t75 -29q36 0 79 44
q10 10 20 1l10 -7q11 -9 3 -21q-49 -66 -113 -66q-33 0 -81.5 29.5t-72.5 29.5q-35 0 -81 -42q-10 -10 -21 -1z" />
    <glyph glyph-name="notequal" unicode="&#x2260;" horiz-adv-x="502" 
d="M408 124h-188l-36 -111q-3 -13 -18 -13h-18q-5 0 -8.5 4t-1.5 9l36 111h-80q-14 0 -14 14v18q0 14 14 14h95l56 173h-151q-14 0 -14 14v18q0 14 14 14h166l32 98q3 13 18 13h18q5 0 8.5 -4t1.5 -9l-32 -98h102q14 0 14 -14v-18q0 -14 -14 -14h-117l-56 -173h173
q14 0 14 -14v-18q0 -14 -14 -14z" />
    <glyph glyph-name="lessequal" unicode="&#x2264;" horiz-adv-x="416" 
d="M367 490l-258 -155l258 -158q12 -7 5 -19l-7 -12q-7 -12 -19 -5l-306 174q-10 7 -10 17q0 11 10 18l305 175q12 7 19 -5l7 -11q8 -12 -4 -19zM44 50h328q14 0 14 -14v-22q0 -14 -14 -14h-328q-14 0 -14 14v22q0 14 14 14z" />
    <glyph glyph-name="greaterequal" unicode="&#x2265;" horiz-adv-x="416" 
d="M49 490q-12 7 -4 19l7 11q7 12 19 5l305 -175q10 -7 10 -18q0 -10 -10 -17l-306 -174q-12 -7 -19 5l-7 12q-7 12 5 19l258 158zM372 50q14 0 14 -14v-22q0 -14 -14 -14h-328q-14 0 -14 14v22q0 14 14 14h328z" />
    <glyph glyph-name="lozenge" unicode="&#x25ca;" horiz-adv-x="644" 
d="M68 363l246 342q8 10 16 0l246 -342q9 -11 0 -22l-246 -340q-8 -10 -16 0l-246 340q-9 11 0 22zM322 620l-188 -268l188 -267l187 267z" />
    <glyph glyph-name="CR" horiz-adv-x="250" 
 />
    <glyph glyph-name="zero.oldstyle" horiz-adv-x="569" 
d="M284 506q62 0 108 -25.5t70 -66.5t35.5 -84t11.5 -86q0 -42 -10 -81.5t-33.5 -79.5t-70 -64.5t-111.5 -24.5q-64 0 -110.5 25.5t-70 66.5t-33.5 81.5t-10 82.5q0 32 5.5 64t21.5 67.5t40 62.5t64.5 44.5t92.5 17.5zM284 41q44 0 76 17.5t48 41t25 55t11 51t2 38.5t-2 39
t-11 53.5t-25 58.5t-48.5 44t-75.5 19q-37 0 -66 -12t-45.5 -33.5t-27.5 -43t-15 -48t-5.5 -41.5t-1.5 -30q0 -19 1.5 -38t10.5 -52.5t24.5 -57.5t48 -42.5t76.5 -18.5z" />
    <glyph glyph-name="one.oldstyle" horiz-adv-x="437" 
d="M66 44h125v361l-128 -73q-13 -7 -20 4l-5 7q-8 12 3 21l174 136q11 8 24 8q14 0 14 -14v-450h110q14 0 14 -14v-16q0 -14 -14 -14h-297q-14 0 -14 14v16q0 14 14 14z" />
    <glyph glyph-name="two.oldstyle" horiz-adv-x="402" 
d="M342 375q0 -68 -63 -143l-155 -190h193q14 0 14 -14v-14q0 -14 -14 -14h-260q-11 0 -11 11t7 21l188 232q48 55 48 106q0 36 -22 65t-72 29q-52 0 -115 -49q-11 -7 -20 2l-10 11q-9 11 2 20q69 59 143 59q65 0 106 -34t41 -98z" />
    <glyph glyph-name="three.oldstyle" horiz-adv-x="455" 
d="M395 339q0 -35 -20.5 -77t-62.5 -69q42 -23 62.5 -66.5t20.5 -79.5q0 -26 -9 -53t-28.5 -54.5t-59.5 -45t-94 -17.5q-81 0 -153 55q-11 9 -3 20l10 13q7 11 19 3q64 -47 127 -47q56 0 95.5 33t39.5 93t-39.5 92.5t-95.5 32.5h-47q-14 0 -14 14v14q0 14 14 14h47
q56 0 95.5 33t39.5 92q0 60 -39.5 93t-95.5 33t-127 -46q-11 -7 -20 3l-8 11q-9 11 2 20q69 53 153 53q54 0 94 -17t60 -44t28.5 -53.5t8.5 -52.5z" />
    <glyph glyph-name="four.oldstyle" horiz-adv-x="507" 
d="M373 20v-124q0 -14 -14 -14h-34q-14 0 -14 14v124h-267q-14 0 -14 14v2q0 13 8 26l279 426q7 12 22 12h20q14 0 14 -14v-421h90q14 0 14 -14v-17q0 -14 -14 -14h-90zM311 384l-214 -319h214v319z" />
    <glyph glyph-name="five.oldstyle" horiz-adv-x="491" 
d="M70 -39l13 12q10 10 20 0q58 -50 120 -50q70 0 111.5 45.5t41.5 105.5q0 65 -43 104.5t-117 39.5h-108q-14 0 -14 14v254q0 14 14 14h277q14 0 14 -14v-19q0 -14 -14 -14h-232v-187h69q49 0 86.5 -12t60 -31.5t37 -46t20 -53t5.5 -55.5q0 -27 -10 -56.5t-31.5 -61.5
t-65 -52.5t-102.5 -20.5q-86 0 -152 64q-11 9 0 20z" />
    <glyph glyph-name="six.oldstyle" horiz-adv-x="533" 
d="M325 616l10 -14q7 -11 -4 -19q-79 -51 -126.5 -110t-75.5 -145q57 60 137 60q60 0 103 -20t64.5 -53t30.5 -64.5t9 -63.5q0 -20 -5 -43t-20 -50t-37 -48.5t-59.5 -36t-85.5 -14.5q-47 0 -84 14t-58.5 35.5t-36.5 48.5t-20 50t-6 44q-5 150 64.5 257.5t179.5 175.5
q13 7 20 -4zM266 43q71 0 109.5 44.5t38.5 105.5t-38 104t-110 43q-69 0 -108 -43t-39 -104t39 -105.5t108 -44.5z" />
    <glyph glyph-name="seven.oldstyle" horiz-adv-x="410" 
d="M305 454h-261q-14 0 -14 14v18q0 14 14 14h320q12 0 12 -12q0 -11 -5 -23l-241 -572q-5 -13 -19 -13h-30q-5 0 -8 4t-1 9z" />
    <glyph glyph-name="eight.oldstyle" horiz-adv-x="519" 
d="M255 -6q-52 0 -92 17t-61.5 44t-31.5 56t-9 57q2 42 27.5 82.5t70.5 61.5q-46 20 -69 64t-23 79q0 26 9 52.5t29 54t60.5 44.5t95.5 17q44 0 79 -12t55.5 -29.5t33.5 -41t18 -44.5t5 -41q0 -38 -22 -77.5t-68 -65.5q45 -21 71 -60.5t26 -83.5q0 -29 -10 -57t-32 -55.5
t-64 -44.5t-98 -17zM262 290q-40 -1 -70 -13.5t-46 -32t-23.5 -39t-7.5 -37.5q0 -64 41 -99t99 -35q62 0 107 34t45 100q0 47 -35 84.5t-110 37.5zM398 455q0 60 -41 93.5t-98 33.5q-56 0 -97 -33.5t-41 -93.5q0 -19 6.5 -38.5t21 -39t44 -32.5t69.5 -15q39 2 68 16.5
t42.5 35t19.5 39t6 34.5z" />
    <glyph glyph-name="nine.oldstyle" horiz-adv-x="533" 
d="M208 -115l-10 14q-8 11 4 18q78 50 125.5 110t76.5 146q-57 -60 -137 -60q-60 0 -103 20t-64.5 53t-30.5 64.5t-9 63.5q0 20 5 43t20 50t37 48.5t59.5 36t85.5 14.5q47 0 84 -14t58.5 -35.5t36.5 -48.5t20 -50t6 -44q5 -150 -64.5 -257.5t-179.5 -175.5q-13 -7 -20 4z
M267 458q-71 0 -109.5 -44.5t-38.5 -105.5t38 -104t110 -43q69 0 108 43t39 104t-39 105.5t-108 44.5z" />
    <glyph glyph-name="Euro.oldstyle" horiz-adv-x="535" 
d="M344 280h-169q-1 -8 -1 -24q0 -11 2 -33h122q5 0 8 -4t1 -9l-2 -4q-5 -13 -19 -13h-107q12 -66 49.5 -108.5t106.5 -42.5q50 0 95 22q12 7 19 -5l10 -15q7 -13 -5 -20q-48 -30 -119 -30q-95 0 -151.5 56t-70.5 143h-39q-5 0 -8 4t-1 9l2 4q5 13 19 13h24v27q0 20 1 30
h-37q-5 0 -8 4t-1 9l2 4q5 13 19 13h28q16 85 74 140.5t147 55.5q70 0 128 -35q12 -7 4 -19l-11 -18q-8 -11 -20 -4q-43 26 -101 26q-129 0 -155 -146h176q5 0 8 -4t1 -9l-2 -4q-5 -13 -19 -13z" />
    <glyph glyph-name="florin.oldstyle" horiz-adv-x="423" 
d="M-75 -43l6 18q5 13 18 9q37 -12 72 -12q49 0 81.5 26t32.5 86v150h-53q-14 0 -14 14v15q0 14 14 14h53v72q0 76 47 116t119 40q50 0 99 -16q14 -4 8 -17l-6 -18q-5 -13 -18 -9q-38 12 -72 12q-49 0 -81.5 -26t-32.5 -86v-68h99q14 0 14 -14v-15q0 -14 -14 -14h-99v-154
q0 -76 -47 -116t-119 -40q-48 0 -99 15q-13 6 -8 18z" />
    <glyph glyph-name="sterling.oldstyle" horiz-adv-x="586" 
d="M65 6l-9 8q-12 10 -3 20q34 44 71 58v133h-49q-14 0 -14 14v14q0 14 14 14h49v84q0 76 46.5 115.5t118.5 39.5q52 0 99 -16q14 -4 8 -17l-7 -19q-5 -12 -19 -9q-43 12 -77 12q-46 0 -75.5 -23.5t-31.5 -76.5v-90h165q14 0 14 -14v-14q0 -14 -14 -14h-165v-115
q55 -3 108 -35.5t88 -32.5q53 0 101 52q10 10 20 1l12 -9q11 -9 3 -21q-57 -79 -137 -79q-40 0 -99.5 35t-92.5 35q-55 0 -103 -49q-11 -9 -21 -1z" />
    <glyph glyph-name="yen.oldstyle" horiz-adv-x="570" 
d="M442 76h-125v-62q0 -14 -14 -14h-37q-14 0 -14 14v62h-124q-14 0 -14 14v18q0 14 14 14h124v83h-124q-14 0 -14 14v18q0 14 14 14h123l-183 238q-2 3 0 7t6 4h53q14 0 22 -11l136 -183l136 183q8 11 22 11h53q4 0 6 -4t-1 -7l-184 -238h125q14 0 14 -14v-18
q0 -14 -14 -14h-125v-83h125q14 0 14 -14v-18q0 -14 -14 -14z" />
    <glyph glyph-name="percent.oldstyle" horiz-adv-x="765" 
d="M590 298q75 0 110 -47t35 -104q0 -58 -35 -104.5t-110 -46.5q-76 0 -110.5 46t-34.5 105q0 35 12 67t46.5 58t86.5 26zM174 561q40 0 69.5 -14.5t45 -38t23 -48.5t7.5 -50q0 -58 -34.5 -104.5t-110.5 -46.5q-75 0 -109.5 46.5t-34.5 104.5q0 25 7.5 50t23 48.5t45 38
t68.5 14.5zM590 37q29 0 49.5 12.5t29.5 32t12.5 35t3.5 30.5t-3.5 30.5t-12.5 35t-29.5 31.5t-49.5 12t-50 -12.5t-30.5 -31.5t-13 -35t-3.5 -30t3.5 -30t13 -35.5t30.5 -32t50 -12.5zM174 300q29 0 50 12.5t30 32t12.5 35t3.5 30.5q0 14 -3.5 30t-12.5 35t-30 31.5
t-50 12.5t-50 -12.5t-30 -31.5t-12.5 -35t-3.5 -30q0 -15 3.5 -30.5t12.5 -35t30 -32t50 -12.5zM303 0h-21q-11 0 -11 10l1 1v2l174 534q3 13 18 13h20q10 0 10 -10v-3l-173 -534q-3 -13 -18 -13z" />
    <glyph glyph-name="commaaccent" horiz-adv-x="276" 
d="M115 -312q-12 5 -7 17q26 63 30 112q-19 0 -32.5 13.5t-13.5 32.5t14 33t33 14q20 0 34 -13t14 -35q0 -69 -54 -167q-5 -11 -18 -7z" />
    <glyph glyph-name="a.alt" horiz-adv-x="609" 
d="M289 -8q-62 3 -108.5 28.5t-71.5 64.5t-37 80.5t-12 83.5q0 34 7.5 68t25.5 68.5t45 61t69.5 43t95.5 16.5q110 0 178 -77l11 57q4 14 17 14h6q14 0 14 -14v-472q0 -14 -14 -14h-6q-13 0 -17 14l-11 56q-31 -35 -69.5 -53.5t-63 -21.5t-59.5 -3zM309 451q-57 0 -97 -23
t-57.5 -58.5t-24.5 -64.5t-7 -56t7 -56t24.5 -64.5t57.5 -58.5t97 -23q50 0 93 23.5t65 53.5v250q-22 30 -65 53.5t-93 23.5z" />
    <glyph glyph-name="aogonek.alt" horiz-adv-x="606" 
d="M289 -8q-62 3 -108.5 28.5t-71.5 64.5t-37 80.5t-12 83.5q0 34 7.5 68t25.5 68.5t45 61t69.5 43t95.5 16.5q110 0 178 -77l11 57q4 14 17 14h6q14 0 14 -14v-493q0 -13 -17.5 -49t-17.5 -57q0 -67 72 -67q23 0 57 9q4 2 8.5 -1t4.5 -8v-10q0 -14 -13 -19q-34 -11 -65 -11
q-49 0 -81 25t-32 75q0 29 25 68t25 48v4l-14 70q-65 -74 -164 -78h-28zM309 451q-57 0 -97 -23t-57.5 -58.5t-24.5 -64.5t-7 -56t7 -56t24.5 -64.5t57.5 -58.5t97 -23q50 0 93 23.5t65 53.5v250q-22 30 -65 53.5t-93 23.5z" />
    <glyph glyph-name="amacron.alt" horiz-adv-x="612" 
d="M289 -8q-62 3 -108.5 28.5t-71.5 64.5t-37 80.5t-12 83.5q0 34 7.5 68t25.5 68.5t45 61t69.5 43t95.5 16.5q110 0 178 -77l11 57q4 14 17 14h6q14 0 14 -14v-472q0 -14 -14 -14h-6q-13 0 -17 14l-11 56q-31 -35 -69.5 -53.5t-63 -21.5t-59.5 -3zM295 451
q-43 -3 -75.5 -20t-50 -39.5t-29 -51.5t-14.5 -50.5t-3 -40.5q0 -27 7 -56t24.5 -64.5t57.5 -58.5t97 -23q50 0 93 23.5t65 53.5v250q-24 34 -69 55.5t-103 21.5zM185 638h273q14 0 14 -14v-18q0 -14 -14 -14h-273q-14 0 -14 14v18q0 14 14 14z" />
    <glyph glyph-name="adieresis.alt" horiz-adv-x="612" 
d="M148 647q9 28 39 28q17 0 29.5 -12.5t12.5 -29.5t-12.5 -29t-29.5 -12q-18 0 -29.5 11.5t-11.5 29.5q0 9 2 14zM412 633q0 18 11.5 30t29.5 12q17 0 29.5 -12.5t12.5 -29.5t-12.5 -29t-29.5 -12q-18 0 -29.5 12t-11.5 29zM289 -8q-62 3 -108.5 28.5t-71.5 64.5t-37 80.5
t-12 83.5q0 34 7.5 68t25.5 68.5t45 61t69.5 43t95.5 16.5q110 0 178 -77l11 57q4 14 17 14h6q14 0 14 -14v-472q0 -14 -14 -14h-6q-13 0 -17 14l-11 56q-31 -35 -69.5 -53.5t-63 -21.5t-59.5 -3zM295 451q-43 -3 -75.5 -20t-50 -39.5t-29 -51.5t-14.5 -50.5t-3 -40.5
q0 -27 7 -56t24.5 -64.5t57.5 -58.5t97 -23q50 0 93 23.5t65 53.5v250q-24 34 -69 55.5t-103 21.5z" />
    <glyph glyph-name="aring.alt" horiz-adv-x="612" 
d="M213 679q0 37 26.5 63.5t63.5 26.5t63 -26.5t26 -63.5t-26 -63t-63 -26t-63.5 26t-26.5 63zM252 679q0 -20 15.5 -35t35.5 -15q19 0 34.5 15.5t15.5 34.5q0 20 -15 35.5t-35 15.5t-35.5 -15.5t-15.5 -35.5zM289 -8q-62 3 -108.5 28.5t-71.5 64.5t-37 80.5t-12 83.5
q0 34 7.5 68t25.5 68.5t45 61t69.5 43t95.5 16.5q110 0 178 -77l11 57q4 14 17 14h6q14 0 14 -14v-472q0 -14 -14 -14h-6q-13 0 -17 14l-11 56q-31 -35 -69.5 -53.5t-63 -21.5t-59.5 -3zM295 451q-43 -3 -75.5 -20t-50 -39.5t-29 -51.5t-14.5 -50.5t-3 -40.5q0 -27 7 -56
t24.5 -64.5t57.5 -58.5t97 -23q50 0 93 23.5t65 53.5v250q-24 34 -69 55.5t-103 21.5z" />
    <glyph glyph-name="agrave.alt" horiz-adv-x="612" 
d="M289 -8q-62 3 -108.5 28.5t-71.5 64.5t-37 80.5t-12 83.5q0 34 7.5 68t25.5 68.5t45 61t69.5 43t95.5 16.5q110 0 178 -77l11 57q4 14 17 14h6q14 0 14 -14v-472q0 -14 -14 -14h-6q-13 0 -17 14l-11 56q-31 -35 -69.5 -53.5t-63 -21.5t-59.5 -3zM295 451
q-43 -3 -75.5 -20t-50 -39.5t-29 -51.5t-14.5 -50.5t-3 -40.5q0 -27 7 -56t24.5 -64.5t57.5 -58.5t97 -23q50 0 93 23.5t65 53.5v250q-24 34 -69 55.5t-103 21.5zM219 716l122 -91q5 -5 5 -11q0 -3 -2 -9l-4 -6q-4 -6 -12 -6q-6 0 -8 2l-129 79q-6 3 -6 11q0 5 2 8l13 19
q3 6 11 6q4 0 8 -2z" />
    <glyph glyph-name="acircumflex.alt" horiz-adv-x="612" 
d="M289 -8q-62 3 -108.5 28.5t-71.5 64.5t-37 80.5t-12 83.5q0 34 7.5 68t25.5 68.5t45 61t69.5 43t95.5 16.5q110 0 178 -77l11 57q4 14 17 14h6q14 0 14 -14v-472q0 -14 -14 -14h-6q-13 0 -17 14l-11 56q-31 -35 -69.5 -53.5t-63 -21.5t-59.5 -3zM295 451
q-43 -3 -75.5 -20t-50 -39.5t-29 -51.5t-14.5 -50.5t-3 -40.5q0 -27 7 -56t24.5 -64.5t57.5 -58.5t97 -23q50 0 93 23.5t65 53.5v250q-24 34 -69 55.5t-103 21.5zM174 624l122 91q6 4 11 4t11 -4l122 -91q5 -5 5 -11q0 -3 -2 -9l-4 -6q-5 -6 -12 -6q-6 0 -8 2l-112 68
l-112 -68q-3 -2 -8 -2q-9 0 -12 6l-4 6q-3 4 -3 9q0 7 6 11z" />
    <glyph glyph-name="aacute.alt" horiz-adv-x="612" 
d="M289 -8q-62 3 -108.5 28.5t-71.5 64.5t-37 80.5t-12 83.5q0 34 7.5 68t25.5 68.5t45 61t69.5 43t95.5 16.5q110 0 178 -77l11 57q4 14 17 14h6q14 0 14 -14v-472q0 -14 -14 -14h-6q-13 0 -17 14l-11 56q-31 -35 -69.5 -53.5t-63 -21.5t-59.5 -3zM295 451
q-43 -3 -75.5 -20t-50 -39.5t-29 -51.5t-14.5 -50.5t-3 -40.5q0 -27 7 -56t24.5 -64.5t57.5 -58.5t97 -23q50 0 93 23.5t65 53.5v250q-24 34 -69 55.5t-103 21.5zM239 625l122 91q4 2 8 2q7 0 11 -6l13 -19q2 -6 2 -8q0 -8 -6 -11l-129 -79q-3 -2 -8 -2q-9 0 -12 6l-4 6
q-3 5 -3 9q0 6 6 11z" />
    <glyph glyph-name="atilde.alt" horiz-adv-x="612" 
d="M289 -8q-62 3 -108.5 28.5t-71.5 64.5t-37 80.5t-12 83.5q0 34 7.5 68t25.5 68.5t45 61t69.5 43t95.5 16.5q110 0 178 -77l11 57q4 14 17 14h6q14 0 14 -14v-472q0 -14 -14 -14h-6q-13 0 -17 14l-11 56q-31 -35 -69.5 -53.5t-63 -21.5t-59.5 -3zM295 451
q-43 -3 -75.5 -20t-50 -39.5t-29 -51.5t-14.5 -50.5t-3 -40.5q0 -27 7 -56t24.5 -64.5t57.5 -58.5t97 -23q50 0 93 23.5t65 53.5v250q-24 34 -69 55.5t-103 21.5zM435 670l11 -6q7 -5 7 -12q0 -3 -2 -7q-35 -54 -89 -54q-30 0 -59.5 21.5t-51.5 21.5q-33 0 -55 -31
q-4 -7 -13 -7q-5 0 -7 1l-5 3q-8 3 -8 13q0 4 1 6q30 62 89 62q24 0 57 -22t55 -22q30 0 50 28q5 7 13 7q3 0 7 -2z" />
    <glyph glyph-name="abreve.alt" horiz-adv-x="612" 
d="M289 -8q-62 3 -108.5 28.5t-71.5 64.5t-37 80.5t-12 83.5q0 34 7.5 68t25.5 68.5t45 61t69.5 43t95.5 16.5q110 0 178 -77l11 57q4 14 17 14h6q14 0 14 -14v-472q0 -14 -14 -14h-6q-13 0 -17 14l-11 56q-31 -35 -69.5 -53.5t-63 -21.5t-59.5 -3zM295 451
q-43 -3 -75.5 -20t-50 -39.5t-29 -51.5t-14.5 -50.5t-3 -40.5q0 -27 7 -56t24.5 -64.5t57.5 -58.5t97 -23q50 0 93 23.5t65 53.5v250q-24 34 -69 55.5t-103 21.5zM415 710l15 -4q10 -3 10 -12q0 -4 -1 -5q-37 -96 -128 -96t-128 96q-1 1 -1 5q0 9 9 12l15 4h4q10 0 15 -9
q24 -60 86 -60q63 0 87 60q3 9 13 9h4z" />
    <glyph glyph-name="parenleft.case" horiz-adv-x="254" 
d="M30 358q0 252 148 480q7 12 20 5l14 -9q12 -7 5 -19q-123 -235 -123 -456q0 -227 122 -462q7 -12 -5 -19l-13 -9q-12 -7 -20 5q-148 229 -148 484z" />
    <glyph glyph-name="parenright.case" horiz-adv-x="254" 
d="M224 358q0 -255 -148 -484q-8 -12 -20 -5l-13 9q-12 7 -5 19q122 235 122 462q0 219 -124 456q-5 13 6 19l14 9q12 7 20 -5q148 -228 148 -480z" />
    <glyph glyph-name="hyphen.case" horiz-adv-x="432" 
d="M94 368h244q14 0 14 -14v-26q0 -14 -14 -14h-244q-14 0 -14 14v26q0 14 14 14z" />
    <glyph glyph-name="bracketleft.case" horiz-adv-x="219" 
d="M30 -121v950q0 14 14 14h131q14 0 14 -14v-7q0 -14 -14 -14h-84v-908h84q14 0 14 -14v-7q0 -14 -14 -14h-131q-14 0 -14 14z" />
    <glyph glyph-name="bracketright.case" horiz-adv-x="219" 
d="M189 829v-950q0 -14 -14 -14h-131q-14 0 -14 14v7q0 14 14 14h84v908h-84q-14 0 -14 14v7q0 14 14 14h131q14 0 14 -14z" />
    <glyph glyph-name="braceleft.case" horiz-adv-x="277" 
d="M247 829v-7q0 -12 -14 -16q-73 -16 -73 -138v-214q0 -36 -14 -60t-55 -39q69 -21 69 -100v-213q0 -122 73 -138q14 -4 14 -16v-7q0 -6 -4 -10t-10 -3q-18 2 -36.5 9t-43 23.5t-40 50.5t-15.5 81v211q0 71 -55 94q-13 6 -13 18t13 18q55 23 55 94v211q0 46 15 80
t39.5 50.5t43 23.5t37.5 10q6 1 10 -3t4 -10z" />
    <glyph glyph-name="bar.case" horiz-adv-x="165" 
d="M91 -135h-17q-14 0 -14 14v946q0 14 14 14h17q14 0 14 -14v-946q0 -14 -14 -14z" />
    <glyph glyph-name="braceright.case" horiz-adv-x="277" 
d="M30 822v7q0 6 4 10t10 3q19 -3 37.5 -10t43 -23.5t39.5 -50.5t15 -80v-211q0 -71 55 -94q13 -6 13 -18t-13 -18q-55 -23 -55 -94v-211q0 -47 -15.5 -81t-40 -50.5t-43 -23.5t-36.5 -9q-6 -1 -10 3t-4 10v7q0 12 14 16q73 16 73 138v213q0 79 69 100q-41 15 -55 39t-14 60
v214q0 122 -73 138q-14 4 -14 16z" />
    <glyph glyph-name="guilsinglleft.case" horiz-adv-x="258" 
d="M93 342l124 -148q8 -10 -1 -21l-6 -5q-10 -10 -20 1l-158 168q-2 2 -2 5t2 5l158 169q11 10 20 1l8 -7q10 -10 1 -20z" />
    <glyph glyph-name="guilsinglright.case" horiz-adv-x="258" 
d="M41 194l124 148l-126 148q-9 10 1 20l8 7q9 9 20 -1l158 -169q2 -2 2 -5t-2 -5l-158 -168q-10 -11 -20 -1l-6 5q-10 10 -1 21z" />
    <glyph glyph-name="guillemotleft.case" horiz-adv-x="423" 
d="M93 342l124 -148q8 -10 -1 -21l-6 -5q-10 -10 -20 1l-158 168q-2 2 -2 5t2 5l158 169q11 10 20 1l8 -7q10 -10 1 -20zM258 342l124 -148q8 -10 -1 -21l-6 -5q-9 -10 -20 1l-158 168q-2 2 -2 5t2 5l158 169q11 10 20 1l8 -7q10 -10 1 -20z" />
    <glyph glyph-name="guillemotright.case" horiz-adv-x="423" 
d="M206 194l124 148l-126 148q-9 10 1 20l8 7q9 9 20 -1l158 -169q2 -2 2 -5t-2 -5l-158 -168q-11 -11 -20 -1l-6 5q-10 10 -1 21zM41 194l124 148l-126 148q-9 10 1 20l8 7q9 9 20 -1l158 -169q2 -2 2 -5t-2 -5l-158 -168q-10 -11 -20 -1l-6 5q-10 10 -1 21z" />
    <glyph glyph-name="endash.case" horiz-adv-x="550" 
d="M456 343h-362q-14 0 -14 14v15q0 14 14 14h362q14 0 14 -14v-15q0 -14 -14 -14z" />
    <glyph glyph-name="emdash.case" horiz-adv-x="672" 
d="M577 343h-483q-14 0 -14 14v15q0 14 14 14h483q14 0 14 -14v-15q0 -14 -14 -14z" />
    <glyph glyph-name="bullet.case" horiz-adv-x="371" 
d="M184 237q-34 0 -59 25t-25 59q0 35 25 61t59 26q36 0 61.5 -26t25.5 -61q0 -34 -25.5 -59t-61.5 -25z" />
    <glyph glyph-name="periodcentered.case" horiz-adv-x="214" 
d="M60 363q0 19 14 33t33 14t33 -14t14 -33t-14 -33t-33 -14t-33 14t-14 33z" />
    <glyph glyph-name="brokenbar.case" horiz-adv-x="162" 
d="M102 232v-353q0 -14 -14 -14h-14q-14 0 -14 14v353q0 14 14 14h14q14 0 14 -14zM102 824v-353q0 -14 -14 -14h-14q-14 0 -14 14v353q0 14 14 14h14q14 0 14 -14z" />
    <glyph glyph-name="numbersign.oldstyle" horiz-adv-x="571" 
d="M497 121h-82v-107q0 -14 -14 -14h-16q-14 0 -14 14v107h-170v-107q0 -14 -14 -14h-16q-14 0 -14 14v107h-83q-14 0 -14 14v16q0 14 14 14h83v170h-83q-14 0 -14 14v16q0 14 14 14h83v107q0 14 14 14h16q14 0 14 -14v-107h170v107q0 14 14 14h16q14 0 14 -14v-107h82
q14 0 14 -14v-16q0 -14 -14 -14h-82v-170h82q14 0 14 -14v-16q0 -14 -14 -14zM371 165v170h-170v-170h170z" />
    <glyph glyph-name="dollar.oldstyle" horiz-adv-x="472" 
d="M238 -92h-17q-14 0 -14 14v68q-42 3 -92 17t-50 33q0 5 1 7l9 17q3 8 13 8q4 0 6 -1q61 -28 113 -33v199q-35 12 -55 20t-44 24t-35.5 39t-11.5 54q0 59 41.5 95.5t104.5 38.5v60q0 14 14 14h17q14 0 14 -14v-62q27 -2 75 -13.5t48 -27.5q0 -4 -1 -6l-7 -16q-5 -9 -14 -9
q-4 0 -5 1q-59 19 -96 24v-181q37 -12 59 -21.5t48.5 -27t39.5 -44t13 -61.5q0 -56 -45 -93t-115 -41v-68q0 -14 -14 -14zM350 123q0 65 -98 100v-185q43 6 70.5 28t27.5 57zM118 380q0 -32 23 -51.5t66 -35.5v166q-82 -9 -89 -79z" />
    <glyph glyph-name="cent.oldstyle" horiz-adv-x="542" 
d="M302 -85h-17q-14 0 -14 14v63q-60 6 -103.5 32.5t-65.5 65.5t-32 79.5t-10 84.5q0 40 10.5 79t33.5 78t66 66t101 34v67q0 14 14 14h17q14 0 14 -14v-65q88 -3 156 -62q11 -11 0 -20l-15 -17q-9 -10 -20 -1q-55 40 -121 43v-415q63 3 116 46q11 9 20 -2l14 -15
q10 -10 -1 -20q-66 -57 -149 -60v-61q0 -14 -14 -14zM122 254q0 -76 39 -136.5t110 -73.5v409q-65 -13 -107 -64.5t-42 -134.5z" />
    <glyph glyph-name="zero.denom" horiz-adv-x="315" 
d="M158 329q66 0 96.5 -51.5t30.5 -115.5q0 -40 -10.5 -75.5t-40.5 -63.5t-76 -28t-76 28t-41 63.5t-11 75.5q0 64 31 115.5t97 51.5zM158 29q27 0 46.5 15t27.5 39t11.5 43t3.5 36t-3.5 36.5t-11.5 43t-27.5 39t-46.5 15.5q-28 0 -47 -15.5t-27.5 -39.5t-11.5 -43t-3 -36
t3 -36t11.5 -43t27.5 -39t47 -15z" />
    <glyph glyph-name="one.denom" horiz-adv-x="188" 
d="M29 240l-1 2q-9 10 3 20l79 64q8 6 18 6t10 -10v-308q0 -14 -14 -14h-10q-14 0 -14 14v258l-51 -35q-12 -9 -20 3z" />
    <glyph glyph-name="two.denom" horiz-adv-x="255" 
d="M34 270l-2 2q-9 11 1 20q45 38 93 38q44 0 71.5 -24.5t27.5 -68.5q0 -49 -66 -121l-73 -83h118q14 0 14 -14v-5q0 -14 -14 -14h-173q-7 0 -7 7t5 12l127 148q32 38 32 71q0 20 -14 39t-48 19q-36 0 -72 -28q-11 -9 -20 2z" />
    <glyph glyph-name="three.denom" horiz-adv-x="249" 
d="M219 239q0 -49 -42 -76q20 -11 31 -31.5t11 -43.5q0 -36 -24 -65t-81 -29q-42 0 -82 29q-11 8 -3 20l2 3q9 10 20 3q35 -22 63 -22q29 0 49 16t20 45q0 30 -20 45t-49 15h-22q-14 0 -14 14v2q0 14 14 14h22q28 0 48.5 16.5t20.5 44.5q0 30 -19.5 44.5t-49.5 14.5
q-32 0 -64 -21q-12 -8 -19 3l-3 4q-8 12 3 19q38 27 83 28q57 1 81 -28t24 -64z" />
    <glyph glyph-name="four.denom" horiz-adv-x="275" 
d="M209 63v-49q0 -14 -14 -14h-11q-14 0 -14 14v49h-140q-10 0 -10 10t5 18l144 224q9 12 22 12h4q14 0 14 -14v-217h32q14 0 14 -14v-5q0 -14 -14 -14h-32zM170 257l-104 -161h104v161z" />
    <glyph glyph-name="five.denom" horiz-adv-x="267" 
d="M39 45l3 3q10 10 20 1q29 -23 60 -23q36 0 56 22.5t20 53.5q0 30 -20 51t-56 21h-59q-14 0 -14 14v122q0 14 14 14h133q14 0 14 -14v-3q0 -14 -14 -14h-108v-86h34q62 0 88.5 -33.5t26.5 -74.5q0 -37 -27.5 -72t-87.5 -35q-47 0 -82 33q-10 9 -1 20z" />
    <glyph glyph-name="six.denom" horiz-adv-x="286" 
d="M174 325l2 -3q7 -12 -4 -20q-65 -44 -91 -103q26 16 61 16q61 0 87.5 -35.5t26.5 -75.5q0 -33 -27 -69.5t-87 -36.5q-59 0 -85.5 38t-26.5 81q0 74 36.5 128t87.5 85q12 7 20 -5zM142 31q36 0 56.5 22t20.5 53q0 32 -20 54t-57 22q-36 0 -55.5 -20.5t-19.5 -52.5
q0 -29 20 -53.5t55 -24.5z" />
    <glyph glyph-name="seven.denom" horiz-adv-x="238" 
d="M20 311v3q0 14 14 14h174q9 0 9 -9t-3 -16l-125 -289q-5 -13 -19 -13h-13q-5 0 -8 4t-1 9l121 283h-135q-14 0 -14 14z" />
    <glyph glyph-name="eight.denom" horiz-adv-x="271" 
d="M30 239q0 33 24 62.5t81 29.5q58 0 82 -29t24 -63q0 -53 -40 -77q40 -26 40 -74q0 -35 -24 -64t-82 -29q-57 0 -81 29t-24 64q0 50 41 75q-41 26 -41 76zM135 178q30 0 50.5 15.5t20.5 45.5t-20.5 46t-50.5 16q-28 0 -48.5 -16t-20.5 -46t20 -45.5t49 -15.5zM135 148
q-29 0 -49 -15t-20 -45t20 -46.5t49 -16.5q30 0 50.5 16t20.5 47q0 30 -20.5 45t-50.5 15z" />
    <glyph glyph-name="nine.denom" horiz-adv-x="286" 
d="M112 6l-2 3q-8 11 4 20q63 43 91 103q-26 -16 -61 -16q-61 0 -87.5 35.5t-26.5 75.5q0 33 27 69.5t87 36.5q59 0 85.5 -38t26.5 -81q0 -74 -36.5 -128t-87.5 -85q-12 -7 -20 5zM144 300q-36 0 -56.5 -22t-20.5 -53q0 -32 20 -54t57 -22q36 0 55.5 20.5t19.5 52.5
q0 29 -20 53.5t-55 24.5z" />
    <glyph glyph-name="zero.ftd" horiz-adv-x="680" 
d="M339 681q71 0 124.5 -33t81.5 -86.5t41.5 -110t13.5 -114.5q0 -60 -13.5 -117t-41.5 -110t-81.5 -85.5t-124.5 -32.5t-124 32.5t-81 85.5t-41 110t-13 117q0 58 13 114.5t41 110t81 86.5t124 33zM339 39q50 0 88.5 24t59 58t33 78.5t16 76.5t3.5 61t-3.5 60.5t-16 75.5
t-33 77t-59 57t-88.5 24t-88 -24t-58 -57.5t-33 -77t-16.5 -75.5t-3.5 -60t3.5 -60.5t16.5 -76.5t33 -78.5t58 -58.5t88 -24z" />
    <glyph glyph-name="one.ftd" horiz-adv-x="468" 
d="M85 14v20q0 14 14 14h124v533l-128 -82q-13 -9 -20 4l-7 10q-8 12 3 21l170 138q11 9 25 9h5q14 0 14 -14v-619h109q14 0 14 -14v-20q0 -14 -14 -14h-295q-14 0 -14 14z" />
    <glyph glyph-name="two.ftd" horiz-adv-x="555" 
d="M81 568l-11 13q-9 11 1 21q88 81 193 81q88 0 144.5 -49.5t56.5 -139.5q0 -42 -24.5 -91.5t-48 -79.5t-66.5 -78l-170 -194h280q14 0 14 -14v-23q0 -14 -14 -14h-353q-14 0 -14 14v4q0 14 9 25q39 46 129 149.5t128 147.5q71 83 71 157q0 20 -6 40.5t-20.5 43t-44.5 36.5
t-71 14q-84 0 -163 -65q-11 -9 -20 2z" />
    <glyph glyph-name="three.ftd" horiz-adv-x="539" 
d="M459 500q0 -50 -26.5 -92.5t-75.5 -69.5q47 -18 74.5 -62t27.5 -96q0 -30 -9.5 -59.5t-31.5 -60t-66.5 -49.5t-106.5 -19q-100 0 -174 62q-11 9 -2 20l12 16q9 11 20 2q74 -54 144 -54q65 0 111.5 38t46.5 104q0 68 -45.5 103t-112.5 35h-52q-14 0 -14 14v16q0 14 14 14
h52q65 0 111.5 37t46.5 101q0 68 -45.5 103t-112.5 35q-74 0 -146 -49q-12 -8 -19 3l-11 15q-8 11 3 20q79 60 173 60q61 0 106 -19t67 -49.5t31.5 -59.5t9.5 -59z" />
    <glyph glyph-name="four.ftd" horiz-adv-x="600" 
d="M441 138v-124q0 -14 -14 -14h-34q-14 0 -14 14v124h-305q-14 0 -14 14v1q0 13 8 26l314 486q8 12 22 12h23q14 0 14 -14v-478h85q14 0 14 -14v-19q0 -14 -14 -14h-85zM379 571l-250 -386h250v386z" />
    <glyph glyph-name="five.ftd" horiz-adv-x="575" 
d="M90 83l13 14q10 10 21 1q68 -55 138 -55q80 0 126 51t46 121q0 69 -45.5 116.5t-127.5 47.5h-130q-14 0 -14 14v269q0 14 14 14h293q14 0 14 -14v-18q0 -14 -14 -14h-245v-202h82q67 0 115.5 -21.5t72.5 -56.5t35 -70t11 -72q0 -23 -6.5 -49t-23 -57t-42 -55t-67.5 -40
t-95 -16q-101 0 -171 72q-11 9 0 20z" />
    <glyph glyph-name="six.ftd" horiz-adv-x="639" 
d="M372 679l10 -15q7 -12 -4 -20q-153 -99 -214 -266q60 58 155 58q66 0 114 -23.5t71.5 -61t34 -72.5t10.5 -68q0 -21 -6 -46t-22 -56t-40.5 -56t-66.5 -42t-95 -17q-64 0 -111 24.5t-71.5 64t-35.5 78.5t-11 77q0 83 24 157.5t64 129t83 93.5t91 66q12 7 20 -5zM319 43
q81 0 126.5 51t45.5 121t-45 120.5t-127 50.5q-81 0 -126.5 -46.5t-45.5 -119.5q0 -66 46.5 -121.5t125.5 -55.5z" />
    <glyph glyph-name="seven.ftd" horiz-adv-x="500" 
d="M50 644v18q0 14 14 14h361q14 0 14 -14v-6q0 -14 -6 -27l-262 -616q-5 -13 -19 -13h-33q-5 0 -8 4t-1 9l257 617h-303q-14 0 -14 14z" />
    <glyph glyph-name="eight.ftd" horiz-adv-x="589" 
d="M80 499q0 29 9.5 58t31.5 59.5t67 49.5t106 19t106 -19t67 -49.5t32 -59.5t10 -58q0 -44 -23.5 -90.5t-73.5 -70.5q50 -24 73.5 -68t23.5 -91q0 -29 -10 -58.5t-32 -60t-67 -49.5t-106 -19t-106 19t-67 49.5t-31.5 60t-9.5 58.5q0 44 23.5 89.5t74.5 69.5
q-51 26 -74.5 70.5t-23.5 90.5zM294 360q68 0 114 35.5t46 103.5q0 69 -46.5 106t-113.5 37q-66 0 -112.5 -37t-46.5 -106q0 -67 46.5 -103t112.5 -36zM294 316q-67 0 -113 -34.5t-46 -102.5q0 -69 46.5 -106t112.5 -37q67 0 113.5 37t46.5 106q0 68 -46 102.5t-114 34.5z
" />
    <glyph glyph-name="nine.ftd" horiz-adv-x="639" 
d="M267 0l-10 15q-8 12 4 19q153 102 214 267q-60 -58 -155 -58q-66 0 -114 23.5t-71.5 61t-34 72.5t-10.5 68q0 21 6 46t22 56t40.5 56t66.5 42t95 17q64 0 111 -24.5t71.5 -64t35.5 -78.5t11 -77q0 -83 -24 -157.5t-64 -129t-83.5 -93.5t-90.5 -66q-12 -7 -20 5zM320 638
q-81 0 -126.5 -51.5t-45.5 -122.5q0 -70 45 -120.5t127 -50.5q81 0 126.5 46.5t45.5 119.5q0 72 -46 125.5t-126 53.5z" />
    <glyph glyph-name="zero.num" horiz-adv-x="315" 
d="M158 705q66 0 96.5 -51.5t30.5 -115.5q0 -40 -10.5 -75.5t-40.5 -63.5t-76 -28t-76 28t-41 63.5t-11 75.5q0 64 31 115.5t97 51.5zM158 405q27 0 46.5 15t27.5 39t11.5 43t3.5 36t-3.5 36.5t-11.5 43t-27.5 39t-46.5 15.5q-28 0 -47 -15.5t-27.5 -39.5t-11.5 -43t-3 -36
t3 -36t11.5 -43t27.5 -39t47 -15z" />
    <glyph glyph-name="one.num" horiz-adv-x="188" 
d="M29 616l-1 2q-8 11 3 20l81 64q6 6 16 6t10 -10v-308q0 -14 -14 -14h-10q-14 0 -14 14v255l-51 -33q-13 -7 -20 4z" />
    <glyph glyph-name="two.num" horiz-adv-x="255" 
d="M34 647l-2 2q-9 11 1 20q45 38 93 38q44 0 71.5 -24.5t27.5 -68.5q0 -49 -66 -121l-73 -83h118q14 0 14 -14v-5q0 -14 -14 -14h-173q-7 0 -7 7t5 12l127 148q32 38 32 71q0 20 -14 39t-48 19q-36 0 -72 -28q-11 -9 -20 2z" />
    <glyph glyph-name="three.num" horiz-adv-x="249" 
d="M219 615q0 -49 -42 -76q20 -11 31 -31.5t11 -43.5q0 -36 -24 -65t-81 -29q-42 0 -82 29q-11 8 -3 20l2 3q9 10 20 3q35 -22 63 -22q29 0 49 16t20 45q0 30 -20 45t-49 15h-22q-14 0 -14 14v2q0 14 14 14h22q28 0 48.5 16.5t20.5 44.5q0 30 -19.5 44.5t-49.5 14.5
q-32 0 -64 -21q-12 -8 -19 3l-3 4q-8 12 3 19q38 27 83 28q57 1 81 -28t24 -64z" />
    <glyph glyph-name="four.num" horiz-adv-x="275" 
d="M209 439v-50q0 -14 -14 -14h-11q-14 0 -14 14v50h-140q-10 0 -10 10t5 18l144 224q9 12 22 12h4q14 0 14 -14v-217h32q14 0 14 -14v-5q0 -14 -14 -14h-32zM170 633l-104 -161h104v161z" />
    <glyph glyph-name="five.num" horiz-adv-x="267" 
d="M39 421l3 3q10 10 20 1q29 -23 60 -23q36 0 56 22.5t20 53.5q0 30 -20 51t-56 21h-59q-14 0 -14 14v122q0 14 14 14h133q14 0 14 -14v-3q0 -14 -14 -14h-108v-86h34q62 0 88.5 -33.5t26.5 -74.5q0 -37 -27.5 -72t-87.5 -35q-47 0 -82 33q-10 9 -1 20z" />
    <glyph glyph-name="six.num" horiz-adv-x="286" 
d="M174 701l2 -3q7 -12 -4 -20q-65 -44 -91 -103q26 16 61 16q61 0 87.5 -35.5t26.5 -75.5q0 -33 -27 -69.5t-87 -36.5q-59 0 -85.5 38t-26.5 81q0 74 36.5 128t87.5 85q12 7 20 -5zM142 407q36 0 56.5 22t20.5 53q0 32 -20 54t-57 22q-36 0 -55.5 -20.5t-19.5 -52.5
q0 -29 20 -53.5t55 -24.5z" />
    <glyph glyph-name="seven.num" horiz-adv-x="238" 
d="M20 687v3q0 14 14 14h171q9 0 9 -9t-3 -16l-122 -289q-5 -13 -19 -13h-13q-5 0 -8 4t-1 9l118 283h-132q-14 0 -14 14z" />
    <glyph glyph-name="eight.num" horiz-adv-x="271" 
d="M30 615q0 33 24 62.5t81 29.5q58 0 82 -29t24 -63q0 -53 -40 -77q40 -26 40 -74q0 -35 -24 -64t-82 -29q-57 0 -81 29t-24 64q0 50 41 75q-41 26 -41 76zM135 554q30 0 50.5 15.5t20.5 45.5t-20.5 46t-50.5 16q-28 0 -48.5 -16t-20.5 -46t20 -45.5t49 -15.5zM135 524
q-29 0 -49 -15t-20 -45t20 -46.5t49 -16.5q30 0 50.5 16t20.5 47q0 30 -20.5 45t-50.5 15z" />
    <glyph glyph-name="nine.num" horiz-adv-x="286" 
d="M112 382l-2 3q-8 11 4 20q63 43 91 103q-26 -16 -61 -16q-61 0 -87.5 35.5t-26.5 75.5q0 33 27 69.5t87 36.5q59 0 85.5 -38t26.5 -81q0 -74 -36.5 -128t-87.5 -85q-12 -7 -20 5zM144 676q-36 0 -56.5 -22t-20.5 -53q0 -32 20 -54t57 -22q36 0 55.5 20.5t19.5 52.5
q0 29 -20 53.5t-55 24.5z" />
    <glyph glyph-name="g.alt" horiz-adv-x="609" 
d="M295 -7q-64 3 -112 29t-73.5 65.5t-37.5 80.5t-12 83q0 34 7.5 68t25.5 68.5t45 61t69.5 43t95.5 16.5q108 0 178 -79l11 57q4 14 17 14h6q14 0 14 -14v-464q0 -32 -4 -60t-18 -63.5t-37.5 -61t-67 -43t-101.5 -17.5q-105 0 -197 69q-6 3 -6 11q0 3 3 8l13 19q3 5 11 5
q2 0 8 -2q84 -56 164 -56q46 0 79.5 15t50 35t26.5 48t12 45.5t2 35.5v10v18q-71 -45 -172 -45zM309 453q-57 0 -97 -23t-57.5 -58.5t-24.5 -64.5t-7 -56q0 -29 8 -60.5t27.5 -67t60.5 -58.5t99 -23q33 0 78 15.5t71 37.5v281q-22 30 -65 53.5t-93 23.5z" />
    <glyph glyph-name="gcircumflex.alt" horiz-adv-x="609" 
d="M182 624l122 91q6 4 11 4t11 -4l122 -91q5 -5 5 -11q0 -3 -2 -9l-4 -6q-5 -6 -12 -6q-6 0 -8 2l-112 68l-112 -68q-3 -2 -8 -2q-9 0 -12 6l-4 6q-3 4 -3 9q0 7 6 11zM295 -7q-64 3 -112 29t-73.5 65.5t-37.5 80.5t-12 83q0 34 7.5 68t25.5 68.5t45 61t69.5 43t95.5 16.5
q108 0 178 -79l11 57q4 14 17 14h6q14 0 14 -14v-464q0 -32 -4 -60t-18 -63.5t-37.5 -61t-67 -43t-101.5 -17.5q-105 0 -197 69q-6 3 -6 11q0 3 3 8l13 19q3 5 11 5q2 0 8 -2q84 -56 164 -56q46 0 79.5 15t50 35t26.5 48t12 45.5t2 35.5v10v18q-71 -45 -172 -45zM309 453
q-57 0 -97 -23t-57.5 -58.5t-24.5 -64.5t-7 -56q0 -29 8 -60.5t27.5 -67t60.5 -58.5t99 -23q33 0 78 15.5t71 37.5v281q-22 30 -65 53.5t-93 23.5z" />
    <glyph glyph-name="gbreve.alt" horiz-adv-x="609" 
d="M411 710l15 -4q10 -3 10 -12q0 -4 -1 -5q-37 -96 -128 -96t-128 96q-1 1 -1 5q0 9 9 12l15 4h4q10 0 15 -9q24 -60 86 -60q63 0 87 60q3 9 13 9h4zM295 -7q-64 3 -112 29t-73.5 65.5t-37.5 80.5t-12 83q0 34 7.5 68t25.5 68.5t45 61t69.5 43t95.5 16.5q108 0 178 -79
l11 57q4 14 17 14h6q14 0 14 -14v-464q0 -32 -4 -60t-18 -63.5t-37.5 -61t-67 -43t-101.5 -17.5q-105 0 -197 69q-6 3 -6 11q0 3 3 8l13 19q3 5 11 5q2 0 8 -2q84 -56 164 -56q46 0 79.5 15t50 35t26.5 48t12 45.5t2 35.5v10v18q-71 -45 -172 -45zM309 453q-57 0 -97 -23
t-57.5 -58.5t-24.5 -64.5t-7 -56q0 -29 8 -60.5t27.5 -67t60.5 -58.5t99 -23q33 0 78 15.5t71 37.5v281q-22 30 -65 53.5t-93 23.5z" />
    <glyph glyph-name="gdotaccent.alt" horiz-adv-x="609" 
d="M270 629q0 18 11.5 30t29.5 12q17 0 29.5 -12.5t12.5 -29.5t-12.5 -29t-29.5 -12q-18 0 -29.5 12t-11.5 29zM295 -7q-64 3 -112 29t-73.5 65.5t-37.5 80.5t-12 83q0 34 7.5 68t25.5 68.5t45 61t69.5 43t95.5 16.5q108 0 178 -79l11 57q4 14 17 14h6q14 0 14 -14v-464
q0 -32 -4 -60t-18 -63.5t-37.5 -61t-67 -43t-101.5 -17.5q-105 0 -197 69q-6 3 -6 11q0 3 3 8l13 19q3 5 11 5q2 0 8 -2q84 -56 164 -56q46 0 79.5 15t50 35t26.5 48t12 45.5t2 35.5v10v18q-71 -45 -172 -45zM309 453q-57 0 -97 -23t-57.5 -58.5t-24.5 -64.5t-7 -56
q0 -29 8 -60.5t27.5 -67t60.5 -58.5t99 -23q33 0 78 15.5t71 37.5v281q-22 30 -65 53.5t-93 23.5z" />
    <glyph glyph-name="gcommaaccent.alt" horiz-adv-x="609" 
d="M339 836q11 -6 6 -16q-33 -79 -38 -132q19 0 32.5 -13.5t13.5 -32.5t-14 -33t-33 -14q-20 0 -34 13t-14 35q0 82 65 188q5 10 16 5zM295 -7q-64 3 -112 29t-73.5 65.5t-37.5 80.5t-12 83q0 34 7.5 68t25.5 68.5t45 61t69.5 43t95.5 16.5q108 0 178 -79l11 57q4 14 17 14
h6q14 0 14 -14v-464q0 -32 -4 -60t-18 -63.5t-37.5 -61t-67 -43t-101.5 -17.5q-105 0 -197 69q-11 7 -3 19l13 19q7 11 19 3q84 -56 164 -56q49 0 84 17.5t51 39t25 53.5t9.5 46t0.5 30v3v18q-66 -41 -144 -45h-28zM309 453q-57 0 -97 -23t-57.5 -58.5t-24.5 -64.5t-7 -56
q0 -29 8 -60.5t27.5 -67t60.5 -58.5t99 -23q33 0 78 15.5t71 37.5v281q-22 30 -65 53.5t-93 23.5z" />
    <glyph glyph-name="ampersand.alt1" horiz-adv-x="734" 
d="M292 55q83 0 168 65l-82 58q-66 44 -95 83t-29 85q0 33 21.5 68t65.5 45q-54 34 -54 102q0 66 48.5 107.5t116.5 41.5q110 0 165 -70.5t55 -173.5q0 -183 -121 -337l112 -81q5 -5 5 -11q0 -4 -2 -8l-20 -28q-4 -6 -11 -6q-5 0 -8 3l-117 84q-108 -84 -215 -84
q-196 0 -196 198v332q-2 35 -14.5 53t-40.5 24q-14 2 -14 16v25q0 15 14 15q119 0 119 -133v-343q0 -57 37.5 -93.5t91.5 -36.5zM403 233l98 -70q107 136 107 301q0 77 -38 133t-112 56q-48 0 -76 -29t-28 -69q0 -36 20 -57.5t56 -21.5h24q14 0 14 -14v-25q0 -14 -14 -14
h-48q-39 0 -62 -23t-23 -52q0 -33 18 -58t64 -57z" />
    <glyph glyph-name="T_L" horiz-adv-x="563" 
d="M166 701h37q14 0 14 -14v-135l197 73q5 2 9 -1t4 -8v-23q0 -14 -13 -19l-197 -70v-66l197 71q4 2 8.5 -1t4.5 -8v-25q0 -14 -13 -19l-197 -71v-327q95 12 159.5 76t85.5 156q4 14 17 14h30q5 0 9 -4.5t3 -9.5q-22 -134 -119 -213t-218 -79h-18q-14 0 -14 15v349l-119 -42
q-4 -2 -8.5 1t-4.5 8v22q0 14 13 19l119 43v66l-119 -41q-4 -2 -8.5 1t-4.5 8v19q0 14 13 19l119 43v159q0 14 14 14z" />
    </font>
</defs>
</svg>
