<?xml version="1.0" standalone="no"?>
<!DOCTYPE svg PUBLIC "-//W3C//DTD SVG 1.1//EN" "http://www.w3.org/Graphics/SVG/1.1/DTD/svg11.dtd" >
<svg xmlns="http://www.w3.org/2000/svg" xmlns:xlink="http://www.w3.org/1999/xlink" version="1.1">
<metadata>
Created by FontForge 20170731 at Tue Dec  2 23:25:15 2014
 By Aleksey,,,
Copyright (c) 2013 by Ahmet Altun. All rights reserved.
</metadata>
<defs>
<font id="HalisR-Regular" horiz-adv-x="612" >
  <font-face 
    font-family="Halis R Regular"
    font-weight="400"
    font-stretch="normal"
    units-per-em="1000"
    panose-1="2 0 5 5 4 0 0 2 0 4"
    ascent="800"
    descent="-200"
    x-height="500"
    cap-height="700"
    bbox="-178.889 -333.45 1114 990"
    underline-thickness="50"
    underline-position="-230"
    unicode-range="U+0020-FB04"
  />
<missing-glyph horiz-adv-x="490" 
d="M210 209q0 -12 9 -21t22 -9q12 0 20.5 9t8.5 21t-8.5 20t-20.5 8q-13 0 -22 -8t-9 -20zM262 267v28q0 13 18 33.5t36.5 47t18.5 54.5q0 39 -24.5 60.5t-62.5 21.5q-55 0 -104 -52l29 -28q35 37 65 38q47 2 47 -41q0 -29 -34 -67t-34 -65v-30h45zM460 635v-570
q0 -6 -4.5 -10.5t-10.5 -4.5h-400q-6 0 -10.5 4.5t-4.5 10.5v570q0 6 4.5 10.5t10.5 4.5h400q6 0 10.5 -4.5t4.5 -10.5z" />
    <glyph glyph-name="f_f" unicode="ff" horiz-adv-x="644" 
d="M649 665l-16 -48q-5 -14 -19 -9q-44 14 -79 14t-58.5 -19t-23.5 -63v-40h88q6 0 10.5 -4.5t4.5 -10.5v-52q0 -6 -4.5 -10.5t-10.5 -4.5h-88v-402q0 -6 -4.5 -10.5t-10.5 -4.5h-70q-6 0 -10.5 4.5t-4.5 10.5v402h-182v-402q0 -6 -4.5 -10.5t-10.5 -4.5h-70q-6 0 -10.5 4.5
t-4.5 10.5v402h-46q-6 0 -10.5 4.5t-4.5 10.5v52q0 6 4.5 10.5t10.5 4.5h46v44q0 78 52 121t127 43q84 0 145 -49q48 48 131 48q60 0 114 -22q14 -5 9 -20zM353 500v44q0 20 3 37q-40 37 -101 37q-36 0 -60 -19.5t-24 -58.5v-40h182z" />
    <glyph glyph-name="fi" unicode="fi" horiz-adv-x="532" 
d="M452 485v-470q0 -6 -4.5 -10.5t-10.5 -4.5h-70q-6 0 -10.5 4.5t-4.5 10.5v403h-181v-402q0 -6 -4.5 -10.5t-10.5 -4.5h-70q-6 0 -10.5 4.5t-4.5 10.5v402h-46q-6 0 -10.5 4.5t-4.5 10.5v52q0 6 4.5 10.5t10.5 4.5h46v44q0 80 49 121.5t124 41.5q60 0 114 -22q14 -5 9 -20
l-16 -48q-5 -14 -19 -9q-44 14 -79 14t-58.5 -19t-23.5 -63v-40h266q6 0 10.5 -4.5t4.5 -10.5z" />
    <glyph glyph-name="fl" unicode="fl" horiz-adv-x="531" 
d="M171 539v-39h105q6 0 10.5 -4.5t4.5 -10.5v-52q0 -6 -4.5 -10.5t-10.5 -4.5h-105v-403q0 -6 -4.5 -10.5t-10.5 -4.5h-70q-6 0 -10.5 4.5t-4.5 10.5v403h-46q-6 0 -10.5 4.5t-4.5 10.5v52q0 6 4.5 10.5t10.5 4.5h46v43q0 78 52 121t127 43q79 0 123 -50l11 29q5 14 20 14
h32q6 0 10.5 -4.5t4.5 -10.5v-671q0 -6 -4.5 -10.5t-10.5 -4.5h-70q-6 0 -10.5 4.5t-4.5 10.5v559q-32 43 -93 43q-34 0 -58.5 -19t-28.5 -58z" />
    <glyph glyph-name="f_f_i" unicode="ffi" horiz-adv-x="814" 
d="M734 485v-470q0 -6 -4.5 -10.5t-10.5 -4.5h-70q-6 0 -10.5 4.5t-4.5 10.5v403h-181v-402q0 -6 -4.5 -10.5t-10.5 -4.5h-70q-6 0 -10.5 4.5t-4.5 10.5v402h-182v-402q0 -6 -4.5 -10.5t-10.5 -4.5h-70q-6 0 -10.5 4.5t-4.5 10.5v402h-46q-6 0 -10.5 4.5t-4.5 10.5v52
q0 6 4.5 10.5t10.5 4.5h46v44q0 78 52 121t127 43q84 0 145 -49q48 48 131 48q60 0 114 -22q14 -5 9 -20l-16 -48q-5 -14 -19 -9q-44 14 -79 14t-58.5 -19t-23.5 -63v-40h266q6 0 10.5 -4.5t4.5 -10.5zM353 500v44q0 20 3 37q-40 37 -101 37q-36 0 -60 -19.5t-24 -58.5v-40
h182z" />
    <glyph glyph-name="f_f_l" unicode="ffl" horiz-adv-x="809" 
d="M449 539v-39h105q6 0 10.5 -4.5t4.5 -10.5v-52q0 -6 -4.5 -10.5t-10.5 -4.5h-105v-403q0 -6 -4.5 -10.5t-10.5 -4.5h-70q-6 0 -10.5 4.5t-4.5 10.5v403h-178v-402q0 -6 -4.5 -10.5t-10.5 -4.5h-70q-6 0 -10.5 4.5t-4.5 10.5v402h-46q-6 0 -10.5 4.5t-4.5 10.5v52
q0 6 4.5 10.5t10.5 4.5h46v44q0 78 52 121t127 43q82 0 144 -48v-2q52 49 134 49q79 0 123 -50l11 29q5 14 20 14h32q6 0 10.5 -4.5t4.5 -10.5v-671q0 -6 -4.5 -10.5t-10.5 -4.5h-70q-6 0 -10.5 4.5t-4.5 10.5v559q-32 43 -93 43q-34 0 -58.5 -19t-28.5 -58zM349 543
q0 24 4 40q-40 35 -98 35q-36 0 -60 -19.5t-24 -58.5v-40h178v43z" />
    <glyph glyph-name="f_h" unicode="fh" horiz-adv-x="850" 
d="M171 539v-39h105q6 0 10.5 -4.5t4.5 -10.5v-52q0 -6 -4.5 -10.5t-10.5 -4.5h-105v-403q0 -6 -4.5 -10.5t-10.5 -4.5h-70q-6 0 -10.5 4.5t-4.5 10.5v403h-46q-6 0 -10.5 4.5t-4.5 10.5v52q0 6 4.5 10.5t10.5 4.5h46v43q0 78 52 121t127 43q79 0 123 -50l11 29q5 14 20 14
h32q6 0 10.5 -4.5t4.5 -10.5v-220q22 19 58 31t70 12q66 0 110.5 -21.5t65 -61t28 -78t7.5 -89.5v-243q0 -6 -4.5 -10.5t-10.5 -4.5h-69q-6 0 -10.5 4.5t-4.5 10.5v243q0 3 -0.5 24.5t-2 34.5t-8.5 35t-18.5 35.5t-34 24.5t-53.5 13q-43 3 -76 -16.5t-47 -46.5v-347
q0 -6 -4.5 -10.5t-10.5 -4.5h-70q-6 0 -10.5 4.5t-4.5 10.5v558q-32 43 -93 43q-34 0 -58.5 -19t-28.5 -58z" />
    <glyph glyph-name="f_j" unicode="fj" horiz-adv-x="533" 
d="M205 -90q38 -20 71 -20q76 0 76 107v421h-181v-402q0 -6 -4.5 -10.5t-10.5 -4.5h-70q-6 0 -10.5 4.5t-4.5 10.5v402h-46q-6 0 -10.5 4.5t-4.5 10.5v52q0 6 4.5 10.5t10.5 4.5h46v44q0 80 49 121.5t124 41.5q60 0 114 -22q14 -5 9 -20l-16 -48q-5 -14 -19 -9
q-44 14 -79 14t-58.5 -19t-23.5 -63v-40h266q6 0 10.5 -4.5t4.5 -10.5v-488v-2q0 -12 -0.5 -23.5t-4 -37t-14.5 -46t-28.5 -42t-49 -33.5t-72.5 -12q-68 0 -123 39q-12 9 -3 23l27 41q8 14 21 6z" />
    <glyph glyph-name="f_k" unicode="fk" horiz-adv-x="823" 
d="M451 223v-208q0 -6 -4.5 -10.5t-10.5 -4.5h-70q-6 0 -10.5 4.5t-4.5 10.5v558q-32 43 -93 43q-34 0 -58.5 -19t-28.5 -58v-40h105q6 0 10.5 -4.5t4.5 -10.5v-52q0 -6 -4.5 -10.5t-10.5 -4.5h-105v-402q0 -6 -4.5 -10.5t-10.5 -4.5h-70q-6 0 -10.5 4.5t-4.5 10.5v402h-46
q-6 0 -10.5 4.5t-4.5 10.5v52q0 6 4.5 10.5t10.5 4.5h46v44q0 78 52 121t127 43q79 0 123 -50l11 29q5 14 20 14h32q6 0 10.5 -4.5t4.5 -10.5v-394l193 198q11 11 26 11h100q2 0 4 -3q2 -1 -1 -4l-237 -233l254 -250q3 -3 2 -7q-2 -3 -5 -3h-102q-15 0 -26 11z" />
    <glyph glyph-name="f_b" unicode="fb" horiz-adv-x="883" 
d="M171 539v-40h105q6 0 10.5 -4.5t4.5 -10.5v-52q0 -6 -4.5 -10.5t-10.5 -4.5h-105v-402q0 -6 -4.5 -10.5t-10.5 -4.5h-70q-6 0 -10.5 4.5t-4.5 10.5v402h-46q-6 0 -10.5 4.5t-4.5 10.5v52q0 6 4.5 10.5t10.5 4.5h46v44q0 78 52 121t127 43q79 0 123 -50l11 29q5 14 20 14
h32q6 0 10.5 -4.5t4.5 -10.5v-204q52 27 123 27q68 0 119 -25t78 -65.5t39.5 -82.5t12.5 -85q0 -34 -7.5 -68t-25.5 -69t-44.5 -61.5t-70 -43t-96.5 -16.5q-89 0 -151 59l-12 -37q-5 -14 -20 -14h-30q-6 0 -10.5 4.5t-4.5 10.5v558q-32 43 -93 43q-34 0 -58.5 -19t-28.5 -58
zM574 75q46 0 78.5 20.5t46.5 51.5t19.5 56t5.5 47q0 24 -6.5 50t-22.5 56t-49.5 49.5t-79.5 19.5q-69 0 -115 -35v-248q40 -67 123 -67z" />
    <glyph glyph-name="f_f_b" unicode="ffb" horiz-adv-x="1161" 
d="M852 508q68 0 119 -25t78 -65.5t39.5 -82.5t12.5 -85q0 -34 -7.5 -68t-25.5 -69t-44.5 -61.5t-70 -43t-96.5 -16.5q-89 0 -151 59l-12 -37q-5 -14 -20 -14h-30q-6 0 -10.5 4.5t-4.5 10.5v558q-32 43 -93 43q-34 0 -58.5 -19t-28.5 -58v-39h105q6 0 10.5 -4.5t4.5 -10.5
v-52q0 -6 -4.5 -10.5t-10.5 -4.5h-105v-403q0 -6 -4.5 -10.5t-10.5 -4.5h-70q-6 0 -10.5 4.5t-4.5 10.5v403h-178v-402q0 -6 -4.5 -10.5t-10.5 -4.5h-70q-6 0 -10.5 4.5t-4.5 10.5v402h-46q-6 0 -10.5 4.5t-4.5 10.5v52q0 6 4.5 10.5t10.5 4.5h46v44q0 78 52 121t127 43
q84 0 144 -50q52 49 134 49q79 0 123 -50l11 29q5 14 20 14h32q6 0 10.5 -4.5t4.5 -10.5v-204q52 27 123 27zM349 543q0 24 4 40q-40 35 -98 35q-36 0 -60 -19.5t-24 -58.5v-40h178v43zM852 75q46 0 78.5 20.5t46.5 51.5t19.5 56t5.5 47q0 24 -6.5 50t-22.5 56t-49.5 49.5
t-79.5 19.5q-69 0 -115 -35v-248q40 -67 123 -67z" />
    <glyph glyph-name="f_f_h" unicode="ffh" horiz-adv-x="1128" 
d="M857 508q66 0 110.5 -21.5t65 -61t28 -78t7.5 -89.5v-243q0 -6 -4.5 -10.5t-10.5 -4.5h-69q-6 0 -10.5 4.5t-4.5 10.5v243q0 3 -0.5 24.5t-2 34.5t-8.5 35t-18.5 35.5t-34 24.5t-53.5 13q-43 3 -76 -16.5t-47 -46.5v-347q0 -6 -4.5 -10.5t-10.5 -4.5h-70q-6 0 -10.5 4.5
t-4.5 10.5v558q-32 43 -93 43q-34 0 -58.5 -19t-28.5 -58v-39h105q6 0 10.5 -4.5t4.5 -10.5v-52q0 -6 -4.5 -10.5t-10.5 -4.5h-105v-403q0 -6 -4.5 -10.5t-10.5 -4.5h-70q-6 0 -10.5 4.5t-4.5 10.5v403h-178v-402q0 -6 -4.5 -10.5t-10.5 -4.5h-70q-6 0 -10.5 4.5t-4.5 10.5
v402h-46q-6 0 -10.5 4.5t-4.5 10.5v52q0 6 4.5 10.5t10.5 4.5h46v44q0 78 52 121t127 43q84 0 145 -49q53 48 133 48q79 0 123 -50l11 29q5 14 20 14h32q6 0 10.5 -4.5t4.5 -10.5v-220q22 19 58 31t70 12zM349 543q0 24 4 40q-40 35 -98 35q-36 0 -60 -19.5t-24 -58.5v-40
h178v43z" />
    <glyph glyph-name="f_f_j" unicode="ffj" horiz-adv-x="815" 
d="M734 485v-488v-2q0 -12 -0.5 -23.5t-4 -37t-14.5 -46t-28.5 -42t-49 -33.5t-72.5 -12q-68 0 -123 39q-12 9 -3 23l27 41q8 14 21 6q38 -20 71 -20q76 0 76 107v421h-181v-402q0 -6 -4.5 -10.5t-10.5 -4.5h-70q-6 0 -10.5 4.5t-4.5 10.5v402h-182v-402q0 -6 -4.5 -10.5
t-10.5 -4.5h-70q-6 0 -10.5 4.5t-4.5 10.5v402h-46q-6 0 -10.5 4.5t-4.5 10.5v52q0 6 4.5 10.5t10.5 4.5h46v44q0 78 52 121t127 43q84 0 145 -49q48 48 131 48q60 0 114 -22q14 -5 9 -20l-16 -48q-5 -14 -19 -9q-44 14 -79 14t-58.5 -19t-23.5 -63v-40h266q6 0 10.5 -4.5
t4.5 -10.5zM353 500v44q0 20 3 37q-40 37 -101 37q-36 0 -60 -19.5t-24 -58.5v-40h182z" />
    <glyph glyph-name="f_f_k" unicode="ffk" horiz-adv-x="1101" 
d="M729 223v-208q0 -6 -4.5 -10.5t-10.5 -4.5h-70q-6 0 -10.5 4.5t-4.5 10.5v558q-32 43 -93 43q-34 0 -58.5 -19t-28.5 -58v-39h105q6 0 10.5 -4.5t4.5 -10.5v-52q0 -6 -4.5 -10.5t-10.5 -4.5h-105v-403q0 -6 -4.5 -10.5t-10.5 -4.5h-70q-6 0 -10.5 4.5t-4.5 10.5v403h-178
v-402q0 -6 -4.5 -10.5t-10.5 -4.5h-70q-6 0 -10.5 4.5t-4.5 10.5v402h-46q-6 0 -10.5 4.5t-4.5 10.5v52q0 6 4.5 10.5t10.5 4.5h46v44q0 78 52 121t127 43q84 0 145 -49q53 48 133 48q79 0 123 -50l11 29q5 14 20 14h32q6 0 10.5 -4.5t4.5 -10.5v-394l193 198q11 11 26 11
h100q2 0 4 -3q2 -1 -1 -4l-237 -233l254 -250q3 -3 2 -7q-2 -3 -5 -3h-102q-15 0 -26 11zM349 543q0 24 4 40q-40 35 -98 35q-36 0 -60 -19.5t-24 -58.5v-40h178v43z" />
    <glyph glyph-name=".notdef" horiz-adv-x="490" 
d="M210 209q0 -12 9 -21t22 -9q12 0 20.5 9t8.5 21t-8.5 20t-20.5 8q-13 0 -22 -8t-9 -20zM262 267v28q0 13 18 33.5t36.5 47t18.5 54.5q0 39 -24.5 60.5t-62.5 21.5q-55 0 -104 -52l29 -28q35 37 65 38q47 2 47 -41q0 -29 -34 -67t-34 -65v-30h45zM460 635v-570
q0 -6 -4.5 -10.5t-10.5 -4.5h-400q-6 0 -10.5 4.5t-4.5 10.5v570q0 6 4.5 10.5t10.5 4.5h400q6 0 10.5 -4.5t4.5 -10.5z" />
    <glyph glyph-name=".null" horiz-adv-x="0" 
 />
    <glyph glyph-name="nonmarkingreturn" horiz-adv-x="333" 
 />
    <glyph glyph-name="space" unicode=" " horiz-adv-x="300" 
 />
    <glyph glyph-name="exclam" unicode="!" horiz-adv-x="319" 
d="M209 684v-266l-18 -194q0 -7 -5 -11.5t-12 -4.5h-31q-7 0 -12 4.5t-5 11.5l-17 194v266q0 16 16 16h68q16 0 16 -16zM100 56q0 26 17 42.5t42 16.5t42.5 -17t17.5 -42t-17.5 -42.5t-42.5 -17.5t-42 17.5t-17 42.5z" />
    <glyph glyph-name="quotedbl" unicode="&#x22;" horiz-adv-x="339" 
d="M140 684l-17 -210q-2 -16 -17 -16h-31q-7 0 -12 4.5t-5 11.5l-17 210q0 16 15 16h69q15 0 15 -16zM298 684l-17 -210q-2 -16 -17 -16h-31q-7 0 -12 4.5t-5 11.5l-17 210q0 16 15 16h69q15 0 15 -16z" />
    <glyph glyph-name="numbersign" unicode="#" horiz-adv-x="572" 
d="M76 388h72v96q0 16 16 16h43q16 0 16 -16v-96h125v96q0 16 16 16h43q16 0 16 -16v-96h73q16 0 16 -16v-43q0 -16 -16 -16h-73v-125h73q16 0 16 -16v-43q0 -16 -16 -16h-73v-97q0 -16 -16 -16h-43q-16 0 -16 16v97h-125v-97q0 -16 -16 -16h-43q-16 0 -16 16v97h-72
q-16 0 -16 16v43q0 16 16 16h72v125h-72q-16 0 -16 16v43q0 16 16 16zM223 313v-125h125v125h-125z" />
    <glyph glyph-name="dollar" unicode="$" horiz-adv-x="621" 
d="M66 534q5 81 63 128t148 49v49q0 16 16 16h37q16 0 16 -16v-53q75 -11 160 -47q15 -7 9 -22l-24 -55q-5 -15 -21 -9q-76 28 -124 36v-211q38 -13 63 -22.5t57 -28t50.5 -39.5t31.5 -54t13 -73q0 -77 -60 -128.5t-155 -59.5v-84q0 -16 -16 -16h-37q-16 0 -16 16v83
q-112 7 -203 54q-14 7 -7 21l25 52q8 14 21 7q79 -37 164 -43v234q-46 13 -75 24.5t-63 32.5t-52.5 52.5t-21.5 74.5q0 21 1 32zM455 199q-5 37 -32 58.5t-77 38.5v-210q42 9 72 30t36 51q3 11 1 32zM166 526q0 -38 28.5 -61.5t82.5 -42.5v190q-106 -9 -111 -86z" />
    <glyph glyph-name="percent" unicode="%" horiz-adv-x="777" 
d="M328 547q0 -27 -7.5 -52t-23.5 -49.5t-46.5 -39t-71.5 -14.5t-71.5 14.5t-46.5 39t-23.5 49.5t-7.5 52q0 36 12.5 69t47.5 59.5t89 26.5t89 -26.5t47.5 -59.5t12.5 -69zM179 461q29 0 47 18t22 35t4 33t-4 33t-22 34.5t-47 17.5t-47 -17.5t-22.5 -34.5t-4.5 -33
q0 -11 3 -23.5t10 -27.5t23 -25t38 -10zM598 308q54 0 89 -26.5t47.5 -59.5t12.5 -69q0 -27 -7.5 -52t-23.5 -49.5t-46.5 -39t-71.5 -14.5t-71.5 14.5t-46.5 39t-23.5 49.5t-7.5 52q0 36 12.5 69t47.5 59.5t89 26.5zM598 67q29 0 47 18t22 35t4 33t-4 33t-22 34.5t-47 17.5
t-47 -17.5t-22.5 -34.5t-4.5 -33q0 -11 3 -23.5t10 -27.5t23 -25t38 -10zM478 700h49q6 0 9.5 -5t1.5 -10l-218 -670q-5 -15 -21 -15h-49q-6 0 -9.5 5t-1.5 10l218 670q5 15 21 15z" />
    <glyph glyph-name="ampersand" unicode="&#x26;" horiz-adv-x="699" 
d="M552 141l76 -81q11 -12 -1 -22l-44 -38q-13 -9 -23 2l-65 68q-83 -81 -201 -77q-93 3 -153 62t-60 137q-1 66 32.5 108.5t92.5 78.5l-25 27q-56 60 -56 139q0 64 45 112.5t128 48.5q78 0 120.5 -47t42.5 -111q0 -98 -116 -185l140 -151q24 49 39 115q4 16 19 13l52 -10
q16 -3 14 -19q-15 -97 -57 -170zM293 625q-44 0 -61.5 -32t-13.5 -55q0 -23 14 -47t53 -64q40 26 62 53.5t22 66.5q0 32 -20 55t-56 23zM302 81q76 0 131 55l-163 174q-91 -61 -92 -113t36.5 -84t87.5 -32z" />
    <glyph glyph-name="quotesingle" unicode="'" horiz-adv-x="181" 
d="M140 684l-17 -210q-2 -16 -17 -16h-31q-7 0 -12 4.5t-5 11.5l-17 210q0 16 15 16h69q15 0 15 -16z" />
    <glyph glyph-name="parenleft" unicode="(" horiz-adv-x="283" 
d="M30 290q0 247 149 466q9 13 22 4l38 -24q15 -8 6 -22q-113 -211 -113 -423q0 -219 113 -430q9 -14 -6 -23l-38 -24q-13 -7 -22 5q-149 219 -149 471z" />
    <glyph glyph-name="parenright" unicode=")" horiz-adv-x="283" 
d="M253 290q0 -252 -149 -471q-9 -12 -23 -5l-38 24q-13 10 -5 23q113 211 113 430q0 212 -113 423q-9 14 5 22l38 24q14 9 23 -4q149 -219 149 -466z" />
    <glyph glyph-name="asterisk" unicode="*" horiz-adv-x="471" 
d="M314 516l84 -53q12 -9 5 -23l-17 -30q-9 -14 -22 -7l-89 45l-5 -99q-2 -16 -17 -16h-35q-15 0 -17 16l-5 99l-89 -45q-15 -7 -22 7l-17 30q-8 13 5 23l83 53l-83 54q-13 10 -5 23l17 30q7 14 22 7l89 -46l5 100q2 16 17 16h35q15 0 17 -16l5 -100l89 46q13 7 22 -7
l17 -30q7 -14 -5 -23z" />
    <glyph glyph-name="plus" unicode="+" horiz-adv-x="553" 
d="M96 375h143v143q0 16 16 16h43q16 0 16 -16v-143h143q16 0 16 -16v-43q0 -16 -16 -16h-143v-143q0 -16 -16 -16h-43q-16 0 -16 16v143h-143q-16 0 -16 16v43q0 16 16 16z" />
    <glyph glyph-name="comma" unicode="," horiz-adv-x="298" 
d="M121 -155l-23 11q-13 8 -6 20q39 75 47 118q-25 2 -42 21t-17 45q0 28 18.5 46.5t46.5 18.5q38 0 55.5 -21t17.5 -52q0 -71 -75 -200q-9 -12 -22 -7z" />
    <glyph glyph-name="hyphen" unicode="-" horiz-adv-x="432" 
d="M95 330h242q6 0 10.5 -4.5t4.5 -10.5v-53q0 -6 -4.5 -10.5t-10.5 -4.5h-242q-6 0 -10.5 4.5t-4.5 10.5v53q0 6 4.5 10.5t10.5 4.5z" />
    <glyph glyph-name="period" unicode="." horiz-adv-x="291" 
d="M80 61q0 28 18.5 46.5t46.5 18.5q27 0 46.5 -19t19.5 -46t-19.5 -46.5t-46.5 -19.5t-46 19.5t-19 46.5z" />
    <glyph glyph-name="slash" unicode="/" horiz-adv-x="369" 
d="M334 686l-218 -672q-5 -14 -20 -14h-51q-5 0 -8.5 4.5t-1.5 9.5l218 672q5 14 20 14h51q5 0 8.5 -4.5t1.5 -9.5z" />
    <glyph glyph-name="zero" unicode="0" horiz-adv-x="638" 
d="M319 680q57 0 103 -22.5t74.5 -57.5t47.5 -81.5t26.5 -91t7.5 -89.5q0 -46 -7.5 -91t-26.5 -91.5t-47.5 -81.5t-74.5 -57t-103 -22t-103 22t-74.5 57t-47.5 81.5t-26.5 91.5t-7.5 91q0 45 7.5 89.5t26.5 91t47.5 81.5t74.5 57.5t103 22.5zM319 77q49 0 84 30.5t50 77
t21 84t6 69.5q0 24 -3 52.5t-13.5 67t-27 68.5t-47 51t-70.5 21t-70.5 -21t-47 -51t-27 -68.5t-13.5 -67t-3 -52.5q0 -32 6 -69.5t21 -84t50 -77t84 -30.5z" />
    <glyph glyph-name="one" unicode="1" horiz-adv-x="387" 
d="M297 667v-652q0 -6 -4.5 -10.5t-10.5 -4.5h-70q-6 0 -10.5 4.5t-4.5 10.5v511l-101 -61q-13 -9 -22 4l-25 37q-9 12 3 21l175 145q11 10 27 10h28q6 0 10.5 -4.5t4.5 -10.5z" />
    <glyph glyph-name="two" unicode="2" horiz-adv-x="524" 
d="M91 533l-37 37q-11 11 0 22q92 93 205 93q97 0 154.5 -54.5t49.5 -156.5q-5 -66 -83 -166l-175 -218h224q6 0 10.5 -4.5t4.5 -10.5v-60q0 -6 -4.5 -10.5t-10.5 -4.5h-361q-6 0 -10.5 4.5t-4.5 10.5v7q0 15 9 27l246 315q54 63 59 114q9 48 -15.5 86t-91.5 38
q-72 0 -148 -70q-12 -10 -21 1z" />
    <glyph glyph-name="three" unicode="3" horiz-adv-x="516" 
d="M381 337q40 -29 57.5 -71t17.5 -83q0 -30 -10 -60.5t-32 -62t-67.5 -51t-108.5 -19.5q-104 0 -187 72q-12 10 -1 21l32 39q10 10 21 1q68 -53 135 -53q52 0 88 29.5t36 83.5q0 55 -36 84.5t-88 29.5h-67q-6 0 -10.5 4.5t-4.5 10.5v50q0 6 4.5 10.5t10.5 4.5h67
q52 0 88 29.5t36 84.5q0 54 -36 83.5t-88 29.5q-67 0 -135 -53q-11 -9 -21 1l-32 39q-10 10 1 21q83 72 187 72q63 0 108.5 -19.5t67.5 -51t32 -62t10 -60.5q0 -41 -17.5 -83t-57.5 -71z" />
    <glyph glyph-name="four" unicode="4" horiz-adv-x="561" 
d="M423 139v-124q0 -6 -4.5 -10.5t-10.5 -4.5h-72q-6 0 -10.5 4.5t-4.5 10.5v124h-276q-6 0 -10.5 4.5t-4.5 10.5v24q0 14 8 28l296 456q8 13 23 13h51q6 0 10.5 -4.5t4.5 -10.5v-435h93q6 0 10.5 -4.5t4.5 -10.5v-56q0 -6 -4.5 -10.5t-10.5 -4.5h-93zM321 488l-168 -263
h168v263z" />
    <glyph glyph-name="five" unicode="5" horiz-adv-x="550" 
d="M71 98l40 38q10 9 21 -2q53 -57 123 -57q63 0 100.5 41.5t37.5 96.5t-37 95.5t-102 40.5h-138q-6 0 -10.5 4.5t-4.5 10.5v294q0 6 4.5 10.5t10.5 4.5h307q6 0 10.5 -4.5t4.5 -10.5v-56q0 -6 -4.5 -10.5t-10.5 -4.5h-222v-157h53q67 0 116 -21.5t73.5 -57t35.5 -71.5
t11 -73q0 -23 -6 -49.5t-23 -57t-42.5 -54.5t-68 -40t-96.5 -16q-114 0 -185 84q-8 12 2 22z" />
    <glyph glyph-name="six" unicode="6" horiz-adv-x="584" 
d="M360 679l29 -42q8 -12 -5 -20q-81 -49 -131 -107.5t-69 -111.5q15 15 48.5 26.5t59.5 11.5q67 0 115.5 -22.5t72.5 -59t34 -71.5t10 -71q0 -23 -6 -48.5t-22 -56.5t-41 -55.5t-67 -41t-96 -16.5t-96 17.5t-66.5 43t-41 58t-22 59.5t-5.5 51q-1 301 278 462q14 8 21 -6z
M292 80q63 0 99 41t36 97q0 55 -35.5 95.5t-99.5 40.5q-63 0 -97.5 -39.5t-36.5 -96.5q0 -56 35.5 -97t98.5 -41z" />
    <glyph glyph-name="seven" unicode="7" horiz-adv-x="471" 
d="M30 604v56q0 6 4.5 10.5t10.5 4.5h367q6 0 10.5 -4.5t4.5 -10.5v-11q0 -15 -6 -29l-246 -606q-6 -14 -21 -14h-72q-5 0 -8 4.5t-1 9.5l233 575h-261q-6 0 -10.5 4.5t-4.5 10.5z" />
    <glyph glyph-name="eight" unicode="8" horiz-adv-x="556" 
d="M421 337q40 -29 57.5 -71t17.5 -83q0 -30 -10 -60.5t-32 -62t-67.5 -51t-108.5 -19.5t-108.5 19.5t-67.5 51t-32 62t-10 60.5q0 40 18 82.5t57 71.5q-39 29 -57 71.5t-18 82.5q0 30 10 60.5t32 62t67.5 51t108.5 19.5t108.5 -19.5t67.5 -51t32 -62t10 -60.5
q0 -41 -17.5 -83t-57.5 -71zM278 70q52 0 88 29.5t36 83.5q0 55 -36 84.5t-88 29.5t-88 -29.5t-36 -84.5q0 -54 36 -83.5t88 -29.5zM278 377q52 0 88 29.5t36 84.5q0 54 -36 83.5t-88 29.5t-88 -29.5t-36 -83.5q0 -55 36 -84.5t88 -29.5z" />
    <glyph glyph-name="nine" unicode="9" horiz-adv-x="584" 
d="M224 -4l-29 42q-7 12 5 21q80 50 130.5 108t69.5 111q-15 -15 -48.5 -26.5t-59.5 -11.5q-67 0 -115.5 22.5t-72.5 59t-34 71.5t-10 71q0 23 6 48.5t22 56.5t41 55.5t67 41t96 16.5t96 -17.5t66.5 -43t41 -58t22 -59.5t5.5 -51q1 -301 -278 -462q-14 -8 -21 5zM292 596
q-63 0 -99 -41t-36 -97q0 -55 35.5 -95.5t99.5 -40.5q63 0 97.5 39.5t36.5 96.5q0 56 -35.5 97t-98.5 41z" />
    <glyph glyph-name="colon" unicode=":" horiz-adv-x="291" 
d="M80 61q0 28 18.5 46.5t46.5 18.5q27 0 46.5 -19t19.5 -46t-19.5 -46.5t-46.5 -19.5t-46 19.5t-19 46.5zM80 438q0 28 18.5 46.5t46.5 18.5q27 0 46.5 -19t19.5 -46t-19.5 -46.5t-46.5 -19.5t-46 19.5t-19 46.5z" />
    <glyph glyph-name="semicolon" unicode=";" horiz-adv-x="298" 
d="M80 437q0 28 18.5 46.5t46.5 18.5q27 0 46.5 -19t19.5 -46t-19.5 -46.5t-46.5 -19.5t-46 19.5t-19 46.5zM121 -155l-23 11q-13 8 -6 20q39 75 47 118q-25 2 -42 21t-17 45q0 28 18.5 46.5t46.5 18.5q38 0 55.5 -21t17.5 -52q0 -71 -75 -200q-9 -12 -22 -7z" />
    <glyph glyph-name="less" unicode="&#x3c;" horiz-adv-x="429" 
d="M386 433l-211 -134l211 -136q14 -8 5 -21l-25 -43q-8 -14 -20 -5l-304 182q-12 7 -12 21q0 15 12 22l304 183q13 7 20 -5l25 -43q9 -13 -5 -21z" />
    <glyph glyph-name="equal" unicode="=" horiz-adv-x="502" 
d="M407 435h-312q-6 0 -10.5 4.5t-4.5 10.5v45q0 6 4.5 10.5t10.5 4.5h312q6 0 10.5 -4.5t4.5 -10.5v-45q0 -6 -4.5 -10.5t-10.5 -4.5zM407 197h-312q-6 0 -10.5 4.5t-4.5 10.5v45q0 6 4.5 10.5t10.5 4.5h312q6 0 10.5 -4.5t4.5 -10.5v-45q0 -6 -4.5 -10.5t-10.5 -4.5z" />
    <glyph glyph-name="greater" unicode="&#x3e;" horiz-adv-x="429" 
d="M254 299l-211 134q-14 8 -6 21l25 43q9 12 21 5l304 -183q12 -7 12 -22q0 -14 -12 -21l-304 -182q-12 -8 -21 5l-25 43q-8 13 6 21z" />
    <glyph glyph-name="question" unicode="?" horiz-adv-x="549" 
d="M215 56q0 25 17.5 42t43.5 17q25 0 42.5 -17t17.5 -42t-17.5 -42.5t-42.5 -17.5t-43 17.5t-18 42.5zM321 267l-2 -43q-2 -15 -16 -15h-59q-6 0 -10.5 4.5t-4.5 10.5v45q0 30 14.5 58.5t34.5 51t40.5 46t35 53t14.5 61.5q0 33 -20.5 59.5t-74.5 24.5q-57 -2 -124 -68
q-11 -9 -22 0l-36 36q-11 11 -1 22q48 50 94 72.5t108 22.5q78 0 127.5 -44.5t49.5 -123.5q0 -44 -23 -88t-51 -73t-51 -60t-23 -52z" />
    <glyph glyph-name="at" unicode="@" horiz-adv-x="1135" 
d="M575 719q227 0 363.5 -133.5t136.5 -340.5q0 -47 -7.5 -92t-26 -89.5t-46 -78t-70 -54t-95.5 -20.5q-43 0 -73.5 20t-43.5 58l-2 1q-62 -59 -151 -59q-53 0 -96.5 16.5t-70 43t-44.5 61.5t-25.5 69t-7.5 68q0 44 12.5 86t39 82t76.5 64.5t116 24.5q89 0 151 -59l11 37
q5 14 20 14h31q6 0 10.5 -4.5t4.5 -10.5v-361q1 -31 13 -48.5t45 -17.5q57 0 94 70t37 175q0 169 -108.5 278.5t-296.5 109.5q-194 0 -305 -122.5t-109 -329.5q1 -62 19.5 -121t55.5 -116t102 -105t151 -78q13 -6 8 -19l-24 -55q-5 -14 -20 -9q-190 67 -288.5 199.5
t-100.5 303.5q-2 237 139 389.5t375 152.5zM688 81v215q-40 67 -123 67q-46 0 -78.5 -20.5t-46.5 -51.5t-19.5 -56t-5.5 -47t5.5 -47t20 -56t47 -51t77.5 -20q83 0 123 67z" />
    <glyph glyph-name="A" unicode="A" horiz-adv-x="690" 
d="M542 15l-68 170h-258l-68 -170q-6 -14 -21 -14h-82q-5 0 -8 4.5t-1 9.5l289 679q7 13 20 13q14 0 19 -13l290 -679q2 -5 -1 -9.5t-8 -4.5h-82q-15 0 -21 14zM345 505l-93 -231h186z" />
    <glyph glyph-name="B" unicode="B" horiz-adv-x="662" 
d="M517 350q41 -21 63 -66.5t22 -85.5q0 -34 -12.5 -66.5t-38.5 -63t-75.5 -49.5t-116.5 -19h-244q-6 0 -10.5 4.5t-4.5 10.5v670q0 6 4.5 10.5t10.5 4.5h244q67 0 116.5 -19t75.5 -50t38.5 -63.5t12.5 -66.5q0 -43 -21.5 -84t-63.5 -67zM369 90q39 0 66.5 12.5t39.5 32
t17 35t5 28.5q0 40 -26.5 70.5t-97.5 31.5h-172v-210h168zM373 391q38 1 64.5 13t38.5 30.5t16.5 34.5t4.5 32q0 13 -5 29t-17 35.5t-39.5 32.5t-66.5 13h-168v-220h172z" />
    <glyph glyph-name="C" unicode="C" horiz-adv-x="725" 
d="M654 587l-45 -45q-11 -9 -21 1q-33 32 -82.5 54t-99.5 22q-60 0 -106 -22t-71 -52.5t-40.5 -70.5t-20 -69t-4.5 -54t4.5 -54t20 -68.5t40.5 -70t71 -52.5t106 -22q97 0 187 74q12 10 20 -2l41 -51q9 -12 -2 -23q-99 -91 -246 -91q-77 0 -138.5 23.5t-99 60t-63 85
t-35.5 96t-10 95.5q0 47 10 93.5t35.5 95.5t63 86t99 60.5t138.5 23.5q150 0 249 -102q11 -11 -1 -21z" />
    <glyph glyph-name="D" unicode="D" horiz-adv-x="748" 
d="M342 0h-227q-6 0 -10.5 4.5t-4.5 10.5v670q0 6 4.5 10.5t10.5 4.5h227q77 0 138.5 -22.5t99 -58t63 -83t35.5 -93t10 -92.5q0 -48 -10 -94.5t-35 -93.5t-63.5 -82.5t-99.5 -58t-138 -22.5zM202 90h140q60 0 106 21t70.5 51t40 68.5t20 67t4.5 53.5t-4.5 53.5t-20 67
t-40 68t-70.5 50.5t-106 21h-140v-521z" />
    <glyph glyph-name="E" unicode="E" horiz-adv-x="620" 
d="M467 300h-265v-210h343q6 0 10.5 -4.5t4.5 -10.5v-60q0 -6 -4.5 -10.5t-10.5 -4.5h-430q-6 0 -10.5 4.5t-4.5 10.5v670q0 6 4.5 10.5t10.5 4.5h430q6 0 10.5 -4.5t4.5 -10.5v-60q0 -6 -4.5 -10.5t-10.5 -4.5h-343v-220h265q6 0 10.5 -4.5t4.5 -10.5v-60q0 -6 -4.5 -10.5
t-10.5 -4.5z" />
    <glyph glyph-name="F" unicode="F" horiz-adv-x="620" 
d="M467 300h-265v-285q0 -6 -4.5 -10.5t-10.5 -4.5h-72q-6 0 -10.5 4.5t-4.5 10.5v670q0 6 4.5 10.5t10.5 4.5h430q6 0 10.5 -4.5t4.5 -10.5v-60q0 -6 -4.5 -10.5t-10.5 -4.5h-343v-220h265q6 0 10.5 -4.5t4.5 -10.5v-60q0 -6 -4.5 -10.5t-10.5 -4.5z" />
    <glyph glyph-name="G" unicode="G" horiz-adv-x="717" 
d="M554 250h-132q-6 0 -10.5 4.5t-4.5 10.5v60q0 6 4.5 10.5t10.5 4.5h220q6 0 10.5 -4.5t4.5 -10.5v-221q0 -16 -11 -25q-96 -88 -240 -88q-77 0 -138.5 23.5t-99 60t-63 85t-35.5 96t-10 95.5q0 47 10 93.5t35.5 95.5t63 86t99 60.5t138.5 23.5q81 0 134.5 -21t98.5 -67
q10 -10 0 -22l-44 -44q-9 -11 -21 -1q-30 27 -75 45.5t-93 18.5q-60 0 -106 -22t-71 -52.5t-40.5 -70.5t-20 -69t-4.5 -54t4.5 -54t20 -68.5t40.5 -70t71 -52.5t106 -22q87 0 148 45v121z" />
    <glyph glyph-name="H" unicode="H" horiz-adv-x="767" 
d="M203 300v-285q0 -6 -4.5 -10.5t-10.5 -4.5h-73q-6 0 -10.5 4.5t-4.5 10.5v670q0 6 4.5 10.5t10.5 4.5h73q6 0 10.5 -4.5t4.5 -10.5v-295h361v295q0 6 4.5 10.5t10.5 4.5h73q6 0 10.5 -4.5t4.5 -10.5v-670q0 -6 -4.5 -10.5t-10.5 -4.5h-73q-6 0 -10.5 4.5t-4.5 10.5v285
h-361z" />
    <glyph glyph-name="I" unicode="I" horiz-adv-x="303" 
d="M203 685v-670q0 -6 -4.5 -10.5t-10.5 -4.5h-73q-6 0 -10.5 4.5t-4.5 10.5v670q0 6 4.5 10.5t10.5 4.5h73q6 0 10.5 -4.5t4.5 -10.5z" />
    <glyph glyph-name="J" unicode="J" 
d="M34 187l61 23q13 5 19 -9q43 -115 148 -113q39 1 68 16t43.5 34.5t23 47t10 45t1.5 36.5v418q0 6 4.5 10.5t10.5 4.5h74q6 0 10.5 -4.5t4.5 -10.5v-418q0 -47 -11.5 -91t-37.5 -87t-77.5 -69t-123.5 -26q-101 0 -156 46t-82 128q-3 14 10 19z" />
    <glyph glyph-name="K" unicode="K" horiz-adv-x="697" 
d="M188 0h-73q-6 0 -10.5 4.5t-4.5 10.5v670q0 6 4.5 10.5t10.5 4.5h73q6 0 10.5 -4.5t4.5 -10.5v-288l297 292q11 11 26 11h94q9 0 9 -9q0 -8 -6 -14l-322 -316l346 -343q5 -5 5 -12q0 -6 -7 -6h-98q-15 0 -26 11l-318 317v-313q0 -6 -4.5 -10.5t-10.5 -4.5z" />
    <glyph glyph-name="L" unicode="L" horiz-adv-x="530" 
d="M203 685v-595h252q6 0 10.5 -4.5t4.5 -10.5v-60q0 -6 -4.5 -10.5t-10.5 -4.5h-340q-6 0 -10.5 4.5t-4.5 10.5v670q0 6 4.5 10.5t10.5 4.5h73q6 0 10.5 -4.5t4.5 -10.5z" />
    <glyph glyph-name="M" unicode="M" horiz-adv-x="1010" 
d="M487 3l-196 455l-145 -444q-5 -14 -20 -14h-81q-5 0 -8.5 4.5t-1.5 9.5l229 684q3 10 13 10q12 0 15 -10l213 -500l213 500q3 10 14 10t14 -10l229 -684q2 -5 -1.5 -9.5t-8.5 -4.5h-81q-15 0 -20 14l-145 444l-196 -455q-5 -12 -18 -12t-18 12z" />
    <glyph glyph-name="N" unicode="N" horiz-adv-x="767" 
d="M564 232v453q0 6 4.5 10.5t10.5 4.5h73q6 0 10.5 -4.5t4.5 -10.5v-681q0 -9 -9 -9t-15 7l-439 471l-1 -458q0 -6 -4.5 -10.5t-10.5 -4.5h-73q-6 0 -10.5 4.5t-4.5 10.5v682q0 10 9 10t16 -7z" />
    <glyph glyph-name="O" unicode="O" horiz-adv-x="812" 
d="M406 710q77 0 138.5 -23.5t99 -60.5t63 -86t35.5 -95.5t10 -93.5q0 -48 -10 -95.5t-35.5 -96t-63 -85t-99 -60t-138.5 -23.5t-138.5 23.5t-99 60t-63 85t-35.5 96t-10 95.5q0 47 10 93.5t35.5 95.5t63 86t99 60.5t138.5 23.5zM406 82q60 0 106 22t70.5 53t40 71t20 69
t4.5 54t-4.5 54t-20 69t-40 70.5t-70.5 52.5t-106 22t-106 -22t-71 -52.5t-40.5 -70.5t-20 -69t-4.5 -54t4.5 -54t20 -69t40.5 -71t71 -53t106 -22z" />
    <glyph glyph-name="P" unicode="P" horiz-adv-x="664" 
d="M203 260v-245q0 -6 -4.5 -10.5t-10.5 -4.5h-73q-6 0 -10.5 4.5t-4.5 10.5v670q0 6 4.5 10.5t10.5 4.5h246q66 0 116 -21t76 -55.5t38.5 -70.5t12.5 -72q0 -95 -70.5 -158t-158.5 -63h-172zM370 351q38 1 65.5 15t40.5 35.5t19 41.5t6 38q0 20 -6 40t-19.5 41.5t-42 35
t-67.5 13.5h-163v-260h167z" />
    <glyph glyph-name="Q" unicode="Q" horiz-adv-x="807" 
d="M599 41l153 -183q3 -3 2 -7.5t-6 -4.5h-92q-16 0 -25 11l-125 145q-47 -11 -100 -11q-77 0 -138.5 23.5t-99 60t-63 85t-35.5 96t-10 95.5q0 47 10 93.5t35.5 95.5t63 86t99 60.5t138.5 23.5t138.5 -23.5t99 -60.5t63 -86t35.5 -95.5t10 -93.5q0 -90 -37 -175.5
t-116 -134.5zM406 82q60 0 106 22t70.5 53t40 71t20 69t4.5 54t-4.5 54t-20 69t-40 70.5t-70.5 52.5t-106 22t-106 -22t-71 -52.5t-40.5 -70.5t-20 -69t-4.5 -54t4.5 -54t20 -69t40.5 -71t71 -53t106 -22z" />
    <glyph glyph-name="R" unicode="R" horiz-adv-x="662" 
d="M201 260v-245q0 -6 -4.5 -10.5t-10.5 -4.5h-71q-6 0 -10.5 4.5t-4.5 10.5v670q0 6 4.5 10.5t10.5 4.5h244q66 0 116 -21t76 -55.5t38.5 -70.5t12.5 -72q0 -75 -44.5 -130.5t-111.5 -78.5l122 -258q2 -5 -1 -9.5t-8 -4.5h-80q-16 0 -21 14l-116 246h-141zM368 351
q38 1 65.5 15t40.5 35.5t19 41.5t6 38q0 20 -6 40t-19.5 41.5t-42 35t-67.5 13.5h-163v-260h167z" />
    <glyph glyph-name="S" unicode="S" horiz-adv-x="622" 
d="M169 526q0 -32 21.5 -55t56.5 -36t77 -25t83.5 -28.5t76.5 -39t56.5 -63.5t21.5 -97q0 -81 -71 -135.5t-177 -54.5q-129 0 -241 55q-13 7 -7 20l26 54q7 13 21 8q99 -46 193 -46q61 0 105 28t44 72t-29 73.5t-72 42t-93.5 29t-93.5 34t-72 57.5t-29 99q0 89 60.5 141
t157.5 52q115 0 226 -50q14 -5 8 -20l-26 -57q-5 -14 -20 -9q-103 40 -165 40q-63 0 -99 -19t-39 -70z" />
    <glyph glyph-name="T" unicode="T" horiz-adv-x="601" 
d="M248 15v595h-188q-6 0 -10.5 4.5t-4.5 10.5v60q0 6 4.5 10.5t10.5 4.5h481q6 0 10.5 -4.5t4.5 -10.5v-60q0 -6 -4.5 -10.5t-10.5 -4.5h-190v-595q0 -6 -4.5 -10.5t-10.5 -4.5h-73q-6 0 -10.5 4.5t-4.5 10.5z" />
    <glyph glyph-name="U" unicode="U" horiz-adv-x="725" 
d="M362 82q39 0 70 14.5t48.5 36t29.5 48t16.5 47.5t4.5 38v419q0 6 4.5 10.5t10.5 4.5h74q6 0 10.5 -4.5t4.5 -10.5v-419q0 -47 -15 -92.5t-45.5 -87t-85.5 -67.5t-127 -26t-127 26t-85.5 67.5t-45 87t-14.5 92.5v419q0 6 4.5 10.5t10.5 4.5h72q6 0 10.5 -4.5t4.5 -10.5
v-419q0 -17 4.5 -38t16.5 -47.5t30 -48t49 -36t70 -14.5z" />
    <glyph glyph-name="V" unicode="V" horiz-adv-x="690" 
d="M345 196l197 490q7 14 21 14h82q5 0 8 -4.5t1 -9.5l-290 -679q-5 -13 -19 -13q-13 0 -20 13l-289 679q-2 5 1 9.5t8 4.5h82q14 0 21 -14z" />
    <glyph glyph-name="W" unicode="W" horiz-adv-x="1105" 
d="M552 709q13 0 18 -12l189 -481l197 470q7 14 21 14h82q5 0 8 -4.5t1 -9.5l-293 -683q-3 -11 -16 -11q-12 0 -15 11l-192 477l-192 -477q-3 -11 -16 -11q-11 0 -16 11l-292 683q-2 5 1 9.5t8 4.5h82q14 0 21 -14l197 -470l189 481q5 12 18 12z" />
    <glyph glyph-name="X" unicode="X" horiz-adv-x="618" 
d="M484 700h89q5 0 7 -4.5t0 -8.5l-215 -336l215 -338q2 -4 0 -8.5t-7 -4.5h-87q-15 0 -23 13l-154 249l-154 -249q-8 -13 -23 -13h-87q-5 0 -7 4t0 9l215 338l-215 336q-2 5 0 9t7 4h89q15 0 23 -13l152 -247l152 247q8 13 23 13z" />
    <glyph glyph-name="Y" unicode="Y" horiz-adv-x="636" 
d="M369 317v-302q0 -6 -4.5 -10.5t-10.5 -4.5h-73q-6 0 -10.5 4.5t-4.5 10.5v300l-228 372q-3 5 -0.5 9t7.5 4h85q15 0 23 -13l164 -279l165 279q8 13 23 13h86q5 0 7.5 -4t-0.5 -9z" />
    <glyph glyph-name="Z" unicode="Z" horiz-adv-x="639" 
d="M220 90h344q6 0 10.5 -4.5t4.5 -10.5v-60q0 -6 -4.5 -10.5t-10.5 -4.5h-481q-5 0 -8.5 4t-3.5 8q0 14 6 24l339 575h-315q-6 0 -10.5 4.5t-4.5 10.5v59q0 6 4.5 10.5t10.5 4.5h457q11 0 11 -11t-6 -21z" />
    <glyph glyph-name="bracketleft" unicode="[" horiz-adv-x="248" 
d="M30 -185v946q0 6 4.5 10.5t10.5 4.5h158q6 0 10.5 -4.5t4.5 -10.5v-45q0 -6 -4.5 -10.5t-10.5 -4.5h-74v-826h74q6 0 10.5 -4.5t4.5 -10.5v-45q0 -6 -4.5 -10.5t-10.5 -4.5h-158q-6 0 -10.5 4.5t-4.5 10.5z" />
    <glyph glyph-name="backslash" unicode="\" horiz-adv-x="369" 
d="M253 14l-218 672q-2 5 1.5 9.5t8.5 4.5h51q15 0 20 -14l218 -672q2 -5 -1.5 -9.5t-8.5 -4.5h-51q-15 0 -20 14z" />
    <glyph glyph-name="bracketright" unicode="]" horiz-adv-x="248" 
d="M218 762v-946q0 -6 -4.5 -10.5t-10.5 -4.5h-158q-6 0 -10.5 4.5t-4.5 10.5v45q0 6 4.5 10.5t10.5 4.5h74v826h-74q-6 0 -10.5 4.5t-4.5 10.5v45q0 6 4.5 10.5t10.5 4.5h158q6 0 10.5 -4.5t4.5 -10.5z" />
    <glyph glyph-name="asciicircum" unicode="^" horiz-adv-x="628" 
d="M325 708l194 -245q8 -12 -2 -22l-29 -26q-11 -11 -21 1l-153 174l-153 -174q-11 -11 -21 -1l-29 26q-10 10 -2 22l194 245q3 6 11 6t11 -6z" />
    <glyph glyph-name="underscore" unicode="_" horiz-adv-x="412" 
d="M5 -51v33q0 6 4.5 10.5t10.5 4.5h372q6 0 10.5 -4.5t4.5 -10.5v-33q0 -6 -4.5 -10.5t-10.5 -4.5h-372q-6 0 -10.5 4.5t-4.5 10.5z" />
    <glyph glyph-name="grave" unicode="`" horiz-adv-x="510" 
d="M168 748l130 -97q12 -9 4 -21l-20 -29q-8 -13 -21 -4l-138 85q-13 8 -5 20l29 43q9 11 21 3z" />
    <glyph glyph-name="a" unicode="a" horiz-adv-x="536" 
d="M252 507q55 3 94 -8t60 -29.5t32.5 -49.5t14.5 -57t3 -64v-284q0 -6 -4.5 -10.5t-10.5 -4.5h-30q-15 0 -19 14l-12 38q-29 -29 -68.5 -45t-75.5 -16q-43 0 -76.5 11.5t-51.5 28t-29.5 38.5t-15 39.5t-3.5 33.5q0 41 13.5 71.5t38 47t52.5 26.5t64.5 12t65 1t62.5 -5v11
q0 72 -22 95t-76 23q-50 0 -122 -26q-15 -6 -20 8l-17 41q-7 13 7 21q72 34 146 39zM356 141v77q-203 25 -203 -68q0 -38 24.5 -59t61.5 -21q39 0 70.5 22t46.5 49z" />
    <glyph glyph-name="b" unicode="b" 
d="M303 508q68 0 119 -25t78 -65.5t39.5 -82.5t12.5 -85q0 -34 -7.5 -68t-25.5 -69t-44.5 -61.5t-70 -43t-96.5 -16.5q-89 0 -151 59l-12 -37q-5 -14 -20 -14h-30q-6 0 -10.5 4.5t-4.5 10.5v670q0 6 4.5 10.5t10.5 4.5h70q6 0 10.5 -4.5t4.5 -10.5v-204q52 27 123 27z
M303 75q46 0 78.5 20.5t46.5 51.5t19.5 56t5.5 47q0 24 -6.5 50t-22.5 56t-49.5 49.5t-79.5 19.5q-69 0 -115 -35v-248q40 -67 123 -67z" />
    <glyph glyph-name="c" unicode="c" horiz-adv-x="558" 
d="M487 416l-45 -41q-10 -10 -22 0q-50 44 -112 44t-105 -44t-43 -121q0 -70 39 -122.5t108 -52.5q64 0 116 47q11 11 21 0l37 -42q11 -11 -1 -22q-74 -72 -173 -72q-57 0 -101.5 17t-71.5 43t-44 62t-23.5 70.5t-6.5 71.5q0 43 12.5 85.5t39.5 83t78 65.5t119 25
q106 0 179 -76q11 -11 -1 -21z" />
    <glyph glyph-name="d" unicode="d" 
d="M447 700h70q6 0 10.5 -4.5t4.5 -10.5v-670q0 -6 -4.5 -10.5t-10.5 -4.5h-30q-15 0 -20 14l-12 37q-62 -59 -151 -59q-53 0 -96.5 16.5t-70 43t-44.5 61.5t-25.5 69t-7.5 68q0 43 12.5 85t39.5 82.5t78 65.5t119 25q71 0 123 -27v204q0 6 4.5 10.5t10.5 4.5zM432 142v248
q-46 35 -115 35q-46 0 -79.5 -19.5t-49.5 -49.5t-22.5 -56t-6.5 -50q0 -22 5.5 -47t19.5 -56t46.5 -51.5t78.5 -20.5q83 0 123 67z" />
    <glyph glyph-name="e" unicode="e" horiz-adv-x="542" 
d="M452 127l33 -40q11 -11 -1 -21q-81 -72 -190 -72q-68 0 -119 25t-78 65.5t-39.5 83t-12.5 86.5q0 43 12.5 85t39.5 82.5t78 65.5t119 25q109 0 162 -73.5t36 -193.5q-2 -15 -17 -15h-330q3 -25 11 -47.5t23.5 -47.5t45 -40t69.5 -15q78 0 137 48q11 9 21 -1zM294 429
q-115 0 -145 -125h252q7 46 -18.5 84t-88.5 41z" />
    <glyph glyph-name="f" unicode="f" horiz-adv-x="362" 
d="M367 665l-16 -48q-5 -14 -19 -9q-44 14 -79 14t-58.5 -19t-23.5 -63v-40h88q6 0 10.5 -4.5t4.5 -10.5v-52q0 -6 -4.5 -10.5t-10.5 -4.5h-88v-402q0 -6 -4.5 -10.5t-10.5 -4.5h-70q-6 0 -10.5 4.5t-4.5 10.5v402h-46q-6 0 -10.5 4.5t-4.5 10.5v52q0 6 4.5 10.5t10.5 4.5
h46v44q0 80 49 121.5t124 41.5q60 0 114 -22q14 -5 9 -20z" />
    <glyph glyph-name="g" unicode="g" horiz-adv-x="559" 
d="M310 66q58 -1 97.5 -12.5t58 -32t25.5 -42.5t6 -50q-1 -18 -11 -40t-32 -46t-65.5 -40t-102.5 -16q-119 0 -172.5 46.5t-53.5 103.5q2 76 69 104q-54 20 -56 71q-2 36 14 61.5t45 32.5q-39 52 -39 119q0 31 9.5 61t29.5 58.5t58 46t89 17.5q59 0 102 -25l62 57
q11 10 22 -1l33 -33q11 -9 1 -21l-59 -62q26 -49 26 -98q0 -70 -45.5 -127t-141.5 -57q-43 0 -75 12q-23 3 -35.5 -9t-12.5 -31q0 -23 22 -34.5t55 -11.5q11 0 39 -0.5t38 -0.5zM279 425q-26 0 -45 -11.5t-27 -29.5t-11.5 -32.5t-3.5 -26.5t3.5 -26.5t11.5 -32.5t27 -29.5
t45 -11.5t45 11.5t27 29.5t11.5 32.5t3.5 26.5t-3.5 26.5t-11.5 32.5t-27 29.5t-45 11.5zM406 -67q3 24 -23.5 36.5t-103.5 12.5t-103 -11.5t-26 -37.5q0 -5 2.5 -11.5t11.5 -15.5t22 -16t37.5 -12t55.5 -6q34 0 59.5 6t38 14t19.5 18t8.5 15t1.5 8z" />
    <glyph glyph-name="h" unicode="h" horiz-adv-x="579" 
d="M165 0h-70q-6 0 -10.5 4.5t-4.5 10.5v670q0 6 4.5 10.5t10.5 4.5h70q6 0 10.5 -4.5t4.5 -10.5v-220q22 19 58 31t70 12q66 0 110.5 -21.5t65 -61t28 -78t7.5 -89.5v-243q0 -6 -4.5 -10.5t-10.5 -4.5h-69q-6 0 -10.5 4.5t-4.5 10.5v243q0 3 -0.5 24.5t-2 34.5t-8.5 35
t-18.5 35.5t-34 24.5t-53.5 13q-43 3 -76 -16.5t-47 -46.5v-347q0 -6 -4.5 -10.5t-10.5 -4.5z" />
    <glyph glyph-name="i" unicode="i" horiz-adv-x="279" 
d="M80 652q0 25 17 42.5t42 17.5t42.5 -17.5t17.5 -42.5t-17.5 -42t-42.5 -17t-42 16.5t-17 42.5zM189 485v-471q0 -6 -4.5 -10.5t-10.5 -4.5h-70q-6 0 -10.5 4.5t-4.5 10.5v471q0 6 4.5 10.5t10.5 4.5h70q6 0 10.5 -4.5t4.5 -10.5z" />
    <glyph glyph-name="j" unicode="j" horiz-adv-x="263" 
d="M64 652q0 25 17 42.5t42 17.5t42.5 -17.5t17.5 -42.5t-17.5 -42t-42.5 -17t-42 16.5t-17 42.5zM-74 -90q38 -20 71 -20q76 0 76 107v488q0 6 4.5 10.5t10.5 4.5h70q6 0 10.5 -4.5t4.5 -10.5v-488v-2q0 -12 -0.5 -23.5t-4 -37t-14.5 -46t-28.5 -42t-49 -33.5t-72.5 -12
q-68 0 -123 39q-12 9 -3 23l27 41q8 14 21 6z" />
    <glyph glyph-name="k" unicode="k" horiz-adv-x="552" 
d="M180 223v-208q0 -6 -4.5 -10.5t-10.5 -4.5h-70q-6 0 -10.5 4.5t-4.5 10.5v670q0 6 4.5 10.5t10.5 4.5h70q6 0 10.5 -4.5t4.5 -10.5v-394l193 198q11 11 26 11h100q3 0 4 -3q1 -1 -1 -4l-237 -233l254 -250q3 -3 2 -7q-1 -3 -5 -3h-102q-15 0 -26 11z" />
    <glyph glyph-name="l" unicode="l" horiz-adv-x="280" 
d="M190 685v-670q0 -6 -4.5 -10.5t-10.5 -4.5h-70q-6 0 -10.5 4.5t-4.5 10.5v670q0 6 4.5 10.5t10.5 4.5h70q6 0 10.5 -4.5t4.5 -10.5z" />
    <glyph glyph-name="m" unicode="m" horiz-adv-x="878" 
d="M180 358v-343q0 -6 -4.5 -10.5t-10.5 -4.5h-70q-6 0 -10.5 4.5t-4.5 10.5v470q0 6 4.5 10.5t10.5 4.5h30q15 0 20 -14l12 -37q62 59 151 59q113 0 158 -66l7 7q62 59 151 59q45 0 79 -9.5t54.5 -29.5t33.5 -41t18.5 -53.5t7 -56.5t1.5 -60v-243q0 -6 -4.5 -10.5
t-10.5 -4.5h-69q-6 0 -10.5 4.5t-4.5 10.5v243q0 5 -0.5 24.5t-1 34t-6 35.5t-15.5 35t-29.5 25t-47.5 13q-80 5 -123 -67q6 -38 6 -100v-243q0 -6 -4.5 -10.5t-10.5 -4.5h-69q-6 0 -10.5 4.5t-4.5 10.5v243q1 9 0 25t-1 33.5t-6 36t-16 34t-29.5 26t-47.5 12.5
q-80 5 -123 -67z" />
    <glyph glyph-name="n" unicode="n" horiz-adv-x="579" 
d="M180 358v-343q0 -6 -4.5 -10.5t-10.5 -4.5h-70q-6 0 -10.5 4.5t-4.5 10.5v470q0 6 4.5 10.5t10.5 4.5h30q15 0 20 -14l12 -37q62 59 151 59q66 0 110.5 -21.5t65 -61t28 -78t7.5 -89.5v-243q0 -6 -4.5 -10.5t-10.5 -4.5h-71q-6 0 -10.5 4.5t-4.5 10.5v243q0 2 -1 25
t-2.5 36t-8.5 35.5t-18 35.5t-33 23.5t-52 10.5q-41 0 -74 -19.5t-49 -46.5z" />
    <glyph glyph-name="o" unicode="o" horiz-adv-x="618" 
d="M309 508q68 0 119 -25t78 -65.5t39.5 -82.5t12.5 -85q0 -44 -12.5 -86.5t-39.5 -82.5t-78 -64.5t-119 -24.5t-119 24.5t-78 64.5t-39.5 82.5t-12.5 86.5q0 43 12.5 85t39.5 82.5t78 65.5t119 25zM309 75q46 0 78.5 20.5t46.5 51.5t19.5 56t5.5 47t-5.5 47t-19.5 56
t-46.5 51.5t-78.5 20.5t-78.5 -20.5t-46.5 -51.5t-19.5 -56t-5.5 -47t5.5 -47t19.5 -56t46.5 -51.5t78.5 -20.5z" />
    <glyph glyph-name="p" unicode="p" 
d="M288 -8q-60 3 -108 27v-204q0 -6 -4.5 -10.5t-10.5 -4.5h-70q-6 0 -10.5 4.5t-4.5 10.5v670q0 6 4.5 10.5t10.5 4.5h30q15 0 20 -14l12 -37q62 59 151 59q53 0 96.5 -16.5t70 -43t44.5 -61.5t25.5 -69t7.5 -68q0 -42 -12 -83t-37 -80.5t-73 -65.5t-112 -29h-30zM303 425
q-83 0 -123 -67v-248q46 -35 115 -35q46 0 79.5 19.5t49.5 49.5t22.5 56t6.5 50q0 22 -5.5 47t-19.5 56t-46.5 51.5t-78.5 20.5z" />
    <glyph glyph-name="q" unicode="q" 
d="M294 -8q-64 3 -112 29t-73 65.5t-37 80.5t-12 83q0 34 7.5 68t25.5 69t44.5 61.5t70 43t96.5 16.5q89 0 151 -59l12 37q5 14 20 14h30q6 0 10.5 -4.5t4.5 -10.5v-670q0 -6 -4.5 -10.5t-10.5 -4.5h-70q-6 0 -10.5 4.5t-4.5 10.5v204q-48 -24 -108 -27h-30zM309 425
q-46 0 -78.5 -20.5t-46.5 -51.5t-19.5 -56t-5.5 -47q0 -24 6.5 -50t22.5 -56t49.5 -49.5t79.5 -19.5q69 0 115 35v248q-40 67 -123 67z" />
    <glyph glyph-name="r" unicode="r" horiz-adv-x="366" 
d="M353 488l-10 -57q-3 -14 -18 -12q-8 1 -24 1q-43 0 -77 -18.5t-44 -48.5v-338q0 -6 -4.5 -10.5t-10.5 -4.5h-70q-6 0 -10.5 4.5t-4.5 10.5v470q0 6 4.5 10.5t10.5 4.5h30q15 0 20 -14l12 -37q62 59 151 59q12 0 33 -3q6 -1 9.5 -6t2.5 -11z" />
    <glyph glyph-name="s" unicode="s" horiz-adv-x="492" 
d="M163 369q0 -25 27.5 -41t67.5 -28t79.5 -28t67 -50.5t27.5 -86.5q0 -64 -51.5 -103.5t-130.5 -39.5q-97 0 -177 43q-12 7 -7 21l23 46q6 15 19 7q71 -34 136 -34q36 0 60.5 16.5t24.5 42.5q0 30 -27 48.5t-65.5 29.5t-77 25.5t-65 46t-26.5 81.5q1 67 45.5 105t116.5 38
q84 0 166 -38q13 -7 8 -21l-23 -48q-5 -14 -20 -8q-70 28 -113 28q-82 0 -85 -52z" />
    <glyph glyph-name="t" unicode="t" horiz-adv-x="353" 
d="M97 417h-47q-6 0 -10.5 4.5t-4.5 10.5v53q0 6 4.5 10.5t10.5 4.5h47l8 84q2 15 17 15h60q6 0 10.5 -4.5t4.5 -10.5v-84h88q6 0 10.5 -4.5t4.5 -10.5v-53q0 -6 -4.5 -10.5t-10.5 -4.5h-88v-280q0 -30 10 -46.5t41 -13.5q16 1 50 9q15 2 18 -12l9 -44q3 -16 -12 -19
q-54 -15 -110 -15q-34 0 -57 14t-32.5 36.5t-13 39.5t-3.5 34v297z" />
    <glyph glyph-name="u" unicode="u" horiz-adv-x="579" 
d="M399 142v343q0 6 4.5 10.5t10.5 4.5h70q6 0 10.5 -4.5t4.5 -10.5v-470q0 -6 -4.5 -10.5t-10.5 -4.5h-30q-15 0 -20 14l-12 37q-62 -59 -151 -59q-66 0 -110.5 21.5t-65 61t-28 78t-7.5 89.5v243q0 6 4.5 10.5t10.5 4.5h71q6 0 10.5 -4.5t4.5 -10.5v-243q0 -2 1 -25
t2.5 -36t8.5 -35.5t18 -35.5t33 -23.5t52 -10.5q41 0 74 19.5t49 46.5z" />
    <glyph glyph-name="v" unicode="v" horiz-adv-x="511" 
d="M475 486l-205 -484q-5 -11 -17 -11t-17 11l-200 484q-2 5 1 9.5t8 4.5h77q15 0 20 -14l113 -290l113 290q7 14 21 14h77q5 0 8 -4.5t1 -9.5z" />
    <glyph glyph-name="w" unicode="w" horiz-adv-x="770" 
d="M385 506q14 0 21 -14l113 -275l113 269q7 14 21 14h77q5 0 8 -4.5t1 -9.5l-203 -483q-4 -9 -14 -9t-13 9l-124 292l-124 -292q-5 -9 -14 -9q-10 0 -13 9l-203 483q-2 5 1 9.5t8 4.5h77q14 0 21 -14l113 -269l113 275q7 14 21 14z" />
    <glyph glyph-name="x" unicode="x" horiz-adv-x="493" 
d="M359 500h89q5 0 7 -4.5t0 -8.5l-152 -237l152 -237q2 -4 0 -8.5t-7 -4.5h-89q-15 0 -23 13l-90 147l-89 -147q-8 -13 -23 -13h-89q-5 0 -7 4t0 9l152 237l-152 237q-2 5 0 9t7 4h89q15 0 23 -13l89 -148l90 148q8 13 23 13z" />
    <glyph glyph-name="y" unicode="y" horiz-adv-x="575" 
d="M145 486l143 -347l139 347q7 14 21 14h82q5 0 8 -4.5t1 -9.5l-284 -671q-6 -14 -21 -14h-76q-5 0 -8 4.5t-1 9.5l86 205l-199 466q-2 5 1 9.5t8 4.5h79q14 0 21 -14z" />
    <glyph glyph-name="z" unicode="z" horiz-adv-x="496" 
d="M75 423v62q0 6 4.5 10.5t10.5 4.5h338q13 0 13 -13t-7 -23l-224 -372h213q6 0 10.5 -4.5t4.5 -10.5v-62q0 -6 -4.5 -10.5t-10.5 -4.5h-349q-6 0 -10.5 4.5t-4.5 10.5v1q0 14 8 28l215 364h-192q-6 0 -10.5 4.5t-4.5 10.5z" />
    <glyph glyph-name="braceleft" unicode="{" horiz-adv-x="302" 
d="M249 776h8q6 0 10.5 -4.5t4.5 -10.5v-45q0 -6 -4.5 -10.5t-10.5 -4.5h-4q-5 0 -10.5 -1t-15 -7t-16.5 -16.5t-12.5 -32t-5.5 -50.5v-213q0 -33 -18.5 -56t-44.5 -33v-5q26 -8 44.5 -33.5t18.5 -59.5v-211q0 -29 5.5 -50.5t12.5 -32t16.5 -16.5t15 -7t10.5 -1h4
q6 0 10.5 -4.5t4.5 -10.5v-45q0 -6 -4.5 -10.5t-10.5 -4.5h-8q-7 0 -19.5 1.5t-38 11.5t-45.5 27t-36 51.5t-16 81.5v211q0 30 -14.5 47.5t-34.5 21.5q-15 4 -15 16v35q0 12 15 16q20 4 34.5 21.5t14.5 47.5v213q0 47 16 81.5t36 51.5t45.5 27t38 11.5t19.5 1.5z" />
    <glyph glyph-name="bar" unicode="|" horiz-adv-x="189" 
d="M114 -200h-39q-6 0 -10.5 4.5t-4.5 10.5v943q0 6 4.5 10.5t10.5 4.5h39q6 0 10.5 -4.5t4.5 -10.5v-943q0 -6 -4.5 -10.5t-10.5 -4.5z" />
    <glyph glyph-name="braceright" unicode="}" horiz-adv-x="302" 
d="M53 776q7 0 19.5 -1.5t38 -11.5t45.5 -27t36 -51.5t16 -81.5v-213q0 -30 14.5 -47.5t34.5 -21.5q15 -4 15 -16v-35q0 -12 -15 -16q-20 -4 -34.5 -21.5t-14.5 -47.5v-211q0 -47 -16 -81.5t-36 -51.5t-45.5 -27t-38 -11.5t-19.5 -1.5h-8q-6 0 -10.5 4.5t-4.5 10.5v45
q0 6 4.5 10.5t10.5 4.5h4q5 0 10.5 1t15 7t16.5 16.5t12.5 32t5.5 50.5v211q0 34 18.5 59.5t44.5 33.5v5q-26 10 -44.5 33t-18.5 56v213q0 29 -5.5 50.5t-12.5 32t-16.5 16.5t-15 7t-10.5 1h-4q-6 0 -10.5 4.5t-4.5 10.5v45q0 6 4.5 10.5t10.5 4.5h8z" />
    <glyph glyph-name="asciitilde" unicode="~" horiz-adv-x="614" 
d="M110 231l-38 26q-13 9 -4 22q61 94 156 94q35 0 88.5 -31t83.5 -31q44 0 90 53q10 12 20 2l37 -30q11 -11 4 -23q-60 -96 -152 -96q-39 0 -94.5 32t-81.5 32q-48 0 -88 -46q-8 -11 -21 -4z" />
    <glyph glyph-name="exclamdown" unicode="&#xa1;" horiz-adv-x="319" 
d="M209 90v-267q0 -6 -4.5 -10.5t-10.5 -4.5h-70q-6 0 -10.5 4.5t-4.5 10.5v267l17 195q0 6 4.5 10.5t11.5 4.5h33q6 0 11 -4.5t5 -10.5zM100 452q0 25 17 42.5t42 17.5t42.5 -17.5t17.5 -42.5t-17.5 -42t-42.5 -17t-42 16.5t-17 42.5z" />
    <glyph glyph-name="cent" unicode="&#xa2;" horiz-adv-x="558" 
d="M326 -106h-39q-6 0 -10.5 4.5t-4.5 10.5v83q-49 5 -87 23.5t-61 44.5t-38 60.5t-20.5 66.5t-5.5 67q0 40 10.5 79.5t33.5 78t66.5 65.5t101.5 34v70q0 6 4.5 10.5t10.5 4.5h39q6 0 10.5 -4.5t4.5 -10.5v-70q83 -8 147 -74q10 -12 -1 -21l-45 -41q-10 -10 -22 0
q-39 36 -79 44v-336q48 11 82 43q11 11 21 0l37 -42q11 -10 -1 -22q-61 -61 -139 -70v-83q0 -6 -4.5 -10.5t-10.5 -4.5zM160 254q0 -60 29.5 -109t82.5 -62v335q-49 -13 -80.5 -56.5t-31.5 -107.5z" />
    <glyph glyph-name="sterling" unicode="&#xa3;" horiz-adv-x="599" 
d="M95 4l-38 26q-13 9 -4 22q32 48 70 70v205h-46q-6 0 -10.5 4.5t-4.5 10.5v52q0 6 4.5 10.5t10.5 4.5h46v135q0 80 49 121.5t124 41.5q58 0 112 -22q14 -5 9 -20l-17 -47q-5 -14 -19 -9q-50 14 -81 14q-73 0 -77 -73v-141h149q6 0 10.5 -4.5t4.5 -10.5v-52
q0 -6 -4.5 -10.5t-10.5 -4.5h-149v-182q28 -4 78 -32.5t80 -28.5q44 0 90 53q10 12 20 2l37 -30q11 -11 4 -23q-60 -96 -152 -96q-39 0 -94.5 32t-81.5 32q-48 0 -88 -46q-8 -11 -21 -4z" />
    <glyph glyph-name="currency" unicode="&#xa4;" horiz-adv-x="651" 
d="M524 270q0 -64 -28 -114l84 -84q11 -11 0 -22l-27 -27q-11 -11 -22 0l-80 80q-49 -39 -126 -39q-75 0 -125 38l-80 -80q-11 -10 -22 1l-27 27q-11 11 0 22l84 83q-29 51 -29 115q0 71 34 124l-89 89q-11 11 0 22l27 27q11 11 22 0l88 -88q46 32 117 32q70 0 118 -33
l88 89q11 11 22 0l27 -27q11 -11 0 -22l-90 -90q34 -53 34 -123zM325 158q29 0 50 13t30 33t12.5 36t3.5 30t-3.5 30t-12.5 36t-30 33t-50 13t-50 -13t-30 -33t-12.5 -36t-3.5 -30t3.5 -30t12.5 -36t30 -33t50 -13z" />
    <glyph glyph-name="yen" unicode="&#xa5;" horiz-adv-x="629" 
d="M470 71h-104v-56q0 -6 -4.5 -10.5t-10.5 -4.5h-73q-6 0 -10.5 4.5t-4.5 10.5v56h-105q-6 0 -10.5 4.5t-4.5 10.5v45q0 6 4.5 10.5t10.5 4.5h105v95h-105q-6 0 -10.5 4.5t-4.5 10.5v45q0 6 4.5 10.5t10.5 4.5h104l-229 370q-3 3 -3 9q0 5 5 5h92q15 0 23 -13l164 -271
l165 271q8 13 23 13h92q5 0 5 -5q0 -6 -3 -9l-230 -369v-1h104q6 0 10.5 -4.5t4.5 -10.5v-45q0 -6 -4.5 -10.5t-10.5 -4.5h-104v-95h104q6 0 10.5 -4.5t4.5 -10.5v-45q0 -6 -4.5 -10.5t-10.5 -4.5z" />
    <glyph glyph-name="brokenbar" unicode="&#xa6;" horiz-adv-x="189" 
d="M129 167v-351q0 -6 -4.5 -10.5t-10.5 -4.5h-39q-6 0 -10.5 4.5t-4.5 10.5v351q0 6 4.5 10.5t10.5 4.5h39q6 0 10.5 -4.5t4.5 -10.5zM129 759v-351q0 -6 -4.5 -10.5t-10.5 -4.5h-39q-6 0 -10.5 4.5t-4.5 10.5v351q0 6 4.5 10.5t10.5 4.5h39q6 0 10.5 -4.5t4.5 -10.5z" />
    <glyph glyph-name="section" unicode="&#xa7;" horiz-adv-x="576" 
d="M89 -106l36 45q9 12 21 3q71 -51 132 -54q35 -2 64.5 18t33.5 54q4 38 -26 66.5t-100 62.5q-161 71 -156 198q1 41 23.5 72.5t46.5 48.5q-64 67 -62 137q3 65 55.5 115.5t148.5 47.5q78 -4 157 -58q13 -9 3 -21l-33 -49q-8 -13 -21 -4q-64 36 -111 39q-47 1 -71.5 -20
t-26.5 -49q0 -60 103 -110q43 -20 73.5 -38.5t59.5 -43.5t43 -56t13 -67q-2 -69 -76 -127q68 -74 66 -146q-3 -77 -63.5 -123t-144.5 -40q-101 7 -186 77q-11 9 -2 22zM191 289q-1 -11 1.5 -21.5t10 -20.5t13.5 -17.5t19.5 -17t20 -15t23.5 -14.5t22 -11.5t22.5 -11.5
t18.5 -9q44 36 46 79q1 18 -9.5 34t-31.5 30.5t-37.5 23.5t-43.5 21.5t-34 16.5q-41 -35 -41 -67z" />
    <glyph glyph-name="dieresis" unicode="&#xa8;" horiz-adv-x="579" 
d="M109 651q0 25 17 42.5t42 17.5t42.5 -17.5t17.5 -42.5t-17.5 -42t-42.5 -17q-26 0 -42.5 17t-16.5 42zM348 651q0 25 17 42.5t42 17.5t42.5 -17.5t17.5 -42.5t-17.5 -42t-42.5 -17t-42 17t-17 42z" />
    <glyph glyph-name="copyright" unicode="&#xa9;" horiz-adv-x="586" 
d="M293 705q105 0 179 -74t74 -179t-74 -179t-179 -74q-100 0 -176.5 74t-76.5 181q0 99 74 175t179 76zM293 250q84 0 143 59t59 143t-59 143.5t-143 59.5t-143 -59.5t-59 -143.5t59 -143t143 -59zM220 451q0 36 21 58t51 22q28 0 57 -20q13 -9 23 1l20 17q11 11 1 21
q-41 41 -101 41q-71 0 -106 -45t-35 -95t35 -95t106 -45q60 0 101 41q10 10 -1 21l-20 17q-10 10 -23 1q-29 -20 -57 -20q-30 0 -51 22t-21 58z" />
    <glyph glyph-name="ordfeminine" unicode="&#xaa;" horiz-adv-x="397" 
d="M184 710q51 3 84 -9t47 -37.5t18 -49.5t4 -60v-209q0 -6 -4.5 -10.5t-10.5 -4.5h-15q-15 0 -19 14l-8 25q-45 -46 -108 -46q-40 0 -68.5 12.5t-41 32t-17.5 36t-5 32.5q0 61 38.5 89t96.5 28q40 0 87 -15v20q0 56 -16.5 71.5t-56.5 15.5q-34 0 -87 -20q-15 -4 -20 9
l-11 27q-7 13 7 21q51 25 106 28zM262 435v45q-42 14 -81 14q-29 0 -50 -14t-21 -38q0 -27 19 -43.5t46 -16.5q29 0 52.5 16.5t34.5 36.5z" />
    <glyph glyph-name="guillemotleft" unicode="&#xab;" horiz-adv-x="473" 
d="M125 251l118 -140q10 -10 -1 -21l-26 -23q-11 -11 -21 1l-159 167q-6 7 -6 16t6 15l159 168q10 12 21 1l26 -23q11 -11 1 -21zM315 251l118 -140q10 -10 -1 -21l-26 -23q-11 -11 -21 1l-159 167q-6 7 -6 16t6 15l159 168q10 12 21 1l26 -23q11 -11 1 -21z" />
    <glyph glyph-name="logicalnot" unicode="&#xac;" horiz-adv-x="627" 
d="M547 405v-279q0 -6 -4.5 -10.5t-10.5 -4.5h-136q-6 0 -10.5 4.5t-4.5 10.5v132h-286q-6 0 -10.5 4.5t-4.5 10.5v132q0 6 4.5 10.5t10.5 4.5h437q6 0 10.5 -4.5t4.5 -10.5z" />
    <glyph glyph-name="uni00AD" unicode="&#xad;" horiz-adv-x="402" 
d="M75 234h252q6 0 10.5 -4.5t4.5 -10.5v-45q0 -6 -4.5 -10.5t-10.5 -4.5h-252q-6 0 -10.5 4.5t-4.5 10.5v45q0 6 4.5 10.5t10.5 4.5z" />
    <glyph glyph-name="registered" unicode="&#xae;" horiz-adv-x="586" 
d="M293 706q105 0 179 -74t74 -179t-74 -179t-179 -74q-100 0 -176.5 74t-76.5 181q0 99 74 175t179 76zM293 251q84 0 143 59t59 143t-59 143.5t-143 59.5t-143 -59.5t-59 -143.5t59 -143t143 -59zM251 411v-77q0 -6 -4.5 -10.5t-10.5 -4.5h-22q-6 0 -10.5 4.5t-4.5 10.5
v247q0 6 4.5 10.5t10.5 4.5h92q53 0 77 -28.5t24 -63.5q0 -28 -16 -51t-41 -34l44 -87q2 -5 -0.5 -9t-7.5 -4h-26q-16 0 -22 13l-40 79h-47zM310 460q24 1 33.5 15t9.5 29q0 16 -10 30t-35 14h-57v-88h59z" />
    <glyph glyph-name="macron" unicode="&#xaf;" horiz-adv-x="516" 
d="M128 666h271q6 0 10.5 -4.5t4.5 -10.5v-40q0 -6 -4.5 -10.5t-10.5 -4.5h-271q-6 0 -10.5 4.5t-4.5 10.5v40q0 6 4.5 10.5t10.5 4.5z" />
    <glyph glyph-name="degree" unicode="&#xb0;" horiz-adv-x="330" 
d="M165 440q-56 0 -95.5 39.5t-39.5 95.5t39.5 95.5t95.5 39.5t95.5 -39.5t39.5 -95.5t-39.5 -95.5t-95.5 -39.5zM165 508q25 0 44.5 20.5t19.5 46.5q0 25 -19.5 44.5t-44.5 19.5q-26 0 -46.5 -19.5t-20.5 -44.5q0 -26 20.5 -46.5t46.5 -20.5z" />
    <glyph glyph-name="plusminus" unicode="&#xb1;" horiz-adv-x="553" 
d="M95 115h363q6 0 10.5 -4.5t4.5 -10.5v-45q0 -6 -4.5 -10.5t-10.5 -4.5h-363q-6 0 -10.5 4.5t-4.5 10.5v45q0 6 4.5 10.5t10.5 4.5zM314 519v-144h144q6 0 10.5 -4.5t4.5 -10.5v-45q0 -6 -4.5 -10.5t-10.5 -4.5h-144v-103q0 -6 -4.5 -10.5t-10.5 -4.5h-45q-6 0 -10.5 4.5
t-4.5 10.5v103h-144q-6 0 -10.5 4.5t-4.5 10.5v45q0 6 4.5 10.5t10.5 4.5h144v144q0 6 4.5 10.5t10.5 4.5h45q6 0 10.5 -4.5t4.5 -10.5z" />
    <glyph glyph-name="twosuperior" unicode="&#xb2;" horiz-adv-x="282" 
d="M59 715l-16 16q-10 12 0 22q47 44 99 44q46 0 73 -27.5t27 -67.5q0 -43 -39 -89l-73 -86h89q6 0 10.5 -4.5t4.5 -10.5v-26q0 -6 -4.5 -10.5t-10.5 -4.5h-177q-4 0 -8 3.5t-4 8.5q0 12 8 23l120 143q26 32 26 57q0 15 -9.5 26.5t-31.5 11.5q-27 0 -62 -30q-11 -10 -22 1z
" />
    <glyph glyph-name="threesuperior" unicode="&#xb3;" horiz-adv-x="258" 
d="M228 702q0 -45 -32 -73q32 -27 32 -72q0 -36 -25 -66t-83 -30q-49 0 -89 34q-12 10 -1 21l12 13q9 11 21 1q30 -21 57 -21q23 0 38.5 12.5t15.5 35.5t-15.5 36t-38.5 13h-28q-6 0 -10.5 4.5t-4.5 10.5v17q0 6 4.5 10.5t10.5 4.5h28q23 0 38.5 13t15.5 36t-16 35.5
t-38 12.5q-27 0 -56 -22q-14 -8 -22 2l-12 13q-9 11 1 21q42 34 89 34q58 0 83 -30.5t25 -65.5z" />
    <glyph glyph-name="acute" unicode="&#xb4;" horiz-adv-x="510" 
d="M212 651l130 97q5 4 11 3t9 -6l29 -43q4 -4 2.5 -10.5t-6.5 -9.5l-138 -85q-13 -9 -21 4l-20 29q-8 12 4 21z" />
    <glyph glyph-name="mu" unicode="&#xb5;" horiz-adv-x="599" 
d="M180 27v-211q0 -6 -4.5 -10.5t-10.5 -4.5h-70q-6 0 -10.5 4.5t-4.5 10.5v669q0 6 4.5 10.5t10.5 4.5h70q6 0 10.5 -4.5t4.5 -10.5v-243q0 -3 0.5 -22.5t1.5 -34t8 -36t18.5 -36t34 -25t53.5 -11.5q41 -1 74 18.5t49 46.5v343q0 6 4.5 10.5t10.5 4.5h70q6 0 10.5 -4.5
t4.5 -10.5v-470q0 -6 -4.5 -10.5t-10.5 -4.5h-30q-15 0 -20 14l-12 37q-62 -59 -146 -59q-80 0 -116 35z" />
    <glyph glyph-name="mu" unicode="&#x3bc;" horiz-adv-x="599" 
d="M180 27v-211q0 -6 -4.5 -10.5t-10.5 -4.5h-70q-6 0 -10.5 4.5t-4.5 10.5v669q0 6 4.5 10.5t10.5 4.5h70q6 0 10.5 -4.5t4.5 -10.5v-243q0 -3 0.5 -22.5t1.5 -34t8 -36t18.5 -36t34 -25t53.5 -11.5q41 -1 74 18.5t49 46.5v343q0 6 4.5 10.5t10.5 4.5h70q6 0 10.5 -4.5
t4.5 -10.5v-470q0 -6 -4.5 -10.5t-10.5 -4.5h-30q-15 0 -20 14l-12 37q-62 -59 -146 -59q-80 0 -116 35z" />
    <glyph glyph-name="paragraph" unicode="&#xb6;" horiz-adv-x="655" 
d="M40 494q0 34 10 68t31.5 66t62.5 52t96 20h320q6 0 10.5 -4.5t4.5 -10.5v-39q0 -6 -4.5 -10.5t-10.5 -4.5h-55v-815q0 -6 -4.5 -10.5t-10.5 -4.5h-39q-6 0 -10.5 4.5t-4.5 10.5v815h-108v-815q0 -6 -4.5 -10.5t-10.5 -4.5h-39q-6 0 -10.5 4.5t-4.5 10.5v472h-19
q-55 0 -96 20t-62.5 52t-31.5 66t-10 68z" />
    <glyph glyph-name="periodcentered" unicode="&#xb7;" horiz-adv-x="251" 
d="M60 299q0 28 18.5 46.5t46.5 18.5q27 0 46.5 -19t19.5 -46t-19.5 -46.5t-46.5 -19.5t-46 19.5t-19 46.5z" />
    <glyph glyph-name="cedilla" unicode="&#xb8;" horiz-adv-x="554" 
d="M300 -72h-1q-9 0 -17 5q-7 5 -7 14v72q0 6 4.5 10.5t10.5 4.5h30q6 0 10.5 -4.5t4.5 -10.5v-45h6q48 -2 71.5 -31.5t20.5 -64.5q-4 -48 -36 -73.5t-75 -23.5q-42 2 -73 21q-12 9 -5 22l14 24q7 12 20 6q25 -11 44 -11q16 0 28.5 10.5t14.5 24.5q3 21 -12.5 36t-52.5 14z
" />
    <glyph glyph-name="onesuperior" unicode="&#xb9;" horiz-adv-x="201" 
d="M156 785v-296q0 -6 -4.5 -10.5t-10.5 -4.5h-31q-6 0 -10.5 4.5t-4.5 10.5v215l-35 -20q-13 -9 -21 5l-11 17q-9 13 4 22l89 63q10 7 22 7q13 0 13 -13z" />
    <glyph glyph-name="ordmasculine" unicode="&#xba;" horiz-adv-x="378" 
d="M189 706q54 0 89 -26.5t47.5 -59.5t12.5 -69q0 -27 -7.5 -52t-23.5 -49.5t-46.5 -39t-71.5 -14.5t-71.5 14.5t-46.5 39t-23.5 49.5t-7.5 52q0 36 12.5 69t47.5 59.5t89 26.5zM189 456q25 0 42.5 11t25 28t10.5 30.5t3 25.5q0 17 -4.5 35.5t-24.5 38.5t-52 20t-52 -20
t-24.5 -38.5t-4.5 -35.5q0 -12 3 -25.5t10.5 -30.5t25 -28t42.5 -11zM74 299h229q6 0 10.5 -4.5t4.5 -10.5v-28q0 -6 -4.5 -10.5t-10.5 -4.5h-229q-6 0 -10.5 4.5t-4.5 10.5v28q0 6 4.5 10.5t10.5 4.5zM74 299h229q6 0 10.5 -4.5t4.5 -10.5v-28q0 -6 -4.5 -10.5t-10.5 -4.5
h-229q-6 0 -10.5 4.5t-4.5 10.5v28q0 6 4.5 10.5t10.5 4.5z" />
    <glyph glyph-name="guillemotright" unicode="&#xbb;" horiz-adv-x="473" 
d="M230 111l118 140l-118 140q-10 10 1 21l26 23q11 11 21 -1l159 -168q6 -6 6 -15t-6 -16l-159 -167q-10 -12 -21 -1l-26 23q-11 11 -1 21zM40 111l118 140l-118 140q-10 10 1 21l26 23q11 11 21 -1l159 -168q6 -6 6 -15t-6 -16l-159 -167q-10 -12 -21 -1l-26 23
q-11 11 -1 21z" />
    <glyph glyph-name="onequarter" unicode="&#xbc;" horiz-adv-x="552" 
d="M162 688v-297q0 -6 -4.5 -10.5t-10.5 -4.5h-31q-6 0 -10.5 4.5t-4.5 10.5v215l-35 -20q-13 -9 -21 5l-11 17q-9 13 4 22l90 63q10 7 22 7t12 -12zM463 64v-48q0 -6 -4.5 -10.5t-10.5 -4.5h-31q-6 0 -10.5 4.5t-4.5 10.5v48h-118q-6 0 -10.5 4.5t-4.5 10.5v5q0 14 8 28
l129 199q8 13 23 13h19q6 0 10.5 -4.5t4.5 -10.5v-189h34q6 0 10.5 -4.5t4.5 -10.5v-26q0 -6 -4.5 -10.5t-10.5 -4.5h-34zM402 204l-54 -84h54v84zM475 687l-335 -674q-6 -13 -22 -13h-43q-5 0 -7.5 4t-0.5 9l336 674q7 13 22 13h42q5 0 7.5 -4t0.5 -9z" />
    <glyph glyph-name="onehalf" unicode="&#xbd;" horiz-adv-x="591" 
d="M161 688v-297q0 -6 -4.5 -10.5t-10.5 -4.5h-31q-6 0 -10.5 4.5t-4.5 10.5v215l-35 -20q-13 -9 -21 5l-11 17q-9 13 4 22l90 63q10 7 22 7t12 -12zM475 687l-335 -674q-6 -13 -22 -13h-43q-5 0 -7.5 4t-0.5 9l336 674q7 13 22 13h42q5 0 7.5 -4t0.5 -9zM368 243l-16 16
q-10 12 0 22q47 44 99 44q46 0 73 -27.5t27 -67.5q0 -43 -39 -89l-73 -86h89q6 0 10.5 -4.5t4.5 -10.5v-26q0 -6 -4.5 -10.5t-10.5 -4.5h-177q-5 0 -8.5 3.5t-3.5 8.5q0 12 8 23l120 143q26 32 26 57q0 15 -9.5 26.5t-31.5 11.5q-27 0 -62 -30q-10 -10 -22 1z" />
    <glyph glyph-name="threequarters" unicode="&#xbe;" horiz-adv-x="588" 
d="M499 64v-48q0 -6 -4.5 -10.5t-10.5 -4.5h-31q-6 0 -10.5 4.5t-4.5 10.5v48h-118q-6 0 -10.5 4.5t-4.5 10.5v5q0 14 8 28l129 199q8 13 23 13h19q6 0 10.5 -4.5t4.5 -10.5v-189h34q6 0 10.5 -4.5t4.5 -10.5v-26q0 -6 -4.5 -10.5t-10.5 -4.5h-34zM438 204l-54 -84h54v84z
M511 687l-335 -674q-6 -13 -22 -13h-43q-5 0 -7.5 4t-0.5 9l336 674q7 13 22 13h42q5 0 7.5 -4t0.5 -9zM232 610q0 -45 -32 -73q32 -27 32 -72q0 -36 -25 -66t-83 -30q-49 0 -89 34q-12 10 -1 21l12 13q9 11 21 1q30 -21 57 -21q23 0 38.5 12.5t15.5 35.5t-15.5 36t-38.5 13
h-28q-6 0 -10.5 4.5t-4.5 10.5v17q0 6 4.5 10.5t10.5 4.5h28q23 0 38.5 13t15.5 36t-16 35.5t-38 12.5q-27 0 -56 -22q-14 -8 -22 2l-12 13q-9 11 1 21q43 34 89 34q58 0 83 -30.5t25 -65.5z" />
    <glyph glyph-name="questiondown" unicode="&#xbf;" horiz-adv-x="549" 
d="M228 242l3 43q0 6 5 10.5t11 4.5h58q6 0 10.5 -4.5t4.5 -10.5v-45q0 -30 -14.5 -58.5t-34.5 -51t-40.5 -46t-35 -53t-14.5 -61.5q0 -33 20.5 -59.5t74.5 -24.5q34 1 61 17t63 50q11 11 22 0l36 -36q11 -9 1 -21q-48 -50 -94 -72.5t-108 -22.5q-78 0 -127.5 44.5
t-49.5 123.5q0 44 23 88t51 73t51 60t23 52zM334 453q0 -25 -17.5 -42t-43.5 -17q-25 0 -42.5 17t-17.5 42t17.5 42.5t42.5 17.5t43 -17.5t18 -42.5z" />
    <glyph glyph-name="Agrave" unicode="&#xc0;" horiz-adv-x="690" 
d="M542 15l-68 170h-258l-68 -170q-6 -14 -21 -14h-82q-5 0 -8 4.5t-1 9.5l289 679q7 13 20 13q14 0 19 -13l290 -679q2 -5 -1 -9.5t-8 -4.5h-82q-15 0 -21 14zM345 505l-93 -231h186zM303 948l130 -97q12 -9 4 -21l-20 -29q-8 -13 -21 -4l-138 85q-13 8 -5 20l29 43
q9 11 21 3z" />
    <glyph glyph-name="Aacute" unicode="&#xc1;" horiz-adv-x="690" 
d="M542 15l-68 170h-258l-68 -170q-6 -14 -21 -14h-82q-5 0 -8 4.5t-1 9.5l289 679q7 13 20 13q14 0 19 -13l290 -679q2 -5 -1 -9.5t-8 -4.5h-82q-15 0 -21 14zM345 505l-93 -231h186zM257 851l130 97q12 8 21 -3l29 -43q8 -12 -5 -20l-138 -85q-13 -9 -21 4l-20 29
q-8 12 4 21z" />
    <glyph glyph-name="Acircumflex" unicode="&#xc2;" horiz-adv-x="690" 
d="M542 15l-68 170h-258l-68 -170q-6 -14 -21 -14h-82q-5 0 -8 4.5t-1 9.5l289 679q7 13 20 13q14 0 19 -13l290 -679q2 -5 -1 -9.5t-8 -4.5h-82q-15 0 -21 14zM345 505l-93 -231h186zM203 850l130 97q12 9 24 0l130 -97q12 -9 4 -21l-20 -29q-8 -13 -21 -4l-105 64
l-105 -64q-13 -9 -21 4l-20 29q-8 12 4 21z" />
    <glyph glyph-name="Atilde" unicode="&#xc3;" horiz-adv-x="690" 
d="M542 15l-68 170h-258l-68 -170q-6 -14 -21 -14h-82q-5 0 -8 4.5t-1 9.5l289 679q7 13 20 13q14 0 19 -13l290 -679q2 -5 -1 -9.5t-8 -4.5h-82q-15 0 -21 14zM345 505l-93 -231h186zM459 893l31 -16q13 -7 6 -21q-36 -69 -104 -69q-22 0 -52 19.5t-49 19.5q-27 0 -44 -29
q-7 -13 -21 -6l-26 12q-13 7 -8 21q28 76 100 76q27 0 56.5 -19.5t45.5 -19.5q25 0 44 26q9 13 21 6z" />
    <glyph glyph-name="Adieresis" unicode="&#xc4;" horiz-adv-x="690" 
d="M166 851q0 25 17 42.5t42 17.5t42.5 -17.5t17.5 -42.5t-17.5 -42t-42.5 -17t-42 17t-17 42zM405 851q0 25 17 42.5t42 17.5t42.5 -17.5t17.5 -42.5t-17.5 -42t-42.5 -17q-26 0 -42.5 17t-16.5 42zM542 15l-68 170h-258l-68 -170q-6 -14 -21 -14h-82q-5 0 -8 4.5t-1 9.5
l289 679q7 13 20 13q14 0 19 -13l290 -679q2 -5 -1 -9.5t-8 -4.5h-82q-15 0 -21 14zM345 505l-93 -231h186z" />
    <glyph glyph-name="Aring" unicode="&#xc5;" horiz-adv-x="690" 
d="M243 888q0 42 30 72t72 30t71.5 -30t29.5 -72t-29.5 -71.5t-71.5 -29.5t-72 29.5t-30 71.5zM304 888q0 -16 12.5 -28t28.5 -12t28 12t12 28t-12 28.5t-28 12.5q-17 0 -29 -12.5t-12 -28.5zM542 15l-68 170h-258l-68 -170q-6 -14 -21 -14h-82q-5 0 -8 4.5t-1 9.5l289 679
q7 13 20 13q14 0 19 -13l290 -679q2 -5 -1 -9.5t-8 -4.5h-82q-15 0 -21 14zM345 505l-93 -231h186z" />
    <glyph glyph-name="AE" unicode="&#xc6;" horiz-adv-x="865" 
d="M713 300h-255v-210h332q6 0 10.5 -4.5t4.5 -10.5v-60q0 -6 -4.5 -10.5t-10.5 -4.5h-420q-6 0 -10.5 4.5t-4.5 10.5v170h-136l-73 -171q-6 -14 -21 -14h-80q-5 0 -8 4.5t-1 9.5l287 672q6 14 21 14h446q6 0 10.5 -4.5t4.5 -10.5v-59q0 -6 -4.5 -10.5t-10.5 -4.5h-332v-221
h255q6 0 10.5 -4.5t4.5 -10.5v-60q0 -6 -4.5 -10.5t-10.5 -4.5zM254 275h101v264z" />
    <glyph glyph-name="Ccedilla" unicode="&#xc7;" horiz-adv-x="725" 
d="M400 -72h-1q-9 0 -17 5q-7 5 -7 14v45q-70 5 -125.5 30t-90 61.5t-58 83.5t-32.5 92.5t-9 91.5q0 47 10 93.5t35.5 95.5t63 86t99 60.5t138.5 23.5q150 0 249 -102q11 -11 -1 -21l-45 -45q-11 -9 -21 1q-33 32 -82.5 54t-99.5 22q-60 0 -106 -22t-71 -52.5t-40.5 -70.5
t-20 -69t-4.5 -54t4.5 -54t20 -68.5t40.5 -70t71 -52.5t106 -22q97 0 187 74q12 10 20 -2l41 -51q9 -12 -2 -23q-90 -82 -217 -90v-18h6q48 -2 71.5 -31.5t20.5 -64.5q-4 -48 -36 -73.5t-75 -23.5q-42 2 -73 21q-12 9 -5 22l14 24q7 12 20 6q25 -11 44 -11q16 0 28.5 10.5
t14.5 24.5q3 21 -12.5 36t-52.5 14z" />
    <glyph glyph-name="Egrave" unicode="&#xc8;" horiz-adv-x="620" 
d="M467 300h-265v-210h343q6 0 10.5 -4.5t4.5 -10.5v-60q0 -6 -4.5 -10.5t-10.5 -4.5h-430q-6 0 -10.5 4.5t-4.5 10.5v670q0 6 4.5 10.5t10.5 4.5h430q6 0 10.5 -4.5t4.5 -10.5v-60q0 -6 -4.5 -10.5t-10.5 -4.5h-343v-220h265q6 0 10.5 -4.5t4.5 -10.5v-60q0 -6 -4.5 -10.5
t-10.5 -4.5zM267 948l130 -97q12 -9 4 -21l-20 -29q-8 -13 -21 -4l-138 85q-13 8 -5 20l29 43q9 11 21 3z" />
    <glyph glyph-name="Eacute" unicode="&#xc9;" horiz-adv-x="620" 
d="M467 300h-265v-210h343q6 0 10.5 -4.5t4.5 -10.5v-60q0 -6 -4.5 -10.5t-10.5 -4.5h-430q-6 0 -10.5 4.5t-4.5 10.5v670q0 6 4.5 10.5t10.5 4.5h430q6 0 10.5 -4.5t4.5 -10.5v-60q0 -6 -4.5 -10.5t-10.5 -4.5h-343v-220h265q6 0 10.5 -4.5t4.5 -10.5v-60q0 -6 -4.5 -10.5
t-10.5 -4.5zM221 851l130 97q5 4 11 3t9 -6l29 -43q4 -4 2.5 -10.5t-6.5 -9.5l-138 -85q-13 -9 -21 4l-20 29q-8 12 4 21z" />
    <glyph glyph-name="Ecircumflex" unicode="&#xca;" horiz-adv-x="620" 
d="M467 300h-265v-210h343q6 0 10.5 -4.5t4.5 -10.5v-60q0 -6 -4.5 -10.5t-10.5 -4.5h-430q-6 0 -10.5 4.5t-4.5 10.5v670q0 6 4.5 10.5t10.5 4.5h430q6 0 10.5 -4.5t4.5 -10.5v-60q0 -6 -4.5 -10.5t-10.5 -4.5h-343v-220h265q6 0 10.5 -4.5t4.5 -10.5v-60q0 -6 -4.5 -10.5
t-10.5 -4.5zM167 850l130 97q12 9 24 0l130 -97q12 -9 4 -21l-20 -29q-8 -13 -21 -4l-105 64l-105 -64q-13 -9 -21 4l-20 29q-8 12 4 21z" />
    <glyph glyph-name="Edieresis" unicode="&#xcb;" horiz-adv-x="620" 
d="M146 851q0 25 17 42.5t42 17.5t42.5 -17.5t17.5 -42.5t-17.5 -42t-42.5 -17t-42 17t-17 42zM385 851q0 25 17 42.5t42 17.5t42.5 -17.5t17.5 -42.5t-17.5 -42t-42.5 -17q-26 0 -42.5 17t-16.5 42zM467 300h-265v-210h343q6 0 10.5 -4.5t4.5 -10.5v-60q0 -6 -4.5 -10.5
t-10.5 -4.5h-430q-6 0 -10.5 4.5t-4.5 10.5v670q0 6 4.5 10.5t10.5 4.5h430q6 0 10.5 -4.5t4.5 -10.5v-60q0 -6 -4.5 -10.5t-10.5 -4.5h-343v-220h265q6 0 10.5 -4.5t4.5 -10.5v-60q0 -6 -4.5 -10.5t-10.5 -4.5z" />
    <glyph glyph-name="Igrave" unicode="&#xcc;" horiz-adv-x="240" 
d="M171 685v-670q0 -6 -4.5 -10.5t-10.5 -4.5h-73q-6 0 -10.5 4.5t-4.5 10.5v670q0 6 4.5 10.5t10.5 4.5h73q6 0 10.5 -4.5t4.5 -10.5zM78 948l130 -97q12 -9 4 -21l-20 -29q-8 -13 -21 -4l-138 85q-13 8 -5 20l29 43q9 11 21 3z" />
    <glyph glyph-name="Iacute" unicode="&#xcd;" horiz-adv-x="240" 
d="M171 685v-670q0 -6 -4.5 -10.5t-10.5 -4.5h-73q-6 0 -10.5 4.5t-4.5 10.5v670q0 6 4.5 10.5t10.5 4.5h73q6 0 10.5 -4.5t4.5 -10.5zM32 851l130 97q5 4 11 3t9 -6l29 -43q4 -4 2.5 -10.5t-6.5 -9.5l-138 -85q-13 -9 -21 4l-20 29q-8 12 4 21z" />
    <glyph glyph-name="Icircumflex" unicode="&#xce;" horiz-adv-x="308" 
d="M205 685v-670q0 -6 -4.5 -10.5t-10.5 -4.5h-73q-6 0 -10.5 4.5t-4.5 10.5v670q0 6 4.5 10.5t10.5 4.5h73q6 0 10.5 -4.5t4.5 -10.5zM12 850l130 97q12 9 24 0l130 -97q12 -9 4 -21l-20 -29q-8 -13 -21 -4l-105 64l-105 -64q-13 -9 -21 4l-20 29q-8 12 4 21z" />
    <glyph glyph-name="Idieresis" unicode="&#xcf;" horiz-adv-x="358" 
d="M230 685v-670q0 -6 -4.5 -10.5t-10.5 -4.5h-73q-6 0 -10.5 4.5t-4.5 10.5v670q0 6 4.5 10.5t10.5 4.5h73q6 0 10.5 -4.5t4.5 -10.5zM2 866q5 20 20.5 32.5t36.5 12.5q25 0 42.5 -17.5t17.5 -42.5t-17.5 -42t-42.5 -17q-22 0 -37 12t-20 32q-4 15 0 30zM239 851
q0 25 17 42.5t42 17.5t42.5 -17.5t17.5 -42.5t-17.5 -42t-42.5 -17q-26 0 -42.5 17t-16.5 42z" />
    <glyph glyph-name="Eth" unicode="&#xd0;" horiz-adv-x="735" 
d="M101 700h228q77 0 138.5 -22.5t99 -58t63 -83t35.5 -93t10 -92.5q0 -48 -10 -94.5t-35 -93.5t-63.5 -82.5t-99.5 -58t-138 -22.5h-228q-6 0 -10.5 4.5t-4.5 10.5v293h-41q-6 0 -10.5 4.5t-4.5 10.5v45q0 6 4.5 10.5t10.5 4.5h41v302q0 6 4.5 10.5t10.5 4.5zM189 383h168
q6 0 10.5 -4.5t4.5 -10.5v-45q0 -6 -4.5 -10.5t-10.5 -4.5h-168v-218h140q60 0 106 21t70.5 51t40 68.5t20 67t4.5 53.5t-4.5 53.5t-20 67t-40 68t-70.5 50.5t-106 21h-140v-228z" />
    <glyph glyph-name="Ntilde" unicode="&#xd1;" horiz-adv-x="767" 
d="M564 232v453q0 6 4.5 10.5t10.5 4.5h73q6 0 10.5 -4.5t4.5 -10.5v-681q0 -9 -9 -9t-15 7l-439 471l-1 -458q0 -6 -4.5 -10.5t-10.5 -4.5h-73q-6 0 -10.5 4.5t-4.5 10.5v682q0 10 9 10t16 -7zM497 893l31 -16q13 -7 6 -21q-36 -69 -104 -69q-22 0 -52 19.5t-49 19.5
q-27 0 -44 -29q-7 -13 -21 -6l-26 12q-13 7 -8 21q28 76 100 76q27 0 56.5 -19.5t45.5 -19.5q25 0 44 26q9 13 21 6z" />
    <glyph glyph-name="Ograve" unicode="&#xd2;" horiz-adv-x="812" 
d="M406 710q77 0 138.5 -23.5t99 -60.5t63 -86t35.5 -95.5t10 -93.5q0 -48 -10 -95.5t-35.5 -96t-63 -85t-99 -60t-138.5 -23.5t-138.5 23.5t-99 60t-63 85t-35.5 96t-10 95.5q0 47 10 93.5t35.5 95.5t63 86t99 60.5t138.5 23.5zM406 82q60 0 106 22t70.5 53t40 71t20 69
t4.5 54t-4.5 54t-20 69t-40 70.5t-70.5 52.5t-106 22t-106 -22t-71 -52.5t-40.5 -70.5t-20 -69t-4.5 -54t4.5 -54t20 -69t40.5 -71t71 -53t106 -22zM364 948l130 -97q12 -9 4 -21l-20 -29q-8 -13 -21 -4l-138 85q-13 8 -5 20l29 43q9 11 21 3z" />
    <glyph glyph-name="Oacute" unicode="&#xd3;" horiz-adv-x="812" 
d="M406 710q77 0 138.5 -23.5t99 -60.5t63 -86t35.5 -95.5t10 -93.5q0 -48 -10 -95.5t-35.5 -96t-63 -85t-99 -60t-138.5 -23.5t-138.5 23.5t-99 60t-63 85t-35.5 96t-10 95.5q0 47 10 93.5t35.5 95.5t63 86t99 60.5t138.5 23.5zM406 82q60 0 106 22t70.5 53t40 71t20 69
t4.5 54t-4.5 54t-20 69t-40 70.5t-70.5 52.5t-106 22t-106 -22t-71 -52.5t-40.5 -70.5t-20 -69t-4.5 -54t4.5 -54t20 -69t40.5 -71t71 -53t106 -22zM448 948q12 8 21 -3l29 -43q8 -12 -5 -20l-138 -85q-13 -9 -21 4l-20 29q-8 12 4 21z" />
    <glyph glyph-name="Ocircumflex" unicode="&#xd4;" horiz-adv-x="812" 
d="M406 710q77 0 138.5 -23.5t99 -60.5t63 -86t35.5 -95.5t10 -93.5q0 -48 -10 -95.5t-35.5 -96t-63 -85t-99 -60t-138.5 -23.5t-138.5 23.5t-99 60t-63 85t-35.5 96t-10 95.5q0 47 10 93.5t35.5 95.5t63 86t99 60.5t138.5 23.5zM406 82q60 0 106 22t70.5 53t40 71t20 69
t4.5 54t-4.5 54t-20 69t-40 70.5t-70.5 52.5t-106 22t-106 -22t-71 -52.5t-40.5 -70.5t-20 -69t-4.5 -54t4.5 -54t20 -69t40.5 -71t71 -53t106 -22zM264 850l130 97q12 9 24 0l130 -97q12 -9 4 -21l-20 -29q-8 -13 -21 -4l-105 64l-105 -64q-13 -9 -21 4l-20 29q-8 12 4 21z
" />
    <glyph glyph-name="Otilde" unicode="&#xd5;" horiz-adv-x="812" 
d="M406 710q77 0 138.5 -23.5t99 -60.5t63 -86t35.5 -95.5t10 -93.5q0 -48 -10 -95.5t-35.5 -96t-63 -85t-99 -60t-138.5 -23.5t-138.5 23.5t-99 60t-63 85t-35.5 96t-10 95.5q0 47 10 93.5t35.5 95.5t63 86t99 60.5t138.5 23.5zM406 82q60 0 106 22t70.5 53t40 71t20 69
t4.5 54t-4.5 54t-20 69t-40 70.5t-70.5 52.5t-106 22t-106 -22t-71 -52.5t-40.5 -70.5t-20 -69t-4.5 -54t4.5 -54t20 -69t40.5 -71t71 -53t106 -22zM520 893l31 -16q13 -7 6 -21q-36 -69 -104 -69q-22 0 -51.5 19.5t-49.5 19.5q-27 0 -44 -29q-7 -13 -21 -6l-26 12
q-13 7 -8 21q28 76 100 76q27 0 56.5 -19.5t45.5 -19.5q25 0 44 26q9 13 21 6z" />
    <glyph glyph-name="Odieresis" unicode="&#xd6;" horiz-adv-x="812" 
d="M406 710q77 0 138.5 -23.5t99 -60.5t63 -86t35.5 -95.5t10 -93.5q0 -48 -10 -95.5t-35.5 -96t-63 -85t-99 -60t-138.5 -23.5t-138.5 23.5t-99 60t-63 85t-35.5 96t-10 95.5q0 47 10 93.5t35.5 95.5t63 86t99 60.5t138.5 23.5zM406 82q60 0 106 22t70.5 53t40 71t20 69
t4.5 54t-4.5 54t-20 69t-40 70.5t-70.5 52.5t-106 22t-106 -22t-71 -52.5t-40.5 -70.5t-20 -69t-4.5 -54t4.5 -54t20 -69t40.5 -71t71 -53t106 -22zM227 851q0 25 17 42.5t42 17.5t42.5 -17.5t17.5 -42.5t-17.5 -42t-42.5 -17q-26 0 -42.5 17t-16.5 42zM466 851
q0 25 17 42.5t42 17.5t42.5 -17.5t17.5 -42.5t-17.5 -42t-42.5 -17t-42 17t-17 42z" />
    <glyph glyph-name="multiply" unicode="&#xd7;" horiz-adv-x="531" 
d="M111 95l101 101l-101 102q-11 11 0 22l31 31q11 11 22 0l101 -101l102 101q11 11 22 0l31 -31q11 -11 0 -22l-101 -102l101 -101q11 -11 0 -22l-31 -31q-11 -11 -22 0l-102 101l-101 -101q-11 -11 -22 0l-31 31q-11 11 0 22z" />
    <glyph glyph-name="Oslash" unicode="&#xd8;" horiz-adv-x="812" 
d="M658 610q48 -52 71 -121.5t23 -137.5q0 -48 -10 -95.5t-35.5 -96t-63 -85t-99 -60t-138.5 -23.5q-130 0 -215 64l-40 -49q-11 -11 -22 -1l-30 24q-11 11 -1 21l44 53q-82 100 -82 248q0 47 10 93.5t35.5 95.5t63 86t99 60.5t138.5 23.5q118 0 199 -55l55 65q11 12 21 2
l30 -24q12 -10 2 -22zM164 351q0 -94 46 -167l332 396q-58 39 -136 39q-60 0 -106 -22t-71 -52.5t-40.5 -70.5t-20 -69t-4.5 -54zM406 82q60 0 106 22t70.5 53t40 71t20 69t4.5 54q0 103 -56 180l-336 -400q61 -49 151 -49z" />
    <glyph glyph-name="Ugrave" unicode="&#xd9;" horiz-adv-x="725" 
d="M310 948l130 -97q12 -9 4 -21l-20 -29q-8 -13 -21 -4l-138 85q-13 8 -5 20l29 43q9 11 21 3zM362 82q39 0 70 14.5t48.5 36t29.5 48t16.5 47.5t4.5 38v419q0 6 4.5 10.5t10.5 4.5h74q6 0 10.5 -4.5t4.5 -10.5v-419q0 -47 -15 -92.5t-45.5 -87t-85.5 -67.5t-127 -26
t-127 26t-85.5 67.5t-45 87t-14.5 92.5v419q0 6 4.5 10.5t10.5 4.5h72q6 0 10.5 -4.5t4.5 -10.5v-419q0 -17 4.5 -38t16.5 -47.5t30 -48t49 -36t70 -14.5z" />
    <glyph glyph-name="Uacute" unicode="&#xda;" horiz-adv-x="725" 
d="M274 851l130 97q5 4 11 3t9 -6l29 -43q4 -4 2.5 -10.5t-6.5 -9.5l-138 -85q-13 -9 -21 4l-20 29q-8 12 4 21zM362 82q39 0 70 14.5t48.5 36t29.5 48t16.5 47.5t4.5 38v419q0 6 4.5 10.5t10.5 4.5h74q6 0 10.5 -4.5t4.5 -10.5v-419q0 -47 -15 -92.5t-45.5 -87t-85.5 -67.5
t-127 -26t-127 26t-85.5 67.5t-45 87t-14.5 92.5v419q0 6 4.5 10.5t10.5 4.5h72q6 0 10.5 -4.5t4.5 -10.5v-419q0 -17 4.5 -38t16.5 -47.5t30 -48t49 -36t70 -14.5z" />
    <glyph glyph-name="Ucircumflex" unicode="&#xdb;" horiz-adv-x="725" 
d="M362 860l-105 -64q-13 -9 -21 4l-20 29q-8 12 4 21l130 97q12 9 24 0l130 -97q12 -9 4 -21l-20 -29q-8 -13 -21 -4zM546 700h74q6 0 10.5 -4.5t4.5 -10.5v-419q0 -47 -15 -92.5t-45.5 -87t-85.5 -67.5t-127 -26t-127 26t-85.5 67.5t-45 87t-14.5 92.5v419q0 6 4.5 10.5
t10.5 4.5h72q6 0 10.5 -4.5t4.5 -10.5v-419q0 -17 4.5 -38t16.5 -47.5t30 -48t49 -36t70 -14.5t70 14.5t48.5 36t29.5 48t16.5 47.5t4.5 38v419q0 6 4.5 10.5t10.5 4.5z" />
    <glyph glyph-name="Udieresis" unicode="&#xdc;" horiz-adv-x="725" 
d="M183 851q0 25 17 42.5t42 17.5t42.5 -17.5t17.5 -42.5t-17.5 -42t-42.5 -17q-26 0 -42.5 17t-16.5 42zM422 851q0 25 17 42.5t42 17.5t42.5 -17.5t17.5 -42.5t-17.5 -42t-42.5 -17t-42 17t-17 42zM546 700h74q6 0 10.5 -4.5t4.5 -10.5v-419q0 -47 -15 -92.5t-45.5 -87
t-85.5 -67.5t-127 -26t-127 26t-85.5 67.5t-45 87t-14.5 92.5v419q0 6 4.5 10.5t10.5 4.5h72q6 0 10.5 -4.5t4.5 -10.5v-419q0 -17 4.5 -38t16.5 -47.5t30 -48t49 -36t70 -14.5t70 14.5t48.5 36t29.5 48t16.5 47.5t4.5 38v419q0 6 4.5 10.5t10.5 4.5z" />
    <glyph glyph-name="Yacute" unicode="&#xdd;" horiz-adv-x="636" 
d="M369 317v-302q0 -6 -4.5 -10.5t-10.5 -4.5h-73q-6 0 -10.5 4.5t-4.5 10.5v300l-228 372q-3 5 -0.5 9t7.5 4h85q15 0 23 -13l164 -271l165 271q8 13 23 13h86q5 0 7.5 -4t-0.5 -9zM230 851l130 97q5 4 11 3t9 -6l29 -43q4 -4 2.5 -10.5t-6.5 -9.5l-138 -85q-13 -9 -21 4
l-20 29q-8 12 4 21z" />
    <glyph glyph-name="Thorn" unicode="&#xde;" horiz-adv-x="632" 
d="M323 89h-123v-74q0 -6 -4.5 -10.5t-10.5 -4.5h-70q-6 0 -10.5 4.5t-4.5 10.5v670q0 6 4.5 10.5t10.5 4.5h70q6 0 10.5 -4.5t4.5 -10.5v-80h123q68 0 119 -25t78 -65.5t39.5 -82.5t12.5 -85t-12.5 -85t-39.5 -82.5t-78 -65.5t-119 -25zM200 523v-351h115q46 0 79.5 19.5
t49.5 49.5t22.5 56t6.5 50t-6.5 50t-22.5 56t-49.5 49.5t-79.5 19.5z" />
    <glyph glyph-name="germandbls" unicode="&#xdf;" horiz-adv-x="644" 
d="M438 189q-3 23 -20.5 48t-36 42.5t-31.5 40.5t-9 45q3 17 17 35.5t28 32t25 35.5t10 46q0 4 -0.5 10.5t-5.5 23t-15 29.5t-32.5 23.5t-53.5 10.5q-41 0 -76 -24t-36 -86v-556q0 -6 -4.5 -10.5t-10.5 -4.5h-72q-6 0 -10.5 4.5t-4.5 10.5v554q0 47 14 84t37 57.5t46 34
t49.5 18t38 6t19.5 1.5q62 0 106.5 -20t66 -51t31 -60t9.5 -56q0 -41 -16.5 -71.5t-33.5 -49t-17 -30.5q0 -16 13 -33.5t29.5 -32.5t32 -44t18.5 -63q5 -88 -59 -143.5t-191 -55.5h-5q-6 0 -10.5 4.5t-4.5 10.5v54q0 6 4.5 10.5t10.5 4.5h15q76 0 107.5 33.5t27.5 81.5z" />
    <glyph glyph-name="agrave" unicode="&#xe0;" horiz-adv-x="536" 
d="M360 630l-20 -29q-8 -13 -21 -4l-138 85q-13 8 -5 20l29 43q9 11 21 3l130 -97q12 -9 4 -21zM252 507q55 3 94 -8t60 -29.5t32.5 -49.5t14.5 -57t3 -64v-284q0 -6 -4.5 -10.5t-10.5 -4.5h-30q-15 0 -19 14l-12 38q-29 -29 -68.5 -45t-75.5 -16q-43 0 -76.5 11.5t-51.5 28
t-29.5 38.5t-15 39.5t-3.5 33.5q0 41 13.5 71.5t38 47t52.5 26.5t64.5 12t65 1t62.5 -5v11q0 72 -22 95t-76 23q-50 0 -122 -26q-15 -6 -20 8l-17 41q-7 13 7 21q72 34 146 39zM356 141v77q-203 25 -203 -68q0 -38 24.5 -59t61.5 -21q39 0 70.5 22t46.5 49z" />
    <glyph glyph-name="aacute" unicode="&#xe1;" horiz-adv-x="536" 
d="M252 507q55 3 94 -8t60 -29.5t32.5 -49.5t14.5 -57t3 -64v-284q0 -6 -4.5 -10.5t-10.5 -4.5h-30q-15 0 -19 14l-12 38q-29 -29 -68.5 -45t-75.5 -16q-43 0 -76.5 11.5t-51.5 28t-29.5 38.5t-15 39.5t-3.5 33.5q0 41 13.5 71.5t38 47t52.5 26.5t64.5 12t65 1t62.5 -5v11
q0 72 -22 95t-76 23q-50 0 -122 -26q-15 -6 -20 8l-17 41q-7 13 7 21q72 34 146 39zM356 141v77q-203 25 -203 -68q0 -38 24.5 -59t61.5 -21q39 0 70.5 22t46.5 49zM355 682l-138 -85q-13 -9 -21 4l-20 29q-8 12 4 21l130 97q5 4 11 3t9 -6l29 -43q4 -4 2.5 -10.5t-6.5 -9.5
z" />
    <glyph glyph-name="acircumflex" unicode="&#xe2;" horiz-adv-x="536" 
d="M268 660l-105 -64q-13 -9 -21 4l-20 29q-8 12 4 21l130 97q12 9 24 0l130 -97q12 -9 4 -21l-20 -29q-8 -13 -21 -4zM252 507q55 3 94 -8t60 -29.5t32.5 -49.5t14.5 -57t3 -64v-284q0 -6 -4.5 -10.5t-10.5 -4.5h-30q-15 0 -19 14l-12 38q-29 -29 -68.5 -45t-75.5 -16
q-43 0 -76.5 11.5t-51.5 28t-29.5 38.5t-15 39.5t-3.5 33.5q0 41 13.5 71.5t38 47t52.5 26.5t64.5 12t65 1t62.5 -5v11q0 72 -22 95t-76 23q-50 0 -122 -26q-15 -6 -20 8l-17 41q-7 13 7 21q72 34 146 39zM356 141v77q-203 25 -203 -68q0 -38 24.5 -59t61.5 -21
q39 0 70.5 22t46.5 49z" />
    <glyph glyph-name="atilde" unicode="&#xe3;" horiz-adv-x="536" 
d="M214 626q-27 0 -44 -29q-7 -13 -21 -6l-26 12q-13 7 -8 21q28 76 100 76q27 0 56.5 -19.5t45.5 -19.5q25 0 44 26q9 13 21 6l31 -16q13 -7 6 -21q-36 -69 -104 -69q-23 0 -52 19.5t-49 19.5zM252 507q55 3 94 -8t60 -29.5t32.5 -49.5t14.5 -57t3 -64v-284
q0 -6 -4.5 -10.5t-10.5 -4.5h-30q-15 0 -19 14l-12 38q-29 -29 -68.5 -45t-75.5 -16q-43 0 -76.5 11.5t-51.5 28t-29.5 38.5t-15 39.5t-3.5 33.5q0 41 13.5 71.5t38 47t52.5 26.5t64.5 12t65 1t62.5 -5v11q0 72 -22 95t-76 23q-50 0 -122 -26q-15 -6 -20 8l-17 41
q-7 13 7 21q72 34 146 39zM356 141v77q-203 25 -203 -68q0 -38 24.5 -59t61.5 -21q39 0 70.5 22t46.5 49z" />
    <glyph glyph-name="adieresis" unicode="&#xe4;" horiz-adv-x="536" 
d="M89 651q0 25 17 42.5t42 17.5t42.5 -17.5t17.5 -42.5t-17.5 -42t-42.5 -17q-26 0 -42.5 17t-16.5 42zM328 651q0 25 17 42.5t42 17.5t42.5 -17.5t17.5 -42.5t-17.5 -42t-42.5 -17t-42 17t-17 42zM252 507q55 3 94 -8t60 -29.5t32.5 -49.5t14.5 -57t3 -64v-284
q0 -6 -4.5 -10.5t-10.5 -4.5h-30q-15 0 -19 14l-12 38q-29 -29 -68.5 -45t-75.5 -16q-43 0 -76.5 11.5t-51.5 28t-29.5 38.5t-15 39.5t-3.5 33.5q0 41 13.5 71.5t38 47t52.5 26.5t64.5 12t65 1t62.5 -5v11q0 72 -22 95t-76 23q-50 0 -122 -26q-15 -6 -20 8l-17 41
q-7 13 7 21q72 34 146 39zM356 141v77q-203 25 -203 -68q0 -38 24.5 -59t61.5 -21q39 0 70.5 22t46.5 49z" />
    <glyph glyph-name="aring" unicode="&#xe5;" horiz-adv-x="536" 
d="M166 688q0 42 30 72t72 30t71.5 -30t29.5 -72t-29.5 -71.5t-71.5 -29.5t-72 29.5t-30 71.5zM227 688q0 -16 12.5 -28t28.5 -12t28 12t12 28t-12 28.5t-28 12.5t-28.5 -12.5t-12.5 -28.5zM252 507q55 3 94 -8t60 -29.5t32.5 -49.5t14.5 -57t3 -64v-284q0 -6 -4.5 -10.5
t-10.5 -4.5h-30q-15 0 -19 14l-12 38q-29 -29 -68.5 -45t-75.5 -16q-43 0 -76.5 11.5t-51.5 28t-29.5 38.5t-15 39.5t-3.5 33.5q0 41 13.5 71.5t38 47t52.5 26.5t64.5 12t65 1t62.5 -5v11q0 72 -22 95t-76 23q-50 0 -122 -26q-15 -6 -20 8l-17 41q-7 13 7 21q72 34 146 39z
M356 141v77q-203 25 -203 -68q0 -38 24.5 -59t61.5 -21q39 0 70.5 22t46.5 49z" />
    <glyph glyph-name="ae" unicode="&#xe6;" horiz-adv-x="833" 
d="M585 80q78 0 137 48q11 9 21 -1l33 -40q11 -11 -1 -21q-81 -72 -190 -72q-119 0 -186 76q-3 -3 -9.5 -9t-9.5 -9q-29 -29 -68.5 -45t-75.5 -16q-43 0 -76.5 11.5t-51.5 28t-29.5 38.5t-15 39.5t-3.5 33.5q0 183 279 154q3 24 13 57q-6 43 -27.5 57t-66.5 14
q-50 0 -122 -26q-15 -6 -20 8l-17 41q-7 13 7 21q72 34 146 39q119 7 166 -52q65 57 167 57q109 0 162 -73.5t36 -193.5q-2 -15 -17 -15h-330q3 -25 11 -47.5t23.5 -47.5t45 -40t69.5 -15zM585 429q-115 0 -145 -125h252q7 46 -18.5 84t-88.5 41zM239 70q39 0 70.5 22
t46.5 49q-13 33 -18 79q-185 21 -185 -70q0 -38 24.5 -59t61.5 -21z" />
    <glyph glyph-name="ccedilla" unicode="&#xe7;" horiz-adv-x="558" 
d="M297 -72h-1q-9 0 -17 5q-7 5 -7 14v45q-49 5 -87 23.5t-61 44.5t-38 60.5t-20.5 66.5t-5.5 67q0 43 12.5 85.5t39.5 83t78 65.5t119 25q106 0 179 -76q11 -11 -1 -21l-45 -41q-10 -10 -22 0q-48 44 -111 44q-61 0 -105 -44t-44 -121q0 -70 39 -122.5t108 -52.5
q64 0 116 47q11 11 21 0l37 -42q11 -11 -1 -22q-66 -65 -148 -71v-17h6q48 -2 71.5 -31.5t20.5 -64.5q-4 -48 -36 -73.5t-75 -23.5q-42 2 -73 21q-12 9 -5 22l14 24q7 12 20 6q25 -11 44 -11q16 0 28.5 10.5t14.5 24.5q3 21 -12.5 36t-52.5 14z" />
    <glyph glyph-name="egrave" unicode="&#xe8;" horiz-adv-x="542" 
d="M294 80q78 0 137 48q11 9 21 -1l33 -40q11 -11 -1 -21q-81 -72 -190 -72q-68 0 -119 25t-78 65.5t-39.5 83t-12.5 86.5q0 43 12.5 85t39.5 82.5t78 65.5t119 25q109 0 162 -73.5t36 -193.5q-2 -15 -17 -15h-330q3 -25 11 -47.5t23.5 -47.5t45 -40t69.5 -15zM294 429
q-115 0 -145 -125h252q7 46 -18.5 84t-88.5 41zM363 630l-20 -29q-8 -13 -21 -4l-138 85q-13 8 -5 20l29 43q9 11 21 3l130 -97q12 -9 4 -21z" />
    <glyph glyph-name="eacute" unicode="&#xe9;" horiz-adv-x="542" 
d="M294 80q78 0 137 48q11 9 21 -1l33 -40q11 -11 -1 -21q-81 -72 -190 -72q-68 0 -119 25t-78 65.5t-39.5 83t-12.5 86.5q0 43 12.5 85t39.5 82.5t78 65.5t119 25q109 0 162 -73.5t36 -193.5q-2 -15 -17 -15h-330q3 -25 11 -47.5t23.5 -47.5t45 -40t69.5 -15zM294 429
q-115 0 -145 -125h252q7 46 -18.5 84t-88.5 41zM199 601l-20 29q-8 12 4 21l130 97q12 8 21 -3l29 -43q8 -12 -5 -20l-138 -85q-13 -9 -21 4z" />
    <glyph glyph-name="ecircumflex" unicode="&#xea;" horiz-adv-x="542" 
d="M294 80q78 0 137 48q11 9 21 -1l33 -40q11 -11 -1 -21q-81 -72 -190 -72q-68 0 -119 25t-78 65.5t-39.5 83t-12.5 86.5q0 43 12.5 85t39.5 82.5t78 65.5t119 25q109 0 162 -73.5t36 -193.5q-2 -15 -17 -15h-330q3 -25 11 -47.5t23.5 -47.5t45 -40t69.5 -15zM294 429
q-115 0 -145 -125h252q7 46 -18.5 84t-88.5 41zM287 660l-105 -64q-13 -9 -21 4l-20 29q-8 12 4 21l130 97q12 9 24 0l130 -97q12 -9 4 -21l-20 -29q-8 -13 -21 -4z" />
    <glyph glyph-name="edieresis" unicode="&#xeb;" horiz-adv-x="542" 
d="M109 651q0 25 17 42.5t42 17.5t42.5 -17.5t17.5 -42.5t-17.5 -42t-42.5 -17q-26 0 -42.5 17t-16.5 42zM348 651q0 25 17 42.5t42 17.5t42.5 -17.5t17.5 -42.5t-17.5 -42t-42.5 -17t-42 17t-17 42zM294 80q78 0 137 48q11 9 21 -1l33 -40q11 -11 -1 -21q-81 -72 -190 -72
q-68 0 -119 25t-78 65.5t-39.5 83t-12.5 86.5q0 43 12.5 85t39.5 82.5t78 65.5t119 25q109 0 162 -73.5t36 -193.5q-2 -15 -17 -15h-330q3 -25 11 -47.5t23.5 -47.5t45 -40t69.5 -15zM294 429q-115 0 -145 -125h252q7 46 -18.5 84t-88.5 41z" />
    <glyph glyph-name="igrave" unicode="&#xec;" horiz-adv-x="240" 
d="M169 485v-471q0 -6 -4.5 -10.5t-10.5 -4.5h-70q-6 0 -10.5 4.5t-4.5 10.5v471q0 6 4.5 10.5t10.5 4.5h70q6 0 10.5 -4.5t4.5 -10.5zM78 748l130 -97q12 -9 4 -21l-20 -29q-8 -13 -21 -4l-138 85q-13 8 -5 20l29 43q9 11 21 3z" />
    <glyph glyph-name="iacute" unicode="&#xed;" horiz-adv-x="240" 
d="M169 486v-471q0 -6 -4.5 -10.5t-10.5 -4.5h-70q-6 0 -10.5 4.5t-4.5 10.5v471q0 6 4.5 10.5t10.5 4.5h70q6 0 10.5 -4.5t4.5 -10.5zM32 651l130 97q5 4 11 3t9 -6l29 -43q4 -4 2.5 -10.5t-6.5 -9.5l-138 -85q-13 -9 -21 4l-20 29q-8 12 4 21z" />
    <glyph glyph-name="icircumflex" unicode="&#xee;" horiz-adv-x="308" 
d="M201 485v-470q0 -6 -4.5 -10.5t-10.5 -4.5h-70q-6 0 -10.5 4.5t-4.5 10.5v470q0 6 4.5 10.5t10.5 4.5h70q6 0 10.5 -4.5t4.5 -10.5zM12 650l130 97q12 9 24 0l130 -97q12 -9 4 -21l-20 -29q-8 -13 -21 -4l-105 64l-105 -64q-13 -9 -21 4l-20 29q-8 12 4 21z" />
    <glyph glyph-name="idieresis" unicode="&#xef;" horiz-adv-x="358" 
d="M228 485v-470q0 -6 -4.5 -10.5t-10.5 -4.5h-70q-6 0 -10.5 4.5t-4.5 10.5v470q0 6 4.5 10.5t10.5 4.5h70q6 0 10.5 -4.5t4.5 -10.5zM241 666q5 20 20.5 32.5t36.5 12.5q25 0 42.5 -17.5t17.5 -42.5t-17.5 -42t-42.5 -17q-22 0 -37 12t-20 32q-5 15 0 30zM0 651
q0 25 17 42.5t42 17.5t42.5 -17.5t17.5 -42.5t-17.5 -42t-42.5 -17t-42 17t-17 42z" />
    <glyph glyph-name="eth" unicode="&#xf0;" horiz-adv-x="584" 
d="M316 538l-41 -41q-11 -10 -22 1l-31 31q-11 11 0 21l40 40q-42 31 -62 44q-13 8 -5 20l29 42q7 14 21 6q38 -22 77 -52l47 47q11 11 22 0l31 -31q11 -11 0 -22l-44 -44q149 -153 145 -388q0 -24 -6 -50t-22 -57t-40.5 -55t-66.5 -40t-96 -16t-96 16.5t-67 41t-41 55.5
t-22 56.5t-6 48.5q0 36 10 71t34 71.5t72.5 59t115.5 22.5q26 0 59.5 -11.5t48.5 -26.5q-28 79 -84 140zM292 80q63 0 98.5 41t35.5 97q-2 57 -36.5 96.5t-97.5 39.5q-64 0 -99.5 -40.5t-35.5 -95.5q0 -56 36 -97t99 -41z" />
    <glyph glyph-name="ntilde" unicode="&#xf1;" horiz-adv-x="579" 
d="M180 358v-343q0 -6 -4.5 -10.5t-10.5 -4.5h-70q-6 0 -10.5 4.5t-4.5 10.5v470q0 6 4.5 10.5t10.5 4.5h30q15 0 20 -14l12 -37q62 59 151 59q66 0 110.5 -21.5t65 -61t28 -78t7.5 -89.5v-243q0 -6 -4.5 -10.5t-10.5 -4.5h-71q-6 0 -10.5 4.5t-4.5 10.5v243q0 2 -1 25
t-2.5 36t-8.5 35.5t-18 35.5t-33 23.5t-52 10.5q-41 0 -74 -19.5t-49 -46.5zM403 693l31 -16q13 -7 6 -21q-36 -69 -104 -69q-22 0 -51.5 19.5t-49.5 19.5q-27 0 -44 -29q-7 -13 -21 -6l-26 12q-13 7 -8 21q28 76 100 76q27 0 56.5 -19.5t45.5 -19.5q25 0 44 26q9 13 21 6z
" />
    <glyph glyph-name="ograve" unicode="&#xf2;" horiz-adv-x="618" 
d="M309 508q68 0 119 -25t78 -65.5t39.5 -82.5t12.5 -85q0 -44 -12.5 -86.5t-39.5 -82.5t-78 -64.5t-119 -24.5t-119 24.5t-78 64.5t-39.5 82.5t-12.5 86.5q0 43 12.5 85t39.5 82.5t78 65.5t119 25zM309 75q46 0 78.5 20.5t46.5 51.5t19.5 56t5.5 47t-5.5 47t-19.5 56
t-46.5 51.5t-78.5 20.5t-78.5 -20.5t-46.5 -51.5t-19.5 -56t-5.5 -47t5.5 -47t19.5 -56t46.5 -51.5t78.5 -20.5zM384 630l-20 -29q-8 -13 -21 -4l-138 85q-13 8 -5 20l29 43q9 11 21 3l130 -97q12 -9 4 -21z" />
    <glyph glyph-name="oacute" unicode="&#xf3;" horiz-adv-x="618" 
d="M309 508q68 0 119 -25t78 -65.5t39.5 -82.5t12.5 -85q0 -44 -12.5 -86.5t-39.5 -82.5t-78 -64.5t-119 -24.5t-119 24.5t-78 64.5t-39.5 82.5t-12.5 86.5q0 43 12.5 85t39.5 82.5t78 65.5t119 25zM309 75q46 0 78.5 20.5t46.5 51.5t19.5 56t5.5 47t-5.5 47t-19.5 56
t-46.5 51.5t-78.5 20.5t-78.5 -20.5t-46.5 -51.5t-19.5 -56t-5.5 -47t5.5 -47t19.5 -56t46.5 -51.5t78.5 -20.5zM220 601l-20 29q-8 12 4 21l130 97q12 8 21 -3l29 -43q8 -12 -5 -20l-138 -85q-13 -9 -21 4z" />
    <glyph glyph-name="ocircumflex" unicode="&#xf4;" horiz-adv-x="618" 
d="M309 508q68 0 119 -25t78 -65.5t39.5 -82.5t12.5 -85q0 -44 -12.5 -86.5t-39.5 -82.5t-78 -64.5t-119 -24.5t-119 24.5t-78 64.5t-39.5 82.5t-12.5 86.5q0 43 12.5 85t39.5 82.5t78 65.5t119 25zM309 75q46 0 78.5 20.5t46.5 51.5t19.5 56t5.5 47t-5.5 47t-19.5 56
t-46.5 51.5t-78.5 20.5t-78.5 -20.5t-46.5 -51.5t-19.5 -56t-5.5 -47t5.5 -47t19.5 -56t46.5 -51.5t78.5 -20.5zM309 660l-105 -64q-13 -9 -21 4l-20 29q-8 12 4 21l130 97q12 9 24 0l130 -97q12 -9 4 -21l-20 -29q-8 -13 -21 -4z" />
    <glyph glyph-name="otilde" unicode="&#xf5;" horiz-adv-x="618" 
d="M255 626q-27 0 -44 -29q-7 -13 -21 -6l-26 12q-13 7 -8 21q28 76 100 76q27 0 56.5 -19.5t45.5 -19.5q25 0 44 26q9 13 21 6l31 -16q13 -7 6 -21q-36 -69 -104 -69q-22 0 -52 19.5t-49 19.5zM309 508q68 0 119 -25t78 -65.5t39.5 -82.5t12.5 -85q0 -44 -12.5 -86.5
t-39.5 -82.5t-78 -64.5t-119 -24.5t-119 24.5t-78 64.5t-39.5 82.5t-12.5 86.5q0 43 12.5 85t39.5 82.5t78 65.5t119 25zM309 75q46 0 78.5 20.5t46.5 51.5t19.5 56t5.5 47t-5.5 47t-19.5 56t-46.5 51.5t-78.5 20.5t-78.5 -20.5t-46.5 -51.5t-19.5 -56t-5.5 -47t5.5 -47
t19.5 -56t46.5 -51.5t78.5 -20.5z" />
    <glyph glyph-name="odieresis" unicode="&#xf6;" horiz-adv-x="618" 
d="M309 508q68 0 119 -25t78 -65.5t39.5 -82.5t12.5 -85q0 -44 -12.5 -86.5t-39.5 -82.5t-78 -64.5t-119 -24.5t-119 24.5t-78 64.5t-39.5 82.5t-12.5 86.5q0 43 12.5 85t39.5 82.5t78 65.5t119 25zM309 75q46 0 78.5 20.5t46.5 51.5t19.5 56t5.5 47t-5.5 47t-19.5 56
t-46.5 51.5t-78.5 20.5t-78.5 -20.5t-46.5 -51.5t-19.5 -56t-5.5 -47t5.5 -47t19.5 -56t46.5 -51.5t78.5 -20.5zM130 651q0 25 17 42.5t42 17.5t42.5 -17.5t17.5 -42.5t-17.5 -42t-42.5 -17t-42 17t-17 42zM369 651q0 25 17 42.5t42 17.5t42.5 -17.5t17.5 -42.5t-17.5 -42
t-42.5 -17q-26 0 -42.5 17t-16.5 42z" />
    <glyph glyph-name="divide" unicode="&#xf7;" horiz-adv-x="461" 
d="M75 234h311q6 0 10.5 -4.5t4.5 -10.5v-45q0 -6 -4.5 -10.5t-10.5 -4.5h-311q-6 0 -10.5 4.5t-4.5 10.5v45q0 6 4.5 10.5t10.5 4.5zM180 76q10 37 50 37q22 0 37.5 -15t15.5 -37t-15.5 -38t-37.5 -16q-39 0 -50 39q-4 15 0 30zM178 346q0 23 15 38t37 15t37.5 -15.5
t15.5 -37.5t-15.5 -38t-37.5 -16t-37 16t-15 38z" />
    <glyph glyph-name="oslash" unicode="&#xf8;" horiz-adv-x="618" 
d="M494 432q64 -72 64 -182q0 -44 -12.5 -86.5t-39.5 -82.5t-78 -64.5t-119 -24.5q-89 0 -149 42l-31 -38q-11 -11 -22 -1l-30 24q-11 11 -1 21l35 42q-51 70 -51 168q0 43 12.5 85t39.5 82.5t78 65.5t119 25q76 0 132 -32l45 54q11 12 21 2l30 -24q12 -10 2 -22zM159 250
q0 -45 18 -89l206 245q-32 19 -74 19q-46 0 -78.5 -20.5t-46.5 -51.5t-19.5 -56t-5.5 -47zM309 75q46 0 78.5 20.5t46.5 51.5t19.5 56t5.5 47q0 60 -28 107l-212 -253q35 -29 90 -29z" />
    <glyph glyph-name="ugrave" unicode="&#xf9;" horiz-adv-x="579" 
d="M399 142v343q0 6 4.5 10.5t10.5 4.5h70q6 0 10.5 -4.5t4.5 -10.5v-470q0 -6 -4.5 -10.5t-10.5 -4.5h-30q-15 0 -20 14l-12 37q-62 -59 -151 -59q-66 0 -110.5 21.5t-65 61t-28 78t-7.5 89.5v243q0 6 4.5 10.5t10.5 4.5h71q6 0 10.5 -4.5t4.5 -10.5v-243q0 -2 1 -25
t2.5 -36t8.5 -35.5t18 -35.5t33 -23.5t52 -10.5q41 0 74 19.5t49 46.5zM231 748l130 -97q12 -9 4 -21l-20 -29q-8 -13 -21 -4l-138 85q-13 8 -5 20l29 43q9 11 21 3z" />
    <glyph glyph-name="uacute" unicode="&#xfa;" horiz-adv-x="579" 
d="M399 142v343q0 6 4.5 10.5t10.5 4.5h70q6 0 10.5 -4.5t4.5 -10.5v-470q0 -6 -4.5 -10.5t-10.5 -4.5h-30q-15 0 -20 14l-12 37q-62 -59 -151 -59q-66 0 -110.5 21.5t-65 61t-28 78t-7.5 89.5v243q0 6 4.5 10.5t10.5 4.5h71q6 0 10.5 -4.5t4.5 -10.5v-243q0 -2 1 -25
t2.5 -36t8.5 -35.5t18 -35.5t33 -23.5t52 -10.5q41 0 74 19.5t49 46.5zM197 651l130 97q12 8 21 -3l29 -43q8 -12 -5 -20l-138 -85q-13 -9 -21 4l-20 29q-8 12 4 21z" />
    <glyph glyph-name="ucircumflex" unicode="&#xfb;" horiz-adv-x="579" 
d="M399 142v343q0 6 4.5 10.5t10.5 4.5h70q6 0 10.5 -4.5t4.5 -10.5v-470q0 -6 -4.5 -10.5t-10.5 -4.5h-30q-15 0 -20 14l-12 37q-62 -59 -151 -59q-66 0 -110.5 21.5t-65 61t-28 78t-7.5 89.5v243q0 6 4.5 10.5t10.5 4.5h71q6 0 10.5 -4.5t4.5 -10.5v-243q0 -2 1 -25
t2.5 -36t8.5 -35.5t18 -35.5t33 -23.5t52 -10.5q41 0 74 19.5t49 46.5zM147 650l130 97q12 9 24 0l130 -97q12 -9 4 -21l-20 -29q-8 -13 -21 -4l-105 64l-105 -64q-13 -9 -21 4l-20 29q-8 12 4 21z" />
    <glyph glyph-name="udieresis" unicode="&#xfc;" horiz-adv-x="579" 
d="M399 142v358h100v-500h-60l-17 51q-62 -59 -151 -59q-66 0 -110.5 21.5t-65 61t-28 78t-7.5 89.5v258h101v-258q0 -2 1 -25t2.5 -36t8.5 -35.5t18 -35.5t33 -23.5t52 -10.5q41 0 74 19.5t49 46.5zM101 651q0 25 17 42.5t42 17.5t42.5 -17.5t17.5 -42.5t-17.5 -42
t-42.5 -17q-26 0 -42.5 17t-16.5 42zM340 651q0 25 17 42.5t42 17.5t42.5 -17.5t17.5 -42.5t-17.5 -42t-42.5 -17t-42 17t-17 42z" />
    <glyph glyph-name="yacute" unicode="&#xfd;" horiz-adv-x="575" 
d="M145 486l143 -347l139 347q7 14 21 14h82q5 0 8 -4.5t1 -9.5l-284 -671q-6 -14 -21 -14h-76q-5 0 -8 4.5t-1 9.5l86 205l-199 466q-2 5 1 9.5t8 4.5h79q14 0 21 -14zM200 651l130 97q5 4 11 3t9 -6l29 -43q4 -4 2.5 -10.5t-6.5 -9.5l-138 -85q-13 -9 -21 4l-20 29
q-8 12 4 21z" />
    <glyph glyph-name="thorn" unicode="&#xfe;" 
d="M288 -8q-60 3 -108 27v-204q0 -6 -4.5 -10.5t-10.5 -4.5h-70q-6 0 -10.5 4.5t-4.5 10.5v870q0 6 4.5 10.5t10.5 4.5h70q6 0 10.5 -4.5t4.5 -10.5v-204q52 27 123 27q68 0 119 -25t78 -65.5t39.5 -82.5t12.5 -85q0 -42 -12 -83t-37 -80.5t-73 -65.5t-112 -29h-30zM180 390
v-280q46 -35 115 -35q46 0 79.5 19.5t49.5 49.5t22.5 56t6.5 50t-6.5 50t-22.5 56t-49.5 49.5t-79.5 19.5q-69 0 -115 -35z" />
    <glyph glyph-name="ydieresis" unicode="&#xff;" horiz-adv-x="566" 
d="M140 486l143 -347l139 347q7 14 21 14h87q6 0 6 -6q0 -4 -2 -10l-284 -669q-6 -14 -21 -14h-82q-5 0 -5 5t2 11l86 203l-198 464q-2 6 -2 10q0 6 5 6h84q14 0 21 -14zM113 666q5 20 20.5 32.5t36.5 12.5q25 0 42.5 -17.5t17.5 -42.5t-17.5 -42t-42.5 -17q-22 0 -37 12
t-20 32q-5 15 0 30zM350 651q0 25 17 42.5t42 17.5t42.5 -17.5t17.5 -42.5t-17.5 -42t-42.5 -17t-42 17t-17 42z" />
    <glyph glyph-name="Amacron" unicode="&#x100;" horiz-adv-x="690" 
d="M542 15l-68 170h-258l-68 -170q-6 -14 -21 -14h-82q-5 0 -8 4.5t-1 9.5l289 679q7 13 20 13q14 0 19 -13l290 -679q2 -5 -1 -9.5t-8 -4.5h-82q-15 0 -21 14zM345 505l-93 -231h186zM212 866h271q6 0 10.5 -4.5t4.5 -10.5v-40q0 -6 -4.5 -10.5t-10.5 -4.5h-271
q-6 0 -10.5 4.5t-4.5 10.5v40q0 6 4.5 10.5t10.5 4.5z" />
    <glyph glyph-name="amacron" unicode="&#x101;" horiz-adv-x="536" 
d="M418 651v-40q0 -6 -4.5 -10.5t-10.5 -4.5h-271q-6 0 -10.5 4.5t-4.5 10.5v40q0 6 4.5 10.5t10.5 4.5h271q6 0 10.5 -4.5t4.5 -10.5zM252 507q55 3 94 -8t60 -29.5t32.5 -49.5t14.5 -57t3 -64v-284q0 -6 -4.5 -10.5t-10.5 -4.5h-30q-15 0 -19 14l-12 38q-29 -29 -68.5 -45
t-75.5 -16q-43 0 -76.5 11.5t-51.5 28t-29.5 38.5t-15 39.5t-3.5 33.5q0 41 13.5 71.5t38 47t52.5 26.5t64.5 12t65 1t62.5 -5v11q0 71 -23 93t-75 22q-50 0 -122 -26q-15 -6 -20 8l-17 44q-7 13 7 21q72 34 146 39zM356 141v77q-203 25 -203 -68q0 -38 24.5 -59t61.5 -21
q39 0 70.5 22t46.5 49z" />
    <glyph glyph-name="Abreve" unicode="&#x102;" horiz-adv-x="695" 
d="M542 15l-68 170h-258l-68 -170q-6 -14 -21 -14h-82q-5 0 -8 4.5t-1 9.5l289 679q7 13 20 13q14 0 19 -13l290 -679q2 -5 -1 -9.5t-8 -4.5h-82q-15 0 -21 14zM345 505l-93 -231h186zM431 926l40 -12q14 -4 10 -18q-16 -48 -52.5 -76t-82.5 -28t-82 28t-52 76q-5 14 10 18
l39 12q12 3 18 -10q19 -53 67 -53q50 0 67 52q5 15 18 11z" />
    <glyph glyph-name="abreve" unicode="&#x103;" horiz-adv-x="536" 
d="M252 507q55 3 94 -8t60 -29.5t32.5 -49.5t14.5 -57t3 -64v-284q0 -6 -4.5 -10.5t-10.5 -4.5h-30q-15 0 -19 14l-12 38q-29 -29 -68.5 -45t-75.5 -16q-43 0 -76.5 11.5t-51.5 28t-29.5 38.5t-15 39.5t-3.5 33.5q0 41 13.5 71.5t38 47t52.5 26.5t64.5 12t65 1t62.5 -5v11
q0 72 -22 95t-76 23q-50 0 -122 -26q-15 -6 -20 8l-17 41q-7 13 7 21q72 34 146 39zM356 141v77q-203 25 -203 -68q0 -38 24.5 -59t61.5 -21q39 0 70.5 22t46.5 49zM268 592q-46 0 -82 28t-52 76q-5 14 10 18l39 12q12 3 18 -10q19 -53 67 -53q50 0 67 52q5 15 18 11l40 -12
q14 -4 10 -18q-16 -48 -52.5 -76t-82.5 -28z" />
    <glyph glyph-name="Aogonek" unicode="&#x104;" horiz-adv-x="676" 
d="M548 1l-78 185h-251l-71 -172q-6 -14 -21 -14h-82q-5 0 -8 4.5t-1 9.5l291 682q5 12 17 12q13 0 18 -12l292 -682q2 -5 -1 -9.5t-8 -4.5h-34v-1q0 -10 -17.5 -44t-17.5 -55q0 -26 15 -40.5t43 -14.5q26 0 55 11q5 2 9.5 -1.5t4.5 -8.5v-34q0 -15 -14 -21q-37 -12 -68 -12
q-50 0 -83 27t-33 79q0 30 21.5 69t22.5 46q-1 0 -1 1zM345 501l-89 -226h177z" />
    <glyph glyph-name="aogonek" unicode="&#x105;" horiz-adv-x="536" 
d="M479 -155q26 0 55 11q5 2 9.5 -1.5t4.5 -8.5v-34q0 -15 -14 -21q-38 -12 -68 -12q-50 0 -83 27t-33 79q0 30 22 69.5t22 47.5l-14 50q-29 -29 -68.5 -45t-75.5 -16q-43 0 -76.5 11.5t-51.5 28t-29.5 38.5t-15 39.5t-3.5 33.5q0 82 51 119t129 37q49 0 116 -20v27
q0 75 -22.5 95.5t-75.5 20.5q-48 0 -120 -28q-15 -6 -20 8l-19 46q-7 13 7 21q72 34 146 39q55 3 94 -8t60 -29.5t32.5 -49.5t14.5 -57t3 -64v-300q0 -10 -17.5 -44t-17.5 -55q0 -26 15 -40.5t43 -14.5zM356 141v60q-59 18 -108 18q-39 0 -67 -18.5t-28 -50.5q0 -36 25 -58
t61 -22q39 0 70.5 22t46.5 49z" />
    <glyph glyph-name="Cacute" unicode="&#x106;" horiz-adv-x="725" 
d="M654 587l-45 -45q-11 -9 -21 1q-33 32 -82.5 54t-99.5 22q-60 0 -106 -22t-71 -52.5t-40.5 -70.5t-20 -69t-4.5 -54t4.5 -54t20 -68.5t40.5 -70t71 -52.5t106 -22q97 0 187 74q12 10 20 -2l41 -51q9 -12 -2 -23q-99 -91 -246 -91q-77 0 -138.5 23.5t-99 60t-63 85
t-35.5 96t-10 95.5q0 47 10 93.5t35.5 95.5t63 86t99 60.5t138.5 23.5q150 0 249 -102q11 -11 -1 -21zM272 851l130 97q5 4 11 3t9 -6l29 -43q4 -4 2.5 -10.5t-6.5 -9.5l-138 -85q-13 -9 -21 4l-20 29q-8 12 4 21z" />
    <glyph glyph-name="cacute" unicode="&#x107;" horiz-adv-x="558" 
d="M487 416l-45 -41q-10 -10 -22 0q-50 44 -112 44t-105 -44t-43 -121q0 -70 39 -122.5t108 -52.5q64 0 116 47q11 11 21 0l37 -42q11 -11 -1 -22q-74 -72 -173 -72q-57 0 -101.5 17t-71.5 43t-44 62t-23.5 70.5t-6.5 71.5q0 43 12.5 85.5t39.5 83t78 65.5t119 25
q106 0 179 -76q11 -11 -1 -21zM189 651l130 97q5 4 11 3t9 -6l29 -43q4 -4 2.5 -10.5t-6.5 -9.5l-138 -85q-13 -9 -21 4l-20 29q-8 12 4 21z" />
    <glyph glyph-name="Ccircumflex" unicode="&#x108;" horiz-adv-x="725" 
d="M654 587l-45 -45q-11 -9 -21 1q-33 32 -82.5 54t-99.5 22q-60 0 -106 -22t-71 -52.5t-40.5 -70.5t-20 -69t-4.5 -54t4.5 -54t20 -68.5t40.5 -70t71 -52.5t106 -22q97 0 187 74q12 10 20 -2l41 -51q9 -13 -2 -22q-105 -93 -246 -93q-77 0 -138.5 23.5t-99 60t-63 85.5
t-35.5 96.5t-10 95.5q0 47 10 93.5t35.5 95.5t63 86t99 60.5t138.5 23.5q150 0 249 -102q11 -11 -1 -21zM266 850l130 97q12 9 24 0l130 -97q12 -9 4 -21l-20 -29q-8 -13 -21 -4l-105 64l-105 -64q-13 -9 -21 4l-20 29q-8 12 4 21z" />
    <glyph glyph-name="ccircumflex" unicode="&#x109;" horiz-adv-x="560" 
d="M489 416l-45 -41q-10 -10 -22 0q-52 48 -111 48q-61 0 -105 -46t-44 -123q0 -70 39 -122.5t108 -52.5q64 0 116 47q11 11 21 0l37 -42q11 -11 -1 -22q-71 -69 -173 -72q-70 -2 -121.5 23t-78 67.5t-38 85.5t-11.5 88q0 43 13 85.5t40 83t78.5 65.5t119.5 25
q106 0 179 -76q11 -11 -1 -21zM162 650l130 97q12 9 24 0l130 -97q12 -9 4 -21l-20 -29q-8 -13 -21 -4l-105 64l-105 -64q-13 -9 -21 4l-20 29q-8 12 4 21z" />
    <glyph glyph-name="Cdotaccent" unicode="&#x10a;" horiz-adv-x="725" 
d="M348 852q0 25 17 42.5t42 17.5t42.5 -17.5t17.5 -42.5t-17.5 -42t-42.5 -17t-42 16.5t-17 42.5zM654 587l-45 -45q-11 -9 -21 1q-33 32 -82.5 54t-99.5 22q-60 0 -106 -22t-71 -52.5t-40.5 -70.5t-20 -69t-4.5 -54t4.5 -54t20 -68.5t40.5 -70t71 -52.5t106 -22
q97 0 187 74q12 10 20 -2l41 -51q9 -13 -2 -22q-105 -93 -246 -93q-77 0 -138.5 23.5t-99 60t-63 85.5t-35.5 96.5t-10 95.5q0 47 10 93.5t35.5 95.5t63 86t99 60.5t138.5 23.5q150 0 249 -102q11 -11 -1 -21z" />
    <glyph glyph-name="cdotaccent" unicode="&#x10b;" horiz-adv-x="558" 
d="M248 652q0 25 17 42.5t42 17.5t42.5 -17.5t17.5 -42.5t-17.5 -42t-42.5 -17t-42 16.5t-17 42.5zM489 416l-45 -41q-10 -10 -22 0q-52 48 -111 48q-61 0 -105 -46t-44 -123q0 -70 39 -122.5t108 -52.5q64 0 116 47q11 11 21 0l37 -42q11 -11 -1 -22q-71 -69 -173 -72
q-70 -2 -121.5 23t-78 67.5t-38 85.5t-11.5 88q0 43 13 85.5t40 83t78.5 65.5t119.5 25q106 0 179 -76q11 -11 -1 -21z" />
    <glyph glyph-name="Ccaron" unicode="&#x10c;" horiz-adv-x="725" 
d="M654 587l-45 -45q-11 -9 -21 1q-33 32 -82.5 54t-99.5 22q-60 0 -106 -22t-71 -52.5t-40.5 -70.5t-20 -69t-4.5 -54t4.5 -54t20 -68.5t40.5 -70t71 -52.5t106 -22q97 0 187 74q12 10 20 -2l41 -51q9 -12 -2 -23q-99 -91 -246 -91q-77 0 -138.5 23.5t-99 60t-63 85
t-35.5 96t-10 95.5q0 47 10 93.5t35.5 95.5t63 86t99 60.5t138.5 23.5q150 0 249 -102q11 -11 -1 -21zM397 797l-130 97q-11 8 -4 21l20 29q9 13 21 4l105 -64l105 64q12 9 21 -4l20 -29q7 -13 -4 -21l-130 -97q-12 -9 -24 0z" />
    <glyph glyph-name="ccaron" unicode="&#x10d;" horiz-adv-x="558" 
d="M487 416l-45 -41q-10 -10 -22 0q-50 44 -112 44t-105 -44t-43 -121q0 -70 39 -122.5t108 -52.5q64 0 116 47q11 11 21 0l37 -42q11 -11 -1 -22q-74 -72 -173 -72q-57 0 -101.5 17t-71.5 43t-44 62t-23.5 70.5t-6.5 71.5q0 43 12.5 85.5t39.5 83t78 65.5t119 25
q106 0 179 -76q11 -11 -1 -21zM296 597l-130 97q-11 8 -4 21l20 29q9 13 21 4l105 -64l105 64q12 9 21 -4l20 -29q7 -13 -4 -21l-130 -97q-12 -9 -24 0z" />
    <glyph glyph-name="Dcaron" unicode="&#x10e;" horiz-adv-x="748" 
d="M342 0h-227q-6 0 -10.5 4.5t-4.5 10.5v670q0 6 4.5 10.5t10.5 4.5h227q77 0 138.5 -22.5t99 -58t63 -83t35.5 -93t10 -92.5q0 -48 -10 -94.5t-35 -93.5t-63.5 -82.5t-99.5 -58t-138 -22.5zM202 90h140q60 0 106 21t70.5 51t40 68.5t20 67t4.5 53.5t-4.5 53.5t-20 67
t-40 68t-70.5 50.5t-106 21h-140v-521zM282 797l-130 97q-11 8 -4 21l20 29q9 13 21 4l105 -64l105 64q12 9 21 -4l20 -29q7 -13 -4 -21l-130 -97q-12 -9 -24 0z" />
    <glyph glyph-name="dcaron" unicode="&#x10f;" horiz-adv-x="765" 
d="M682 716q38 0 55.5 -21t17.5 -52q0 -71 -75 -200q-9 -12 -22 -7l-23 11q-13 8 -6 20q39 75 47 118q-25 2 -42 21t-17 45q0 28 18.5 46.5t46.5 18.5zM432 481v204q0 6 4.5 10.5t10.5 4.5h70q6 0 10.5 -4.5t4.5 -10.5v-670q0 -6 -4.5 -10.5t-10.5 -4.5h-30q-15 0 -20 14
l-12 37q-62 -59 -151 -59q-53 0 -96.5 16.5t-70 43t-44.5 61.5t-25.5 69t-7.5 68q0 43 12.5 85t39.5 82.5t78 65.5t119 25q71 0 123 -27zM432 142v248q-46 35 -115 35q-46 0 -79.5 -19.5t-49.5 -49.5t-22.5 -56t-6.5 -50q0 -22 5.5 -47t19.5 -56t46.5 -51.5t78.5 -20.5
q83 0 123 67z" />
    <glyph glyph-name="Dcroat" unicode="&#x110;" horiz-adv-x="725" 
d="M91 700h228q77 0 138.5 -22.5t99 -58t63 -83t35.5 -93t10 -92.5q0 -48 -10 -94.5t-35 -93.5t-63.5 -82.5t-99.5 -58t-138 -22.5h-228q-6 0 -10.5 4.5t-4.5 10.5v293h-41q-6 0 -10.5 4.5t-4.5 10.5v45q0 6 4.5 10.5t10.5 4.5h41v302q0 6 4.5 10.5t10.5 4.5zM179 383h168
q6 0 10.5 -4.5t4.5 -10.5v-45q0 -6 -4.5 -10.5t-10.5 -4.5h-168v-218h140q60 0 106 21t70.5 51t40 68.5t20 67t4.5 53.5t-4.5 53.5t-20 67t-40 68t-70.5 50.5t-106 21h-140v-228z" />
    <glyph glyph-name="dcroat" unicode="&#x111;" horiz-adv-x="599" 
d="M532 658h42q6 0 10.5 -4.5t4.5 -10.5v-34q0 -6 -4.5 -10.5t-10.5 -4.5h-42v-579q0 -6 -4.5 -10.5t-10.5 -4.5h-30q-15 0 -20 14l-12 37q-62 -59 -151 -59q-53 0 -96.5 16.5t-70 43t-44.5 61.5t-25.5 69t-7.5 68q0 43 12.5 85t39.5 82.5t78 65.5t119 25q71 0 123 -27v113
h-91q-6 0 -10.5 4.5t-4.5 10.5v34q0 6 4.5 10.5t10.5 4.5h91v27q0 6 4.5 10.5t10.5 4.5h70q6 0 10.5 -4.5t4.5 -10.5v-27zM309 75q83 0 123 67v248q-46 35 -115 35q-46 0 -79.5 -19.5t-49.5 -49.5t-22.5 -56t-6.5 -50q0 -22 5.5 -47t19.5 -56t46.5 -51.5t78.5 -20.5z" />
    <glyph glyph-name="Emacron" unicode="&#x112;" horiz-adv-x="620" 
d="M467 300h-265v-210h343q6 0 10.5 -4.5t4.5 -10.5v-60q0 -6 -4.5 -10.5t-10.5 -4.5h-430q-6 0 -10.5 4.5t-4.5 10.5v670q0 6 4.5 10.5t10.5 4.5h430q6 0 10.5 -4.5t4.5 -10.5v-60q0 -6 -4.5 -10.5t-10.5 -4.5h-343v-220h265q6 0 10.5 -4.5t4.5 -10.5v-60q0 -6 -4.5 -10.5
t-10.5 -4.5zM174 866h271q6 0 10.5 -4.5t4.5 -10.5v-40q0 -6 -4.5 -10.5t-10.5 -4.5h-271q-6 0 -10.5 4.5t-4.5 10.5v40q0 6 4.5 10.5t10.5 4.5z" />
    <glyph glyph-name="emacron" unicode="&#x113;" horiz-adv-x="542" 
d="M452 127l33 -40q11 -11 -1 -21q-81 -72 -190 -72q-68 0 -119 25t-78 65.5t-39.5 83t-12.5 86.5q0 43 12.5 85t39.5 82.5t78 65.5t119 25q109 0 162 -73.5t36 -193.5q-2 -15 -17 -15h-330q3 -25 11 -47.5t23.5 -47.5t45 -40t69.5 -15q78 0 137 48q11 9 21 -1zM279 428
q-103 -9 -130 -124h252q6 43 -16 79.5t-76 44.5q-15 2 -30 0zM156 666h271q6 0 10.5 -4.5t4.5 -10.5v-40q0 -6 -4.5 -10.5t-10.5 -4.5h-271q-6 0 -10.5 4.5t-4.5 10.5v40q0 6 4.5 10.5t10.5 4.5z" />
    <glyph glyph-name="Ebreve" unicode="&#x114;" horiz-adv-x="620" 
d="M467 300h-265v-210h343q6 0 10.5 -4.5t4.5 -10.5v-60q0 -6 -4.5 -10.5t-10.5 -4.5h-430q-6 0 -10.5 4.5t-4.5 10.5v670q0 6 4.5 10.5t10.5 4.5h430q6 0 10.5 -4.5t4.5 -10.5v-60q0 -6 -4.5 -10.5t-10.5 -4.5h-343v-220h265q6 0 10.5 -4.5t4.5 -10.5v-60q0 -6 -4.5 -10.5
t-10.5 -4.5zM394 926l40 -12q14 -4 10 -18q-16 -48 -52.5 -76t-82.5 -28t-82 28t-52 76q-5 14 10 18l39 12q12 3 18 -10q19 -53 67 -53q50 0 67 52q5 15 18 11z" />
    <glyph glyph-name="ebreve" unicode="&#x115;" horiz-adv-x="542" 
d="M294 80q78 0 137 48q11 9 21 -1l33 -40q11 -11 -1 -21q-81 -72 -190 -72q-68 0 -119 25t-78 65.5t-39.5 83t-12.5 86.5q0 43 12.5 85t39.5 82.5t78 65.5t119 25q109 0 162 -73.5t36 -193.5q-2 -15 -17 -15h-330q3 -25 11 -47.5t23.5 -47.5t45 -40t69.5 -15zM294 429
q-115 0 -145 -125h252q7 46 -18.5 84t-88.5 41zM271 592q-46 0 -82 28t-52 76q-5 14 10 18l39 12q12 3 18 -10q19 -53 67 -53q50 0 67 52q5 15 18 11l40 -12q14 -4 10 -18q-16 -48 -52.5 -76t-82.5 -28z" />
    <glyph glyph-name="Edotaccent" unicode="&#x116;" horiz-adv-x="620" 
d="M250 852q0 25 17 42.5t42 17.5t42.5 -17.5t17.5 -42.5t-17.5 -42t-42.5 -17t-42 16.5t-17 42.5zM467 300h-265v-210h343q6 0 10.5 -4.5t4.5 -10.5v-60q0 -6 -4.5 -10.5t-10.5 -4.5h-430q-6 0 -10.5 4.5t-4.5 10.5v670q0 6 4.5 10.5t10.5 4.5h430q6 0 10.5 -4.5t4.5 -10.5
v-60q0 -6 -4.5 -10.5t-10.5 -4.5h-343v-220h265q6 0 10.5 -4.5t4.5 -10.5v-60q0 -6 -4.5 -10.5t-10.5 -4.5z" />
    <glyph glyph-name="edotaccent" unicode="&#x117;" horiz-adv-x="542" 
d="M240 652q0 25 17 42.5t42 17.5t42.5 -17.5t17.5 -42.5t-17.5 -42t-42.5 -17t-42 16.5t-17 42.5zM294 80q78 0 137 48q11 9 21 -1l33 -40q11 -11 -1 -21q-81 -72 -190 -72q-68 0 -119 25t-78 65.5t-39.5 83t-12.5 86.5q0 43 12.5 85t39.5 82.5t78 65.5t119 25
q109 0 162 -73.5t36 -193.5q-2 -15 -17 -15h-330q3 -25 11 -47.5t23.5 -47.5t45 -40t69.5 -15zM294 429q-115 0 -145 -125h252q7 46 -18.5 84t-88.5 41z" />
    <glyph glyph-name="Eogonek" unicode="&#x118;" horiz-adv-x="632" 
d="M467 300h-265v-210h343q6 0 10.5 -4.5t4.5 -10.5v-76q0 -10 -17.5 -44t-17.5 -55q0 -26 15 -40.5t43 -14.5q26 0 55 11q5 2 9.5 -1.5t4.5 -8.5v-34q0 -15 -14 -21q-38 -12 -68 -12q-50 0 -83 27t-33 79q0 30 21.5 69t22.5 46h-383q-6 0 -10.5 4.5t-4.5 10.5v670
q0 6 4.5 10.5t10.5 4.5h430q6 0 10.5 -4.5t4.5 -10.5v-60q0 -6 -4.5 -10.5t-10.5 -4.5h-343v-220h265q6 0 10.5 -4.5t4.5 -10.5v-60q0 -6 -4.5 -10.5t-10.5 -4.5z" />
    <glyph glyph-name="eogonek" unicode="&#x119;" horiz-adv-x="524" 
d="M452 127l33 -40q11 -11 -1 -21q-32 -29 -62 -44v-23q0 -10 -17.5 -44t-17.5 -55q0 -26 15 -40.5t43 -14.5q26 0 55 11q5 2 9.5 -1.5t4.5 -8.5v-34q0 -15 -14 -21q-38 -12 -68 -12q-50 0 -83 27t-33 79q0 30 21.5 69.5t22.5 45.5q-32 -6 -66 -6q-68 0 -119 25t-78 65.5
t-39.5 83t-12.5 86.5q0 43 12.5 85t39.5 82.5t78 65.5t119 25q109 0 162 -73.5t36 -193.5q-2 -15 -17 -15h-330q3 -25 11 -47.5t23.5 -47.5t45 -40t69.5 -15q78 0 137 48q11 9 21 -1zM294 429q-115 0 -145 -125h252q7 46 -18.5 84t-88.5 41z" />
    <glyph glyph-name="Ecaron" unicode="&#x11a;" horiz-adv-x="620" 
d="M467 300h-265v-210h343q6 0 10.5 -4.5t4.5 -10.5v-60q0 -6 -4.5 -10.5t-10.5 -4.5h-430q-6 0 -10.5 4.5t-4.5 10.5v670q0 6 4.5 10.5t10.5 4.5h430q6 0 10.5 -4.5t4.5 -10.5v-60q0 -6 -4.5 -10.5t-10.5 -4.5h-343v-220h265q6 0 10.5 -4.5t4.5 -10.5v-60q0 -6 -4.5 -10.5
t-10.5 -4.5zM297 797l-130 97q-11 8 -4 21l20 29q9 13 21 4l105 -64l105 64q12 9 21 -4l20 -29q7 -13 -4 -21l-130 -97q-12 -9 -24 0z" />
    <glyph glyph-name="ecaron" unicode="&#x11b;" horiz-adv-x="542" 
d="M425 694l-130 -97q-12 -9 -24 0l-130 97q-11 8 -4 21l20 29q9 13 21 4l105 -64l105 64q12 9 21 -4l20 -29q7 -13 -4 -21zM294 80q78 0 137 48q11 9 21 -1l33 -40q11 -11 -1 -21q-81 -72 -190 -72q-68 0 -119 25t-78 65.5t-39.5 83t-12.5 86.5q0 43 12.5 85t39.5 82.5
t78 65.5t119 25q109 0 162 -73.5t36 -193.5q-2 -15 -17 -15h-330q3 -25 11 -47.5t23.5 -47.5t45 -40t69.5 -15zM294 429q-115 0 -145 -125h252q7 46 -18.5 84t-88.5 41z" />
    <glyph glyph-name="Gcircumflex" unicode="&#x11c;" horiz-adv-x="718" 
d="M554 250h-132q-6 0 -10.5 4.5t-4.5 10.5v60q0 6 4.5 10.5t10.5 4.5h220q6 0 10.5 -4.5t4.5 -10.5v-221q0 -16 -11 -25q-96 -88 -240 -88q-77 0 -138.5 23.5t-99 60t-63 85t-35.5 96t-10 95.5q0 47 10 93.5t35.5 95.5t63 86t99 60.5t138.5 23.5q81 0 134.5 -21t98.5 -67
q10 -10 0 -22l-44 -44q-9 -11 -21 -1q-30 27 -75 45.5t-93 18.5q-60 0 -106 -22t-71 -52.5t-40.5 -70.5t-20 -69t-4.5 -54t4.5 -54t20 -68.5t40.5 -70t71 -52.5t106 -22q87 0 148 45v121zM263 850l130 97q12 9 24 0l130 -97q12 -9 4 -21l-20 -29q-8 -13 -21 -4l-105 64
l-105 -64q-13 -9 -21 4l-20 29q-8 12 4 21z" />
    <glyph glyph-name="gcircumflex" unicode="&#x11d;" horiz-adv-x="565" 
d="M310 66q58 -1 97.5 -12.5t58 -32t25.5 -42.5t6 -50q-1 -18 -11 -40t-32 -46t-65.5 -40t-102.5 -16q-119 0 -172.5 46.5t-53.5 103.5q2 76 69 104q-54 20 -56 71q-2 36 14 61.5t45 32.5q-39 52 -39 119q0 31 9.5 61t29.5 58.5t58 46t89 17.5q59 0 102 -25l62 57
q11 10 22 -1l33 -33q11 -9 1 -21l-59 -62q26 -49 26 -98q0 -70 -45.5 -127t-141.5 -57q-43 0 -75 12q-23 3 -35.5 -9t-12.5 -31q0 -23 22 -34.5t55 -11.5q11 0 39 -0.5t38 -0.5zM279 425q-26 0 -45 -11.5t-27 -29.5t-11.5 -32.5t-3.5 -26.5t3.5 -26.5t11.5 -32.5t27 -29.5
t45 -11.5t45 11.5t27 29.5t11.5 32.5t3.5 26.5t-3.5 26.5t-11.5 32.5t-27 29.5t-45 11.5zM406 -67q3 24 -23.5 36.5t-103.5 12.5t-103 -11.5t-26 -37.5q0 -5 2.5 -11.5t11.5 -15.5t22 -16t37.5 -12t55.5 -6q34 0 59.5 6t38 14t19.5 18t8.5 15t1.5 8zM282 660l-105 -64
q-13 -9 -21 4l-20 29q-8 12 4 21l130 97q12 9 24 0l130 -97q12 -9 4 -21l-20 -29q-8 -13 -21 -4z" />
    <glyph glyph-name="Gbreve" unicode="&#x11e;" horiz-adv-x="717" 
d="M554 250h-132q-6 0 -10.5 4.5t-4.5 10.5v60q0 6 4.5 10.5t10.5 4.5h220q6 0 10.5 -4.5t4.5 -10.5v-221q0 -16 -11 -25q-96 -88 -240 -88q-77 0 -138.5 23.5t-99 60t-63 85t-35.5 96t-10 95.5q0 47 10 93.5t35.5 95.5t63 86t99 60.5t138.5 23.5q81 0 134.5 -21t98.5 -67
q10 -10 0 -22l-44 -44q-9 -11 -21 -1q-30 27 -75 45.5t-93 18.5q-60 0 -106 -22t-71 -52.5t-40.5 -70.5t-20 -69t-4.5 -54t4.5 -54t20 -68.5t40.5 -70t71 -52.5t106 -22q87 0 148 45v121zM487 926l40 -12q14 -4 10 -18q-16 -48 -52.5 -76t-82.5 -28t-82 28t-52 76
q-5 14 10 18l39 12q12 3 18 -10q19 -53 67 -53q50 0 67 52q5 15 18 11z" />
    <glyph glyph-name="gbreve" unicode="&#x11f;" horiz-adv-x="569" 
d="M282 592q-46 0 -82 28t-52 76q-5 14 10 18l39 12q12 3 18 -10q19 -53 67 -53q50 0 67 52q5 15 18 11l40 -12q14 -4 10 -18q-16 -48 -52.5 -76t-82.5 -28zM310 66q58 -1 97.5 -12.5t58 -32t25.5 -42.5t6 -50q-1 -18 -11 -40t-32 -46t-65.5 -40t-102.5 -16
q-119 0 -172.5 46.5t-53.5 103.5q2 76 69 104q-54 20 -56 71q-2 36 14 61.5t45 32.5q-39 52 -39 119q0 31 9.5 61t29.5 58.5t58 46t89 17.5q59 0 102 -25l62 57q11 10 22 -1l33 -33q11 -9 1 -21l-59 -62q26 -49 26 -98q0 -70 -45.5 -127t-141.5 -57q-43 0 -75 12
q-23 3 -35.5 -9t-12.5 -31q0 -23 22 -34.5t55 -11.5q11 0 39 -0.5t38 -0.5zM279 425q-26 0 -45 -11.5t-27 -29.5t-11.5 -32.5t-3.5 -26.5t3.5 -26.5t11.5 -32.5t27 -29.5t45 -11.5t45 11.5t27 29.5t11.5 32.5t3.5 26.5t-3.5 26.5t-11.5 32.5t-27 29.5t-45 11.5zM406 -67
q3 24 -23.5 36.5t-103.5 12.5t-103 -11.5t-26 -37.5q0 -5 2.5 -11.5t11.5 -15.5t22 -16t37.5 -12t55.5 -6q34 0 59.5 6t38 14t19.5 18t8.5 15t1.5 8z" />
    <glyph glyph-name="Gdotaccent" unicode="&#x120;" horiz-adv-x="717" 
d="M347 851q0 25 17 42.5t42 17.5t42.5 -17.5t17.5 -42.5t-17.5 -42t-42.5 -17q-26 0 -42.5 17t-16.5 42zM554 250h-132q-6 0 -10.5 4.5t-4.5 10.5v60q0 6 4.5 10.5t10.5 4.5h220q6 0 10.5 -4.5t4.5 -10.5v-221q0 -16 -11 -25q-96 -88 -240 -88q-77 0 -138.5 23.5t-99 60
t-63 85t-35.5 96t-10 95.5q0 47 10 93.5t35.5 95.5t63 86t99 60.5t138.5 23.5q81 0 134.5 -21t98.5 -67q10 -10 0 -22l-44 -44q-9 -11 -21 -1q-30 27 -75 45.5t-93 18.5q-60 0 -106 -22t-71 -52.5t-40.5 -70.5t-20 -69t-4.5 -54t4.5 -54t20 -68.5t40.5 -70t71 -52.5t106 -22
q87 0 148 45v121z" />
    <glyph glyph-name="gdotaccent" unicode="&#x121;" horiz-adv-x="565" 
d="M223 652q0 25 17 42.5t42 17.5t42.5 -17.5t17.5 -42.5t-17.5 -42t-42.5 -17q-26 0 -42.5 16.5t-16.5 42.5zM310 66q58 -1 97.5 -12.5t58 -32t25.5 -42.5t6 -50q-1 -18 -11 -40t-32 -46t-65.5 -40t-102.5 -16q-119 0 -172.5 46.5t-53.5 103.5q2 76 69 104q-54 20 -56 71
q-2 36 14 61.5t45 32.5q-39 52 -39 119q0 31 9.5 61t29.5 58.5t58 46t89 17.5q59 0 102 -25l62 57q11 10 22 -1l33 -33q11 -9 1 -21l-59 -62q26 -49 26 -98q0 -70 -45.5 -127t-141.5 -57q-43 0 -75 12q-23 3 -35.5 -9t-12.5 -31q0 -23 22 -34.5t55 -11.5q11 0 39 -0.5
t38 -0.5zM279 425q-26 0 -45 -11.5t-27 -29.5t-11.5 -32.5t-3.5 -26.5t3.5 -26.5t11.5 -32.5t27 -29.5t45 -11.5t45 11.5t27 29.5t11.5 32.5t3.5 26.5t-3.5 26.5t-11.5 32.5t-27 29.5t-45 11.5zM406 -67q3 24 -23.5 36.5t-103.5 12.5t-103 -11.5t-26 -37.5q0 -5 2.5 -11.5
t11.5 -15.5t22 -16t37.5 -12t55.5 -6q34 0 59.5 6t38 14t19.5 18t8.5 15t1.5 8z" />
    <glyph glyph-name="Gcommaaccent" unicode="&#x122;" horiz-adv-x="718" 
d="M554 250h-132q-6 0 -10.5 4.5t-4.5 10.5v60q0 6 4.5 10.5t10.5 4.5h220q6 0 10.5 -4.5t4.5 -10.5v-221q0 -16 -11 -25q-96 -88 -240 -88q-77 0 -138.5 23.5t-99 60t-63 85t-35.5 96t-10 95.5q0 47 10 93.5t35.5 95.5t63 86t99 60.5t138.5 23.5q81 0 134.5 -21t98.5 -67
q10 -10 0 -22l-44 -44q-9 -11 -21 -1q-30 27 -75 45.5t-93 18.5q-60 0 -106 -22t-71 -52.5t-40.5 -70.5t-20 -69t-4.5 -54t4.5 -54t20 -68.5t40.5 -70t71 -52.5t106 -22q87 0 148 45v121zM390 -331l-16 7q-13 8 -6 20q31 66 36 95q-23 1 -38 18.5t-15 40.5q0 25 16.5 42
t41.5 17q34 0 50 -19.5t16 -46.5q0 -63 -64 -168q-8 -13 -21 -6z" />
    <glyph glyph-name="gcommaaccent" unicode="&#x123;" horiz-adv-x="565" 
d="M286 584q-38 0 -55.5 21t-17.5 52q0 71 75 200q9 13 21 6l23 -11q15 -6 7 -19q-42 -82 -47 -118q25 -2 42 -21t17 -45q0 -28 -18.5 -46.5t-46.5 -18.5zM310 66q58 -1 97.5 -12.5t58 -32t25.5 -42.5t6 -50q-1 -18 -11 -40t-32 -46t-65.5 -40t-102.5 -16
q-119 0 -172.5 46.5t-53.5 103.5q2 76 69 104q-54 20 -56 71q-2 36 14 61.5t45 32.5q-39 52 -39 119q0 31 9.5 61t29.5 58.5t58 46t89 17.5q59 0 102 -25l62 57q11 10 22 -1l33 -33q11 -9 1 -21l-59 -62q26 -49 26 -98q0 -70 -45.5 -127t-141.5 -57q-43 0 -75 12
q-23 3 -35.5 -9t-12.5 -31q0 -23 22 -34.5t55 -11.5q11 0 39 -0.5t38 -0.5zM279 425q-26 0 -45 -11.5t-27 -29.5t-11.5 -32.5t-3.5 -26.5t3.5 -26.5t11.5 -32.5t27 -29.5t45 -11.5t45 11.5t27 29.5t11.5 32.5t3.5 26.5t-3.5 26.5t-11.5 32.5t-27 29.5t-45 11.5zM406 -67
q3 24 -23.5 36.5t-103.5 12.5t-103 -11.5t-26 -37.5q0 -5 2.5 -11.5t11.5 -15.5t22 -16t37.5 -12t55.5 -6q34 0 59.5 6t38 14t19.5 18t8.5 15t1.5 8z" />
    <glyph glyph-name="Hcircumflex" unicode="&#x124;" horiz-adv-x="767" 
d="M203 300v-285q0 -6 -4.5 -10.5t-10.5 -4.5h-73q-6 0 -10.5 4.5t-4.5 10.5v670q0 6 4.5 10.5t10.5 4.5h73q6 0 10.5 -4.5t4.5 -10.5v-295h361v295q0 6 4.5 10.5t10.5 4.5h73q6 0 10.5 -4.5t4.5 -10.5v-670q0 -6 -4.5 -10.5t-10.5 -4.5h-73q-6 0 -10.5 4.5t-4.5 10.5v285
h-361zM236 850l130 97q12 9 24 0l130 -97q12 -9 4 -21l-20 -29q-8 -13 -21 -4l-105 64l-105 -64q-13 -9 -21 4l-20 29q-8 12 4 21z" />
    <glyph glyph-name="hcircumflex" unicode="&#x125;" horiz-adv-x="579" 
d="M165 0h-70q-6 0 -10.5 4.5t-4.5 10.5v670q0 6 4.5 10.5t10.5 4.5h70q6 0 10.5 -4.5t4.5 -10.5v-220q22 19 58 31t70 12q66 0 110.5 -21.5t65 -61t28 -78t7.5 -89.5v-243q0 -6 -4.5 -10.5t-10.5 -4.5h-69q-6 0 -10.5 4.5t-4.5 10.5v243q0 3 -0.5 24.5t-2 34.5t-8.5 35
t-18.5 35.5t-34 24.5t-53.5 13q-43 3 -76 -16.5t-47 -46.5v-347q0 -6 -4.5 -10.5t-10.5 -4.5zM-4 850l130 97q12 9 24 0l130 -97q12 -9 4 -21l-20 -29q-8 -13 -21 -4l-105 64l-105 -64q-13 -9 -21 4l-20 29q-8 12 4 21z" />
    <glyph glyph-name="Hbar" unicode="&#x126;" horiz-adv-x="761" 
d="M97 527h-42q-6 0 -10.5 4.5t-4.5 10.5v41q0 6 4.5 10.5t10.5 4.5h42v87q0 6 4.5 10.5t10.5 4.5h73q6 0 10.5 -4.5t4.5 -10.5v-87h361v87q0 6 4.5 10.5t10.5 4.5h73q6 0 10.5 -4.5t4.5 -10.5v-87h42q6 0 10.5 -4.5t4.5 -10.5v-41q0 -6 -4.5 -10.5t-10.5 -4.5h-42v-512
q0 -6 -4.5 -10.5t-10.5 -4.5h-73q-6 0 -10.5 4.5t-4.5 10.5v285h-361v-285q0 -6 -4.5 -10.5t-10.5 -4.5h-73q-6 0 -10.5 4.5t-4.5 10.5v512zM200 390h361v137h-361v-137z" />
    <glyph glyph-name="hbar" unicode="&#x127;" horiz-adv-x="571" 
d="M72 559h-47q-6 0 -10.5 4.5t-4.5 10.5v40q0 6 4.5 10.5t10.5 4.5h47v56q0 6 4.5 10.5t10.5 4.5h70q6 0 10.5 -4.5t4.5 -10.5v-56h120q6 0 10.5 -4.5t4.5 -10.5v-40q0 -6 -4.5 -10.5t-10.5 -4.5h-120v-94q22 19 58 31t70 12q66 0 110.5 -21.5t65 -61t28 -78t7.5 -89.5
v-243q0 -6 -4.5 -10.5t-10.5 -4.5h-69q-6 0 -10.5 4.5t-4.5 10.5v243q0 3 -0.5 24.5t-2 34.5t-8.5 35t-18.5 35.5t-34 24.5t-53.5 13q-43 3 -76 -16.5t-47 -46.5v-347q0 -6 -4.5 -10.5t-10.5 -4.5h-70q-6 0 -10.5 4.5t-4.5 10.5v544z" />
    <glyph glyph-name="Itilde" unicode="&#x128;" horiz-adv-x="316" 
d="M209 685v-670q0 -6 -4.5 -10.5t-10.5 -4.5h-73q-6 0 -10.5 4.5t-4.5 10.5v670q0 6 4.5 10.5t10.5 4.5h73q6 0 10.5 -4.5t4.5 -10.5zM272 893l31 -16q13 -7 6 -21q-36 -69 -104 -69q-23 0 -52 19.5t-49 19.5q-27 0 -44 -29q-7 -13 -21 -6l-26 12q-13 7 -8 21q28 76 100 76
q27 0 56.5 -19.5t45.5 -19.5q25 0 44 26q9 13 21 6z" />
    <glyph glyph-name="itilde" unicode="&#x129;" horiz-adv-x="316" 
d="M208 485v-470q0 -6 -4.5 -10.5t-10.5 -4.5h-70q-6 0 -10.5 4.5t-4.5 10.5v470q0 6 4.5 10.5t10.5 4.5h70q6 0 10.5 -4.5t4.5 -10.5zM272 693l31 -16q13 -7 6 -21q-36 -69 -104 -69q-23 0 -52 19.5t-49 19.5q-27 0 -44 -29q-7 -13 -21 -6l-26 12q-13 7 -8 21q28 76 100 76
q27 0 56.5 -19.5t45.5 -19.5q25 0 44 26q9 13 21 6z" />
    <glyph glyph-name="Imacron" unicode="&#x12a;" horiz-adv-x="301" 
d="M202 685v-670q0 -6 -4.5 -10.5t-10.5 -4.5h-73q-6 0 -10.5 4.5t-4.5 10.5v670q0 6 4.5 10.5t10.5 4.5h73q6 0 10.5 -4.5t4.5 -10.5zM15 866h271q6 0 10.5 -4.5t4.5 -10.5v-40q0 -6 -4.5 -10.5t-10.5 -4.5h-271q-6 0 -10.5 4.5t-4.5 10.5v40q0 6 4.5 10.5t10.5 4.5z" />
    <glyph glyph-name="imacron" unicode="&#x12b;" horiz-adv-x="301" 
d="M200 485v-470q0 -6 -4.5 -10.5t-10.5 -4.5h-70q-6 0 -10.5 4.5t-4.5 10.5v470q0 6 4.5 10.5t10.5 4.5h70q6 0 10.5 -4.5t4.5 -10.5zM15 666h271q6 0 10.5 -4.5t4.5 -10.5v-40q0 -6 -4.5 -10.5t-10.5 -4.5h-271q-6 0 -10.5 4.5t-4.5 10.5v40q0 6 4.5 10.5t10.5 4.5z" />
    <glyph glyph-name="Ibreve" unicode="&#x12c;" horiz-adv-x="277" 
d="M190 685v-670q0 -6 -4.5 -10.5t-10.5 -4.5h-73q-6 0 -10.5 4.5t-4.5 10.5v670q0 6 4.5 10.5t10.5 4.5h73q6 0 10.5 -4.5t4.5 -10.5zM223 926l40 -12q14 -4 10 -18q-16 -48 -52.5 -76t-82.5 -28t-82 28t-52 76q-5 14 10 18l39 12q12 3 18 -10q19 -53 67 -53q50 0 67 52
q5 15 18 11z" />
    <glyph glyph-name="ibreve" unicode="&#x12d;" horiz-adv-x="277" 
d="M188 485v-470q0 -6 -4.5 -10.5t-10.5 -4.5h-70q-6 0 -10.5 4.5t-4.5 10.5v470q0 6 4.5 10.5t10.5 4.5h70q6 0 10.5 -4.5t4.5 -10.5zM223 726l40 -12q14 -4 10 -18q-16 -48 -52.5 -76t-82.5 -28t-82 28t-52 76q-5 14 10 18l39 12q12 3 18 -10q19 -53 67 -53q50 0 67 52
q5 15 18 11z" />
    <glyph glyph-name="Iogonek" unicode="&#x12e;" horiz-adv-x="278" 
d="M196 685v-686q0 -10 -17.5 -44t-17.5 -55q0 -26 15 -40.5t43 -14.5q26 0 55 11q5 2 9.5 -1.5t4.5 -8.5v-34q0 -15 -14 -21q-37 -12 -68 -12q-50 0 -83 27t-33 79q0 30 21.5 69t22.5 46h-26q-6 0 -10.5 4.5t-4.5 10.5v670q0 6 4.5 10.5t10.5 4.5h73q6 0 10.5 -4.5
t4.5 -10.5z" />
    <glyph glyph-name="iogonek" unicode="&#x12f;" horiz-adv-x="271" 
d="M189 485v-485q0 -10 -17.5 -44.5t-17.5 -55.5q0 -26 15 -40.5t43 -14.5q26 0 55 11q5 2 9.5 -1.5t4.5 -8.5v-34q0 -15 -14 -21q-37 -12 -68 -12q-50 0 -83 27t-33 79q0 30 21.5 69t22.5 46h-23q-6 0 -10.5 4.5t-4.5 10.5v470q0 6 4.5 10.5t10.5 4.5h70q6 0 10.5 -4.5
t4.5 -10.5zM80 652q0 25 17 42.5t42 17.5t42.5 -17.5t17.5 -42.5t-17.5 -42t-42.5 -17t-42 16.5t-17 42.5z" />
    <glyph glyph-name="Idotaccent" unicode="&#x130;" horiz-adv-x="299" 
d="M201 685v-670q0 -6 -4.5 -10.5t-10.5 -4.5h-73q-6 0 -10.5 4.5t-4.5 10.5v670q0 6 4.5 10.5t10.5 4.5h73q6 0 10.5 -4.5t4.5 -10.5zM90 847q0 25 17 42.5t42 17.5t42.5 -17.5t17.5 -42.5t-17.5 -42t-42.5 -17t-42 17t-17 42z" />
    <glyph glyph-name="dotlessi" unicode="&#x131;" horiz-adv-x="260" 
d="M180 485v-470q0 -6 -4.5 -10.5t-10.5 -4.5h-70q-6 0 -10.5 4.5t-4.5 10.5v470q0 6 4.5 10.5t10.5 4.5h70q6 0 10.5 -4.5t4.5 -10.5z" />
    <glyph glyph-name="IJ" unicode="&#x132;" horiz-adv-x="869" 
d="M203 685v-670q0 -6 -4.5 -10.5t-10.5 -4.5h-73q-6 0 -10.5 4.5t-4.5 10.5v670q0 6 4.5 10.5t10.5 4.5h73q6 0 10.5 -4.5t4.5 -10.5zM291 187l65 24q13 5 19 -9q19 -54 52 -85t92 -31q39 0 68 15t43.5 35t23 48t10 46t1.5 37v418q0 6 4.5 10.5t10.5 4.5h74q6 0 10.5 -4.5
t4.5 -10.5v-418q0 -47 -11.5 -91t-37.5 -87t-77.5 -69t-123.5 -26q-101 0 -156 46t-82 128q-3 14 10 19z" />
    <glyph glyph-name="ij" unicode="&#x133;" horiz-adv-x="538" 
d="M189 485v-471q0 -6 -4.5 -10.5t-10.5 -4.5h-70q-6 0 -10.5 4.5t-4.5 10.5v471q0 6 4.5 10.5t10.5 4.5h70q6 0 10.5 -4.5t4.5 -10.5zM82 667q5 20 20.5 32.5t36.5 12.5q25 0 42.5 -17.5t17.5 -42.5t-17.5 -42t-42.5 -17q-22 0 -37 12t-20 32q-4 15 0 30zM201 -90
q38 -20 71 -20q76 0 76 107v488q0 6 4.5 10.5t10.5 4.5h70q6 0 10.5 -4.5t4.5 -10.5v-488v-2q0 -12 -0.5 -23.5t-4 -37t-14.5 -46t-28.5 -42t-49 -33.5t-72.5 -12q-68 0 -123 39q-12 9 -3 23l27 41q8 14 21 6zM339 652q0 25 17 42.5t42 17.5t42.5 -17.5t17.5 -42.5
t-17.5 -42t-42.5 -17q-26 0 -42.5 16.5t-16.5 42.5z" />
    <glyph glyph-name="Jcircumflex" unicode="&#x134;" 
d="M34 187l65 24q13 5 19 -9q19 -54 52 -85t92 -31q39 0 68 15t43.5 35t23 48t10 46t1.5 37v418q0 6 4.5 10.5t10.5 4.5h74q6 0 10.5 -4.5t4.5 -10.5v-418q0 -47 -11.5 -91t-37.5 -87t-77.5 -69t-123.5 -26q-101 0 -156 46t-82 128q-3 14 10 19zM316 850l130 97q12 9 24 0
l130 -97q12 -9 4 -21l-20 -29q-8 -13 -21 -4l-105 64l-105 -64q-13 -9 -21 4l-20 29q-8 12 4 21z" />
    <glyph glyph-name="jcircumflex" unicode="&#x135;" horiz-adv-x="288" 
d="M-74 -90q38 -20 71 -20q76 0 76 107v488q0 6 4.5 10.5t10.5 4.5h70q6 0 10.5 -4.5t4.5 -10.5v-488v-2q0 -12 -0.5 -23.5t-4 -37t-14.5 -46t-28.5 -42t-49 -33.5t-72.5 -12q-68 0 -123 39q-12 9 -3 23l27 41q8 14 21 6zM-8 650l130 97q12 9 24 0l130 -97q12 -9 4 -21
l-20 -29q-8 -13 -21 -4l-105 64l-105 -64q-13 -9 -21 4l-20 29q-8 12 4 21z" />
    <glyph glyph-name="Kcommaaccent" unicode="&#x136;" horiz-adv-x="697" 
d="M188 0h-73q-6 0 -10.5 4.5t-4.5 10.5v670q0 6 4.5 10.5t10.5 4.5h73q6 0 10.5 -4.5t4.5 -10.5v-288l297 292q11 11 26 11h94q9 0 9 -9q0 -8 -6 -14l-322 -316l346 -343q5 -5 5 -12q0 -6 -7 -6h-98q-15 0 -26 11l-318 317v-313q0 -6 -4.5 -10.5t-10.5 -4.5zM310 -331
l-16 7q-13 8 -6 20q31 66 36 95q-23 1 -38 18.5t-15 40.5q0 25 16.5 42t41.5 17q34 0 50 -19.5t16 -46.5q0 -63 -64 -168q-8 -13 -21 -6z" />
    <glyph glyph-name="kcommaaccent" unicode="&#x137;" horiz-adv-x="552" 
d="M180 223v-208q0 -6 -4.5 -10.5t-10.5 -4.5h-70q-6 0 -10.5 4.5t-4.5 10.5v670q0 6 4.5 10.5t10.5 4.5h70q6 0 10.5 -4.5t4.5 -10.5v-394l193 198q11 11 26 11h100q3 0 4 -3q1 -1 -1 -4l-237 -233l254 -250q3 -3 2 -7q-1 -3 -5 -3h-102q-15 0 -26 11zM239 -331l-16 7
q-13 8 -6 20q31 66 36 95q-23 1 -38 18.5t-15 40.5q0 25 16.5 42t41.5 17q34 0 50 -19.5t16 -46.5q0 -63 -64 -168q-8 -13 -21 -6z" />
    <glyph glyph-name="kgreenlandic" unicode="&#x138;" horiz-adv-x="552" 
d="M180 223v-208q0 -6 -4.5 -10.5t-10.5 -4.5h-70q-6 0 -10.5 4.5t-4.5 10.5v471q0 6 4.5 10.5t10.5 4.5h70q6 0 10.5 -4.5t4.5 -10.5v-195l193 198q11 11 26 11h100q3 0 4 -3q1 -1 -1 -4l-237 -233l254 -250q3 -3 2 -7q-1 -3 -5 -3h-102q-15 0 -26 11z" />
    <glyph glyph-name="Lacute" unicode="&#x139;" horiz-adv-x="530" 
d="M203 685v-595h252q6 0 10.5 -4.5t4.5 -10.5v-60q0 -6 -4.5 -10.5t-10.5 -4.5h-340q-6 0 -10.5 4.5t-4.5 10.5v670q0 6 4.5 10.5t10.5 4.5h73q6 0 10.5 -4.5t4.5 -10.5zM177 851l130 97q5 4 11 3t9 -6l29 -43q4 -4 2.5 -10.5t-6.5 -9.5l-138 -85q-13 -9 -21 4l-20 29
q-8 12 4 21z" />
    <glyph glyph-name="lacute" unicode="&#x13a;" horiz-adv-x="260" 
d="M180 685v-670q0 -6 -4.5 -10.5t-10.5 -4.5h-70q-6 0 -10.5 4.5t-4.5 10.5v670q0 6 4.5 10.5t10.5 4.5h70q6 0 10.5 -4.5t4.5 -10.5zM42 845l130 97q5 4 11 3t9 -6l29 -43q4 -4 2.5 -10.5t-6.5 -9.5l-138 -85q-13 -9 -21 4l-20 29q-8 12 4 21z" />
    <glyph glyph-name="Lcommaaccent" unicode="&#x13b;" horiz-adv-x="530" 
d="M203 685v-595h252q6 0 10.5 -4.5t4.5 -10.5v-60q0 -6 -4.5 -10.5t-10.5 -4.5h-340q-6 0 -10.5 4.5t-4.5 10.5v670q0 6 4.5 10.5t10.5 4.5h73q6 0 10.5 -4.5t4.5 -10.5zM260 -331l-16 7q-13 8 -6 20q31 66 36 95q-23 1 -38 18.5t-15 40.5q0 25 16.5 42t41.5 17
q34 0 50 -19.5t16 -46.5q0 -63 -64 -168q-8 -13 -21 -6z" />
    <glyph glyph-name="lcommaaccent" unicode="&#x13c;" horiz-adv-x="244" 
d="M172 685v-670q0 -6 -4.5 -10.5t-10.5 -4.5h-70q-6 0 -10.5 4.5t-4.5 10.5v670q0 6 4.5 10.5t10.5 4.5h70q6 0 10.5 -4.5t4.5 -10.5zM99 -331l-16 7q-13 8 -6 20q31 66 36 95q-23 1 -38 18.5t-15 40.5q0 25 16.5 42t41.5 17q34 0 50 -19.5t16 -46.5q0 -63 -64 -168
q-8 -13 -21 -6z" />
    <glyph glyph-name="Lcaron" unicode="&#x13d;" horiz-adv-x="530" 
d="M203 685v-595h252q6 0 10.5 -4.5t4.5 -10.5v-60q0 -6 -4.5 -10.5t-10.5 -4.5h-340q-6 0 -10.5 4.5t-4.5 10.5v670q0 6 4.5 10.5t10.5 4.5h73q6 0 10.5 -4.5t4.5 -10.5zM346 438l-23 11q-13 8 -6 20q39 75 47 118q-25 2 -42 21t-17 45q0 28 18.5 46.5t46.5 18.5
q38 0 55.5 -21t17.5 -52q0 -71 -75 -200q-9 -12 -22 -7z" />
    <glyph glyph-name="lcaron" unicode="&#x13e;" horiz-adv-x="414" 
d="M180 685v-670q0 -6 -4.5 -10.5t-10.5 -4.5h-70q-6 0 -10.5 4.5t-4.5 10.5v670q0 6 4.5 10.5t10.5 4.5h70q6 0 10.5 -4.5t4.5 -10.5zM317 427l-23 11q-13 8 -6 20q39 75 47 118q-25 2 -42 21t-17 45q0 28 18.5 46.5t46.5 18.5q38 0 55.5 -21t17.5 -52q0 -71 -75 -200
q-9 -12 -22 -7z" />
    <glyph glyph-name="Ldot" unicode="&#x13f;" horiz-adv-x="530" 
d="M203 685v-595h252q6 0 10.5 -4.5t4.5 -10.5v-60q0 -6 -4.5 -10.5t-10.5 -4.5h-340q-6 0 -10.5 4.5t-4.5 10.5v670q0 6 4.5 10.5t10.5 4.5h73q6 0 10.5 -4.5t4.5 -10.5zM323 334q0 -27 19 -46.5t46 -19.5t46.5 19.5t19.5 46.5t-19.5 46t-46.5 19q-28 0 -46.5 -18.5
t-18.5 -46.5z" />
    <glyph glyph-name="ldot" unicode="&#x140;" horiz-adv-x="448" 
d="M190 685v-670q0 -6 -4.5 -10.5t-10.5 -4.5h-70q-6 0 -10.5 4.5t-4.5 10.5v670q0 6 4.5 10.5t10.5 4.5h70q6 0 10.5 -4.5t4.5 -10.5zM287 326q0 -27 19 -46.5t46 -19.5t46.5 19.5t19.5 46.5t-19.5 46t-46.5 19q-28 0 -46.5 -18.5t-18.5 -46.5z" />
    <glyph glyph-name="Lslash" unicode="&#x141;" horiz-adv-x="536" 
d="M37 256l-19 33q-9 12 5 20l83 48v328q0 6 4.5 10.5t10.5 4.5h73q6 0 10.5 -4.5t4.5 -10.5v-268l136 78q12 8 21 -5l19 -33q8 -12 -5 -21l-171 -99v-247h252q6 0 10.5 -4.5t4.5 -10.5v-60q0 -6 -4.5 -10.5t-10.5 -4.5h-340q-6 0 -10.5 4.5t-4.5 10.5v263l-48 -28
q-12 -7 -21 6z" />
    <glyph glyph-name="lslash" unicode="&#x142;" horiz-adv-x="348" 
d="M37 256l-19 33q-9 12 5 20l83 48v328q0 6 4.5 10.5t10.5 4.5h73q6 0 10.5 -4.5t4.5 -10.5v-268l81 46q12 8 21 -5l19 -33q8 -12 -5 -21l-116 -67v-321q0 -6 -4.5 -10.5t-10.5 -4.5h-73q-6 0 -10.5 4.5t-4.5 10.5v262l-48 -28q-12 -7 -21 6z" />
    <glyph glyph-name="Nacute" unicode="&#x143;" horiz-adv-x="767" 
d="M564 232v453q0 6 4.5 10.5t10.5 4.5h73q6 0 10.5 -4.5t4.5 -10.5v-681q0 -9 -9 -9t-15 7l-439 471l-1 -458q0 -6 -4.5 -10.5t-10.5 -4.5h-73q-6 0 -10.5 4.5t-4.5 10.5v682q0 10 9 10t16 -7zM295 851l130 97q5 4 11 3t9 -6l29 -43q4 -4 2.5 -10.5t-6.5 -9.5l-138 -85
q-13 -9 -21 4l-20 29q-8 12 4 21z" />
    <glyph glyph-name="nacute" unicode="&#x144;" horiz-adv-x="579" 
d="M180 358v-343q0 -6 -4.5 -10.5t-10.5 -4.5h-70q-6 0 -10.5 4.5t-4.5 10.5v470q0 6 4.5 10.5t10.5 4.5h30q15 0 20 -14l12 -37q62 59 151 59q66 0 110.5 -21.5t65 -61t28 -78t7.5 -89.5v-243q0 -6 -4.5 -10.5t-10.5 -4.5h-71q-6 0 -10.5 4.5t-4.5 10.5v243q0 2 -1 25
t-2.5 36t-8.5 35.5t-18 35.5t-33 23.5t-52 10.5q-41 0 -74 -19.5t-49 -46.5zM201 651l130 97q5 4 11 3t9 -6l29 -43q4 -4 2.5 -10.5t-6.5 -9.5l-138 -85q-13 -9 -21 4l-20 29q-8 12 4 21z" />
    <glyph glyph-name="Ncommaaccent" unicode="&#x145;" horiz-adv-x="767" 
d="M564 232v453q0 6 4.5 10.5t10.5 4.5h73q6 0 10.5 -4.5t4.5 -10.5v-681q0 -9 -9 -9t-15 7l-439 471l-1 -458q0 -6 -4.5 -10.5t-10.5 -4.5h-73q-6 0 -10.5 4.5t-4.5 10.5v682q0 10 9 10t16 -7zM360 -331l-16 7q-13 8 -6 20q31 66 36 95q-23 1 -38 18.5t-15 40.5
q0 25 16.5 42t41.5 17q34 0 50 -19.5t16 -46.5q0 -63 -64 -168q-8 -13 -21 -6z" />
    <glyph glyph-name="ncommaaccent" unicode="&#x146;" horiz-adv-x="579" 
d="M180 358v-343q0 -6 -4.5 -10.5t-10.5 -4.5h-70q-6 0 -10.5 4.5t-4.5 10.5v470q0 6 4.5 10.5t10.5 4.5h30q15 0 20 -14l12 -37q62 59 151 59q66 0 110.5 -21.5t65 -61t28 -78t7.5 -89.5v-243q0 -6 -4.5 -10.5t-10.5 -4.5h-71q-6 0 -10.5 4.5t-4.5 10.5v243q0 2 -1 25
t-2.5 36t-8.5 35.5t-18 35.5t-33 23.5t-52 10.5q-41 0 -74 -19.5t-49 -46.5zM266 -331l-16 7q-13 8 -6 20q31 66 36 95q-23 1 -38 18.5t-15 40.5q0 25 16.5 42t41.5 17q34 0 50 -19.5t16 -46.5q0 -63 -64 -168q-8 -13 -21 -6z" />
    <glyph glyph-name="Ncaron" unicode="&#x147;" horiz-adv-x="767" 
d="M564 232v453q0 6 4.5 10.5t10.5 4.5h73q6 0 10.5 -4.5t4.5 -10.5v-681q0 -9 -9 -9t-15 7l-439 471l-1 -458q0 -6 -4.5 -10.5t-10.5 -4.5h-73q-6 0 -10.5 4.5t-4.5 10.5v682q0 10 9 10t16 -7zM371 797l-130 97q-11 8 -4 21l20 29q9 13 21 4l105 -64l105 64q12 9 21 -4
l20 -29q7 -13 -4 -21l-130 -97q-12 -9 -24 0z" />
    <glyph glyph-name="ncaron" unicode="&#x148;" horiz-adv-x="579" 
d="M180 358v-343q0 -6 -4.5 -10.5t-10.5 -4.5h-70q-6 0 -10.5 4.5t-4.5 10.5v470q0 6 4.5 10.5t10.5 4.5h30q15 0 20 -14l12 -37q62 59 151 59q66 0 110.5 -21.5t65 -61t28 -78t7.5 -89.5v-243q0 -6 -4.5 -10.5t-10.5 -4.5h-71q-6 0 -10.5 4.5t-4.5 10.5v243q0 2 -1 25
t-2.5 36t-8.5 35.5t-18 35.5t-33 23.5t-52 10.5q-41 0 -74 -19.5t-49 -46.5zM277 597l-130 97q-11 8 -4 21l20 29q9 13 21 4l105 -64l105 64q12 9 21 -4l20 -29q7 -13 -4 -21l-130 -97q-12 -9 -24 0z" />
    <glyph glyph-name="napostrophe" unicode="&#x149;" horiz-adv-x="672" 
d="M273 358v-343q0 -6 -4.5 -10.5t-10.5 -4.5h-70q-6 0 -10.5 4.5t-4.5 10.5v470q0 6 4.5 10.5t10.5 4.5h30q15 0 20 -14l12 -37q62 59 151 59q66 0 110.5 -21.5t65 -61t28 -78t7.5 -89.5v-243q0 -6 -4.5 -10.5t-10.5 -4.5h-71q-6 0 -10.5 4.5t-4.5 10.5v243q0 2 -1 25
t-2.5 36t-8.5 35.5t-18 35.5t-33 23.5t-52 10.5q-41 0 -74 -19.5t-49 -46.5zM49 501l-16 7q-13 8 -6 20q31 66 36 95q-23 1 -38 18.5t-15 40.5q0 25 16.5 42t41.5 17q34 0 50 -19.5t16 -46.5q0 -63 -64 -168q-8 -13 -21 -6z" />
    <glyph glyph-name="Eng" unicode="&#x14a;" horiz-adv-x="768" 
d="M564 237v448q0 6 4.5 10.5t10.5 4.5h73q6 0 10.5 -4.5t4.5 -10.5v-701q0 -154 -111 -188q-27 -8 -60 -8q-68 0 -123 39q-12 9 -3 23l27 41q8 14 21 6q38 -20 71 -20q75 0 75 107v105l-360 393h-1v-467q0 -6 -4.5 -10.5t-10.5 -4.5h-73q-6 0 -10.5 4.5t-4.5 10.5v685
q0 5 3.5 9t8.5 4q14 0 21 -9z" />
    <glyph glyph-name="eng" unicode="&#x14b;" horiz-adv-x="579" 
d="M271 -102q38 -20 71 -20q76 0 76 107v273q0 2 -1 25t-2.5 36t-8.5 35.5t-18 35.5t-33 23.5t-52 10.5q-41 0 -74 -19.5t-49 -46.5v-343q0 -6 -4.5 -10.5t-10.5 -4.5h-70q-6 0 -10.5 4.5t-4.5 10.5v470q0 6 4.5 10.5t10.5 4.5h30q15 0 20 -14l12 -37q62 59 151 59
q66 0 110.5 -21.5t65 -61t28 -78t7.5 -89.5l-1 -273v-2q0 -12 -0.5 -23.5t-4 -37t-14.5 -46t-28.5 -42t-49 -33.5t-72.5 -12q-68 0 -123 39q-12 9 -3 23l27 41q8 14 21 6z" />
    <glyph glyph-name="Omacron" unicode="&#x14c;" horiz-adv-x="812" 
d="M406 710q77 0 138.5 -23.5t99 -60.5t63 -86t35.5 -95.5t10 -93.5q0 -48 -10 -95.5t-35.5 -96t-63 -85t-99 -60t-138.5 -23.5t-138.5 23.5t-99 60t-63 85t-35.5 96t-10 95.5q0 47 10 93.5t35.5 95.5t63 86t99 60.5t138.5 23.5zM406 82q60 0 106 22t70.5 53t40 71t20 69
t4.5 54t-4.5 54t-20 69t-40 70.5t-70.5 52.5t-106 22t-106 -22t-71 -52.5t-40.5 -70.5t-20 -69t-4.5 -54t4.5 -54t20 -69t40.5 -71t71 -53t106 -22zM270 866h271q6 0 10.5 -4.5t4.5 -10.5v-40q0 -6 -4.5 -10.5t-10.5 -4.5h-271q-6 0 -10.5 4.5t-4.5 10.5v40q0 6 4.5 10.5
t10.5 4.5z" />
    <glyph glyph-name="omacron" unicode="&#x14d;" horiz-adv-x="618" 
d="M309 508q68 0 119 -25t78 -65.5t39.5 -82.5t12.5 -85q0 -44 -12.5 -86.5t-39.5 -82.5t-78 -64.5t-119 -24.5t-119 24.5t-78 64.5t-39.5 82.5t-12.5 86.5q0 43 12.5 85t39.5 82.5t78 65.5t119 25zM309 75q46 0 78.5 20.5t46.5 51.5t19.5 56t5.5 47t-5.5 47t-19.5 56
t-46.5 51.5t-78.5 20.5t-78.5 -20.5t-46.5 -51.5t-19.5 -56t-5.5 -47t5.5 -47t19.5 -56t46.5 -51.5t78.5 -20.5zM173 666h271q6 0 10.5 -4.5t4.5 -10.5v-40q0 -6 -4.5 -10.5t-10.5 -4.5h-271q-6 0 -10.5 4.5t-4.5 10.5v40q0 6 4.5 10.5t10.5 4.5z" />
    <glyph glyph-name="Obreve" unicode="&#x14e;" horiz-adv-x="812" 
d="M406 710q77 0 138.5 -23.5t99 -60.5t63 -86t35.5 -95.5t10 -93.5q0 -48 -10 -95.5t-35.5 -96t-63 -85t-99 -60t-138.5 -23.5t-138.5 23.5t-99 60t-63 85t-35.5 96t-10 95.5q0 47 10 93.5t35.5 95.5t63 86t99 60.5t138.5 23.5zM406 82q60 0 106 22t70.5 53t40 71t20 69
t4.5 54t-4.5 54t-20 69t-40 70.5t-70.5 52.5t-106 22t-106 -22t-71 -52.5t-40.5 -70.5t-20 -69t-4.5 -54t4.5 -54t20 -69t40.5 -71t71 -53t106 -22zM490 926l40 -12q14 -4 10 -18q-16 -48 -52.5 -76t-82.5 -28t-82 28t-52 76q-5 14 10 18l39 12q12 3 18 -10q19 -53 67 -53
q50 0 67 52q5 15 18 11z" />
    <glyph glyph-name="obreve" unicode="&#x14f;" horiz-adv-x="618" 
d="M309 508q68 0 119 -25t78 -65.5t39.5 -82.5t12.5 -85q0 -44 -12.5 -86.5t-39.5 -82.5t-78 -64.5t-119 -24.5t-119 24.5t-78 64.5t-39.5 82.5t-12.5 86.5q0 43 12.5 85t39.5 82.5t78 65.5t119 25zM309 75q46 0 78.5 20.5t46.5 51.5t19.5 56t5.5 47t-5.5 47t-19.5 56
t-46.5 51.5t-78.5 20.5t-78.5 -20.5t-46.5 -51.5t-19.5 -56t-5.5 -47t5.5 -47t19.5 -56t46.5 -51.5t78.5 -20.5zM393 726l40 -12q14 -4 10 -18q-16 -48 -52.5 -76t-82.5 -28t-82 28t-52 76q-5 14 10 18l39 12q12 3 18 -10q19 -53 67 -53q50 0 67 52q5 15 18 11z" />
    <glyph glyph-name="Ohungarumlaut" unicode="&#x150;" horiz-adv-x="812" 
d="M406 710q77 0 138.5 -23.5t99 -60.5t63 -86t35.5 -95.5t10 -93.5q0 -48 -10 -95.5t-35.5 -96t-63 -85t-99 -60t-138.5 -23.5t-138.5 23.5t-99 60t-63 85t-35.5 96t-10 95.5q0 47 10 93.5t35.5 95.5t63 86t99 60.5t138.5 23.5zM406 82q60 0 106 22t70.5 53t40 71t20 69
t4.5 54t-4.5 54t-20 69t-40 70.5t-70.5 52.5t-106 22t-106 -22t-71 -52.5t-40.5 -70.5t-20 -69t-4.5 -54t4.5 -54t20 -69t40.5 -71t71 -53t106 -22zM569 932l-53 -126q-6 -14 -21 -14h-38q-5 0 -8.5 4.5t-2.5 9.5l40 126q5 14 20 14h54q5 0 8 -4.5t1 -9.5zM396 932l-53 -126
q-6 -14 -21 -14h-38q-5 0 -8.5 4.5t-2.5 9.5l40 126q5 14 20 14h54q5 0 8 -4.5t1 -9.5z" />
    <glyph glyph-name="ohungarumlaut" unicode="&#x151;" horiz-adv-x="618" 
d="M309 508q68 0 119 -25t78 -65.5t39.5 -82.5t12.5 -85q0 -44 -12.5 -86.5t-39.5 -82.5t-78 -64.5t-119 -24.5t-119 24.5t-78 64.5t-39.5 82.5t-12.5 86.5q0 43 12.5 85t39.5 82.5t78 65.5t119 25zM309 75q46 0 78.5 20.5t46.5 51.5t19.5 56t5.5 47t-5.5 47t-19.5 56
t-46.5 51.5t-78.5 20.5t-78.5 -20.5t-46.5 -51.5t-19.5 -56t-5.5 -47t5.5 -47t19.5 -56t46.5 -51.5t78.5 -20.5zM477 736l-53 -126q-6 -14 -21 -14h-38q-5 0 -8.5 4.5t-2.5 9.5l40 126q5 14 20 14h54q5 0 8 -4.5t1 -9.5zM304 736l-53 -126q-6 -14 -21 -14h-38q-5 0 -8.5 4.5
t-2.5 9.5l40 126q5 14 20 14h54q5 0 8 -4.5t1 -9.5z" />
    <glyph glyph-name="OE" unicode="&#x152;" horiz-adv-x="995" 
d="M587 610v-220h254q6 0 10.5 -4.5t4.5 -10.5v-60q0 -6 -4.5 -10.5t-10.5 -4.5h-254v-210h333q6 0 10.5 -4.5t4.5 -10.5v-60q0 -6 -4.5 -10.5t-10.5 -4.5h-424q-42 -9 -90 -9q-77 0 -138.5 23.5t-99 60t-63 85t-35.5 96t-10 95.5q0 47 10 93.5t35.5 95t63 85.5t99 60.5
t138.5 23.5q48 0 89 -9h425q6 0 10.5 -4.5t4.5 -10.5v-60q0 -6 -4.5 -10.5t-10.5 -4.5h-333zM406 82q45 0 78 10v515q-36 11 -78 11q-60 0 -106 -22t-71 -52.5t-40.5 -70t-20 -68.5t-4.5 -54t4.5 -54t20 -69t40.5 -71t71 -53t106 -22z" />
    <glyph glyph-name="oe" unicode="&#x153;" horiz-adv-x="954" 
d="M706 80q78 0 137 48q11 9 21 -1l33 -40q11 -11 -1 -21q-81 -72 -190 -72q-132 0 -198 90q-66 -92 -199 -92q-68 0 -119 24.5t-78 64.5t-39.5 82.5t-12.5 86.5q0 43 12.5 85t39.5 82.5t78 65.5t119 25q131 0 197 -91q67 95 200 95q109 0 162 -73.5t36 -193.5
q-2 -15 -17 -15h-330q3 -25 11 -47.5t23.5 -47.5t45 -40t69.5 -15zM703 429q-115 0 -145 -125h252q7 46 -18.5 84t-88.5 41zM309 75q46 0 78.5 20.5t46.5 51.5t19.5 56t5.5 47t-5.5 47t-19.5 56t-46.5 51.5t-78.5 20.5t-78.5 -20.5t-46.5 -51.5t-19.5 -56t-5.5 -47t5.5 -47
t19.5 -56t46.5 -51.5t78.5 -20.5z" />
    <glyph glyph-name="Racute" unicode="&#x154;" horiz-adv-x="662" 
d="M418 882l-138 -85q-13 -9 -21 4l-20 29q-8 12 4 21l130 97q5 4 11 3t9 -6l29 -43q4 -4 2.5 -10.5t-6.5 -9.5zM602 481q0 -75 -44.5 -130.5t-111.5 -78.5l122 -258q2 -5 -1 -9.5t-8 -4.5h-80q-16 0 -21 14l-116 246h-141v-245q0 -6 -4.5 -10.5t-10.5 -4.5h-71
q-6 0 -10.5 4.5t-4.5 10.5v670q0 6 4.5 10.5t10.5 4.5h244q66 0 116 -21t76 -55.5t38.5 -70.5t12.5 -72zM201 351h167q38 1 65.5 15t40.5 35.5t19 41.5t6 38q0 20 -6 40t-19.5 41.5t-42 35t-67.5 13.5h-163v-260z" />
    <glyph glyph-name="racute" unicode="&#x155;" horiz-adv-x="366" 
d="M353 488l-10 -57q-3 -14 -18 -12q-8 1 -24 1q-43 0 -77 -18.5t-44 -48.5v-338q0 -6 -4.5 -10.5t-10.5 -4.5h-70q-6 0 -10.5 4.5t-4.5 10.5v470q0 6 4.5 10.5t10.5 4.5h30q15 0 20 -14l12 -37q62 59 151 59q12 0 33 -3q6 -1 9.5 -6t2.5 -11zM105 651l130 97q5 4 11 3t9 -6
l29 -43q4 -4 2.5 -10.5t-6.5 -9.5l-138 -85q-13 -9 -21 4l-20 29q-8 12 4 21z" />
    <glyph glyph-name="Rcommaaccent" unicode="&#x156;" horiz-adv-x="663" 
d="M602 481q0 -75 -44.5 -130.5t-111.5 -78.5l122 -258q2 -5 -1 -9.5t-8 -4.5h-80q-16 0 -21 14l-116 246h-141v-245q0 -6 -4.5 -10.5t-10.5 -4.5h-71q-6 0 -10.5 4.5t-4.5 10.5v670q0 6 4.5 10.5t10.5 4.5h244q66 0 116 -21t76 -55.5t38.5 -70.5t12.5 -72zM201 351h167
q38 1 65.5 15t40.5 35.5t19 41.5t6 38q0 20 -6 40t-19.5 41.5t-42 35t-67.5 13.5h-163v-260zM327 -91q34 0 50 -19.5t16 -46.5q0 -63 -64 -168q-8 -13 -21 -6l-16 7q-13 8 -6 20q31 66 36 95q-23 1 -38 18.5t-15 40.5q0 25 16.5 42t41.5 17z" />
    <glyph glyph-name="rcommaaccent" unicode="&#x157;" horiz-adv-x="375" 
d="M353 488l-10 -57q-3 -14 -18 -12q-8 1 -24 1q-43 0 -77 -18.5t-44 -48.5v-338q0 -6 -4.5 -10.5t-10.5 -4.5h-70q-6 0 -10.5 4.5t-4.5 10.5v470q0 6 4.5 10.5t10.5 4.5h30q15 0 20 -14l12 -37q62 59 151 59q12 0 33 -3q6 -1 9.5 -6t2.5 -11zM105 -331l-16 7q-13 8 -6 20
q31 66 36 95q-23 1 -38 18.5t-15 40.5q0 25 16.5 42t41.5 17q34 0 50 -19.5t16 -46.5q0 -63 -64 -168q-8 -13 -21 -6z" />
    <glyph glyph-name="Rcaron" unicode="&#x158;" horiz-adv-x="662" 
d="M602 481q0 -75 -44.5 -130.5t-111.5 -78.5l122 -258q2 -5 -1 -9.5t-8 -4.5h-80q-16 0 -21 14l-116 246h-141v-245q0 -6 -4.5 -10.5t-10.5 -4.5h-71q-6 0 -10.5 4.5t-4.5 10.5v670q0 6 4.5 10.5t10.5 4.5h244q66 0 116 -21t76 -55.5t38.5 -70.5t12.5 -72zM201 351h167
q38 1 65.5 15t40.5 35.5t19 41.5t6 38q0 20 -6 40t-19.5 41.5t-42 35t-67.5 13.5h-163v-260zM452 894l-130 -97q-12 -9 -24 0l-130 97q-11 8 -4 21l20 29q9 13 21 4l105 -64l105 64q12 9 21 -4l20 -29q7 -13 -4 -21z" />
    <glyph glyph-name="rcaron" unicode="&#x159;" horiz-adv-x="372" 
d="M349 488l-10 -57q-3 -14 -18 -12q-8 1 -24 1q-43 0 -77 -18.5t-44 -48.5v-338q0 -6 -4.5 -10.5t-10.5 -4.5h-70q-6 0 -10.5 4.5t-4.5 10.5v470q0 6 4.5 10.5t10.5 4.5h30q15 0 20 -14l12 -37q62 59 151 59q12 0 33 -3q6 -1 9.5 -6t2.5 -11zM172 597l-130 97q-11 8 -4 21
l20 29q9 13 21 4l105 -64l105 64q12 9 21 -4l20 -29q7 -13 -4 -21l-130 -97q-12 -9 -24 0z" />
    <glyph glyph-name="Sacute" unicode="&#x15a;" horiz-adv-x="622" 
d="M400 882l-138 -85q-13 -9 -21 4l-20 29q-8 12 4 21l130 97q5 4 11 3t9 -6l29 -43q4 -4 2.5 -10.5t-6.5 -9.5zM169 526q0 -32 21.5 -55t56.5 -36t77 -25t83.5 -28.5t76.5 -39t56.5 -63.5t21.5 -97q0 -81 -71 -135.5t-177 -54.5q-129 0 -241 55q-13 7 -7 20l26 54
q7 13 21 8q99 -46 193 -46q61 0 105 28t44 72t-29 73.5t-72 42t-93.5 29t-93.5 34t-72 57.5t-29 99q0 89 60.5 141t157.5 52q115 0 226 -50q14 -5 8 -20l-26 -57q-5 -14 -20 -9q-103 40 -165 40q-63 0 -99 -19t-39 -70z" />
    <glyph glyph-name="sacute" unicode="&#x15b;" horiz-adv-x="492" 
d="M334 682l-138 -85q-13 -9 -21 4l-20 29q-8 12 4 21l130 97q5 4 11 3t9 -6l29 -43q4 -4 2.5 -10.5t-6.5 -9.5zM163 369q0 -25 27.5 -41t67.5 -28t79.5 -28t67 -50.5t27.5 -86.5q0 -64 -51.5 -103.5t-130.5 -39.5q-97 0 -177 43q-12 7 -7 21l23 46q6 15 19 7
q71 -34 136 -34q36 0 60.5 16.5t24.5 42.5q0 30 -27 48.5t-65.5 29.5t-77 25.5t-65 46t-26.5 81.5q1 67 45.5 105t116.5 38q84 0 166 -38q13 -7 8 -21l-23 -48q-5 -14 -20 -8q-70 28 -113 28q-82 0 -85 -52z" />
    <glyph glyph-name="Scircumflex" unicode="&#x15c;" horiz-adv-x="622" 
d="M169 526q0 -32 21.5 -55t56.5 -36t77 -25t83.5 -28.5t76.5 -39t56.5 -63.5t21.5 -97q0 -81 -71 -135.5t-177 -54.5q-129 0 -241 55q-13 7 -7 20l26 54q7 13 21 8q99 -46 193 -46q61 0 105 28t44 72t-29 73.5t-72 42t-93.5 29t-93.5 34t-72 57.5t-29 99q0 89 60.5 141
t157.5 52q115 0 226 -50q14 -5 8 -20l-26 -57q-5 -14 -20 -9q-103 40 -165 40q-63 0 -99 -19t-39 -70zM313 860l-105 -64q-13 -9 -21 4l-20 29q-8 12 4 21l130 97q12 9 24 0l130 -97q12 -9 4 -21l-20 -29q-8 -13 -21 -4z" />
    <glyph glyph-name="scircumflex" unicode="&#x15d;" horiz-adv-x="492" 
d="M163 369q0 -25 27.5 -41t67.5 -28t79.5 -28t67 -50.5t27.5 -86.5q0 -64 -51.5 -103.5t-130.5 -39.5q-97 0 -177 43q-12 7 -7 21l23 46q6 15 19 7q71 -34 136 -34q36 0 60.5 16.5t24.5 42.5q0 30 -27 48.5t-65.5 29.5t-77 25.5t-65 46t-26.5 81.5q1 67 45.5 105t116.5 38
q84 0 166 -38q13 -7 8 -21l-23 -48q-5 -14 -20 -8q-70 28 -113 28q-82 0 -85 -52zM248 660l-105 -64q-13 -9 -21 4l-20 29q-8 12 4 21l130 97q12 9 24 0l130 -97q12 -9 4 -21l-20 -29q-8 -13 -21 -4z" />
    <glyph glyph-name="Scedilla" unicode="&#x15e;" horiz-adv-x="622" 
d="M304 -72h-1q-9 0 -17 5q-7 5 -7 14v46q-112 7 -206 54q-13 7 -7 20l26 54q7 13 21 8q99 -46 193 -46q61 0 105 28t44 72t-29 73.5t-72 42t-93.5 29t-93.5 34t-72 57.5t-29 99q0 89 60.5 141t157.5 52q115 0 226 -50q14 -5 8 -20l-26 -57q-5 -14 -20 -9q-103 40 -165 40
q-63 0 -99 -19t-39 -70q0 -32 21.5 -55t56.5 -36t77 -25t83.5 -28.5t76.5 -39t56.5 -63.5t21.5 -97q0 -76 -63 -129t-160 -60v-19h6q46 -2 69 -29t23 -61q0 -49 -31.5 -76t-74.5 -27q-45 0 -78 21q-12 9 -5 22l14 24q7 12 20 6q25 -11 44 -11q18 0 30.5 12.5t12.5 28.5
q0 44 -65 44z" />
    <glyph glyph-name="scedilla" unicode="&#x15f;" horiz-adv-x="492" 
d="M235 -72h-1q-9 0 -17 5q-7 5 -7 14v47q-70 5 -137 41q-12 7 -7 21l23 46q6 15 19 7q71 -34 136 -34q36 0 60.5 16.5t24.5 42.5t-19.5 43.5t-48.5 26t-62.5 20.5t-62.5 26t-48.5 43t-19.5 71q0 67 45 105.5t117 38.5q84 0 166 -38q13 -7 8 -21l-23 -48q-5 -14 -20 -8
q-70 28 -113 28q-82 0 -85 -52q0 -25 27.5 -41t67.5 -28t79.5 -28t67 -50.5t27.5 -86.5q0 -60 -45 -98.5t-117 -43.5v-19h6q46 -2 69 -29t23 -61q0 -49 -31.5 -76t-74.5 -27q-45 0 -78 21q-12 9 -5 22l14 24q7 12 20 6q25 -11 44 -11q18 0 30.5 12.5t12.5 28.5q0 44 -65 44z
" />
    <glyph glyph-name="Scaron" unicode="&#x160;" horiz-adv-x="622" 
d="M438 887l-130 -97q-12 -9 -24 0l-130 97q-11 8 -4 21l20 29q9 13 21 4l105 -64l105 64q12 9 21 -4l20 -29q7 -13 -4 -21zM169 526q0 -32 21.5 -55t56.5 -36t77 -25t83.5 -28.5t76.5 -39t56.5 -63.5t21.5 -97q0 -81 -71 -135.5t-177 -54.5q-129 0 -241 55q-13 7 -7 20
l26 54q7 13 21 8q99 -46 193 -46q61 0 105 28t44 72t-29 73.5t-72 42t-93.5 29t-93.5 34t-72 57.5t-29 99q0 89 60.5 141t157.5 52q115 0 226 -50q14 -5 8 -20l-26 -57q-5 -14 -20 -9q-103 40 -165 40q-63 0 -99 -19t-39 -70z" />
    <glyph glyph-name="scaron" unicode="&#x161;" horiz-adv-x="492" 
d="M163 369q0 -25 27.5 -41t67.5 -28t79.5 -28t67 -50.5t27.5 -86.5q0 -64 -51.5 -103.5t-130.5 -39.5q-97 0 -177 43q-12 7 -7 21l23 46q6 15 19 7q71 -34 136 -34q36 0 60.5 16.5t24.5 42.5q0 30 -27 48.5t-65.5 29.5t-77 25.5t-65 46t-26.5 81.5q1 67 45.5 105t116.5 38
q84 0 166 -38q13 -7 8 -21l-23 -48q-5 -14 -20 -8q-70 28 -113 28q-82 0 -85 -52zM390 694l-130 -97q-12 -9 -24 0l-130 97q-11 8 -4 21l20 29q9 13 21 4l105 -64l105 64q12 9 21 -4l20 -29q7 -13 -4 -21z" />
    <glyph glyph-name="Tcommaaccent" unicode="&#x162;" horiz-adv-x="601" 
d="M248 15v595h-188q-6 0 -10.5 4.5t-4.5 10.5v60q0 6 4.5 10.5t10.5 4.5h481q6 0 10.5 -4.5t4.5 -10.5v-60q0 -6 -4.5 -10.5t-10.5 -4.5h-190v-595q0 -6 -4.5 -10.5t-10.5 -4.5h-73q-6 0 -10.5 4.5t-4.5 10.5zM277 -331l-16 7q-13 8 -6 20q31 66 36 95q-23 1 -38 18.5
t-15 40.5q0 25 16.5 42t41.5 17q34 0 50 -19.5t16 -46.5q0 -63 -64 -168q-8 -13 -21 -6z" />
    <glyph glyph-name="tcommaaccent" unicode="&#x163;" horiz-adv-x="320" 
d="M72 417h-47q-6 0 -10.5 4.5t-4.5 10.5v53q0 6 4.5 10.5t10.5 4.5h47l8 84q2 15 17 15h60q6 0 10.5 -4.5t4.5 -10.5v-84h88q6 0 10.5 -4.5t4.5 -10.5v-53q0 -6 -4.5 -10.5t-10.5 -4.5h-88v-280q0 -30 10 -46.5t41 -13.5q16 1 50 9q15 2 18 -12l9 -44q3 -16 -12 -19
q-54 -15 -110 -15q-34 0 -57 14t-32.5 36.5t-13 39.5t-3.5 34v297zM137 -331l-16 7q-13 8 -6 20q31 66 36 95q-23 1 -38 18.5t-15 40.5q0 25 16.5 42t41.5 17q34 0 50 -19.5t16 -46.5q0 -63 -64 -168q-8 -13 -21 -6z" />
    <glyph glyph-name="Tcaron" unicode="&#x164;" horiz-adv-x="601" 
d="M248 15v595h-188q-6 0 -10.5 4.5t-4.5 10.5v60q0 6 4.5 10.5t10.5 4.5h481q6 0 10.5 -4.5t4.5 -10.5v-60q0 -6 -4.5 -10.5t-10.5 -4.5h-190v-595q0 -6 -4.5 -10.5t-10.5 -4.5h-73q-6 0 -10.5 4.5t-4.5 10.5zM288 797l-130 97q-11 8 -4 21l20 29q9 13 21 4l105 -64l105 64
q12 9 21 -4l20 -29q7 -13 -4 -21l-130 -97q-12 -9 -24 0z" />
    <glyph glyph-name="tcaron" unicode="&#x165;" horiz-adv-x="493" 
d="M72 417h-47q-6 0 -10.5 4.5t-4.5 10.5v53q0 6 4.5 10.5t10.5 4.5h47l8 82q2 15 17 15h60q6 0 10.5 -4.5t4.5 -10.5v-82h88q6 0 10.5 -4.5t4.5 -10.5v-53q0 -6 -4.5 -10.5t-10.5 -4.5h-88v-280q0 -30 10 -46.5t41 -13.5q16 1 50 9q15 2 18 -12l9 -44q3 -16 -12 -19
q-54 -15 -110 -15q-34 0 -57 14t-32.5 36.5t-13 39.5t-3.5 34v297zM396 440l-23 11q-13 8 -6 20q39 75 47 118q-25 2 -42 21t-17 45q0 28 18.5 46.5t46.5 18.5q38 0 55.5 -21t17.5 -52q0 -71 -75 -200q-9 -12 -22 -7z" />
    <glyph glyph-name="Tbar" unicode="&#x166;" horiz-adv-x="601" 
d="M248 317h-85q-6 0 -10.5 4.5t-4.5 10.5v36q0 6 4.5 10.5t10.5 4.5h85v227h-188q-6 0 -10.5 4.5t-4.5 10.5v60q0 6 4.5 10.5t10.5 4.5h481q6 0 10.5 -4.5t4.5 -10.5v-60q0 -6 -4.5 -10.5t-10.5 -4.5h-188v-227h84q6 0 10.5 -4.5t4.5 -10.5v-36q0 -6 -4.5 -10.5t-10.5 -4.5
h-84v-302q0 -6 -4.5 -10.5t-10.5 -4.5h-75q-6 0 -10.5 4.5t-4.5 10.5v302z" />
    <glyph glyph-name="tbar" unicode="&#x167;" horiz-adv-x="315" 
d="M25 336h49v81h-47q-6 0 -10.5 4.5t-4.5 10.5v53q0 6 4.5 10.5t10.5 4.5h47l8 84q2 15 17 15h60q6 0 10.5 -4.5t4.5 -10.5v-84h88q6 0 10.5 -4.5t4.5 -10.5v-53q0 -6 -4.5 -10.5t-10.5 -4.5h-88v-81h85q6 0 10.5 -4.5t4.5 -10.5v-46q0 -6 -4.5 -10.5t-10.5 -4.5h-85v-123
q0 -30 10 -46.5t41 -13.5q16 1 50 9q15 2 18 -12l9 -44q3 -16 -12 -19q-54 -15 -110 -15q-34 0 -57 14t-32.5 36.5t-13 39.5t-3.5 34v140h-49q-6 0 -10.5 4.5t-4.5 10.5v46q0 6 4.5 10.5t10.5 4.5z" />
    <glyph glyph-name="Utilde" unicode="&#x168;" horiz-adv-x="725" 
d="M546 700h74q6 0 10.5 -4.5t4.5 -10.5v-419q0 -47 -15 -92.5t-45.5 -87t-85.5 -67.5t-127 -26t-127 26t-85.5 67.5t-45 87t-14.5 92.5v419q0 6 4.5 10.5t10.5 4.5h72q6 0 10.5 -4.5t4.5 -10.5v-419q0 -17 4.5 -38t16.5 -47.5t30 -48t49 -36t70 -14.5t70 14.5t48.5 36
t29.5 48t16.5 47.5t4.5 38v419q0 6 4.5 10.5t10.5 4.5zM308 826q-27 0 -44 -29q-7 -13 -21 -6l-26 12q-13 7 -8 21q28 76 100 76q27 0 56.5 -19.5t45.5 -19.5q25 0 44 26q9 13 21 6l31 -16q13 -7 6 -21q-36 -69 -104 -69q-23 0 -52 19.5t-49 19.5z" />
    <glyph glyph-name="utilde" unicode="&#x169;" horiz-adv-x="579" 
d="M235 626q-27 0 -44 -29q-7 -13 -21 -6l-26 12q-13 7 -8 21q28 76 100 76q27 0 56.5 -19.5t45.5 -19.5q25 0 44 26q9 13 21 6l31 -16q13 -7 6 -21q-36 -69 -104 -69q-22 0 -51.5 19.5t-49.5 19.5zM414 500h70q6 0 10.5 -4.5t4.5 -10.5v-470q0 -6 -4.5 -10.5t-10.5 -4.5
h-30q-15 0 -20 14l-12 37q-62 -59 -151 -59q-66 0 -110.5 21.5t-65 61t-28 78t-7.5 89.5v243q0 6 4.5 10.5t10.5 4.5h71q6 0 10.5 -4.5t4.5 -10.5v-243q0 -2 1 -25t2.5 -36t8.5 -35.5t18 -35.5t33 -23.5t52 -10.5q41 0 74 19.5t49 46.5v343q0 6 4.5 10.5t10.5 4.5z" />
    <glyph glyph-name="Umacron" unicode="&#x16a;" horiz-adv-x="725" 
d="M513 851v-40q0 -6 -4.5 -10.5t-10.5 -4.5h-271q-6 0 -10.5 4.5t-4.5 10.5v40q0 6 4.5 10.5t10.5 4.5h271q6 0 10.5 -4.5t4.5 -10.5zM546 700h74q6 0 10.5 -4.5t4.5 -10.5v-419q0 -47 -15 -92.5t-45.5 -87t-85.5 -67.5t-127 -26t-127 26t-85.5 67.5t-45 87t-14.5 92.5v419
q0 6 4.5 10.5t10.5 4.5h72q6 0 10.5 -4.5t4.5 -10.5v-419q0 -17 4.5 -38t16.5 -47.5t30 -48t49 -36t70 -14.5t70 14.5t48.5 36t29.5 48t16.5 47.5t4.5 38v419q0 6 4.5 10.5t10.5 4.5z" />
    <glyph glyph-name="umacron" unicode="&#x16b;" horiz-adv-x="579" 
d="M440 651v-40q0 -6 -4.5 -10.5t-10.5 -4.5h-271q-6 0 -10.5 4.5t-4.5 10.5v40q0 6 4.5 10.5t10.5 4.5h271q6 0 10.5 -4.5t4.5 -10.5zM414 500h70q6 0 10.5 -4.5t4.5 -10.5v-470q0 -6 -4.5 -10.5t-10.5 -4.5h-30q-15 0 -20 14l-12 37q-62 -59 -151 -59q-66 0 -110.5 21.5
t-65 61t-28 78t-7.5 89.5v243q0 6 4.5 10.5t10.5 4.5h71q6 0 10.5 -4.5t4.5 -10.5v-243q0 -2 1 -25t2.5 -36t8.5 -35.5t18 -35.5t33 -23.5t52 -10.5q41 0 74 19.5t49 46.5v343q0 6 4.5 10.5t10.5 4.5z" />
    <glyph glyph-name="Ubreve" unicode="&#x16c;" horiz-adv-x="725" 
d="M362 792q-46 0 -82 28t-52 76q-5 14 10 18l39 12q12 3 18 -10q19 -53 67 -53q50 0 67 52q5 15 18 11l40 -12q14 -4 10 -18q-16 -48 -52.5 -76t-82.5 -28zM546 700h74q6 0 10.5 -4.5t4.5 -10.5v-419q0 -47 -15 -92.5t-45.5 -87t-85.5 -67.5t-127 -26t-127 26t-85.5 67.5
t-45 87t-14.5 92.5v419q0 6 4.5 10.5t10.5 4.5h72q6 0 10.5 -4.5t4.5 -10.5v-419q0 -17 4.5 -38t16.5 -47.5t30 -48t49 -36t70 -14.5t70 14.5t48.5 36t29.5 48t16.5 47.5t4.5 38v419q0 6 4.5 10.5t10.5 4.5z" />
    <glyph glyph-name="ubreve" unicode="&#x16d;" horiz-adv-x="579" 
d="M289 592q-46 0 -82 28t-52 76q-5 14 10 18l39 12q12 3 18 -10q19 -53 67 -53q50 0 67 52q5 15 18 11l40 -12q14 -4 10 -18q-16 -48 -52.5 -76t-82.5 -28zM414 500h70q6 0 10.5 -4.5t4.5 -10.5v-470q0 -6 -4.5 -10.5t-10.5 -4.5h-30q-15 0 -20 14l-12 37q-62 -59 -151 -59
q-66 0 -110.5 21.5t-65 61t-28 78t-7.5 89.5v243q0 6 4.5 10.5t10.5 4.5h71q6 0 10.5 -4.5t4.5 -10.5v-243q0 -2 1 -25t2.5 -36t8.5 -35.5t18 -35.5t33 -23.5t52 -10.5q41 0 74 19.5t49 46.5v343q0 6 4.5 10.5t10.5 4.5z" />
    <glyph glyph-name="Uring" unicode="&#x16e;" horiz-adv-x="725" 
d="M261 888q0 42 30 72t72 30t71.5 -30t29.5 -72t-29.5 -71.5t-71.5 -29.5t-72 29.5t-30 71.5zM322 888q0 -16 12.5 -28t28.5 -12t28 12t12 28t-12 28.5t-28 12.5q-17 0 -29 -12.5t-12 -28.5zM546 700h74q6 0 10.5 -4.5t4.5 -10.5v-419q0 -47 -15 -92.5t-45.5 -87
t-85.5 -67.5t-127 -26t-127 26t-85.5 67.5t-45 87t-14.5 92.5v419q0 6 4.5 10.5t10.5 4.5h72q6 0 10.5 -4.5t4.5 -10.5v-419q0 -17 4.5 -38t16.5 -47.5t30 -48t49 -36t70 -14.5t70 14.5t48.5 36t29.5 48t16.5 47.5t4.5 38v419q0 6 4.5 10.5t10.5 4.5z" />
    <glyph glyph-name="uring" unicode="&#x16f;" horiz-adv-x="579" 
d="M188 688q0 42 30 72t72 30t71.5 -30t29.5 -72t-29.5 -71.5t-71.5 -29.5t-72 29.5t-30 71.5zM249 688q0 -16 12.5 -28t28.5 -12t28 12t12 28t-12 28.5t-28 12.5t-28.5 -12.5t-12.5 -28.5zM414 500h70q6 0 10.5 -4.5t4.5 -10.5v-470q0 -6 -4.5 -10.5t-10.5 -4.5h-30
q-15 0 -20 14l-12 37q-62 -59 -151 -59q-66 0 -110.5 21.5t-65 61t-28 78t-7.5 89.5v243q0 6 4.5 10.5t10.5 4.5h71q6 0 10.5 -4.5t4.5 -10.5v-243q0 -2 1 -25t2.5 -36t8.5 -35.5t18 -35.5t33 -23.5t52 -10.5q41 0 74 19.5t49 46.5v343q0 6 4.5 10.5t10.5 4.5z" />
    <glyph glyph-name="Uhungarumlaut" unicode="&#x170;" horiz-adv-x="725" 
d="M345 932l-53 -126q-6 -14 -21 -14h-38q-5 0 -8.5 4.5t-2.5 9.5l40 126q5 14 20 14h54q5 0 8 -4.5t1 -9.5zM518 932l-53 -126q-6 -14 -21 -14h-38q-5 0 -8.5 4.5t-2.5 9.5l40 126q5 14 20 14h54q5 0 8 -4.5t1 -9.5zM546 700h74q6 0 10.5 -4.5t4.5 -10.5v-419
q0 -47 -15 -92.5t-45.5 -87t-85.5 -67.5t-127 -26t-127 26t-85.5 67.5t-45 87t-14.5 92.5v419q0 6 4.5 10.5t10.5 4.5h72q6 0 10.5 -4.5t4.5 -10.5v-419q0 -17 4.5 -38t16.5 -47.5t30 -48t49 -36t70 -14.5t70 14.5t48.5 36t29.5 48t16.5 47.5t4.5 38v419q0 6 4.5 10.5
t10.5 4.5z" />
    <glyph glyph-name="uhungarumlaut" unicode="&#x171;" horiz-adv-x="579" 
d="M399 142v343q0 6 4.5 10.5t10.5 4.5h70q6 0 10.5 -4.5t4.5 -10.5v-470q0 -6 -4.5 -10.5t-10.5 -4.5h-30q-15 0 -20 14l-12 37q-62 -59 -151 -59q-66 0 -110.5 21.5t-65 61t-28 78t-7.5 89.5v243q0 6 4.5 10.5t10.5 4.5h71q6 0 10.5 -4.5t4.5 -10.5v-243q0 -2 1 -25
t2.5 -36t8.5 -35.5t18 -35.5t33 -23.5t52 -10.5q41 0 74 19.5t49 46.5zM437 732l-53 -126q-6 -14 -21 -14h-38q-5 0 -8.5 4.5t-2.5 9.5l40 126q5 14 20 14h54q5 0 8 -4.5t1 -9.5zM264 732l-53 -126q-6 -14 -21 -14h-38q-5 0 -8.5 4.5t-2.5 9.5l40 126q5 14 20 14h54
q5 0 8 -4.5t1 -9.5z" />
    <glyph glyph-name="Uogonek" unicode="&#x172;" horiz-adv-x="725" 
d="M362 82q39 0 70 14.5t48.5 36t29.5 48t16.5 47.5t4.5 38v419q0 6 4.5 10.5t10.5 4.5h74q6 0 10.5 -4.5t4.5 -10.5v-419q0 -43 -12.5 -85.5t-38.5 -82.5t-72.5 -67.5t-107.5 -34.5q-1 -9 -18 -42t-17 -54q0 -26 15 -40.5t43 -14.5q26 0 55 11q5 2 9.5 -1.5t4.5 -8.5v-34
q0 -15 -14 -21q-38 -12 -68 -12q-50 0 -83 27t-33 79q0 21 8.5 42t19.5 40t14 27q-66 4 -116.5 30.5t-78.5 67.5t-41.5 85t-13.5 89v419q0 6 4.5 10.5t10.5 4.5h72q6 0 10.5 -4.5t4.5 -10.5v-419q0 -17 4.5 -38t16.5 -47.5t30 -48t49 -36t70 -14.5z" />
    <glyph glyph-name="uogonek" unicode="&#x173;" horiz-adv-x="591" 
d="M399 142v343q0 6 4.5 10.5t10.5 4.5h70q6 0 10.5 -4.5t4.5 -10.5v-486q0 -10 -17.5 -44t-17.5 -55q0 -26 15 -40.5t43 -14.5q26 0 55 11q5 2 9.5 -1.5t4.5 -8.5v-34q0 -15 -14 -21q-37 -12 -68 -12q-50 0 -83 27t-33 79q0 30 22 69.5t22 47.5v4l-15 45q-62 -59 -151 -59
q-66 0 -110.5 21.5t-65 61t-28 78t-7.5 89.5v243q0 6 4.5 10.5t10.5 4.5h71q6 0 10.5 -4.5t4.5 -10.5v-243q0 -2 1 -25t2.5 -36t8.5 -35.5t18 -35.5t33 -23.5t52 -10.5q41 0 74 19.5t49 46.5z" />
    <glyph glyph-name="Wcircumflex" unicode="&#x174;" horiz-adv-x="1105" 
d="M552 709q13 0 18 -12l189 -481l197 470q7 14 21 14h82q5 0 8 -4.5t1 -9.5l-293 -683q-3 -11 -16 -11q-12 0 -15 11l-192 477l-192 -477q-3 -11 -16 -11q-11 0 -16 11l-292 683q-2 5 1 9.5t8 4.5h82q14 0 21 -14l197 -470l189 481q5 12 18 12zM411 850l130 97q12 9 24 0
l130 -97q12 -9 4 -21l-20 -29q-8 -13 -21 -4l-105 64l-105 -64q-13 -9 -21 4l-20 29q-8 12 4 21z" />
    <glyph glyph-name="wcircumflex" unicode="&#x175;" horiz-adv-x="758" 
d="M385 506q14 0 21 -14l113 -275l113 269q7 14 21 14h77q5 0 8 -4.5t1 -9.5l-203 -483q-4 -9 -14 -9t-13 9l-124 292l-124 -292q-5 -9 -14 -9q-10 0 -13 9l-203 483q-2 5 1 9.5t8 4.5h77q14 0 21 -14l113 -269l113 275q7 14 21 14zM237 650l130 97q12 9 24 0l130 -97
q12 -9 4 -21l-20 -29q-8 -13 -21 -4l-105 64l-105 -64q-13 -9 -21 4l-20 29q-8 12 4 21z" />
    <glyph glyph-name="Ycircumflex" unicode="&#x176;" horiz-adv-x="636" 
d="M172 850l130 97q12 9 24 0l130 -97q12 -9 4 -21l-20 -29q-8 -13 -21 -4l-105 64l-105 -64q-13 -9 -21 4l-20 29q-8 12 4 21zM369 317v-302q0 -6 -4.5 -10.5t-10.5 -4.5h-73q-6 0 -10.5 4.5t-4.5 10.5v300l-228 372q-3 5 -0.5 9t7.5 4h85q15 0 23 -13l164 -271l165 271
q8 13 23 13h86q5 0 7.5 -4t-0.5 -9z" />
    <glyph glyph-name="ycircumflex" unicode="&#x177;" horiz-adv-x="566" 
d="M140 486l143 -347l139 347q7 14 21 14h87q6 0 6 -6q0 -4 -2 -10l-284 -669q-6 -14 -21 -14h-82q-5 0 -5 5t2 11l86 203l-198 464q-2 6 -2 10q0 6 5 6h84q14 0 21 -14zM140 650l130 97q12 9 24 0l130 -97q12 -9 4 -21l-20 -29q-8 -13 -21 -4l-105 64l-105 -64
q-13 -9 -21 4l-20 29q-8 12 4 21z" />
    <glyph glyph-name="Ydieresis" unicode="&#x178;" horiz-adv-x="636" 
d="M369 317v-302q0 -6 -4.5 -10.5t-10.5 -4.5h-73q-6 0 -10.5 4.5t-4.5 10.5v300l-228 372q-3 5 -0.5 9t7.5 4h85q15 0 23 -13l164 -271l165 271q8 13 23 13h86q5 0 7.5 -4t-0.5 -9zM141 866q5 20 20.5 32.5t36.5 12.5q25 0 42.5 -17.5t17.5 -42.5t-17.5 -42t-42.5 -17
q-22 0 -37 12t-20 32q-5 15 0 30zM378 851q0 25 17 42.5t42 17.5t42.5 -17.5t17.5 -42.5t-17.5 -42t-42.5 -17t-42 17t-17 42z" />
    <glyph glyph-name="Zacute" unicode="&#x179;" horiz-adv-x="639" 
d="M220 90h344q6 0 10.5 -4.5t4.5 -10.5v-60q0 -6 -4.5 -10.5t-10.5 -4.5h-478q-13 0 -13 13q0 15 7 26l336 572h-315q-6 0 -10.5 4.5t-4.5 10.5v59q0 6 4.5 10.5t10.5 4.5h451q14 0 14 -14t-7 -25zM231 851l130 97q5 4 11 3t9 -6l29 -43q4 -4 2.5 -10.5t-6.5 -9.5l-138 -85
q-13 -9 -21 4l-20 29q-8 12 4 21z" />
    <glyph glyph-name="zacute" unicode="&#x17a;" horiz-adv-x="496" 
d="M75 423v62q0 6 4.5 10.5t10.5 4.5h338q13 0 13 -13q0 -14 -7 -24l-224 -371h213q6 0 10.5 -4.5t4.5 -10.5v-62q0 -6 -4.5 -10.5t-10.5 -4.5h-346q-6 0 -10.5 4.5t-4.5 10.5v6q0 14 8 28l212 359h-192q-6 0 -10.5 4.5t-4.5 10.5zM160 651l130 97q5 4 11 3t9 -6l29 -43
q4 -4 2.5 -10.5t-6.5 -9.5l-138 -85q-13 -9 -21 4l-20 29q-8 12 4 21z" />
    <glyph glyph-name="Zdotaccent" unicode="&#x17b;" horiz-adv-x="639" 
d="M260 852q0 25 17 42.5t42 17.5t42.5 -17.5t17.5 -42.5t-17.5 -42t-42.5 -17t-42 16.5t-17 42.5zM220 90h344q6 0 10.5 -4.5t4.5 -10.5v-60q0 -6 -4.5 -10.5t-10.5 -4.5h-478q-13 0 -13 13q0 15 7 26l336 572h-315q-6 0 -10.5 4.5t-4.5 10.5v59q0 6 4.5 10.5t10.5 4.5h451
q14 0 14 -14t-7 -25z" />
    <glyph glyph-name="zdotaccent" unicode="&#x17c;" horiz-adv-x="496" 
d="M197 652q0 25 17 42.5t42 17.5t42.5 -17.5t17.5 -42.5t-17.5 -42t-42.5 -17q-26 0 -42.5 16.5t-16.5 42.5zM75 423v62q0 6 4.5 10.5t10.5 4.5h338q13 0 13 -13q0 -14 -7 -24l-224 -371h213q6 0 10.5 -4.5t4.5 -10.5v-62q0 -6 -4.5 -10.5t-10.5 -4.5h-346q-6 0 -10.5 4.5
t-4.5 10.5v6q0 14 8 28l212 359h-192q-6 0 -10.5 4.5t-4.5 10.5z" />
    <glyph glyph-name="Zcaron" unicode="&#x17d;" horiz-adv-x="639" 
d="M220 90h344q6 0 10.5 -4.5t4.5 -10.5v-60q0 -6 -4.5 -10.5t-10.5 -4.5h-471q-6 0 -10.5 4.5t-4.5 10.5v5q0 14 8 28l330 563h-315q-6 0 -10.5 4.5t-4.5 10.5v59q0 6 4.5 10.5t10.5 4.5h446q6 0 10.5 -4.5t4.5 -10.5v-4q0 -15 -8 -28zM307 797l-130 97q-11 8 -4 21l20 29
q9 13 21 4l105 -64l105 64q12 9 21 -4l20 -29q7 -13 -4 -21l-130 -97q-12 -9 -24 0z" />
    <glyph glyph-name="zcaron" unicode="&#x17e;" horiz-adv-x="496" 
d="M75 423v62q0 6 4.5 10.5t10.5 4.5h331q6 0 10.5 -4.5t4.5 -10.5v-4q0 -14 -8 -28l-226 -361h221q6 0 10.5 -4.5t4.5 -10.5v-62q0 -6 -4.5 -10.5t-10.5 -4.5h-349q-6 0 -10.5 4.5t-4.5 10.5v1q0 14 8 28l224 364h-201q-6 0 -10.5 4.5t-4.5 10.5zM236 597l-130 97
q-11 8 -4 21l20 29q9 13 21 4l105 -64l105 64q12 9 21 -4l20 -29q7 -13 -4 -21l-130 -97q-12 -9 -24 0z" />
    <glyph glyph-name="longs" unicode="&#x17f;" horiz-adv-x="360" 
d="M365 665l-17 -47q-5 -14 -19 -9q-50 14 -81 14q-73 0 -77 -73v-534q0 -6 -4.5 -10.5t-10.5 -4.5h-70q-6 0 -10.5 4.5t-4.5 10.5v402h-46q-6 0 -10.5 4.5t-4.5 10.5v52q0 6 4.5 10.5t10.5 4.5h46v44q0 80 49 121.5t124 41.5q58 0 112 -22q14 -5 9 -20z" />
    <glyph glyph-name="florin" unicode="&#x192;" horiz-adv-x="402" 
d="M-85 -172l19 49q5 14 19 9q42 -14 76 -14q74 0 82 74v472h-46q-6 0 -10.5 4.5t-4.5 10.5v52q0 6 4.5 10.5t10.5 4.5h46v44q0 80 49 121.5t124 41.5q60 0 114 -22q14 -5 9 -20l-19 -49q-5 -14 -19 -9q-42 14 -76 14q-74 0 -82 -74v-47h88q6 0 10.5 -4.5t4.5 -10.5v-52
q0 -6 -4.5 -10.5t-10.5 -4.5h-88v-469q0 -80 -49 -121.5t-124 -41.5q-60 0 -114 22q-14 5 -9 20z" />
    <glyph glyph-name="Scommaaccent" unicode="&#x218;" horiz-adv-x="622" 
d="M287 -331l-16 7q-13 8 -6 20q31 66 36 95q-23 1 -38 18.5t-15 40.5q0 25 16.5 42t41.5 17q34 0 50 -19.5t16 -46.5q0 -63 -64 -168q-8 -13 -21 -6zM169 526q0 -32 21.5 -55t56.5 -36t77 -25t83.5 -28.5t76.5 -39t56.5 -63.5t21.5 -97q0 -81 -71 -135.5t-177 -54.5
q-129 0 -241 55q-13 7 -7 20l26 54q7 13 21 8q99 -46 193 -46q61 0 105 28t44 72t-29 73.5t-72 42t-93.5 29t-93.5 34t-72 57.5t-29 99q0 89 60.5 141t157.5 52q115 0 226 -50q14 -5 8 -20l-26 -57q-5 -14 -20 -9q-103 40 -165 40q-63 0 -99 -19t-39 -70z" />
    <glyph glyph-name="scommaaccent" unicode="&#x219;" horiz-adv-x="492" 
d="M243 -91q34 0 50 -19.5t16 -46.5q0 -63 -64 -168q-8 -13 -21 -6l-16 7q-13 8 -6 20q31 66 36 95q-23 1 -38 18.5t-15 40.5q0 25 16.5 42t41.5 17zM163 369q0 -25 27.5 -41t67.5 -28t79.5 -28t67 -50.5t27.5 -86.5q0 -64 -51.5 -103.5t-130.5 -39.5q-97 0 -177 43
q-12 7 -7 21l23 46q6 15 19 7q71 -34 136 -34q36 0 60.5 16.5t24.5 42.5q0 30 -27 48.5t-65.5 29.5t-77 25.5t-65 46t-26.5 81.5q1 67 45.5 105t116.5 38q84 0 166 -38q13 -7 8 -21l-23 -48q-5 -14 -20 -8q-70 28 -113 28q-82 0 -85 -52z" />
    <glyph glyph-name="circumflex" unicode="&#x2c6;" horiz-adv-x="518" 
d="M122 650l130 97q12 9 24 0l130 -97q12 -9 4 -21l-20 -29q-8 -13 -21 -4l-105 64l-105 -64q-13 -9 -21 4l-20 29q-8 12 4 21z" />
    <glyph glyph-name="caron" unicode="&#x2c7;" horiz-adv-x="500" 
d="M256 597l-130 97q-11 8 -4 21l20 29q9 13 21 4l105 -64l105 64q12 9 21 -4l20 -29q7 -13 -4 -21l-130 -97q-12 -9 -24 0z" />
    <glyph glyph-name="breve" unicode="&#x2d8;" horiz-adv-x="516" 
d="M356 726l40 -12q14 -4 10 -18q-16 -48 -52.5 -76t-82.5 -28t-82 28t-52 76q-5 14 10 18l39 12q12 3 18 -10q19 -53 67 -53q50 0 67 52q5 15 18 11z" />
    <glyph glyph-name="dotaccent" unicode="&#x2d9;" horiz-adv-x="579" 
d="M226 652q0 25 17 42.5t42 17.5t42.5 -17.5t17.5 -42.5t-17.5 -42t-42.5 -17t-42 16.5t-17 42.5z" />
    <glyph glyph-name="ring" unicode="&#x2da;" horiz-adv-x="523" 
d="M160 688q0 42 30 72t72 30t71.5 -30t29.5 -72t-29.5 -71.5t-71.5 -29.5t-72 29.5t-30 71.5zM221 688q0 -16 12.5 -28t28.5 -12t28 12t12 28t-12 28.5t-28 12.5t-28.5 -12.5t-12.5 -28.5z" />
    <glyph glyph-name="ogonek" unicode="&#x2db;" horiz-adv-x="611" 
d="M290 38h32q6 0 10.5 -4.5t4.5 -10.5v-24q0 -10 -17.5 -44t-17.5 -55q0 -26 15 -40.5t43 -14.5q26 0 55 11q5 2 9.5 -1.5t4.5 -8.5v-34q0 -15 -14 -21q-37 -12 -68 -12q-50 0 -83 27t-33 79q0 30 22 69.5t22 47.5v21q0 6 4.5 10.5t10.5 4.5z" />
    <glyph glyph-name="tilde" unicode="&#x2dc;" horiz-adv-x="516" 
d="M372 693l31 -16q13 -7 6 -21q-36 -69 -104 -69q-23 0 -52 19.5t-49 19.5q-27 0 -44 -29q-7 -13 -21 -6l-26 12q-13 7 -8 21q28 76 100 76q27 0 56.5 -19.5t45.5 -19.5q25 0 44 26q9 13 21 6z" />
    <glyph glyph-name="hungarumlaut" unicode="&#x2dd;" horiz-adv-x="530" 
d="M458 732l-53 -126q-6 -14 -21 -14h-38q-5 0 -8.5 4.5t-2.5 9.5l40 126q5 14 20 14h54q5 0 8 -4.5t1 -9.5zM285 732l-53 -126q-6 -14 -21 -14h-38q-5 0 -8.5 4.5t-2.5 9.5l40 126q5 14 20 14h54q5 0 8 -4.5t1 -9.5z" />
    <glyph glyph-name="Delta" unicode="&#x394;" horiz-adv-x="740" 
d="M377 700l297 -686q2 -5 -1 -9.5t-8 -4.5h-590q-5 0 -8 4.5t-1 9.5l297 686q2 5 7 5t7 -5zM531 90l-161 400l-161 -400h322z" />
    <glyph glyph-name="Delta" unicode="&#x2206;" horiz-adv-x="740" 
d="M377 700l297 -686q2 -5 -1 -9.5t-8 -4.5h-590q-5 0 -8 4.5t-1 9.5l297 686q2 5 7 5t7 -5zM531 90l-161 400l-161 -400h322z" />
    <glyph glyph-name="Omega" unicode="&#x3a9;" horiz-adv-x="849" 
d="M679 90h95q6 0 10.5 -4.5t4.5 -10.5v-60q0 -6 -4.5 -10.5t-10.5 -4.5h-233q-6 0 -10.5 4.5t-4.5 10.5v58q0 14 13 22q50 30 80.5 84.5t38.5 95t8 74.5q0 25 -4.5 54t-20 69t-40.5 70.5t-71 52.5t-106 22t-106 -22t-70.5 -52.5t-40 -70.5t-20 -69t-4.5 -54q0 -24 5 -53
t17 -67.5t39 -75t65 -59.5q13 -6 13 -22v-57q0 -6 -4.5 -10.5t-10.5 -4.5h-232q-6 0 -10.5 4.5t-4.5 10.5v60q0 6 4.5 10.5t10.5 4.5h95q-92 100 -92 259q0 47 10 93.5t35.5 95.5t63 86t99 60.5t138.5 23.5t138.5 -23.5t99 -60.5t63 -86t35.5 -95.5t10 -93.5
q0 -158 -91 -259z" />
    <glyph glyph-name="Omega" unicode="&#x2126;" horiz-adv-x="849" 
d="M679 90h95q6 0 10.5 -4.5t4.5 -10.5v-60q0 -6 -4.5 -10.5t-10.5 -4.5h-233q-6 0 -10.5 4.5t-4.5 10.5v58q0 14 13 22q50 30 80.5 84.5t38.5 95t8 74.5q0 25 -4.5 54t-20 69t-40.5 70.5t-71 52.5t-106 22t-106 -22t-70.5 -52.5t-40 -70.5t-20 -69t-4.5 -54q0 -24 5 -53
t17 -67.5t39 -75t65 -59.5q13 -6 13 -22v-57q0 -6 -4.5 -10.5t-10.5 -4.5h-232q-6 0 -10.5 4.5t-4.5 10.5v60q0 6 4.5 10.5t10.5 4.5h95q-92 100 -92 259q0 47 10 93.5t35.5 95.5t63 86t99 60.5t138.5 23.5t138.5 -23.5t99 -60.5t63 -86t35.5 -95.5t10 -93.5
q0 -158 -91 -259z" />
    <glyph glyph-name="pi" unicode="&#x3c0;" horiz-adv-x="633" 
d="M458 -4q-34 0 -57 14t-32.5 36.5t-13 39.5t-3.5 34v288h-128v-393q0 -6 -4.5 -10.5t-10.5 -4.5h-70q-6 0 -10.5 4.5t-4.5 10.5v393h-59q-6 0 -10.5 4.5t-4.5 10.5v62q0 6 4.5 10.5t10.5 4.5h487q6 0 10.5 -4.5t4.5 -10.5v-62q0 -6 -4.5 -10.5t-10.5 -4.5h-100v-271
q0 -30 10 -46.5t41 -13.5q16 1 50 9q15 2 18 -12l9 -44q3 -16 -12 -19q-54 -15 -110 -15z" />
    <glyph glyph-name="endash" unicode="&#x2013;" horiz-adv-x="550" 
d="M455 277h-360q-6 0 -10.5 4.5t-4.5 10.5v45q0 6 4.5 10.5t10.5 4.5h360q6 0 10.5 -4.5t4.5 -10.5v-45q0 -6 -4.5 -10.5t-10.5 -4.5z" />
    <glyph glyph-name="emdash" unicode="&#x2014;" horiz-adv-x="672" 
d="M577 277h-482q-6 0 -10.5 4.5t-4.5 10.5v45q0 6 4.5 10.5t10.5 4.5h482q6 0 10.5 -4.5t4.5 -10.5v-45q0 -6 -4.5 -10.5t-10.5 -4.5z" />
    <glyph glyph-name="quoteleft" unicode="&#x2018;" horiz-adv-x="258" 
d="M156 709l23 -11q15 -6 7 -19q-42 -82 -47 -118q25 -2 42 -21t17 -45q0 -28 -18.5 -46.5t-46.5 -18.5q-38 0 -55.5 21t-17.5 52q0 71 75 200q9 13 21 6z" />
    <glyph glyph-name="quoteright" unicode="&#x2019;" horiz-adv-x="258" 
d="M101 436l-23 11q-13 8 -6 20q39 75 47 118q-25 2 -42 21t-17 45q0 28 18.5 46.5t46.5 18.5q38 0 55.5 -21t17.5 -52q0 -71 -75 -200q-9 -12 -22 -7z" />
    <glyph glyph-name="quotesinglbase" unicode="&#x201a;" horiz-adv-x="298" 
d="M121 -155l-23 11q-13 8 -6 20q39 75 47 118q-25 2 -42 21t-17 45q0 28 18.5 46.5t46.5 18.5q38 0 55.5 -21t17.5 -52q0 -71 -75 -200q-9 -12 -22 -7z" />
    <glyph glyph-name="quotedblleft" unicode="&#x201c;" horiz-adv-x="435" 
d="M156 709l23 -11q15 -6 7 -19q-42 -82 -47 -118q25 -2 42 -21t17 -45q0 -28 -18.5 -46.5t-46.5 -18.5q-38 0 -55.5 21t-17.5 52q0 71 75 200q9 13 21 6zM333 709l23 -11q15 -6 7 -19q-42 -82 -47 -118q25 -2 42 -21t17 -45q0 -28 -18.5 -46.5t-46.5 -18.5q-38 0 -55.5 21
t-17.5 52q0 71 75 200q9 13 21 6z" />
    <glyph glyph-name="quotedblright" unicode="&#x201d;" horiz-adv-x="435" 
d="M278 436l-23 11q-13 8 -6 20q39 75 47 118q-25 2 -42 21t-17 45q0 28 18.5 46.5t46.5 18.5q38 0 55.5 -21t17.5 -52q0 -71 -75 -200q-9 -12 -22 -7zM101 436l-23 11q-13 8 -6 20q39 75 47 118q-25 2 -42 21t-17 45q0 28 18.5 46.5t46.5 18.5q38 0 55.5 -21t17.5 -52
q0 -71 -75 -200q-9 -12 -22 -7z" />
    <glyph glyph-name="quotedblbase" unicode="&#x201e;" horiz-adv-x="451" 
d="M121 -155l-23 11q-13 8 -6 20q39 75 47 118q-25 2 -42 21t-17 45q0 28 18.5 46.5t46.5 18.5q38 0 55.5 -21t17.5 -52q0 -71 -75 -200q-9 -12 -22 -7zM314 -155l-23 11q-13 8 -6 20q39 75 47 118q-25 2 -42 21t-17 45q0 28 18.5 46.5t46.5 18.5q38 0 55.5 -21t17.5 -52
q0 -71 -75 -200q-9 -12 -22 -7z" />
    <glyph glyph-name="dagger" unicode="&#x2020;" horiz-adv-x="553" 
d="M458 411h-134v-557q0 -6 -4.5 -10.5t-10.5 -4.5h-65q-6 0 -10.5 4.5t-4.5 10.5v557h-134q-6 0 -10.5 4.5t-4.5 10.5v59q0 6 4.5 10.5t10.5 4.5h134v185q0 6 4.5 10.5t10.5 4.5h65q6 0 10.5 -4.5t4.5 -10.5v-185h134q6 0 10.5 -4.5t4.5 -10.5v-59q0 -6 -4.5 -10.5
t-10.5 -4.5z" />
    <glyph glyph-name="daggerdbl" unicode="&#x2021;" horiz-adv-x="553" 
d="M324 41v-187q0 -6 -4.5 -10.5t-10.5 -4.5h-65q-6 0 -10.5 4.5t-4.5 10.5v187h-134q-6 0 -10.5 4.5t-4.5 10.5v59q0 6 4.5 10.5t10.5 4.5h134v281h-134q-6 0 -10.5 4.5t-4.5 10.5v59q0 6 4.5 10.5t10.5 4.5h134v185q0 6 4.5 10.5t10.5 4.5h65q6 0 10.5 -4.5t4.5 -10.5
v-185h134q6 0 10.5 -4.5t4.5 -10.5v-59q0 -6 -4.5 -10.5t-10.5 -4.5h-134v-281h134q6 0 10.5 -4.5t4.5 -10.5v-59q0 -6 -4.5 -10.5t-10.5 -4.5h-134z" />
    <glyph glyph-name="bullet" unicode="&#x2022;" horiz-adv-x="398" 
d="M197 172q-47 0 -82 35t-35 82q0 49 35 85t82 36q49 0 85 -36t36 -85q0 -47 -36 -82t-85 -35z" />
    <glyph glyph-name="ellipsis" unicode="&#x2026;" horiz-adv-x="651" 
d="M80 59q0 28 18.5 46.5t46.5 18.5q27 0 46.5 -19t19.5 -46t-19.5 -46.5t-46.5 -19.5t-46 19.5t-19 46.5zM280 59q0 28 18.5 46.5t46.5 18.5q27 0 46.5 -19t19.5 -46t-19.5 -46.5t-46.5 -19.5t-46 19.5t-19 46.5zM480 59q0 28 18.5 46.5t46.5 18.5q27 0 46.5 -19t19.5 -46
t-19.5 -46.5t-46.5 -19.5t-46 19.5t-19 46.5z" />
    <glyph glyph-name="perthousand" unicode="&#x2030;" horiz-adv-x="1144" 
d="M328 547q0 -27 -7.5 -52t-23.5 -49.5t-46.5 -39t-71.5 -14.5t-71.5 14.5t-46.5 39t-23.5 49.5t-7.5 52q0 36 12.5 69t47.5 59.5t89 26.5t89 -26.5t47.5 -59.5t12.5 -69zM179 461q29 0 47 18t22 35t4 33t-4 33t-22 34.5t-47 17.5t-47 -17.5t-22.5 -34.5t-4.5 -33
q0 -11 3 -23.5t10 -27.5t23 -25t38 -10zM965 308q54 0 89 -26.5t47.5 -59.5t12.5 -69q0 -27 -7.5 -52t-23.5 -49.5t-46.5 -39t-71.5 -14.5t-71.5 14.5t-46.5 39t-23.5 49.5t-7.5 52q0 36 12.5 69t47.5 59.5t89 26.5zM965 67q29 0 47 18t22 35t4 33t-4 33t-22 34.5t-47 17.5
t-47 -17.5t-22.5 -34.5t-4.5 -33q0 -11 3 -23.5t10 -27.5t23 -25t38 -10zM598 308q54 0 89 -26.5t47.5 -59.5t12.5 -69q0 -27 -7.5 -52t-23.5 -49.5t-46.5 -39t-71.5 -14.5t-71.5 14.5t-46.5 39t-23.5 49.5t-7.5 52q0 36 12.5 69t47.5 59.5t89 26.5zM598 67q29 0 47 18
t22 35t4 33t-4 33t-22 34.5t-47 17.5t-47 -17.5t-22.5 -34.5t-4.5 -33q0 -11 3 -23.5t10 -27.5t23 -25t38 -10zM477 700h51q5 0 8.5 -4.5t1.5 -9.5l-218 -672q-5 -14 -20 -14h-51q-5 0 -8.5 4.5t-1.5 9.5l218 672q5 14 20 14z" />
    <glyph glyph-name="guilsinglleft" unicode="&#x2039;" horiz-adv-x="283" 
d="M125 251l118 -140q10 -10 -1 -21l-26 -23q-11 -11 -21 1l-159 167q-6 7 -6 16t6 15l159 168q10 12 21 1l26 -23q11 -11 1 -21z" />
    <glyph glyph-name="guilsinglright" unicode="&#x203a;" horiz-adv-x="283" 
d="M40 111l118 140l-118 140q-10 10 1 21l26 23q11 11 21 -1l159 -168q6 -6 6 -15t-6 -16l-159 -167q-10 -12 -21 -1l-26 23q-11 11 -1 21z" />
    <glyph glyph-name="fraction" unicode="&#x2044;" horiz-adv-x="53" 
d="M230 687l-335 -674q-7 -13 -22 -13h-43q-5 0 -7.5 4t-0.5 9l336 674q6 13 22 13h42q5 0 7.5 -4t0.5 -9z" />
    <glyph glyph-name="zerosuperior" unicode="&#x2070;" horiz-adv-x="312" 
d="M156 796q34 0 60 -15.5t39.5 -41t20 -52.5t6.5 -54q0 -39 -10.5 -73.5t-40.5 -62t-75 -27.5t-75 27.5t-40.5 62t-10.5 73.5q0 27 6.5 54t20 52.5t39.5 41t60 15.5zM156 522q20 0 34 13t20.5 32.5t9 35.5t2.5 30q0 20 -4 42t-20 45.5t-42 23.5t-42 -23.5t-20 -45.5t-4 -42
q0 -14 2.5 -30t9 -35.5t20.5 -32.5t34 -13z" />
    <glyph glyph-name="foursuperior" unicode="&#x2074;" horiz-adv-x="283" 
d="M214 539v-48q0 -6 -4.5 -10.5t-10.5 -4.5h-31q-6 0 -10.5 4.5t-4.5 10.5v48h-118q-6 0 -10.5 4.5t-4.5 10.5v5q0 14 8 28l129 199q8 13 23 13h19q6 0 10.5 -4.5t4.5 -10.5v-189h34q6 0 10.5 -4.5t4.5 -10.5v-26q0 -6 -4.5 -10.5t-10.5 -4.5h-34zM153 679l-54 -84h54v84z
" />
    <glyph glyph-name="fivesuperior" unicode="&#x2075;" horiz-adv-x="274" 
d="M41 535l17 17q10 8 21 -1q24 -24 51 -24q25 0 39.5 16.5t14.5 38.5t-14.5 38t-40.5 16h-62q-6 0 -10.5 4.5t-4.5 10.5v133q0 6 4.5 10.5t10.5 4.5h139q6 0 10.5 -4.5t4.5 -10.5v-24q0 -6 -4.5 -10.5t-10.5 -4.5h-93v-56h16q62 0 88.5 -34t26.5 -76q0 -36 -27.5 -71
t-87.5 -35q-54 0 -89 40q-10 11 1 22z" />
    <glyph glyph-name="sixsuperior" unicode="&#x2076;" horiz-adv-x="286" 
d="M182 793l12 -19q4 -4 2.5 -10.5t-6.5 -9.5q-55 -36 -79 -75q12 7 32 7q62 0 87.5 -34.5t25.5 -76.5q0 -21 -8 -43t-35 -43t-70 -21q-32 0 -56 11.5t-35 29.5t-16 34.5t-5 31.5q-2 143 129 222q13 9 22 -4zM143 523q25 0 39.5 16.5t14.5 38.5t-14 38t-40 16
q-25 0 -38.5 -15.5t-14.5 -38.5q0 -22 14 -38.5t39 -16.5z" />
    <glyph glyph-name="sevensuperior" unicode="&#x2077;" horiz-adv-x="242" 
d="M20 760v24q0 6 4.5 10.5t10.5 4.5h179q8 0 8 -8q0 -9 -3 -15l-117 -286q-6 -14 -21 -14h-33q-5 0 -8 4.5t-1 9.5l104 255h-108q-6 0 -10.5 4.5t-4.5 10.5z" />
    <glyph glyph-name="eightsuperior" unicode="&#x2078;" horiz-adv-x="274" 
d="M204 635q36 -27 36 -74q0 -34 -24 -63.5t-81 -29.5t-81 29.5t-24 63.5q0 47 36 74q-36 27 -36 74q0 34 24 63.5t81 29.5t81 -29.5t24 -63.5q0 -47 -36 -74zM135 518q19 0 33 11.5t14 31.5q0 21 -14 32.5t-33 11.5t-33 -11.5t-14 -32.5q0 -20 14 -31.5t33 -11.5zM135 665
q19 0 33 11.5t14 32.5q0 20 -14 31.5t-33 11.5t-33 -11.5t-14 -31.5q0 -21 14 -32.5t33 -11.5z" />
    <glyph glyph-name="ninesuperior" unicode="&#x2079;" horiz-adv-x="286" 
d="M104 474l-12 19q-9 11 4 20q52 34 79 75q-12 -7 -32 -7q-62 0 -87.5 34.5t-25.5 76.5q0 21 8 43t35 43t70 21q32 0 56 -11.5t35 -29.5t16 -34.5t5 -31.5q2 -143 -129 -222q-13 -9 -22 4zM143 744q-25 0 -39.5 -16.5t-14.5 -38.5t14 -38t40 -16q25 0 38.5 15.5t14.5 38.5
q0 22 -14 38.5t-39 16.5z" />
    <glyph glyph-name="zeroinferior" unicode="&#x2080;" horiz-adv-x="312" 
d="M156 159q34 0 60 -15.5t39.5 -41t20 -52.5t6.5 -54q0 -39 -10.5 -73.5t-40.5 -62t-75 -27.5t-75 27.5t-40.5 62t-10.5 73.5q0 27 6.5 54t20 52.5t39.5 41t60 15.5zM156 -115q20 0 34 13t20.5 32.5t9 35.5t2.5 30q0 20 -4 42t-20 45.5t-42 23.5t-42 -23.5t-20 -45.5
t-4 -42q0 -14 2.5 -30t9 -35.5t20.5 -32.5t34 -13z" />
    <glyph glyph-name="oneinferior" unicode="&#x2081;" horiz-adv-x="206" 
d="M156 144v-296q0 -6 -4.5 -10.5t-10.5 -4.5h-31q-6 0 -10.5 4.5t-4.5 10.5v215l-35 -20q-13 -9 -21 5l-11 17q-9 13 4 22l89 63q11 7 22 7q13 0 13 -13z" />
    <glyph glyph-name="twoinferior" unicode="&#x2082;" horiz-adv-x="262" 
d="M49 77l-16 16q-10 12 0 22q47 44 99 44q46 0 73 -27.5t27 -67.5q0 -43 -39 -89l-73 -86h89q6 0 10.5 -4.5t4.5 -10.5v-26q0 -6 -4.5 -10.5t-10.5 -4.5h-177q-4 0 -8 3.5t-4 8.5q0 12 8 23l120 143q26 32 26 57q0 15 -9.5 26.5t-31.5 11.5q-27 0 -62 -30q-11 -10 -22 1z
" />
    <glyph glyph-name="threeinferior" unicode="&#x2083;" horiz-adv-x="258" 
d="M228 63q0 -45 -32 -73q32 -27 32 -72q0 -36 -25 -66t-83 -30q-49 0 -89 34q-12 10 -1 21l12 13q9 11 21 1q30 -21 57 -21q23 0 38.5 12.5t15.5 35.5t-15.5 36t-38.5 13h-28q-6 0 -10.5 4.5t-4.5 10.5v17q0 6 4.5 10.5t10.5 4.5h28q23 0 38.5 13t15.5 36t-16 35.5
t-38 12.5q-27 0 -56 -22q-14 -8 -22 2l-12 13q-9 11 1 21q42 34 89 34q58 0 83 -30.5t25 -65.5z" />
    <glyph glyph-name="fourinferior" unicode="&#x2084;" horiz-adv-x="283" 
d="M214 -104v-48q0 -6 -4.5 -10.5t-10.5 -4.5h-31q-6 0 -10.5 4.5t-4.5 10.5v48h-118q-6 0 -10.5 4.5t-4.5 10.5v5q0 14 8 28l129 199q8 13 23 13h19q6 0 10.5 -4.5t4.5 -10.5v-189h34q6 0 10.5 -4.5t4.5 -10.5v-26q0 -6 -4.5 -10.5t-10.5 -4.5h-34zM153 36l-54 -84h54v84z
" />
    <glyph glyph-name="fiveinferior" unicode="&#x2085;" horiz-adv-x="274" 
d="M41 -108l17 17q10 8 21 -1q24 -24 51 -24q25 0 39.5 16.5t14.5 38.5t-14.5 38t-40.5 16h-62q-6 0 -10.5 4.5t-4.5 10.5v133q0 6 4.5 10.5t10.5 4.5h139q6 0 10.5 -4.5t4.5 -10.5v-24q0 -6 -4.5 -10.5t-10.5 -4.5h-93v-56h16q62 0 88.5 -34t26.5 -76q0 -36 -27.5 -71
t-87.5 -35q-54 0 -89 40q-10 11 1 22z" />
    <glyph glyph-name="sixinferior" unicode="&#x2086;" horiz-adv-x="286" 
d="M182 151l12 -19q4 -4 2.5 -10.5t-6.5 -9.5q-55 -36 -79 -75q12 7 32 7q62 0 87.5 -34.5t25.5 -76.5q0 -21 -8 -43t-35 -43t-70 -21q-32 0 -56 11.5t-35 29.5t-16 34.5t-5 31.5q-2 143 129 222q13 9 22 -4zM143 -119q25 0 39.5 16.5t14.5 38.5t-14 38t-40 16
q-25 0 -38.5 -15.5t-14.5 -38.5q0 -22 14 -38.5t39 -16.5z" />
    <glyph glyph-name="seveninferior" unicode="&#x2087;" horiz-adv-x="242" 
d="M20 117v24q0 6 4.5 10.5t10.5 4.5h179q8 0 8 -8q0 -9 -3 -15l-117 -286q-6 -14 -21 -14h-33q-5 0 -8 4.5t-1 9.5l104 255h-108q-6 0 -10.5 4.5t-4.5 10.5z" />
    <glyph glyph-name="eightinferior" unicode="&#x2088;" horiz-adv-x="274" 
d="M135 -160q-54 0 -79.5 30t-25.5 65q0 20 9.5 39t23.5 26q-13 9 -22 28.5t-9 36.5q0 35 24 64.5t81 29.5t80.5 -29.5t23.5 -64.5q0 -15 -8.5 -35t-21.5 -30q33 -23 33 -65q0 -36 -26 -65.5t-83 -29.5zM137 -24q-24 -1 -35.5 -14.5t-11.5 -26.5q0 -20 13 -31t32 -11
q20 0 34.5 10.5t14.5 31.5q0 15 -11 28t-36 13zM180 65q0 19 -13 29.5t-31 10.5t-30.5 -10.5t-12.5 -29.5q0 -13 10 -25t34 -13q24 1 33.5 13.5t9.5 24.5z" />
    <glyph glyph-name="nineinferior" unicode="&#x2089;" horiz-adv-x="286" 
d="M104 -166l-12 19q-9 11 4 20q52 34 79 75q-12 -7 -32 -7q-62 0 -87.5 34.5t-25.5 76.5q0 21 8 43t35 43t70 21q32 0 56 -11.5t35 -29.5t16 -34.5t5 -31.5q2 -143 -129 -222q-13 -9 -22 4zM143 104q-25 0 -39.5 -16.5t-14.5 -38.5t14 -38t40 -16q25 0 38.5 15.5t14.5 38.5
q0 22 -14 38.5t-39 16.5z" />
    <glyph glyph-name="Euro" unicode="&#x20ac;" horiz-adv-x="556" 
d="M374 377h-198v-27q0 -18 1 -28h160q5 0 8.5 -4.5t2.5 -9.5l-12 -40q-4 -14 -19 -14h-132q34 -175 152 -175q57 0 102 39q12 9 23 1l42 -33q12 -8 2 -20q-70 -73 -169 -73q-57 0 -102.5 22t-75 60.5t-47 82.5t-26.5 96h-61q-6 0 -9.5 4.5t-1.5 9.5l13 40q3 14 19 14h32v55
h-53q-6 0 -9.5 4.5t-1.5 9.5l13 40q3 14 19 14h40q9 51 26.5 95t47 83t75 61t102.5 22q98 0 167 -74q11 -11 -2 -20l-42 -35q-11 -8 -23 1q-45 42 -100 42q-117 0 -152 -175h210q5 0 8.5 -4.5t2.5 -9.5l-13 -40q-3 -14 -19 -14z" />
    <glyph glyph-name="afii61289" unicode="&#x2113;" horiz-adv-x="437" 
d="M20 313v54q0 6 4.5 10.5t10.5 4.5h42v158q0 50 16 86.5t42 53.5t50 24t49 7q85 0 129 -53t44 -129q0 -98 -67 -164t-163 -66v-110q0 -16 1 -29t6 -29t12.5 -26.5t22.5 -18t35 -6.5q33 2 74 24q14 8 21 -5l26 -40q8 -13 -4 -23q-46 -36 -114 -41q-48 -3 -83.5 11t-53 35.5
t-28.5 51t-13 48.5t-2 38v119h-42q-6 0 -10.5 4.5t-4.5 10.5zM177 382q59 0 100 44.5t37 113.5q-2 42 -25.5 65t-54.5 21q-57 -4 -57 -78v-166z" />
    <glyph glyph-name="trademark" unicode="&#x2122;" horiz-adv-x="699" 
d="M542 624l-75 -156q-2 -4 -7 -4t-7 4l-75 156l-45 -145q-3 -14 -19 -14h-33q-5 0 -8.5 4.5t-1.5 9.5l94 270q2 5 7 5q6 0 8 -5l80 -176l80 176q2 5 7 5t7 -5l95 -270q1 -5 -2 -9.5t-8 -4.5h-33q-16 0 -19 14zM123 480v220h-63q-6 0 -10.5 4.5t-4.5 10.5v23q0 6 4.5 10.5
t10.5 4.5h185q6 0 10.5 -4.5t4.5 -10.5v-23q0 -6 -4.5 -10.5t-10.5 -4.5h-64v-220q0 -6 -4.5 -10.5t-10.5 -4.5h-28q-6 0 -10.5 4.5t-4.5 10.5z" />
    <glyph glyph-name="estimated" unicode="&#x212e;" horiz-adv-x="812" 
d="M639 142l20 -17q12 -9 2 -21q-48 -57 -108 -84.5t-147 -27.5q-77 0 -138.5 23.5t-99 60t-63 85t-35.5 96t-10 95.5q0 47 10 93.5t35.5 95.5t63 86t99 60.5t138.5 23.5q76 0 137.5 -23.5t99.5 -60t63 -85t35.5 -95t10.5 -93.5q0 -6 -4.5 -10.5t-10.5 -4.5h-541v-197
q73 -98 210 -98q123 0 211 96q10 10 22 2zM406 659q-136 0 -210 -97v-171h417v174q-71 94 -207 94z" />
    <glyph glyph-name="onethird" unicode="&#x2153;" horiz-adv-x="592" 
d="M162 688v-296q0 -6 -4.5 -10.5t-10.5 -4.5h-31q-6 0 -10.5 4.5t-4.5 10.5v215l-35 -20q-13 -9 -21 5l-11 17q-9 13 4 22l89 63q10 7 22 7q13 0 13 -13zM463 687l-335 -674q-6 -13 -22 -13h-43q-5 0 -7.5 4t-0.5 9l336 674q7 13 22 13h42q5 0 7.5 -4t0.5 -9zM541 234
q0 -45 -32 -73q32 -27 32 -72q0 -36 -25 -66t-83 -30q-49 0 -89 34q-12 10 -1 21l12 13q9 11 21 1q30 -21 57 -21q23 0 38.5 12.5t15.5 35.5t-15.5 36t-38.5 13h-28q-6 0 -10.5 4.5t-4.5 10.5v17q0 6 4.5 10.5t10.5 4.5h28q23 0 38.5 13t15.5 36t-15.5 35.5t-38.5 12.5
q-27 0 -56 -22q-14 -8 -22 2l-12 13q-9 11 1 21q42 34 89 34q58 0 83 -30.5t25 -65.5z" />
    <glyph glyph-name="twothirds" unicode="&#x2154;" horiz-adv-x="633" 
d="M520 687l-335 -674q-7 -13 -22 -13h-43q-5 0 -7.5 4t-0.5 9l336 674q6 13 22 13h42q5 0 7.5 -4t0.5 -9zM57 621l-16 16q-10 12 0 22q47 44 99 44q46 0 73 -27.5t27 -67.5q0 -43 -39 -89l-73 -86h89q6 0 10.5 -4.5t4.5 -10.5v-26q0 -6 -4.5 -10.5t-10.5 -4.5h-177
q-4 0 -8 3.5t-4 8.5q0 12 8 23l120 143q26 32 26 57q0 15 -9.5 26.5t-31.5 11.5q-27 0 -62 -30q-11 -10 -22 1zM591 234q0 -45 -32 -73q32 -27 32 -72q0 -36 -25 -66t-83 -30q-49 0 -89 34q-12 10 -1 21l12 13q9 11 21 1q30 -21 57 -21q23 0 38.5 12.5t15.5 35.5t-15.5 36
t-38.5 13h-28q-6 0 -10.5 4.5t-4.5 10.5v17q0 6 4.5 10.5t10.5 4.5h28q23 0 38.5 13t15.5 36t-15.5 35.5t-38.5 12.5q-27 0 -56 -22q-14 -8 -22 2l-12 13q-9 11 1 21q43 34 89 34q58 0 83 -30.5t25 -65.5z" />
    <glyph glyph-name="oneeighth" unicode="&#x215b;" horiz-adv-x="585" 
d="M101 607l-35 -20q-13 -9 -21 5l-11 17q-9 13 4 22l89 63q10 7 22 7q13 0 13 -13v-296q0 -6 -4.5 -10.5t-10.5 -4.5h-31q-6 0 -10.5 4.5t-4.5 10.5v215zM505 164q36 -27 36 -74q0 -34 -24 -63.5t-81 -29.5t-81 29.5t-24 63.5q0 47 36 74q-36 27 -36 74q0 34 24 63.5
t81 29.5t81 -29.5t24 -63.5q0 -47 -36 -74zM436 47q19 0 33 11.5t14 31.5q0 21 -14 32.5t-33 11.5t-33 -11.5t-14 -32.5q0 -20 14 -31.5t33 -11.5zM436 194q19 0 33 11.5t14 32.5q0 20 -14 31.5t-33 11.5t-33 -11.5t-14 -31.5q0 -21 14 -32.5t33 -11.5zM418 700h42
q5 0 7.5 -4t0.5 -9l-335 -674q-7 -13 -22 -13h-43q-5 0 -7.5 4t-0.5 9l336 674q6 13 22 13z" />
    <glyph glyph-name="threeeighths" unicode="&#x215c;" horiz-adv-x="578" 
d="M122 418q23 0 38.5 12.5t15.5 35.5t-15.5 36t-38.5 13h-28q-6 0 -10.5 4.5t-4.5 10.5v17q0 6 4.5 10.5t10.5 4.5h28q23 0 38.5 13t15.5 36t-16 35.5t-38 12.5q-27 0 -56 -22q-14 -8 -22 2l-12 13q-9 11 1 21q42 34 89 34q58 0 83 -30.5t25 -65.5q0 -45 -32 -73
q32 -27 32 -72q0 -36 -25 -66t-83 -30q-49 0 -89 34q-12 10 -1 21l12 13q9 11 21 1q30 -21 57 -21zM432 700h42q5 0 7.5 -4t0.5 -9l-335 -674q-7 -13 -22 -13h-43q-5 0 -7.5 4t-0.5 9l336 674q6 13 22 13zM507 164q36 -27 36 -74q0 -34 -24 -63.5t-81 -29.5t-81 29.5
t-24 63.5q0 47 36 74q-36 27 -36 74q0 34 24 63.5t81 29.5t81 -29.5t24 -63.5q0 -47 -36 -74zM438 47q19 0 33 11.5t14 31.5q0 21 -14 32.5t-33 11.5t-33 -11.5t-14 -32.5q0 -20 14 -31.5t33 -11.5zM438 194q19 0 33 11.5t14 32.5q0 20 -14 31.5t-33 11.5t-33 -11.5
t-14 -31.5q0 -21 14 -32.5t33 -11.5z" />
    <glyph glyph-name="fiveeighths" unicode="&#x215d;" horiz-adv-x="596" 
d="M244 480q0 -36 -27.5 -71t-87.5 -35q-54 0 -89 40q-10 11 1 22l17 17q10 8 21 -1q24 -24 51 -24q25 0 39.5 16.5t14.5 38.5t-14.5 38t-40.5 16h-62q-6 0 -10.5 4.5t-4.5 10.5v133q0 6 4.5 10.5t10.5 4.5h139q6 0 10.5 -4.5t4.5 -10.5v-24q0 -6 -4.5 -10.5t-10.5 -4.5h-93
v-56h16q62 0 88.5 -34t26.5 -76zM444 700h42q5 0 7.5 -4t0.5 -9l-335 -674q-7 -13 -22 -13h-43q-5 0 -7.5 4t-0.5 9l336 674q6 13 22 13zM519 164q36 -27 36 -74q0 -34 -24 -63.5t-81 -29.5t-81 29.5t-24 63.5q0 47 36 74q-36 27 -36 74q0 34 24 63.5t81 29.5t81 -29.5
t24 -63.5q0 -47 -36 -74zM450 47q19 0 33 11.5t14 31.5q0 21 -14 32.5t-33 11.5t-33 -11.5t-14 -32.5q0 -20 14 -31.5t33 -11.5zM450 194q19 0 33 11.5t14 32.5q0 20 -14 31.5t-33 11.5t-33 -11.5t-14 -31.5q0 -21 14 -32.5t33 -11.5z" />
    <glyph glyph-name="seveneighths" unicode="&#x215e;" horiz-adv-x="516" 
d="M449 164q36 -27 36 -74q0 -34 -24 -63.5t-81 -29.5t-81 29.5t-24 63.5q0 47 36 74q-36 27 -36 74q0 34 24 63.5t81 29.5t81 -29.5t24 -63.5q0 -47 -36 -74zM380 47q19 0 33 11.5t14 31.5q0 21 -14 32.5t-33 11.5t-33 -11.5t-14 -32.5q0 -20 14 -31.5t33 -11.5zM380 194
q19 0 33 11.5t14 32.5q0 20 -14 31.5t-33 11.5t-33 -11.5t-14 -31.5q0 -21 14 -32.5t33 -11.5zM39 391l104 255h-108q-6 0 -10.5 4.5t-4.5 10.5v24q0 6 4.5 10.5t10.5 4.5h179q8 0 8 -8q0 -9 -3 -15l-117 -286q-6 -14 -21 -14h-33q-5 0 -8 4.5t-1 9.5zM373 700h42
q5 0 7.5 -4t0.5 -9l-335 -674q-6 -13 -22 -13h-43q-5 0 -7.5 4t-0.5 9l336 674q7 13 22 13z" />
    <glyph glyph-name="arrowleft" unicode="&#x2190;" horiz-adv-x="607" 
d="M532 218h-321l149 -162q10 -11 -1 -22l-31 -31q-11 -10 -22 1l-240 240q-6 6 -6 14q0 9 6 15l240 240q11 11 22 0l30 -30q11 -11 1 -22l-148 -161h321q6 0 10.5 -4.5t4.5 -10.5v-52q0 -6 -4.5 -10.5t-10.5 -4.5z" />
    <glyph glyph-name="arrowup" unicode="&#x2191;" horiz-adv-x="591" 
d="M336 349v-321q0 -6 -4.5 -10.5t-10.5 -4.5h-52q-6 0 -10.5 4.5t-4.5 10.5v321l-161 -148q-11 -11 -22 1l-30 30q-11 11 0 22l240 240q6 6 14 6q9 0 15 -6l240 -240q11 -11 0 -22l-31 -31q-10 -12 -21 -1z" />
    <glyph glyph-name="arrowright" unicode="&#x2192;" horiz-adv-x="607" 
d="M396 218h-321q-6 0 -10.5 4.5t-4.5 10.5v52q0 6 4.5 10.5t10.5 4.5h321l-148 161q-10 11 1 22l30 30q11 11 22 0l240 -240q6 -6 6 -15q0 -8 -6 -14l-240 -240q-11 -11 -22 -1l-31 31q-12 12 -1 22z" />
    <glyph glyph-name="arrowdown" unicode="&#x2193;" horiz-adv-x="591" 
d="M336 485v-321l162 149q12 10 21 -1l31 -31q11 -11 0 -22l-240 -240q-6 -6 -15 -6q-8 0 -14 6l-240 240q-11 11 0 22l30 30q11 11 22 1l161 -148v321q0 6 4.5 10.5t10.5 4.5h52q6 0 10.5 -4.5t4.5 -10.5z" />
    <glyph glyph-name="partialdiff" unicode="&#x2202;" horiz-adv-x="584" 
d="M195 650l29 42q7 14 21 6q54 -31 100.5 -73.5t89 -102t66 -139.5t22.5 -171q0 -24 -6 -50t-22 -57t-40.5 -55t-66.5 -40t-96 -16t-96 16.5t-67 41t-41 55.5t-22 56.5t-6 48.5q0 36 10 71t34 71.5t72.5 59t115.5 22.5q26 0 59.5 -11.5t48.5 -26.5q-20 56 -70.5 119.5
t-129.5 112.5q-13 8 -5 20zM292 80q63 0 98.5 41t35.5 97q-2 57 -36.5 96.5t-97.5 39.5q-64 0 -99.5 -40.5t-35.5 -95.5q0 -56 36 -97t99 -41z" />
    <glyph glyph-name="product" unicode="&#x220f;" horiz-adv-x="614" 
d="M123 15v595h-63q-6 0 -10.5 4.5t-4.5 10.5v60q0 6 4.5 10.5t10.5 4.5h494q6 0 10.5 -4.5t4.5 -10.5v-60q0 -6 -4.5 -10.5t-10.5 -4.5h-63v-595q0 -6 -4.5 -10.5t-10.5 -4.5h-73q-6 0 -10.5 4.5t-4.5 10.5v595h-162v-595q0 -6 -4.5 -10.5t-10.5 -4.5h-73q-6 0 -10.5 4.5
t-4.5 10.5z" />
    <glyph glyph-name="summation" unicode="&#x2211;" horiz-adv-x="504" 
d="M358 338l-172 -252h273q6 0 10.5 -4.5t4.5 -10.5v-56q0 -6 -4.5 -10.5t-10.5 -4.5h-406q-12 0 -12 12t7 22l213 316l-213 315q-7 8 -7 22q0 5 3.5 9t8.5 4h406q6 0 10.5 -4.5t4.5 -10.5v-56q0 -6 -4.5 -10.5t-10.5 -4.5h-273l172 -252q10 -12 0 -24z" />
    <glyph glyph-name="minus" unicode="&#x2212;" horiz-adv-x="574" 
d="M95 418h384q6 0 10.5 -4.5t4.5 -10.5v-45q0 -6 -4.5 -10.5t-10.5 -4.5h-384q-6 0 -10.5 4.5t-4.5 10.5v45q0 6 4.5 10.5t10.5 4.5z" />
    <glyph glyph-name="radical" unicode="&#x221a;" horiz-adv-x="654" 
d="M259 202l200 484q7 14 21 14h129q6 0 10.5 -4.5t4.5 -10.5v-47q0 -6 -4.5 -10.5t-10.5 -4.5h-74l-266 -626q-3 -8 -12 -8q-8 0 -13 8l-212 487q-2 5 0 10q2 6 8 6h80q14 0 21 -14l115 -284h3z" />
    <glyph glyph-name="infinity" unicode="&#x221e;" horiz-adv-x="671" 
d="M219 150q-69 0 -104 43.5t-35 103.5q0 59 35 103t104 44q35 0 66 -19t51 -50q43 69 116 69q70 0 104.5 -44t34.5 -104q0 -59 -34.5 -102.5t-104.5 -43.5q-35 0 -66 18t-50 48q-41 -66 -117 -66zM443 231q28 0 45.5 19t17.5 46t-17.5 44.5t-45.5 17.5q-46 0 -70 -62
q25 -65 70 -65zM228 230q46 0 70 67q-21 64 -70 64q-28 0 -45 -17t-17 -47q0 -31 17 -49t45 -18z" />
    <glyph glyph-name="integral" unicode="&#x222b;" horiz-adv-x="456" 
d="M410 598q-38 20 -71 20q-76 0 -76 -107v-514v-2q0 -12 -0.5 -23.5t-4 -37t-14.5 -46t-28.5 -42t-49 -33.5t-72.5 -12q-68 0 -123 39q-12 9 -3 23l27 41q8 14 21 6q38 -20 71 -20q76 0 76 107v514v2q0 12 0.5 23.5t4 37t14.5 46t28.5 42t49 33.5t72.5 12q68 0 123 -39
q11 -10 3 -23l-27 -41q-8 -14 -21 -6z" />
    <glyph glyph-name="approxequal" unicode="&#x2248;" horiz-adv-x="578" 
d="M129 318l-37 25q-13 9 -4 22q53 84 135 84q30 0 76 -26q46 -23 62 -23q34 0 69 42q10 12 22 2l34 -28q13 -11 4 -23q-51 -84 -130 -84q-33 0 -84 29q-38 22 -57 22q-34 0 -68 -39q-10 -10 -22 -3zM129 118l-37 25q-13 9 -4 22q53 84 135 84q30 0 76 -26q46 -23 62 -23
q34 0 69 42q10 12 22 2l34 -28q13 -11 4 -23q-51 -84 -130 -84q-33 0 -84 29q-38 22 -57 22q-34 0 -68 -39q-10 -10 -22 -3z" />
    <glyph glyph-name="notequal" unicode="&#x2260;" horiz-adv-x="502" 
d="M166 100h-71q-6 0 -10.5 4.5t-4.5 10.5v45q0 6 4.5 10.5t10.5 4.5h95l47 145h-142q-6 0 -10.5 4.5t-4.5 10.5v45q0 6 4.5 10.5t10.5 4.5h166l30 91q5 14 20 14h36q5 0 8.5 -4.5t1.5 -9.5l-30 -91h80q6 0 10.5 -4.5t4.5 -10.5v-45q0 -6 -4.5 -10.5t-10.5 -4.5h-104
l-47 -145h151q6 0 10.5 -4.5t4.5 -10.5v-45q0 -6 -4.5 -10.5t-10.5 -4.5h-175l-27 -86q-5 -14 -20 -14h-36q-5 0 -8.5 4.5t-1.5 9.5z" />
    <glyph glyph-name="lessequal" unicode="&#x2264;" horiz-adv-x="429" 
d="M386 464l-211 -134l211 -136q14 -8 5 -21l-25 -43q-8 -14 -20 -5l-304 182q-12 7 -12 21q0 15 12 22l304 183q13 7 20 -5l25 -43q9 -13 -5 -21zM45 75h326q6 0 10.5 -4.5t4.5 -10.5v-45q0 -6 -4.5 -10.5t-10.5 -4.5h-326q-6 0 -10.5 4.5t-4.5 10.5v45q0 6 4.5 10.5
t10.5 4.5z" />
    <glyph glyph-name="greaterequal" unicode="&#x2265;" horiz-adv-x="425" 
d="M254 330l-211 134q-14 8 -6 21l25 43q9 12 21 5l304 -183q12 -7 12 -22q0 -14 -12 -21l-304 -182q-12 -8 -21 5l-25 43q-8 13 6 21zM58 75h326q6 0 10.5 -4.5t4.5 -10.5v-45q0 -6 -4.5 -10.5t-10.5 -4.5h-326q-6 0 -10.5 4.5t-4.5 10.5v45q0 6 4.5 10.5t10.5 4.5z" />
    <glyph glyph-name="lozenge" unicode="&#x25ca;" horiz-adv-x="652" 
d="M335 695l248 -335q9 -12 0 -24l-248 -334q-4 -4 -9.5 -4t-8.5 4l-248 334q-9 12 0 24l248 335q3 5 8.5 5t9.5 -5zM471 348l-145 208l-145 -208l145 -207z" />
    <glyph glyph-name="CR" horiz-adv-x="250" 
 />
    <glyph glyph-name="zero.oldstyle" horiz-adv-x="574" 
d="M287 506q62 0 108.5 -25.5t71 -66.5t36 -84t11.5 -86q0 -33 -5.5 -64.5t-21.5 -66t-40.5 -60t-65.5 -42.5t-94 -17t-94 17.5t-65.5 44t-40.5 62t-21.5 67.5t-5.5 65q0 32 5.5 64t21.5 67.5t40.5 62.5t65.5 44.5t94 17.5zM287 80q34 0 59 14.5t37.5 33t19.5 44.5t8.5 41.5
t1.5 30.5t-1.5 31.5t-8.5 44t-19.5 48t-37.5 36t-59 15.5t-59.5 -15t-37.5 -34.5t-19 -46t-8.5 -42t-1.5 -31.5q0 -21 3 -42.5t14 -54t39 -53t70 -20.5z" />
    <glyph glyph-name="one.oldstyle" horiz-adv-x="464" 
d="M73 78h112v277l-102 -59q-13 -8 -21 6l-24 38q-9 13 4 22l188 142q12 9 27 9h13q6 0 10.5 -4.5t4.5 -10.5v-420h104q6 0 10.5 -4.5t4.5 -10.5v-48q0 -6 -4.5 -10.5t-10.5 -4.5h-316q-6 0 -10.5 4.5t-4.5 10.5v48q0 6 4.5 10.5t10.5 4.5z" />
    <glyph glyph-name="two.oldstyle" horiz-adv-x="429" 
d="M369 363q0 -57 -62 -142l-113 -140h150q6 0 10.5 -4.5t4.5 -10.5v-51q0 -6 -4.5 -10.5t-10.5 -4.5h-281q-6 0 -10.5 4.5t-4.5 10.5v1q0 15 9 27l181 233q41 53 41 90q0 23 -16.5 41.5t-49.5 18.5q-45 0 -109 -51q-12 -8 -22 2l-29 35q-11 11 0 22q73 73 160 73
q69 0 112.5 -37.5t43.5 -106.5z" />
    <glyph glyph-name="three.oldstyle" horiz-adv-x="475" 
d="M415 332q0 -84 -63 -134q63 -50 63 -133q0 -27 -9 -55t-29 -57t-61 -47t-97 -18q-89 0 -168 70q-10 10 -2 22l32 38q10 11 21 2q61 -48 117 -48q43 0 72.5 24t29.5 69q0 44 -29.5 68t-72.5 24h-62q-6 0 -10.5 4.5t-4.5 10.5v52q0 6 4.5 10.5t10.5 4.5h62q43 0 72.5 24.5
t29.5 68.5q0 45 -29.5 69t-72.5 24q-56 0 -117 -48q-11 -9 -21 2l-32 38q-8 12 2 22q75 67 168 67q56 0 97 -17.5t61 -46t29 -56t9 -54.5z" />
    <glyph glyph-name="four.oldstyle" horiz-adv-x="512" 
d="M387 18v-114q0 -6 -4.5 -10.5t-10.5 -4.5h-70q-6 0 -10.5 4.5t-4.5 10.5v114h-242q-6 0 -10.5 4.5t-4.5 10.5v25q0 14 8 28l263 401q8 13 23 13h48q6 0 10.5 -4.5t4.5 -10.5v-382h80q6 0 10.5 -4.5t4.5 -10.5v-55q0 -6 -4.5 -10.5t-10.5 -4.5h-80zM287 313l-135 -210h135
v210z" />
    <glyph glyph-name="five.oldstyle" horiz-adv-x="513" 
d="M71 -11l41 37q11 9 21 -1q52 -52 108 -52q54 0 86 34.5t32 81.5q0 51 -34 83t-91 32h-118q-6 0 -10.5 4.5t-4.5 10.5v266q0 6 4.5 10.5t10.5 4.5h292q6 0 10.5 -4.5t4.5 -10.5v-56q0 -6 -4.5 -10.5t-10.5 -4.5h-210v-128h42q61 0 105 -18.5t66.5 -49.5t32 -64t9.5 -70
q0 -21 -5.5 -45t-20.5 -51.5t-38 -49t-62 -36t-87 -14.5q-100 0 -171 79q-8 12 2 22z" />
    <glyph glyph-name="six.oldstyle" horiz-adv-x="540" 
d="M333 611l27 -43q8 -14 -5 -21q-126 -84 -169 -176q36 24 84 24q61 0 105 -20.5t65.5 -53.5t30.5 -64.5t9 -64.5q0 -20 -5 -43.5t-20 -51.5t-37.5 -50t-61 -37t-86.5 -15t-86 14.5t-60 36.5t-36.5 50t-20 51t-6.5 45q-3 79 17.5 147.5t58 120t80.5 89.5t95 68q12 7 21 -6z
M270 81q54 0 84 35t30 82t-29.5 81t-84.5 34q-53 0 -83 -34t-30 -81t30 -82t83 -35z" />
    <glyph glyph-name="seven.oldstyle" horiz-adv-x="424" 
d="M268 415h-223q-6 0 -10.5 4.5t-4.5 10.5v55q0 6 4.5 10.5t10.5 4.5h328q6 0 10.5 -4.5t4.5 -10.5v-14q0 -15 -6 -29l-223 -539q-6 -14 -21 -14h-71q-5 0 -8 4.5t-1 9.5z" />
    <glyph glyph-name="eight.oldstyle" horiz-adv-x="527" 
d="M259 -5q-54 0 -94.5 17.5t-62 46t-32 58t-10.5 59.5q0 81 71 130q-34 21 -49.5 60t-15.5 72q0 27 9 54.5t29.5 56t61.5 46.5t98 18t98 -18t61 -46.5t28.5 -55.5t8.5 -55q0 -35 -15.5 -72.5t-48.5 -59.5q71 -49 71 -130q0 -30 -10.5 -59.5t-32.5 -58t-65 -46t-100 -17.5z
M265 270q-56 -1 -84.5 -33t-28.5 -61q0 -48 31.5 -75t75.5 -27q48 0 82.5 26t34.5 76q0 35 -27 64.5t-84 29.5zM368 438q0 45 -31 70t-75 25q-42 0 -73 -25t-31 -70q0 -32 25 -61.5t82 -32.5q56 3 79.5 34t23.5 60z" />
    <glyph glyph-name="nine.oldstyle" horiz-adv-x="539" 
d="M207 -110l-27 43q-9 13 5 21q125 82 169 176q-36 -24 -84 -24q-61 0 -105 20.5t-65.5 53.5t-30.5 64.5t-9 64.5q0 20 5 43.5t20 51.5t37.5 50t61 37t86.5 15t86 -14.5t60.5 -36.5t37 -49.5t20 -51.5t5.5 -45q0 -280 -251 -425q-13 -8 -21 6zM270 420q-54 0 -84 -35
t-30 -82t29.5 -81t84.5 -34q53 0 83 34t30 81t-30 82t-83 35z" />
    <glyph glyph-name="Euro.oldstyle" horiz-adv-x="547" 
d="M65 287l6 22q5 14 20 14h22q17 77 69.5 130t149.5 53q83 0 144 -50q11 -11 1 -22l-33 -39q-9 -12 -21 -3q-41 27 -91 27q-90 0 -117 -96h162q5 0 8.5 -4.5t1.5 -9.5l-6 -22q-5 -14 -20 -14h-154q-1 -10 -1 -23t1 -21h112q5 0 8.5 -4.5t1.5 -9.5l-6 -22q-5 -14 -20 -14
h-88q25 -99 117 -99q40 0 88 25q14 8 22 -4l29 -43q9 -12 -3 -21q-61 -43 -136 -43q-98 0 -150.5 53t-69.5 132h-37q-5 0 -8.5 4.5t-1.5 9.5l6 22q5 14 20 14h15q0 4 -0.5 11t-0.5 10t0.5 11t0.5 12h-31q-5 0 -8.5 4.5t-1.5 9.5z" />
    <glyph glyph-name="florin.oldstyle" horiz-adv-x="317" 
d="M-87 -79l11 45q4 15 18 11q34 -10 60 -7q29 2 47.5 18.5t18.5 47.5v166h-56q-6 0 -10.5 4.5t-4.5 10.5v55q0 6 4.5 10.5t10.5 4.5h56v65q0 75 44 114.5t127 39.5q32 0 74 -12q13 -3 10 -19l-11 -45q-2 -5 -7.5 -8t-10.5 -2q-34 10 -60 7q-29 -2 -47.5 -18.5t-18.5 -47.5
v-74h93q6 0 10.5 -4.5t4.5 -10.5v-55q0 -6 -4.5 -10.5t-10.5 -4.5h-93v-157q0 -75 -44 -114.5t-127 -39.5q-31 0 -73 11q-14 4 -11 19z" />
    <glyph glyph-name="sterling.oldstyle" horiz-adv-x="610" 
d="M99 4l-38 26q-13 9 -4 22q32 48 70 70v99h-46q-6 0 -10.5 4.5t-4.5 10.5v28q0 6 4.5 10.5t10.5 4.5h46v65q0 80 49 121.5t124 41.5q58 0 112 -22q14 -5 9 -20l-17 -47q-5 -14 -19 -9q-50 14 -81 14q-73 0 -77 -73v-71h149q6 0 10.5 -4.5t4.5 -10.5v-28q0 -6 -4.5 -10.5
t-10.5 -4.5h-149v-76q28 -4 78 -32.5t80 -28.5q44 0 90 53q10 12 20 2l37 -30q11 -11 4 -23q-60 -96 -152 -96q-39 0 -94.5 32t-81.5 32q-48 0 -88 -46q-8 -11 -21 -4z" />
    <glyph glyph-name="yen.oldstyle" horiz-adv-x="583" 
d="M136 252h105l-178 234q-3 4 -3 9t5 5h90q14 0 24 -12l113 -155l113 155q10 12 24 12h89q5 0 5 -5t-3 -9l-176 -232v-2h104q6 0 10.5 -4.5t4.5 -10.5v-28q0 -6 -4.5 -10.5t-10.5 -4.5h-104v-56h104q6 0 10.5 -4.5t4.5 -10.5v-28q0 -6 -4.5 -10.5t-10.5 -4.5h-104v-65
q0 -6 -4.5 -10.5t-10.5 -4.5h-73q-6 0 -10.5 4.5t-4.5 10.5v65h-105q-6 0 -10.5 4.5t-4.5 10.5v28q0 6 4.5 10.5t10.5 4.5h105v56h-105q-6 0 -10.5 4.5t-4.5 10.5v28q0 6 4.5 10.5t10.5 4.5z" />
    <glyph glyph-name="percent.oldstyle" horiz-adv-x="798" 
d="M328 407q0 -27 -7.5 -52t-23.5 -49.5t-46.5 -39t-71.5 -14.5t-71.5 14.5t-46.5 39t-23.5 49.5t-7.5 52q0 36 12.5 69t47.5 59.5t89 26.5t89 -26.5t47.5 -59.5t12.5 -69zM179 321q29 0 47 18t22 35t4 33t-4 33t-22 34.5t-47 17.5t-47 -17.5t-22.5 -34.5t-4.5 -33
q0 -11 3 -23.5t10 -27.5t23 -25t38 -10zM464 557h51q5 0 8.5 -4.5t1.5 -9.5l-171 -529q-5 -14 -20 -14h-51q-5 0 -8.5 4.5t-1.5 9.5l171 529q5 14 20 14zM619 308q54 0 89 -26.5t47.5 -59.5t12.5 -69q0 -27 -7.5 -52t-23.5 -49.5t-46.5 -39t-71.5 -14.5t-71.5 14.5t-46.5 39
t-23.5 49.5t-7.5 52q0 36 12.5 69t47.5 59.5t89 26.5zM619 67q29 0 47 18t22 35t4 33t-4 33t-22 34.5t-47 17.5t-47 -17.5t-22.5 -34.5t-4.5 -33q0 -11 3 -23.5t10 -27.5t23 -25t38 -10z" />
    <glyph glyph-name="commaaccent" horiz-adv-x="250" 
d="M105 -331l-16 7q-13 8 -6 20q31 66 36 95q-23 1 -38 18.5t-15 40.5q0 25 16.5 42t41.5 17q34 0 50 -19.5t16 -46.5q0 -63 -64 -168q-8 -13 -21 -6z" />
    <glyph glyph-name="a.alt" 
d="M289 -8q-62 3 -108.5 28.5t-71.5 65t-37 81t-12 83.5q0 34 7.5 68t25.5 69t44.5 61.5t70 43t96.5 16.5q89 0 151 -59l12 37q5 14 20 14h30q6 0 10.5 -4.5t4.5 -10.5v-470q0 -6 -4.5 -10.5t-10.5 -4.5h-30q-15 0 -20 14l-12 37q-57 -54 -136 -59h-30zM309 425
q-46 0 -78.5 -20.5t-46.5 -51.5t-19.5 -56t-5.5 -47t5.5 -47t19.5 -56t46.5 -51.5t78.5 -20.5q83 0 123 67v216q-40 67 -123 67z" />
    <glyph glyph-name="aogonek.alt" horiz-adv-x="604" 
d="M289 -8q-62 3 -108.5 28.5t-71.5 65t-37 81t-12 83.5q0 34 7.5 68t25.5 69t44.5 61.5t70 43t96.5 16.5q89 0 151 -59l12 37q5 14 20 14h30q6 0 10.5 -4.5t4.5 -10.5v-486q0 -10 -17.5 -44t-17.5 -55q0 -26 15 -40.5t43 -14.5q26 0 55 11q5 2 9.5 -1.5t4.5 -8.5v-34
q0 -15 -14 -21q-37 -12 -68 -12q-50 0 -83 27t-33 79q0 30 22 69.5t22 47.5v4l-15 45q-57 -54 -136 -59h-30zM309 425q-46 0 -78.5 -20.5t-46.5 -51.5t-19.5 -56t-5.5 -47t5.5 -47t19.5 -56t46.5 -51.5t78.5 -20.5q83 0 123 67v216q-40 67 -123 67z" />
    <glyph glyph-name="amacron.alt" 
d="M472 651v-40q0 -6 -4.5 -10.5t-10.5 -4.5h-271q-6 0 -10.5 4.5t-4.5 10.5v40q0 6 4.5 10.5t10.5 4.5h271q6 0 10.5 -4.5t4.5 -10.5zM487 500h30q6 0 10.5 -4.5t4.5 -10.5v-470q0 -6 -4.5 -10.5t-10.5 -4.5h-30q-15 0 -20 14l-12 37q-62 -59 -151 -59q-53 0 -96.5 16.5
t-70 43t-44.5 61.5t-25.5 69t-7.5 68t7.5 68t25.5 69t44.5 61.5t70 43t96.5 16.5q89 0 151 -59l12 37q5 14 20 14zM432 142v216q-40 67 -123 67q-46 0 -78.5 -20.5t-46.5 -51.5t-19.5 -56t-5.5 -47t5.5 -47t19.5 -56t46.5 -51.5t78.5 -20.5q83 0 123 67z" />
    <glyph glyph-name="adieresis.alt" 
d="M436 593q-26 0 -42.5 16.5t-16.5 42.5q0 25 17 42.5t42 17.5t42.5 -17.5t17.5 -42.5t-17.5 -42t-42.5 -17zM197 593q-25 0 -42 16.5t-17 42.5q0 25 17 42.5t42 17.5t42.5 -17.5t17.5 -42.5t-17.5 -42t-42.5 -17zM487 500h30q6 0 10.5 -4.5t4.5 -10.5v-470
q0 -6 -4.5 -10.5t-10.5 -4.5h-30q-15 0 -20 14l-12 37q-62 -59 -151 -59q-53 0 -96.5 16.5t-70 43t-44.5 61.5t-25.5 69t-7.5 68t7.5 68t25.5 69t44.5 61.5t70 43t96.5 16.5q89 0 151 -59l12 37q5 14 20 14zM432 142v216q-40 67 -123 67q-46 0 -78.5 -20.5t-46.5 -51.5
t-19.5 -56t-5.5 -47t5.5 -47t19.5 -56t46.5 -51.5t78.5 -20.5q83 0 123 67z" />
    <glyph glyph-name="aring.alt" 
d="M487 500h30q6 0 10.5 -4.5t4.5 -10.5v-470q0 -6 -4.5 -10.5t-10.5 -4.5h-30q-15 0 -20 14l-12 37q-62 -59 -151 -59q-53 0 -96.5 16.5t-70 43t-44.5 61.5t-25.5 69t-7.5 68t7.5 68t25.5 69t44.5 61.5t70 43t96.5 16.5q89 0 151 -59l12 37q5 14 20 14zM432 142v216
q-40 67 -123 67q-46 0 -78.5 -20.5t-46.5 -51.5t-19.5 -56t-5.5 -47t5.5 -47t19.5 -56t46.5 -51.5t78.5 -20.5q83 0 123 67zM316 587q-42 0 -72 29.5t-30 71.5t30 72t72 30t71.5 -30t29.5 -72t-29.5 -71.5t-71.5 -29.5zM316 729q-16 0 -28.5 -12.5t-12.5 -28.5t12.5 -28
t28.5 -12t28 12t12 28t-12 28.5t-28 12.5z" />
    <glyph glyph-name="agrave.alt" 
d="M487 500h30q6 0 10.5 -4.5t4.5 -10.5v-470q0 -6 -4.5 -10.5t-10.5 -4.5h-30q-15 0 -20 14l-12 37q-62 -59 -151 -59q-53 0 -96.5 16.5t-70 43t-44.5 61.5t-25.5 69t-7.5 68t7.5 68t25.5 69t44.5 61.5t70 43t96.5 16.5q89 0 151 -59l12 37q5 14 20 14zM432 142v216
q-40 67 -123 67q-46 0 -78.5 -20.5t-46.5 -51.5t-19.5 -56t-5.5 -47t5.5 -47t19.5 -56t46.5 -51.5t78.5 -20.5q83 0 123 67zM366 630l-20 -29q-8 -13 -21 -4l-138 85q-13 8 -5 20l29 43q9 11 21 3l130 -97q12 -9 4 -21z" />
    <glyph glyph-name="acircumflex.alt" 
d="M487 500h30q6 0 10.5 -4.5t4.5 -10.5v-470q0 -6 -4.5 -10.5t-10.5 -4.5h-30q-15 0 -20 14l-12 37q-62 -59 -151 -59q-53 0 -96.5 16.5t-70 43t-44.5 61.5t-25.5 69t-7.5 68t7.5 68t25.5 69t44.5 61.5t70 43t96.5 16.5q89 0 151 -59l12 37q5 14 20 14zM432 142v216
q-40 67 -123 67q-46 0 -78.5 -20.5t-46.5 -51.5t-19.5 -56t-5.5 -47t5.5 -47t19.5 -56t46.5 -51.5t78.5 -20.5q83 0 123 67zM307 660l-105 -64q-13 -9 -21 4l-20 29q-8 12 4 21l130 97q12 9 24 0l130 -97q12 -9 4 -21l-20 -29q-8 -13 -21 -4z" />
    <glyph glyph-name="aacute.alt" 
d="M379 682l-138 -85q-13 -9 -21 4l-20 29q-8 12 4 21l130 97q5 4 11 3t9 -6l29 -43q4 -4 2.5 -10.5t-6.5 -9.5zM487 500h30q6 0 10.5 -4.5t4.5 -10.5v-470q0 -6 -4.5 -10.5t-10.5 -4.5h-30q-15 0 -20 14l-12 37q-62 -59 -151 -59q-53 0 -96.5 16.5t-70 43t-44.5 61.5
t-25.5 69t-7.5 68t7.5 68t25.5 69t44.5 61.5t70 43t96.5 16.5q89 0 151 -59l12 37q5 14 20 14zM432 142v216q-40 67 -123 67q-46 0 -78.5 -20.5t-46.5 -51.5t-19.5 -56t-5.5 -47t5.5 -47t19.5 -56t46.5 -51.5t78.5 -20.5q83 0 123 67z" />
    <glyph glyph-name="atilde.alt" 
d="M258 626q-27 0 -44 -29q-7 -13 -21 -6l-26 12q-13 7 -8 21q28 76 100 76q27 0 56.5 -19.5t45.5 -19.5q25 0 44 26q9 13 21 6l31 -16q13 -7 6 -21q-36 -69 -104 -69q-23 0 -52 19.5t-49 19.5zM487 500h30q6 0 10.5 -4.5t4.5 -10.5v-470q0 -6 -4.5 -10.5t-10.5 -4.5h-30
q-15 0 -20 14l-12 37q-62 -59 -151 -59q-53 0 -96.5 16.5t-70 43t-44.5 61.5t-25.5 69t-7.5 68t7.5 68t25.5 69t44.5 61.5t70 43t96.5 16.5q89 0 151 -59l12 37q5 14 20 14zM432 142v216q-40 67 -123 67q-46 0 -78.5 -20.5t-46.5 -51.5t-19.5 -56t-5.5 -47t5.5 -47t19.5 -56
t46.5 -51.5t78.5 -20.5q83 0 123 67z" />
    <glyph glyph-name="abreve.alt" 
d="M487 500h30q6 0 10.5 -4.5t4.5 -10.5v-470q0 -6 -4.5 -10.5t-10.5 -4.5h-30q-15 0 -20 14l-12 37q-62 -59 -151 -59q-53 0 -96.5 16.5t-70 43t-44.5 61.5t-25.5 69t-7.5 68t7.5 68t25.5 69t44.5 61.5t70 43t96.5 16.5q89 0 151 -59l12 37q5 14 20 14zM432 142v216
q-40 67 -123 67q-46 0 -78.5 -20.5t-46.5 -51.5t-19.5 -56t-5.5 -47t5.5 -47t19.5 -56t46.5 -51.5t78.5 -20.5q83 0 123 67zM302 592q-46 0 -82 28t-52 76q-5 14 10 18l39 12q12 3 18 -10q19 -53 67 -53q50 0 67 52q5 15 18 11l40 -12q14 -4 10 -18q-16 -48 -52.5 -76
t-82.5 -28z" />
    <glyph glyph-name="parenleft.case" horiz-adv-x="283" 
d="M30 354q0 246 149 467q9 11 22 4l39 -25q13 -9 6 -21q-114 -213 -114 -424q0 -218 114 -431q8 -13 -6 -21l-39 -25q-13 -9 -22 4q-149 221 -149 472z" />
    <glyph glyph-name="parenright.case" horiz-adv-x="283" 
d="M253 354q0 -250 -150 -472q-8 -13 -21 -4l-39 25q-14 8 -6 21q114 213 114 431q0 211 -114 424q-7 12 6 21l39 25q13 7 22 -4q149 -223 149 -467z" />
    <glyph glyph-name="hyphen.case" horiz-adv-x="432" 
d="M95 395h242q6 0 10.5 -4.5t4.5 -10.5v-53q0 -6 -4.5 -10.5t-10.5 -4.5h-242q-6 0 -10.5 4.5t-4.5 10.5v53q0 6 4.5 10.5t10.5 4.5z" />
    <glyph glyph-name="bracketleft.case" horiz-adv-x="248" 
d="M30 -119v946q0 6 4.5 10.5t10.5 4.5h158q6 0 10.5 -4.5t4.5 -10.5v-45q0 -6 -4.5 -10.5t-10.5 -4.5h-74v-826h74q6 0 10.5 -4.5t4.5 -10.5v-45q0 -6 -4.5 -10.5t-10.5 -4.5h-158q-6 0 -10.5 4.5t-4.5 10.5z" />
    <glyph glyph-name="bracketright.case" horiz-adv-x="248" 
d="M218 827v-946q0 -6 -4.5 -10.5t-10.5 -4.5h-158q-6 0 -10.5 4.5t-4.5 10.5v45q0 6 4.5 10.5t10.5 4.5h74v826h-74q-6 0 -10.5 4.5t-4.5 10.5v45q0 6 4.5 10.5t10.5 4.5h158q6 0 10.5 -4.5t4.5 -10.5z" />
    <glyph glyph-name="braceleft.case" horiz-adv-x="302" 
d="M249 841h8q6 0 10.5 -4.5t4.5 -10.5v-45q0 -6 -4.5 -10.5t-10.5 -4.5h-4q-5 0 -10.5 -1t-15 -7t-16.5 -16.5t-12.5 -32t-5.5 -50.5v-213q0 -33 -18.5 -56t-44.5 -33v-5q26 -8 44.5 -33.5t18.5 -59.5v-211q0 -29 5.5 -50.5t12.5 -32t16.5 -16.5t15 -7t10.5 -1h4
q6 0 10.5 -4.5t4.5 -10.5v-45q0 -6 -4.5 -10.5t-10.5 -4.5h-8q-7 0 -19.5 1.5t-38 11.5t-45.5 27t-36 51.5t-16 81.5v211q0 30 -14.5 47.5t-34.5 21.5q-15 4 -15 16v35q0 12 15 16q20 4 34.5 21.5t14.5 47.5v213q0 47 16 81.5t36 51.5t45.5 27t38 11.5t19.5 1.5z" />
    <glyph glyph-name="bar.case" horiz-adv-x="189" 
d="M114 -134h-39q-6 0 -10.5 4.5t-4.5 10.5v943q0 6 4.5 10.5t10.5 4.5h39q6 0 10.5 -4.5t4.5 -10.5v-943q0 -6 -4.5 -10.5t-10.5 -4.5z" />
    <glyph glyph-name="braceright.case" horiz-adv-x="302" 
d="M53 841q7 0 19.5 -1.5t38 -11.5t45.5 -27t36 -51.5t16 -81.5v-213q0 -30 14.5 -47.5t34.5 -21.5q15 -4 15 -16v-35q0 -12 -15 -16q-20 -4 -34.5 -21.5t-14.5 -47.5v-211q0 -47 -16 -81.5t-36 -51.5t-45.5 -27t-38 -11.5t-19.5 -1.5h-8q-6 0 -10.5 4.5t-4.5 10.5v45
q0 6 4.5 10.5t10.5 4.5h4q5 0 10.5 1t15 7t16.5 16.5t12.5 32t5.5 50.5v211q0 34 18.5 59.5t44.5 33.5v5q-26 10 -44.5 33t-18.5 56v213q0 29 -5.5 50.5t-12.5 32t-16.5 16.5t-15 7t-10.5 1h-4q-6 0 -10.5 4.5t-4.5 10.5v45q0 6 4.5 10.5t10.5 4.5h8z" />
    <glyph glyph-name="guilsinglleft.case" horiz-adv-x="283" 
d="M125 349l118 -140q10 -10 -1 -21l-26 -23q-11 -11 -21 1l-159 167q-6 7 -6 16t6 15l159 168q10 12 21 1l26 -23q11 -11 1 -21z" />
    <glyph glyph-name="guilsinglright.case" horiz-adv-x="283" 
d="M40 209l118 140l-118 140q-10 10 1 21l26 23q11 11 21 -1l159 -168q6 -6 6 -15t-6 -16l-159 -167q-10 -12 -21 -1l-26 23q-11 11 -1 21z" />
    <glyph glyph-name="guillemotleft.case" horiz-adv-x="471" 
d="M125 349l118 -140q10 -10 -1 -21l-26 -23q-11 -11 -21 1l-159 167q-6 7 -6 16t6 15l159 168q10 12 21 1l26 -23q11 -11 1 -21zM313 349l118 -140q10 -10 -1 -21l-26 -23q-11 -11 -21 1l-159 167q-6 7 -6 16t6 15l159 168q10 12 21 1l26 -23q11 -11 1 -21z" />
    <glyph glyph-name="guillemotright.case" horiz-adv-x="471" 
d="M228 209l118 140l-118 140q-10 10 1 21l26 23q11 11 21 -1l159 -168q6 -6 6 -15t-6 -16l-159 -167q-10 -12 -21 -1l-26 23q-11 11 -1 21zM40 209l118 140l-118 140q-10 10 1 21l26 23q11 11 21 -1l159 -168q6 -6 6 -15t-6 -16l-159 -167q-10 -12 -21 -1l-26 23
q-11 11 -1 21z" />
    <glyph glyph-name="endash.case" horiz-adv-x="550" 
d="M455 342h-360q-6 0 -10.5 4.5t-4.5 10.5v45q0 6 4.5 10.5t10.5 4.5h360q6 0 10.5 -4.5t4.5 -10.5v-45q0 -6 -4.5 -10.5t-10.5 -4.5z" />
    <glyph glyph-name="emdash.case" horiz-adv-x="672" 
d="M577 342h-482q-6 0 -10.5 4.5t-4.5 10.5v45q0 6 4.5 10.5t10.5 4.5h482q6 0 10.5 -4.5t4.5 -10.5v-45q0 -6 -4.5 -10.5t-10.5 -4.5z" />
    <glyph glyph-name="bullet.case" horiz-adv-x="398" 
d="M197 237q-47 0 -82 35t-35 82q0 49 35 85t82 36q49 0 85 -36t36 -85q0 -47 -36 -82t-85 -35z" />
    <glyph glyph-name="periodcentered.case" horiz-adv-x="251" 
d="M60 365q0 28 18.5 46.5t46.5 18.5q27 0 46.5 -19t19.5 -46t-19.5 -46.5t-46.5 -19.5t-46 19.5t-19 46.5z" />
    <glyph glyph-name="brokenbar.case" horiz-adv-x="189" 
d="M129 231v-351q0 -6 -4.5 -10.5t-10.5 -4.5h-39q-6 0 -10.5 4.5t-4.5 10.5v351q0 6 4.5 10.5t10.5 4.5h39q6 0 10.5 -4.5t4.5 -10.5zM129 823v-351q0 -6 -4.5 -10.5t-10.5 -4.5h-39q-6 0 -10.5 4.5t-4.5 10.5v351q0 6 4.5 10.5t10.5 4.5h39q6 0 10.5 -4.5t4.5 -10.5z" />
    <glyph glyph-name="zero.denom" horiz-adv-x="312" 
d="M156 326q34 0 60 -15.5t39.5 -41t20 -52.5t6.5 -54q0 -39 -10.5 -73.5t-40.5 -62t-75 -27.5t-75 27.5t-40.5 62t-10.5 73.5q0 27 6.5 54t20 52.5t39.5 41t60 15.5zM156 52q20 0 34 13t20.5 32.5t9 35.5t2.5 30q0 20 -4 42t-20 45.5t-42 23.5t-42 -23.5t-20 -45.5t-4 -42
q0 -14 2.5 -30t9 -35.5t20.5 -32.5t34 -13z" />
    <glyph glyph-name="one.denom" horiz-adv-x="206" 
d="M156 311v-296q0 -6 -4.5 -10.5t-10.5 -4.5h-31q-6 0 -10.5 4.5t-4.5 10.5v215l-35 -20q-13 -9 -21 5l-11 17q-9 13 4 22l89 63q11 7 22 7q13 0 13 -13z" />
    <glyph glyph-name="two.denom" horiz-adv-x="262" 
d="M49 244l-16 16q-10 12 0 22q47 44 99 44q46 0 73 -27.5t27 -67.5q0 -43 -39 -89l-73 -86h89q6 0 10.5 -4.5t4.5 -10.5v-26q0 -6 -4.5 -10.5t-10.5 -4.5h-177q-4 0 -8 4t-4 8q0 12 8 23l120 143q26 32 26 57q0 15 -9.5 26.5t-31.5 11.5q-27 0 -62 -30q-11 -11 -22 1z" />
    <glyph glyph-name="three.denom" horiz-adv-x="258" 
d="M228 234q0 -45 -32 -73q32 -27 32 -72q0 -36 -25 -66t-83 -30q-49 0 -89 34q-12 10 -1 21l12 13q9 11 21 1q30 -21 57 -21q23 0 38.5 12.5t15.5 35.5t-15.5 36t-38.5 13h-28q-6 0 -10.5 4.5t-4.5 10.5v17q0 6 4.5 10.5t10.5 4.5h28q23 0 38.5 13t15.5 36t-16 35.5
t-38 12.5q-27 0 -56 -22q-14 -8 -22 2l-12 13q-9 11 1 21q43 34 89 34q58 0 83 -30.5t25 -65.5z" />
    <glyph glyph-name="four.denom" horiz-adv-x="283" 
d="M214 63v-48q0 -6 -4.5 -10.5t-10.5 -4.5h-31q-6 0 -10.5 4.5t-4.5 10.5v48h-118q-6 0 -10.5 4.5t-4.5 10.5v5q0 14 8 28l129 199q8 13 23 13h19q6 0 10.5 -4.5t4.5 -10.5v-189h34q6 0 10.5 -4.5t4.5 -10.5v-26q0 -6 -4.5 -10.5t-10.5 -4.5h-34zM153 203l-54 -84h54v84z
" />
    <glyph glyph-name="five.denom" horiz-adv-x="274" 
d="M41 56l17 17q10 8 21 -1q24 -24 51 -24q25 0 39.5 16.5t14.5 38.5t-14.5 38t-40.5 16h-62q-6 0 -10.5 4.5t-4.5 10.5v135q0 6 4.5 10.5t10.5 4.5h139q6 0 10.5 -4.5t4.5 -10.5v-24q0 -6 -4.5 -10.5t-10.5 -4.5h-93v-58h16q62 0 88.5 -34t26.5 -76q0 -36 -27.5 -71
t-87.5 -35q-54 0 -89 40q-10 11 1 22z" />
    <glyph glyph-name="six.denom" horiz-adv-x="286" 
d="M182 318l12 -19q4 -5 2.5 -11t-6.5 -9q-55 -36 -79 -75q12 7 32 7q62 0 87.5 -34.5t25.5 -76.5q0 -21 -8 -43t-35 -43t-70 -21q-32 0 -56 11.5t-35 29.5t-16 34.5t-5 31.5q-2 143 129 222q13 9 22 -4zM143 48q25 0 39.5 16.5t14.5 38.5t-14 38t-40 16q-25 0 -38.5 -15.5
t-14.5 -38.5q0 -22 14 -38.5t39 -16.5z" />
    <glyph glyph-name="seven.denom" horiz-adv-x="242" 
d="M20 284v24q0 6 4.5 10.5t10.5 4.5h172q12 0 12 -12q0 -11 -5 -23l-112 -274q-6 -14 -21 -14h-33q-5 0 -8 4.5t-1 9.5l104 255h-108q-6 0 -10.5 4.5t-4.5 10.5z" />
    <glyph glyph-name="eight.denom" horiz-adv-x="270" 
d="M204 159q36 -27 36 -74q0 -34 -24 -63.5t-81 -29.5t-81 29.5t-24 63.5q0 47 36 74q-36 27 -36 74q0 34 24 63.5t81 29.5t81 -29.5t24 -63.5q0 -47 -36 -74zM135 42q19 0 33 11.5t14 31.5q0 21 -14 32.5t-33 11.5t-33 -11.5t-14 -32.5q0 -20 14 -31.5t33 -11.5zM135 189
q19 0 33 11.5t14 32.5q0 20 -14 31.5t-33 11.5t-33 -11.5t-14 -31.5q0 -21 14 -32.5t33 -11.5z" />
    <glyph glyph-name="nine.denom" horiz-adv-x="286" 
d="M104 1l-12 19q-9 11 4 20q52 34 79 75q-12 -7 -32 -7q-62 0 -87.5 34.5t-25.5 76.5q0 21 8 43t35 43t70 21q32 0 56 -11.5t35 -29.5t16 -34.5t5 -31.5q2 -143 -129 -222q-13 -9 -22 4zM143 271q-25 0 -39.5 -16.5t-14.5 -38.5t14 -38t40 -16q25 0 38.5 15.5t14.5 38.5
q0 22 -14 38.5t-39 16.5z" />
    <glyph glyph-name="zero.num" horiz-adv-x="312" 
d="M156 703q34 0 60 -15.5t39.5 -41t20 -52.5t6.5 -54q0 -39 -10.5 -73.5t-40.5 -62t-75 -27.5t-75 27.5t-40.5 62t-10.5 73.5q0 27 6.5 54t20 52.5t39.5 41t60 15.5zM156 429q20 0 34 13t20.5 32.5t9 35.5t2.5 30q0 20 -4 42t-20 45.5t-42 23.5t-42 -23.5t-20 -45.5t-4 -42
q0 -14 2.5 -30t9 -35.5t20.5 -32.5t34 -13z" />
    <glyph glyph-name="one.num" horiz-adv-x="206" 
d="M156 687v-296q0 -6 -4.5 -10.5t-10.5 -4.5h-31q-6 0 -10.5 4.5t-4.5 10.5v215l-35 -20q-13 -9 -21 5l-11 17q-9 13 4 22l89 63q10 7 22 7q13 0 13 -13z" />
    <glyph glyph-name="two.num" horiz-adv-x="262" 
d="M49 621l-16 16q-10 12 0 22q47 44 99 44q46 0 73 -27.5t27 -67.5q0 -43 -39 -89l-73 -86h89q6 0 10.5 -4.5t4.5 -10.5v-26q0 -6 -4.5 -10.5t-10.5 -4.5h-177q-4 0 -8 3.5t-4 8.5q0 12 8 23l120 143q26 32 26 57q0 15 -9.5 26.5t-31.5 11.5q-27 0 -62 -30q-11 -10 -22 1z
" />
    <glyph glyph-name="three.num" horiz-adv-x="258" 
d="M228 608q0 -45 -32 -73q32 -27 32 -72q0 -36 -25 -66t-83 -30q-49 0 -89 34q-12 10 -1 21l12 13q9 11 21 1q30 -21 57 -21q23 0 38.5 12.5t15.5 35.5t-15.5 36t-38.5 13h-28q-6 0 -10.5 4.5t-4.5 10.5v17q0 6 4.5 10.5t10.5 4.5h28q23 0 38.5 13t15.5 36t-16 35.5
t-38 12.5q-27 0 -56 -22q-14 -8 -22 2l-12 13q-9 11 1 21q42 34 89 34q58 0 83 -30.5t25 -65.5z" />
    <glyph glyph-name="four.num" horiz-adv-x="283" 
d="M214 440v-48q0 -6 -4.5 -10.5t-10.5 -4.5h-31q-6 0 -10.5 4.5t-4.5 10.5v48h-118q-6 0 -10.5 4.5t-4.5 10.5v5q0 14 8 28l129 199q8 13 23 13h19q6 0 10.5 -4.5t4.5 -10.5v-189h34q6 0 10.5 -4.5t4.5 -10.5v-26q0 -6 -4.5 -10.5t-10.5 -4.5h-34zM153 580l-54 -84h54v84z
" />
    <glyph glyph-name="five.num" horiz-adv-x="274" 
d="M41 436l17 17q10 8 21 -1q24 -24 51 -24q25 0 39.5 16.5t14.5 38.5t-14.5 38t-40.5 16h-62q-6 0 -10.5 4.5t-4.5 10.5v133q0 6 4.5 10.5t10.5 4.5h139q6 0 10.5 -4.5t4.5 -10.5v-24q0 -6 -4.5 -10.5t-10.5 -4.5h-93v-56h16q62 0 88.5 -34t26.5 -76q0 -36 -27.5 -71
t-87.5 -35q-54 0 -89 40q-10 11 1 22z" />
    <glyph glyph-name="six.num" horiz-adv-x="286" 
d="M182 695l12 -19q4 -4 2.5 -10.5t-6.5 -9.5q-55 -36 -79 -75q12 7 32 7q62 0 87.5 -34.5t25.5 -76.5q0 -21 -8 -43t-35 -43t-70 -21q-32 0 -56 11.5t-35 29.5t-16 34.5t-5 31.5q-2 143 129 222q13 9 22 -4zM143 425q25 0 39.5 16.5t14.5 38.5t-14 38t-40 16
q-25 0 -38.5 -15.5t-14.5 -38.5q0 -22 14 -38.5t39 -16.5z" />
    <glyph glyph-name="seven.num" horiz-adv-x="242" 
d="M20 661v24q0 6 4.5 10.5t10.5 4.5h168q14 0 14 -14q0 -12 -5 -27l-110 -268q-6 -14 -21 -14h-33q-5 0 -8 4.5t-1 9.5l104 255h-108q-6 0 -10.5 4.5t-4.5 10.5z" />
    <glyph glyph-name="eight.num" horiz-adv-x="274" 
d="M204 539q36 -27 36 -74q0 -34 -24 -63.5t-81 -29.5t-81 29.5t-24 63.5q0 47 36 74q-36 27 -36 74q0 34 24 63.5t81 29.5t81 -29.5t24 -63.5q0 -47 -36 -74zM135 422q19 0 33 11.5t14 31.5q0 21 -14 32.5t-33 11.5t-33 -11.5t-14 -32.5q0 -20 14 -31.5t33 -11.5zM135 569
q19 0 33 11.5t14 32.5q0 20 -14 31.5t-33 11.5t-33 -11.5t-14 -31.5q0 -21 14 -32.5t33 -11.5z" />
    <glyph glyph-name="nine.num" horiz-adv-x="286" 
d="M104 378l-12 19q-9 11 4 20q52 34 79 75q-12 -7 -32 -7q-62 0 -87.5 34.5t-25.5 76.5q0 21 8 43t35 43t70 21q32 0 56 -11.5t35 -29.5t16 -34.5t5 -31.5q2 -143 -129 -222q-13 -9 -22 4zM143 648q-25 0 -39.5 -16.5t-14.5 -38.5t14 -38t40 -16q25 0 38.5 15.5t14.5 38.5
q0 22 -14 38.5t-39 16.5z" />
    <glyph glyph-name="numbersign.oldstyle" horiz-adv-x="572" 
d="M75 388h73v97q0 6 4.5 10.5t10.5 4.5h45q6 0 10.5 -4.5t4.5 -10.5v-97h125v97q0 6 4.5 10.5t10.5 4.5h45q6 0 10.5 -4.5t4.5 -10.5v-97h74q6 0 10.5 -4.5t4.5 -10.5v-45q0 -6 -4.5 -10.5t-10.5 -4.5h-74v-125h74q6 0 10.5 -4.5t4.5 -10.5v-45q0 -6 -4.5 -10.5t-10.5 -4.5
h-74v-98q0 -6 -4.5 -10.5t-10.5 -4.5h-45q-6 0 -10.5 4.5t-4.5 10.5v98h-125v-98q0 -6 -4.5 -10.5t-10.5 -4.5h-45q-6 0 -10.5 4.5t-4.5 10.5v98h-73q-6 0 -10.5 4.5t-4.5 10.5v45q0 6 4.5 10.5t10.5 4.5h73v125h-73q-6 0 -10.5 4.5t-4.5 10.5v45q0 6 4.5 10.5t10.5 4.5z
M223 313v-125h125v125h-125z" />
    <glyph glyph-name="dollar.oldstyle" horiz-adv-x="492" 
d="M255 -91h-29q-6 0 -10.5 4.5t-4.5 10.5v70q-71 5 -138 41q-12 7 -7 21l23 46q6 15 19 7q53 -26 103 -32v143q-33 10 -53 19t-44 25t-35 41.5t-11 59.5q1 62 39.5 99.5t103.5 42.5v63q0 6 4.5 10.5t10.5 4.5h29q6 0 10.5 -4.5t4.5 -10.5v-65q68 -8 126 -36q14 -5 8 -20
l-23 -48q-5 -14 -20 -8q-53 21 -91 26v-123q36 -12 58 -21.5t49.5 -27.5t41 -46t13.5 -66q0 -60 -45 -98.5t-117 -43.5v-69q0 -6 -4.5 -10.5t-10.5 -4.5zM327 149q-8 31 -57 51v-123q46 10 57 42q5 15 0 30zM163 369q0 -32 48 -52v100q-47 -10 -48 -48z" />
    <glyph glyph-name="zero.ftd" horiz-adv-x="678" 
d="M339 680q57 0 103 -22.5t74.5 -57.5t47.5 -81.5t26.5 -91t7.5 -89.5q0 -46 -7.5 -91t-26.5 -91.5t-47.5 -81.5t-74.5 -57t-103 -22t-103 22t-74.5 57t-47.5 81.5t-26.5 91.5t-7.5 91q0 45 7.5 89.5t26.5 91t47.5 81.5t74.5 57.5t103 22.5zM339 77q49 0 84 30.5t50 77
t21 84t6 69.5q0 24 -3 52.5t-13.5 67t-27 68.5t-47 51t-70.5 21t-70.5 -21t-47 -51t-27 -68.5t-13.5 -67t-3 -52.5q0 -32 6 -69.5t21 -84t50 -77t84 -30.5z" />
    <glyph glyph-name="one.ftd" horiz-adv-x="500" 
d="M86 15v55q0 6 4.5 10.5t10.5 4.5h116v433l-101 -62q-13 -9 -21 4l-27 39q-8 14 4 22l191 146q12 9 27 9h12q6 0 10.5 -4.5t4.5 -10.5v-576h108q6 0 10.5 -4.5t4.5 -10.5v-55q0 -6 -4.5 -10.5t-10.5 -4.5h-324q-6 0 -10.5 4.5t-4.5 10.5z" />
    <glyph glyph-name="two.ftd" horiz-adv-x="574" 
d="M111 533l-37 37q-11 11 0 22q92 93 205 93q97 0 154.5 -54.5t49.5 -156.5q-5 -66 -83 -166l-175 -218h224q6 0 10.5 -4.5t4.5 -10.5v-60q0 -6 -4.5 -10.5t-10.5 -4.5h-365q-6 0 -10.5 4.5t-4.5 10.5v2q0 15 9 27l250 320q54 63 59 114q9 48 -15.5 86t-91.5 38
q-72 0 -148 -70q-12 -10 -21 1z" />
    <glyph glyph-name="three.ftd" horiz-adv-x="556" 
d="M401 337q40 -29 57.5 -71t17.5 -83q0 -30 -10 -60.5t-32 -62t-67.5 -51t-108.5 -19.5q-104 0 -187 72q-12 10 -1 21l32 39q10 10 21 1q68 -53 135 -53q52 0 88 29.5t36 83.5q0 55 -36 84.5t-88 29.5h-67q-6 0 -10.5 4.5t-4.5 10.5v50q0 6 4.5 10.5t10.5 4.5h67
q52 0 88 29.5t36 84.5q0 54 -36 83.5t-88 29.5q-67 0 -135 -53q-11 -9 -21 1l-32 39q-10 10 1 21q83 72 187 72q63 0 108.5 -19.5t67.5 -51t32 -62t10 -60.5q0 -41 -17.5 -83t-57.5 -71z" />
    </font>
</defs>
</svg>
