<?xml version="1.0" standalone="no"?>
<!DOCTYPE svg PUBLIC "-//W3C//DTD SVG 1.1//EN" "http://www.w3.org/Graphics/SVG/1.1/DTD/svg11.dtd" >
<svg xmlns="http://www.w3.org/2000/svg" xmlns:xlink="http://www.w3.org/1999/xlink" version="1.1">
<metadata>
Created by FontForge 20170731 at Tue Dec  2 23:21:02 2014
 By Aleksey,,,
Copyright (c) 2013 by Ahmet Altun. All rights reserved.
</metadata>
<defs>
<font id="HalisR-Bold" horiz-adv-x="585" >
  <font-face 
    font-family="Halis R Bold"
    font-weight="700"
    font-stretch="normal"
    units-per-em="1000"
    panose-1="2 0 5 5 3 0 0 2 0 4"
    ascent="800"
    descent="-200"
    x-height="500"
    cap-height="700"
    bbox="-183.8 -337.471 1213 994"
    underline-thickness="50"
    underline-position="-230"
    unicode-range="U+0020-FB04"
  />
<missing-glyph horiz-adv-x="490" 
d="M210 209q0 -12 9 -21t22 -9q12 0 20.5 9t8.5 21t-8.5 20t-20.5 8q-13 0 -22 -8t-9 -20zM262 267v28q0 13 18 33.5t36.5 47t18.5 54.5q0 39 -24.5 60.5t-62.5 21.5q-55 0 -104 -52l29 -28q35 37 65 38q47 2 47 -41q0 -29 -34 -67t-34 -65v-30h45zM460 633v-566
q0 -7 -5 -12t-12 -5h-396q-7 0 -12 5t-5 12v566q0 7 5 12t12 5h396q7 0 12 -5t5 -12z" />
    <glyph glyph-name="f_f" unicode="ff" horiz-adv-x="670" 
d="M674 656l-28 -77q-7 -14 -21 -9q-52 16 -81 16q-22 0 -37 -12.5t-15 -40.5v-33h77q16 0 16 -16v-85q0 -16 -16 -16h-77v-367q0 -16 -16 -16h-104q-16 0 -16 16v367h-158v-367q0 -16 -16 -16h-104q-16 0 -16 16v367h-36q-16 0 -16 16v85q0 16 16 16h36v37q0 87 50 128.5
t129 41.5q78 0 166 -43q49 43 129 43q62 0 129 -29q16 -7 9 -22zM198 541v-41h158v37q0 19 3 37q-48 26 -89 26q-72 0 -72 -59z" />
    <glyph glyph-name="fi" unicode="fi" horiz-adv-x="590" 
d="M510 484v-468q0 -16 -16 -16h-104q-16 0 -16 16v367h-176v-367q0 -16 -16 -16h-104q-16 0 -16 16v367h-36q-16 0 -16 16v85q0 16 16 16h36v37q0 83 50.5 126.5t129.5 43.5q62 0 129 -29q16 -7 9 -22l-28 -77q-7 -14 -21 -9q-52 16 -81 16q-22 0 -37 -12.5t-15 -40.5v-33
h296q16 0 16 -16z" />
    <glyph glyph-name="fl" unicode="fl" horiz-adv-x="598" 
d="M518 684v-668q0 -16 -16 -16h-103q-16 0 -16 16v523q-12 24 -47.5 41.5t-71.5 17.5q-66 0 -66 -57v-41h90q16 0 16 -16v-85q0 -16 -16 -16h-90v-367q0 -16 -16 -16h-104q-16 0 -16 16v367h-36q-16 0 -16 16v85q0 16 16 16h36v37q0 85 49 128.5t122 43.5q96 0 173 -63
l10 38q3 16 20 16h66q16 0 16 -16z" />
    <glyph glyph-name="f_f_i" unicode="ffi" horiz-adv-x="881" 
d="M674 656l-28 -77q-7 -14 -21 -9q-52 16 -81 16q-22 0 -37 -12.5t-15 -40.5v-33h293q16 0 16 -16v-468q0 -16 -16 -16h-104q-16 0 -16 16v367h-173v-367q0 -16 -16 -16h-104q-16 0 -16 16v367h-158v-367q0 -16 -16 -16h-104q-16 0 -16 16v367h-36q-16 0 -16 16v85
q0 16 16 16h36v37q0 87 50 128.5t129 41.5q78 0 166 -43q49 43 129 43q62 0 129 -29q16 -7 9 -22zM198 541v-41h158v37q0 19 3 37q-48 26 -89 26q-72 0 -72 -59z" />
    <glyph glyph-name="f_f_l" unicode="ffl" horiz-adv-x="892" 
d="M198 383v-367q0 -16 -16 -16h-104q-16 0 -16 16v367h-36q-16 0 -16 16v85q0 16 16 16h36v37q0 87 50 128.5t129 41.5q75 0 164 -42q45 44 122 44q96 0 173 -63l10 38q3 16 20 16h66q16 0 16 -16v-668q0 -16 -16 -16h-103q-16 0 -16 16v523q-12 24 -47.5 41.5t-71.5 17.5
q-66 0 -66 -57v-41h99q16 0 16 -16v-85q0 -16 -16 -16h-99v-367q0 -16 -16 -16h-104q-16 0 -16 16v367h-158zM198 541v-41h158v37q0 19 3 37q-44 26 -89 26q-72 0 -72 -59z" />
    <glyph glyph-name="f_h" unicode="fh" horiz-adv-x="886" 
d="M518 684v-202q43 26 95 26q55 0 95.5 -15t62.5 -38t35 -58.5t16.5 -66.5t3.5 -72v-242q0 -16 -16 -16h-103q-16 0 -16 16v242q0 59 -18.5 94t-76.5 34q-53 -2 -79 -38v-332q0 -16 -16 -16h-102q-16 0 -16 16v523q-12 24 -47.5 41.5t-71.5 17.5q-66 0 -66 -57v-41h83
q16 0 16 -16v-85q0 -16 -16 -16h-83v-367q0 -16 -16 -16h-104q-16 0 -16 16v367h-36q-16 0 -16 16v85q0 16 16 16h36v37q0 85 49 128.5t122 43.5q96 0 173 -63l10 38q3 16 20 16h66q16 0 16 -16z" />
    <glyph glyph-name="f_j" unicode="fj" horiz-adv-x="595" 
d="M515 484v-497q0 -18 -2 -36.5t-12.5 -48t-28 -51t-52.5 -38t-83 -16.5q-81 0 -145 49q-13 9 -3 23l39 61q9 12 23 5q40 -20 70 -20q58 0 58 75v393h-181v-367q0 -16 -16 -16h-104q-16 0 -16 16v367h-36q-16 0 -16 16v85q0 16 16 16h36v37q0 83 50.5 126.5t129.5 43.5
q62 0 129 -29q16 -7 9 -22l-28 -77q-7 -14 -21 -9q-52 16 -81 16q-22 0 -37 -12.5t-15 -40.5v-33h301q16 0 16 -16z" />
    <glyph glyph-name="f_k" unicode="fk" horiz-adv-x="903" 
d="M712 12l-194 212v-208q0 -16 -16 -16h-103q-16 0 -16 16v523q-12 24 -47.5 41.5t-71.5 17.5q-66 0 -66 -57v-41h83q16 0 16 -16v-85q0 -16 -16 -16h-83v-367q0 -16 -16 -16h-104q-16 0 -16 16v367h-36q-16 0 -16 16v85q0 16 16 16h36v37q0 85 49 128.5t122 43.5
q96 0 173 -63l10 38q3 16 20 16h66q16 0 16 -16v-399l180 203q10 12 27 12h121q5 0 6.5 -4t-1.5 -8l-201 -228l217 -248q4 -4 2 -8t-7 -4h-123q-17 0 -27 12z" />
    <glyph glyph-name="f_b" unicode="fb" horiz-adv-x="917" 
d="M518 684v-192q37 17 90 17q58 0 103 -16.5t72 -42.5t44 -61.5t23.5 -69t6.5 -69.5q0 -44 -12 -86.5t-37.5 -82.5t-74.5 -65t-115 -25q-32 0 -71 12.5t-60 31.5l-6 -20q-5 -15 -21 -15h-61q-16 0 -16 16v522q-11 24 -47 42t-72 18q-29 0 -47.5 -14.5t-18.5 -43.5v-41h83
q16 0 16 -16v-85q0 -16 -16 -16h-83v-367q0 -16 -16 -16h-104q-16 0 -16 16v367h-36q-16 0 -16 16v85q0 16 16 16h36v37q0 85 49 128.5t122 43.5q96 0 173 -63l10 39q3 16 20 16h66q16 0 16 -16zM608 113q36 0 61 15t35.5 39t14.5 43.5t4 39.5q0 23 -4.5 43t-16 43.5
t-38 37.5t-64.5 14q-45 0 -82 -24v-212q11 -15 36 -27t54 -12z" />
    <glyph glyph-name="f_f_b" unicode="ffb" horiz-adv-x="1211" 
d="M902 509q58 0 103 -16.5t72 -42.5t44 -61.5t23.5 -69t6.5 -69.5q0 -44 -12 -86.5t-37.5 -82.5t-74.5 -65t-115 -25q-32 0 -71 12.5t-60 31.5l-6 -20q-5 -15 -21 -15h-61q-16 0 -16 16v523q-12 24 -47.5 41.5t-71.5 17.5q-66 0 -66 -57v-41h99q16 0 16 -16v-85
q0 -16 -16 -16h-99v-367q0 -16 -16 -16h-104q-16 0 -16 16v367h-158v-367q0 -16 -16 -16h-104q-16 0 -16 16v367h-36q-16 0 -16 16v85q0 16 16 16h36v37q0 87 50 128.5t129 41.5q75 0 164 -42q45 44 122 44q96 0 173 -63l10 38q3 16 20 16h66q16 0 16 -16v-192q37 17 90 17z
M356 537q0 19 3 37q-44 26 -89 26q-72 0 -72 -59v-41h158v37zM902 113q36 0 61 15t35.5 39t14.5 43.5t4 39.5q0 23 -4.5 43t-16 43.5t-38 37.5t-64.5 14q-45 0 -82 -24v-212q11 -15 36 -27t54 -12z" />
    <glyph glyph-name="f_f_h" unicode="ffh" horiz-adv-x="1181" 
d="M198 383v-367q0 -16 -16 -16h-104q-16 0 -16 16v367h-36q-16 0 -16 16v85q0 16 16 16h36v37q0 87 50 128.5t129 41.5q75 0 164 -42q45 44 122 44q96 0 173 -63l10 38q3 16 20 16h66q16 0 16 -16v-202q43 26 96 26q55 0 95.5 -15t62.5 -38t35 -58.5t16.5 -66.5t3.5 -72
v-242q0 -16 -16 -16h-103q-16 0 -16 16v242q0 59 -18.5 94t-76.5 34q-53 -2 -79 -38v-332q0 -16 -16 -16h-103q-16 0 -16 16v523q-12 24 -47.5 41.5t-71.5 17.5q-66 0 -66 -57v-41h99q16 0 16 -16v-85q0 -16 -16 -16h-99v-367q0 -16 -16 -16h-104q-16 0 -16 16v367h-158z
M198 541v-41h158v37q0 19 3 37q-44 26 -89 26q-72 0 -72 -59z" />
    <glyph glyph-name="f_f_j" unicode="ffj" horiz-adv-x="881" 
d="M674 656l-28 -77q-7 -14 -21 -9q-52 16 -81 16q-22 0 -37 -12.5t-15 -40.5v-33h293q16 0 16 -16v-497q0 -18 -2 -36.5t-12.5 -48t-28 -51t-52.5 -38t-83 -16.5q-81 0 -145 49q-13 9 -3 23l39 61q9 12 23 5q40 -20 70 -20q58 0 58 75v393h-173v-367q0 -16 -16 -16h-104
q-16 0 -16 16v367h-158v-367q0 -16 -16 -16h-104q-16 0 -16 16v367h-36q-16 0 -16 16v85q0 16 16 16h36v37q0 87 50 128.5t129 41.5q78 0 166 -43q49 43 129 43q62 0 129 -29q16 -7 9 -22zM198 541v-41h158v37q0 19 3 37q-48 26 -89 26q-72 0 -72 -59z" />
    <glyph glyph-name="f_f_k" unicode="ffk" horiz-adv-x="1198" 
d="M198 383v-367q0 -16 -16 -16h-104q-16 0 -16 16v367h-36q-16 0 -16 16v85q0 16 16 16h36v37q0 87 50 128.5t129 41.5q75 0 164 -42q45 44 122 44q96 0 173 -63l10 38q3 16 20 16h66q16 0 16 -16v-399l180 203q10 12 27 12h124q5 0 6.5 -4t-1.5 -8l-204 -228l223 -248
q3 -4 1.5 -8t-6.5 -4h-129q-17 0 -27 12l-194 212v-208q0 -16 -16 -16h-103q-16 0 -16 16v523q-12 24 -47.5 41.5t-71.5 17.5q-66 0 -66 -57v-41h99q16 0 16 -16v-85q0 -16 -16 -16h-99v-367q0 -16 -16 -16h-104q-16 0 -16 16v367h-158zM198 541v-41h158v37q0 19 3 37
q-44 26 -89 26q-72 0 -72 -59z" />
    <glyph glyph-name=".notdef" horiz-adv-x="490" 
d="M210 209q0 -12 9 -21t22 -9q12 0 20.5 9t8.5 21t-8.5 20t-20.5 8q-13 0 -22 -8t-9 -20zM262 267v28q0 13 18 33.5t36.5 47t18.5 54.5q0 39 -24.5 60.5t-62.5 21.5q-55 0 -104 -52l29 -28q35 37 65 38q47 2 47 -41q0 -29 -34 -67t-34 -65v-30h45zM460 633v-566
q0 -7 -5 -12t-12 -5h-396q-7 0 -12 5t-5 12v566q0 7 5 12t12 5h396q7 0 12 -5t5 -12z" />
    <glyph glyph-name=".null" horiz-adv-x="0" 
 />
    <glyph glyph-name="nonmarkingreturn" horiz-adv-x="333" 
 />
    <glyph glyph-name="space" unicode=" " horiz-adv-x="300" 
 />
    <glyph glyph-name="exclam" unicode="!" horiz-adv-x="352" 
d="M100 69q0 33 21.5 55t54.5 22q32 0 54 -22t22 -55q0 -32 -22 -54.5t-54 -22.5q-33 0 -54.5 22.5t-21.5 54.5zM245 684v-264l-18 -195q0 -17 -18 -17h-64q-17 0 -19 17l-17 195v264q0 7 5 12t12 5h102q7 0 12 -5t5 -12z" />
    <glyph glyph-name="quotedbl" unicode="&#x22;" horiz-adv-x="430" 
d="M388 685l-20 -221q-2 -17 -19 -17h-58q-17 0 -19 17l-20 221q-1 7 3.5 12t11.5 5h106q7 0 11.5 -5t3.5 -12zM178 685l-20 -221q-2 -17 -19 -17h-58q-17 0 -19 17l-20 221q-1 7 3.5 12t11.5 5h106q7 0 11.5 -5t3.5 -12z" />
    <glyph glyph-name="numbersign" unicode="#" horiz-adv-x="575" 
d="M77 397h63v86q0 7 5 12t12 5h77q7 0 12 -5t5 -12v-86h73v86q0 7 5 12t12 5h77q7 0 12 -5t5 -12v-86h63q7 0 12 -5t5 -12v-76q0 -7 -5 -12t-12 -5h-63v-74h63q7 0 12 -5t5 -12v-75q0 -7 -5 -12t-12 -5h-63v-87q0 -7 -5 -12t-12 -5h-77q-7 0 -12 5t-5 12v87h-73v-87
q0 -7 -5 -12t-12 -5h-77q-7 0 -12 5t-5 12v87h-63q-7 0 -12 5t-5 12v75q0 7 5 12t12 5h63v74h-63q-7 0 -12 5t-5 12v76q0 7 5 12t12 5zM251 287v-74h73v74h-73z" />
    <glyph glyph-name="dollar" unicode="$" horiz-adv-x="642" 
d="M214 512q1 -18 10.5 -31t32 -23.5t39 -16.5t52.5 -16q42 -12 66 -20.5t60.5 -28t56.5 -41.5t35.5 -59t15.5 -83q0 -76 -58.5 -131t-151.5 -67v-75q0 -7 -5 -12t-12 -5h-68q-7 0 -12 5t-5 12v75q-98 8 -199 60q-7 3 -9 10t2 13l43 87q9 15 23 8q109 -50 190 -50
q48 0 82 19.5t34 51.5q0 18 -8.5 33t-19 24.5t-34 19.5t-37 14.5t-45.5 14.5q-9 3 -13 4q-38 11 -60.5 19.5t-54 25.5t-49 36.5t-30.5 51t-13 70.5q0 87 54.5 140.5t143.5 61.5v73q0 7 5 12t12 5h68q7 0 12 -5t5 -12v-78q81 -13 166 -50q16 -7 9 -23l-40 -90q-7 -14 -23 -9
q-114 44 -163 44t-77 -13.5t-30 -50.5z" />
    <glyph glyph-name="percent" unicode="%" horiz-adv-x="854" 
d="M346 541q0 -27 -8 -54t-25 -52.5t-49 -41t-75 -15.5q-83 0 -121 50.5t-38 112.5q0 28 8 54.5t25 52.5t49.5 42t76.5 16q43 0 75 -16t49 -42t25 -53t8 -54zM189 486q25 0 34 18t9 37q0 11 -2.5 22t-13 22.5t-27.5 11.5q-18 0 -29 -11.5t-13.5 -22.5t-2.5 -22t2.5 -21.5
t13.5 -22t29 -11.5zM503 700h84q6 0 9.5 -5t2.5 -11l-222 -668q-5 -16 -22 -16h-85q-6 0 -10 5t-2 11l223 668q5 16 22 16zM667 323q43 0 75 -16t49 -42t25 -53t8 -54t-8 -54t-25 -52.5t-49 -41t-75 -15.5t-75.5 15.5t-49.5 41t-25 52.5t-8 54q0 28 8 54.5t25 52.5t49.5 42
t75.5 16zM667 103q25 0 34.5 18.5t9.5 36.5q0 11 -2.5 22t-13.5 22.5t-28 11.5q-18 0 -29 -11.5t-13.5 -22.5t-2.5 -22q0 -10 2.5 -21t13.5 -22.5t29 -11.5z" />
    <glyph glyph-name="ampersand" unicode="&#x26;" horiz-adv-x="719" 
d="M572 155l75 -80q11 -11 0 -24l-64 -58q-12 -12 -24 0l-64 66q-75 -66 -192 -66q-96 2 -159.5 64t-63.5 144q0 63 28.5 105.5t80.5 76.5q-2 2 -5 5.5t-4 4.5q-56 63 -56 145q0 69 47 121t136 52q84 0 129 -50.5t45 -119.5q0 -99 -101 -179l101 -108q19 46 31 97
q3 16 20 14l80 -16q17 -3 15 -20q-11 -92 -55 -174zM303 596q-29 0 -41.5 -18.5t-12.5 -38.5q0 -40 49 -89q57 42 57 90q0 23 -13.5 39.5t-38.5 16.5zM310 116q60 0 99 33l-131 141q-66 -46 -67 -83q0 -41 29.5 -66t69.5 -25z" />
    <glyph glyph-name="quotesingle" unicode="'" horiz-adv-x="220" 
d="M178 685l-20 -221q-2 -17 -19 -17h-58q-17 0 -19 17l-20 221q-1 7 3.5 12t11.5 5h106q7 0 11.5 -5t3.5 -12z" />
    <glyph glyph-name="parenleft" unicode="(" horiz-adv-x="320" 
d="M30 294q0 249 158 483q10 14 24 5l63 -38q15 -8 7 -24q-117 -222 -117 -425q0 -210 117 -432q8 -16 -7 -24l-62 -37q-15 -8 -25 5q-158 232 -158 487z" />
    <glyph glyph-name="parenright" unicode=")" horiz-adv-x="320" 
d="M290 294q0 -255 -158 -487q-10 -13 -25 -5l-62 37q-15 8 -7 24q117 222 117 432q0 203 -117 425q-8 15 6 24l63 38q15 8 25 -5q158 -234 158 -483z" />
    <glyph glyph-name="asterisk" unicode="*" horiz-adv-x="480" 
d="M196 350l-4 83l-74 -37q-15 -9 -24 7l-26 44q-7 16 6 24l69 46l-69 45q-13 8 -6 24l26 44q9 16 24 7l74 -37l4 83q2 17 18 17h52q16 0 18 -17l4 -83l74 37q6 4 13 2t10 -9l26 -44q9 -15 -5 -24l-70 -45l70 -46q14 -9 5 -24l-26 -44q-3 -7 -10 -9t-13 2l-74 37l-4 -83
q-2 -17 -18 -17h-52q-16 0 -18 17z" />
    <glyph glyph-name="plus" unicode="+" horiz-adv-x="558" 
d="M222 157v125h-125q-7 0 -12 5t-5 12v79q0 7 5 12t12 5h125v125q0 7 5 12t12 5h80q7 0 12 -5t5 -12v-125h125q7 0 12 -5t5 -12v-79q0 -7 -5 -12t-12 -5h-125v-125q0 -7 -5 -12t-12 -5h-80q-7 0 -12 5t-5 12z" />
    <glyph glyph-name="comma" unicode="," horiz-adv-x="332" 
d="M135 -161l-40 20q-14 7 -7 22q34 63 48 113q-54 17 -54 78q0 35 23 58.5t58 23.5q46 0 67.5 -26t21.5 -64q0 -41 -29.5 -106t-62.5 -112q-10 -14 -25 -7z" />
    <glyph glyph-name="hyphen" unicode="-" horiz-adv-x="446" 
d="M97 353h252q7 0 12 -5t5 -12v-81q0 -7 -5 -12t-12 -5h-252q-7 0 -12 5t-5 12v81q0 7 5 12t12 5z" />
    <glyph glyph-name="period" unicode="." horiz-adv-x="327" 
d="M80 77q0 35 25 59.5t59 24.5q35 0 59 -24.5t24 -59.5t-24.5 -59t-58.5 -24t-59 24.5t-25 58.5z" />
    <glyph glyph-name="slash" unicode="/" horiz-adv-x="411" 
d="M376 684l-222 -668q-5 -16 -22 -16h-85q-6 0 -9.5 5t-2.5 11l223 668q5 16 22 16h84q6 0 10 -5t2 -11z" />
    <glyph glyph-name="zero" unicode="0" horiz-adv-x="646" 
d="M322 683q72 0 126 -33.5t82.5 -87.5t42 -110t13.5 -113q0 -46 -8 -91t-27 -92t-48.5 -82t-76 -57.5t-104.5 -22.5t-104.5 22.5t-75 57.5t-48 82t-27 92t-7.5 91q0 57 13.5 113t41.5 110t82 87.5t125 33.5zM322 115q39 0 66.5 26.5t39.5 66.5t16.5 72t4.5 59t-4.5 58.5
t-16.5 71.5t-39.5 66t-66.5 26q-38 0 -65.5 -26t-39.5 -66t-17 -71.5t-5 -58.5t5 -59t17 -72t39.5 -66.5t65.5 -26.5z" />
    <glyph glyph-name="one" unicode="1" horiz-adv-x="417" 
d="M327 661v-644q0 -7 -5 -12t-12 -5h-102q-7 0 -12 5t-5 12v456l-78 -43q-16 -7 -24 6l-40 63q-8 13 4 24l187 145q13 10 30 10h40q7 0 12 -5t5 -12z" />
    <glyph glyph-name="two" unicode="2" horiz-adv-x="538" 
d="M109 492l-57 62q-12 12 0 24q102 106 215 106q94 0 152.5 -50.5t58.5 -145.5q0 -73 -83 -187l-129 -174h177q7 0 12 -5t5 -12v-93q0 -7 -5 -12t-12 -5h-369q-7 0 -12 5t-5 12v22q0 18 10 31l228 311q51 72 51 111q0 30 -18.5 50.5t-59.5 20.5q-56 0 -135 -71
q-11 -11 -24 0z" />
    <glyph glyph-name="three" unicode="3" horiz-adv-x="536" 
d="M476 487q0 -43 -19 -84t-52 -64q36 -21 53.5 -61.5t17.5 -83.5q0 -31 -10 -62t-32.5 -63.5t-69 -53t-110.5 -20.5q-107 0 -202 84q-12 11 -1 24l55 65q10 12 24 2q28 -24 62.5 -40.5t61.5 -16.5q38 0 64.5 21t26.5 60q0 40 -27 63.5t-64 23.5h-82q-7 0 -12 5t-5 12v84
q0 7 5 12t12 5h82q37 0 64 24t27 64q0 39 -26.5 60t-64.5 21q-56 0 -124 -57q-13 -11 -24 2l-55 65q-11 13 1 24q94 84 202 84q64 0 110.5 -20.5t69 -53t32.5 -63.5t10 -62z" />
    <glyph glyph-name="four" unicode="4" horiz-adv-x="555" 
d="M437 133v-116q0 -7 -5 -12t-12 -5h-105q-7 0 -12 5t-5 12v116h-251q-7 0 -12 5t-5 12v44q0 18 9 31l281 436q8 14 26 14h74q7 0 12 -5t5 -12v-401h71q7 0 12 -5t5 -12v-90q0 -7 -5 -12t-12 -5h-71zM298 404l-92 -147h92v147z" />
    <glyph glyph-name="five" unicode="5" horiz-adv-x="567" 
d="M73 119l65 59q13 11 24 -2q52 -60 108 -60q48 0 76 31t28 73q0 41 -28 70.5t-77 29.5h-154q-7 0 -12 5t-5 12v325q0 7 5 12t12 5h332q7 0 12 -5t5 -12v-89q0 -7 -5 -12t-12 -5h-207v-119h29q68 0 117.5 -21.5t74 -56.5t35.5 -70.5t11 -73.5q0 -24 -6 -51t-23 -58
t-42.5 -55t-69 -40.5t-97.5 -16.5q-114 0 -198 101q-11 13 2 24z" />
    <glyph glyph-name="six" unicode="6" horiz-adv-x="586" 
d="M365 674l47 -71q4 -5 2 -12t-8 -10q-94 -55 -162 -149q26 12 69 12q62 -3 106 -26t66 -58.5t31.5 -70.5t9.5 -73q0 -23 -5.5 -49.5t-22 -58t-41 -56.5t-67 -41.5t-96.5 -16.5t-97 17.5t-67.5 43.5t-41 59t-22 60t-5.5 51q0 84 24 158t66.5 129.5t88.5 95.5t101 72
q15 8 24 -6zM294 118q46 0 73 30.5t27 72.5t-26.5 72t-73.5 30t-73 -29.5t-28 -72.5q0 -42 26.5 -72.5t74.5 -30.5z" />
    <glyph glyph-name="seven" unicode="7" horiz-adv-x="493" 
d="M30 572v89q0 7 5 12t12 5h388q7 0 12 -5t5 -12v-23q0 -18 -7 -33l-245 -589q-5 -16 -23 -16h-107q-6 0 -9.5 5t-1.5 11l217 539h-229q-7 0 -12 5t-5 12z" />
    <glyph glyph-name="eight" unicode="8" horiz-adv-x="566" 
d="M506 485q0 -35 -18 -76.5t-58 -69.5q76 -45 76 -143q0 -31 -10 -62.5t-32.5 -64.5t-69.5 -54t-111 -21q-52 0 -93 14t-64.5 35.5t-39 50t-21 53t-5.5 48.5q0 43 19 84t53 61q-72 52 -72 145q0 31 10 62t32.5 63.5t69.5 53t111 20.5t111 -20.5t69.5 -53t32.5 -63.5t10 -62
zM283 112q38 0 64.5 22.5t26.5 60.5q0 40 -26.5 62.5t-64.5 22.5t-65 -22.5t-27 -62.5q0 -39 27 -61t65 -22zM283 400q38 0 64.5 22.5t26.5 62.5q0 39 -26 60t-65 21t-65.5 -21t-26.5 -60q0 -40 27 -62.5t65 -22.5z" />
    <glyph glyph-name="nine" unicode="9" horiz-adv-x="586" 
d="M221 5l-47 71q-4 5 -2 12t8 10q94 55 162 149q-26 -12 -69 -12q-62 3 -106 26t-66 58.5t-31.5 70.5t-9.5 73q0 23 5.5 49.5t22 58t41 56.5t67 41.5t96.5 16.5t97 -17.5t67.5 -43.5t41 -59t22 -60t5.5 -51q0 -84 -24 -158t-66.5 -129.5t-88.5 -95.5t-101 -72q-15 -9 -24 6
zM292 561q-46 0 -73 -30.5t-27 -72.5t26.5 -72t73.5 -30t73 29.5t28 72.5q0 42 -26.5 72.5t-74.5 30.5z" />
    <glyph glyph-name="colon" unicode=":" horiz-adv-x="327" 
d="M80 77q0 35 25 59.5t59 24.5q35 0 59 -24.5t24 -59.5t-24.5 -59t-58.5 -24t-59 24.5t-25 58.5zM80 419q0 35 25 59.5t59 24.5q35 0 59 -24.5t24 -59.5t-24.5 -59t-58.5 -24t-59 24.5t-25 58.5z" />
    <glyph glyph-name="semicolon" unicode=";" horiz-adv-x="332" 
d="M80 419q0 35 25 59.5t59 24.5q35 0 59 -24.5t24 -59.5t-24.5 -59t-58.5 -24t-59 24.5t-25 58.5zM135 -161l-40 20q-14 7 -7 22q34 63 48 113q-54 17 -54 78q0 35 23 58.5t58 23.5q46 0 67.5 -26t21.5 -64q0 -41 -29.5 -106t-62.5 -112q-10 -14 -25 -7z" />
    <glyph glyph-name="less" unicode="&#x3c;" horiz-adv-x="441" 
d="M222 294l175 -111q14 -9 6 -24l-41 -70q-3 -6 -10 -8t-13 2l-295 178q-14 9 -14 26v14q0 16 15 26l294 177q6 4 13 2t10 -8l40 -69q9 -15 -5 -24z" />
    <glyph glyph-name="equal" unicode="=" horiz-adv-x="510" 
d="M413 389h-316q-7 0 -12 5t-5 12v80q0 7 5 12t12 5h316q7 0 12 -5t5 -12v-80q0 -7 -5 -12t-12 -5zM413 176h-316q-7 0 -12 5t-5 12v78q0 7 5 12t12 5h316q7 0 12 -5t5 -12v-78q0 -7 -5 -12t-12 -5z" />
    <glyph glyph-name="greater" unicode="&#x3e;" horiz-adv-x="441" 
d="M44 183l175 111l-175 111q-13 8 -6 24l40 69q9 15 24 6l294 -177q15 -10 15 -26v-14q0 -16 -15 -26l-295 -178q-5 -4 -12 -2t-10 8l-41 70q-8 15 6 24z" />
    <glyph glyph-name="question" unicode="?" horiz-adv-x="571" 
d="M213 61q0 33 22.5 55t55.5 22t55.5 -22t22.5 -55t-23 -55.5t-55 -22.5q-34 0 -56 21.5t-22 56.5zM355 281v-54q0 -7 -5 -12t-12 -5h-93q-7 0 -12 5t-5 12v57q0 28 10.5 54t22 40.5t33.5 40.5q20 22 29.5 35t20 35.5t10.5 43.5t-14 38.5t-51 15.5q-44 -2 -112 -67
q-13 -13 -24 0l-61 57q-12 13 -1 24q54 57 103.5 83t111.5 26q82 0 133.5 -46.5t51.5 -129.5q0 -35 -16 -72t-32 -58.5t-43 -52.5q-45 -53 -45 -70z" />
    <glyph glyph-name="at" unicode="@" horiz-adv-x="1146" 
d="M580 730q229 0 367.5 -136t138.5 -345q0 -61 -14 -119t-42.5 -110t-80.5 -84t-120 -32q-84 0 -123 68q-60 -47 -141 -47q-70 0 -122 26t-80 67.5t-41 86t-13 89.5q0 46 13 90t41 86t80 67.5t122 25.5q81 0 137 -43l6 19q7 16 23 16h58q7 0 12 -5t5 -12v-368q2 -46 39 -46
q47 0 77.5 63t30.5 157q0 158 -100.5 259t-275.5 101q-180 0 -283.5 -114t-101.5 -307q2 -121 83.5 -231.5t245.5 -169.5q14 -7 9 -21l-41 -83q-8 -16 -23 -9q-198 71 -301 206.5t-104 307.5q-1 156 61.5 280t182 195.5t275.5 71.5zM672 95v198q-41 53 -102 53
q-39 0 -66.5 -17.5t-39.5 -45t-17 -49.5t-5 -41t5 -41t17.5 -48.5t40 -44t65.5 -17.5q67 0 102 53z" />
    <glyph glyph-name="A" unicode="A" horiz-adv-x="724" 
d="M379 698l308 -683q2 -5 -1 -10t-9 -5h-123q-18 0 -23 16l-61 148h-216l-60 -148q-6 -16 -23 -16h-124q-6 0 -9 5t-1 10l307 683q6 11 17 11q13 0 18 -11zM362 433l-63 -157h126z" />
    <glyph glyph-name="B" unicode="B" horiz-adv-x="675" 
d="M529 351q37 -19 61.5 -57.5t24.5 -85.5q0 -38 -12.5 -72.5t-40 -66t-78 -50.5t-119.5 -19h-248q-7 0 -12 5t-5 12v666q0 7 5 12t12 5h248q69 0 119.5 -19t78 -51t40 -66.5t12.5 -72.5q0 -40 -24.5 -81t-61.5 -59zM375 130q38 0 61.5 16.5t29 32t5.5 29.5q0 17 -5.5 31.5
t-28 28.5t-59.5 15h-138v-153h135zM378 409q37 1 59.5 17.5t28 32.5t5.5 32q0 14 -5.5 30t-29 33t-61.5 17h-135v-162h138z" />
    <glyph glyph-name="C" unicode="C" horiz-adv-x="741" 
d="M669 567l-69 -66q-11 -13 -23 1q-32 32 -79 54t-90 22q-51 0 -90 -18.5t-59.5 -44.5t-34 -60t-17 -58.5t-3.5 -45.5t4 -45.5t17 -58t34 -59.5t60 -44.5t90 -18.5q88 0 175 70q13 11 24 -2l58 -71q11 -13 -1 -25q-114 -106 -257 -106q-77 0 -138.5 23.5t-99.5 60t-64 85
t-36 96t-10 95.5q0 47 10 93.5t36 95.5t64 86t99.5 60.5t138.5 23.5q150 0 262 -119q12 -11 -1 -24z" />
    <glyph glyph-name="D" unicode="D" horiz-adv-x="755" 
d="M349 0h-232q-7 0 -12 5t-5 12v666q0 7 5 12t12 5h232q76 0 137.5 -22.5t99.5 -58t63.5 -83t35.5 -93t10 -92.5q0 -48 -10 -94.5t-35.5 -93.5t-63.5 -82.5t-99 -58t-138 -22.5zM240 130h109q62 0 105.5 25.5t63 65t27 71t7.5 59.5t-7.5 59.5t-27 70.5t-63 64.5
t-105.5 25.5h-109v-441z" />
    <glyph glyph-name="E" unicode="E" horiz-adv-x="636" 
d="M486 280h-245v-150h318q7 0 12 -5t5 -12v-96q0 -7 -5 -12t-12 -5h-442q-7 0 -12 5t-5 12v666q0 7 5 12t12 5h442q7 0 12 -5t5 -12v-96q0 -7 -5 -12t-12 -5h-318v-160h245q7 0 12 -5t5 -12v-96q0 -7 -5 -12t-12 -5z" />
    <glyph glyph-name="F" unicode="F" horiz-adv-x="636" 
d="M486 280h-245v-263q0 -7 -5 -12t-12 -5h-107q-7 0 -12 5t-5 12v666q0 7 5 12t12 5h442q7 0 12 -5t5 -12v-96q0 -7 -5 -12t-12 -5h-318v-160h245q7 0 12 -5t5 -12v-96q0 -7 -5 -12t-12 -5z" />
    <glyph glyph-name="G" unicode="G" horiz-adv-x="727" 
d="M523 245h-121q-7 0 -12 5t-5 12v94q0 7 5 12t12 5h246q7 0 12 -5t5 -12v-245q0 -17 -12 -29q-100 -91 -245 -91q-77 0 -138.5 23.5t-99.5 60t-64 85t-36 96t-10 95.5q0 47 10 93.5t36 95.5t64 86t99.5 60.5t138.5 23.5q145 0 247 -102q13 -12 0 -25l-64 -69
q-11 -11 -23 0q-32 27 -76.5 45.5t-83.5 18.5q-51 0 -90 -18.5t-59.5 -44t-34 -59t-17 -58t-3.5 -45.5t3.5 -46.5t17 -60t34 -61.5t59.5 -46t90 -19q30 0 63.5 10t51.5 26v89z" />
    <glyph glyph-name="H" unicode="H" horiz-adv-x="775" 
d="M242 280v-263q0 -7 -5 -12t-12 -5h-108q-7 0 -12 5t-5 12v666q0 7 5 12t12 5h108q7 0 12 -5t5 -12v-273h292v273q0 7 5 12t12 5h107q7 0 12 -5t5 -12v-666q0 -7 -5 -12t-12 -5h-107q-7 0 -12 5t-5 12v263h-292z" />
    <glyph glyph-name="I" unicode="I" horiz-adv-x="342" 
d="M242 683v-666q0 -7 -5 -12t-12 -5h-108q-7 0 -12 5t-5 12v666q0 7 5 12t12 5h108q7 0 12 -5t5 -12z" />
    <glyph glyph-name="J" unicode="J" horiz-adv-x="631" 
d="M36 212l94 34q16 5 21 -10q41 -110 124 -108q113 3 113 145v410q0 7 5 12t12 5h109q7 0 12 -5t5 -12v-410q0 -38 -6.5 -73.5t-24 -74t-45 -66.5t-74 -46.5t-106.5 -18.5q-105 0 -162.5 52t-87.5 144q-5 16 11 22z" />
    <glyph glyph-name="K" unicode="K" horiz-adv-x="715" 
d="M225 0h-108q-7 0 -12 5t-5 12v666q0 7 5 12t12 5h108q7 0 12 -5t5 -12v-263l242 267q11 13 28 13h131q5 0 7 -4.5t-1 -8.5l-299 -326l323 -348q3 -4 1 -8.5t-7 -4.5h-136q-17 0 -29 12l-260 283v-278q0 -7 -5 -12t-12 -5z" />
    <glyph glyph-name="L" unicode="L" horiz-adv-x="564" 
d="M242 683v-553h245q7 0 12 -5t5 -12v-96q0 -7 -5 -12t-12 -5h-370q-7 0 -12 5t-5 12v666q0 7 5 12t12 5h108q7 0 12 -5t5 -12z" />
    <glyph glyph-name="M" unicode="M" horiz-adv-x="1042" 
d="M502 6l-193 400l-123 -390q-5 -16 -22 -16h-117q-6 0 -9.5 5t-1.5 11l241 680q3 12 17 12q13 0 18 -12l209 -453l209 453q5 12 18 12q14 0 17 -12l241 -680q2 -6 -1.5 -11t-9.5 -5h-117q-17 0 -22 16l-123 390l-193 -400q-7 -12 -19 -12t-19 12z" />
    <glyph glyph-name="N" unicode="N" horiz-adv-x="776" 
d="M225 0h-108q-7 0 -12 5t-5 12v677q0 14 13 14q14 0 24 -10l397 -395v380q0 7 5 12t12 5h108q7 0 12 -5t5 -12v-677q0 -12 -12 -12q-11 0 -21 8l-401 405v-390q0 -7 -5 -12t-12 -5z" />
    <glyph glyph-name="O" unicode="O" horiz-adv-x="814" 
d="M408 712q76 0 137.5 -24t99.5 -61t63.5 -86t35.5 -96t10 -94q0 -48 -10 -95.5t-35.5 -96.5t-63.5 -86t-99.5 -60.5t-137.5 -23.5q-77 0 -138.5 23.5t-99.5 60.5t-64 86t-36 96.5t-10 95.5q0 47 10 94t36 96t64 86t99.5 61t138.5 24zM408 120q50 0 88.5 19t59 45.5
t33.5 61t17 59.5t4 46t-4 46t-17 59t-33.5 60.5t-59 45t-88.5 18.5q-51 0 -90 -18.5t-59.5 -45t-34 -60.5t-17 -59t-3.5 -46t3.5 -46t17 -59.5t34 -61t59.5 -45.5t90 -19z" />
    <glyph glyph-name="P" unicode="P" horiz-adv-x="677" 
d="M242 243v-226q0 -7 -5 -12t-12 -5h-108q-7 0 -12 5t-5 12v666q0 7 5 12t12 5h250q68 0 119.5 -22t78.5 -57.5t39.5 -72.5t12.5 -75q0 -99 -72.5 -164.5t-164.5 -65.5h-138zM376 374q53 1 76 33.5t23 65.5q0 35 -23.5 66.5t-79.5 31.5h-130v-197h134z" />
    <glyph glyph-name="Q" unicode="Q" horiz-adv-x="824" 
d="M408 710q76 0 137.5 -23.5t99.5 -60.5t63.5 -85.5t35.5 -95.5t10 -94q0 -83 -33.5 -163.5t-102.5 -132.5l153 -180q5 -7 1 -13q-3 -6 -10 -6h-131q-17 0 -28 13l-104 132q-50 -10 -91 -10q-77 0 -138.5 23.5t-99.5 60t-64 85t-36 96t-10 95.5q0 47 10 93.5t36 95.5t64 86
t99.5 60.5t138.5 23.5zM408 122q50 0 88.5 18.5t59 45t33.5 60.5t17 59t4 46t-4 46t-17 58.5t-33.5 59.5t-59 44.5t-88.5 18.5q-51 0 -90 -18.5t-59.5 -44.5t-34 -60t-17 -58.5t-3.5 -45.5t3.5 -46t17 -59t34 -60.5t59.5 -45t90 -18.5z" />
    <glyph glyph-name="R" unicode="R" horiz-adv-x="675" 
d="M240 243v-226q0 -7 -5 -12t-12 -5h-106q-7 0 -12 5t-5 12v666q0 7 5 12t12 5h248q68 0 119.5 -22t78.5 -57.5t39.5 -72.5t12.5 -75q0 -73 -38 -127t-100 -81l118 -250q2 -5 -1 -10t-9 -5h-120q-17 0 -24 15l-107 228h-94zM374 374q53 1 76 33.5t23 65.5q0 35 -23.5 66.5
t-79.5 31.5h-130v-197h134z" />
    <glyph glyph-name="S" unicode="S" horiz-adv-x="642" 
d="M214 514q1 -17 10 -30t31 -24.5t37 -17.5t51 -18q35 -12 49 -17t46.5 -18.5t48 -24t38.5 -29t33.5 -37.5t18 -46.5t5.5 -58.5q-5 -87 -76 -144t-179 -57q-133 0 -256 63q-6 3 -8 10t1 13l46 87q3 6 10 8.5t13 -0.5q107 -50 187 -50q46 0 76.5 18t35.5 49q6 35 -24 57.5
t-88 40.5q-108 33 -144 53q-104 56 -104 166q0 94 63 149t164 55q111 0 240 -57q15 -7 8 -23l-37 -87q-7 -15 -23 -10q-109 45 -178 45q-92 0 -95 -65z" />
    <glyph glyph-name="T" unicode="T" horiz-adv-x="613" 
d="M234 17v553h-172q-7 0 -12 5t-5 12v96q0 7 5 12t12 5h489q7 0 12 -5t5 -12v-96q0 -7 -5 -12t-12 -5h-174v-553q0 -7 -5 -12t-12 -5h-109q-7 0 -12 5t-5 12z" />
    <glyph glyph-name="U" unicode="U" horiz-adv-x="736" 
d="M368 122q38 0 66.5 17t42 43t20 49t6.5 41v411q0 7 5 12t12 5h109q7 0 12 -5t5 -12v-411q0 -47 -15 -93.5t-46 -89.5t-87.5 -69.5t-129.5 -26.5t-129.5 26.5t-87.5 69.5t-46 89.5t-15 93.5v411q0 7 5 12t12 5h108q7 0 12 -5t5 -12v-411q0 -18 6.5 -41t20.5 -49t42.5 -43
t66.5 -17z" />
    <glyph glyph-name="V" unicode="V" horiz-adv-x="724" 
d="M687 684l-308 -682q-5 -11 -18 -11q-12 0 -17 11l-307 682q-2 6 1 11t9 5h124q17 0 23 -16l168 -420l169 420q5 16 23 16h123q6 0 9 -5t1 -11z" />
    <glyph glyph-name="W" unicode="W" horiz-adv-x="1091" 
d="M545 707q13 0 18 -12l167 -417l166 406q5 16 23 16h124q6 0 9 -5t1 -11l-307 -679q-3 -10 -15 -10t-15 10l-171 394l-171 -394q-3 -10 -15 -10q-11 0 -16 10l-306 679q-2 6 1 11t9 5h124q17 0 23 -16l166 -406l167 417q5 12 18 12z" />
    <glyph glyph-name="X" unicode="X" horiz-adv-x="659" 
d="M481 701h131q5 0 8 -4.5t0 -9.5l-217 -336l217 -337q3 -4 0 -9t-8 -5h-129q-16 0 -26 15l-128 217l-127 -217q-10 -15 -26 -15h-129q-5 0 -8 5t0 9l216 337l-216 336q-3 5 0 9.5t8 4.5h131q16 0 26 -15l125 -215l126 215q10 15 26 15z" />
    <glyph glyph-name="Y" unicode="Y" horiz-adv-x="677" 
d="M409 313v-296q0 -7 -5 -12t-12 -5h-107q-7 0 -12 5t-5 12v294l-229 374q-3 5 0 10t8 5h122q16 0 26 -15l143 -244l143 244q10 15 26 15h123q5 0 8 -5t0 -10z" />
    <glyph glyph-name="Z" unicode="Z" horiz-adv-x="661" 
d="M282 130h296q7 0 12 -5t5 -12v-96q0 -7 -5 -12t-12 -5h-483q-7 0 -12 5t-5 12v6q0 16 8 32l287 516h-266q-7 0 -12 5t-5 12v95q0 7 5 12t12 5h458q7 0 12 -5t5 -12v-8q0 -16 -8 -32z" />
    <glyph glyph-name="bracketleft" unicode="[" horiz-adv-x="270" 
d="M30 -188v951q0 7 5 12t12 5h176q7 0 12 -5t5 -12v-73q0 -7 -5 -12t-12 -5h-63v-771h63q7 0 12 -5t5 -12v-73q0 -7 -5 -12t-12 -5h-176q-7 0 -12 5t-5 12z" />
    <glyph glyph-name="backslash" unicode="\" horiz-adv-x="411" 
d="M257 16l-222 668q-1 6 2.5 11t9.5 5h84q17 0 22 -16l223 -668q2 -6 -2 -11t-10 -5h-85q-17 0 -22 16z" />
    <glyph glyph-name="bracketright" unicode="]" horiz-adv-x="270" 
d="M240 763v-951q0 -7 -5 -12t-12 -5h-176q-7 0 -12 5t-5 12v73q0 7 5 12t12 5h63v771h-63q-7 0 -12 5t-5 12v73q0 7 5 12t12 5h176q7 0 12 -5t5 -12z" />
    <glyph glyph-name="asciicircum" unicode="^" horiz-adv-x="609" 
d="M144 400l-51 46q-13 11 -2 24l197 239q6 8 17 8q10 0 18 -8l195 -239q11 -13 -2 -24l-51 -47q-13 -11 -24 2l-136 154l-137 -153q-11 -13 -24 -2z" />
    <glyph glyph-name="underscore" unicode="_" horiz-adv-x="421" 
d="M5 -70v50q0 7 5 12t12 5h377q7 0 12 -5t5 -12v-50q0 -7 -5 -12t-12 -5h-377q-7 0 -12 5t-5 12z" />
    <glyph glyph-name="grave" unicode="`" horiz-adv-x="510" 
d="M178 776l135 -105q14 -10 3 -24l-32 -46q-10 -14 -24 -5l-146 90q-14 10 -4 23l45 63q9 14 23 4z" />
    <glyph glyph-name="a" unicode="a" horiz-adv-x="548" 
d="M102 464q97 45 181 45q49 0 84.5 -13t54.5 -32t30 -49.5t13.5 -56.5t2.5 -62v-279q0 -7 -5 -12t-12 -5h-60q-17 0 -22 16l-5 16q-46 -39 -119 -42q-55 -2 -94 13t-57.5 41.5t-26 51.5t-7.5 51q0 166 214 166q26 0 58 -7q0 49 -15.5 65.5t-51.5 16.5q-42 0 -118 -29
q-16 -5 -23 10l-30 71q-7 15 8 24zM332 147v54q-41 11 -62 11q-81 0 -81 -58q0 -22 17 -34t42 -12q26 0 50 12t34 27z" />
    <glyph glyph-name="b" unicode="b" horiz-adv-x="614" 
d="M305 509q58 0 103 -16.5t72 -42.5t44 -61.5t23.5 -69t6.5 -69.5q0 -44 -12 -86.5t-37.5 -82.5t-74.5 -65t-115 -25q-32 0 -71 12.5t-60 31.5l-6 -19q-5 -16 -22 -16h-59q-7 0 -12 5t-5 12v667q0 7 5 12t12 5h101q7 0 12 -5t5 -12v-192q37 17 90 17zM305 113q36 0 61 15
t35.5 39t14.5 43.5t4 39.5q0 23 -4.5 43t-16 43.5t-38 37.5t-64.5 14q-45 0 -82 -24v-212q11 -15 36 -27t54 -12z" />
    <glyph glyph-name="c" unicode="c" horiz-adv-x="554" 
d="M432 160l57 -69q11 -13 -1 -25q-78 -73 -176 -73q-68 0 -119.5 24.5t-79 64t-40.5 81.5t-13 85q0 46 11.5 88t38 82.5t78 65t122.5 24.5q103 0 187 -87q12 -12 1 -25l-56 -61q-10 -12 -23 -1q-53 48 -109 48q-54 0 -84.5 -39t-30.5 -92q0 -59 34 -93.5t82 -34.5
q51 0 97 39q14 10 24 -2z" />
    <glyph glyph-name="d" unicode="d" horiz-adv-x="614" 
d="M416 701h101q7 0 12 -5t5 -12v-667q0 -7 -5 -12t-12 -5h-59q-17 0 -22 16l-6 19q-21 -19 -60 -31.5t-71 -12.5q-66 0 -115 25t-74.5 65t-37.5 82.5t-12 86.5q0 36 6.5 69.5t23.5 69t44 61.5t72 42.5t103 16.5q53 0 90 -17v192q0 7 5 12t12 5zM399 152v212q-37 24 -82 24
q-38 0 -64.5 -14t-38 -37.5t-16 -43.5t-4.5 -43q0 -20 4 -39.5t14.5 -43.5t35.5 -39t61 -15q29 0 54 12t36 27z" />
    <glyph glyph-name="e" unicode="e" horiz-adv-x="547" 
d="M502 292q0 -24 -3 -48q0 -17 -18 -17h-296q6 -47 35 -78.5t75 -31.5q58 0 111 35q14 9 24 -4l46 -63q10 -14 -3 -25q-86 -66 -178 -66q-68 0 -119 24.5t-78 64t-40 82t-13 86.5q0 43 13 85t40 82t78 64.5t119 24.5q98 0 152.5 -58t54.5 -157zM189 307h179q-2 78 -73 79
q-80 0 -106 -79z" />
    <glyph glyph-name="f" unicode="f" horiz-adv-x="376" 
d="M380 655l-28 -75q-5 -16 -22 -10q-45 16 -80 16q-22 0 -37 -12.5t-15 -40.5v-33h76q7 0 12 -5t5 -12v-83q0 -7 -5 -12t-12 -5h-76v-366q0 -7 -5 -12t-12 -5h-102q-7 0 -12 5t-5 12v366h-35q-7 0 -12 5t-5 12v83q0 7 5 12t12 5h35v37q0 83 50.5 126.5t129.5 43.5
q62 0 129 -29q14 -7 9 -23z" />
    <glyph glyph-name="g" unicode="g" 
d="M245 79q154 7 213.5 -32t59.5 -114q0 -12 -3 -28t-16.5 -41t-35.5 -44.5t-65.5 -34t-101.5 -14.5q-66 0 -114.5 16t-73.5 41.5t-36.5 52t-11.5 53.5q1 26 14.5 54.5t38.5 45.5q-41 32 -41 93q0 25 14.5 49t37.5 35q-35 38 -35 105q0 34 10.5 66.5t32.5 62.5t62.5 48.5
t95.5 18.5q59 0 95 -20l59 55q11 13 24 0l55 -55q13 -13 0 -24l-58 -63q28 -41 28 -91q0 -33 -11 -65.5t-33 -62t-63.5 -48t-95.5 -18.5q-45 0 -76 12q-9 -1 -16 -6t-7 -12q0 -19 11.5 -27.5t42.5 -7.5zM290 391q-35 0 -49 -24.5t-14 -50.5q0 -14 3 -28t18.5 -30t41.5 -16
q25 0 40 16t18.5 30.5t3.5 27.5q0 14 -3.5 28.5t-18.5 30.5t-40 16zM290 -126q100 0 100 57q0 47 -100 47q-102 0 -102 -45q0 -8 4 -16.5t14 -18.5t31.5 -16.5t52.5 -7.5z" />
    <glyph glyph-name="h" unicode="h" horiz-adv-x="584" 
d="M198 0h-101q-7 0 -12 5t-5 12v666q0 7 5 12t12 5h101q7 0 12 -5t5 -12v-201q43 26 96 26q55 0 95.5 -15t62.5 -38t35 -58.5t16.5 -66.5t3.5 -72v-241q0 -7 -5 -12t-12 -5h-101q-7 0 -12 5t-5 12v241q0 59 -18.5 94t-76.5 34q-53 -2 -79 -38v-331q0 -7 -5 -12t-12 -5z" />
    <glyph glyph-name="i" unicode="i" horiz-adv-x="313" 
d="M224 483v-466q0 -7 -5 -12t-12 -5h-102q-7 0 -12 5t-5 12v466q0 7 5 12t12 5h102q7 0 12 -5t5 -12zM80 663q0 32 22 54.5t55 22.5q32 0 54 -22.5t22 -54.5q0 -33 -22 -54.5t-54 -21.5q-33 0 -55 21.5t-22 54.5z" />
    <glyph glyph-name="j" unicode="j" horiz-adv-x="293" 
d="M-58 -65q40 -20 69 -20q56 0 56 75v493q0 7 5 12t12 5h104q7 0 12 -5t5 -12v-485v-11q0 -18 -2 -36.5t-12.5 -48t-28 -51t-52.5 -38t-83 -16.5q-79 0 -144 48q-13 10 -4 25l39 59q8 13 24 6zM60 664q0 33 21.5 55t54.5 22q32 0 54.5 -22.5t22.5 -54.5q0 -33 -22 -54.5
t-55 -21.5t-54.5 21t-21.5 55z" />
    <glyph glyph-name="k" unicode="k" horiz-adv-x="601" 
d="M408 12l-193 212v-207q0 -7 -5 -12t-12 -5h-101q-7 0 -12 5t-5 12v666q0 7 5 12t12 5h101q7 0 12 -5t5 -12v-398l180 202q11 13 28 13h123q5 0 7 -4.5t-2 -7.5l-214 -228l230 -248q4 -3 2 -7.5t-7 -4.5h-125q-15 0 -29 12z" />
    <glyph glyph-name="l" unicode="l" horiz-adv-x="297" 
d="M217 684v-667q0 -7 -5 -12t-12 -5h-103q-7 0 -12 5t-5 12v667q0 7 5 12t12 5h103q7 0 12 -5t5 -12z" />
    <glyph glyph-name="m" unicode="m" horiz-adv-x="855" 
d="M215 344v-327q0 -7 -5 -12t-12 -5h-101q-7 0 -12 5t-5 12v466q0 7 5 12t12 5h58q17 0 22 -16l7 -22q54 46 126 46q100 0 147 -50q64 50 140 50q40 0 71 -8t51.5 -20.5t35.5 -33.5t22.5 -40t11.5 -47.5t5 -49t1 -51.5v-241q0 -7 -5 -12t-12 -5h-104q-7 0 -12 5t-5 12v254
q0 26 -1 41.5t-6.5 35.5t-20 30t-37.5 10q-51 0 -85 -43v-328q0 -7 -5 -12t-12 -5h-103q-7 0 -12 5t-5 12v254q0 26 -1 41.5t-6.5 35.5t-20 30t-37.5 10q-58 0 -90 -44z" />
    <glyph glyph-name="n" unicode="n" 
d="M215 344v-327q0 -7 -5 -12t-12 -5h-101q-7 0 -12 5t-5 12v466q0 7 5 12t12 5h58q17 0 22 -16l7 -20q54 44 126 44q55 0 95 -15.5t63 -38.5t36 -58t17 -66.5t4 -71.5v-241q0 -7 -5 -12t-12 -5h-104q-7 0 -12 5t-5 12v241q0 129 -82 129q-59 0 -90 -43z" />
    <glyph glyph-name="o" unicode="o" horiz-adv-x="618" 
d="M309 510q68 0 119 -25t78 -66t39.5 -83.5t12.5 -85.5q0 -44 -12.5 -86.5t-39.5 -83t-78 -65t-119 -24.5t-119 24.5t-78 65t-39.5 83t-12.5 86.5q0 43 12.5 85.5t39.5 83.5t78 66t119 25zM309 112q35 0 59.5 16t35.5 41t15 44.5t4 36.5t-4 37t-15 45t-35.5 41t-59.5 16
t-60 -16.5t-35.5 -41t-15 -44.5t-4.5 -37t4.5 -36.5t15 -44.5t35.5 -41t60 -16z" />
    <glyph glyph-name="p" unicode="p" horiz-adv-x="614" 
d="M322 -8q-70 0 -107 17v-192q0 -7 -5 -12t-12 -5h-101q-7 0 -12 5t-5 12v667q0 7 5 12t12 5h59q17 0 22 -16l6 -19q21 19 60 31.5t71 12.5q66 0 115 -25t74.5 -65t37.5 -82.5t12 -86.5q0 -35 -6 -68t-22 -67.5t-41 -60.5t-67 -43.5t-96 -19.5zM305 388q-29 0 -54 -12
t-36 -27v-212q37 -24 82 -24q38 0 64.5 14t38 37.5t16 43.5t4.5 43q0 20 -4 39.5t-14.5 43.5t-35.5 39t-61 15z" />
    <glyph glyph-name="q" unicode="q" horiz-adv-x="614" 
d="M292 -8q-54 2 -96 19.5t-67 43.5t-41 60.5t-22 67.5t-6 68q0 44 12 86.5t37.5 82.5t74.5 65t115 25q32 0 71 -12.5t60 -31.5l6 19q5 16 22 16h59q7 0 12 -5t5 -12v-667q0 -7 -5 -12t-12 -5h-101q-7 0 -12 5t-5 12v192q-30 -14 -107 -17zM309 388q-36 0 -61 -15t-35.5 -39
t-14.5 -43.5t-4 -39.5q0 -23 4.5 -43t16 -43.5t38 -37.5t64.5 -14q45 0 82 24v212q-11 15 -36 27t-54 12z" />
    <glyph glyph-name="r" unicode="r" horiz-adv-x="415" 
d="M390 482l-29 -92q-5 -15 -22 -13q-26 4 -42 4q-58 0 -82 -41v-323q0 -7 -5 -12t-12 -5h-101q-7 0 -12 5t-5 12v466q0 7 5 12t12 5h58q17 0 23 -16l6 -15q57 37 128 37q29 0 66 -5q7 -1 10.5 -7t1.5 -12z" />
    <glyph glyph-name="s" unicode="s" horiz-adv-x="512" 
d="M207 357q0 -19 74 -42q31 -10 47.5 -16t44 -21t42 -31t26 -42.5t11.5 -59.5q0 -68 -53 -110.5t-135 -42.5q-96 0 -189 53q-7 3 -9 10t2 13l38 76q9 14 23 7q79 -38 130 -38q23 0 39 8.5t16 22.5q0 20 -20.5 31t-62.5 23q-35 11 -55.5 19.5t-47 26t-39.5 45t-13 64.5
q0 72 46.5 113.5t123.5 41.5q82 0 179 -45q15 -8 8 -22l-37 -81q-7 -15 -23 -8q-51 23 -111 32q-24 4 -39.5 -3.5t-15.5 -23.5z" />
    <glyph glyph-name="t" unicode="t" horiz-adv-x="370" 
d="M87 380h-35q-7 0 -12 5t-5 12v86q0 7 5 12t12 5h35l8 81q2 17 19 17h92q7 0 12 -5t5 -12v-81h77q7 0 12 -5t5 -12v-86q0 -7 -5 -12t-12 -5h-77v-235q0 -32 28 -32q18 0 55 11q7 2 12.5 -2t6.5 -11l16 -76q3 -17 -12 -22q-75 -19 -123 -19q-38 0 -64 15.5t-37 40t-14.5 43
t-3.5 37.5v250z" />
    <glyph glyph-name="u" unicode="u" 
d="M370 156v327q0 7 5 12t12 5h101q7 0 12 -5t5 -12v-466q0 -7 -5 -12t-12 -5h-58q-17 0 -22 16l-7 20q-54 -44 -126 -44q-55 0 -95 15.5t-63 38.5t-36 58t-17 66.5t-4 71.5v241q0 7 5 12t12 5h104q7 0 12 -5t5 -12v-241q0 -129 82 -129q59 0 90 43z" />
    <glyph glyph-name="v" unicode="v" horiz-adv-x="564" 
d="M282 252l99 232q6 16 24 16h115q6 0 9 -5t1 -10l-232 -482q-5 -10 -17 -10q-11 0 -16 10l-231 482q-2 5 1 10t9 5h115q18 0 24 -16z" />
    <glyph glyph-name="w" unicode="w" horiz-adv-x="834" 
d="M431 497l122 -257l101 244q6 16 24 16h109q6 0 9 -5t1 -11l-216 -483q-3 -10 -15 -10q-10 0 -15 9l-134 246l-134 -246q-5 -9 -16 -9t-14 10l-216 483q-2 6 1 11t9 5h109q18 0 23 -16l102 -244l122 257q4 9 14 9t14 -9z" />
    <glyph glyph-name="x" unicode="x" horiz-adv-x="504" 
d="M465 485l-144 -235l144 -235q3 -5 0 -10t-8 -5h-121q-17 0 -25 15l-59 114l-59 -114q-8 -15 -25 -15h-121q-6 0 -8.5 5t0.5 10l143 235l-143 235q-3 5 -0.5 10t8.5 5h121q17 0 25 -15l59 -114l59 114q8 15 25 15h121q5 0 8 -5t0 -10z" />
    <glyph glyph-name="y" unicode="y" horiz-adv-x="609" 
d="M143 -183l92 223l-198 444q-2 6 1 11t9 5h121q18 0 23 -16l114 -285l116 285q5 16 23 16h118q6 0 9 -5t1 -11l-283 -667q-6 -16 -24 -16h-111q-6 0 -9.5 5t-1.5 11z" />
    <glyph glyph-name="z" unicode="z" horiz-adv-x="509" 
d="M67 388v95q0 7 5 12t12 5h349q7 0 12 -5t5 -12q0 -16 -8 -32l-175 -322h170q7 0 12 -5t5 -12v-95q0 -7 -5 -12t-12 -5h-356q-7 0 -12 5t-5 12v8q0 16 8 32l172 314h-160q-7 0 -12 5t-5 12z" />
    <glyph glyph-name="braceleft" unicode="{" horiz-adv-x="322" 
d="M251 777h24q7 0 12 -5t5 -12v-72q0 -7 -5 -12t-12 -5h-3h-8t-12.5 -4t-16 -11t-11 -24t-5.5 -41v-215q0 -26 -15.5 -51t-34.5 -35q19 -13 34.5 -37.5t15.5 -50.5v-215q0 -21 5 -37t12 -24t15.5 -12.5t13.5 -5.5t8 -1h2q7 0 12 -5t5 -12v-72q0 -7 -5 -12t-12 -5h-24
q-7 0 -19.5 1.5t-39 11.5t-47.5 27.5t-38 53.5t-17 85v216q0 20 -10 32.5t-23 15.5h-10q-7 0 -12 5t-5 12v58q0 7 5 12t12 5h10q13 2 23 14t10 33v216q0 48 17 84.5t38 53.5t47.5 27t39 11.5t19.5 1.5z" />
    <glyph glyph-name="bar" unicode="|" horiz-adv-x="222" 
d="M145 -201h-68q-7 0 -12 5t-5 12v938q0 7 5 12t12 5h68q7 0 12 -5t5 -12v-938q0 -7 -5 -12t-12 -5z" />
    <glyph glyph-name="braceright" unicode="}" horiz-adv-x="322" 
d="M47 777h24q7 0 19.5 -1.5t39 -11.5t47.5 -27t38 -53.5t17 -84.5v-216q0 -21 10 -33t23 -14h10q7 0 12 -5t5 -12v-58q0 -7 -5 -12t-12 -5h-10q-13 -3 -23 -15.5t-10 -32.5v-216q0 -49 -17 -85t-38 -53.5t-47.5 -27.5t-39 -11.5t-19.5 -1.5h-24q-7 0 -12 5t-5 12v72
q0 7 5 12t12 5h2q3 0 8 1t13.5 5.5t15.5 12.5t12 24t5 37v215q0 26 15.5 50.5t34.5 37.5q-19 10 -34.5 35t-15.5 51v215q0 24 -5.5 41t-11 24t-16 11t-12.5 4h-8h-3q-7 0 -12 5t-5 12v72q0 7 5 12t12 5z" />
    <glyph glyph-name="asciitilde" unicode="~" horiz-adv-x="630" 
d="M132 216l-58 40q-13 10 -5 25q69 113 169 113q34 0 92 -32q42 -24 66 -24q34 0 76 53q11 13 25 3l59 -43q14 -11 5 -25q-68 -116 -166 -116q-46 0 -104 36q-42 22 -57 22q-36 0 -77 -49q-12 -12 -25 -3z" />
    <glyph glyph-name="exclamdown" unicode="&#xa1;" horiz-adv-x="352" 
d="M245 82v-264q0 -7 -5 -12t-12 -5h-102q-7 0 -12 5t-5 12v264l17 195q2 17 19 17h64q18 0 18 -17zM100 433q0 32 21.5 54.5t54.5 22.5q32 0 54 -22.5t22 -54.5q0 -33 -22 -55t-54 -22q-33 0 -54.5 22t-21.5 55z" />
    <glyph glyph-name="cent" unicode="&#xa2;" horiz-adv-x="554" 
d="M432 160l57 -69q11 -13 -1 -25q-58 -55 -128 -68v-68q0 -7 -5 -12t-12 -5h-68q-7 0 -12 5t-5 12v68q-54 9 -94 36t-61.5 63.5t-32 74.5t-10.5 76q0 41 9.5 79.5t30.5 76.5t61.5 64.5t96.5 35.5v61q0 7 5 12t12 5h68q7 0 12 -5t5 -12v-62q73 -16 137 -82q12 -12 1 -25
l-56 -61q-10 -12 -23 -1q-53 48 -109 48q-54 0 -84.5 -39t-30.5 -92q0 -59 34 -93.5t82 -34.5q51 0 97 39q14 10 24 -2z" />
    <glyph glyph-name="sterling" unicode="&#xa3;" horiz-adv-x="646" 
d="M463 655l-28 -75q-5 -16 -22 -10q-45 16 -80 16q-22 0 -37 -12.5t-15 -40.5v-33h76q7 0 12 -5t5 -12v-83q0 -7 -5 -12t-12 -5h-76v-217q15 -3 55.5 -23.5t66.5 -20.5q17 0 41 13.5t45 40.5q10 13 24 4l59 -43q14 -11 5 -25q-34 -56 -81.5 -85t-93.5 -29q-36 0 -95.5 28.5
t-87.5 28.5q-36 0 -77 -49q-12 -12 -25 -4l-60 40q-14 9 -5 24q39 66 93 95v222h-35q-7 0 -12 5t-5 12v83q0 7 5 12t12 5h35v37q0 83 50.5 126.5t129.5 43.5q62 0 129 -29q14 -7 9 -23z" />
    <glyph glyph-name="currency" unicode="&#xa4;" horiz-adv-x="664" 
d="M535 285q0 -57 -20 -101l77 -77q12 -12 0 -24l-51 -50q-12 -12 -24 0l-72 72q-51 -30 -113 -30q-65 0 -113 29l-72 -71q-12 -12 -24 0l-51 51q-12 12 0 24l79 76q-22 44 -22 101q0 61 25 110l-81 82q-12 12 0 24l51 52q12 12 24 0l81 -82q46 24 103 24q60 0 105 -26
l80 84q12 10 24 0l51 -52q12 -12 0 -24l-83 -83q26 -48 26 -109zM332 206q25 0 41 16.5t20 32.5t4 30q0 10 -2.5 21.5t-8.5 25.5t-20 23.5t-34 9.5q-37 0 -51 -27t-14 -53q0 -15 3.5 -30.5t19.5 -32t42 -16.5z" />
    <glyph glyph-name="yen" unicode="&#xa5;" horiz-adv-x="676" 
d="M495 57h-87v-40q0 -7 -5 -12t-12 -5h-107q-7 0 -12 5t-5 12v40h-88q-7 0 -12 5t-5 12v67q0 7 5 12t12 5h88v62h-88q-7 0 -12 5t-5 12v69q0 7 5 12t12 5h80l-220 362q-3 5 -0.5 10t8.5 5h121q16 0 26 -15l143 -239l144 239q10 15 26 15h122q5 0 8 -5t0 -10l-223 -362h81
q7 0 12 -5t5 -12v-69q0 -7 -5 -12t-12 -5h-87v-62h87q7 0 12 -5t5 -12v-67q0 -7 -5 -12t-12 -5z" />
    <glyph glyph-name="brokenbar" unicode="&#xa6;" horiz-adv-x="222" 
d="M162 171v-353q0 -7 -5 -12t-12 -5h-68q-7 0 -12 5t-5 12v353q0 7 5 12t12 5h68q7 0 12 -5t5 -12zM162 757v-352q0 -7 -5 -12t-12 -5h-68q-7 0 -12 5t-5 12v352q0 7 5 12t12 5h68q7 0 12 -5t5 -12z" />
    <glyph glyph-name="section" unicode="&#xa7;" horiz-adv-x="603" 
d="M90 -96l53 68q10 12 25 3q83 -56 132 -56q28 0 49.5 15t21.5 41q0 47 -110 101v1q-71 31 -116 82t-45 118q0 72 58 125q-51 63 -51 125q0 68 53 124t151 56q91 0 189 -67q14 -11 4 -24l-50 -74q-10 -13 -25 -5q-70 40 -113 43q-35 0 -53.5 -14.5t-20.5 -34.5
q1 -22 25.5 -45t62.5 -41q193 -93 193 -209q0 -71 -64 -130q55 -64 55 -134q0 -80 -58.5 -130.5t-142.5 -50.5q-118 0 -220 89q-13 10 -3 24zM231 285q0 -20 14.5 -38.5t29.5 -28t43 -24t36 -19.5q27 30 29 55q0 20 -21 37t-61.5 37t-46.5 24q-23 -21 -23 -43z" />
    <glyph glyph-name="dieresis" unicode="&#xa8;" horiz-adv-x="582" 
d="M99 667q0 32 22 54.5t55 22.5q32 0 54 -22.5t22 -54.5q0 -33 -22 -54.5t-54 -21.5q-33 0 -55 21.5t-22 54.5zM328 667q0 32 22 54.5t55 22.5q32 0 54 -22.5t22 -54.5q0 -33 -22 -54.5t-54 -21.5q-33 0 -55 21.5t-22 54.5z" />
    <glyph glyph-name="copyright" unicode="&#xa9;" horiz-adv-x="586" 
d="M293 705q105 0 179 -74t74 -179t-74 -179t-179 -74q-100 0 -176.5 74t-76.5 181q0 99 74 175t179 76zM293 272q76 0 128 52t52 128t-52 128.5t-128 52.5t-128.5 -52.5t-52.5 -128.5t52.5 -128t128.5 -52zM235 450q0 31 18 50.5t44 19.5q28 0 54 -22q12 -10 24 0l22 24
q12 12 1 25q-44 46 -101 46q-38 0 -67.5 -14t-45 -36.5t-23.5 -46t-8 -46.5q0 -54 35.5 -99t108.5 -45q57 0 101 46q11 13 -1 25l-21 22q-11 10 -25 1q-26 -20 -54 -20q-26 0 -44 19t-18 51z" />
    <glyph glyph-name="ordfeminine" unicode="&#xaa;" horiz-adv-x="402" 
d="M205 709q37 0 63 -9.5t40 -24t22 -37t10 -41.5t2 -46v-202q0 -7 -5 -12t-12 -5h-36q-17 0 -22 16l-2 8q-34 -29 -88 -31q-41 -2 -70 9t-42.5 30.5t-19 38.5t-5.5 38q0 123 158 123q17 0 43 -6q0 37 -11.5 49t-37.5 12q-32 0 -83 -20q-16 -5 -23 10l-19 44q-7 16 8 24
q56 27 130 32zM241 441v40q-29 8 -46 8q-60 0 -60 -43q0 -16 13 -25t31 -9q43 0 62 29z" />
    <glyph glyph-name="guillemotleft" unicode="&#xab;" horiz-adv-x="553" 
d="M176 256l103 -130q11 -13 -2 -24l-47 -42q-13 -11 -25 1l-171 183q-4 6 -4 11q0 6 4 12l171 182q13 11 25 1l47 -42q13 -11 2 -24zM409 256l103 -130q11 -13 -2 -24l-47 -42q-13 -11 -25 1l-171 183q-4 6 -4 11q0 6 4 12l171 182q13 11 25 1l47 -42q13 -11 2 -24z" />
    <glyph glyph-name="logicalnot" unicode="&#xac;" horiz-adv-x="627" 
d="M547 403v-300q0 -7 -5 -12t-12 -5h-187q-7 0 -12 5t-5 12v110h-229q-7 0 -12 5t-5 12v173q0 7 5 12t12 5h433q7 0 12 -5t5 -12z" />
    <glyph glyph-name="uni00AD" unicode="&#xad;" horiz-adv-x="400" 
d="M78 266h248q7 0 12 -5t5 -12v-82q0 -7 -5 -12t-12 -5h-248q-7 0 -12 5t-5 12v82q0 7 5 12t12 5z" />
    <glyph glyph-name="registered" unicode="&#xae;" horiz-adv-x="586" 
d="M293 705q105 0 179 -74t74 -179t-74 -179t-179 -74q-100 0 -176.5 74t-76.5 181q0 99 74 175t179 76zM293 272q76 0 128 52t52 128t-52 128.5t-128 52.5t-128.5 -52.5t-52.5 -128.5t52.5 -128t128.5 -52zM268 404v-56q0 -7 -5 -12t-12 -5h-34q-7 0 -12 5t-5 12v216
q0 7 5 12t12 5h83q49 0 71.5 -27.5t22.5 -60.5q0 -20 -12 -40.5t-29 -32.5l42 -74q2 -5 -0.5 -10t-8.5 -5h-46q-17 0 -25 15l-31 58h-16zM268 471h35q22 1 22 22q0 8 -5.5 15.5t-18.5 7.5h-33v-45z" />
    <glyph glyph-name="macron" unicode="&#xaf;" horiz-adv-x="516" 
d="M130 694h267q7 0 12 -5t5 -12v-63q0 -7 -5 -12t-12 -5h-267q-7 0 -12 5t-5 12v63q0 7 5 12t12 5z" />
    <glyph glyph-name="degree" unicode="&#xb0;" horiz-adv-x="330" 
d="M165 440q-56 0 -95.5 39.5t-39.5 95.5t39.5 95.5t95.5 39.5t95.5 -38.5t39.5 -96.5q0 -56 -39.5 -95.5t-95.5 -39.5zM165 522q21 0 36 15t15 38q0 22 -15 36.5t-36 14.5q-22 0 -38 -15.5t-16 -35.5q0 -23 16 -38t38 -15z" />
    <glyph glyph-name="plusminus" unicode="&#xb1;" horiz-adv-x="553" 
d="M97 115h359q7 0 12 -5t5 -12v-70q0 -7 -5 -12t-12 -5h-359q-7 0 -12 5t-5 12v70q0 7 5 12t12 5zM222 199v83h-125q-7 0 -12 5t-5 12v79q0 7 5 12t12 5h125v125q0 7 5 12t12 5h80q7 0 12 -5t5 -12v-125h125q7 0 12 -5t5 -12v-79q0 -7 -5 -12t-12 -5h-125v-83q0 -7 -5 -12
t-12 -5h-80q-7 0 -12 5t-5 12z" />
    <glyph glyph-name="twosuperior" unicode="&#xb2;" horiz-adv-x="305" 
d="M72 697l-30 28q-12 12 -1 25q52 55 115 55q51 0 80 -28.5t29 -75.5q0 -39 -40 -94l-41 -57h59q7 0 12 -5t5 -12v-44q0 -7 -5 -12t-12 -5h-185q-12 0 -12 12t7 22l105 151q18 26 18 43q0 8 -6.5 15.5t-17.5 7.5q-24 0 -55 -27q-14 -10 -25 1z" />
    <glyph glyph-name="threesuperior" unicode="&#xb3;" horiz-adv-x="282" 
d="M252 700q0 -40 -31 -66q31 -24 31 -64q0 -37 -27 -70.5t-89 -33.5q-56 0 -103 38q-14 10 -2 24l27 28q10 12 24 2q24 -15 54 -15q14 0 24.5 7.5t10.5 19.5q0 15 -10 23t-25 8h-38q-7 0 -12 5t-5 12v33q0 7 5 12t12 5h38q14 0 24.5 8.5t10.5 23.5q0 12 -10.5 19.5
t-24.5 7.5q-24 0 -53 -18q-15 -9 -25 3l-25 28q-11 13 1 24q46 40 102 40q62 0 89 -33t27 -71z" />
    <glyph glyph-name="acute" unicode="&#xb4;" horiz-adv-x="510" 
d="M154 671l135 105q13 9 23 -4l45 -63q9 -14 -4 -23l-146 -90q-14 -9 -24 5l-32 46q-11 14 3 24z" />
    <glyph glyph-name="mu" unicode="&#xb5;" horiz-adv-x="605" 
d="M80 -181v664q0 7 5 12t12 5h104q7 0 12 -5t5 -12v-241q0 -129 82 -129q59 0 90 43v327q0 7 5 12t12 5h101q7 0 12 -5t5 -12v-466q0 -7 -5 -12t-12 -5h-58q-17 0 -22 16l-7 20q-56 -46 -126 -44q-51 1 -77 27v-200q0 -7 -5 -12t-12 -5h-104q-7 0 -12 5t-5 12z" />
    <glyph glyph-name="mu" unicode="&#x3bc;" horiz-adv-x="605" 
d="M80 -181v664q0 7 5 12t12 5h104q7 0 12 -5t5 -12v-241q0 -129 82 -129q59 0 90 43v327q0 7 5 12t12 5h101q7 0 12 -5t5 -12v-466q0 -7 -5 -12t-12 -5h-58q-17 0 -22 16l-7 20q-56 -46 -126 -44q-51 1 -77 27v-200q0 -7 -5 -12t-12 -5h-104q-7 0 -12 5t-5 12z" />
    <glyph glyph-name="paragraph" unicode="&#xb6;" horiz-adv-x="734" 
d="M40 491q0 28 6 55t20.5 55.5t37 50.5t59 35.5t81.5 13.5h393q7 0 12 -5t5 -12v-74q0 -7 -5 -12t-12 -5h-50v-775q0 -7 -5 -12t-12 -5h-96q-7 0 -12 5t-5 12v775h-88v-775q0 -7 -5 -12t-12 -5h-96q-7 0 -12 5t-5 12v463q-54 1 -95 21.5t-62.5 53t-31.5 66.5t-10 69z" />
    <glyph glyph-name="periodcentered" unicode="&#xb7;" horiz-adv-x="284" 
d="M60 299q0 35 23 58t58 23t59 -23t24 -58t-24 -59t-59 -24t-58 24t-23 59z" />
    <glyph glyph-name="cedilla" unicode="&#xb8;" horiz-adv-x="554" 
d="M326 -86h-17q-9 0 -15 6q-6 8 -6 16v82q0 7 5 12t12 5h48q7 0 12 -5t5 -12v-46q49 -1 72.5 -30.5t23.5 -60.5q0 -53 -34 -81t-83 -28q-44 0 -91 19q-16 7 -8 23l16 35q7 15 23 10q26 -11 50 -11q14 0 25 10t12 23q1 14 -11.5 23.5t-38.5 9.5z" />
    <glyph glyph-name="onesuperior" unicode="&#xb9;" horiz-adv-x="228" 
d="M183 782v-293q0 -7 -5 -12t-12 -5h-54q-7 0 -12 5t-5 12v191l-26 -14q-15 -9 -24 6l-16 27q-8 15 5 25l91 65q15 10 31 10h10q7 0 12 -5t5 -12z" />
    <glyph glyph-name="ordmasculine" unicode="&#xba;" horiz-adv-x="378" 
d="M189 706q54 0 89 -26.5t47.5 -59.5t12.5 -69q0 -27 -7.5 -52t-23.5 -49.5t-46.5 -39t-71.5 -14.5t-71.5 14.5t-46.5 39t-23.5 49.5t-7.5 52q0 36 12.5 69t47.5 59.5t89 26.5zM189 501q25 0 34 16.5t9 33.5q0 9 -2.5 18.5t-13 20t-27.5 10.5q-25 0 -34 -16.5t-9 -32.5
q0 -9 2.5 -19t13 -20.5t27.5 -10.5zM76 322h225q7 0 12 -5t5 -12v-71q0 -7 -5 -12t-12 -5h-225q-7 0 -12 5t-5 12v71q0 7 5 12t12 5z" />
    <glyph glyph-name="guillemotright" unicode="&#xbb;" horiz-adv-x="553" 
d="M274 126l103 130l-103 128q-11 13 2 24l47 42q12 10 25 -1l170 -182q5 -5 5 -12q0 -5 -4 -11l-171 -183q-12 -12 -25 -1l-47 42q-13 11 -2 24zM41 126l103 130l-103 128q-11 13 2 24l47 42q12 10 25 -1l170 -182q5 -5 5 -12q0 -5 -4 -11l-171 -183q-12 -12 -25 -1l-47 42
q-13 11 -2 24z" />
    <glyph glyph-name="onequarter" unicode="&#xbc;" horiz-adv-x="592" 
d="M504 685l-333 -670q-8 -15 -25 -15h-68q-6 0 -9 5t0 10l334 670q8 15 25 15h67q6 0 9 -5t0 -10zM183 686v-293q0 -7 -5 -12t-12 -5h-54q-7 0 -12 5t-5 12v191l-26 -14q-15 -9 -24 6l-16 27q-8 15 5 25l91 65q15 10 31 10h10q7 0 12 -5t5 -12zM510 48v-30q0 -7 -5 -12
t-12 -5h-49q-7 0 -12 5t-5 12v30h-115q-7 0 -12 5t-5 12v32q0 18 10 31l127 187q9 14 27 14h34q7 0 12 -5t5 -12v-190h29q7 0 12 -5t5 -12v-40q0 -7 -5 -12t-12 -5h-29zM427 183l-42 -61h42v61z" />
    <glyph glyph-name="onehalf" unicode="&#xbd;" horiz-adv-x="639" 
d="M504 685l-333 -670q-8 -15 -25 -15h-68q-6 0 -9 5t0 10l334 670q8 15 25 15h67q6 0 9 -5t0 -10zM183 686v-293q0 -7 -5 -12t-12 -5h-54q-7 0 -12 5t-5 12v191l-26 -14q-15 -9 -24 6l-16 27q-8 15 5 25l91 65q15 10 31 10h10q7 0 12 -5t5 -12zM404 225l-30 28
q-12 12 -1 25q52 55 115 55q50 0 79.5 -30.5t29.5 -73.5q0 -40 -40 -94l-43 -57h61q7 0 12 -5t5 -12v-44q0 -7 -5 -12t-12 -5h-198q-10 0 -10 10t6 18l117 157q18 24 18 43q0 8 -6.5 15.5t-17.5 7.5q-24 0 -55 -27q-14 -10 -25 1z" />
    <glyph glyph-name="threequarters" unicode="&#xbe;" horiz-adv-x="633" 
d="M541 685l-333 -670q-8 -15 -25 -15h-68q-6 0 -9 5t0 10l334 670q8 15 25 15h67q6 0 9 -5t0 -10zM547 48v-30q0 -7 -5 -12t-12 -5h-49q-7 0 -12 5t-5 12v30h-115q-7 0 -12 5t-5 12v32q0 18 10 31l127 187q9 14 27 14h34q7 0 12 -5t5 -12v-190h29q7 0 12 -5t5 -12v-40
q0 -7 -5 -12t-12 -5h-29zM464 183l-42 -61h42v61zM252 603q0 -40 -31 -66q31 -24 31 -64q0 -37 -27 -70.5t-89 -33.5q-56 0 -103 38q-14 10 -2 24l27 28q10 12 24 2q24 -15 54 -15q14 0 24.5 7.5t10.5 19.5q0 15 -10 23t-25 8h-38q-7 0 -12 5t-5 12v33q0 7 5 12t12 5h38
q14 0 24.5 8.5t10.5 23.5q0 12 -10.5 19.5t-24.5 7.5q-24 0 -53 -18q-15 -9 -25 3l-25 28q-11 13 1 24q46 40 102 40q62 0 89 -33t27 -71z" />
    <glyph glyph-name="questiondown" unicode="&#xbf;" horiz-adv-x="571" 
d="M216 209v54q0 7 5 12t12 5h93q7 0 12 -5t5 -12v-57q0 -28 -10.5 -54t-22 -40.5t-33.5 -40.5q-20 -22 -29.5 -35t-20 -35.5t-10.5 -43.5t14 -38.5t51 -15.5q44 2 112 67q12 12 24 0l61 -57q12 -14 0 -24q-53 -57 -102.5 -83t-111.5 -26q-82 0 -133.5 46.5t-51.5 129.5
q0 35 16 72t32 58.5t43 52.5q45 53 45 70zM358 429q0 -33 -22.5 -55t-55.5 -22t-55.5 22t-22.5 55t23 55.5t55 22.5q34 0 56 -21.5t22 -56.5z" />
    <glyph glyph-name="Agrave" unicode="&#xc0;" horiz-adv-x="724" 
d="M379 698l308 -683q2 -5 -1 -10t-9 -5h-123q-18 0 -23 16l-61 148h-216l-60 -148q-6 -16 -23 -16h-124q-6 0 -9 5t-1 10l307 683q6 11 17 11q13 0 18 -11zM362 433l-63 -157h126zM327 976l135 -105q14 -10 3 -24l-32 -46q-10 -14 -24 -5l-146 90q-14 10 -4 23l45 63
q9 14 23 4z" />
    <glyph glyph-name="Aacute" unicode="&#xc1;" horiz-adv-x="724" 
d="M379 698l308 -683q2 -5 -1 -10t-9 -5h-123q-18 0 -23 16l-61 148h-216l-60 -148q-6 -16 -23 -16h-124q-6 0 -9 5t-1 10l307 683q6 11 17 11q13 0 18 -11zM362 433l-63 -157h126zM397 976q14 10 23 -4l45 -63q10 -13 -4 -23l-146 -90q-14 -9 -24 5l-32 46q-11 14 3 24z
" />
    <glyph glyph-name="Acircumflex" unicode="&#xc2;" horiz-adv-x="724" 
d="M379 698l308 -683q2 -5 -1 -10t-9 -5h-123q-18 0 -23 16l-61 148h-216l-60 -148q-6 -16 -23 -16h-124q-6 0 -9 5t-1 10l307 683q6 11 17 11q13 0 18 -11zM362 433l-63 -157h126zM214 870l135 105q12 10 26 0l135 -105q14 -10 3 -24l-32 -46q-10 -13 -25 -5l-94 58
l-95 -58q-14 -9 -24 5l-32 46q-11 14 3 24z" />
    <glyph glyph-name="Atilde" unicode="&#xc3;" horiz-adv-x="724" 
d="M379 698l308 -683q2 -5 -1 -10t-9 -5h-123q-18 0 -23 16l-61 148h-216l-60 -148q-6 -16 -23 -16h-124q-6 0 -9 5t-1 10l307 683q6 11 17 11q13 0 18 -11zM362 433l-63 -157h126zM472 940l52 -27q15 -10 7 -23q-45 -87 -125 -87q-23 0 -50.5 17t-43.5 17q-25 0 -42 -24
q-9 -15 -23 -8l-48 22q-15 8 -10 23q36 91 124 91q27 0 55.5 -16t39.5 -16q22 0 40 25q9 13 24 6z" />
    <glyph glyph-name="Adieresis" unicode="&#xc4;" horiz-adv-x="724" 
d="M171 867q0 32 22 54.5t55 22.5q32 0 54 -22.5t22 -54.5q0 -33 -22 -54.5t-54 -21.5q-33 0 -55 21.5t-22 54.5zM400 867q0 32 22 54.5t55 22.5q32 0 54 -22.5t22 -54.5q0 -33 -22 -54.5t-54 -21.5q-33 0 -55 21.5t-22 54.5zM379 698l308 -683q2 -5 -1 -10t-9 -5h-123
q-18 0 -23 16l-61 148h-216l-60 -148q-6 -16 -23 -16h-124q-6 0 -9 5t-1 10l307 683q6 11 17 11q13 0 18 -11zM362 433l-63 -157h126z" />
    <glyph glyph-name="Aring" unicode="&#xc5;" horiz-adv-x="724" 
d="M260 888q0 42 30 72t72 30t71.5 -30t29.5 -72t-29.5 -71.5t-71.5 -29.5t-72 29.5t-30 71.5zM332 888q0 -11 9 -20t21 -9q11 0 20 9t9 20q0 12 -9 21t-20 9q-12 0 -21 -9t-9 -21zM379 698l308 -683q2 -5 -1 -10t-9 -5h-123q-18 0 -23 16l-61 148h-216l-60 -148
q-6 -16 -23 -16h-124q-6 0 -9 5t-1 10l307 683q6 11 17 11q13 0 18 -11zM362 433l-63 -157h126z" />
    <glyph glyph-name="AE" unicode="&#xc6;" horiz-adv-x="898" 
d="M748 280h-245v-150h318q7 0 12 -5t5 -12v-96q0 -7 -5 -12t-12 -5h-442q-7 0 -12 5t-5 12v147h-106l-62 -149q-5 -16 -23 -16h-124q-6 0 -9 5t-1 10l305 670q6 16 24 16h455q7 0 12 -5t5 -12v-96q0 -7 -5 -12t-12 -5h-318v-160h245q7 0 12 -5t5 -12v-96q0 -7 -5 -12
t-12 -5zM362 418l-57 -137h57v137z" />
    <glyph glyph-name="Ccedilla" unicode="&#xc7;" horiz-adv-x="741" 
d="M394 -86h-17q-9 0 -15 6q-6 8 -6 16v58q-81 9 -141 46t-92.5 90.5t-47.5 108.5t-15 112q0 47 10 93.5t36 95.5t64 86t99.5 60.5t138.5 23.5q150 0 262 -119q12 -11 -1 -24l-69 -66q-11 -13 -23 1q-32 32 -79 54t-90 22q-51 0 -90 -18.5t-59.5 -44.5t-34 -60t-17 -58.5
t-3.5 -45.5t4 -45.5t17 -58t34 -59.5t60 -44.5t90 -18.5q88 0 175 70q13 11 24 -2l58 -71q11 -13 -1 -25q-101 -94 -227 -104v-21q49 -1 72.5 -30.5t23.5 -60.5q0 -53 -34 -81t-83 -28q-44 0 -91 19q-16 7 -8 23l16 35q7 15 23 10q26 -11 50 -11q14 0 25 10t12 23
q1 14 -11.5 23.5t-38.5 9.5z" />
    <glyph glyph-name="Egrave" unicode="&#xc8;" horiz-adv-x="636" 
d="M486 280h-245v-150h318q7 0 12 -5t5 -12v-96q0 -7 -5 -12t-12 -5h-442q-7 0 -12 5t-5 12v666q0 7 5 12t12 5h442q7 0 12 -5t5 -12v-96q0 -7 -5 -12t-12 -5h-318v-160h245q7 0 12 -5t5 -12v-96q0 -7 -5 -12t-12 -5zM283 976l135 -105q14 -10 3 -24l-32 -46q-10 -14 -24 -5
l-146 90q-14 10 -4 23l45 63q9 14 23 4z" />
    <glyph glyph-name="Eacute" unicode="&#xc9;" horiz-adv-x="636" 
d="M486 280h-245v-150h318q7 0 12 -5t5 -12v-96q0 -7 -5 -12t-12 -5h-442q-7 0 -12 5t-5 12v666q0 7 5 12t12 5h442q7 0 12 -5t5 -12v-96q0 -7 -5 -12t-12 -5h-318v-160h245q7 0 12 -5t5 -12v-96q0 -7 -5 -12t-12 -5zM218 871l135 105q13 9 23 -4l45 -63q9 -14 -4 -23
l-146 -90q-14 -9 -24 5l-32 46q-11 14 3 24z" />
    <glyph glyph-name="Ecircumflex" unicode="&#xca;" horiz-adv-x="636" 
d="M486 280h-245v-150h318q7 0 12 -5t5 -12v-96q0 -7 -5 -12t-12 -5h-442q-7 0 -12 5t-5 12v666q0 7 5 12t12 5h442q7 0 12 -5t5 -12v-96q0 -7 -5 -12t-12 -5h-318v-160h245q7 0 12 -5t5 -12v-96q0 -7 -5 -12t-12 -5zM170 870l135 105q12 10 26 0l135 -105q14 -10 3 -24
l-32 -46q-10 -13 -25 -5l-94 58l-95 -58q-14 -9 -24 5l-32 46q-11 14 3 24z" />
    <glyph glyph-name="Edieresis" unicode="&#xcb;" horiz-adv-x="636" 
d="M138 867q0 32 22 54.5t55 22.5q32 0 54 -22.5t22 -54.5q0 -33 -22 -54.5t-54 -21.5q-33 0 -55 21.5t-22 54.5zM367 867q0 32 22 54.5t55 22.5q32 0 54 -22.5t22 -54.5q0 -33 -22 -54.5t-54 -21.5q-33 0 -55 21.5t-22 54.5zM486 280h-245v-150h318q7 0 12 -5t5 -12v-96
q0 -7 -5 -12t-12 -5h-442q-7 0 -12 5t-5 12v666q0 7 5 12t12 5h442q7 0 12 -5t5 -12v-96q0 -7 -5 -12t-12 -5h-318v-160h245q7 0 12 -5t5 -12v-96q0 -7 -5 -12t-12 -5z" />
    <glyph glyph-name="Igrave" unicode="&#xcc;" horiz-adv-x="266" 
d="M204 683v-666q0 -7 -5 -12t-12 -5h-108q-7 0 -12 5t-5 12v666q0 7 5 12t12 5h108q7 0 12 -5t5 -12zM98 976l135 -105q14 -10 3 -24l-32 -46q-10 -14 -24 -5l-146 90q-14 10 -4 23l45 63q9 14 23 4z" />
    <glyph glyph-name="Iacute" unicode="&#xcd;" horiz-adv-x="266" 
d="M204 683v-666q0 -7 -5 -12t-12 -5h-108q-7 0 -12 5t-5 12v666q0 7 5 12t12 5h108q7 0 12 -5t5 -12zM33 871l135 105q13 9 23 -4l45 -63q9 -14 -4 -23l-146 -90q-14 -9 -24 5l-32 46q-11 14 3 24z" />
    <glyph glyph-name="Icircumflex" unicode="&#xce;" horiz-adv-x="322" 
d="M232 683v-666q0 -7 -5 -12t-12 -5h-108q-7 0 -12 5t-5 12v666q0 7 5 12t12 5h108q7 0 12 -5t5 -12zM13 870l135 105q12 10 26 0l135 -105q14 -10 3 -24l-32 -46q-10 -13 -25 -5l-94 58l-95 -58q-14 -9 -24 5l-32 46q-11 14 3 24z" />
    <glyph glyph-name="Idieresis" unicode="&#xcf;" horiz-adv-x="398" 
d="M270 683v-666q0 -7 -5 -12t-12 -5h-108q-7 0 -12 5t-5 12v666q0 7 5 12t12 5h108q7 0 12 -5t5 -12zM2 879q5 26 26 43t49 17q32 0 54 -22.5t22 -54.5q0 -33 -22 -54.5t-54 -21.5q-28 0 -49 16.5t-26 42.5q-5 17 0 34zM245 862q0 32 22 54.5t55 22.5q32 0 54 -22.5
t22 -54.5q0 -33 -22 -54.5t-54 -21.5q-33 0 -55 21.5t-22 54.5z" />
    <glyph glyph-name="Eth" unicode="&#xd0;" horiz-adv-x="755" 
d="M46 410h54v273q0 7 5 12t12 5h232q76 0 137.5 -22.5t99.5 -58t63.5 -83t35.5 -93t10 -92.5q0 -48 -10 -94.5t-35.5 -93.5t-63.5 -82.5t-99 -58t-138 -22.5h-232q-7 0 -12 5t-5 12v278h-54q-7 0 -12 5t-5 12v81q0 7 5 12t12 5zM240 130h109q62 0 105.5 25.5t63 65t27 71
t7.5 59.5t-7.5 59.5t-27 70.5t-63 64.5t-105.5 25.5h-109v-161h119q7 0 12 -5t5 -12v-81q0 -7 -5 -12t-12 -5h-119v-165z" />
    <glyph glyph-name="Ntilde" unicode="&#xd1;" horiz-adv-x="776" 
d="M225 0h-108q-7 0 -12 5t-5 12v677q0 14 13 14q14 0 24 -10l397 -395v380q0 7 5 12t12 5h108q7 0 12 -5t5 -12v-677q0 -12 -12 -12q-11 0 -21 8l-401 405v-390q0 -7 -5 -12t-12 -5zM498 927l52 -27q15 -10 7 -23q-45 -87 -125 -87q-23 0 -50.5 17t-43.5 17q-25 0 -42 -24
q-9 -15 -23 -8l-48 22q-15 8 -10 23q36 91 124 91q27 0 55.5 -16t39.5 -16q22 0 40 25q9 13 24 6z" />
    <glyph glyph-name="Ograve" unicode="&#xd2;" horiz-adv-x="814" 
d="M408 712q76 0 137.5 -24t99.5 -61t63.5 -86t35.5 -96t10 -94q0 -48 -10 -95.5t-35.5 -96.5t-63.5 -86t-99.5 -60.5t-137.5 -23.5q-77 0 -138.5 23.5t-99.5 60.5t-64 86t-36 96.5t-10 95.5q0 47 10 94t36 96t64 86t99.5 61t138.5 24zM408 120q50 0 88.5 19t59 45.5
t33.5 61t17 59.5t4 46t-4 46t-17 59t-33.5 60.5t-59 45t-88.5 18.5q-51 0 -90 -18.5t-59.5 -45t-34 -60.5t-17 -59t-3.5 -46t3.5 -46t17 -59.5t34 -61t59.5 -45.5t90 -19zM372 976l135 -105q14 -10 3 -24l-32 -46q-10 -14 -24 -5l-146 90q-14 10 -4 23l45 63q9 14 23 4z" />
    <glyph glyph-name="Oacute" unicode="&#xd3;" horiz-adv-x="814" 
d="M408 712q76 0 137.5 -24t99.5 -61t63.5 -86t35.5 -96t10 -94q0 -48 -10 -95.5t-35.5 -96.5t-63.5 -86t-99.5 -60.5t-137.5 -23.5q-77 0 -138.5 23.5t-99.5 60.5t-64 86t-36 96.5t-10 95.5q0 47 10 94t36 96t64 86t99.5 61t138.5 24zM408 120q50 0 88.5 19t59 45.5
t33.5 61t17 59.5t4 46t-4 46t-17 59t-33.5 60.5t-59 45t-88.5 18.5q-51 0 -90 -18.5t-59.5 -45t-34 -60.5t-17 -59t-3.5 -46t3.5 -46t17 -59.5t34 -61t59.5 -45.5t90 -19zM307 871l135 105q14 10 23 -4l45 -63q10 -13 -4 -23l-146 -90q-14 -9 -24 5l-32 46q-11 14 3 24z" />
    <glyph glyph-name="Ocircumflex" unicode="&#xd4;" horiz-adv-x="814" 
d="M408 712q76 0 137.5 -24t99.5 -61t63.5 -86t35.5 -96t10 -94q0 -48 -10 -95.5t-35.5 -96.5t-63.5 -86t-99.5 -60.5t-137.5 -23.5q-77 0 -138.5 23.5t-99.5 60.5t-64 86t-36 96.5t-10 95.5q0 47 10 94t36 96t64 86t99.5 61t138.5 24zM408 120q50 0 88.5 19t59 45.5
t33.5 61t17 59.5t4 46t-4 46t-17 59t-33.5 60.5t-59 45t-88.5 18.5q-51 0 -90 -18.5t-59.5 -45t-34 -60.5t-17 -59t-3.5 -46t3.5 -46t17 -59.5t34 -61t59.5 -45.5t90 -19zM259 873l135 105q12 10 26 0l135 -105q14 -10 3 -24l-32 -46q-10 -13 -25 -5l-94 58l-95 -58
q-14 -9 -24 5l-32 46q-11 14 3 24z" />
    <glyph glyph-name="Otilde" unicode="&#xd5;" horiz-adv-x="814" 
d="M408 712q76 0 137.5 -24t99.5 -61t63.5 -86t35.5 -96t10 -94q0 -48 -10 -95.5t-35.5 -96.5t-63.5 -86t-99.5 -60.5t-137.5 -23.5q-77 0 -138.5 23.5t-99.5 60.5t-64 86t-36 96.5t-10 95.5q0 47 10 94t36 96t64 86t99.5 61t138.5 24zM408 120q50 0 88.5 19t59 45.5
t33.5 61t17 59.5t4 46t-4 46t-17 59t-33.5 60.5t-59 45t-88.5 18.5q-51 0 -90 -18.5t-59.5 -45t-34 -60.5t-17 -59t-3.5 -46t3.5 -46t17 -59.5t34 -61t59.5 -45.5t90 -19zM502 935l82 -43q-46 -102 -133 -102q-23 0 -50.5 17t-43.5 17q-32 0 -50 -39l-78 36q18 59 53.5 83
t75.5 24q27 0 55.5 -16t39.5 -16q27 0 49 39z" />
    <glyph glyph-name="Odieresis" unicode="&#xd6;" horiz-adv-x="814" 
d="M408 712q76 0 137.5 -24t99.5 -61t63.5 -86t35.5 -96t10 -94q0 -48 -10 -95.5t-35.5 -96.5t-63.5 -86t-99.5 -60.5t-137.5 -23.5q-77 0 -138.5 23.5t-99.5 60.5t-64 86t-36 96.5t-10 95.5q0 47 10 94t36 96t64 86t99.5 61t138.5 24zM408 120q50 0 88.5 19t59 45.5
t33.5 61t17 59.5t4 46t-4 46t-17 59t-33.5 60.5t-59 45t-88.5 18.5q-51 0 -90 -18.5t-59.5 -45t-34 -60.5t-17 -59t-3.5 -46t3.5 -46t17 -59.5t34 -61t59.5 -45.5t90 -19zM216 867q0 32 22 54.5t55 22.5q32 0 54 -22.5t22 -54.5q0 -33 -22 -54.5t-54 -21.5q-33 0 -55 21.5
t-22 54.5zM445 867q0 32 22 54.5t55 22.5q32 0 54 -22.5t22 -54.5q0 -33 -22 -54.5t-54 -21.5q-33 0 -55 21.5t-22 54.5z" />
    <glyph glyph-name="multiply" unicode="&#xd7;" horiz-adv-x="562" 
d="M369 33l-88 88l-89 -88q-12 -12 -24 0l-56 56q-12 12 0 24l89 88l-89 89q-12 12 0 24l57 56q12 12 24 0l88 -88l89 88q12 12 24 0l56 -56q12 -12 0 -24l-89 -88l89 -89q12 -12 0 -24l-57 -56q-12 -12 -24 0z" />
    <glyph glyph-name="Oslash" unicode="&#xd8;" horiz-adv-x="814" 
d="M674 594q80 -101 80 -243q0 -48 -10 -95.5t-35.5 -96.5t-63.5 -86t-99.5 -60.5t-137.5 -23.5q-118 0 -198 53l-46 -55q-11 -13 -24 -2l-52 43q-13 11 -2 24l50 59q-76 99 -76 240q0 47 10 94t36 96t64 86t99.5 61t138.5 24q108 0 190 -50l40 47q11 13 24 2l52 -43
q13 -11 2 -24zM204 351q0 -67 28 -125l276 329q-43 25 -100 25q-51 0 -90 -18.5t-59.5 -45t-34 -60.5t-17 -59t-3.5 -46zM408 120q50 0 88.5 19t59 45.5t33.5 61t17 59.5t4 46q0 70 -32 129l-278 -332q44 -28 108 -28z" />
    <glyph glyph-name="Ugrave" unicode="&#xd9;" horiz-adv-x="736" 
d="M471 847l-32 -46q-10 -14 -24 -5l-146 90q-14 10 -4 23l45 63q9 14 23 4l135 -105q14 -10 3 -24zM520 700h109q7 0 12 -5t5 -12v-411q0 -47 -15 -93.5t-46 -89.5t-87.5 -69.5t-129.5 -26.5t-129.5 26.5t-87.5 69.5t-46 89.5t-15 93.5v411q0 7 5 12t12 5h108q7 0 12 -5
t5 -12v-411q0 -18 6.5 -41t20.5 -49t42.5 -43t66.5 -17t66.5 17t42 43t20 49t6.5 41v411q0 7 5 12t12 5z" />
    <glyph glyph-name="Uacute" unicode="&#xda;" horiz-adv-x="736" 
d="M265 847q-11 14 3 24l135 105q14 10 23 -4l45 -63q10 -13 -4 -23l-146 -90q-14 -9 -24 5zM520 700h109q7 0 12 -5t5 -12v-411q0 -47 -15 -93.5t-46 -89.5t-87.5 -69.5t-129.5 -26.5t-129.5 26.5t-87.5 69.5t-46 89.5t-15 93.5v411q0 7 5 12t12 5h108q7 0 12 -5t5 -12
v-411q0 -18 6.5 -41t20.5 -49t42.5 -43t66.5 -17t66.5 17t42 43t20 49t6.5 41v411q0 7 5 12t12 5z" />
    <glyph glyph-name="Ucircumflex" unicode="&#xdb;" horiz-adv-x="736" 
d="M368 856l-95 -58q-14 -9 -24 5l-32 46q-11 14 3 24l135 105q12 10 26 0l135 -105q14 -10 3 -24l-32 -46q-10 -13 -25 -5zM520 700h109q7 0 12 -5t5 -12v-411q0 -47 -15 -93.5t-46 -89.5t-87.5 -69.5t-129.5 -26.5t-129.5 26.5t-87.5 69.5t-46 89.5t-15 93.5v411q0 7 5 12
t12 5h108q7 0 12 -5t5 -12v-411q0 -18 6.5 -41t20.5 -49t42.5 -43t66.5 -17t66.5 17t42 43t20 49t6.5 41v411q0 7 5 12t12 5z" />
    <glyph glyph-name="Udieresis" unicode="&#xdc;" horiz-adv-x="736" 
d="M177 867q0 32 22 54.5t55 22.5q32 0 54 -22.5t22 -54.5q0 -33 -22 -54.5t-54 -21.5q-33 0 -55 21.5t-22 54.5zM406 867q0 32 22 54.5t55 22.5q32 0 54 -22.5t22 -54.5q0 -33 -22 -54.5t-54 -21.5q-33 0 -55 21.5t-22 54.5zM520 700h109q7 0 12 -5t5 -12v-411
q0 -47 -15 -93.5t-46 -89.5t-87.5 -69.5t-129.5 -26.5t-129.5 26.5t-87.5 69.5t-46 89.5t-15 93.5v411q0 7 5 12t12 5h108q7 0 12 -5t5 -12v-411q0 -18 6.5 -41t20.5 -49t42.5 -43t66.5 -17t66.5 17t42 43t20 49t6.5 41v411q0 7 5 12t12 5z" />
    <glyph glyph-name="Yacute" unicode="&#xdd;" horiz-adv-x="665" 
d="M403 313v-296q0 -7 -5 -12t-12 -5h-107q-7 0 -12 5t-5 12v294l-229 374q-3 5 0 10t8 5h122q16 0 26 -15l143 -248l143 248q10 15 26 15h123q5 0 8 -5t0 -10zM232 871l135 105q13 9 23 -4l45 -63q9 -14 -4 -23l-146 -90q-14 -9 -24 5l-32 46q-11 14 3 24z" />
    <glyph glyph-name="Thorn" unicode="&#xde;" horiz-adv-x="655" 
d="M340 83h-101v-66q0 -7 -5 -12t-12 -5h-105q-7 0 -12 5t-5 12v666q0 7 5 12t12 5h105q7 0 12 -5t5 -12v-72h101q70 0 122 -25.5t79.5 -67t40.5 -84.5t13 -87t-13 -87t-40.5 -84.5t-79.5 -67t-122 -25.5zM239 488v-281h93q36 0 63 15.5t39 39.5t17.5 45t5.5 40t-5.5 40.5
t-18 45.5t-39 39.5t-62.5 15.5h-93z" />
    <glyph glyph-name="germandbls" unicode="&#xdf;" horiz-adv-x="665" 
d="M323 106q55 3 77.5 27.5t22.5 58.5q-2 20 -17 42t-31.5 38t-30.5 39t-14 47q0 26 19.5 51.5t39 50t19.5 48.5q0 5 -0.5 10t-4.5 18t-11.5 22t-24.5 16.5t-40 7.5q-32 0 -59 -18.5t-28 -66.5v-552q0 -7 -5 -12t-12 -5h-106q-7 0 -12 5t-5 12v550q0 44 11.5 79t28.5 56.5
t41.5 38t44.5 23.5t42.5 11.5t32 5t16.5 0.5q52 0 93 -14.5t65 -36.5t39.5 -50t21 -52t5.5 -47q0 -39 -13 -68t-30.5 -49.5t-20.5 -27.5q1 -14 23 -36.5t43.5 -57.5t21.5 -82q0 -87 -61.5 -140.5t-180.5 -57.5q-7 0 -12 5t-5 12v81q0 16 17 18z" />
    <glyph glyph-name="agrave" unicode="&#xe0;" horiz-adv-x="548" 
d="M283 509q49 0 84.5 -13t54.5 -32t30 -49.5t13.5 -56.5t2.5 -62v-279q0 -7 -5 -12t-12 -5h-60q-17 0 -22 16l-5 16q-46 -39 -119 -42q-55 -2 -94 13t-57.5 41.5t-26 51.5t-7.5 51q0 166 214 166q26 0 58 -7q0 49 -15.5 65.5t-51.5 16.5q-42 0 -118 -29q-16 -5 -23 10
l-30 71q-7 16 8 24q82 41 181 45zM332 147v54q-41 11 -62 11q-81 0 -81 -58q0 -22 17 -34t42 -12q26 0 50 12t34 27zM377 647l-32 -46q-10 -14 -24 -5l-146 90q-14 10 -4 23l45 63q9 14 23 4l135 -105q14 -10 3 -24z" />
    <glyph glyph-name="aacute" unicode="&#xe1;" horiz-adv-x="548" 
d="M283 509q49 0 84.5 -13t54.5 -32t30 -49.5t13.5 -56.5t2.5 -62v-279q0 -7 -5 -12t-12 -5h-60q-17 0 -22 16l-5 16q-46 -39 -119 -42q-55 -2 -94 13t-57.5 41.5t-26 51.5t-7.5 51q0 166 214 166q26 0 58 -7q0 49 -15.5 65.5t-51.5 16.5q-42 0 -118 -29q-16 -5 -23 10
l-30 71q-7 15 8 24q97 45 181 45zM332 147v54q-41 11 -62 11q-81 0 -81 -58q0 -22 17 -34t42 -12q26 0 50 12t34 27zM373 686l-146 -90q-14 -9 -24 5l-32 46q-11 14 3 24l135 105q13 9 23 -4l45 -63q9 -14 -4 -23z" />
    <glyph glyph-name="acircumflex" unicode="&#xe2;" horiz-adv-x="548" 
d="M283 509q49 0 84.5 -13t54.5 -32t30 -49.5t13.5 -56.5t2.5 -62v-279q0 -7 -5 -12t-12 -5h-60q-17 0 -22 16l-5 16q-46 -39 -119 -42q-55 -2 -94 13t-57.5 41.5t-26 51.5t-7.5 51q0 166 214 166q26 0 58 -7q0 49 -15.5 65.5t-51.5 16.5q-42 0 -118 -29q-16 -5 -23 10
l-30 71q-7 15 8 24q97 45 181 45zM332 147v54q-41 11 -62 11q-81 0 -81 -58q0 -22 17 -34t42 -12q26 0 50 12t34 27zM274 653l-95 -58q-14 -9 -24 5l-32 46q-11 14 3 24l135 105q12 10 26 0l135 -105q14 -10 3 -24l-32 -46q-10 -13 -25 -5z" />
    <glyph glyph-name="atilde" unicode="&#xe3;" horiz-adv-x="548" 
d="M224 637q-25 0 -42 -24q-9 -15 -23 -8l-48 22q-15 8 -10 23q36 91 124 91q27 0 55.5 -16t39.5 -16q22 0 40 25q9 13 24 6l52 -27q15 -10 7 -23q-45 -87 -125 -87q-23 0 -50.5 17t-43.5 17zM283 509q49 0 84.5 -13t54.5 -32t30 -49.5t13.5 -56.5t2.5 -62v-279q0 -7 -5 -12
t-12 -5h-60q-17 0 -22 16l-5 16q-46 -39 -119 -42q-55 -2 -94 13t-57.5 41.5t-26 51.5t-7.5 51q0 166 214 166q26 0 58 -7q0 49 -15.5 65.5t-51.5 16.5q-42 0 -118 -29q-16 -5 -23 10l-30 71q-7 15 8 24q97 45 181 45zM332 147v54q-41 11 -62 11q-81 0 -81 -58q0 -22 17 -34
t42 -12q26 0 50 12t34 27z" />
    <glyph glyph-name="adieresis" unicode="&#xe4;" horiz-adv-x="548" 
d="M83 667q0 32 22 54.5t55 22.5q32 0 54 -22.5t22 -54.5q0 -33 -22 -54.5t-54 -21.5q-33 0 -55 21.5t-22 54.5zM312 667q0 32 22 54.5t55 22.5q32 0 54 -22.5t22 -54.5q0 -33 -22 -54.5t-54 -21.5q-33 0 -55 21.5t-22 54.5zM283 509q49 0 84.5 -13t54.5 -32t30 -49.5
t13.5 -56.5t2.5 -62v-279q0 -7 -5 -12t-12 -5h-60q-17 0 -22 16l-5 16q-46 -39 -119 -42q-55 -2 -94 13t-57.5 41.5t-26 51.5t-7.5 51q0 166 214 166q26 0 58 -7q0 49 -15.5 65.5t-51.5 16.5q-42 0 -118 -29q-16 -5 -23 10l-30 71q-7 15 8 24q97 45 181 45zM332 147v54
q-41 11 -62 11q-81 0 -81 -58q0 -22 17 -34t42 -12q26 0 50 12t34 27z" />
    <glyph glyph-name="aring" unicode="&#xe5;" horiz-adv-x="548" 
d="M172 688q0 42 30 72t72 30t71.5 -30t29.5 -72t-29.5 -71.5t-71.5 -29.5t-72 29.5t-30 71.5zM244 688q0 -11 9 -20t21 -9q11 0 20 9t9 20q0 12 -9 21t-20 9q-12 0 -21 -9t-9 -21zM283 509q49 0 84.5 -13t54.5 -32t30 -49.5t13.5 -56.5t2.5 -62v-279q0 -7 -5 -12t-12 -5
h-60q-17 0 -22 16l-5 16q-46 -39 -119 -42q-55 -2 -94 13t-57.5 41.5t-26 51.5t-7.5 51q0 166 214 166q26 0 58 -7q0 49 -15.5 65.5t-51.5 16.5q-42 0 -118 -29q-16 -5 -23 10l-30 71q-7 15 8 24q97 45 181 45zM332 147v54q-41 11 -62 11q-81 0 -81 -58q0 -22 17 -34t42 -12
q26 0 50 12t34 27z" />
    <glyph glyph-name="ae" unicode="&#xe6;" horiz-adv-x="816" 
d="M750 227h-296q6 -47 35 -78.5t75 -31.5q58 0 111 35q14 9 24 -4l46 -63q10 -14 -3 -25q-86 -66 -178 -66q-105 0 -170 58q-60 -56 -149 -62q-55 -2 -94 13t-57.5 41.5t-26 51.5t-7.5 51q0 166 214 166q17 0 45 -4q7 28 10 35q-6 25 -21 34.5t-43 9.5q-42 0 -118 -29
q-16 -5 -23 10l-30 71q-7 16 8 24q80 39 156 44q5 0 13 0.5t12 0.5q91 0 135 -42q62 40 146 40q98 0 152.5 -58t54.5 -157q0 -24 -3 -48q0 -17 -18 -17zM327 163q-7 19 -10 42q-33 7 -47 7q-81 0 -81 -58q0 -22 17 -34t42 -12q41 0 72 27q13 9 7 28zM564 386q-80 0 -106 -79
h179q-2 78 -73 79z" />
    <glyph glyph-name="ccedilla" unicode="&#xe7;" horiz-adv-x="577" 
d="M290 -86h-17q-9 0 -15 6q-6 8 -6 16v63q-68 13 -113.5 56.5t-62 92t-16.5 100.5q0 46 11.5 88t38 82.5t78 65t122.5 24.5q103 0 187 -87q12 -12 1 -25l-56 -61q-10 -12 -23 -1q-53 48 -109 48q-54 0 -84.5 -39t-30.5 -92q0 -59 34 -93.5t82 -34.5q51 0 97 39q14 10 24 -2
l57 -69q11 -13 -1 -25q-70 -65 -154 -72v-22q49 -1 72.5 -30.5t23.5 -60.5q0 -53 -34 -81t-83 -28q-44 0 -91 19q-16 7 -8 23l16 35q7 15 23 10q26 -11 50 -11q14 0 25 10t12 23q1 14 -11.5 23.5t-38.5 9.5z" />
    <glyph glyph-name="egrave" unicode="&#xe8;" horiz-adv-x="547" 
d="M481 227h-296q6 -47 35 -78.5t75 -31.5q58 0 111 35q14 9 24 -4l46 -63q10 -14 -3 -25q-86 -66 -178 -66q-68 0 -119 24.5t-78 64t-40 82t-13 86.5q0 43 13 85t40 82t78 64.5t119 24.5q98 0 152.5 -58t54.5 -157q0 -24 -3 -48q0 -17 -18 -17zM278 385q-67 -9 -89 -78h179
q-1 41 -24.5 61t-65.5 17zM238 776l135 -105q14 -10 3 -24l-32 -46q-10 -14 -24 -5l-146 90q-14 10 -4 23l45 63q9 14 23 4z" />
    <glyph glyph-name="eacute" unicode="&#xe9;" horiz-adv-x="547" 
d="M481 227h-296q6 -47 35 -78.5t75 -31.5q58 0 111 35q14 9 24 -4l46 -63q10 -14 -3 -25q-86 -66 -178 -66q-68 0 -119 24.5t-78 64t-40 82t-13 86.5q0 43 13 85t40 82t78 64.5t119 24.5q98 0 152.5 -58t54.5 -157q0 -24 -3 -48q0 -17 -18 -17zM278 385q-67 -9 -89 -78h179
q-1 41 -24.5 61t-65.5 17zM173 671l135 105q14 10 23 -4l45 -63q10 -13 -4 -23l-146 -90q-14 -9 -24 5l-32 46q-11 14 3 24z" />
    <glyph glyph-name="ecircumflex" unicode="&#xea;" horiz-adv-x="547" 
d="M481 227h-296q6 -47 35 -78.5t75 -31.5q58 0 111 35q14 9 24 -4l46 -63q10 -14 -3 -25q-86 -66 -178 -66q-68 0 -119 24.5t-78 64t-40 82t-13 86.5q0 43 13 85t40 82t78 64.5t119 24.5q98 0 152.5 -58t54.5 -157q0 -24 -3 -48q0 -17 -18 -17zM278 385q-67 -9 -89 -78h179
q-2 68 -56 77q-15 3 -34 1zM141 670l135 105q12 10 26 0l135 -105q14 -10 3 -24l-32 -46q-10 -13 -25 -5l-94 58l-95 -58q-14 -9 -24 5l-32 46q-11 14 3 24z" />
    <glyph glyph-name="edieresis" unicode="&#xeb;" horiz-adv-x="547" 
d="M83 667q0 32 22 54.5t55 22.5q32 0 54 -22.5t22 -54.5q0 -33 -22 -54.5t-54 -21.5q-33 0 -55 21.5t-22 54.5zM312 667q0 32 22 54.5t55 22.5q32 0 54 -22.5t22 -54.5q0 -33 -22 -54.5t-54 -21.5q-33 0 -55 21.5t-22 54.5zM481 227h-296q6 -47 35 -78.5t75 -31.5
q58 0 111 35q14 9 24 -4l46 -63q10 -14 -3 -25q-86 -66 -178 -66q-68 0 -119 24.5t-78 64t-40 82t-13 86.5q0 43 13 85t40 82t78 64.5t119 24.5q98 0 152.5 -58t54.5 -157q0 -24 -3 -48q0 -17 -18 -17zM278 385q-67 -9 -89 -78h179q-2 68 -56 77q-15 3 -34 1z" />
    <glyph glyph-name="igrave" unicode="&#xec;" horiz-adv-x="266" 
d="M201 483v-466q0 -7 -5 -12t-12 -5h-102q-7 0 -12 5t-5 12v466q0 7 5 12t12 5h102q7 0 12 -5t5 -12zM98 776l135 -105q14 -10 3 -24l-32 -46q-10 -14 -24 -5l-146 90q-14 10 -4 23l45 63q9 14 23 4z" />
    <glyph glyph-name="iacute" unicode="&#xed;" horiz-adv-x="266" 
d="M201 483v-466q0 -7 -5 -12t-12 -5h-102q-7 0 -12 5t-5 12v466q0 7 5 12t12 5h102q7 0 12 -5t5 -12zM33 671l135 105q13 9 23 -4l45 -63q9 -14 -4 -23l-146 -90q-14 -9 -24 5l-32 46q-11 14 3 24z" />
    <glyph glyph-name="icircumflex" unicode="&#xee;" horiz-adv-x="322" 
d="M229 483v-466q0 -7 -5 -12t-12 -5h-102q-7 0 -12 5t-5 12v466q0 7 5 12t12 5h102q7 0 12 -5t5 -12zM13 673l135 105q12 10 26 0l135 -105q14 -10 3 -24l-32 -46q-10 -13 -25 -5l-94 58l-95 -58q-14 -9 -24 5l-32 46q-11 14 3 24z" />
    <glyph glyph-name="idieresis" unicode="&#xef;" horiz-adv-x="382" 
d="M259 483v-466q0 -7 -5 -12t-12 -5h-102q-7 0 -12 5t-5 12v466q0 7 5 12t12 5h102q7 0 12 -5t5 -12zM2 684q5 26 26 43t49 17q32 0 54 -22.5t22 -54.5q0 -33 -22 -54.5t-54 -21.5q-28 0 -49 16.5t-26 42.5q-5 17 0 34zM229 667q0 32 22 54.5t55 22.5q32 0 54 -22.5
t22 -54.5q0 -33 -22 -54.5t-54 -21.5q-33 0 -55 21.5t-22 54.5z" />
    <glyph glyph-name="eth" unicode="&#xf0;" horiz-adv-x="584" 
d="M171 634l53 69q9 15 24 4q22 -14 43 -31l47 48q12 12 24 0l40 -40q12 -12 0 -24l-43 -43q166 -170 166 -392q0 -24 -5.5 -51t-22 -60t-41 -59t-67.5 -43.5t-97 -17.5t-96.5 16.5t-67 41.5t-41 56.5t-22 58t-5.5 49.5q0 38 9.5 73t31.5 70.5t66 58.5t106 26q43 0 69 -12
q-22 48 -71 98l-36 -36q-12 -12 -24 0l-38 38q-12 12 0 24l33 33q-13 10 -31 23q-13 9 -4 22zM292 118q48 0 74.5 30.5t26.5 72.5q-2 43 -28 72.5t-73 29.5t-73.5 -30t-26.5 -72t27 -72.5t73 -30.5z" />
    <glyph glyph-name="ntilde" unicode="&#xf1;" 
d="M215 344v-327q0 -7 -5 -12t-12 -5h-101q-7 0 -12 5t-5 12v466q0 7 5 12t12 5h58q17 0 22 -16l7 -20q54 44 126 44q55 0 95 -15.5t63 -38.5t36 -58t17 -66.5t4 -71.5v-241q0 -7 -5 -12t-12 -5h-104q-7 0 -12 5t-5 12v241q0 129 -82 129q-59 0 -90 -43zM403 727l52 -27
q15 -10 7 -23q-45 -87 -125 -87q-23 0 -50.5 17t-43.5 17q-25 0 -42 -24q-9 -15 -23 -8l-48 22q-15 8 -10 23q36 91 124 91q27 0 55.5 -16t39.5 -16q22 0 40 25q9 13 24 6z" />
    <glyph glyph-name="ograve" unicode="&#xf2;" horiz-adv-x="618" 
d="M309 510q68 0 119 -25t78 -66t39.5 -83.5t12.5 -85.5q0 -44 -12.5 -86.5t-39.5 -83t-78 -65t-119 -24.5t-119 24.5t-78 65t-39.5 83t-12.5 86.5q0 43 12.5 85.5t39.5 83.5t78 66t119 25zM309 112q35 0 59.5 16t35.5 41t15 44.5t4 36.5t-4 37t-15 45t-35.5 41t-59.5 16
t-60 -16.5t-35.5 -41t-15 -44.5t-4.5 -37t4.5 -36.5t15 -44.5t35.5 -41t60 -16zM274 776l135 -105q14 -10 3 -24l-32 -46q-10 -14 -24 -5l-146 90q-14 10 -4 23l45 63q9 14 23 4z" />
    <glyph glyph-name="oacute" unicode="&#xf3;" horiz-adv-x="618" 
d="M309 510q68 0 119 -25t78 -66t39.5 -83.5t12.5 -85.5q0 -44 -12.5 -86.5t-39.5 -83t-78 -65t-119 -24.5t-119 24.5t-78 65t-39.5 83t-12.5 86.5q0 43 12.5 85.5t39.5 83.5t78 66t119 25zM309 112q35 0 59.5 16t35.5 41t15 44.5t4 36.5t-4 37t-15 45t-35.5 41t-59.5 16
t-60 -16.5t-35.5 -41t-15 -44.5t-4.5 -37t4.5 -36.5t15 -44.5t35.5 -41t60 -16zM209 671l135 105q14 10 23 -4l45 -63q10 -13 -4 -23l-146 -90q-14 -9 -24 5l-32 46q-11 14 3 24z" />
    <glyph glyph-name="ocircumflex" unicode="&#xf4;" horiz-adv-x="618" 
d="M161 673l135 105q12 10 26 0l135 -105q14 -10 3 -24l-32 -46q-10 -13 -25 -5l-94 58l-95 -58q-14 -9 -24 5l-32 46q-11 14 3 24zM309 510q68 0 119 -25t78 -66t39.5 -83.5t12.5 -85.5q0 -44 -12.5 -86.5t-39.5 -83t-78 -65t-119 -24.5t-119 24.5t-78 65t-39.5 83
t-12.5 86.5q0 43 12.5 85.5t39.5 83.5t78 66t119 25zM309 112q35 0 59.5 16t35.5 41t15 44.5t4 36.5t-4 37t-15 45t-35.5 41t-59.5 16t-60 -16.5t-35.5 -41t-15 -44.5t-4.5 -37t4.5 -36.5t15 -44.5t35.5 -41t60 -16z" />
    <glyph glyph-name="otilde" unicode="&#xf5;" horiz-adv-x="618" 
d="M309 510q68 0 119 -25t78 -66t39.5 -83.5t12.5 -85.5q0 -44 -12.5 -86.5t-39.5 -83t-78 -65t-119 -24.5t-119 24.5t-78 65t-39.5 83t-12.5 86.5q0 43 12.5 85.5t39.5 83.5t78 66t119 25zM309 112q35 0 59.5 16t35.5 41t15 44.5t4 36.5t-4 37t-15 45t-35.5 41t-59.5 16
t-60 -16.5t-35.5 -41t-15 -44.5t-4.5 -37t4.5 -36.5t15 -44.5t35.5 -41t60 -16zM419 727l52 -27q15 -10 7 -23q-45 -87 -125 -87q-23 0 -50.5 17t-43.5 17q-25 0 -42 -24q-9 -15 -23 -8l-48 22q-15 8 -10 23q36 91 124 91q27 0 55.5 -16t39.5 -16q22 0 40 25q9 13 24 6z" />
    <glyph glyph-name="odieresis" unicode="&#xf6;" horiz-adv-x="618" 
d="M309 510q68 0 119 -25t78 -66t39.5 -83.5t12.5 -85.5q0 -44 -12.5 -86.5t-39.5 -83t-78 -65t-119 -24.5t-119 24.5t-78 65t-39.5 83t-12.5 86.5q0 43 12.5 85.5t39.5 83.5t78 66t119 25zM309 112q35 0 59.5 16t35.5 41t15 44.5t4 36.5t-4 37t-15 45t-35.5 41t-59.5 16
t-60 -16.5t-35.5 -41t-15 -44.5t-4.5 -37t4.5 -36.5t15 -44.5t35.5 -41t60 -16zM118 667q0 32 22 54.5t55 22.5q32 0 54 -22.5t22 -54.5q0 -33 -22 -54.5t-54 -21.5q-33 0 -55 21.5t-22 54.5zM347 667q0 32 22 54.5t55 22.5q32 0 54 -22.5t22 -54.5q0 -33 -22 -54.5
t-54 -21.5q-33 0 -55 21.5t-22 54.5z" />
    <glyph glyph-name="divide" unicode="&#xf7;" horiz-adv-x="461" 
d="M77 299h307q7 0 12 -5t5 -12v-65q0 -7 -5 -12t-12 -5h-307q-7 0 -12 5t-5 12v65q0 7 5 12t12 5zM164 451q5 22 23.5 36.5t42.5 14.5q28 0 48 -20t20 -48q0 -30 -19.5 -49t-48.5 -19q-25 0 -43 14t-23 37q-5 17 0 34zM162 68q0 29 19.5 48.5t48.5 19.5q28 0 48 -20t20 -48
q0 -30 -19.5 -49t-48.5 -19t-48.5 19t-19.5 49z" />
    <glyph glyph-name="oslash" unicode="&#xf8;" horiz-adv-x="618" 
d="M554 467l-45 -53q49 -69 49 -164q0 -44 -12.5 -86.5t-39.5 -83t-78 -65t-119 -24.5q-77 0 -131 30l-34 -40q-11 -13 -24 -2l-52 43q-13 11 -2 24l38 45q-44 67 -44 159q0 43 12.5 85.5t39.5 83.5t78 66t119 25q71 0 124 -29l43 51q11 13 24 2l52 -43q13 -11 2 -24z
M194 250q0 -23 6 -45l149 177q-19 7 -40 7q-35 0 -60 -16.5t-35.5 -41t-15 -44.5t-4.5 -37zM309 112q35 0 59.5 16t35.5 41t15 44.5t4 36.5q0 24 -8 52l-153 -181q20 -9 47 -9z" />
    <glyph glyph-name="ugrave" unicode="&#xf9;" 
d="M370 156v327q0 7 5 12t12 5h101q7 0 12 -5t5 -12v-466q0 -7 -5 -12t-12 -5h-58q-17 0 -22 16l-7 20q-54 -44 -126 -44q-55 0 -95 15.5t-63 38.5t-36 58t-17 66.5t-4 71.5v241q0 7 5 12t12 5h104q7 0 12 -5t5 -12v-241q0 -129 82 -129q59 0 90 43zM257 776l135 -105
q14 -10 3 -24l-32 -46q-10 -14 -24 -5l-146 90q-14 10 -4 23l45 63q9 14 23 4z" />
    <glyph glyph-name="uacute" unicode="&#xfa;" 
d="M370 156v327q0 7 5 12t12 5h101q7 0 12 -5t5 -12v-466q0 -7 -5 -12t-12 -5h-58q-17 0 -22 16l-7 20q-54 -44 -126 -44q-55 0 -95 15.5t-63 38.5t-36 58t-17 66.5t-4 71.5v241q0 7 5 12t12 5h104q7 0 12 -5t5 -12v-241q0 -129 82 -129q59 0 90 43zM192 671l135 105
q13 9 23 -4l45 -63q9 -14 -4 -23l-146 -90q-14 -9 -24 5l-32 46q-11 14 3 24z" />
    <glyph glyph-name="ucircumflex" unicode="&#xfb;" 
d="M144 673l135 105q12 10 26 0l135 -105q14 -10 3 -24l-32 -46q-10 -13 -25 -5l-94 58l-95 -58q-14 -9 -24 5l-32 46q-11 14 3 24zM370 156v327q0 7 5 12t12 5h101q7 0 12 -5t5 -12v-466q0 -7 -5 -12t-12 -5h-58q-17 0 -22 16l-7 20q-54 -44 -126 -44q-55 0 -95 15.5
t-63 38.5t-36 58t-17 66.5t-4 71.5v241q0 7 5 12t12 5h104q7 0 12 -5t5 -12v-241q0 -129 82 -129q59 0 90 43z" />
    <glyph glyph-name="udieresis" unicode="&#xfc;" 
d="M101 667q0 32 22 54.5t55 22.5q32 0 54 -22.5t22 -54.5q0 -33 -22 -54.5t-54 -21.5q-33 0 -55 21.5t-22 54.5zM330 667q0 32 22 54.5t55 22.5q32 0 54 -22.5t22 -54.5q0 -33 -22 -54.5t-54 -21.5q-33 0 -55 21.5t-22 54.5zM370 156v327q0 7 5 12t12 5h101q7 0 12 -5
t5 -12v-466q0 -7 -5 -12t-12 -5h-58q-17 0 -22 16l-7 20q-54 -44 -126 -44q-55 0 -95 15.5t-63 38.5t-36 58t-17 66.5t-4 71.5v241q0 7 5 12t12 5h104q7 0 12 -5t5 -12v-241q0 -129 82 -129q59 0 90 43z" />
    <glyph glyph-name="yacute" unicode="&#xfd;" horiz-adv-x="598" 
d="M136 -183l92 223l-198 444q-2 6 1 11t9 5h121q18 0 23 -16l117 -285l113 285q5 16 23 16h118q6 0 9 -5t1 -11l-283 -667q-6 -16 -24 -16h-111q-6 0 -9.5 5t-1.5 11zM199 671l135 105q13 9 23 -4l45 -63q9 -14 -4 -23l-146 -90q-14 -9 -24 5l-32 46q-11 14 3 24z" />
    <glyph glyph-name="thorn" unicode="&#xfe;" horiz-adv-x="614" 
d="M288 -8q-38 3 -73 14v-188q0 -7 -5 -12t-12 -5h-101q-7 0 -12 5t-5 12v866q0 7 5 12t12 5h101q7 0 12 -5t5 -12v-190q42 14 90 14q68 0 119 -25t78 -65.5t39.5 -82.5t12.5 -85q0 -42 -12 -83t-37 -80.5t-72.5 -65.5t-110.5 -29h-34zM215 365v-230q33 -22 82 -22
q36 0 62 15t38.5 39t17.5 44.5t5 38.5t-5 38.5t-17.5 44.5t-38.5 39t-62 15q-49 0 -82 -22z" />
    <glyph glyph-name="ydieresis" unicode="&#xff;" horiz-adv-x="579" 
d="M98 667q0 32 22 54.5t55 22.5q32 0 54 -22.5t22 -54.5q0 -33 -22 -54.5t-54 -21.5q-33 0 -55 21.5t-22 54.5zM327 667q0 32 22 54.5t55 22.5q32 0 54 -22.5t22 -54.5q0 -33 -22 -54.5t-54 -21.5q-33 0 -55 21.5t-22 54.5zM136 -183l92 223l-198 444q-2 6 1 11t9 5h121
q18 0 23 -16l117 -285l113 285q5 16 23 16h118q6 0 9 -5t1 -11l-283 -667q-6 -16 -24 -16h-111q-6 0 -9.5 5t-1.5 11z" />
    <glyph glyph-name="Amacron" unicode="&#x100;" horiz-adv-x="724" 
d="M379 698l308 -683q2 -5 -1 -10t-9 -5h-123q-18 0 -23 16l-61 148h-216l-60 -148q-6 -16 -23 -16h-124q-6 0 -9 5t-1 10l307 683q6 11 17 11q13 0 18 -11zM362 433l-63 -157h126zM227 894h269q16 0 16 -16v-65q0 -16 -16 -16h-269q-16 0 -16 16v65q0 16 16 16z" />
    <glyph glyph-name="amacron" unicode="&#x101;" horiz-adv-x="548" 
d="M424 678v-65q0 -16 -16 -16h-269q-16 0 -16 16v65q0 16 16 16h269q16 0 16 -16zM283 509q49 0 84.5 -13t54.5 -32t30 -49.5t13.5 -56.5t2.5 -62v-280q0 -16 -16 -16h-62q-16 0 -21 15l-5 17q-46 -39 -119 -42q-55 -2 -94 13t-57.5 41.5t-26 51.5t-7.5 51q0 166 214 166
q26 0 58 -7q0 49 -15.5 65.5t-51.5 16.5q-43 0 -119 -29q-15 -6 -21 9l-32 73q-5 15 8 22q85 42 182 46zM332 147v54q-41 11 -62 11q-81 0 -81 -58q0 -22 17 -34t42 -12q26 0 50 12t34 27z" />
    <glyph glyph-name="Abreve" unicode="&#x102;" horiz-adv-x="724" 
d="M379 698l308 -683q2 -5 -1 -10t-9 -5h-123q-18 0 -23 16l-61 148h-216l-60 -148q-6 -16 -23 -16h-124q-6 0 -9 5t-1 10l307 683q6 11 17 11q13 0 18 -11zM362 433l-63 -157h126zM431 944l71 -20q15 -5 11 -20q-19 -57 -59.5 -85.5t-92.5 -28.5t-92.5 28t-58.5 85
q-4 16 11 20l69 20q13 5 19 -10q14 -39 52 -39q35 0 50 40q7 15 20 10z" />
    <glyph glyph-name="abreve" unicode="&#x103;" horiz-adv-x="548" 
d="M283 509q49 0 84.5 -13t54.5 -32t30 -49.5t13.5 -56.5t2.5 -62v-280q0 -16 -16 -16h-62q-16 0 -21 15l-5 17q-46 -39 -119 -42q-55 -2 -94 13t-57.5 41.5t-26 51.5t-7.5 51q0 166 214 166q26 0 58 -7q0 49 -15.5 65.5t-51.5 16.5q-43 0 -119 -29q-15 -6 -21 9l-32 73
q-5 15 8 22q85 42 182 46zM332 147v54q-41 11 -62 11q-81 0 -81 -58q0 -22 17 -34t42 -12q26 0 50 12t34 27zM273 590q-52 0 -92.5 28t-58.5 85q-4 16 11 20l69 20q13 5 19 -10q14 -39 52 -39q35 0 50 40q7 15 20 10l71 -20q15 -5 11 -20q-19 -57 -59.5 -85.5t-92.5 -28.5z
" />
    <glyph glyph-name="Aogonek" unicode="&#x104;" horiz-adv-x="724" 
d="M377 698l304 -674q7 -13 3 -18q-2 -6 -9 -6h-50v-3q0 -10 -17 -41.5t-17 -52.5q0 -40 51 -40q28 0 67 13q5 2 10 -1.5t5 -9.5v-49q0 -17 -15 -22q-47 -17 -98 -17q-50 0 -83 27t-33 79q0 30 21 69.5t21 47.5q-7 11 -69 164h-216l-60 -148q-6 -16 -23 -16h-124
q-11 0 -11 11q0 2 1 4l307 683q6 11 17 11q13 0 18 -11zM360 433l-63 -157h126z" />
    <glyph glyph-name="aogonek" unicode="&#x105;" horiz-adv-x="548" 
d="M485 -137q28 0 67 13q5 2 10 -1.5t5 -9.5v-49q0 -17 -15 -22q-47 -17 -98 -17q-50 0 -83 27t-33 79q0 30 20 69.5t20 47.5l-14 32q-46 -39 -119 -42q-55 -2 -94 13t-57.5 41.5t-26 51.5t-7.5 51q0 166 214 166q26 0 58 -7q0 49 -15.5 65.5t-51.5 16.5q-43 0 -119 -29
q-15 -6 -21 9l-32 73q-5 15 8 22q90 46 182 46q49 0 84.5 -13t54.5 -32t30 -49.5t13.5 -56.5t2.5 -62v-299q0 -10 -17 -41.5t-17 -52.5q0 -40 51 -40zM332 147v54q-41 11 -62 11q-81 0 -81 -58q0 -22 17 -34t42 -12q26 0 50 12t34 27z" />
    <glyph glyph-name="Cacute" unicode="&#x106;" horiz-adv-x="741" 
d="M294 871l135 105q13 9 22 -3l47 -65q4 -5 2.5 -11.5t-7.5 -9.5l-146 -92q-14 -7 -23 5l-34 48q-9 12 4 23zM669 568l-70 -68q-11 -10 -22 1q-31 32 -78.5 54.5t-90.5 22.5q-51 0 -90 -18.5t-59.5 -44.5t-34 -60t-17 -58.5t-3.5 -45.5t4 -45.5t17 -58t34 -59.5t60 -44.5
t90 -18.5q89 0 176 70q12 11 22 -1l60 -73q11 -12 -2 -23q-112 -107 -257 -107q-77 0 -138.5 23.5t-99.5 60t-64 85t-36 96t-10 95.5q0 47 10 93.5t36 95.5t64 86t99.5 60.5t138.5 23.5q150 0 262 -119q11 -13 -1 -23z" />
    <glyph glyph-name="cacute" unicode="&#x107;" horiz-adv-x="577" 
d="M431 161l59 -71q11 -12 -2 -23q-77 -74 -176 -74q-68 0 -119.5 24.5t-79 64t-40.5 81.5t-13 85q0 46 11.5 88t38 82.5t78 65t122.5 24.5q103 0 188 -87q10 -12 0 -24l-56 -63q-11 -12 -22 -1q-54 49 -110 49q-54 0 -84.5 -39t-30.5 -92q0 -59 34 -93.5t82 -34.5
q51 0 98 39q12 11 22 -1zM188 671l135 105q13 9 22 -3l47 -65q4 -5 2.5 -11.5t-7.5 -9.5l-146 -92q-14 -7 -23 5l-34 48q-9 12 4 23z" />
    <glyph glyph-name="Ccircumflex" unicode="&#x108;" horiz-adv-x="741" 
d="M669 568l-70 -68q-11 -10 -22 1q-31 32 -78.5 54.5t-90.5 22.5q-51 0 -90 -18.5t-59.5 -44.5t-34 -60t-17 -58.5t-3.5 -45.5t4 -45.5t17 -58t34 -59.5t60 -44.5t90 -18.5q89 0 176 70q12 11 22 -1l60 -73q11 -12 -2 -23q-112 -107 -257 -107q-77 0 -138.5 23.5t-99.5 60
t-64 85t-36 96t-10 95.5q0 47 10 93.5t36 95.5t64 86t99.5 60.5t138.5 23.5q150 0 262 -119q11 -13 -1 -23zM246 873l135 105q13 10 26 0l135 -105q13 -11 4 -23l-34 -48q-9 -12 -23 -5l-95 59l-95 -59q-14 -7 -23 5l-34 48q-9 12 4 23z" />
    <glyph glyph-name="ccircumflex" unicode="&#x109;" horiz-adv-x="577" 
d="M311 123q51 0 98 39q12 11 22 -1l59 -71q11 -12 -2 -23q-77 -74 -176 -74q-68 0 -119.5 24.5t-79 64t-40.5 81.5t-13 85q0 46 11.5 88t38 82.5t78 65t122.5 24.5q103 0 188 -87q10 -12 0 -24l-56 -63q-11 -12 -22 -1q-54 49 -110 49q-54 0 -84.5 -39t-30.5 -92
q0 -59 34 -93.5t82 -34.5zM305 656l-95 -59q-14 -7 -23 5l-34 48q-9 12 4 23l135 105q13 10 26 0l135 -105q13 -11 4 -23l-34 -48q-9 -12 -23 -5z" />
    <glyph glyph-name="Cdotaccent" unicode="&#x10a;" horiz-adv-x="741" 
d="M316 867q0 32 22 54.5t55 22.5q32 0 54 -22.5t22 -54.5q0 -33 -22 -54.5t-54 -21.5q-33 0 -55 21.5t-22 54.5zM669 568l-70 -68q-11 -10 -22 1q-31 32 -78.5 54.5t-90.5 22.5q-51 0 -90 -18.5t-59.5 -44.5t-34 -60t-17 -58.5t-3.5 -45.5t4 -45.5t17 -58t34 -59.5
t60 -44.5t90 -18.5q89 0 176 70q12 11 22 -1l60 -73q11 -12 -2 -23q-112 -107 -257 -107q-77 0 -138.5 23.5t-99.5 60t-64 85t-36 96t-10 95.5q0 47 10 93.5t36 95.5t64 86t99.5 60.5t138.5 23.5q150 0 262 -119q11 -13 -1 -23z" />
    <glyph glyph-name="cdotaccent" unicode="&#x10b;" horiz-adv-x="577" 
d="M232 667q0 32 22 54.5t55 22.5q32 0 54 -22.5t22 -54.5q0 -33 -22 -54.5t-54 -21.5q-33 0 -55 21.5t-22 54.5zM311 123q51 0 98 39q12 11 22 -1l59 -71q11 -12 -2 -23q-77 -74 -176 -74q-68 0 -119.5 24.5t-79 64t-40.5 81.5t-13 85q0 46 11.5 88t38 82.5t78 65
t122.5 24.5q103 0 188 -87q10 -12 0 -24l-56 -63q-11 -12 -22 -1q-54 49 -110 49q-54 0 -84.5 -39t-30.5 -92q0 -59 34 -93.5t82 -34.5z" />
    <glyph glyph-name="Ccaron" unicode="&#x10c;" horiz-adv-x="741" 
d="M669 568l-70 -68q-11 -10 -22 1q-31 32 -78.5 54.5t-90.5 22.5q-51 0 -90 -18.5t-59.5 -44.5t-34 -60t-17 -58.5t-3.5 -45.5t4 -45.5t17 -58t34 -59.5t60 -44.5t90 -18.5q89 0 176 70q12 11 22 -1l60 -73q11 -12 -2 -23q-112 -107 -257 -107q-77 0 -138.5 23.5t-99.5 60
t-64 85t-36 96t-10 95.5q0 47 10 93.5t36 95.5t64 86t99.5 60.5t138.5 23.5q150 0 262 -119q11 -13 -1 -23zM393 796l-135 105q-13 11 -4 23l34 48q9 12 23 5l95 -59l95 59q14 7 23 -5l34 -48q9 -12 -4 -23l-135 -105q-13 -10 -26 0z" />
    <glyph glyph-name="ccaron" unicode="&#x10d;" horiz-adv-x="577" 
d="M431 161l59 -71q11 -12 -2 -23q-77 -74 -176 -74q-68 0 -119.5 24.5t-79 64t-40.5 81.5t-13 85q0 46 11.5 88t38 82.5t78 65t122.5 24.5q103 0 188 -87q10 -12 0 -24l-56 -63q-11 -12 -22 -1q-54 49 -110 49q-54 0 -84.5 -39t-30.5 -92q0 -59 34 -93.5t82 -34.5
q51 0 98 39q12 11 22 -1zM295 596l-135 105q-13 11 -4 23l34 48q9 12 23 5l95 -59l95 59q14 7 23 -5l34 -48q9 -12 -4 -23l-135 -105q-13 -10 -26 0z" />
    <glyph glyph-name="Dcaron" unicode="&#x10e;" horiz-adv-x="755" 
d="M349 0h-233q-16 0 -16 16v668q0 16 16 16h233q76 0 137.5 -22.5t99.5 -58t63.5 -83t35.5 -93t10 -92.5q0 -48 -10 -94.5t-35.5 -93.5t-63.5 -82.5t-99 -58t-138 -22.5zM240 130h109q62 0 105.5 25.5t63 65t27 71t7.5 59.5t-7.5 59.5t-27 70.5t-63 64.5t-105.5 25.5h-109
v-441zM277 796l-135 105q-13 11 -4 23l34 48q9 12 23 5l95 -59l95 59q14 7 23 -5l34 -48q9 -12 -4 -23l-135 -105q-13 -10 -26 0z" />
    <glyph glyph-name="dcaron" unicode="&#x10f;" horiz-adv-x="802" 
d="M399 492v193q0 16 16 16h103q16 0 16 -16v-669q0 -16 -16 -16h-61q-16 0 -21 15l-6 20q-21 -19 -60 -31.5t-71 -12.5q-66 0 -115 25t-74.5 65t-37.5 82.5t-12 86.5q0 36 6.5 69.5t23.5 69t44 61.5t72 42.5t103 16.5q53 0 90 -17zM399 152v212q-37 24 -82 24
q-38 0 -64.5 -14t-38 -37.5t-16 -43.5t-4.5 -43q0 -20 4 -39.5t14.5 -43.5t35.5 -39t61 -15q29 0 54 12t36 27zM708 710q46 0 67.5 -26t21.5 -64q0 -42 -29.5 -107t-62.5 -112q-10 -13 -24 -6l-42 20q-13 7 -6 21q33 62 48 114q-54 17 -54 78q0 35 23 58.5t58 23.5z" />
    <glyph glyph-name="Dcroat" unicode="&#x110;" horiz-adv-x="755" 
d="M349 0h-233q-16 0 -16 16v668q0 16 16 16h233q76 0 137.5 -22.5t99.5 -58t63.5 -83t35.5 -93t10 -92.5q0 -48 -10 -94.5t-35.5 -93.5t-63.5 -82.5t-99 -58t-138 -22.5zM240 130h109q62 0 105.5 25.5t63 65t27 71t7.5 59.5t-7.5 59.5t-27 70.5t-63 64.5t-105.5 25.5h-109
v-441zM144 894h269q16 0 16 -16v-65q0 -16 -16 -16h-269q-16 0 -16 16v65q0 16 16 16z" />
    <glyph glyph-name="dcroat" unicode="&#x111;" horiz-adv-x="614" 
d="M534 663h43q16 0 16 -16v-44q0 -16 -16 -16h-43v-571q0 -16 -16 -16h-61q-16 0 -21 15l-6 20q-21 -19 -60 -31.5t-71 -12.5q-66 0 -115 25t-74.5 65t-37.5 82.5t-12 86.5q0 36 6.5 69.5t23.5 69t44 61.5t72 42.5t103 16.5q53 0 90 -17v95h-60q-16 0 -16 16v44q0 16 16 16
h60v21q0 16 16 16h103q16 0 16 -16v-21zM309 113q29 0 54 12t36 27v212q-37 24 -82 24q-38 0 -64.5 -14t-38 -37.5t-16 -43.5t-4.5 -43q0 -20 4 -39.5t14.5 -43.5t35.5 -39t61 -15z" />
    <glyph glyph-name="Emacron" unicode="&#x112;" horiz-adv-x="636" 
d="M487 280h-246v-150h319q16 0 16 -16v-98q0 -16 -16 -16h-444q-16 0 -16 16v668q0 16 16 16h444q16 0 16 -16v-98q0 -16 -16 -16h-319v-160h246q16 0 16 -16v-98q0 -16 -16 -16zM183 894h269q16 0 16 -16v-65q0 -16 -16 -16h-269q-16 0 -16 16v65q0 16 16 16z" />
    <glyph glyph-name="emacron" unicode="&#x113;" horiz-adv-x="547" 
d="M442 678v-65q0 -16 -16 -16h-269q-16 0 -16 16v65q0 16 16 16h269q16 0 16 -16zM502 292q0 -24 -3 -49q0 -7 -5 -11.5t-12 -4.5h-297q6 -47 35 -78.5t75 -31.5q57 0 112 36q13 9 22 -4l48 -65q10 -14 -4 -23q-84 -67 -178 -67q-68 0 -119 24.5t-78 64t-40 82t-13 86.5
q0 43 13 85t40 82t78 64.5t119 24.5q98 0 152.5 -58t54.5 -157zM189 307h179q-2 78 -73 79q-80 0 -106 -79z" />
    <glyph glyph-name="Ebreve" unicode="&#x114;" horiz-adv-x="636" 
d="M487 280h-246v-150h319q16 0 16 -16v-98q0 -16 -16 -16h-444q-16 0 -16 16v668q0 16 16 16h444q16 0 16 -16v-98q0 -16 -16 -16h-319v-160h246q16 0 16 -16v-98q0 -16 -16 -16zM407 944l71 -20q15 -5 11 -20q-19 -57 -59.5 -85.5t-92.5 -28.5t-92.5 28t-58.5 85
q-4 16 11 20l69 20q13 5 19 -10q14 -39 52 -39q35 0 50 40q7 15 20 10z" />
    <glyph glyph-name="ebreve" unicode="&#x115;" horiz-adv-x="547" 
d="M290 590q-52 0 -92.5 28t-58.5 85q-4 16 11 20l69 20q13 5 19 -10q14 -39 52 -39q35 0 50 40q7 15 20 10l71 -20q15 -5 11 -20q-19 -57 -59.5 -85.5t-92.5 -28.5zM502 292q0 -24 -3 -49q0 -7 -5 -11.5t-12 -4.5h-297q6 -47 35 -78.5t75 -31.5q57 0 112 36q13 9 22 -4
l48 -65q10 -14 -4 -23q-84 -67 -178 -67q-68 0 -119 24.5t-78 64t-40 82t-13 86.5q0 43 13 85t40 82t78 64.5t119 24.5q98 0 152.5 -58t54.5 -157zM189 307h179q-2 78 -73 79q-80 0 -106 -79z" />
    <glyph glyph-name="Edotaccent" unicode="&#x116;" horiz-adv-x="636" 
d="M257 867q0 32 22 54.5t55 22.5q32 0 54 -22.5t22 -54.5q0 -33 -22 -54.5t-54 -21.5q-33 0 -55 21.5t-22 54.5zM487 280h-246v-150h319q16 0 16 -16v-98q0 -16 -16 -16h-444q-16 0 -16 16v668q0 16 16 16h444q16 0 16 -16v-98q0 -16 -16 -16h-319v-160h246q16 0 16 -16
v-98q0 -16 -16 -16z" />
    <glyph glyph-name="edotaccent" unicode="&#x117;" horiz-adv-x="547" 
d="M211 667q0 32 22 54.5t55 22.5q32 0 54 -22.5t22 -54.5q0 -33 -22 -54.5t-54 -21.5q-33 0 -55 21.5t-22 54.5zM502 292q0 -24 -3 -49q0 -7 -5 -11.5t-12 -4.5h-297q6 -47 35 -78.5t75 -31.5q57 0 112 36q13 9 22 -4l48 -65q10 -14 -4 -23q-84 -67 -178 -67
q-68 0 -119 24.5t-78 64t-40 82t-13 86.5q0 43 13 85t40 82t78 64.5t119 24.5q98 0 152.5 -58t54.5 -157zM189 307h179q-2 78 -73 79q-80 0 -106 -79z" />
    <glyph glyph-name="Eogonek" unicode="&#x118;" horiz-adv-x="636" 
d="M487 280h-246v-150h319q16 0 16 -16v-117q0 -10 -17 -41.5t-17 -52.5q0 -40 51 -40q28 0 67 13q5 2 10 -1.5t5 -9.5v-49q0 -17 -15 -22q-47 -17 -98 -17q-50 0 -83 27t-33 79q0 30 21 69.5t21 47.5h-372q-16 0 -16 16v668q0 16 16 16h444q16 0 16 -16v-98q0 -16 -16 -16
h-319v-160h246q16 0 16 -16v-98q0 -16 -16 -16z" />
    <glyph glyph-name="eogonek" unicode="&#x119;" horiz-adv-x="547" 
d="M434 -137q28 0 67 13q5 2 10 -1.5t5 -9.5v-49q0 -17 -15 -22q-47 -17 -98 -17q-50 0 -83 27t-33 79q0 29 20 68.5t21 44.5q-22 -2 -33 -2q-68 0 -119 24.5t-78 64t-40 82t-13 86.5q0 43 13 85t40 82t78 64.5t119 24.5q98 0 152.5 -58t54.5 -157q0 -24 -3 -49
q0 -7 -5 -11.5t-12 -4.5h-297q6 -47 35 -78.5t75 -31.5q57 0 112 36q13 9 22 -4l48 -65q10 -14 -3 -23q-30 -24 -57 -38v-26q0 -10 -17 -41.5t-17 -52.5q0 -40 51 -40zM295 386q-80 0 -106 -79h179q-2 78 -73 79z" />
    <glyph glyph-name="Ecaron" unicode="&#x11a;" horiz-adv-x="636" 
d="M487 280h-246v-150h319q16 0 16 -16v-98q0 -16 -16 -16h-444q-16 0 -16 16v668q0 16 16 16h444q16 0 16 -16v-98q0 -16 -16 -16h-319v-160h246q16 0 16 -16v-98q0 -16 -16 -16zM305 796l-135 105q-13 11 -4 23l34 48q9 12 23 5l95 -59l95 59q14 7 23 -5l34 -48
q9 -12 -4 -23l-135 -105q-13 -10 -26 0z" />
    <glyph glyph-name="ecaron" unicode="&#x11b;" horiz-adv-x="547" 
d="M502 292q0 -24 -3 -49q0 -7 -5 -11.5t-12 -4.5h-297q6 -47 35 -78.5t75 -31.5q57 0 112 36q13 9 22 -4l48 -65q10 -14 -4 -23q-84 -67 -178 -67q-68 0 -119 24.5t-78 64t-40 82t-13 86.5q0 43 13 85t40 82t78 64.5t119 24.5q98 0 152.5 -58t54.5 -157zM189 307h179
q-2 78 -73 79q-80 0 -106 -79zM437 701l-135 -105q-13 -10 -26 0l-135 105q-13 11 -4 23l34 48q9 12 23 5l95 -59l95 59q14 7 23 -5l34 -48q9 -12 -4 -23z" />
    <glyph glyph-name="Gcircumflex" unicode="&#x11c;" horiz-adv-x="727" 
d="M523 245h-122q-16 0 -16 16v96q0 16 16 16h248q16 0 16 -16v-247q0 -16 -12 -27q-98 -92 -245 -92q-77 0 -138.5 23.5t-99.5 60t-64 85t-36 96t-10 95.5q0 47 10 93.5t36 95.5t64 86t99.5 60.5t138.5 23.5q146 0 248 -102q10 -12 0 -24l-65 -70q-10 -12 -23 -1
q-31 28 -75.5 46.5t-84.5 18.5q-51 0 -90 -18.5t-59.5 -44t-34 -59t-17 -58t-3.5 -45.5t3.5 -46.5t17 -60t34 -61.5t59.5 -46t90 -19q30 0 63.5 10t51.5 26v89zM241 873l135 105q13 10 26 0l135 -105q13 -11 4 -23l-34 -48q-9 -12 -23 -5l-95 59l-95 -59q-14 -7 -23 5
l-34 48q-9 12 4 23z" />
    <glyph glyph-name="gcircumflex" unicode="&#x11d;" 
d="M292 656l-95 -59q-14 -7 -23 5l-34 48q-9 12 4 23l135 105q13 10 26 0l135 -105q13 -11 4 -23l-34 -48q-9 -12 -23 -5zM245 79q154 7 213.5 -32t59.5 -114q0 -12 -3 -27.5t-16.5 -39.5t-35.5 -42.5t-65.5 -32.5t-101.5 -14q-125 0 -180.5 48t-55.5 109q1 26 14.5 54.5
t38.5 45.5q-41 32 -41 93q0 25 14.5 49t37.5 35q-35 38 -35 105q0 34 10.5 66.5t32.5 62.5t62.5 48.5t95.5 18.5q59 0 95 -20l59 56q12 11 23 0l57 -57q11 -11 0 -23l-59 -63q28 -41 28 -91q0 -33 -11 -65.5t-33 -62t-63.5 -48t-95.5 -18.5q-45 0 -76 12q-9 -1 -16 -6
t-7 -12q0 -19 11.5 -27.5t42.5 -7.5zM290 391q-35 0 -49 -24.5t-14 -50.5q0 -14 3 -28t18.5 -30t41.5 -16q25 0 40 16t18.5 30.5t3.5 27.5q0 14 -3.5 28.5t-18.5 30.5t-40 16zM290 -109q27 0 47 4t29.5 9.5t15.5 12t7 9.5t1 5q0 37 -100 37q-102 0 -102 -35q0 -7 6.5 -15
t31.5 -17t64 -10z" />
    <glyph glyph-name="Gbreve" unicode="&#x11e;" horiz-adv-x="727" 
d="M387 790q-52 0 -92.5 28t-58.5 85q-4 16 11 20l69 20q13 5 19 -10q14 -39 52 -39q35 0 50 40q7 15 20 10l71 -20q15 -5 11 -20q-19 -57 -59.5 -85.5t-92.5 -28.5zM385 261v96q0 16 16 16h248q16 0 16 -16v-247q0 -16 -12 -27q-98 -92 -245 -92q-77 0 -138.5 23.5
t-99.5 60t-64 85t-36 96t-10 95.5q0 47 10 93.5t36 95.5t64 86t99.5 60.5t138.5 23.5q146 0 248 -102q10 -12 0 -24l-65 -70q-10 -12 -23 -1q-31 28 -75.5 46.5t-84.5 18.5q-51 0 -90 -18.5t-59.5 -44t-34 -59t-17 -58t-3.5 -45.5t3.5 -46.5t17 -60t34 -61.5t59.5 -46
t90 -19q30 0 63.5 10t51.5 26v89h-122q-16 0 -16 16z" />
    <glyph glyph-name="gbreve" unicode="&#x11f;" 
d="M245 79q154 7 213.5 -32t59.5 -114q0 -12 -3 -27.5t-16.5 -39.5t-35.5 -42.5t-65.5 -32.5t-101.5 -14q-125 0 -180.5 48t-55.5 109q1 26 14.5 54.5t38.5 45.5q-41 32 -41 93q0 25 14.5 49t37.5 35q-35 38 -35 105q0 34 10.5 66.5t32.5 62.5t62.5 48.5t95.5 18.5
q59 0 95 -20l59 56q12 11 23 0l57 -57q11 -11 0 -23l-59 -63q28 -41 28 -91q0 -33 -11 -65.5t-33 -62t-63.5 -48t-95.5 -18.5q-45 0 -76 12q-9 -1 -16 -6t-7 -12q0 -19 11.5 -27.5t42.5 -7.5zM290 391q-35 0 -49 -24.5t-14 -50.5q0 -14 3 -28t18.5 -30t41.5 -16q25 0 40 16
t18.5 30.5t3.5 27.5q0 14 -3.5 28.5t-18.5 30.5t-40 16zM290 -109q27 0 47 4t29.5 9.5t15.5 12t7 9.5t1 5q0 37 -100 37q-102 0 -102 -35q0 -7 6.5 -15t31.5 -17t64 -10zM292 590q-52 0 -92.5 28t-58.5 85q-4 16 11 20l69 20q13 5 19 -10q14 -39 52 -39q35 0 50 40
q7 15 20 10l71 -20q15 -5 11 -20q-19 -57 -59.5 -85.5t-92.5 -28.5z" />
    <glyph glyph-name="Gdotaccent" unicode="&#x120;" horiz-adv-x="727" 
d="M316 867q0 32 22 54.5t55 22.5q32 0 54 -22.5t22 -54.5q0 -33 -22 -54.5t-54 -21.5q-33 0 -55 21.5t-22 54.5zM385 261v96q0 16 16 16h248q16 0 16 -16v-247q0 -16 -12 -27q-98 -92 -245 -92q-77 0 -138.5 23.5t-99.5 60t-64 85t-36 96t-10 95.5q0 47 10 93.5t36 95.5
t64 86t99.5 60.5t138.5 23.5q146 0 248 -102q10 -12 0 -24l-65 -70q-10 -12 -23 -1q-31 28 -75.5 46.5t-84.5 18.5q-51 0 -90 -18.5t-59.5 -44t-34 -59t-17 -58t-3.5 -45.5t3.5 -46.5t17 -60t34 -61.5t59.5 -46t90 -19q30 0 63.5 10t51.5 26v89h-122q-16 0 -16 16z" />
    <glyph glyph-name="gdotaccent" unicode="&#x121;" 
d="M216 667q0 32 22 54.5t55 22.5q32 0 54 -22.5t22 -54.5q0 -33 -22 -54.5t-54 -21.5q-33 0 -55 21.5t-22 54.5zM245 79q154 7 213.5 -32t59.5 -114q0 -12 -3 -27.5t-16.5 -39.5t-35.5 -42.5t-65.5 -32.5t-101.5 -14q-125 0 -180.5 48t-55.5 109q1 26 14.5 54.5t38.5 45.5
q-41 32 -41 93q0 25 14.5 49t37.5 35q-35 38 -35 105q0 34 10.5 66.5t32.5 62.5t62.5 48.5t95.5 18.5q59 0 95 -20l59 56q12 11 23 0l57 -57q11 -11 0 -23l-59 -63q28 -41 28 -91q0 -33 -11 -65.5t-33 -62t-63.5 -48t-95.5 -18.5q-45 0 -76 12q-9 -1 -16 -6t-7 -12
q0 -19 11.5 -27.5t42.5 -7.5zM290 391q-35 0 -49 -24.5t-14 -50.5q0 -14 3 -28t18.5 -30t41.5 -16q25 0 40 16t18.5 30.5t3.5 27.5q0 14 -3.5 28.5t-18.5 30.5t-40 16zM290 -109q27 0 47 4t29.5 9.5t15.5 12t7 9.5t1 5q0 37 -100 37q-102 0 -102 -35q0 -7 6.5 -15t31.5 -17
t64 -10z" />
    <glyph glyph-name="Gcommaaccent" unicode="&#x122;" horiz-adv-x="727" 
d="M523 245h-122q-16 0 -16 16v96q0 16 16 16h248q16 0 16 -16v-247q0 -16 -12 -27q-98 -92 -245 -92q-77 0 -138.5 23.5t-99.5 60t-64 85t-36 96t-10 95.5q0 47 10 93.5t36 95.5t64 86t99.5 60.5t138.5 23.5q146 0 248 -102q10 -12 0 -24l-65 -70q-10 -12 -23 -1
q-31 28 -75.5 46.5t-84.5 18.5q-51 0 -90 -18.5t-59.5 -44t-34 -59t-17 -58t-3.5 -45.5t3.5 -46.5t17 -60t34 -61.5t59.5 -46t90 -19q30 0 63.5 10t51.5 26v89zM392 -336l-28 13q-15 7 -8 21q22 46 31 74q-49 16 -49 70q0 29 20 50t50 21q39 0 58 -22.5t19 -54.5
q0 -55 -69 -165q-9 -12 -24 -7z" />
    <glyph glyph-name="gcommaaccent" unicode="&#x123;" 
d="M292 588q-39 0 -58 22.5t-19 54.5q0 55 69 165q9 13 24 6l28 -13q6 -2 8.5 -8.5t-0.5 -11.5q-22 -46 -31 -74q49 -16 49 -70q0 -29 -20 -50t-50 -21zM245 79q154 7 213.5 -32t59.5 -114q0 -12 -3 -27.5t-16.5 -39.5t-35.5 -42.5t-65.5 -32.5t-101.5 -14q-125 0 -180.5 48
t-55.5 109q1 26 14.5 54.5t38.5 45.5q-41 32 -41 93q0 25 14.5 49t37.5 35q-35 38 -35 105q0 34 10.5 66.5t32.5 62.5t62.5 48.5t95.5 18.5q59 0 95 -20l59 56q12 11 23 0l57 -57q11 -11 0 -23l-59 -63q28 -41 28 -91q0 -33 -11 -65.5t-33 -62t-63.5 -48t-95.5 -18.5
q-45 0 -76 12q-9 -1 -16 -6t-7 -12q0 -19 11.5 -27.5t42.5 -7.5zM290 391q-35 0 -49 -24.5t-14 -50.5q0 -14 3 -28t18.5 -30t41.5 -16q25 0 40 16t18.5 30.5t3.5 27.5q0 14 -3.5 28.5t-18.5 30.5t-40 16zM290 -109q27 0 47 4t29.5 9.5t15.5 12t7 9.5t1 5q0 37 -100 37
q-102 0 -102 -35q0 -7 6.5 -15t31.5 -17t64 -10z" />
    <glyph glyph-name="Hcircumflex" unicode="&#x124;" horiz-adv-x="775" 
d="M242 280v-264q0 -16 -16 -16h-110q-16 0 -16 16v668q0 16 16 16h110q16 0 16 -16v-274h292v274q0 16 16 16h109q16 0 16 -16v-668q0 -16 -16 -16h-109q-16 0 -16 16v264h-292zM239 873l135 105q13 10 26 0l135 -105q13 -11 4 -23l-34 -48q-9 -12 -23 -5l-95 59l-95 -59
q-14 -7 -23 5l-34 48q-9 12 4 23z" />
    <glyph glyph-name="hcircumflex" unicode="&#x125;" horiz-adv-x="584" 
d="M199 0h-103q-16 0 -16 16v668q0 16 16 16h103q16 0 16 -16v-202q43 26 96 26q55 0 95.5 -15t62.5 -38t35 -58.5t16.5 -66.5t3.5 -72v-242q0 -16 -16 -16h-103q-16 0 -16 16v242q0 59 -18.5 94t-76.5 34q-53 -2 -79 -38v-332q0 -16 -16 -16zM0 875l135 105q13 10 26 0
l135 -105q13 -11 4 -23l-34 -48q-9 -12 -23 -5l-95 59l-95 -59q-14 -7 -23 5l-34 48q-9 12 4 23z" />
    <glyph glyph-name="Hbar" unicode="&#x126;" horiz-adv-x="761" 
d="M56 613h36v71q0 16 16 16h110q16 0 16 -16v-71h292v71q0 16 16 16h109q16 0 16 -16v-71h38q16 0 16 -16v-65q0 -16 -16 -16h-38v-500q0 -16 -16 -16h-109q-16 0 -16 16v264h-292v-264q0 -16 -16 -16h-110q-16 0 -16 16v500h-36q-16 0 -16 16v65q0 16 16 16zM234 410h292
v106h-292v-106z" />
    <glyph glyph-name="hbar" unicode="&#x127;" horiz-adv-x="584" 
d="M43 648h37v36q0 16 16 16h103q16 0 16 -16v-36h97q16 0 16 -16v-41q0 -16 -16 -16h-97v-93q43 26 96 26q55 0 95.5 -15t62.5 -38t35 -58.5t16.5 -66.5t3.5 -72v-242q0 -16 -16 -16h-103q-16 0 -16 16v242q0 59 -18.5 94t-76.5 34q-53 -2 -79 -38v-332q0 -16 -16 -16h-103
q-16 0 -16 16v559h-37q-16 0 -16 16v41q0 16 16 16z" />
    <glyph glyph-name="Itilde" unicode="&#x128;" horiz-adv-x="355" 
d="M248 684v-668q0 -16 -16 -16h-110q-16 0 -16 16v668q0 16 16 16h110q16 0 16 -16zM287 928l54 -29q15 -7 7 -21q-47 -88 -126 -88q-23 0 -50.5 17t-43.5 17q-25 0 -42 -25q-9 -14 -23 -7l-49 22q-14 7 -9 22q35 92 124 92q27 0 55.5 -16t39.5 -16q22 0 40 25q10 13 23 7z
" />
    <glyph glyph-name="itilde" unicode="&#x129;" horiz-adv-x="355" 
d="M245 484v-468q0 -16 -16 -16h-104q-16 0 -16 16v468q0 16 16 16h104q16 0 16 -16zM287 728l54 -29q15 -7 7 -21q-47 -88 -126 -88q-23 0 -50.5 17t-43.5 17q-25 0 -42 -25q-9 -14 -23 -7l-49 22q-14 7 -9 22q35 92 124 92q27 0 55.5 -16t39.5 -16q22 0 40 25q10 13 23 7z
" />
    <glyph glyph-name="Imacron" unicode="&#x12a;" horiz-adv-x="301" 
d="M221 684v-668q0 -16 -16 -16h-110q-16 0 -16 16v668q0 16 16 16h110q16 0 16 -16zM16 894h269q16 0 16 -16v-65q0 -16 -16 -16h-269q-16 0 -16 16v65q0 16 16 16z" />
    <glyph glyph-name="imacron" unicode="&#x12b;" horiz-adv-x="301" 
d="M218 484v-468q0 -16 -16 -16h-104q-16 0 -16 16v468q0 16 16 16h104q16 0 16 -16zM16 694h269q16 0 16 -16v-65q0 -16 -16 -16h-269q-16 0 -16 16v65q0 16 16 16z" />
    <glyph glyph-name="Ibreve" unicode="&#x12c;" horiz-adv-x="311" 
d="M226 684v-668q0 -16 -16 -16h-110q-16 0 -16 16v668q0 16 16 16h110q16 0 16 -16zM225 944l71 -20q15 -5 11 -20q-19 -57 -59.5 -85.5t-92.5 -28.5t-92.5 28t-58.5 85q-4 16 11 20l69 20q13 5 19 -10q14 -39 52 -39q35 0 50 40q7 15 20 10z" />
    <glyph glyph-name="ibreve" unicode="&#x12d;" horiz-adv-x="311" 
d="M223 484v-468q0 -16 -16 -16h-104q-16 0 -16 16v468q0 16 16 16h104q16 0 16 -16zM225 744l71 -20q15 -5 11 -20q-19 -57 -59.5 -85.5t-92.5 -28.5t-92.5 28t-58.5 85q-4 16 11 20l69 20q13 5 19 -10q14 -39 52 -39q35 0 50 40q7 15 20 10z" />
    <glyph glyph-name="Iogonek" unicode="&#x12e;" horiz-adv-x="342" 
d="M242 684v-683q0 -1 -1 -1v-3q0 -10 -17 -41.5t-17 -52.5q0 -40 51 -40q28 0 67 13q5 2 10 -1.5t5 -9.5v-49q0 -17 -15 -22q-47 -17 -98 -17q-50 0 -83 27t-33 79q0 30 21 69.5t21 47.5h-37q-16 0 -16 16v668q0 16 16 16h110q16 0 16 -16z" />
    <glyph glyph-name="iogonek" unicode="&#x12f;" horiz-adv-x="313" 
d="M224 484v-487q0 -10 -17 -41.5t-17 -52.5q0 -40 51 -40q28 0 67 13q5 2 10 -1.5t5 -9.5v-49q0 -17 -15 -22q-47 -17 -98 -17q-50 0 -83 27t-33 79q0 30 21 69.5t21 47.5h-32q-16 0 -16 16v468q0 16 16 16h104q16 0 16 -16zM80 663q0 32 22 54.5t55 22.5q32 0 54 -22.5
t22 -54.5q0 -33 -22 -54.5t-54 -21.5q-33 0 -55 21.5t-22 54.5z" />
    <glyph glyph-name="Idotaccent" unicode="&#x130;" horiz-adv-x="333" 
d="M90 867q0 32 22 54.5t55 22.5q32 0 54 -22.5t22 -54.5q0 -33 -22 -54.5t-54 -21.5q-33 0 -55 21.5t-22 54.5zM237 684v-668q0 -16 -16 -16h-110q-16 0 -16 16v668q0 16 16 16h110q16 0 16 -16z" />
    <glyph glyph-name="dotlessi" unicode="&#x131;" horiz-adv-x="313" 
d="M224 484v-468q0 -16 -16 -16h-104q-16 0 -16 16v468q0 16 16 16h104q16 0 16 -16z" />
    <glyph glyph-name="IJ" unicode="&#x132;" horiz-adv-x="926" 
d="M242 684v-668q0 -16 -16 -16h-110q-16 0 -16 16v668q0 16 16 16h110q16 0 16 -16zM330 211l96 35q15 5 20 -9q41 -111 124 -109q113 3 113 145v411q0 16 16 16h111q16 0 16 -16v-411q0 -38 -6.5 -73.5t-24 -74t-45 -66.5t-74 -46.5t-106.5 -18.5q-105 0 -162.5 52.5
t-87.5 144.5q-5 14 10 20z" />
    <glyph glyph-name="ij" unicode="&#x133;" horiz-adv-x="606" 
d="M224 484v-468q0 -16 -16 -16h-104q-16 0 -16 16v468q0 16 16 16h104q16 0 16 -16zM82 679q5 27 26 44t49 17q32 0 54 -22.5t22 -54.5q0 -33 -22 -54.5t-54 -21.5q-29 0 -50 16.5t-26 43.5q-3 17 1 32zM254 -65q40 -20 70 -20q56 0 56 75v494q0 16 16 16h105q16 0 16 -16
v-486v-11q0 -18 -2 -36.5t-12 -48t-27.5 -51t-52.5 -38t-83 -16.5q-81 0 -145 49q-13 9 -3 23l39 61q9 12 23 5zM373 664q0 33 21.5 55t54.5 22q32 0 54.5 -22.5t22.5 -54.5q0 -33 -22 -54.5t-55 -21.5t-54.5 21t-21.5 55z" />
    <glyph glyph-name="Jcircumflex" unicode="&#x134;" horiz-adv-x="631" 
d="M35 211l96 35q15 5 20 -9q41 -111 124 -109q113 3 113 145v411q0 16 16 16h111q16 0 16 -16v-411q0 -38 -6.5 -73.5t-24 -74t-45 -66.5t-74 -46.5t-106.5 -18.5q-105 0 -162.5 52.5t-87.5 144.5q-5 14 10 20zM313 873l135 105q13 10 26 0l135 -105q13 -11 4 -23l-34 -48
q-9 -12 -23 -5l-95 59l-95 -59q-14 -7 -23 5l-34 48q-9 12 4 23z" />
    <glyph glyph-name="jcircumflex" unicode="&#x135;" horiz-adv-x="293" 
d="M-59 -65q40 -20 70 -20q56 0 56 75v494q0 16 16 16h105q16 0 16 -16v-486v-11q0 -18 -2 -36.5t-12 -48t-27.5 -51t-52.5 -38t-83 -16.5q-81 0 -145 49q-13 9 -3 23l39 61q9 12 23 5zM-1 673l135 105q13 10 26 0l135 -105q13 -11 4 -23l-34 -48q-9 -12 -23 -5l-95 59
l-95 -59q-14 -7 -23 5l-34 48q-9 12 4 23z" />
    <glyph glyph-name="Kcommaaccent" unicode="&#x136;" horiz-adv-x="710" 
d="M226 0h-110q-16 0 -16 16v668q0 16 16 16h110q16 0 16 -16v-264l236 268q10 12 27 12h131q5 0 6.5 -4t-1.5 -8l-287 -327l314 -349q3 -4 1.5 -8t-6.5 -4h-139q-16 0 -27 12l-255 283v-279q0 -16 -16 -16zM335 -336l-28 13q-15 7 -8 21q22 46 31 74q-49 16 -49 70
q0 29 20 50t50 21q39 0 58 -22.5t19 -54.5q0 -55 -69 -165q-9 -12 -24 -7z" />
    <glyph glyph-name="kcommaaccent" unicode="&#x137;" horiz-adv-x="601" 
d="M409 12l-194 212v-208q0 -16 -16 -16h-103q-16 0 -16 16v668q0 16 16 16h103q16 0 16 -16v-399l180 203q11 12 27 12h125q5 0 6.5 -4t-1.5 -8l-205 -228l222 -248q3 -4 1.5 -8t-6.5 -4h-128q-16 0 -27 12zM281 -336l-28 13q-15 7 -8 21q22 46 31 74q-49 16 -49 70
q0 29 20 50t50 21q39 0 58 -22.5t19 -54.5q0 -55 -69 -165q-9 -12 -24 -7z" />
    <glyph glyph-name="kgreenlandic" unicode="&#x138;" horiz-adv-x="601" 
d="M409 12l-194 212v-208q0 -16 -16 -16h-103q-16 0 -16 16v468q0 16 16 16h103q16 0 16 -16v-199l180 203q11 12 27 12h125q5 0 6.5 -4t-1.5 -8l-205 -228l222 -248q3 -4 1.5 -8t-6.5 -4h-128q-16 0 -27 12z" />
    <glyph glyph-name="Lacute" unicode="&#x139;" horiz-adv-x="564" 
d="M242 684v-554h246q16 0 16 -16v-98q0 -16 -16 -16h-372q-16 0 -16 16v668q0 16 16 16h110q16 0 16 -16zM120 871l135 105q13 9 22 -3l47 -65q4 -5 2.5 -11.5t-7.5 -9.5l-146 -92q-14 -7 -23 5l-34 48q-9 12 4 23z" />
    <glyph glyph-name="lacute" unicode="&#x13a;" horiz-adv-x="266" 
d="M201 675v-659q0 -16 -16 -16h-105q-16 0 -16 16v659q0 16 16 16h105q16 0 16 -16zM33 870l135 105q13 9 22 -3l47 -65q4 -5 2.5 -11.5t-7.5 -9.5l-146 -92q-14 -7 -23 5l-34 48q-9 12 4 23z" />
    <glyph glyph-name="Lcommaaccent" unicode="&#x13b;" horiz-adv-x="564" 
d="M242 684v-554h246q16 0 16 -16v-98q0 -16 -16 -16h-372q-16 0 -16 16v668q0 16 16 16h110q16 0 16 -16zM262 -336l-28 13q-15 7 -8 21q22 46 31 74q-49 16 -49 70q0 29 20 50t50 21q39 0 58 -22.5t19 -54.5q0 -55 -69 -165q-9 -12 -24 -7z" />
    <glyph glyph-name="lcommaaccent" unicode="&#x13c;" horiz-adv-x="297" 
d="M217 684v-668q0 -16 -16 -16h-105q-16 0 -16 16v668q0 16 16 16h105q16 0 16 -16zM129 -336l-28 13q-15 7 -8 21q22 46 31 74q-49 16 -49 70q0 29 20 50t50 21q39 0 58 -22.5t19 -54.5q0 -55 -69 -165q-9 -12 -24 -7z" />
    <glyph glyph-name="Lcaron" unicode="&#x13d;" horiz-adv-x="564" 
d="M242 684v-554h246q16 0 16 -16v-98q0 -16 -16 -16h-372q-16 0 -16 16v668q0 16 16 16h110q16 0 16 -16zM395 399l-42 20q-13 7 -6 21q33 62 48 114q-54 17 -54 78q0 35 23 58.5t58 23.5q46 0 67.5 -26t21.5 -64q0 -42 -29.5 -107t-62.5 -112q-10 -13 -24 -6z" />
    <glyph glyph-name="lcaron" unicode="&#x13e;" horiz-adv-x="500" 
d="M217 686v-670q0 -16 -16 -16h-105q-16 0 -16 16v670q0 16 16 16h105q16 0 16 -16zM380 397l-42 20q-13 7 -6 21q33 62 48 114q-54 17 -54 78q0 35 23 58.5t58 23.5q46 0 67.5 -26t21.5 -64q0 -42 -29.5 -107t-62.5 -112q-10 -13 -24 -6z" />
    <glyph glyph-name="Ldot" unicode="&#x13f;" horiz-adv-x="564" 
d="M242 684v-554h246q16 0 16 -16v-98q0 -16 -16 -16h-372q-16 0 -16 16v668q0 16 16 16h110q16 0 16 -16zM322 368q0 -35 23 -59t58 -24t59 24.5t24 58.5q0 35 -24 58t-59 23t-58 -23t-23 -58z" />
    <glyph glyph-name="ldot" unicode="&#x140;" horiz-adv-x="486" 
d="M217 685v-669q0 -16 -16 -16h-105q-16 0 -16 16v669q0 16 16 16h105q16 0 16 -16zM308 360q0 -35 23 -59t58 -24t59 24.5t24 58.5q0 35 -24 58t-59 23t-58 -23t-23 -58z" />
    <glyph glyph-name="Lslash" unicode="&#x141;" horiz-adv-x="560" 
d="M58 233l-40 65q-8 15 6 22l84 49v315q0 16 16 16h110q16 0 16 -16v-233l110 64q15 8 22 -6l39 -65q8 -15 -6 -22l-165 -97v-195h234q16 0 16 -16v-98q0 -16 -16 -16h-360q-16 0 -16 16v229l-28 -18q-15 -8 -22 6z" />
    <glyph glyph-name="lslash" unicode="&#x142;" horiz-adv-x="379" 
d="M57 228l-39 62q-8 15 6 22l82 49v314q0 16 16 16h106q16 0 16 -16v-235q33 18 57 33q15 8 22 -6l38 -63q8 -15 -6 -22l-111 -65v-300q0 -16 -16 -16h-106q-16 0 -16 16v222q-3 -2 -27 -17q-14 -9 -22 6z" />
    <glyph glyph-name="Nacute" unicode="&#x143;" horiz-adv-x="776" 
d="M225 0h-108q-7 0 -12 5t-5 12v677q0 14 13 14q14 0 24 -10l397 -395v380q0 7 5 12t12 5h108q7 0 12 -5t5 -12v-677q0 -12 -12 -12q-11 0 -21 8l-401 405v-390q0 -7 -5 -12t-12 -5zM288 871l135 105q13 9 22 -3l47 -65q4 -5 2.5 -11.5t-7.5 -9.5l-146 -92q-14 -7 -23 5
l-34 48q-9 12 4 23z" />
    <glyph glyph-name="nacute" unicode="&#x144;" 
d="M215 344v-328q0 -16 -16 -16h-103q-16 0 -16 16v468q0 16 16 16h60q16 0 21 -15l7 -21q54 44 126 44q55 0 95 -15.5t63 -38.5t36 -58t17 -66.5t4 -71.5v-242q0 -16 -16 -16h-106q-16 0 -16 16v242q0 129 -82 129q-59 0 -90 -43zM192 671l135 105q13 9 22 -3l47 -65
q4 -5 2.5 -11.5t-7.5 -9.5l-146 -92q-14 -7 -23 5l-34 48q-9 12 4 23z" />
    <glyph glyph-name="Ncommaaccent" unicode="&#x145;" horiz-adv-x="776" 
d="M225 0h-108q-7 0 -12 5t-5 12v677q0 14 13 14q14 0 24 -10l397 -395v380q0 7 5 12t12 5h108q7 0 12 -5t5 -12v-677q0 -12 -12 -12q-11 0 -21 8l-401 405v-390q0 -7 -5 -12t-12 -5zM368 -336l-28 13q-15 7 -8 21q22 46 31 74q-49 16 -49 70q0 29 20 50t50 21
q39 0 58 -22.5t19 -54.5q0 -55 -69 -165q-9 -12 -24 -7z" />
    <glyph glyph-name="ncommaaccent" unicode="&#x146;" 
d="M215 344v-328q0 -16 -16 -16h-103q-16 0 -16 16v468q0 16 16 16h60q16 0 21 -15l7 -21q54 44 126 44q55 0 95 -15.5t63 -38.5t36 -58t17 -66.5t4 -71.5v-242q0 -16 -16 -16h-106q-16 0 -16 16v242q0 129 -82 129q-59 0 -90 -43zM273 -336l-28 13q-15 7 -8 21q22 46 31 74
q-49 16 -49 70q0 29 20 50t50 21q39 0 58 -22.5t19 -54.5q0 -55 -69 -165q-9 -12 -24 -7z" />
    <glyph glyph-name="Ncaron" unicode="&#x147;" horiz-adv-x="772" 
d="M225 0h-108q-7 0 -12 5t-5 12v677q0 14 13 14q14 0 24 -10l397 -395v380q0 7 5 12t12 5h108q7 0 12 -5t5 -12v-677q0 -12 -12 -12q-11 0 -21 8l-401 405v-390q0 -7 -5 -12t-12 -5zM373 796l-135 105q-13 11 -4 23l34 48q9 12 23 5l95 -59l95 59q14 7 23 -5l34 -48
q9 -12 -4 -23l-135 -105q-13 -10 -26 0z" />
    <glyph glyph-name="ncaron" unicode="&#x148;" horiz-adv-x="582" 
d="M185 344v-328q0 -16 -16 -16h-103q-16 0 -16 16v468q0 16 16 16h60q16 0 21 -15l7 -21q54 44 126 44q55 0 95 -15.5t63 -38.5t36 -58t17 -66.5t4 -71.5v-242q0 -16 -16 -16h-106q-16 0 -16 16v242q0 129 -82 129q-59 0 -90 -43zM251 596l-135 105q-13 11 -4 23l34 48
q9 12 23 5l95 -59l95 59q14 7 23 -5l34 -48q9 -12 -4 -23l-135 -105q-13 -10 -26 0z" />
    <glyph glyph-name="napostrophe" unicode="&#x149;" horiz-adv-x="722" 
d="M352 344v-328q0 -16 -16 -16h-103q-16 0 -16 16v468q0 16 16 16h60q16 0 21 -15l7 -21q54 44 126 44q55 0 95 -15.5t63 -38.5t36 -58t17 -66.5t4 -71.5v-242q0 -16 -16 -16h-106q-16 0 -16 16v242q0 129 -82 129q-59 0 -90 -43zM64 492l-28 13q-15 7 -8 21q22 46 31 74
q-49 16 -49 70q0 29 20 50t50 21q39 0 58 -22.5t19 -54.5q0 -55 -69 -165q-9 -12 -24 -7z" />
    <glyph glyph-name="Eng" unicode="&#x14a;" horiz-adv-x="776" 
d="M412 -89q40 -20 70 -20q53 0 53 75v148l-293 296v-394q0 -16 -16 -16h-110q-16 0 -16 16v678q0 16 16 16h3q16 0 27 -11l388 -396v381q0 16 16 16h110q16 0 16 -16l-1 -721q0 -18 -2 -36.5t-12 -48t-27.5 -51t-52.5 -38t-83 -16.5q-81 0 -145 49q-13 9 -3 23l39 61
q9 12 23 5z" />
    <glyph glyph-name="eng" unicode="&#x14b;" 
d="M261 -88q40 -20 70 -20q56 0 56 75v291q0 129 -82 129q-59 0 -90 -43v-328q0 -16 -16 -16h-103q-16 0 -16 16v468q0 16 16 16h60q16 0 21 -15l7 -21q54 44 126 44q55 0 95 -15.5t63 -38.5t36 -58t17 -66.5t4 -71.5v-294q0 -18 -2 -36.5t-12.5 -48t-28 -51t-52.5 -38
t-83 -16.5q-81 0 -145 49q-13 9 -3 23l39 61q9 12 23 5z" />
    <glyph glyph-name="Omacron" unicode="&#x14c;" horiz-adv-x="814" 
d="M408 712q76 0 137.5 -24t99.5 -61t63.5 -86t35.5 -96t10 -94q0 -48 -10 -95.5t-35.5 -96.5t-63.5 -86t-99.5 -60.5t-137.5 -23.5q-77 0 -138.5 23.5t-99.5 60.5t-64 86t-36 96.5t-10 95.5q0 47 10 94t36 96t64 86t99.5 61t138.5 24zM408 120q50 0 88.5 19t59 45.5
t33.5 61t17 59.5t4 46t-4 46t-17 59t-33.5 60.5t-59 45t-88.5 18.5q-51 0 -90 -18.5t-59.5 -45t-34 -60.5t-17 -59t-3.5 -46t3.5 -46t17 -59.5t34 -61t59.5 -45.5t90 -19zM272 894h269q16 0 16 -16v-65q0 -16 -16 -16h-269q-16 0 -16 16v65q0 16 16 16z" />
    <glyph glyph-name="omacron" unicode="&#x14d;" horiz-adv-x="618" 
d="M309 510q68 0 119 -25t78 -66t39.5 -83.5t12.5 -85.5q0 -44 -12.5 -86.5t-39.5 -83t-78 -65t-119 -24.5t-119 24.5t-78 65t-39.5 83t-12.5 86.5q0 43 12.5 85.5t39.5 83.5t78 66t119 25zM309 112q35 0 59.5 16t35.5 41t15 44.5t4 36.5t-4 37t-15 45t-35.5 41t-59.5 16
t-60 -16.5t-35.5 -41t-15 -44.5t-4.5 -37t4.5 -36.5t15 -44.5t35.5 -41t60 -16zM174 694h269q16 0 16 -16v-65q0 -16 -16 -16h-269q-16 0 -16 16v65q0 16 16 16z" />
    <glyph glyph-name="Obreve" unicode="&#x14e;" horiz-adv-x="814" 
d="M408 712q76 0 137.5 -24t99.5 -61t63.5 -86t35.5 -96t10 -94q0 -48 -10 -95.5t-35.5 -96.5t-63.5 -86t-99.5 -60.5t-137.5 -23.5q-77 0 -138.5 23.5t-99.5 60.5t-64 86t-36 96.5t-10 95.5q0 47 10 94t36 96t64 86t99.5 61t138.5 24zM408 120q50 0 88.5 19t59 45.5
t33.5 61t17 59.5t4 46t-4 46t-17 59t-33.5 60.5t-59 45t-88.5 18.5q-51 0 -90 -18.5t-59.5 -45t-34 -60.5t-17 -59t-3.5 -46t3.5 -46t17 -59.5t34 -61t59.5 -45.5t90 -19zM476 944l71 -20q15 -5 11 -20q-19 -57 -59.5 -85.5t-92.5 -28.5t-92.5 28t-58.5 85q-4 16 11 20
l69 20q13 5 19 -10q14 -39 52 -39q35 0 50 40q7 15 20 10z" />
    <glyph glyph-name="obreve" unicode="&#x14f;" horiz-adv-x="618" 
d="M309 510q68 0 119 -25t78 -66t39.5 -83.5t12.5 -85.5q0 -44 -12.5 -86.5t-39.5 -83t-78 -65t-119 -24.5t-119 24.5t-78 65t-39.5 83t-12.5 86.5q0 43 12.5 85.5t39.5 83.5t78 66t119 25zM309 112q35 0 59.5 16t35.5 41t15 44.5t4 36.5t-4 37t-15 45t-35.5 41t-59.5 16
t-60 -16.5t-35.5 -41t-15 -44.5t-4.5 -37t4.5 -36.5t15 -44.5t35.5 -41t60 -16zM375 744l71 -20q15 -5 11 -20q-19 -57 -59.5 -85.5t-92.5 -28.5t-92.5 28t-58.5 85q-4 16 11 20l69 20q13 5 19 -10q14 -39 52 -39q35 0 50 40q7 15 20 10z" />
    <glyph glyph-name="Ohungarumlaut" unicode="&#x150;" horiz-adv-x="814" 
d="M408 712q76 0 137.5 -24t99.5 -61t63.5 -86t35.5 -96t10 -94q0 -48 -10 -95.5t-35.5 -96.5t-63.5 -86t-99.5 -60.5t-137.5 -23.5q-77 0 -138.5 23.5t-99.5 60.5t-64 86t-36 96.5t-10 95.5q0 47 10 94t36 96t64 86t99.5 61t138.5 24zM408 120q50 0 88.5 19t59 45.5
t33.5 61t17 59.5t4 46t-4 46t-17 59t-33.5 60.5t-59 45t-88.5 18.5q-51 0 -90 -18.5t-59.5 -45t-34 -60.5t-17 -59t-3.5 -46t3.5 -46t17 -59.5t34 -61t59.5 -45.5t90 -19zM606 939l-53 -128q-7 -15 -22 -15h-65q-6 0 -9.5 5t-1.5 10l39 128q5 15 21 15h81q6 0 9 -5t1 -10z
M403 939l-53 -128q-7 -15 -22 -15h-65q-6 0 -9.5 5t-1.5 10l39 128q5 15 21 15h81q6 0 9 -5t1 -10z" />
    <glyph glyph-name="ohungarumlaut" unicode="&#x151;" horiz-adv-x="618" 
d="M309 510q68 0 119 -25t78 -66t39.5 -83.5t12.5 -85.5q0 -44 -12.5 -86.5t-39.5 -83t-78 -65t-119 -24.5t-119 24.5t-78 65t-39.5 83t-12.5 86.5q0 43 12.5 85.5t39.5 83.5t78 66t119 25zM309 112q35 0 59.5 16t35.5 41t15 44.5t4 36.5t-4 37t-15 45t-35.5 41t-59.5 16
t-60 -16.5t-35.5 -41t-15 -44.5t-4.5 -37t4.5 -36.5t15 -44.5t35.5 -41t60 -16zM502 739l-53 -128q-7 -15 -22 -15h-65q-6 0 -9.5 5t-1.5 10l39 128q5 15 21 15h81q6 0 9 -5t1 -10zM299 739l-53 -128q-7 -15 -22 -15h-65q-6 0 -9.5 5t-1.5 10l39 128q5 15 21 15h81q6 0 9 -5
t1 -10z" />
    <glyph glyph-name="OE" unicode="&#x152;" horiz-adv-x="1047" 
d="M897 280h-245v-150h318q7 0 12 -5t5 -12v-96q0 -7 -5 -12t-12 -5h-459q-57 -11 -103 -11q-77 0 -138.5 23.5t-99.5 60.5t-64 86t-36 96.5t-10 95.5q0 47 10 94t36 96t64 86t99.5 61t138.5 24q50 0 103 -12h459q7 0 12 -5t5 -12v-96q0 -7 -5 -12t-12 -5h-318v-160h245
q7 0 12 -5t5 -12v-96q0 -7 -5 -12t-12 -5zM408 120q59 0 103 26v407q-46 27 -103 27q-51 0 -90 -18.5t-59.5 -45t-34 -60.5t-17 -59t-3.5 -46t3.5 -46t17 -59.5t34 -61t59.5 -45.5t90 -19z" />
    <glyph glyph-name="oe" unicode="&#x153;" horiz-adv-x="925" 
d="M880 292q0 -24 -3 -48q0 -17 -18 -17h-296q6 -47 35 -78.5t75 -31.5q58 0 111 35q14 9 24 -4l46 -63q10 -14 -3 -25q-86 -66 -178 -66q-113 0 -183 74q-72 -77 -181 -77q-68 0 -119 24.5t-78 65t-39.5 83t-12.5 86.5q0 43 12.5 85.5t39.5 83.5t78 66t119 25
q115 0 182 -74q66 71 182 71q98 0 152.5 -58t54.5 -157zM423 250q1 19 -4 40.5t-16.5 45t-36 38.5t-57.5 15q-35 0 -60 -16.5t-35.5 -41t-15 -44.5t-4.5 -37t4.5 -36.5t15 -44.5t35.5 -41t60 -16q33 0 57 14.5t35.5 38.5t16 44t5.5 41zM567 307h179q-2 78 -73 79
q-80 0 -106 -79z" />
    <glyph glyph-name="Racute" unicode="&#x154;" horiz-adv-x="675" 
d="M436 887l-146 -92q-14 -7 -23 5l-34 48q-9 12 4 23l135 105q13 9 22 -3l47 -65q4 -5 2.5 -11.5t-7.5 -9.5zM615 473q0 -73 -38 -127t-100 -81l118 -251q2 -5 -1 -9.5t-8 -4.5h-122q-16 0 -23 14l-107 229h-94v-227q0 -16 -16 -16h-108q-16 0 -16 16v668q0 16 16 16h249
q68 0 119.5 -22t78.5 -57.5t39.5 -72.5t12.5 -75zM374 374q53 1 76 33.5t23 65.5q0 35 -23.5 66.5t-79.5 31.5h-130v-197h134z" />
    <glyph glyph-name="racute" unicode="&#x155;" horiz-adv-x="415" 
d="M390 483l-29 -94q-6 -15 -21 -12q-28 4 -43 4q-58 0 -82 -41v-324q0 -16 -16 -16h-103q-16 0 -16 16v468q0 16 16 16h60q15 0 22 -15l6 -16q57 37 128 37q30 0 67 -5q7 -1 10 -6.5t1 -11.5zM108 671l135 105q13 9 22 -3l47 -65q4 -5 2.5 -11.5t-7.5 -9.5l-146 -92
q-14 -7 -23 5l-34 48q-9 12 4 23z" />
    <glyph glyph-name="Rcommaaccent" unicode="&#x156;" horiz-adv-x="675" 
d="M334 -87q39 0 58 -22.5t19 -54.5q0 -55 -69 -165q-9 -12 -24 -7l-28 13q-15 7 -8 21q22 46 31 74q-49 16 -49 70q0 29 20 50t50 21zM615 473q0 -73 -38 -127t-100 -81l118 -251q2 -5 -1 -9.5t-8 -4.5h-122q-16 0 -23 14l-107 229h-94v-227q0 -16 -16 -16h-108
q-16 0 -16 16v668q0 16 16 16h249q68 0 119.5 -22t78.5 -57.5t39.5 -72.5t12.5 -75zM374 374q53 1 76 33.5t23 65.5q0 35 -23.5 66.5t-79.5 31.5h-130v-197h134z" />
    <glyph glyph-name="rcommaaccent" unicode="&#x157;" horiz-adv-x="415" 
d="M142 -87q39 0 58 -22.5t19 -54.5q0 -55 -69 -165q-9 -12 -24 -7l-28 13q-15 7 -8 21q22 46 31 74q-49 16 -49 70q0 29 20 50t50 21zM312 506q30 0 67 -5q7 -1 10 -6.5t1 -11.5l-29 -94q-6 -15 -21 -12q-28 4 -43 4q-58 0 -82 -41v-324q0 -16 -16 -16h-103q-16 0 -16 16
v468q0 16 16 16h60q15 0 22 -15l6 -16q57 37 128 37z" />
    <glyph glyph-name="Rcaron" unicode="&#x158;" horiz-adv-x="675" 
d="M441 901l-135 -105q-13 -10 -26 0l-135 105q-13 11 -4 23l34 48q9 12 23 5l95 -59l95 59q14 7 23 -5l34 -48q9 -12 -4 -23zM615 473q0 -73 -38 -127t-100 -81l118 -251q2 -5 -1 -9.5t-8 -4.5h-122q-16 0 -23 14l-107 229h-94v-227q0 -16 -16 -16h-108q-16 0 -16 16v668
q0 16 16 16h249q68 0 119.5 -22t78.5 -57.5t39.5 -72.5t12.5 -75zM374 374q53 1 76 33.5t23 65.5q0 35 -23.5 66.5t-79.5 31.5h-130v-197h134z" />
    <glyph glyph-name="rcaron" unicode="&#x159;" horiz-adv-x="415" 
d="M390 483l-29 -94q-6 -15 -21 -12q-28 4 -43 4q-58 0 -82 -41v-324q0 -16 -16 -16h-103q-16 0 -16 16v468q0 16 16 16h60q15 0 22 -15l6 -16q57 37 128 37q30 0 67 -5q7 -1 10 -6.5t1 -11.5zM195 596l-135 105q-13 11 -4 23l34 48q9 12 23 5l95 -59l95 59q14 7 23 -5
l34 -48q9 -12 -4 -23l-135 -105q-13 -10 -26 0z" />
    <glyph glyph-name="Sacute" unicode="&#x15a;" horiz-adv-x="642" 
d="M420 887l-146 -92q-14 -7 -23 5l-34 48q-9 12 4 23l135 105q13 9 22 -3l47 -65q4 -5 2.5 -11.5t-7.5 -9.5zM348 425q42 -12 66 -20.5t60.5 -28t56.5 -41.5t35.5 -59t15.5 -83q0 -86 -73 -143.5t-182 -57.5q-134 0 -257 64q-14 7 -7 21l45 89q7 14 22 7q107 -50 190 -50
q48 0 82 19.5t34 51.5q0 18 -8.5 33t-19 24.5t-34 19.5t-37 14.5t-45.5 14.5q-9 3 -13 4q-38 11 -60.5 19.5t-54 25.5t-49 36.5t-30.5 51t-13 70.5q0 94 63 149t164 55q111 0 240 -57q15 -8 8 -22l-41 -91q-5 -15 -21 -9q-114 44 -164 44q-49 0 -77 -13.5t-30 -50.5
q1 -18 10.5 -31t32 -23.5t39 -16.5t52.5 -16z" />
    <glyph glyph-name="sacute" unicode="&#x15b;" horiz-adv-x="512" 
d="M361 687l-146 -92q-14 -7 -23 5l-34 48q-9 12 4 23l135 105q13 9 22 -3l47 -65q4 -5 2.5 -11.5t-7.5 -9.5zM281 315q31 -10 47.5 -16t44 -21t42 -31t26 -42.5t11.5 -59.5q0 -68 -53 -110.5t-135 -42.5q-96 0 -190 53q-14 7 -7 22l40 78q7 14 21 7q80 -39 131 -39
q23 0 39 8.5t16 22.5q0 20 -20.5 31t-62.5 23q-35 11 -55.5 19.5t-47 26t-39.5 45t-13 64.5q0 72 46.5 113.5t123.5 41.5q82 0 180 -45q14 -7 7 -22l-37 -82q-8 -13 -22 -7q-72 32 -112 32q-55 0 -55 -27q0 -19 74 -42z" />
    <glyph glyph-name="Scircumflex" unicode="&#x15c;" horiz-adv-x="642" 
d="M321 856l-95 -59q-14 -7 -23 5l-34 48q-9 12 4 23l135 105q13 10 26 0l135 -105q13 -11 4 -23l-34 -48q-9 -12 -23 -5zM348 425q42 -12 66 -20.5t60.5 -28t56.5 -41.5t35.5 -59t15.5 -83q0 -86 -73 -143.5t-182 -57.5q-134 0 -257 64q-14 7 -7 21l45 89q7 14 22 7
q107 -50 190 -50q48 0 82 19.5t34 51.5q0 18 -8.5 33t-19 24.5t-34 19.5t-37 14.5t-45.5 14.5q-9 3 -13 4q-38 11 -60.5 19.5t-54 25.5t-49 36.5t-30.5 51t-13 70.5q0 94 63 149t164 55q111 0 240 -57q15 -8 8 -22l-41 -91q-5 -15 -21 -9q-114 44 -164 44q-49 0 -77 -13.5
t-30 -50.5q1 -18 10.5 -31t32 -23.5t39 -16.5t52.5 -16z" />
    <glyph glyph-name="scircumflex" unicode="&#x15d;" horiz-adv-x="512" 
d="M256 656l-95 -59q-14 -7 -23 5l-34 48q-9 12 4 23l135 105q13 10 26 0l135 -105q13 -11 4 -23l-34 -48q-9 -12 -23 -5zM281 315q31 -10 47.5 -16t44 -21t42 -31t26 -42.5t11.5 -59.5q0 -68 -53 -110.5t-135 -42.5q-96 0 -190 53q-14 7 -7 22l40 78q7 14 21 7
q80 -39 131 -39q23 0 39 8.5t16 22.5q0 20 -20.5 31t-62.5 23q-35 11 -55.5 19.5t-47 26t-39.5 45t-13 64.5q0 72 46.5 113.5t123.5 41.5q82 0 180 -45q14 -7 7 -22l-37 -82q-8 -13 -22 -7q-72 32 -112 32q-55 0 -55 -27q0 -19 74 -42z" />
    <glyph glyph-name="Scedilla" unicode="&#x15e;" horiz-adv-x="642" 
d="M582 193q0 -81 -65.5 -137.5t-165.5 -62.5v-21q49 -1 72.5 -30.5t23.5 -60.5q0 -53 -34 -81t-83 -28q-47 0 -92 20q-14 5 -7 22l16 36q7 14 22 9q31 -11 51 -11q14 0 25 10t12 23q1 14 -11.5 23.5t-38.5 9.5h-17q-9 0 -15 6q-6 8 -6 16v59q-96 8 -199 61q-14 7 -7 21
l45 89q7 14 22 7q107 -50 190 -50q48 0 82 19.5t34 51.5q0 18 -8.5 33t-19 24.5t-34 19.5t-37 14.5t-45.5 14.5q-9 3 -13 4q-38 11 -60.5 19.5t-54 25.5t-49 36.5t-30.5 51t-13 70.5q0 94 63 149t164 55q111 0 240 -57q15 -8 8 -22l-41 -91q-5 -15 -21 -9q-114 44 -164 44
q-49 0 -77 -13.5t-30 -50.5q1 -18 10.5 -31t32 -23.5t39 -16.5t52.5 -16q42 -12 66 -20.5t60.5 -28t56.5 -41.5t35.5 -59t15.5 -83z" />
    <glyph glyph-name="scedilla" unicode="&#x15f;" horiz-adv-x="512" 
d="M452 145q0 -62 -44.5 -103t-116.5 -48v-22q49 -1 72.5 -30.5t23.5 -60.5q0 -53 -34 -81t-83 -28q-47 0 -92 20q-14 5 -7 22l16 36q7 14 22 9q31 -11 51 -11q14 0 25 10t12 23q1 14 -11.5 23.5t-38.5 9.5h-17q-9 0 -15 6q-6 8 -6 16v60q-63 8 -135 49q-14 7 -7 22l40 78
q7 14 21 7q80 -39 131 -39q23 0 39 8.5t16 22.5q0 20 -20.5 31t-62.5 23q-35 11 -55.5 19.5t-47 26t-39.5 45t-13 64.5q0 72 46.5 113.5t123.5 41.5q82 0 180 -45q14 -7 7 -22l-37 -82q-8 -13 -22 -7q-72 32 -112 32q-55 0 -55 -27q0 -19 74 -42q31 -10 47.5 -16t44 -21
t42 -31t26 -42.5t11.5 -59.5z" />
    <glyph glyph-name="Scaron" unicode="&#x160;" horiz-adv-x="642" 
d="M469 901l-135 -105q-14 -10 -26 0l-135 105q-14 10 -3 24l32 46q10 14 24 5l95 -58l94 58q15 8 25 -5l32 -46q11 -14 -3 -24zM343 424q35 -12 49 -17t46.5 -18.5t48 -24t38.5 -29t33.5 -37.5t18 -46.5t5.5 -58.5q-5 -87 -76 -144t-179 -57q-133 0 -256 63q-6 3 -8 10
t1 13l46 87q3 6 10 8.5t13 -0.5q107 -50 187 -50q46 0 76.5 18t35.5 49q6 35 -24 57.5t-88 40.5q-108 33 -144 53q-104 56 -104 166q0 94 63 149t164 55q111 0 240 -57q15 -7 8 -23l-37 -87q-7 -15 -23 -10q-109 45 -178 45q-92 0 -95 -65q1 -17 10 -30t31 -24.5t37 -17.5
t51 -18z" />
    <glyph glyph-name="scaron" unicode="&#x161;" horiz-adv-x="512" 
d="M410 701l-135 -105q-14 -10 -26 0l-135 105q-14 10 -3 24l32 46q10 14 24 5l95 -58l94 58q15 8 25 -5l32 -46q11 -14 -3 -24zM281 315q31 -10 47.5 -16t44 -21t42 -31t26 -42.5t11.5 -59.5q0 -68 -53 -110.5t-135 -42.5q-96 0 -189 53q-7 3 -9 10t2 13l38 76q9 14 23 7
q79 -38 130 -38q23 0 39 8.5t16 22.5q0 20 -20.5 31t-62.5 23q-35 11 -55.5 19.5t-47 26t-39.5 45t-13 64.5q0 72 46.5 113.5t123.5 41.5q82 0 179 -45q15 -8 8 -22l-37 -81q-7 -15 -23 -8q-72 32 -111 32q-55 0 -55 -27q0 -19 74 -42z" />
    <glyph glyph-name="Tcommaaccent" unicode="&#x162;" horiz-adv-x="613" 
d="M234 16v554h-173q-16 0 -16 16v98q0 16 16 16h491q16 0 16 -16v-98q0 -16 -16 -16h-175v-554q0 -16 -16 -16h-111q-16 0 -16 16zM287 -336l-28 13q-15 7 -8 21q22 46 31 74q-49 16 -49 70q0 29 20 50t50 21q39 0 58 -22.5t19 -54.5q0 -55 -69 -165q-9 -12 -24 -7z" />
    <glyph glyph-name="tcommaaccent" unicode="&#x163;" horiz-adv-x="330" 
d="M62 380h-36q-16 0 -16 16v88q0 16 16 16h36l8 82q2 16 18 16h94q16 0 16 -16v-82h78q16 0 16 -16v-88q0 -16 -16 -16h-78v-235q0 -32 28 -32q13 0 55 11q16 3 19 -12l17 -78q1 -7 -2.5 -12.5t-9.5 -7.5q-74 -20 -124 -20q-38 0 -64 15.5t-37 40t-14.5 43t-3.5 37.5v250z
M145 -336l-28 13q-15 7 -8 21q22 46 31 74q-49 16 -49 70q0 29 20 50t50 21q39 0 58 -22.5t19 -54.5q0 -55 -69 -165q-9 -12 -24 -7z" />
    <glyph glyph-name="Tcaron" unicode="&#x164;" horiz-adv-x="613" 
d="M234 16v554h-173q-16 0 -16 16v98q0 16 16 16h491q16 0 16 -16v-98q0 -16 -16 -16h-175v-554q0 -16 -16 -16h-111q-16 0 -16 16zM293 796l-135 105q-13 11 -4 23l34 48q9 12 23 5l95 -59l95 59q14 7 23 -5l34 -48q9 -12 -4 -23l-135 -105q-13 -10 -26 0z" />
    <glyph glyph-name="tcaron" unicode="&#x165;" horiz-adv-x="560" 
d="M62 380h-36q-16 0 -16 16v88q0 16 16 16h36l8 82q2 16 18 16h94q16 0 16 -16v-82h78q16 0 16 -16v-88q0 -16 -16 -16h-78v-235q0 -32 28 -32q13 0 55 11q16 3 19 -12l17 -78q1 -7 -2.5 -12.5t-9.5 -7.5q-74 -20 -124 -20q-38 0 -64 15.5t-37 40t-14.5 43t-3.5 37.5v250z
M421 394l-42 20q-13 7 -6 21q33 62 48 114q-54 17 -54 78q0 35 23 58.5t58 23.5q46 0 67.5 -26t21.5 -64q0 -42 -29.5 -107t-62.5 -112q-10 -13 -24 -6z" />
    <glyph glyph-name="Tbar" unicode="&#x166;" horiz-adv-x="613" 
d="M453 306h-74v-290q0 -16 -16 -16h-114q-16 0 -16 16v290h-72q-16 0 -16 16v50q0 16 16 16h72v182h-172q-16 0 -16 16v98q0 16 16 16h491q16 0 16 -16v-98q0 -16 -16 -16h-173v-182h74q16 0 16 -16v-50q0 -16 -16 -16z" />
    <glyph glyph-name="tbar" unicode="&#x167;" horiz-adv-x="330" 
d="M25 319h37v61h-36q-16 0 -16 16v88q0 16 16 16h36l8 82q2 16 18 16h94q16 0 16 -16v-82h78q16 0 16 -16v-88q0 -16 -16 -16h-78v-61h76q16 0 16 -16v-65q0 -16 -16 -16h-76v-77q0 -32 28 -32q13 0 55 11q16 3 19 -12l17 -78q1 -7 -2.5 -12.5t-9.5 -7.5q-74 -20 -124 -20
q-38 0 -64 15.5t-37 40t-14.5 43t-3.5 37.5v92h-37q-16 0 -16 16v65q0 16 16 16z" />
    <glyph glyph-name="Utilde" unicode="&#x168;" horiz-adv-x="736" 
d="M519 700h111q16 0 16 -16v-412q0 -47 -15 -93.5t-46 -89.5t-87.5 -69.5t-129.5 -26.5t-129.5 26.5t-87.5 69.5t-46 89.5t-15 93.5v412q0 16 16 16h110q16 0 16 -16v-412q0 -18 6.5 -41t20.5 -49t42.5 -43t66.5 -17t66.5 17t42 43t20 49t6.5 41v412q0 16 16 16zM318 824
q-25 0 -42 -25q-9 -14 -23 -7l-49 22q-14 7 -9 22q35 92 124 92q27 0 55.5 -16t39.5 -16q22 0 40 25q10 13 23 7l54 -29q15 -7 7 -21q-47 -88 -126 -88q-23 0 -50.5 17t-43.5 17z" />
    <glyph glyph-name="utilde" unicode="&#x169;" 
d="M243 624q-25 0 -42 -25q-9 -14 -23 -7l-49 22q-14 7 -9 22q35 92 124 92q27 0 55.5 -16t39.5 -16q22 0 40 25q10 13 23 7l54 -29q15 -7 7 -21q-47 -88 -126 -88q-23 0 -50.5 17t-43.5 17zM386 500h103q16 0 16 -16v-468q0 -16 -16 -16h-60q-16 0 -21 15l-7 21
q-54 -44 -126 -44q-55 0 -95 15.5t-63 38.5t-36 58t-17 66.5t-4 71.5v242q0 16 16 16h106q16 0 16 -16v-242q0 -129 82 -129q59 0 90 43v328q0 16 16 16z" />
    <glyph glyph-name="Umacron" unicode="&#x16a;" horiz-adv-x="736" 
d="M518 878v-65q0 -16 -16 -16h-269q-16 0 -16 16v65q0 16 16 16h269q16 0 16 -16zM519 700h111q16 0 16 -16v-412q0 -47 -15 -93.5t-46 -89.5t-87.5 -69.5t-129.5 -26.5t-129.5 26.5t-87.5 69.5t-46 89.5t-15 93.5v412q0 16 16 16h110q16 0 16 -16v-412q0 -18 6.5 -41
t20.5 -49t42.5 -43t66.5 -17t66.5 17t42 43t20 49t6.5 41v412q0 16 16 16z" />
    <glyph glyph-name="umacron" unicode="&#x16b;" 
d="M370 156v328q0 16 16 16h103q16 0 16 -16v-468q0 -16 -16 -16h-60q-16 0 -21 15l-7 21q-54 -44 -126 -44q-55 0 -95 15.5t-63 38.5t-36 58t-17 66.5t-4 71.5v242q0 16 16 16h106q16 0 16 -16v-242q0 -129 82 -129q59 0 90 43zM158 694h269q16 0 16 -16v-65q0 -16 -16 -16
h-269q-16 0 -16 16v65q0 16 16 16z" />
    <glyph glyph-name="Ubreve" unicode="&#x16c;" horiz-adv-x="736" 
d="M367 790q-52 0 -92.5 28t-58.5 85q-4 16 11 20l69 20q13 5 19 -10q14 -39 52 -39q35 0 50 40q7 15 20 10l71 -20q15 -5 11 -20q-19 -57 -59.5 -85.5t-92.5 -28.5zM519 700h111q16 0 16 -16v-412q0 -47 -15 -93.5t-46 -89.5t-87.5 -69.5t-129.5 -26.5t-129.5 26.5
t-87.5 69.5t-46 89.5t-15 93.5v412q0 16 16 16h110q16 0 16 -16v-412q0 -18 6.5 -41t20.5 -49t42.5 -43t66.5 -17t66.5 17t42 43t20 49t6.5 41v412q0 16 16 16z" />
    <glyph glyph-name="ubreve" unicode="&#x16d;" 
d="M370 156v328q0 16 16 16h103q16 0 16 -16v-468q0 -16 -16 -16h-60q-16 0 -21 15l-7 21q-54 -44 -126 -44q-55 0 -95 15.5t-63 38.5t-36 58t-17 66.5t-4 71.5v242q0 16 16 16h106q16 0 16 -16v-242q0 -129 82 -129q59 0 90 43zM362 744l71 -20q15 -5 11 -20
q-19 -57 -59.5 -85.5t-92.5 -28.5t-92.5 28t-58.5 85q-4 16 11 20l69 20q13 5 19 -10q14 -39 52 -39q35 0 50 40q7 15 20 10z" />
    <glyph glyph-name="Uring" unicode="&#x16e;" horiz-adv-x="736" 
d="M266 892q0 42 30 72t72 30t71.5 -30t29.5 -72t-29.5 -71.5t-71.5 -29.5t-72 29.5t-30 71.5zM338 892q0 -11 9 -20t21 -9q11 0 20 9t9 20q0 12 -9 21t-20 9q-12 0 -21 -9t-9 -21zM519 700h111q16 0 16 -16v-412q0 -47 -15 -93.5t-46 -89.5t-87.5 -69.5t-129.5 -26.5
t-129.5 26.5t-87.5 69.5t-46 89.5t-15 93.5v412q0 16 16 16h110q16 0 16 -16v-412q0 -18 6.5 -41t20.5 -49t42.5 -43t66.5 -17t66.5 17t42 43t20 49t6.5 41v412q0 16 16 16z" />
    <glyph glyph-name="uring" unicode="&#x16f;" 
d="M186 692q0 42 30 72t72 30t71.5 -30t29.5 -72t-29.5 -71.5t-71.5 -29.5t-72 29.5t-30 71.5zM258 692q0 -11 9 -20t21 -9q11 0 20 9t9 20q0 12 -9 21t-20 9q-12 0 -21 -9t-9 -21zM370 156v328q0 16 16 16h103q16 0 16 -16v-468q0 -16 -16 -16h-60q-16 0 -21 15l-7 21
q-54 -44 -126 -44q-55 0 -95 15.5t-63 38.5t-36 58t-17 66.5t-4 71.5v242q0 16 16 16h106q16 0 16 -16v-242q0 -129 82 -129q59 0 90 43z" />
    <glyph glyph-name="Uhungarumlaut" unicode="&#x170;" horiz-adv-x="736" 
d="M565 939l-53 -128q-7 -15 -22 -15h-65q-6 0 -9.5 5t-1.5 10l39 128q5 15 21 15h81q6 0 9 -5t1 -10zM519 700h111q16 0 16 -16v-412q0 -47 -15 -93.5t-46 -89.5t-87.5 -69.5t-129.5 -26.5t-129.5 26.5t-87.5 69.5t-46 89.5t-15 93.5v412q0 16 16 16h110q16 0 16 -16v-412
q0 -18 6.5 -41t20.5 -49t42.5 -43t66.5 -17t66.5 17t42 43t20 49t6.5 41v412q0 16 16 16zM362 939l-53 -128q-7 -15 -22 -15h-65q-6 0 -9.5 5t-1.5 10l39 128q5 15 21 15h81q6 0 9 -5t1 -10z" />
    <glyph glyph-name="uhungarumlaut" unicode="&#x171;" 
d="M370 156v328q0 16 16 16h103q16 0 16 -16v-468q0 -16 -16 -16h-60q-16 0 -21 15l-7 21q-54 -44 -126 -44q-55 0 -95 15.5t-63 38.5t-36 58t-17 66.5t-4 71.5v242q0 16 16 16h106q16 0 16 -16v-242q0 -129 82 -129q59 0 90 43zM469 739l-53 -128q-7 -15 -22 -15h-65
q-6 0 -9.5 5t-1.5 10l39 128q5 15 21 15h81q6 0 9 -5t1 -10zM266 739l-53 -128q-7 -15 -22 -15h-65q-6 0 -9.5 5t-1.5 10l39 128q5 15 21 15h81q6 0 9 -5t1 -10z" />
    <glyph glyph-name="Uogonek" unicode="&#x172;" horiz-adv-x="736" 
d="M368 122q38 0 66.5 17t42 43t20 49t6.5 41v412q0 16 16 16h111q16 0 16 -16v-412q0 -72 -34 -141t-104 -106v-28q0 -10 -17 -41.5t-17 -52.5q0 -40 51 -40q28 0 67 13q5 2 10 -1.5t5 -9.5v-49q0 -17 -15 -22q-47 -17 -98 -17q-50 0 -83 27t-33 79q0 30 20.5 69t21.5 45
q-23 -4 -52 -4q-73 0 -129.5 26.5t-87.5 69.5t-46 89.5t-15 93.5v412q0 16 16 16h110q16 0 16 -16v-412q0 -18 6.5 -41t20.5 -49t42.5 -43t66.5 -17z" />
    <glyph glyph-name="uogonek" unicode="&#x173;" 
d="M370 156v328q0 16 16 16h103q16 0 16 -16v-487q0 -10 -17 -41.5t-17 -52.5q0 -40 51 -40q28 0 67 13q5 2 10 -1.5t5 -9.5v-49q0 -17 -15 -22q-47 -17 -98 -17q-50 0 -83 27t-33 79q0 30 20 69.5t20 47.5l-14 36q-54 -44 -126 -44q-55 0 -95 15.5t-63 38.5t-36 58
t-17 66.5t-4 71.5v242q0 16 16 16h106q16 0 16 -16v-242q0 -129 82 -129q59 0 90 43z" />
    <glyph glyph-name="Wcircumflex" unicode="&#x174;" horiz-adv-x="1091" 
d="M545 707q13 0 18 -12l167 -417l166 406q5 16 23 16h124q6 0 9 -5t1 -11l-307 -679q-3 -10 -15 -10t-15 10l-171 394l-171 -394q-3 -10 -15 -10q-11 0 -16 10l-306 679q-2 6 1 11t9 5h124q17 0 23 -16l166 -406l167 417q5 12 18 12zM397 873l135 105q13 10 26 0l135 -105
q13 -11 4 -23l-34 -48q-9 -12 -23 -5l-95 59l-95 -59q-14 -7 -23 5l-34 48q-9 12 4 23z" />
    <glyph glyph-name="wcircumflex" unicode="&#x175;" horiz-adv-x="834" 
d="M272 673l135 105q13 10 26 0l135 -105q13 -11 4 -23l-34 -48q-9 -12 -23 -5l-95 59l-95 -59q-14 -7 -23 5l-34 48q-9 12 4 23zM431 497l122 -257l101 244q6 16 24 16h109q6 0 9 -5t1 -11l-216 -483q-3 -10 -15 -10q-10 0 -15 9l-134 246l-134 -246q-5 -9 -16 -9t-14 10
l-216 483q-2 6 1 11t9 5h109q18 0 23 -16l102 -244l122 257q4 9 14 9t14 -9z" />
    <glyph glyph-name="Ycircumflex" unicode="&#x176;" horiz-adv-x="677" 
d="M409 313v-297q0 -16 -16 -16h-109q-16 0 -16 16v295l-230 375q-2 5 0.5 9.5t7.5 4.5h124q16 0 24 -14l144 -240l144 240q8 14 24 14h125q5 0 7.5 -4.5t0.5 -9.5zM190 873l135 105q13 10 26 0l135 -105q13 -11 4 -23l-34 -48q-9 -12 -23 -5l-95 59l-95 -59q-14 -7 -23 5
l-34 48q-9 12 4 23z" />
    <glyph glyph-name="ycircumflex" unicode="&#x177;" horiz-adv-x="609" 
d="M142 -184l93 224l-199 445q-2 5 1 10t9 5h123q15 0 22 -15l117 -286l113 286q7 15 22 15h120q6 0 9 -5t1 -10l-285 -669q-7 -15 -22 -15h-114q-6 0 -9 5t-1 10zM156 673l135 105q13 10 26 0l135 -105q13 -11 4 -23l-34 -48q-9 -12 -23 -5l-95 59l-95 -59q-14 -7 -23 5
l-34 48q-9 12 4 23z" />
    <glyph glyph-name="Ydieresis" unicode="&#x178;" horiz-adv-x="677" 
d="M409 313v-296q0 -7 -5 -12t-12 -5h-107q-7 0 -12 5t-5 12v294l-229 374q-3 5 0 10t8 5h122q16 0 26 -15l143 -243l143 243q10 15 26 15h123q5 0 8 -5t0 -10zM149 884q5 26 26 43t49 17q32 0 54 -22.5t22 -54.5q0 -33 -22 -54.5t-54 -21.5q-28 0 -49 16.5t-26 42.5
q-5 17 0 34zM376 867q0 32 22 54.5t55 22.5q32 0 54 -22.5t22 -54.5q0 -33 -22 -54.5t-54 -21.5q-33 0 -55 21.5t-22 54.5z" />
    <glyph glyph-name="Zacute" unicode="&#x179;" horiz-adv-x="661" 
d="M282 130h297q16 0 16 -16v-98q0 -16 -16 -16h-481q-16 0 -16 16v15q0 16 8 30l286 510h-270q-16 0 -16 16v97q0 16 16 16h463q16 0 16 -16v-4q0 -16 -8 -30zM230 871l135 105q13 9 22 -3l47 -65q4 -5 2.5 -11.5t-7.5 -9.5l-146 -92q-14 -7 -23 5l-34 48q-9 12 4 23z" />
    <glyph glyph-name="zacute" unicode="&#x17a;" horiz-adv-x="509" 
d="M67 387v97q0 16 16 16h354q6 0 10.5 -4.5t4.5 -10.5q0 -14 -7 -28l-178 -328h171q16 0 16 -16v-97q0 -16 -16 -16h-363q-16 0 -16 16t8 30l177 325h-161q-16 0 -16 16zM154 671l135 105q13 9 22 -3l47 -65q4 -5 2.5 -11.5t-7.5 -9.5l-146 -92q-14 -7 -23 5l-34 48
q-9 12 4 23z" />
    <glyph glyph-name="Zdotaccent" unicode="&#x17b;" horiz-adv-x="661" 
d="M254 867q0 32 22 54.5t55 22.5q32 0 54 -22.5t22 -54.5q0 -33 -22 -54.5t-54 -21.5q-33 0 -55 21.5t-22 54.5zM282 130h297q16 0 16 -16v-98q0 -16 -16 -16h-481q-16 0 -16 16v15q0 16 8 30l286 510h-270q-16 0 -16 16v97q0 16 16 16h463q16 0 16 -16v-4q0 -16 -8 -30z
" />
    <glyph glyph-name="zdotaccent" unicode="&#x17c;" horiz-adv-x="509" 
d="M178 667q0 32 22 54.5t55 22.5q32 0 54 -22.5t22 -54.5q0 -33 -22 -54.5t-54 -21.5q-33 0 -55 21.5t-22 54.5zM67 387v97q0 16 16 16h354q6 0 10.5 -4.5t4.5 -10.5q0 -14 -7 -28l-178 -328h171q16 0 16 -16v-97q0 -16 -16 -16h-363q-16 0 -16 16t8 30l177 325h-161
q-16 0 -16 16z" />
    <glyph glyph-name="Zcaron" unicode="&#x17d;" horiz-adv-x="661" 
d="M282 130h296q7 0 12 -5t5 -12v-96q0 -7 -5 -12t-12 -5h-486q-7 0 -12 5t-5 12q0 16 8 32l293 522h-269q-7 0 -12 5t-5 12v95q0 7 5 12t12 5h463q17 0 17 -17q0 -16 -8 -30zM317 796l-135 105q-14 10 -3 24l32 46q10 14 24 5l95 -58l94 58q15 8 25 -5l32 -46
q11 -14 -3 -24l-135 -105q-14 -10 -26 0z" />
    <glyph glyph-name="zcaron" unicode="&#x17e;" horiz-adv-x="509" 
d="M67 388v95q0 7 5 12t12 5h347q7 0 12 -5t5 -12v-4q0 -16 -8 -32l-173 -318h170q7 0 12 -5t5 -12v-95q0 -7 -5 -12t-12 -5h-356q-7 0 -12 5t-5 12v8q0 16 8 32l172 314h-160q-7 0 -12 5t-5 12zM242 596l-135 105q-14 10 -3 24l32 46q10 14 24 5l95 -58l94 58q15 8 25 -5
l32 -46q11 -14 -3 -24l-135 -105q-14 -10 -26 0z" />
    <glyph glyph-name="longs" unicode="&#x17f;" horiz-adv-x="376" 
d="M380 656l-28 -77q-7 -14 -21 -9q-52 16 -81 16q-22 0 -37 -12.5t-15 -40.5v-517q0 -16 -16 -16h-104q-16 0 -16 16v367h-36q-16 0 -16 16v85q0 16 16 16h36v37q0 83 50.5 126.5t129.5 43.5q62 0 129 -29q16 -7 9 -22z" />
    <glyph glyph-name="florin" unicode="&#x192;" horiz-adv-x="384" 
d="M-87 -170l28 75q5 16 22 10q45 -16 80 -16q22 0 37 12.5t15 40.5v431h-35q-7 0 -12 5t-5 12v83q0 7 5 12t12 5h35v37q0 83 50.5 126.5t129.5 43.5q62 0 129 -29q14 -7 9 -23l-28 -75q-5 -16 -22 -10q-45 16 -80 16q-22 0 -37 -12.5t-15 -40.5v-33h76q7 0 12 -5t5 -12v-83
q0 -7 -5 -12t-12 -5h-76v-435q0 -83 -50.5 -126.5t-129.5 -43.5q-62 0 -129 29q-14 7 -9 23z" />
    <glyph glyph-name="Scommaaccent" unicode="&#x218;" horiz-adv-x="642" 
d="M313 -336l-28 13q-15 7 -8 21q22 46 31 74q-49 16 -49 70q0 29 20 50t50 21q39 0 58 -22.5t19 -54.5q0 -55 -69 -165q-9 -12 -24 -7zM214 514q1 -17 10 -30t31 -24.5t37 -17.5t51 -18q35 -12 49 -17t46.5 -18.5t48 -24t38.5 -29t33.5 -37.5t18 -46.5t5.5 -58.5
q-5 -87 -76 -144t-179 -57q-134 0 -257 64q-14 7 -7 21l47 89q9 14 22 7q109 -50 188 -50q46 0 76.5 18t35.5 49q6 35 -24 57.5t-88 40.5q-108 33 -144 53q-104 56 -104 166q0 94 63 149t164 55q111 0 240 -57q15 -7 9 -22l-39 -89q-6 -15 -21 -9q-115 45 -179 45
q-92 0 -95 -65z" />
    <glyph glyph-name="scommaaccent" unicode="&#x219;" horiz-adv-x="512" 
d="M267 -87q39 0 58 -22.5t19 -54.5q0 -55 -69 -165q-9 -12 -24 -7l-28 13q-15 7 -8 21q22 46 31 74q-49 16 -49 70q0 29 20 50t50 21zM281 315q31 -10 47.5 -16t44 -21t42 -31t26 -42.5t11.5 -59.5q0 -68 -53 -110.5t-135 -42.5q-96 0 -190 53q-14 7 -7 22l40 78q7 14 21 7
q80 -39 131 -39q23 0 39 8.5t16 22.5q0 20 -20.5 31t-62.5 23q-35 11 -55.5 19.5t-47 26t-39.5 45t-13 64.5q0 72 46.5 113.5t123.5 41.5q82 0 180 -45q14 -7 7 -22l-37 -82q-8 -13 -22 -7q-72 32 -112 32q-55 0 -55 -27q0 -19 74 -42z" />
    <glyph glyph-name="circumflex" unicode="&#x2c6;" horiz-adv-x="518" 
d="M115 673l135 105q12 10 26 0l135 -105q14 -10 3 -24l-32 -46q-10 -13 -25 -5l-94 58l-95 -58q-14 -9 -24 5l-32 46q-11 14 3 24z" />
    <glyph glyph-name="caron" unicode="&#x2c7;" horiz-adv-x="500" 
d="M250 596l-135 105q-13 11 -4 23l34 48q9 12 23 5l95 -59l95 59q14 7 23 -5l34 -48q9 -12 -4 -23l-135 -105q-13 -10 -26 0z" />
    <glyph glyph-name="breve" unicode="&#x2d8;" horiz-adv-x="516" 
d="M343 744l71 -20q15 -5 11 -20q-19 -57 -59.5 -85.5t-92.5 -28.5t-92.5 28t-58.5 85q-4 16 11 20l69 20q13 5 19 -10q14 -39 52 -39q35 0 50 40q7 15 20 10z" />
    <glyph glyph-name="dotaccent" unicode="&#x2d9;" horiz-adv-x="579" 
d="M206 667q0 32 22 54.5t55 22.5q32 0 54 -22.5t22 -54.5q0 -33 -22 -54.5t-54 -21.5q-33 0 -55 21.5t-22 54.5z" />
    <glyph glyph-name="ring" unicode="&#x2da;" horiz-adv-x="523" 
d="M160 692q0 42 30 72t72 30t71.5 -30t29.5 -72t-29.5 -71.5t-71.5 -29.5t-72 29.5t-30 71.5zM232 692q0 -11 9 -20t21 -9q11 0 20 9t9 20q0 12 -9 21t-20 9q-12 0 -21 -9t-9 -21z" />
    <glyph glyph-name="ogonek" unicode="&#x2db;" horiz-adv-x="611" 
d="M284 43h56q16 0 16 -16v-30q0 -10 -17 -41.5t-17 -52.5q0 -40 51 -40q28 0 67 13q5 2 10 -1.5t5 -9.5v-49q0 -17 -15 -22q-47 -17 -98 -17q-50 0 -83 27t-33 79q0 30 21 69.5t21 47.5v27q0 16 16 16z" />
    <glyph glyph-name="tilde" unicode="&#x2dc;" horiz-adv-x="535" 
d="M378 727l52 -27q15 -10 7 -23q-45 -87 -125 -87q-23 0 -50.5 17t-43.5 17q-25 0 -42 -24q-9 -15 -23 -8l-48 22q-15 8 -10 23q36 91 124 91q27 0 55.5 -16t39.5 -16q22 0 40 25q9 13 24 6z" />
    <glyph glyph-name="hungarumlaut" unicode="&#x2dd;" horiz-adv-x="530" 
d="M459 739l-53 -128q-7 -15 -22 -15h-65q-6 0 -9.5 5t-1.5 10l39 128q5 15 21 15h81q6 0 9 -5t1 -10zM256 739l-53 -128q-7 -15 -22 -15h-65q-6 0 -9.5 5t-1.5 10l39 128q5 15 21 15h81q6 0 9 -5t1 -10z" />
    <glyph glyph-name="Delta" unicode="&#x394;" horiz-adv-x="763" 
d="M388 692l308 -677q2 -5 -1 -10t-8 -5h-611q-6 0 -9 5t0 10l307 677q2 4 7 4t7 -4zM262 130h238l-119 295z" />
    <glyph glyph-name="Delta" unicode="&#x2206;" horiz-adv-x="763" 
d="M388 692l308 -677q2 -5 -1 -10t-8 -5h-611q-6 0 -9 5t0 10l307 677q2 4 7 4t7 -4zM262 130h238l-119 295z" />
    <glyph glyph-name="Omega" unicode="&#x3a9;" horiz-adv-x="848" 
d="M424 708q77 0 138.5 -23.5t99 -60.5t63 -86t35.5 -95.5t10 -93.5q0 -134 -82 -219h84q16 0 16 -16v-98q0 -16 -16 -16h-259q-16 0 -16 16v87q0 15 14 24q45 28 73 76t35 82.5t7 63.5q0 21 -3.5 46t-16.5 58.5t-34 60t-59.5 45t-88.5 18.5t-88.5 -18.5t-59.5 -45t-34 -60
t-16.5 -58.5t-3.5 -46q0 -29 7 -63.5t35 -82.5t73 -76q14 -9 14 -24v-87q0 -16 -16 -16h-259q-16 0 -16 16v98q0 16 16 16h84q-82 85 -82 219q0 47 10 93.5t35.5 95.5t63 86t99 60.5t138.5 23.5z" />
    <glyph glyph-name="Omega" unicode="&#x2126;" horiz-adv-x="848" 
d="M424 708q77 0 138.5 -23.5t99 -60.5t63 -86t35.5 -95.5t10 -93.5q0 -134 -82 -219h84q16 0 16 -16v-98q0 -16 -16 -16h-259q-16 0 -16 16v87q0 15 14 24q45 28 73 76t35 82.5t7 63.5q0 21 -3.5 46t-16.5 58.5t-34 60t-59.5 45t-88.5 18.5t-88.5 -18.5t-59.5 -45t-34 -60
t-16.5 -58.5t-3.5 -46q0 -29 7 -63.5t35 -82.5t73 -76q14 -9 14 -24v-87q0 -16 -16 -16h-259q-16 0 -16 16v98q0 16 16 16h84q-82 85 -82 219q0 47 10 93.5t35.5 95.5t63 86t99 60.5t138.5 23.5z" />
    <glyph glyph-name="pi" unicode="&#x3c0;" horiz-adv-x="646" 
d="M455 -4q-38 0 -64 15.5t-36.5 40t-14.5 43.5t-4 37v239h-82v-355q0 -16 -16 -16h-104q-16 0 -16 16v355h-52q-16 0 -16 16v97q0 16 16 16h484q16 0 16 -16v-97q0 -16 -16 -16h-77v-224q0 -16 4 -24.5t17 -7.5q6 0 63 13q16 3 19 -12l17 -80q1 -7 -2.5 -12.5t-9.5 -7.5
q-74 -20 -126 -20z" />
    <glyph glyph-name="endash" unicode="&#x2013;" horiz-adv-x="550" 
d="M454 261h-357q-7 0 -12 5t-5 12v79q0 7 5 12t12 5h357q7 0 12 -5t5 -12v-79q0 -7 -5 -12t-12 -5z" />
    <glyph glyph-name="emdash" unicode="&#x2014;" horiz-adv-x="672" 
d="M575 261h-478q-7 0 -12 5t-5 12v79q0 7 5 12t12 5h478q7 0 12 -5t5 -12v-79q0 -7 -5 -12t-12 -5z" />
    <glyph glyph-name="quoteleft" unicode="&#x2018;" horiz-adv-x="292" 
d="M177 714l40 -20q14 -7 7 -22q-33 -60 -48 -113q54 -17 54 -78q0 -35 -23 -58.5t-58 -23.5q-46 0 -67.5 26t-21.5 64q0 41 29.5 106t62.5 112q9 14 25 7z" />
    <glyph glyph-name="quoteright" unicode="&#x2019;" horiz-adv-x="292" 
d="M115 406l-40 20q-14 7 -7 22q34 63 48 113q-54 17 -54 78q0 35 23 58.5t58 23.5q46 0 67.5 -26t21.5 -64q0 -41 -29.5 -106t-62.5 -112q-10 -14 -25 -7z" />
    <glyph glyph-name="quotesinglbase" unicode="&#x201a;" horiz-adv-x="332" 
d="M135 -161l-40 20q-14 7 -7 22q34 63 48 113q-54 17 -54 78q0 35 23 58.5t58 23.5q46 0 67.5 -26t21.5 -64q0 -41 -29.5 -106t-62.5 -112q-10 -14 -25 -7z" />
    <glyph glyph-name="quotedblleft" unicode="&#x201c;" horiz-adv-x="523" 
d="M177 714l40 -20q14 -7 7 -22q-33 -60 -48 -113q54 -17 54 -78q0 -35 -23 -58.5t-58 -23.5q-46 0 -67.5 26t-21.5 64q0 41 29.5 106t62.5 112q9 14 25 7zM408 714l40 -20q14 -7 7 -22q-33 -60 -48 -113q54 -17 54 -78q0 -35 -23 -58.5t-58 -23.5q-46 0 -67.5 26t-21.5 64
q0 41 29.5 106t62.5 112q9 14 25 7z" />
    <glyph glyph-name="quotedblright" unicode="&#x201d;" horiz-adv-x="523" 
d="M346 406l-40 20q-14 7 -7 22q34 63 48 113q-54 17 -54 78q0 35 23 58.5t58 23.5q46 0 67.5 -26t21.5 -64q0 -41 -29.5 -106t-62.5 -112q-10 -14 -25 -7zM115 406l-40 20q-14 7 -7 22q34 63 48 113q-54 17 -54 78q0 35 23 58.5t58 23.5q46 0 67.5 -26t21.5 -64
q0 -41 -29.5 -106t-62.5 -112q-10 -14 -25 -7z" />
    <glyph glyph-name="quotedblbase" unicode="&#x201e;" horiz-adv-x="544" 
d="M135 -161l-40 20q-14 7 -7 22q34 63 48 113q-54 17 -54 78q0 35 23 58.5t58 23.5q46 0 67.5 -26t21.5 -64q0 -41 -29.5 -106t-62.5 -112q-10 -14 -25 -7zM387 -161l-40 20q-14 7 -7 22q34 63 48 113q-54 17 -54 78q0 35 23 58.5t58 23.5q46 0 67.5 -26t21.5 -64
q0 -41 -29.5 -106t-62.5 -112q-10 -14 -25 -7z" />
    <glyph glyph-name="dagger" unicode="&#x2020;" horiz-adv-x="553" 
d="M342 374v-516q0 -7 -5 -12t-12 -5h-98q-7 0 -12 5t-5 12v516h-113q-7 0 -12 5t-5 12v92q0 7 5 12t12 5h113v183q0 7 5 12t12 5h98q7 0 12 -5t5 -12v-183h114q7 0 12 -5t5 -12v-92q0 -7 -5 -12t-12 -5h-114z" />
    <glyph glyph-name="daggerdbl" unicode="&#x2021;" horiz-adv-x="553" 
d="M342 39v-181q0 -7 -5 -12t-12 -5h-98q-7 0 -12 5t-5 12v181h-113q-7 0 -12 5t-5 12v92q0 7 5 12t12 5h113v209h-113q-7 0 -12 5t-5 12v92q0 7 5 12t12 5h113v183q0 7 5 12t12 5h98q7 0 12 -5t5 -12v-183h114q7 0 12 -5t5 -12v-92q0 -7 -5 -12t-12 -5h-114v-209h114
q7 0 12 -5t5 -12v-92q0 -7 -5 -12t-12 -5h-114z" />
    <glyph glyph-name="bullet" unicode="&#x2022;" horiz-adv-x="421" 
d="M208 161q-50 0 -89 39t-39 90q0 53 39 93t89 40q55 0 94 -39.5t39 -93.5q0 -52 -39 -90.5t-94 -38.5z" />
    <glyph glyph-name="ellipsis" unicode="&#x2026;" horiz-adv-x="780" 
d="M80 77q0 35 25 59.5t59 24.5q35 0 59 -24.5t24 -59.5t-24.5 -59t-58.5 -24t-59 24.5t-25 58.5zM326 77q0 35 25 59.5t59 24.5q35 0 59 -24.5t24 -59.5t-24.5 -59t-58.5 -24t-59 24.5t-25 58.5zM573 77q0 35 25 59.5t59 24.5q35 0 59 -24.5t24 -59.5t-24 -59t-59 -24
q-34 0 -59 24.5t-25 58.5z" />
    <glyph glyph-name="perthousand" unicode="&#x2030;" horiz-adv-x="1243" 
d="M346 541q0 -27 -8 -54t-25 -52.5t-49 -41t-75 -15.5q-83 0 -121 50.5t-38 112.5q0 28 8 54.5t25 52.5t49.5 42t76.5 16q43 0 75 -16t49 -42t25 -53t8 -54zM189 486q25 0 34 18t9 37q0 11 -2.5 22t-13 22.5t-27.5 11.5q-18 0 -29 -11.5t-13.5 -22.5t-2.5 -22t2.5 -21.5
t13.5 -22t29 -11.5zM667 323q43 0 75 -16t49 -42t25 -53t8 -54t-8 -54t-25 -52.5t-49 -41t-75 -15.5t-75.5 15.5t-49.5 41t-25 52.5t-8 54q0 28 8 54.5t25 52.5t49.5 42t75.5 16zM667 103q25 0 34.5 18.5t9.5 36.5q0 11 -2.5 22t-13.5 22.5t-28 11.5q-18 0 -29 -11.5
t-13.5 -22.5t-2.5 -22q0 -10 2.5 -21t13.5 -22.5t29 -11.5zM1056 323q43 0 75 -16t49 -42t25 -53t8 -54t-8 -54t-25 -52.5t-49 -41t-75 -15.5t-75.5 15.5t-49.5 41t-25 52.5t-8 54q0 28 8 54.5t25 52.5t49.5 42t75.5 16zM1056 103q25 0 34.5 18.5t9.5 36.5q0 11 -2.5 22
t-13.5 22.5t-28 11.5q-18 0 -29 -11.5t-13.5 -22.5t-2.5 -22q0 -10 2.5 -21t13.5 -22.5t29 -11.5zM503 700h84q6 0 9.5 -5t2.5 -11l-222 -668q-5 -16 -22 -16h-85q-6 0 -10 5t-2 11l223 668q5 16 22 16z" />
    <glyph glyph-name="guilsinglleft" unicode="&#x2039;" horiz-adv-x="320" 
d="M176 256l103 -130q11 -13 -2 -24l-47 -42q-13 -11 -25 1l-171 183q-4 6 -4 11q0 6 4 12l171 182q13 11 25 1l47 -42q13 -11 2 -24z" />
    <glyph glyph-name="guilsinglright" unicode="&#x203a;" horiz-adv-x="320" 
d="M41 126l103 130l-103 128q-11 13 2 24l47 42q12 10 25 -1l170 -182q5 -5 5 -12q0 -5 -4 -11l-171 -183q-12 -12 -25 -1l-47 42q-13 11 -2 24z" />
    <glyph glyph-name="fraction" unicode="&#x2044;" horiz-adv-x="67" 
d="M254 686l-335 -672q-7 -14 -23 -14h-70q-5 0 -8 4.5t-1 9.5l336 672q7 14 23 14h69q5 0 8 -4.5t1 -9.5z" />
    <glyph glyph-name="zerosuperior" unicode="&#x2070;" horiz-adv-x="328" 
d="M164 803q70 0 102 -52.5t32 -116.5q0 -40 -11 -75t-42.5 -63t-80.5 -28q-48 0 -80 28t-43 63t-11 75q0 39 11 75t43 65t80 29zM164 547q18 0 29.5 18.5t14.5 36t3 32.5q0 16 -3 34t-14.5 36.5t-29.5 18.5t-29.5 -18.5t-14.5 -36.5t-3 -34q0 -11 2 -23.5t6.5 -28
t14.5 -25.5t24 -10z" />
    <glyph glyph-name="foursuperior" unicode="&#x2074;" horiz-adv-x="301" 
d="M235 519v-31q0 -16 -16 -16h-51q-16 0 -16 16v31h-116q-16 0 -16 16v34q0 17 9 29l129 189q10 13 25 13h36q16 0 16 -16v-191h30q16 0 16 -16v-42q0 -16 -16 -16h-30zM152 654l-42 -61h42v61z" />
    <glyph glyph-name="fivesuperior" unicode="&#x2075;" horiz-adv-x="305" 
d="M42 539l33 30q11 9 23 -1q23 -21 55 -21q16 0 26 11t10 24q0 15 -10 24.5t-27 9.5h-72q-16 0 -16 16v151q0 16 16 16h157q16 0 16 -16v-41q0 -16 -16 -16h-86v-39q70 0 97 -31.5t27 -73.5q0 -39 -29.5 -77t-93.5 -38q-65 0 -112 49q-11 11 2 23z" />
    <glyph glyph-name="sixsuperior" unicode="&#x2076;" horiz-adv-x="300" 
d="M186 793l20 -26q9 -13 -3 -22q-37 -27 -71 -63q9 6 31 6q33 0 56.5 -13t33 -32.5t13 -35t3.5 -28.5q-1 -22 -9.5 -45.5t-37.5 -46t-73 -22.5q-34 0 -59 12.5t-37 31.5t-17.5 36.5t-5.5 33.5q0 133 132 219q13 8 24 -5zM149 546q16 0 25.5 11t9.5 25t-9.5 24t-25.5 10
q-14 0 -24 -9.5t-10 -24.5q0 -14 9 -25t25 -11z" />
    <glyph glyph-name="sevensuperior" unicode="&#x2077;" horiz-adv-x="264" 
d="M20 737v47q0 16 16 16h189q16 0 16 -16t-6 -31l-113 -265q-7 -15 -22 -15h-57q-6 0 -9 5t-1 10l98 233h-95q-16 0 -16 16z" />
    <glyph glyph-name="eightsuperior" unicode="&#x2078;" horiz-adv-x="288" 
d="M258 703q0 -16 -9 -36.5t-27 -31.5q35 -23 35 -72q0 -35 -25.5 -66t-86.5 -31q-62 0 -88.5 30.5t-26.5 67.5q0 19 9.5 40.5t25.5 31.5q-16 8 -25.5 27t-9.5 39q0 34 27 67t88 33t87 -30t26 -69zM145 543q11 0 19.5 7.5t8.5 18.5t-8.5 18.5t-19.5 7.5q-12 0 -21 -7.5
t-9 -18.5t9 -18.5t21 -7.5zM145 673q11 0 19.5 7.5t8.5 18.5q0 12 -8.5 19.5t-19.5 7.5q-12 0 -21 -7.5t-9 -19.5q0 -11 9 -18.5t21 -7.5z" />
    <glyph glyph-name="ninesuperior" unicode="&#x2079;" horiz-adv-x="300" 
d="M114 478l-20 26q-11 12 3 22q41 30 71 63q-9 -6 -31 -6q-33 0 -56.5 13t-33 32.5t-13 35t-3.5 28.5q1 22 9.5 45.5t37.5 46t73 22.5q34 0 59 -12.5t37 -31.5t17.5 -36.5t5.5 -33.5q0 -134 -132 -219q-14 -9 -24 5zM151 725q-16 0 -25.5 -11t-9.5 -25t9.5 -24t25.5 -10
q14 0 24 9.5t10 24.5q0 14 -9 25t-25 11z" />
    <glyph glyph-name="zeroinferior" unicode="&#x2080;" horiz-adv-x="328" 
d="M164 169q70 0 102 -52.5t32 -116.5q0 -40 -11 -75t-42.5 -63t-80.5 -28q-48 0 -80 28t-43 63t-11 75q0 39 11 75t43 65t80 29zM164 -87q18 0 29.5 18.5t14.5 36t3 32.5q0 16 -3 34t-14.5 36.5t-29.5 18.5t-29.5 -18.5t-14.5 -36.5t-3 -34q0 -11 2 -23.5t6.5 -28
t14.5 -25.5t24 -10z" />
    <glyph glyph-name="oneinferior" unicode="&#x2081;" horiz-adv-x="228" 
d="M183 149v-295q0 -16 -16 -16h-56q-16 0 -16 16v192l-27 -14q-14 -9 -22 6l-18 28q-7 14 5 23l93 67q12 9 29 9h12q16 0 16 -16z" />
    <glyph glyph-name="twoinferior" unicode="&#x2082;" horiz-adv-x="305" 
d="M72 61l-31 30q-11 11 -1 23q52 56 116 56q51 0 80 -28.5t29 -75.5q0 -39 -40 -94l-41 -57h60q16 0 16 -16v-46q0 -16 -16 -16h-183q-13 0 -13 13q0 14 8 25l102 147q18 26 18 43q0 8 -6.5 15.5t-17.5 7.5q-24 0 -56 -28q-12 -9 -24 1z" />
    <glyph glyph-name="threeinferior" unicode="&#x2083;" horiz-adv-x="282" 
d="M252 66q0 -40 -31 -66q31 -24 31 -64q0 -37 -27 -70.5t-89 -33.5q-56 0 -104 38q-12 10 -1 23l27 30q10 11 23 2q23 -16 55 -16q14 0 24.5 7.5t10.5 19.5q0 15 -10 23t-25 8h-39q-16 0 -16 16v35q0 16 16 16h39q14 0 24.5 8.5t10.5 23.5q0 12 -10.5 19.5t-24.5 7.5
q-23 0 -54 -19q-15 -8 -24 3l-26 30q-9 13 2 23q48 40 102 40q62 0 89 -33t27 -71z" />
    <glyph glyph-name="fourinferior" unicode="&#x2084;" horiz-adv-x="301" 
d="M235 -115v-31q0 -16 -16 -16h-51q-16 0 -16 16v31h-116q-16 0 -16 16v34q0 17 9 29l129 189q10 13 25 13h36q16 0 16 -16v-191h30q16 0 16 -16v-42q0 -16 -16 -16h-30zM152 20l-42 -61h42v61z" />
    <glyph glyph-name="fiveinferior" unicode="&#x2085;" horiz-adv-x="305" 
d="M42 -95l33 30q11 9 23 -1q23 -21 55 -21q16 0 26 11t10 24q0 15 -10 24.5t-27 9.5h-72q-16 0 -16 16v151q0 16 16 16h157q16 0 16 -16v-41q0 -16 -16 -16h-86v-39q70 0 97 -31.5t27 -73.5q0 -39 -29.5 -77t-93.5 -38q-65 0 -112 49q-11 11 2 23z" />
    <glyph glyph-name="sixinferior" unicode="&#x2086;" horiz-adv-x="300" 
d="M186 159l20 -26q9 -13 -3 -22q-37 -27 -71 -63q9 6 31 6q33 0 56.5 -13t33 -32.5t13 -35t3.5 -28.5q-1 -22 -9.5 -45.5t-37.5 -46t-73 -22.5q-34 0 -59 12.5t-37 31.5t-17.5 36.5t-5.5 33.5q0 133 132 219q13 8 24 -5zM149 -88q16 0 25.5 11t9.5 25t-9.5 24t-25.5 10
q-14 0 -24 -9.5t-10 -24.5q0 -14 9 -25t25 -11z" />
    <glyph glyph-name="seveninferior" unicode="&#x2087;" horiz-adv-x="264" 
d="M20 102v47q0 16 16 16h190q13 0 13 -13q0 -12 -5 -25l-112 -274q-7 -15 -22 -15h-57q-6 0 -9 5t-1 10l95 233h-92q-16 0 -16 16z" />
    <glyph glyph-name="eightinferior" unicode="&#x2088;" horiz-adv-x="288" 
d="M258 69q0 -16 -9 -36.5t-27 -31.5q35 -23 35 -72q0 -35 -25.5 -66t-86.5 -31q-62 0 -88.5 30.5t-26.5 67.5q0 19 9.5 40.5t25.5 31.5q-16 8 -25.5 27t-9.5 39q0 34 27 67t88 33t87 -30t26 -69zM145 -91q11 0 19.5 7.5t8.5 18.5t-8.5 18.5t-19.5 7.5q-12 0 -21 -7.5
t-9 -18.5t9 -18.5t21 -7.5zM145 39q11 0 19.5 7.5t8.5 18.5q0 12 -8.5 19.5t-19.5 7.5q-12 0 -21 -7.5t-9 -19.5q0 -11 9 -18.5t21 -7.5z" />
    <glyph glyph-name="nineinferior" unicode="&#x2089;" horiz-adv-x="300" 
d="M114 -156l-20 26q-11 12 3 22q41 30 71 63q-9 -6 -31 -6q-33 0 -56.5 13t-33 32.5t-13 35t-3.5 28.5q1 22 9.5 45.5t37.5 46t73 22.5q34 0 59 -12.5t37 -31.5t17.5 -36.5t5.5 -33.5q0 -134 -132 -219q-14 -9 -24 5zM151 91q-16 0 -25.5 -11t-9.5 -25t9.5 -24t25.5 -10
q14 0 24 9.5t10 24.5q0 14 -9 25t-25 11z" />
    <glyph glyph-name="Euro" unicode="&#x20ac;" horiz-adv-x="584" 
d="M55 467h46q21 103 82.5 167t167.5 64q101 0 182 -85q11 -13 -1 -25l-61 -61q-11 -11 -24 0q-52 47 -96 47q-87 0 -115 -107h169q6 0 10 -5t2 -11l-17 -63q-5 -16 -22 -16h-155v-19q-2 -15 0 -34h127q7 0 11 -5t2 -11l-17 -63q-4 -16 -21 -16h-83q35 -108 109 -108
q47 0 98 46q13 11 24 0l58 -58q12 -12 1 -25q-83 -86 -181 -86q-105 0 -165.5 64.5t-83.5 166.5h-75q-7 0 -10.5 5t-1.5 11l18 63q5 16 22 16h35v36v17h-63q-7 0 -10.5 5t-1.5 11l18 63q5 16 22 16z" />
    <glyph glyph-name="afii61289" unicode="&#x2113;" horiz-adv-x="450" 
d="M20 301v89q0 16 16 16h36v124q0 53 17 91t44.5 56t53 25.5t51.5 7.5q88 0 135 -55.5t47 -134.5q0 -92 -61.5 -157t-149.5 -76v-94q0 -14 1.5 -26t5.5 -25t14 -20.5t25 -6.5q25 0 74 31q13 9 22 -5l45 -72q9 -13 -3 -23q-65 -50 -132 -55q-50 -3 -87 11t-56 35t-30 51.5
t-13.5 51t-2.5 43.5v102h-36q-16 0 -16 16zM209 537v-129q38 8 60.5 40t20.5 80q-1 28 -15.5 44t-34.5 15q-31 -4 -31 -50z" />
    <glyph glyph-name="trademark" unicode="&#x2122;" horiz-adv-x="659" 
d="M497 599l-54 -103q-3 -6 -10 -6t-10 6l-54 100l-27 -89q-5 -16 -22 -16h-49q-6 0 -9.5 5t-1.5 11l93 238q1 6 8 6q6 0 9 -5l64 -125l60 124q3 6 9 6q7 0 9 -6l96 -238q2 -6 -1.5 -11t-9.5 -5h-47q-17 0 -22 16zM109 508v173h-47q-7 0 -12 5t-5 12v42q0 7 5 12t12 5h174
q7 0 12 -5t5 -12v-42q0 -7 -5 -12t-12 -5h-47v-173q0 -7 -5 -12t-12 -5h-46q-7 0 -12 5t-5 12z" />
    <glyph glyph-name="estimated" unicode="&#x212e;" horiz-adv-x="815" 
d="M630 168l40 -32q12 -12 2 -22q-54 -63 -116 -93t-149 -30q-77 0 -138.5 23.5t-99.5 60.5t-63.5 86t-35.5 96.5t-10 95.5q0 47 10 93.5t35.5 95.5t63.5 86t99.5 60.5t138.5 23.5t138.5 -23.5t100 -60.5t64 -86t35.5 -95.5t10 -93.5v-11q0 -16 -16 -16h-521v-172
q70 -86 189 -86q113 0 201 98q9 11 22 2zM407 636q-121 0 -189 -86v-147h376q0 3 0.5 47t0.5 104q-68 82 -188 82z" />
    <glyph glyph-name="onethird" unicode="&#x2153;" horiz-adv-x="630" 
d="M505 686l-335 -672q-7 -14 -23 -14h-70q-5 0 -8 4.5t-1 9.5l336 672q7 14 23 14h69q5 0 8 -4.5t1 -9.5zM183 687v-295q0 -16 -16 -16h-56q-16 0 -16 16v192l-27 -14q-14 -9 -22 6l-18 28q-7 14 5 23l93 67q12 9 29 9h12q16 0 16 -16zM598 228q0 -40 -31 -66
q31 -24 31 -64q0 -37 -27 -70.5t-89 -33.5q-56 0 -104 38q-12 10 -1 23l27 30q10 11 23 2q23 -16 55 -16q14 0 24.5 7.5t10.5 19.5q0 15 -10 23t-25 8h-39q-16 0 -16 16v35q0 16 16 16h39q14 0 24.5 8.5t10.5 23.5q0 12 -10.5 19.5t-24.5 7.5q-23 0 -54 -19q-15 -8 -24 3
l-26 30q-9 13 2 23q48 40 102 40q62 0 89 -33t27 -71z" />
    <glyph glyph-name="twothirds" unicode="&#x2154;" horiz-adv-x="690" 
d="M56 414l100 144q18 26 18 43q0 8 -6.5 15.5t-17.5 7.5q-24 0 -56 -28q-12 -9 -24 1l-31 30q-11 11 -1 23q52 56 116 56q51 0 80 -28.5t29 -75.5q0 -39 -40 -94l-41 -57h60q16 0 16 -16v-46q0 -16 -16 -16h-180q-14 0 -14 14t8 27zM623 162q31 -24 31 -64q0 -37 -27 -70.5
t-89 -33.5q-56 0 -104 38q-12 10 -1 23l27 30q10 11 23 2q23 -16 55 -16q14 0 24.5 7.5t10.5 19.5q0 15 -10 23t-25 8h-39q-16 0 -16 16v35q0 16 16 16h39q14 0 24.5 8.5t10.5 23.5q0 12 -10.5 19.5t-24.5 7.5q-23 0 -54 -19q-15 -8 -24 3l-26 30q-9 13 2 23q48 40 102 40
q62 0 89 -33t27 -71q0 -40 -31 -66zM483 700h69q5 0 8 -4.5t1 -9.5l-335 -672q-7 -14 -23 -14h-70q-5 0 -8 4.5t-1 9.5l336 672q7 14 23 14z" />
    <glyph glyph-name="oneeighth" unicode="&#x215b;" horiz-adv-x="628" 
d="M95 392v192l-27 -14q-14 -9 -22 6l-18 28q-7 14 5 23l93 67q12 9 29 9h12q16 0 16 -16v-295q0 -16 -16 -16h-56q-16 0 -16 16zM557 163q35 -23 35 -72q0 -35 -25.5 -66t-86.5 -31q-62 0 -88.5 30.5t-26.5 67.5q0 19 9.5 40.5t25.5 31.5q-16 8 -25.5 27t-9.5 39
q0 34 27 67t88 33t87 -30t26 -69q0 -16 -9 -36.5t-27 -31.5zM480 71q11 0 19.5 7.5t8.5 18.5t-8.5 18.5t-19.5 7.5q-12 0 -21 -7.5t-9 -18.5t9 -18.5t21 -7.5zM480 201q11 0 19.5 7.5t8.5 18.5q0 12 -8.5 19.5t-19.5 7.5q-12 0 -21 -7.5t-9 -19.5q0 -11 9 -18.5t21 -7.5z
M427 700h69q5 0 8 -4.5t1 -9.5l-335 -672q-7 -14 -23 -14h-70q-5 0 -8 4.5t-1 9.5l336 672q7 14 23 14z" />
    <glyph glyph-name="threeeighths" unicode="&#x215c;" horiz-adv-x="644" 
d="M138 441q14 0 24.5 7.5t10.5 19.5q0 15 -10 23t-25 8h-39q-16 0 -16 16v35q0 16 16 16h39q14 0 24.5 8.5t10.5 23.5q0 12 -10.5 19.5t-24.5 7.5q-23 0 -54 -19q-15 -8 -24 3l-26 30q-9 13 2 23q48 40 102 40q62 0 89 -33t27 -71q0 -40 -31 -66q31 -24 31 -64
q0 -37 -27 -70.5t-89 -33.5q-56 0 -104 38q-12 10 -1 23l27 30q10 11 23 2q23 -16 55 -16zM463 700h69q5 0 8 -4.5t1 -9.5l-335 -672q-7 -14 -23 -14h-70q-5 0 -8 4.5t-1 9.5l336 672q7 14 23 14zM576 163q35 -23 35 -72q0 -35 -25.5 -66t-86.5 -31q-62 0 -88.5 30.5
t-26.5 67.5q0 19 9.5 40.5t25.5 31.5q-16 8 -25.5 27t-9.5 39q0 34 27 67t88 33t87 -30t26 -69q0 -16 -9 -36.5t-27 -31.5zM499 71q11 0 19.5 7.5t8.5 18.5t-8.5 18.5t-19.5 7.5q-12 0 -21 -7.5t-9 -18.5t9 -18.5t21 -7.5zM499 201q11 0 19.5 7.5t8.5 18.5q0 12 -8.5 19.5
t-19.5 7.5q-12 0 -21 -7.5t-9 -19.5q0 -11 9 -18.5t21 -7.5z" />
    <glyph glyph-name="fiveeighths" unicode="&#x215d;" horiz-adv-x="655" 
d="M463 700h69q5 0 8 -4.5t1 -9.5l-335 -672q-7 -14 -23 -14h-70q-5 0 -8 4.5t-1 9.5l336 672q7 14 23 14zM263 485q0 -39 -29.5 -77t-93.5 -38q-65 0 -112 49q-11 11 2 23l33 30q11 9 23 -1q23 -21 55 -21q16 0 26 11t10 24q0 15 -10 24.5t-27 9.5h-72q-16 0 -16 16v151
q0 16 16 16h157q16 0 16 -16v-41q0 -16 -16 -16h-86v-39q70 0 97 -31.5t27 -73.5zM576 163q35 -23 35 -72q0 -35 -25.5 -66t-86.5 -31q-62 0 -88.5 30.5t-26.5 67.5q0 19 9.5 40.5t25.5 31.5q-16 8 -25.5 27t-9.5 39q0 34 27 67t88 33t87 -30t26 -69q0 -16 -9 -36.5
t-27 -31.5zM499 71q11 0 19.5 7.5t8.5 18.5t-8.5 18.5t-19.5 7.5q-12 0 -21 -7.5t-9 -18.5t9 -18.5t21 -7.5zM499 201q11 0 19.5 7.5t8.5 18.5q0 12 -8.5 19.5t-19.5 7.5q-12 0 -21 -7.5t-9 -19.5q0 -11 9 -18.5t21 -7.5z" />
    <glyph glyph-name="seveneighths" unicode="&#x215e;" horiz-adv-x="614" 
d="M112 373h-57q-6 0 -9 5t-1 10l95 233h-92q-16 0 -16 16v47q0 16 16 16h185q16 0 16 -16t-6 -29l-109 -267q-7 -15 -22 -15zM539 163q35 -23 35 -72q0 -35 -25.5 -66t-86.5 -31q-62 0 -88.5 30.5t-26.5 67.5q0 19 9.5 40.5t25.5 31.5q-16 8 -25.5 27t-9.5 39q0 34 27 67
t88 33t87 -30t26 -69q0 -16 -9 -36.5t-27 -31.5zM462 71q11 0 19.5 7.5t8.5 18.5t-8.5 18.5t-19.5 7.5q-12 0 -21 -7.5t-9 -18.5t9 -18.5t21 -7.5zM462 201q11 0 19.5 7.5t8.5 18.5q0 12 -8.5 19.5t-19.5 7.5q-12 0 -21 -7.5t-9 -19.5q0 -11 9 -18.5t21 -7.5zM426 700h69
q5 0 8 -4.5t1 -9.5l-335 -672q-7 -14 -23 -14h-70q-5 0 -8 4.5t-1 9.5l336 672q7 14 23 14z" />
    <glyph glyph-name="arrowleft" unicode="&#x2190;" horiz-adv-x="616" 
d="M540 198h-261l114 -124q11 -13 -1 -23l-56 -53q-12 -11 -23 0l-235 238q-9 9 -9 22t9 22l234 240q11 11 22 0l57 -57q11 -11 0 -23l-112 -122h261q16 0 16 -16v-88q0 -16 -16 -16z" />
    <glyph glyph-name="arrowup" unicode="&#x2191;" horiz-adv-x="664" 
d="M271 27v261l-124 -114q-13 -11 -23 1l-53 56q-11 12 0 23l229 226q11 11 27 11h8q16 0 27 -11l231 -225q11 -11 0 -22l-57 -57q-11 -11 -23 0l-122 112v-261q0 -16 -16 -16h-88q-16 0 -16 16z" />
    <glyph glyph-name="arrowright" unicode="&#x2192;" horiz-adv-x="616" 
d="M337 198h-261q-16 0 -16 16v88q0 16 16 16h261l-112 122q-11 12 0 23l57 57q11 11 22 0l229 -235q11 -11 11 -27t-11 -27l-230 -233q-11 -11 -23 0l-56 53q-12 10 -1 23z" />
    <glyph glyph-name="arrowdown" unicode="&#x2193;" horiz-adv-x="664" 
d="M271 230v261q0 16 16 16h88q16 0 16 -16v-261l122 112q12 11 23 0l57 -57q11 -11 0 -22l-238 -232q-9 -10 -24 -10t-24 10l-236 233q-11 11 0 23l53 56q10 12 23 1z" />
    <glyph glyph-name="partialdiff" unicode="&#x2202;" horiz-adv-x="586" 
d="M170 634l50 67q10 12 24 5q54 -34 101 -78.5t89.5 -104t66.5 -136.5t24 -162q0 -24 -5.5 -51t-22 -60t-41 -59t-67.5 -43.5t-97 -17.5t-96.5 16.5t-67 41.5t-41 56.5t-22 58t-5.5 49.5q0 26 5 52.5t20 58t37.5 56t61.5 41.5t89 20q43 0 69 -12q-69 118 -168 181
q-13 8 -4 21zM292 118q48 0 74.5 30.5t26.5 72.5q-2 43 -28 72.5t-73 29.5t-73.5 -30t-26.5 -72t27 -72.5t73 -30.5z" />
    <glyph glyph-name="product" unicode="&#x220f;" horiz-adv-x="612" 
d="M117 16v564h-56q-16 0 -16 16v90q0 16 16 16h490q16 0 16 -16v-90q0 -16 -16 -16h-54v-564q0 -16 -16 -16h-107q-16 0 -16 16v564h-103v-564q0 -16 -16 -16h-106q-16 0 -16 16z" />
    <glyph glyph-name="summation" unicode="&#x2211;" horiz-adv-x="521" 
d="M248 577l142 -214q8 -13 0 -26l-142 -214h227q16 0 16 -16v-91q0 -16 -16 -16h-418q-14 0 -14 14q0 12 7 26l196 310l-196 312q-7 10 -7 24t13 14h419q16 0 16 -16v-91q0 -16 -16 -16h-227z" />
    <glyph glyph-name="minus" unicode="&#x2212;" horiz-adv-x="557" 
d="M91 428h382q16 0 16 -16v-65q0 -16 -16 -16h-382q-16 0 -16 16v65q0 16 16 16z" />
    <glyph glyph-name="radical" unicode="&#x221a;" horiz-adv-x="685" 
d="M282 268l175 417q7 15 22 15h160q16 0 16 -16v-77q0 -16 -16 -16h-82l-256 -589q-4 -9 -14 -9q-11 0 -14 9l-236 484q-2 5 1 9.5t8 4.5h118q15 0 22 -15z" />
    <glyph glyph-name="infinity" unicode="&#x221e;" horiz-adv-x="670" 
d="M224 143q-72 0 -108 45t-36 107q0 61 36 106.5t108 45.5q65 0 112 -58q43 58 110 58q72 0 108 -45.5t36 -107.5t-36 -106.5t-108 -44.5q-65 0 -110 55q-43 -55 -112 -55zM438 248q19 0 31 13.5t12 32.5q0 18 -12 30.5t-31 12.5q-32 0 -50 -43q19 -46 50 -46zM233 247
q30 0 49 48q-18 44 -49 44q-20 0 -31.5 -12t-11.5 -32q0 -22 11.5 -35t31.5 -13z" />
    <glyph glyph-name="integral" unicode="&#x222b;" horiz-adv-x="482" 
d="M421 568q-40 20 -70 20q-56 0 -56 -75v-526q0 -18 -2 -36.5t-12.5 -48t-28 -51t-52.5 -38t-83 -16.5q-81 0 -145 49q-13 9 -3 23l39 61q9 12 23 5q40 -20 70 -20q56 0 56 75v526q0 18 2 36.5t12.5 48t28 51t52.5 38t83 16.5q81 0 145 -49q13 -9 3 -23l-39 -61
q-9 -12 -23 -5z" />
    <glyph glyph-name="approxequal" unicode="&#x2248;" horiz-adv-x="609" 
d="M149 288l-56 38q-13 10 -5 23q65 101 150 101q28 0 71 -22t60 -22q30 0 69 43q12 12 23 2l55 -42q14 -10 5 -24q-61 -99 -151 -99q-25 0 -68 23.5t-66 23.5q-28 0 -64 -42q-11 -11 -23 -3zM149 84l-56 38q-13 10 -5 23q65 101 150 101q28 0 71 -22t60 -22q30 0 69 43
q12 12 23 2l55 -42q14 -10 5 -24q-61 -99 -151 -99q-25 0 -68 23.5t-66 23.5q-28 0 -64 -42q-11 -11 -23 -3z" />
    <glyph glyph-name="notequal" unicode="&#x2260;" horiz-adv-x="509" 
d="M151 91h-55q-16 0 -16 16v81q0 16 16 16h90l29 87h-119q-16 0 -16 16v82q0 16 16 16h154l29 80q5 15 21 15h73q6 0 9.5 -5t1.5 -10l-28 -80h58q16 0 16 -16v-82q0 -16 -16 -16h-92l-30 -87h122q16 0 16 -16v-81q0 -16 -16 -16h-157l-26 -76q-5 -15 -21 -15h-71
q-6 0 -9.5 5t-1.5 10z" />
    <glyph glyph-name="lessequal" unicode="&#x2264;" horiz-adv-x="441" 
d="M46 111h324q16 0 16 -16v-79q0 -16 -16 -16h-324q-16 0 -16 16v79q0 16 16 16zM222 378l175 -111q13 -8 6 -23l-41 -72q-7 -14 -22 -6l-296 180q-14 8 -14 24v16q0 16 14 24l296 179q15 8 22 -6l41 -71q7 -15 -6 -23z" />
    <glyph glyph-name="greaterequal" unicode="&#x2265;" horiz-adv-x="441" 
d="M411 111h-356v-111h356v111zM43 267l176 111l-176 111q-13 10 -5 23l41 71q7 14 22 6l296 -179q14 -8 14 -24v-16q0 -16 -14 -24l-296 -180q-15 -8 -22 6l-41 72q-8 13 5 23z" />
    <glyph glyph-name="lozenge" unicode="&#x25ca;" horiz-adv-x="660" 
d="M69 361l252 347q3 4 9 4t9 -4l252 -347q8 -13 0 -26l-252 -347q-3 -4 -9 -4t-9 4l-252 347q-8 13 0 26zM330 496l-104 -148l104 -148l104 148z" />
    <glyph glyph-name="CR" horiz-adv-x="250" 
 />
    <glyph glyph-name="zero.oldstyle" horiz-adv-x="578" 
d="M289 506q62 0 109 -25.5t72 -66.5t36.5 -84t11.5 -86q0 -33 -5.5 -64.5t-21.5 -66t-40.5 -60t-66.5 -42.5t-95 -17q-66 0 -113.5 25.5t-71 66.5t-34 81.5t-10.5 82.5q0 40 10.5 80.5t34 82t71 67.5t113.5 26zM289 117q31 0 51.5 15t28.5 39.5t10.5 40.5t2.5 32
q0 17 -2.5 34.5t-10.5 44t-28.5 43t-51.5 16.5q-25 0 -43.5 -11.5t-27.5 -26.5t-14 -36t-6 -33t-1 -25q0 -17 2.5 -33.5t10 -42t28 -41.5t51.5 -16z" />
    <glyph glyph-name="one.oldstyle" horiz-adv-x="474" 
d="M78 105h104v217l-87 -45q-15 -9 -24 7l-32 53q-8 15 4 25l179 139q13 11 30 11h38q7 0 12 -5t5 -12v-390h90q7 0 12 -5t5 -12v-71q0 -7 -5 -12t-12 -5h-319q-7 0 -12 5t-5 12v71q0 7 5 12t12 5z" />
    <glyph glyph-name="two.oldstyle" horiz-adv-x="444" 
d="M383 354q0 -62 -62 -145l-69 -93h115q7 0 12 -5t5 -12v-82q0 -7 -5 -12t-12 -5h-307q-7 0 -12 5t-5 12v9q0 16 10 31l172 229q30 37 30 63q0 8 -2.5 15.5t-11.5 14.5t-23 7q-40 0 -102 -51q-13 -11 -24 2l-51 58q-11 13 1 25q83 86 176 86q73 0 119 -39.5t46 -112.5z" />
    <glyph glyph-name="three.oldstyle" horiz-adv-x="503" 
d="M443 324q0 -32 -17.5 -68t-51.5 -56q69 -38 69 -131q0 -27 -9 -55.5t-29.5 -59.5t-62.5 -50.5t-99 -19.5q-109 0 -191 77q-12 12 -1 25l50 59q9 11 24 2q51 -39 118 -39q28 0 48 17.5t23 44.5q4 32 -18 55.5t-56 23.5h-74q-7 0 -12 5t-5 12v70q0 7 5 12t12 5h77
q29 0 49.5 20t20.5 51q0 30 -20 46.5t-50 16.5q-58 0 -118 -44q-13 -9 -24 3l-48 61q-12 14 2 24q85 75 188 75q49 0 86.5 -13t58.5 -32t34 -45t17 -48t4 -44z" />
    <glyph glyph-name="four.oldstyle" horiz-adv-x="516" 
d="M400 7v-101q0 -7 -5 -12t-12 -5h-102q-7 0 -12 5t-5 12v101h-217q-7 0 -12 5t-5 12v39q0 17 9 31l246 392q11 14 26 14h72q7 0 12 -5t5 -12v-354h69q7 0 12 -5t5 -12v-88q0 -7 -5 -12t-12 -5h-69zM264 239l-71 -110h71v110z" />
    <glyph glyph-name="five.oldstyle" horiz-adv-x="544" 
d="M72 9l56 56q12 12 23 -1q52 -53 113 -53q39 0 64 25t25 57q0 37 -24.5 61t-66.5 24h-131q-7 0 -12 5t-5 12v288q0 7 5 12t12 5h304q7 0 12 -5t5 -12v-89q0 -7 -5 -12t-12 -5h-188v-80h21q62 0 107 -19t67.5 -51.5t32 -66t9.5 -71.5q0 -22 -6 -46.5t-22 -52.5t-40 -50
t-64 -37t-89 -15q-107 0 -192 96q-11 13 1 25z" />
    <glyph glyph-name="six.oldstyle" horiz-adv-x="554" 
d="M349 620l45 -64q9 -14 -5 -23q-90 -55 -148 -134q16 8 37 8q51 0 90.5 -15t62.5 -37t38 -52t20 -56t5 -52q0 -28 -10 -59.5t-32 -66.5t-67.5 -58t-106.5 -23t-106.5 22.5t-67.5 57t-32.5 66.5t-10.5 61q-3 145 72 252.5t191 177.5q15 8 25 -5zM278 111q40 0 62.5 27
t22.5 62t-22.5 61t-62.5 26t-63 -25.5t-23 -61.5q0 -35 23 -62t63 -27z" />
    <glyph glyph-name="seven.oldstyle" horiz-adv-x="440" 
d="M240 378h-193q-7 0 -12 5t-5 12v88q0 7 5 12t12 5h344q7 0 12 -5t5 -12v-20q0 -17 -6 -33l-215 -525q-6 -16 -23 -16h-102q-6 0 -9.5 5t-1.5 11z" />
    <glyph glyph-name="eight.oldstyle" horiz-adv-x="545" 
d="M272 -5q-59 0 -102.5 18.5t-66 48t-33 60.5t-10.5 62q0 42 21 78.5t53 52.5q-30 18 -48.5 54.5t-18.5 74.5q0 29 9 58t30.5 59.5t65 49.5t103.5 19q59 0 101.5 -19t63.5 -49.5t30 -59.5t9 -58q0 -86 -66 -129q32 -15 52 -54t20 -77q0 -31 -10.5 -62t-33 -60.5t-66.5 -48
t-103 -18.5zM274 257q-43 0 -65 -23.5t-22 -49.5q0 -37 25.5 -57t61.5 -20q35 0 59.5 20t24.5 57q0 26 -21.5 49.5t-62.5 23.5zM352 444q0 32 -23.5 51t-55.5 19q-33 0 -56 -19t-23 -51q0 -22 19 -47.5t60 -26.5q40 1 59.5 26.5t19.5 47.5z" />
    <glyph glyph-name="nine.oldstyle" horiz-adv-x="554" 
d="M205 -126l-47 64q-9 14 5 23q93 57 152 139q-20 -10 -39 -10q-63 0 -108 21t-67 55t-31.5 66.5t-9.5 66.5q0 28 10 59.5t32 66.5t67.5 58t106.5 23t106.5 -22.5t67.5 -57t32.5 -66.5t10.5 -61q3 -145 -72 -252.5t-191 -177.5q-15 -8 -25 5zM276 383q-40 0 -62.5 -27
t-22.5 -62t22.5 -61t62.5 -26t63 25.5t23 61.5q0 35 -23 62t-63 27z" />
    <glyph glyph-name="Euro.oldstyle" horiz-adv-x="583" 
d="M66 184l12 32q6 16 23 16h17v32h-41q-6 0 -9.5 5t-1.5 11l12 32q6 16 23 16h26q19 82 76.5 130t141.5 48q101 0 165 -51q14 -10 3 -25l-47 -68q-9 -12 -24 -5q-40 24 -84 24q-63 0 -91 -53h125q6 0 9.5 -5t1.5 -11l-12 -32q-6 -16 -23 -16h-117v-32h86q6 0 9.5 -5
t1.5 -11l-12 -32q-6 -16 -23 -16h-47q28 -54 84 -54q44 0 88 28q14 9 23 -4l45 -68q9 -15 -5 -24q-73 -52 -156 -52q-86 0 -142.5 46t-75.5 128h-50q-6 0 -9.5 5t-1.5 11z" />
    <glyph glyph-name="florin.oldstyle" horiz-adv-x="492" 
d="M-34 -110l28 75q5 16 22 10q45 -16 80 -16q22 0 37 12.5t15 40.5v176h-35q-7 0 -12 5t-5 12v83q0 7 5 12t12 5h35v37q0 83 50.5 126.5t129.5 43.5q62 0 129 -29q14 -7 9 -23l-28 -75q-5 -16 -22 -10q-45 16 -80 16q-22 0 -37 -12.5t-15 -40.5v-33h76q7 0 12 -5t5 -12v-83
q0 -7 -5 -12t-12 -5h-76v-180q0 -83 -50.5 -126.5t-129.5 -43.5q-62 0 -129 29q-14 7 -9 23z" />
    <glyph glyph-name="sterling.oldstyle" horiz-adv-x="648" 
d="M465 472l-28 -75q-5 -16 -22 -10q-45 16 -80 16q-22 0 -37 -12.5t-15 -40.5v-48h76q7 0 12 -5t5 -12v-38q0 -7 -5 -12t-12 -5h-76v-69q15 -3 55.5 -23.5t66.5 -20.5q17 0 41 13.5t45 40.5q10 13 24 4l59 -43q14 -11 5 -25q-34 -56 -81.5 -85t-93.5 -29q-36 0 -96 28.5
t-87 28.5q-36 0 -77 -49q-12 -12 -25 -4l-60 40q-14 9 -5 24q39 66 93 95v74h-35q-7 0 -12 5t-5 12v38q0 7 5 12t12 5h35v52q0 83 50.5 126.5t129.5 43.5q62 0 129 -29q14 -7 9 -23z" />
    <glyph glyph-name="yen.oldstyle" horiz-adv-x="630" 
d="M153 268h70l-162 218q-3 4 -0.5 9t7.5 5h124q18 0 26 -14l96 -143l95 143q8 14 26 14h126q5 0 7.5 -5t-0.5 -9l-160 -218h67q7 0 12 -5t5 -12v-47q0 -7 -5 -12t-12 -5h-91v-51h91q7 0 12 -5t5 -12v-41q0 -7 -5 -12t-12 -5h-91v-44q0 -7 -5 -12t-12 -5h-105q-7 0 -12 5
t-5 12v44h-92q-7 0 -12 5t-5 12v41q0 7 5 12t12 5h92v51h-92q-7 0 -12 5t-5 12v47q0 7 5 12t12 5z" />
    <glyph glyph-name="percent.oldstyle" horiz-adv-x="900" 
d="M346 395q0 -27 -8 -54t-25 -52.5t-49 -41t-75 -15.5q-83 0 -121 50.5t-38 112.5q0 28 8 54.5t25 52.5t49.5 42t76.5 16q43 0 75 -16t49 -42t25 -53t8 -54zM189 340q25 0 34 18t9 37q0 11 -2.5 22t-13 22.5t-27.5 11.5q-18 0 -29 -11.5t-13.5 -22.5t-2.5 -22t2.5 -21.5
t13.5 -22t29 -11.5zM713 323q43 0 75 -16t49 -42t25 -53t8 -54t-8 -54t-25 -52.5t-49 -41t-75 -15.5t-75.5 15.5t-49.5 41t-25 52.5t-8 54q0 28 8 54.5t25 52.5t49.5 42t75.5 16zM713 103q25 0 34.5 18.5t9.5 36.5q0 11 -2.5 22t-13.5 22.5t-28 11.5q-18 0 -29 -11.5
t-13.5 -22.5t-2.5 -22q0 -10 2.5 -21t13.5 -22.5t29 -11.5zM502 557h84q6 0 10 -5t2 -11l-175 -525q-5 -16 -22 -16h-85q-6 0 -10 5t-2 11l176 525q5 16 22 16z" />
    <glyph glyph-name="commaaccent" horiz-adv-x="250" 
d="M110 -335l-27 12q-15 8 -8 22q22 45 31 73q-49 16 -49 70q0 29 20 50t50 21q39 0 58 -22.5t19 -54.5q0 -57 -69 -164q-9 -14 -25 -7z" />
    <glyph glyph-name="a.alt" horiz-adv-x="614" 
d="M287 -9q-62 3 -108 29t-71 65.5t-36.5 81t-11.5 83.5q0 34 7.5 68t25.5 69t44.5 61.5t70 43t96.5 16.5q69 0 126 -39l5 15q6 16 23 16h59q7 0 12 -5t5 -12v-466q0 -7 -5 -12t-12 -5h-59q-17 0 -22 16l-6 19q-44 -40 -109 -43q-11 -1 -34 -1zM309 387q-35 0 -60 -16
t-35.5 -40.5t-15 -44t-4.5 -36.5t4.5 -36.5t15 -44t35.5 -40.5t60 -16q57 0 90 37v202q-35 35 -90 35z" />
    <glyph glyph-name="aogonek.alt" horiz-adv-x="616" 
d="M287 -9q-62 3 -108 29t-71 65.5t-36.5 81t-11.5 83.5q0 34 7.5 68t25.5 69t44.5 61.5t70 43t96.5 16.5q69 0 126 -39l5 15q6 16 23 16h59q7 0 12 -5t5 -12v-486q0 -10 -17.5 -41.5t-17.5 -52.5q0 -46 53 -46q22 0 58 10q6 2 11 -1.5t5 -9.5l-1 -41q0 -18 -16 -23
q-42 -15 -88 -15q-50 0 -83 27t-33 79q0 30 20.5 69.5t20.5 47.5l-16 35q-46 -42 -143 -44zM309 387q-35 0 -60 -16t-35.5 -40.5t-15 -44t-4.5 -36.5t4.5 -36.5t15 -44t35.5 -40.5t60 -16q57 0 90 37v202q-35 35 -90 35z" />
    <glyph glyph-name="amacron.alt" horiz-adv-x="612" 
d="M458 500h59q7 0 12 -5t5 -12v-466q0 -7 -5 -12t-12 -5h-59q-17 0 -22 16l-6 19q-50 -44 -126 -44q-66 0 -116 25t-76.5 65t-39 82.5t-12.5 86.5q0 34 7.5 68t25.5 69t44.5 61.5t70 43t96.5 16.5q69 0 126 -39l5 15q6 16 23 16zM399 150v202q-35 35 -90 35q-35 0 -60 -16
t-35.5 -40.5t-15 -44t-4.5 -36.5t4.5 -36.5t15 -44t35.5 -40.5t60 -16q57 0 90 37zM467 671v-63q0 -7 -5 -12t-12 -5h-267q-7 0 -12 5t-5 12v63q0 7 5 12t12 5h267q7 0 12 -5t5 -12z" />
    <glyph glyph-name="adieresis.alt" horiz-adv-x="613" 
d="M130 662q0 32 22 54.5t55 22.5q32 0 54 -22.5t22 -54.5q0 -33 -22 -54.5t-54 -21.5q-33 0 -55 21.5t-22 54.5zM359 662q0 32 22 54.5t55 22.5q32 0 54 -22.5t22 -54.5q0 -33 -22 -54.5t-54 -21.5q-33 0 -55 21.5t-22 54.5zM458 500h59q7 0 12 -5t5 -12v-466q0 -7 -5 -12
t-12 -5h-59q-17 0 -22 16l-6 19q-50 -44 -126 -44q-66 0 -116 25t-76.5 65t-39 82.5t-12.5 86.5q0 34 7.5 68t25.5 69t44.5 61.5t70 43t96.5 16.5q69 0 126 -39l5 15q6 16 23 16zM399 150v202q-35 35 -90 35q-35 0 -60 -16t-35.5 -40.5t-15 -44t-4.5 -36.5t4.5 -36.5t15 -44
t35.5 -40.5t60 -16q57 0 90 37z" />
    <glyph glyph-name="aring.alt" horiz-adv-x="612" 
d="M213 688q0 42 30 72t72 30t71.5 -30t29.5 -72t-29.5 -71.5t-71.5 -29.5t-72 29.5t-30 71.5zM285 688q0 -11 9 -20t21 -9q11 0 20 9t9 20q0 12 -9 21t-20 9q-12 0 -21 -9t-9 -21zM458 500h59q7 0 12 -5t5 -12v-466q0 -7 -5 -12t-12 -5h-59q-17 0 -22 16l-6 19
q-50 -44 -126 -44q-66 0 -116 25t-76.5 65t-39 82.5t-12.5 86.5q0 34 7.5 68t25.5 69t44.5 61.5t70 43t96.5 16.5q69 0 126 -39l5 15q6 16 23 16zM399 150v202q-35 35 -90 35q-35 0 -60 -16t-35.5 -40.5t-15 -44t-4.5 -36.5t4.5 -36.5t15 -44t35.5 -40.5t60 -16q57 0 90 37z
" />
    <glyph glyph-name="agrave.alt" horiz-adv-x="612" 
d="M383 647l-32 -46q-10 -14 -24 -5l-146 90q-14 10 -4 23l45 63q9 14 23 4l135 -105q14 -10 3 -24zM458 500h59q7 0 12 -5t5 -12v-466q0 -7 -5 -12t-12 -5h-59q-17 0 -22 16l-6 19q-50 -44 -126 -44q-66 0 -116 25t-76.5 65t-39 82.5t-12.5 86.5q0 34 7.5 68t25.5 69
t44.5 61.5t70 43t96.5 16.5q69 0 126 -39l5 15q6 16 23 16zM399 150v202q-35 35 -90 35q-35 0 -60 -16t-35.5 -40.5t-15 -44t-4.5 -36.5t4.5 -36.5t15 -44t35.5 -40.5t60 -16q57 0 90 37z" />
    <glyph glyph-name="acircumflex.alt" horiz-adv-x="612" 
d="M313 653l-95 -58q-14 -9 -24 5l-32 46q-11 14 3 24l135 105q12 10 26 0l135 -105q14 -10 3 -24l-32 -46q-10 -13 -25 -5zM458 500h59q7 0 12 -5t5 -12v-466q0 -7 -5 -12t-12 -5h-59q-17 0 -22 16l-6 19q-50 -44 -126 -44q-66 0 -116 25t-76.5 65t-39 82.5t-12.5 86.5
q0 34 7.5 68t25.5 69t44.5 61.5t70 43t96.5 16.5q69 0 126 -39l5 15q6 16 23 16zM399 150v202q-35 35 -90 35q-35 0 -60 -16t-35.5 -40.5t-15 -44t-4.5 -36.5t4.5 -36.5t15 -44t35.5 -40.5t60 -16q57 0 90 37z" />
    <glyph glyph-name="aacute.alt" horiz-adv-x="612" 
d="M237 601l-32 46q-11 14 3 24l135 105q14 10 23 -4l45 -63q10 -13 -4 -23l-146 -90q-14 -9 -24 5zM458 500h59q7 0 12 -5t5 -12v-466q0 -7 -5 -12t-12 -5h-59q-17 0 -22 16l-6 19q-50 -44 -126 -44q-66 0 -116 25t-76.5 65t-39 82.5t-12.5 86.5q0 34 7.5 68t25.5 69
t44.5 61.5t70 43t96.5 16.5q69 0 126 -39l5 15q6 16 23 16zM399 150v202q-35 35 -90 35q-35 0 -60 -16t-35.5 -40.5t-15 -44t-4.5 -36.5t4.5 -36.5t15 -44t35.5 -40.5t60 -16q57 0 90 37z" />
    <glyph glyph-name="atilde.alt" horiz-adv-x="612" 
d="M458 500h59q7 0 12 -5t5 -12v-466q0 -7 -5 -12t-12 -5h-59q-17 0 -22 16l-6 19q-50 -44 -126 -44q-66 0 -116 25t-76.5 65t-39 82.5t-12.5 86.5q0 34 7.5 68t25.5 69t44.5 61.5t70 43t96.5 16.5q69 0 126 -39l5 15q6 16 23 16zM399 150v202q-35 35 -90 35q-35 0 -60 -16
t-35.5 -40.5t-15 -44t-4.5 -36.5t4.5 -36.5t15 -44t35.5 -40.5t60 -16q57 0 90 37zM260 622q-25 0 -42 -24q-9 -15 -23 -8l-48 22q-15 8 -10 23q36 91 124 91q27 0 55.5 -16t39.5 -16q22 0 40 25q9 13 24 6l52 -27q15 -10 7 -23q-45 -87 -125 -87q-23 0 -50.5 17t-43.5 17z
" />
    <glyph glyph-name="abreve.alt" horiz-adv-x="612" 
d="M310 587q-52 0 -92 28t-58 85q-5 16 11 21l67 19q13 5 21 -11q13 -38 51 -38q35 0 50 39q6 16 21 11l69 -20q16 -5 11 -21q-19 -57 -59 -85t-92 -28zM458 500h59q7 0 12 -5t5 -12v-466q0 -7 -5 -12t-12 -5h-59q-17 0 -22 16l-6 19q-50 -44 -126 -44q-66 0 -116 25
t-76.5 65t-39 82.5t-12.5 86.5q0 34 7.5 68t25.5 69t44.5 61.5t70 43t96.5 16.5q69 0 126 -39l5 15q6 16 23 16zM399 150v202q-35 35 -90 35q-35 0 -60 -16t-35.5 -40.5t-15 -44t-4.5 -36.5t4.5 -36.5t15 -44t35.5 -40.5t60 -16q57 0 90 37z" />
    <glyph glyph-name="parenleft.case" horiz-adv-x="320" 
d="M282 778q-117 -222 -117 -425q0 -210 117 -432q8 -16 -7 -24l-62 -37q-15 -8 -25 5q-158 232 -158 487q0 249 158 483q10 14 24 5l63 -38q15 -8 7 -24z" />
    <glyph glyph-name="parenright.case" horiz-adv-x="320" 
d="M290 353q0 -255 -158 -487q-10 -13 -25 -5l-62 37q-15 8 -7 24q117 222 117 432q0 203 -117 425q-8 15 6 24l63 38q15 8 25 -5q158 -234 158 -483z" />
    <glyph glyph-name="hyphen.case" horiz-adv-x="438" 
d="M97 411h252q7 0 12 -5t5 -12v-81q0 -7 -5 -12t-12 -5h-252q-7 0 -12 5t-5 12v81q0 7 5 12t12 5z" />
    <glyph glyph-name="bracketleft.case" horiz-adv-x="270" 
d="M223 742h-63v-771h63q7 0 12 -5t5 -12v-73q0 -7 -5 -12t-12 -5h-176q-7 0 -12 5t-5 12v951q0 7 5 12t12 5h176q7 0 12 -5t5 -12v-73q0 -7 -5 -12t-12 -5z" />
    <glyph glyph-name="bracketright.case" horiz-adv-x="270" 
d="M240 832v-951q0 -7 -5 -12t-12 -5h-176q-7 0 -12 5t-5 12v73q0 7 5 12t12 5h63v771h-63q-7 0 -12 5t-5 12v73q0 7 5 12t12 5h176q7 0 12 -5t5 -12z" />
    <glyph glyph-name="braceleft.case" horiz-adv-x="322" 
d="M251 842h24q7 0 12 -5t5 -12v-72q0 -7 -5 -12t-12 -5h-3h-8t-12.5 -4t-16 -11t-11 -24t-5.5 -41v-215q0 -26 -15.5 -51t-34.5 -35q19 -13 34.5 -37.5t15.5 -50.5v-215q0 -21 5 -37t12 -24t15.5 -12.5t13.5 -5.5t8 -1h2q7 0 12 -5t5 -12v-72q0 -7 -5 -12t-12 -5h-24
q-7 0 -19.5 1.5t-39 11.5t-47.5 27.5t-38 53.5t-17 85v216q0 20 -10 32.5t-23 15.5h-10q-7 0 -12 5t-5 12v58q0 7 5 12t12 5h10q13 2 23 14t10 33v216q0 48 17 84.5t38 53.5t47.5 27t39 11.5t19.5 1.5z" />
    <glyph glyph-name="bar.case" horiz-adv-x="222" 
d="M145 -134h-68q-7 0 -12 5t-5 12v938q0 7 5 12t12 5h68q7 0 12 -5t5 -12v-938q0 -7 -5 -12t-12 -5z" />
    <glyph glyph-name="braceright.case" horiz-adv-x="322" 
d="M47 842h24q7 0 19.5 -1.5t39 -11.5t47.5 -27t38 -53.5t17 -84.5v-216q0 -21 10 -33t23 -14h10q7 0 12 -5t5 -12v-58q0 -7 -5 -12t-12 -5h-10q-13 -3 -23 -15.5t-10 -32.5v-216q0 -49 -17 -85t-38 -53.5t-47.5 -27.5t-39 -11.5t-19.5 -1.5h-24q-7 0 -12 5t-5 12v72
q0 7 5 12t12 5h2q3 0 8 1t13.5 5.5t15.5 12.5t12 24t5 37v215q0 26 15.5 50.5t34.5 37.5q-19 10 -34.5 35t-15.5 51v215q0 24 -5.5 41t-11 24t-16 11t-12.5 4h-8h-3q-7 0 -12 5t-5 12v72q0 7 5 12t12 5z" />
    <glyph glyph-name="guilsinglleft.case" horiz-adv-x="320" 
d="M176 351l103 -130q11 -13 -2 -24l-47 -42q-13 -11 -25 1l-171 183q-4 6 -4 11q0 6 4 12l171 182q13 11 25 1l47 -42q13 -11 2 -24z" />
    <glyph glyph-name="guilsinglright.case" horiz-adv-x="320" 
d="M41 221l103 130l-103 128q-11 13 2 24l47 42q12 10 25 -1l170 -182q5 -5 5 -12q0 -5 -4 -11l-171 -183q-12 -12 -25 -1l-47 42q-13 11 -2 24z" />
    <glyph glyph-name="guillemotleft.case" horiz-adv-x="563" 
d="M176 351l103 -130q11 -13 -2 -24l-47 -42q-13 -11 -25 1l-171 183q-4 6 -4 11q0 6 4 12l171 182q13 11 25 1l47 -42q13 -11 2 -24zM419 351l103 -130q11 -13 -2 -24l-47 -42q-13 -11 -25 1l-171 183q-4 6 -4 11q0 6 4 12l171 182q13 11 25 1l47 -42q13 -11 2 -24z" />
    <glyph glyph-name="guillemotright.case" horiz-adv-x="563" 
d="M284 221l103 130l-103 128q-11 13 2 24l47 42q12 10 25 -1l170 -182q5 -5 5 -12q0 -5 -4 -11l-171 -183q-12 -12 -25 -1l-47 42q-13 11 -2 24zM41 221l103 130l-103 128q-11 13 2 24l47 42q12 10 25 -1l170 -182q5 -5 5 -12q0 -5 -4 -11l-171 -183q-12 -12 -25 -1l-47 42
q-13 11 -2 24z" />
    <glyph glyph-name="endash.case" horiz-adv-x="550" 
d="M454 323h-357q-7 0 -12 5t-5 12v79q0 7 5 12t12 5h357q7 0 12 -5t5 -12v-79q0 -7 -5 -12t-12 -5z" />
    <glyph glyph-name="emdash.case" horiz-adv-x="672" 
d="M575 323h-478q-7 0 -12 5t-5 12v79q0 7 5 12t12 5h478q7 0 12 -5t5 -12v-79q0 -7 -5 -12t-12 -5z" />
    <glyph glyph-name="bullet.case" horiz-adv-x="421" 
d="M208 228q-50 0 -89 39t-39 90q0 53 39 93t89 40q55 0 94 -39.5t39 -93.5q0 -52 -39 -90.5t-94 -38.5z" />
    <glyph glyph-name="periodcentered.case" horiz-adv-x="284" 
d="M60 365q0 35 23 58t58 23t59 -23t24 -58t-24 -59t-59 -24t-58 24t-23 59z" />
    <glyph glyph-name="brokenbar.case" horiz-adv-x="222" 
d="M162 235v-353q0 -7 -5 -12t-12 -5h-68q-7 0 -12 5t-5 12v353q0 7 5 12t12 5h68q7 0 12 -5t5 -12zM162 821v-352q0 -7 -5 -12t-12 -5h-68q-7 0 -12 5t-5 12v352q0 7 5 12t12 5h68q7 0 12 -5t5 -12z" />
    <glyph glyph-name="numbersign.oldstyle" horiz-adv-x="575" 
d="M77 397h63v86q0 7 5 12t12 5h77q7 0 12 -5t5 -12v-86h73v86q0 7 5 12t12 5h77q7 0 12 -5t5 -12v-86h63q7 0 12 -5t5 -12v-76q0 -7 -5 -12t-12 -5h-63v-74h63q7 0 12 -5t5 -12v-75q0 -7 -5 -12t-12 -5h-63v-87q0 -7 -5 -12t-12 -5h-77q-7 0 -12 5t-5 12v87h-73v-87
q0 -7 -5 -12t-12 -5h-77q-7 0 -12 5t-5 12v87h-63q-7 0 -12 5t-5 12v75q0 7 5 12t12 5h63v74h-63q-7 0 -12 5t-5 12v76q0 7 5 12t12 5zM251 287v-74h73v74h-73z" />
    <glyph glyph-name="dollar.oldstyle" horiz-adv-x="512" 
d="M207 357q0 -19 74 -42q31 -10 47.5 -16t44 -21t42 -31t26 -42.5t11.5 -59.5q0 -57 -38.5 -97t-101.5 -51v-67q0 -7 -5 -12t-12 -5h-68q-7 0 -12 5t-5 12v66q-65 8 -135 48q-16 9 -7 24l38 76q9 14 23 7q79 -38 130 -38q23 0 39 8.5t16 22.5q0 20 -20.5 31t-62.5 23
q-35 11 -55.5 19.5t-47 26t-39.5 45t-13 64.5q0 63 36 103t98 49v60q0 7 5 12t12 5h68q7 0 12 -5t5 -12v-64q53 -11 113 -38q15 -8 8 -22l-37 -81q-7 -15 -23 -8q-72 32 -111 32q-55 0 -55 -27z" />
    <glyph glyph-name="cent.oldstyle" horiz-adv-x="554" 
d="M432 160l57 -69q11 -13 -1 -25q-58 -55 -128 -68v-68q0 -7 -5 -12t-12 -5h-68q-7 0 -12 5t-5 12v68q-54 9 -94 36t-61.5 63.5t-32 74.5t-10.5 76q0 41 9.5 79.5t30.5 76.5t61.5 64.5t96.5 35.5v61q0 7 5 12t12 5h68q7 0 12 -5t5 -12v-62q73 -16 137 -82q12 -12 1 -25
l-56 -61q-10 -12 -23 -1q-53 48 -109 48q-54 0 -84.5 -39t-30.5 -92q0 -59 34 -93.5t82 -34.5q51 0 97 39q14 10 24 -2z" />
    <glyph glyph-name="g.alt" horiz-adv-x="614" 
d="M459 500h58q7 0 12 -5t5 -12v-468q0 -31 -4 -59t-18 -64t-38 -61t-68.5 -43t-103.5 -18q-106 0 -219 90q-13 11 -2 24l55 63q11 13 24 2q73 -58 138 -58q100 0 100 115v9q-37 -22 -89 -23q-68 -1 -119 23.5t-78 65.5t-39.5 83.5t-12.5 85.5q0 34 7.5 68t25.5 69
t44.5 61.5t70 43t96.5 16.5q84 0 126 -41l6 17q6 16 23 16zM398 144v200q-30 43 -89 43q-35 0 -60 -16t-36 -40.5t-15 -44t-4 -36.5q0 -26 8 -54t37.5 -55.5t76.5 -27.5q48 0 82 31z" />
    <glyph glyph-name="gcircumflex.alt" horiz-adv-x="614" 
d="M307 647l-95 -58q-14 -9 -24 5l-32 46q-11 14 3 24l135 105q12 10 26 0l135 -105q14 -10 3 -24l-32 -46q-10 -13 -25 -5zM459 500h58q7 0 12 -5t5 -12v-468q0 -31 -4 -59t-18 -64t-38 -61t-68.5 -43t-103.5 -18q-106 0 -219 90q-13 11 -2 24l55 63q11 13 24 2
q73 -58 138 -58q100 0 100 115v9q-37 -22 -89 -23q-68 -1 -119 23.5t-78 65.5t-39.5 83.5t-12.5 85.5q0 34 7.5 68t25.5 69t44.5 61.5t70 43t96.5 16.5q84 0 126 -41l6 17q6 16 23 16zM398 144v200q-30 43 -89 43q-35 0 -60 -16t-36 -40.5t-15 -44t-4 -36.5q0 -26 8 -54
t37.5 -55.5t76.5 -27.5q48 0 82 31z" />
    <glyph glyph-name="gbreve.alt" horiz-adv-x="614" 
d="M317 592q-52 0 -92 28t-58 85q-5 16 11 21l67 19q13 5 21 -11q13 -38 51 -38q35 0 50 39q6 16 21 11l69 -20q16 -5 11 -21q-19 -57 -59 -85t-92 -28zM459 500h58q7 0 12 -5t5 -12v-468q0 -31 -4 -59t-18 -64t-38 -61t-68.5 -43t-103.5 -18q-106 0 -219 90q-13 11 -2 24
l55 63q11 13 24 2q73 -58 138 -58q100 0 100 115v9q-37 -22 -89 -23q-68 -1 -119 23.5t-78 65.5t-39.5 83.5t-12.5 85.5q0 34 7.5 68t25.5 69t44.5 61.5t70 43t96.5 16.5q84 0 126 -41l6 17q6 16 23 16zM398 144v200q-30 43 -89 43q-35 0 -60 -16t-36 -40.5t-15 -44
t-4 -36.5q0 -26 8 -54t37.5 -55.5t76.5 -27.5q48 0 82 31z" />
    <glyph glyph-name="gdotaccent.alt" horiz-adv-x="614" 
d="M231 658q0 32 22 54.5t55 22.5q32 0 54 -22.5t22 -54.5q0 -33 -22 -54.5t-54 -21.5q-33 0 -55 21.5t-22 54.5zM459 500h58q7 0 12 -5t5 -12v-468q0 -31 -4 -59t-18 -64t-38 -61t-68.5 -43t-103.5 -18q-106 0 -219 90q-13 11 -2 24l55 63q11 13 24 2q73 -58 138 -58
q100 0 100 115v9q-37 -22 -89 -23q-68 -1 -119 23.5t-78 65.5t-39.5 83.5t-12.5 85.5q0 34 7.5 68t25.5 69t44.5 61.5t70 43t96.5 16.5q84 0 126 -41l6 17q6 16 23 16zM398 144v200q-30 43 -89 43q-35 0 -60 -16t-36 -40.5t-15 -44t-4 -36.5q0 -26 8 -54t37.5 -55.5
t76.5 -27.5q48 0 82 31z" />
    <glyph glyph-name="gcommaaccent.alt" horiz-adv-x="614" 
d="M314 583q-39 0 -58 22.5t-19 54.5q0 57 69 164q9 14 24 7l27 -12q16 -7 8 -22q-23 -51 -30 -73q49 -16 49 -70q0 -29 -20 -50t-50 -21zM459 500h58q7 0 12 -5t5 -12v-468q0 -31 -4 -59t-18 -64t-38 -61t-68.5 -43t-103.5 -18q-106 0 -219 90q-13 11 -2 24l55 63
q11 13 24 2q73 -58 138 -58q100 0 100 115v9q-37 -22 -89 -23q-68 -1 -119 23.5t-78 65.5t-39.5 83.5t-12.5 85.5q0 34 7.5 68t25.5 69t44.5 61.5t70 43t96.5 16.5q84 0 126 -41l6 17q6 16 23 16zM398 144v200q-30 43 -89 43q-35 0 -60 -16t-36 -40.5t-15 -44t-4 -36.5
q0 -26 8 -54t37.5 -55.5t76.5 -27.5q48 0 82 31z" />
    <glyph glyph-name="zero.denom" horiz-adv-x="328" 
d="M164 331q70 0 102 -52.5t32 -116.5q0 -40 -11 -75t-42.5 -63t-80.5 -28q-48 0 -80 28t-43 63t-11 75q0 39 11 75t43 65t80 29zM164 75q18 0 29.5 18.5t14.5 36t3 32.5q0 16 -3 34t-14.5 36.5t-29.5 18.5t-29.5 -18.5t-14.5 -36.5t-3 -34q0 -11 2 -23.5t6.5 -28
t14.5 -25.5t24 -10z" />
    <glyph glyph-name="one.denom" horiz-adv-x="228" 
d="M183 310v-293q0 -7 -5 -12t-12 -5h-54q-7 0 -12 5t-5 12v191l-26 -14q-15 -9 -24 6l-16 27q-8 15 5 25l91 65q15 10 31 10h10q7 0 12 -5t5 -12z" />
    <glyph glyph-name="two.denom" horiz-adv-x="305" 
d="M72 225l-30 28q-12 12 -1 25q52 55 115 55q50 0 79.5 -30.5t29.5 -73.5q0 -40 -40 -94l-43 -57h61q7 0 12 -5t5 -12v-44q0 -7 -5 -12t-12 -5h-198q-10 0 -10 10t6 18l117 157q18 24 18 43q0 8 -6.5 15.5t-17.5 7.5q-24 0 -55 -27q-14 -10 -25 1z" />
    <glyph glyph-name="three.denom" horiz-adv-x="282" 
d="M252 228q0 -40 -31 -66q31 -24 31 -64q0 -37 -27 -70.5t-89 -33.5q-56 0 -103 38q-14 10 -2 24l27 28q10 12 24 2q24 -15 54 -15q14 0 24.5 7.5t10.5 19.5q0 15 -10 23t-25 8h-38q-7 0 -12 5t-5 12v33q0 7 5 12t12 5h38q14 0 24.5 8.5t10.5 23.5q0 12 -10.5 19.5
t-24.5 7.5q-24 0 -53 -18q-15 -9 -25 3l-25 28q-11 13 1 24q46 40 102 40q62 0 89 -33t27 -71z" />
    <glyph glyph-name="four.denom" horiz-adv-x="301" 
d="M235 47v-47h-83v47h-132v66l147 215h68v-207h46v-74h-46zM152 182l-42 -61h42v61z" />
    <glyph glyph-name="five.denom" horiz-adv-x="305" 
d="M42 67l33 30q11 9 23 -1q23 -21 55 -21q16 0 26 11t10 24q0 15 -10 24.5t-27 9.5h-72q-16 0 -16 16v151q0 16 16 16h157q16 0 16 -16v-41q0 -16 -16 -16h-86v-39q70 0 97 -31.5t27 -73.5q0 -39 -29.5 -77t-93.5 -38q-65 0 -112 49q-11 11 2 23z" />
    <glyph glyph-name="six.denom" horiz-adv-x="300" 
d="M186 321l20 -26q9 -13 -3 -22q-37 -27 -71 -63q9 6 31 6q33 0 56.5 -13t33 -32.5t13 -35t3.5 -28.5q-1 -22 -9.5 -45.5t-37.5 -46t-73 -22.5q-34 0 -59 12.5t-37 31.5t-17.5 36.5t-5.5 33.5q0 133 132 219q13 8 24 -5zM149 74q16 0 25.5 11t9.5 25t-9.5 24t-25.5 10
q-14 0 -24 -9.5t-10 -24.5q0 -14 9 -25t25 -11z" />
    <glyph glyph-name="seven.denom" horiz-adv-x="259" 
d="M20 264v47q0 16 16 16h188q16 0 16 -16v-2q0 -16 -6 -31l-112 -263q-7 -15 -22 -15h-57q-6 0 -9 5t-1 10l99 233h-96q-16 0 -16 16z" />
    <glyph glyph-name="eight.denom" horiz-adv-x="288" 
d="M258 231q0 -16 -9 -36.5t-27 -31.5q35 -23 35 -72q0 -35 -25.5 -66t-86.5 -31q-62 0 -88.5 30.5t-26.5 67.5q0 19 9.5 40.5t25.5 31.5q-16 8 -25.5 27t-9.5 39q0 34 27 67t88 33t87 -30t26 -69zM145 71q11 0 19.5 7.5t8.5 18.5t-8.5 18.5t-19.5 7.5q-12 0 -21 -7.5
t-9 -18.5t9 -18.5t21 -7.5zM145 201q11 0 19.5 7.5t8.5 18.5q0 12 -8.5 19.5t-19.5 7.5q-12 0 -21 -7.5t-9 -19.5q0 -11 9 -18.5t21 -7.5z" />
    <glyph glyph-name="nine.denom" horiz-adv-x="300" 
d="M114 6l-20 26q-11 12 3 22q41 30 71 63q-9 -6 -31 -6q-33 0 -56.5 13t-33 32.5t-13 35t-3.5 28.5q1 22 9.5 45.5t37.5 46t73 22.5q34 0 59 -12.5t37 -31.5t17.5 -36.5t5.5 -33.5q0 -134 -132 -219q-14 -9 -24 5zM151 253q-16 0 -25.5 -11t-9.5 -25t9.5 -24t25.5 -10
q14 0 24 9.5t10 24.5q0 14 -9 25t-25 11z" />
    <glyph glyph-name="one.ftd" horiz-adv-x="503" 
d="M73 16v83q0 16 16 16h121v361l-84 -45q-15 -7 -22 7l-36 58q-7 15 5 24l195 151q13 10 29 10h34q16 0 16 -16v-550h80q16 0 16 -16v-83q0 -16 -16 -16h-338q-16 0 -16 16z" />
    <glyph glyph-name="zero.ftd" horiz-adv-x="686" 
d="M342 683q72 0 126 -33.5t82.5 -87.5t42 -110t13.5 -113q0 -46 -8 -91t-27 -92t-48.5 -82t-76 -57.5t-104.5 -22.5t-104.5 22.5t-75 57.5t-48 82t-27 92t-7.5 91q0 57 13.5 113t41.5 110t82 87.5t125 33.5zM342 115q39 0 66.5 26.5t39.5 66.5t16.5 72t4.5 59t-4.5 58.5
t-16.5 71.5t-39.5 66t-66.5 26q-38 0 -65.5 -26t-39.5 -66t-17 -71.5t-5 -58.5t5 -59t17 -72t39.5 -66.5t65.5 -26.5z" />
    <glyph glyph-name="two.ftd" horiz-adv-x="588" 
d="M130 492l-59 62q-10 12 0 24q105 106 216 106q94 0 152.5 -50.5t58.5 -145.5q0 -83 -83 -187l-141 -174h190q16 0 16 -16v-95q0 -16 -16 -16h-386q-16 0 -16 16v35q0 15 10 28l243 302q51 64 51 111q0 30 -18.5 50.5t-59.5 20.5q-57 0 -135 -72q-13 -11 -23 1z" />
    <glyph glyph-name="three.ftd" horiz-adv-x="576" 
d="M496 487q0 -43 -19 -84t-52 -64q36 -21 53.5 -61.5t17.5 -83.5q0 -31 -10 -62t-32.5 -63.5t-69 -53t-110.5 -20.5q-110 0 -202 84q-11 10 -2 23l57 67q10 12 22 1q28 -24 63 -40.5t62 -16.5q38 0 64.5 21t26.5 60q0 40 -27 63.5t-64 23.5h-83q-16 0 -16 16v86q0 16 16 16
h83q37 0 64 24t27 64q0 39 -26.5 60t-64.5 21q-27 0 -61.5 -16.5t-63.5 -40.5q-13 -11 -22 1l-57 67q-9 13 2 23q95 84 202 84q64 0 110.5 -20.5t69 -53t32.5 -63.5t10 -62z" />
    <glyph glyph-name="four.ftd" horiz-adv-x="615" 
d="M467 133l-1 -118q0 -16 -16 -16h-106q-16 0 -16 16v118h-252q-16 0 -16 16v46q0 17 9 29l281 438q10 13 25 13h76q16 0 16 -16v-402h72q16 0 16 -16v-92q0 -16 -16 -16h-72zM328 404l-92 -147h92v147z" />
    <glyph glyph-name="five.ftd" horiz-adv-x="607" 
d="M92 119l67 59q11 10 22 -1q54 -61 109 -61q48 0 76 31t28 73q0 41 -28 70.5t-77 29.5h-155q-16 0 -16 16v327q0 16 16 16h334q16 0 16 -16v-91q0 -16 -16 -16h-208v-119h29q68 0 117.5 -21.5t74 -56.5t35.5 -70.5t11 -73.5q0 -24 -6 -51t-23 -58t-42.5 -55t-69 -40.5
t-97.5 -16.5q-114 0 -199 102q-11 11 2 23z" />
    <glyph glyph-name="six.ftd" horiz-adv-x="646" 
d="M395 675l47 -73q8 -12 -5 -21q-98 -57 -163 -149q26 12 69 12q62 -3 106 -26t66 -58.5t31.5 -70.5t9.5 -73q0 -23 -5.5 -49.5t-22 -58t-41 -56.5t-67 -41.5t-96.5 -16.5t-97 17.5t-67.5 43.5t-41 59t-22 60t-5.5 51q0 85 24 159t66.5 129.5t89 95.5t101.5 71q13 8 23 -5z
M324 118q46 0 73 30.5t27 72.5t-26.5 72t-73.5 30t-73 -29.5t-28 -72.5q0 -42 26.5 -72.5t74.5 -30.5z" />
    <glyph glyph-name="seven.ftd" horiz-adv-x="525" 
d="M50 571v91q0 16 16 16h381q16 0 16 -16v-42q0 -16 -6 -31l-237 -574q-7 -15 -22 -15h-109q-6 0 -9 5t-1 10l219 540h-232q-16 0 -16 16z" />
    <glyph glyph-name="eight.ftd" horiz-adv-x="606" 
d="M526 485q0 -35 -18 -76.5t-58 -69.5q76 -45 76 -143q0 -31 -10 -62.5t-32.5 -64.5t-69.5 -54t-111 -21q-52 0 -93 14t-64.5 35.5t-39 50t-21 53t-5.5 48.5q0 43 19 84t53 61q-72 52 -72 145q0 31 10 62t32.5 63.5t69.5 53t111 20.5t111 -20.5t69.5 -53t32.5 -63.5t10 -62
zM303 112q38 0 64.5 22.5t26.5 60.5q0 40 -26.5 62.5t-64.5 22.5t-65 -22.5t-27 -62.5q0 -39 27 -61t65 -22zM303 400q38 0 64.5 22.5t26.5 62.5q0 39 -26 60t-65 21t-65.5 -21t-26.5 -60q0 -40 27 -62.5t65 -22.5z" />
    <glyph glyph-name="nine.ftd" horiz-adv-x="646" 
d="M251 4l-47 73q-8 12 5 21q96 54 163 149q-26 -12 -69 -12q-62 3 -106 26t-66 58.5t-31.5 70.5t-9.5 73q0 23 5.5 49.5t22 58t41 56.5t67 41.5t96.5 16.5t97 -17.5t67.5 -43.5t41 -59t22 -60t5.5 -51q0 -84 -24 -158.5t-67 -130t-89 -95.5t-101 -71q-13 -8 -23 5zM322 561
q-46 0 -73 -30.5t-27 -72.5t26.5 -72t73.5 -30t73 29.5t28 72.5q0 42 -26.5 72.5t-74.5 30.5z" />
    <glyph glyph-name="zero.num" horiz-adv-x="328" 
d="M164 706q70 0 102 -52.5t32 -116.5q0 -40 -11 -75t-42.5 -63t-80.5 -28q-48 0 -80 28t-43 63t-11 75q0 39 11 75t43 65t80 29zM164 450q18 0 29.5 18.5t14.5 36t3 32.5q0 16 -3 34t-14.5 36.5t-29.5 18.5t-29.5 -18.5t-14.5 -36.5t-3 -34q0 -11 2 -23.5t6.5 -28
t14.5 -25.5t24 -10z" />
    <glyph glyph-name="one.num" horiz-adv-x="228" 
d="M183 686v-295q0 -16 -16 -16h-56q-16 0 -16 16v192l-27 -14q-14 -9 -22 6l-18 28q-7 14 5 23l93 67q12 9 29 9h12q16 0 16 -16z" />
    <glyph glyph-name="two.num" horiz-adv-x="305" 
d="M72 599l-31 30q-11 11 -1 23q52 56 116 56q51 0 80 -28.5t29 -75.5q0 -39 -40 -94l-44 -57l59 -1q16 0 16 -16v-46q0 -16 -16 -16l-181 1q-16 0 -16 16v2q0 16 10 29l105 138q18 26 18 43q0 8 -6.5 15.5t-17.5 7.5q-24 0 -56 -28q-12 -9 -24 1z" />
    <glyph glyph-name="three.num" horiz-adv-x="282" 
d="M252 603q0 -40 -31 -66q31 -24 31 -64q0 -37 -27 -70.5t-89 -33.5q-56 0 -104 38q-12 10 -1 23l27 30q10 11 23 2q23 -16 55 -16q14 0 24.5 7.5t10.5 19.5q0 15 -10 23t-25 8h-39q-16 0 -16 16v35q0 16 16 16h39q14 0 24.5 8.5t10.5 23.5q0 12 -10.5 19.5t-24.5 7.5
q-23 0 -54 -19q-15 -7 -24 3l-26 30q-9 13 2 23q48 40 102 40q62 0 89 -33t27 -71z" />
    <glyph glyph-name="four.num" horiz-adv-x="301" 
d="M235 422v-31q0 -16 -16 -16h-51q-16 0 -16 16v31h-116q-16 0 -16 16v34q0 17 9 29l129 189q10 13 25 13h36q16 0 16 -16v-191h30q16 0 16 -16v-42q0 -16 -16 -16h-30zM152 557l-42 -61h42v61z" />
    <glyph glyph-name="five.num" horiz-adv-x="305" 
d="M42 442l33 30q11 9 23 -1q23 -21 55 -21q16 0 26 11t10 24q0 15 -10 24.5t-27 9.5h-72q-16 0 -16 16v151q0 16 16 16h157q16 0 16 -16v-41q0 -16 -16 -16h-86v-39q70 0 97 -31.5t27 -73.5q0 -39 -29.5 -77t-93.5 -38q-65 0 -112 49q-11 11 2 23z" />
    <glyph glyph-name="six.num" horiz-adv-x="300" 
d="M186 696l20 -26q9 -13 -3 -22q-37 -27 -71 -63q9 6 31 6q33 0 56.5 -13t33 -32.5t13 -35t3.5 -28.5q-1 -22 -9.5 -45.5t-37.5 -46t-73 -22.5q-34 0 -59 12.5t-37 31.5t-17.5 36.5t-5.5 33.5q0 133 132 219q13 8 24 -5zM149 449q16 0 25.5 11t9.5 25t-9.5 24t-25.5 10
q-14 0 -24 -9.5t-10 -24.5q0 -14 9 -25t25 -11z" />
    <glyph glyph-name="seven.num" horiz-adv-x="265" 
d="M20 637v47q0 16 16 16h184q16 0 16 -16v-7q0 -16 -6 -31l-108 -258q-7 -15 -22 -15h-57q-6 0 -9 5t-1 10l97 233h-94q-16 0 -16 16z" />
    <glyph glyph-name="eight.num" horiz-adv-x="288" 
d="M258 606q0 -16 -9 -36.5t-27 -31.5q35 -23 35 -72q0 -35 -25.5 -66t-86.5 -31q-62 0 -88.5 30.5t-26.5 67.5q0 19 9.5 40.5t25.5 31.5q-16 8 -25.5 27t-9.5 39q0 34 27 67t88 33t87 -30t26 -69zM145 446q11 0 19.5 7t8.5 19t-8.5 19t-19.5 7q-12 0 -21 -7t-9 -19t9 -19
t21 -7zM145 576q11 0 19.5 7t8.5 19t-8.5 19.5t-19.5 7.5q-12 0 -21 -7.5t-9 -19.5t9 -19t21 -7z" />
    <glyph glyph-name="nine.num" horiz-adv-x="300" 
d="M114 381l-20 26q-11 12 3 22q41 30 71 63q-9 -6 -31 -6q-33 0 -56.5 13t-33 32.5t-13 35t-3.5 28.5q1 22 9.5 45.5t37.5 46t73 22.5q34 0 59 -12.5t37 -31.5t17.5 -36.5t5.5 -33.5q0 -134 -132 -219q-14 -9 -24 5zM151 628q-16 0 -25.5 -11t-9.5 -25t9.5 -24t25.5 -10
q14 0 24 9.5t10 24.5q0 14 -9 25t-25 11z" />
    <glyph glyph-name="ampersand.alt1" horiz-adv-x="812" 
d="M638 156l101 -79q12 -11 3 -22l-61 -76q-10 -12 -23 -3l-117 86q-88 -72 -192 -72q-118 0 -187 62t-69 179v11v267q-1 19 -11.5 26.5t-35.5 9.5q-16 0 -16 16v85q0 16 16 18q25 4 45 4q139 0 139 -162v-273q3 -113 105 -113q40 0 93 19l-30 20q-68 45 -96.5 87t-28.5 96
q0 34 17 67.5t47 46.5q-36 24 -36 80q0 78 55 127t134 49q82 0 138 -38.5t79 -95.5t23 -128q0 -168 -92 -294zM528 235q64 95 64 214q0 63 -24.5 99t-69.5 36q-27 0 -41.5 -17t-14.5 -36q0 -15 10.5 -26t23.5 -11h20q16 0 16 -16v-65q0 -16 -16 -16h-44q-19 0 -30 -13.5
t-11 -31.5q0 -28 62 -73z" />
    <glyph glyph-name="T_L" horiz-adv-x="597" 
d="M153 700h106q16 0 16 -16v-90l176 65q5 2 10 -1t5 -9v-60q0 -16 -15 -21l-176 -64v-54l176 65q5 2 10 -1t5 -9v-60q0 -16 -15 -21l-176 -64v-222q60 20 100 71t52 125q2 16 18 16h96q15 0 15 -16q-17 -155 -118 -247t-231 -92q-24 0 -54 3q-16 2 -16 18v295l-102 -38
q-5 -2 -10 1.5t-5 9.5v58q0 16 15 21l102 37v55l-102 -36q-5 -2 -10 1.5t-5 9.5v55q0 16 15 21l102 38v140q0 16 16 16z" />
    </font>
</defs>
</svg>
