<?xml version="1.0" standalone="no"?>
<!DOCTYPE svg PUBLIC "-//W3C//DTD SVG 1.1//EN" "http://www.w3.org/Graphics/SVG/1.1/DTD/svg11.dtd" >
<svg xmlns="http://www.w3.org/2000/svg" xmlns:xlink="http://www.w3.org/1999/xlink" version="1.1">
<metadata>
Created by FontForge 20170731 at Tue Dec  2 23:26:02 2014
 By Aleksey,,,
Copyright (c) 2013 by Ahmet Altun. All rights reserved.
</metadata>
<defs>
<font id="HalisR-Thin" horiz-adv-x="556" >
  <font-face 
    font-family="Halis R Thin"
    font-weight="100"
    font-stretch="normal"
    units-per-em="1000"
    panose-1="2 0 5 5 3 0 0 2 0 4"
    ascent="800"
    descent="-200"
    x-height="500"
    cap-height="700"
    bbox="-147 -354 1193 961"
    underline-thickness="50"
    underline-position="-230"
    unicode-range="U+0020-FB04"
  />
<missing-glyph horiz-adv-x="490" 
d="M210 209q0 -12 9 -21t22 -9q12 0 20.5 9t8.5 21t-8.5 20t-20.5 8q-13 0 -22 -8t-9 -20zM262 267v28q0 13 18 33.5t36.5 47t18.5 54.5q0 39 -24.5 60.5t-62.5 21.5q-55 0 -104 -52l29 -28q35 37 65 38q27 2 37 -11.5t10 -29.5q0 -29 -34 -67t-34 -65v-30h45zM460 640v-580
q0 -10 -10 -10h-410q-10 0 -10 10v580q0 10 10 10h410q10 0 10 -10z" />
    <glyph glyph-name="f_f" unicode="ff" horiz-adv-x="547" 
d="M553 680v-1q-3 -8 -12 -6q-39 14 -76 15q-57 2 -94 -29.5t-37 -98.5v-60h122q10 0 10 -10v-1q0 -10 -10 -10h-122v-469q0 -10 -10 -10h-3q-10 0 -10 10v469h-202v-469q0 -10 -10 -10h-3q-10 0 -10 10v469h-66q-10 0 -10 10v1q0 10 10 10h66v59q0 74 42.5 111t109.5 37
q63 0 108 -45q41 45 117 45q36 0 84 -15q10 -3 6 -12zM109 560v-60h202v59q0 53 23 88q-42 39 -94 41q-57 2 -94 -29.5t-37 -98.5z" />
    <glyph glyph-name="fi" unicode="fi" horiz-adv-x="429" 
d="M349 490v-480q0 -10 -10 -10h-2q-10 0 -10 10v469h-218v-469q0 -10 -10 -10h-3q-10 0 -10 10v469h-66q-10 0 -10 10v1q0 10 10 10h66v59q0 74 42.5 111t109.5 37q36 0 84 -15q10 -3 6 -12v-1q-3 -8 -12 -6q-39 14 -76 15q-57 2 -94 -29.5t-37 -98.5v-60h230q10 0 10 -10z
" />
    <glyph glyph-name="fl" unicode="fl" horiz-adv-x="450" 
d="M370 691v-681q0 -10 -10 -10h-4q-10 0 -10 10v610q-37 67 -116 67q-50 0 -85.5 -32.5t-35.5 -94.5v-60h124q10 0 10 -10v-1q0 -10 -10 -10h-124v-469q0 -10 -10 -10h-3q-10 0 -10 10v469h-66q-10 0 -10 10v1q0 10 10 10h66v59q0 73 40 111t104 38q75 0 118 -59l3 42
q2 9 10 9q9 0 9 -9z" />
    <glyph glyph-name="f_f_i" unicode="ffi" horiz-adv-x="654" 
d="M574 490v-480q0 -10 -10 -10h-2q-10 0 -10 10v469h-218v-469q0 -10 -10 -10h-3q-10 0 -10 10v469h-202v-469q0 -10 -10 -10h-3q-10 0 -10 10v469h-66q-10 0 -10 10v1q0 10 10 10h66v59q0 74 42.5 111t109.5 37q63 0 108 -45q41 45 117 45q36 0 84 -15q10 -3 6 -12v-1
q-3 -8 -12 -6q-39 14 -76 15q-57 2 -94 -29.5t-37 -98.5v-60h230q10 0 10 -10zM109 560v-60h202v59q0 53 23 88q-42 39 -94 41q-57 2 -94 -29.5t-37 -98.5z" />
    <glyph glyph-name="f_f_l" unicode="ffl" horiz-adv-x="675" 
d="M595 692v-683q0 -10 -10 -10h-2q-10 0 -10 10v611q-37 67 -116 67q-50 0 -85.5 -32.5t-35.5 -94.5v-60h124q10 0 10 -10v-1q0 -10 -10 -10h-124v-469q0 -10 -10 -10h-3q-10 0 -10 10v469h-204v-469q0 -10 -10 -10h-3q-10 0 -10 10v469h-66q-10 0 -10 10v1q0 10 10 10h66
v59q0 74 42.5 111t109.5 37q63 0 108 -45q40 46 111 46q75 0 118 -59l3 43q2 8 9 8q8 0 8 -8zM109 560v-60h204v59q0 50 21 87v1q-42 39 -94 41q-57 2 -94 -29.5t-37 -98.5z" />
    <glyph glyph-name="f_h" unicode="fh" horiz-adv-x="822" 
d="M369 691v-269q86 86 195 86q49 0 86 -15t58 -38t33.5 -57.5t16.5 -67t4 -72.5v-248q0 -10 -10 -10h-3q-10 0 -10 10v248q0 129 -47.5 178.5t-133.5 49.5q-46 0 -99.5 -26.5t-89.5 -68.5v-381q0 -10 -10 -10h-3q-10 0 -10 10v610q-37 67 -116 67q-50 0 -85.5 -32.5
t-35.5 -94.5v-60h124q10 0 10 -10v-1q0 -10 -10 -10h-124v-469q0 -10 -10 -10h-3q-10 0 -10 10v469h-66q-10 0 -10 10v1q0 10 10 10h66v59q0 73 40 111t104 38q75 0 118 -59l3 42q2 9 9 9q9 0 9 -9z" />
    <glyph glyph-name="f_j" unicode="fj" horiz-adv-x="429" 
d="M103 -158q5 9 14 4q47 -22 79 -23q131 -5 131 167v489h-218v-469q0 -10 -10 -10h-3q-10 0 -10 10v469h-66q-10 0 -10 10v1q0 10 10 10h66v59q0 74 42.5 111t109.5 37q36 0 84 -15q10 -3 6 -12v-1q-3 -8 -12 -6q-39 14 -76 15q-57 2 -94 -29.5t-37 -98.5v-60h230
q10 0 10 -10v-500q0 -98 -41.5 -144.5t-111.5 -42.5q-44 4 -89 26q-9 6 -4 13z" />
    <glyph glyph-name="f_k" unicode="fk" horiz-adv-x="762" 
d="M358 0h-2q-10 0 -10 10v610q-37 67 -116 67q-50 0 -85.5 -32.5t-35.5 -94.5v-60h124q10 0 10 -10v-1q0 -10 -10 -10h-124v-469q0 -10 -10 -10h-3q-10 0 -10 10v469h-66q-10 0 -10 10v1q0 10 10 10h66v59q0 73 40 111t104 38q75 0 118 -59l3 43q2 8 9 8q8 0 8 -8v-427
l306 229q8 6 18 6h22q2 0 2 -2v-2l-318 -236l332 -255q2 -2 1 -3q0 -2 -2 -2h-18q-11 0 -18 6l-325 248v-244q0 -10 -10 -10z" />
    <glyph glyph-name="f_b" unicode="fb" horiz-adv-x="861" 
d="M370 691v-243q87 58 192 58q102 0 170.5 -66t68.5 -191q0 -116 -67.5 -186t-162.5 -70q-121 0 -202 88l-3 -71q0 -10 -10 -10t-10 10v610q-37 67 -116 67q-50 0 -85.5 -32.5t-35.5 -94.5v-60h124q10 0 10 -10v-1q0 -10 -10 -10h-124v-469q0 -10 -10 -10h-3q-10 0 -10 10
v469h-66q-10 0 -10 10v1q0 10 10 10h66v59q0 73 40 111t104 38q75 0 118 -59l3 42q2 9 10 9q9 0 9 -9zM370 420v-306q36 -49 85.5 -74t102.5 -25q106 0 162.5 68.5t56.5 162.5q0 42 -11 81.5t-35.5 76t-70 58.5t-107.5 22q-98 0 -183 -64z" />
    <glyph glyph-name="f_f_b" unicode="ffb" horiz-adv-x="1086" 
d="M595 692v-244q76 53 181 58q106 4 178 -62t72 -195q0 -116 -67.5 -186t-162.5 -70q-121 0 -202 88l-3 -72q0 -9 -10 -9q-9 0 -9 9v611q-37 67 -115 67q-50 0 -85.5 -32.5t-35.5 -94.5v-60h124q10 0 10 -10v-1q0 -10 -10 -10h-124v-469q0 -10 -10 -10h-3q-10 0 -10 10v469
h-204v-469q0 -10 -10 -10h-3q-10 0 -10 10v469h-66q-10 0 -10 10v1q0 10 10 10h66v59q0 74 42.5 111t109.5 37q63 0 108 -45q40 46 111 46q75 0 118 -59l3 43q2 8 9 8q8 0 8 -8zM595 420v-306q36 -49 85.5 -74t102.5 -25q106 0 162.5 69t56.5 165q0 42 -11.5 81t-36 75
t-70 57.5t-106.5 21.5q-98 0 -183 -64zM109 560v-60h204v59q0 50 21 87v1q-42 39 -94 41q-57 2 -94 -29.5t-37 -98.5z" />
    <glyph glyph-name="f_f_h" unicode="ffh" horiz-adv-x="1048" 
d="M595 692v-270q86 86 195 86q49 0 86 -15t58 -38t33.5 -57.5t16.5 -67t4 -72.5v-248q0 -10 -10 -10h-3q-10 0 -10 10v248q0 129 -47.5 178.5t-133.5 49.5q-46 0 -99.5 -26.5t-89.5 -68.5v-381q0 -10 -10 -10h-3q-10 0 -10 10v610q-37 67 -115 67q-50 0 -85.5 -32.5
t-35.5 -94.5v-60h124q10 0 10 -10v-1q0 -10 -10 -10h-124v-469q0 -10 -10 -10h-3q-10 0 -10 10v469h-204v-469q0 -10 -10 -10h-3q-10 0 -10 10v469h-66q-10 0 -10 10v1q0 10 10 10h66v59q0 74 42.5 111t109.5 37q63 0 108 -45q40 46 111 46q75 0 118 -59l3 43q2 8 9 8
q8 0 8 -8zM109 560v-60h204v59q0 50 21 87v1q-42 39 -94 41q-57 2 -94 -29.5t-37 -98.5z" />
    <glyph glyph-name="f_f_j" unicode="ffj" horiz-adv-x="654" 
d="M574 490v-504q0 -98 -41.5 -144.5t-111.5 -42.5q-44 4 -89 26q-9 6 -4 13q5 9 14 4q47 -22 79 -23q131 -5 131 167v493h-218v-469q0 -10 -10 -10h-3q-10 0 -10 10v469h-202v-469q0 -10 -10 -10h-3q-10 0 -10 10v469h-66q-10 0 -10 10v1q0 10 10 10h66v59q0 74 42.5 111
t109.5 37q63 0 108 -45q41 45 117 45q36 0 84 -15q10 -3 6 -12v-1q-3 -8 -12 -6q-39 14 -76 15q-57 2 -94 -29.5t-37 -98.5v-60h230q10 0 10 -10zM109 560v-60h202v59q0 53 23 88q-42 39 -94 41q-57 2 -94 -29.5t-37 -98.5z" />
    <glyph glyph-name="f_f_k" unicode="ffk" horiz-adv-x="972" 
d="M595 692v-427l301 229q8 6 18 6h15q3 0 3 -3t-2 -5l-308 -232l325 -254q2 0 2 -4q0 -2 -3 -2h-14q-10 0 -18 6l-319 248v-244q0 -10 -10 -10h-2q-10 0 -10 10v610q-37 67 -116 67q-50 0 -85.5 -32.5t-35.5 -94.5v-60h124q10 0 10 -10v-1q0 -10 -10 -10h-124v-469
q0 -10 -10 -10h-3q-10 0 -10 10v469h-204v-469q0 -10 -10 -10h-3q-10 0 -10 10v469h-66q-10 0 -10 10v1q0 10 10 10h66v59q0 74 42.5 111t109.5 37q63 0 108 -45q40 46 111 46q75 0 118 -59l3 43q2 8 9 8q8 0 8 -8zM109 560v-60h204v59q0 50 21 87v1q-42 39 -94 41
q-57 2 -94 -29.5t-37 -98.5z" />
    <glyph glyph-name=".notdef" horiz-adv-x="490" 
d="M210 209q0 -12 9 -21t22 -9q12 0 20.5 9t8.5 21t-8.5 20t-20.5 8q-13 0 -22 -8t-9 -20zM262 267v28q0 13 18 33.5t36.5 47t18.5 54.5q0 39 -24.5 60.5t-62.5 21.5q-55 0 -104 -52l29 -28q35 37 65 38q27 2 37 -11.5t10 -29.5q0 -29 -34 -67t-34 -65v-30h45zM460 640v-580
q0 -10 -10 -10h-410q-10 0 -10 10v580q0 10 10 10h410q10 0 10 -10z" />
    <glyph glyph-name=".null" horiz-adv-x="0" 
 />
    <glyph glyph-name="nonmarkingreturn" horiz-adv-x="333" 
 />
    <glyph glyph-name="space" unicode=" " horiz-adv-x="300" 
 />
    <glyph glyph-name="exclam" unicode="!" horiz-adv-x="241" 
d="M133 690v-274l-4 -201q0 -7 -8 -7q-7 0 -7 7l-3 201v274q0 10 10 10h2q10 0 10 -10zM100 18q0 8 6.5 14.5t14.5 6.5t14 -6.5t6 -14.5t-6 -14t-14 -6t-14.5 6t-6.5 14z" />
    <glyph glyph-name="quotedbl" unicode="&#x22;" horiz-adv-x="219" 
d="M43 468l-3 222q0 10 10 10h2q10 0 10 -10l-3 -222q0 -8 -8 -8t-8 8zM160 468l-3 222q0 10 10 10h2q10 0 10 -10l-3 -222q0 -8 -8 -8t-8 8z" />
    <glyph glyph-name="numbersign" unicode="#" horiz-adv-x="568" 
d="M162 128h-92q-10 0 -10 10v2q0 10 10 10h92v200h-92q-10 0 -10 10v2q0 10 10 10h92v118q0 10 10 10h2q10 0 10 -10v-118h200v118q0 10 10 10h2q10 0 10 -10v-118h92q10 0 10 -10v-2q0 -10 -10 -10h-92v-200h92q10 0 10 -10v-2q0 -10 -10 -10h-92v-118q0 -10 -10 -10h-2
q-10 0 -10 10v118h-200v-118q0 -10 -10 -10h-2q-10 0 -10 10v118zM184 350v-200h200v200h-200z" />
    <glyph glyph-name="dollar" unicode="$" horiz-adv-x="580" 
d="M465 656v-3q-4 -9 -14 -6q-99 30 -162 38v-307q35 -11 49 -15.5t45 -16.5t45 -21t35.5 -25t31 -33t17.5 -41.5t8 -52.5q0 -75 -64.5 -128t-166.5 -53v-71q0 -10 -10 -10h-2q-10 0 -10 10v72q-105 4 -195 43q-9 4 -5 13l1 3q4 9 13 5q92 -40 186 -44v350q-37 11 -53 16.5
t-46.5 17.5t-44.5 23.5t-31.5 29t-24.5 40.5t-7 52q0 83 55.5 124.5t146.5 41.5h5v58q0 10 10 10h2q10 0 10 -10v-59q80 -6 171 -39q9 -2 5 -12zM495 180q-2 40 -18.5 69.5t-50.5 50t-61 31t-76 25.5v-343q80 2 138.5 41t66.5 106q1 7 1 20zM84 545q0 -36 14 -62.5t43 -44.5
t55.5 -29t70.5 -24v301h-4q-175 0 -179 -141z" />
    <glyph glyph-name="percent" unicode="%" horiz-adv-x="708" 
d="M174 706q52 0 86.5 -26t46.5 -58t12 -67q0 -59 -34.5 -105t-110.5 -46q-75 0 -109.5 46t-34.5 105q0 57 34.5 104t109.5 47zM174 424q36 0 62.5 14.5t38.5 36.5t17 42t5 38t-5 38t-17 42t-38.5 36.5t-62.5 14.5t-62.5 -14.5t-38.5 -36.5t-17 -42t-5 -38t5 -38t17 -42
t38.5 -36.5t62.5 -14.5zM533 298q52 0 86.5 -26t46.5 -58t12 -67q0 -59 -34.5 -105t-110.5 -46q-75 0 -109.5 46t-34.5 105q0 57 34.5 104t109.5 47zM533 15q48 0 77.5 26t37.5 53t8 53t-8 53t-37.5 53t-77.5 26t-77.5 -26t-37.5 -53t-8 -53t8 -53t37.5 -53t77.5 -26z
M477 690l-222 -681q-4 -9 -13 -9h-3q-7 0 -7 7v2l221 681q3 10 13 10h4q7 0 7 -8v-2z" />
    <glyph glyph-name="ampersand" unicode="&#x26;" horiz-adv-x="679" 
d="M600 297q8 -2 8 -10v-2q-20 -102 -84 -181q58 -60 88 -92q3 -3 3 -7t-3 -7h-1q-3 -3 -7 -3t-7 3l-86 91q-93 -101 -214 -101q-96 0 -156.5 55t-60.5 132q0 34 12 62.5t40 54.5t48.5 41.5t61.5 41.5l-58 62q-56 66 -56 130q0 66 42 110t121 44q73 0 112 -43t39 -102
q0 -34 -12.5 -62t-42.5 -55.5t-50.5 -42.5t-64.5 -44q77 -84 238 -253q62 84 78 170q2 8 10 8h2zM102 178q0 -74 57.5 -121.5t137.5 -47.5q113 0 200 95l-242 257q-49 -32 -75.5 -52.5t-51.5 -56t-26 -74.5zM420 581q0 51 -35 86.5t-95 35.5q-74 0 -107.5 -42t-33.5 -89
q0 -46 17.5 -76.5t92.5 -109.5q39 24 61.5 40t49 41t38.5 53t12 61z" />
    <glyph glyph-name="quotesingle" unicode="'" horiz-adv-x="102" 
d="M43 468l-3 222q0 10 10 10h2q10 0 10 -10l-3 -222q0 -8 -8 -8t-8 8z" />
    <glyph glyph-name="parenleft" unicode="(" horiz-adv-x="234" 
d="M196 -198l-1 -1q-8 -6 -14 3q-151 234 -151 490q0 258 151 487q5 9 13 3t3 -13q-145 -223 -145 -477q0 -250 147 -479q4 -8 -3 -13z" />
    <glyph glyph-name="parenright" unicode=")" horiz-adv-x="234" 
d="M39 -199l-1 1q-8 6 -3 13q147 229 147 479q0 252 -145 477q-5 7 3 13t13 -3q151 -231 151 -487q0 -257 -152 -490q-6 -8 -13 -3z" />
    <glyph glyph-name="asterisk" unicode="*" horiz-adv-x="402" 
d="M193 346l-3 154l-135 -74q-7 -4 -11 2q-4 7 2 11l133 80l-133 80q-6 4 -2 10q3 7 11 3l135 -74l3 154q0 8 8 8t8 -8l3 -154l135 74q8 4 11 -3q4 -6 -3 -10l-132 -80l132 -80q7 -3 3 -11q-4 -6 -11 -2l-135 74l-3 -154q0 -8 -8 -8t-8 8z" />
    <glyph glyph-name="plus" unicode="+" horiz-adv-x="553" 
d="M265 338v175q0 10 10 10h2q10 0 10 -10v-175h176q10 0 10 -10v-2q0 -10 -10 -10h-176v-176q0 -10 -10 -10h-2q-10 0 -10 10v176h-175q-10 0 -10 10v2q0 10 10 10h175z" />
    <glyph glyph-name="comma" unicode="," horiz-adv-x="212" 
d="M86 -117q-6 4 -3 9q31 67 26 106q-18 0 -18 18q0 9 6 15t14 6q21 0 21 -22q0 -48 -36 -129q-4 -6 -10 -3z" />
    <glyph glyph-name="hyphen" unicode="-" horiz-adv-x="432" 
d="M90 301h252q10 0 10 -10v-2q0 -10 -10 -10h-252q-10 0 -10 10v2q0 10 10 10z" />
    <glyph glyph-name="period" unicode="." horiz-adv-x="201" 
d="M80 18q0 8 6.5 14.5t14.5 6.5t14 -6.5t6 -14.5t-6 -14t-14 -6t-14.5 6t-6.5 14z" />
    <glyph glyph-name="slash" unicode="/" horiz-adv-x="311" 
d="M278 690l-222 -681q-4 -9 -13 -9h-3q-9 0 -7 9l221 681q3 10 13 10h4q9 0 7 -10z" />
    <glyph glyph-name="zero" unicode="0" horiz-adv-x="640" 
d="M319 681q58 0 104 -22t74.5 -57t48 -81t27 -91t7.5 -91q0 -60 -13.5 -117t-41.5 -110t-81.5 -85.5t-124.5 -32.5t-124 32.5t-81 85.5t-41 110t-13 117q0 46 7.5 91t26.5 91t47.5 81t74.5 57t103 22zM319 14q60 0 105.5 26.5t70 63.5t39.5 85.5t19 83.5t4 66q0 30 -4 64
t-19 82t-39.5 85t-70 63.5t-105.5 26.5q-59 0 -104.5 -26t-69.5 -62.5t-39.5 -84.5t-19.5 -82.5t-4 -65.5t4 -66t19.5 -83.5t39.5 -85.5t69.5 -63.5t104.5 -26.5z" />
    <glyph glyph-name="one" unicode="1" horiz-adv-x="347" 
d="M45 522q-6 8 3 14l188 140q7 5 13 5q8 0 8 -8v-663q0 -10 -10 -10h-2q-10 0 -10 10v637l-176 -127q-8 -6 -14 2z" />
    <glyph glyph-name="two" unicode="2" horiz-adv-x="472" 
d="M44 583l-2 1q-7 7 0 14q78 81 182 81q79 0 133.5 -47t54.5 -133q0 -42 -24 -91t-48.5 -80.5t-67.5 -79.5l-199 -226h319q10 0 10 -10v-2q0 -10 -10 -10h-342q-9 0 -9 9q0 11 6 17l263 304q77 88 77 170q0 76 -48 116.5t-115 40.5q-89 0 -166 -74q-7 -7 -14 0z" />
    <glyph glyph-name="three" unicode="3" horiz-adv-x="481" 
d="M421 504q0 -63 -36 -106t-96 -55q60 -19 96 -62.5t36 -103.5q0 -23 -5 -45.5t-19.5 -47.5t-37 -44t-60.5 -31.5t-86 -12.5q-98 0 -165 56q-9 5 -1 13l1 2q6 6 15 1q66 -51 151 -51q79 0 132 38t53 122q0 74 -55.5 115.5t-130.5 41.5h-76q-10 0 -10 10v1q0 10 10 10l76 -1
q77 0 131 35.5t54 109.5q0 86 -53 125t-132 39q-83 0 -150 -50q-9 -5 -15 1v1q-7 9 1 14q71 55 164 55q60 0 103.5 -18t64.5 -47t30.5 -57.5t9.5 -57.5z" />
    <glyph glyph-name="four" unicode="4" horiz-adv-x="506" 
d="M377 139v-129q0 -10 -10 -10h-3q-10 0 -10 10v129h-314q-10 0 -10 10t5 18l314 503q5 9 15 9h3q10 0 10 -10v-508h89q10 0 10 -10v-2q0 -10 -10 -10h-89zM354 638l-297 -477h297v477z" />
    <glyph glyph-name="five" unicode="5" horiz-adv-x="535" 
d="M67 80l1 1q6 6 14 0q30 -33 74 -51.5t86 -18.5q87 0 148 54.5t63 144.5t-58.5 137t-153.5 47h-134q-10 0 -10 10v262q0 10 10 10h301q10 0 10 -10v-2q0 -10 -10 -10h-288v-239h121q67 0 115.5 -19.5t73 -51.5t35 -65.5t10.5 -70.5q0 -23 -6.5 -49t-23 -57t-42 -55
t-67.5 -40t-95 -16q-105 0 -174 74q-7 8 0 15z" />
    <glyph glyph-name="six" unicode="6" horiz-adv-x="576" 
d="M336 681q5 -7 -3 -13q-212 -135 -245 -345q19 36 49.5 60.5t63 33.5t51.5 12t35 3q53 0 95 -16t66.5 -39.5t40.5 -54.5t21.5 -58t5.5 -53q0 -20 -6 -45.5t-22 -56.5t-40.5 -56t-66.5 -42t-94 -17q-63 0 -110 24.5t-71 63.5t-35 77.5t-11 77.5q0 83 23.5 156.5t64 128.5
t83.5 94t92 68q7 5 13 -3zM287 13q95 0 150.5 58t55.5 139q0 88 -54 144.5t-152 56.5q-94 0 -148 -55.5t-54 -137.5q0 -81 54.5 -143t147.5 -62z" />
    <glyph glyph-name="seven" unicode="7" horiz-adv-x="460" 
d="M30 664v2q0 10 10 10h376q8 0 8 -8q0 -6 -3 -14l-271 -645q-5 -9 -14 -9h-6q-4 0 -6 3t0 6l271 645h-355q-10 0 -10 10z" />
    <glyph glyph-name="eight" unicode="8" horiz-adv-x="541" 
d="M60 504q0 26 9.5 54.5t31 58.5t65.5 49.5t104 19.5t104.5 -18.5t66 -48t31 -58t9.5 -57.5q0 -51 -35 -100.5t-97 -66.5q64 -20 98 -64t34 -100q0 -29 -9.5 -58t-31 -58.5t-66 -48t-104.5 -18.5t-104 18.5t-65.5 48t-31 58.5t-9.5 58q0 55 35 101t100 63q-66 20 -100.5 63
t-34.5 104zM270 346q74 -2 131 40.5t57 117.5q0 81 -55.5 121.5t-132.5 40.5t-132.5 -40.5t-55.5 -121.5q0 -76 55.5 -115.5t132.5 -42.5zM270 326q-76 0 -131.5 -38.5t-55.5 -114.5q0 -83 55 -122.5t132 -39.5t132 40.5t55 121.5q0 76 -55.5 114.5t-131.5 38.5z" />
    <glyph glyph-name="nine" unicode="9" horiz-adv-x="576" 
d="M240 -3q-5 7 3 13q212 136 245 345q-19 -36 -49.5 -60.5t-63 -33.5t-51.5 -12t-35 -3q-53 0 -95 16t-66.5 39.5t-40.5 54.5t-21.5 58t-5.5 53q0 20 6 45.5t22 56.5t40.5 56t66.5 42t94 17q63 0 110 -24.5t71 -63.5t35 -77.5t11 -77.5q0 -83 -23.5 -156.5t-64 -128.5
t-83.5 -94t-92 -68q-8 -6 -13 3zM289 665q-95 0 -150.5 -58t-55.5 -139q0 -88 54 -144.5t152 -56.5q94 0 148 55.5t54 137.5q0 80 -54.5 142.5t-147.5 62.5z" />
    <glyph glyph-name="colon" unicode=":" horiz-adv-x="201" 
d="M80 18q0 8 6.5 14.5t14.5 6.5t14 -6.5t6 -14.5t-6 -14t-14 -6t-14.5 6t-6.5 14zM80 479q0 8 6.5 14.5t14.5 6.5t14 -6.5t6 -14.5t-6 -14t-14 -6t-14.5 6t-6.5 14z" />
    <glyph glyph-name="semicolon" unicode=";" horiz-adv-x="201" 
d="M80 479q0 8 6.5 14.5t14.5 6.5t14 -6.5t6 -14.5t-6 -14t-14 -6t-14.5 6t-6.5 14zM75 -117q-6 4 -3 9q31 67 26 106q-18 0 -18 18q0 9 6 15t14 6q21 0 21 -22q0 -48 -36 -129q-4 -6 -10 -3z" />
    <glyph glyph-name="less" unicode="&#x3c;" horiz-adv-x="395" 
d="M344 107l-313 188l-1 2q0 2 1 3l313 190q9 5 14 -4l2 -2q5 -9 -4 -14l-283 -172l283 -171q9 -5 4 -14l-2 -2q-5 -9 -14 -4z" />
    <glyph glyph-name="equal" unicode="=" horiz-adv-x="503" 
d="M90 488h323q10 0 10 -10v-3q0 -10 -10 -10h-323q-10 0 -10 10v3q0 10 10 10zM90 234h323q10 0 10 -10v-3q0 -10 -10 -10h-323q-10 0 -10 10v3q0 10 10 10z" />
    <glyph glyph-name="greater" unicode="&#x3e;" horiz-adv-x="395" 
d="M364 295l-313 -188q-9 -5 -14 4l-2 2q-5 9 4 14l283 171l-283 172q-9 5 -4 14l2 2q6 9 13 4l314 -190v-1q1 -1 1 -2q-1 -1 -1 -2z" />
    <glyph glyph-name="question" unicode="?" horiz-adv-x="510" 
d="M262 241v-20q0 -10 -10 -10h-1q-10 0 -10 10v17q0 26 12.5 54t25.5 45t40 48t37 44q52 67 52 122q0 22 -6.5 43.5t-21.5 43t-45 35t-70 13.5q-52 0 -89 -15t-74 -53q-6 -6 -15 -1q-7 7 -1 14q67 76 177 76q74 0 120.5 -40.5t46.5 -114.5q0 -69 -74 -156
q-32 -35 -45.5 -51.5t-30.5 -47t-18 -56.5zM230 18q0 8 6.5 14.5t14.5 6.5t14 -6.5t6 -14.5t-6 -14t-14 -6t-14.5 6t-6.5 14z" />
    <glyph glyph-name="at" unicode="@" horiz-adv-x="1182" 
d="M599 740q237 0 380 -140.5t143 -356.5q0 -60 -11 -116t-35 -108.5t-70 -84t-109 -31.5q-41 0 -82.5 29.5t-41.5 91.5q-81 -96 -193 -96q-51 0 -92.5 16t-67.5 41.5t-43.5 59.5t-24.5 67t-7 66q0 43 12 84.5t37.5 80t72 62t108.5 23.5q45 0 100 -20.5t96 -68.5l4 73
q2 8 9 8q8 0 8 -8v-374q0 -19 4.5 -37t15.5 -37t34 -30t55 -11q89 0 144 83.5t55 235.5q0 207 -136 342t-367 135q-234 0 -374 -153.5t-140 -399.5q0 -155 90.5 -288.5t277.5 -210.5q5 -2 5 -8q0 -4 -1 -5l-1 -2q-3 -6 -10 -6q-3 0 -4 1q-184 75 -281 211.5t-99 307.5
q0 165 63 294.5t186.5 204.5t289.5 75zM768 50v258q-21 35 -77 66t-111 31q-52 0 -92 -17t-61.5 -41.5t-35 -58t-17.5 -59.5t-4 -52q0 -24 4 -49.5t17.5 -59t35.5 -58.5t62 -42.5t93 -17.5q59 0 108.5 30t77.5 70z" />
    <glyph glyph-name="A" unicode="A" horiz-adv-x="665" 
d="M34 9l290 690q3 6 9 6q7 0 9 -6l289 -690q2 -3 0 -6t-6 -3h-2q-10 0 -14 9l-84 202h-384l-85 -202q-5 -9 -14 -9h-2q-4 0 -6 3t0 6zM334 672l-185 -442h368z" />
    <glyph glyph-name="B" unicode="B" horiz-adv-x="636" 
d="M428 347q45 -8 76.5 -29t46 -47.5t20 -48.5t5.5 -42q0 -32 -11 -61.5t-35 -57.5t-70.5 -44.5t-109.5 -16.5h-240q-10 0 -10 10v680q0 10 10 10h240q122 0 174 -51t52 -130q0 -20 -5.5 -41.5t-20 -49t-46 -50t-76.5 -31.5zM123 357h241q55 1 94.5 18t59 43t28 51.5
t8.5 50.5q0 28 -8.5 53.5t-28.5 50.5t-60 40t-97 15h-237v-322zM123 21h229q108 0 155.5 47.5t47.5 111.5q0 25 -8.5 49.5t-28 49.5t-59.5 41t-95 17h-241v-316z" />
    <glyph glyph-name="C" unicode="C" horiz-adv-x="707" 
d="M82 352q0 -33 6 -70t26.5 -87t53.5 -88.5t94 -65.5t140 -27q142 0 224 82q7 7 14 0t0 -14q-90 -88 -238 -88q-76 0 -136.5 23.5t-98 61t-62.5 86t-35 95t-10 92.5t10 92.5t35 95t62.5 86t98 61t136.5 23.5q148 0 238 -88q7 -7 0 -14t-14 0q-82 82 -224 82q-79 0 -140 -27
t-94 -65.5t-53.5 -88.5t-26.5 -87t-6 -70z" />
    <glyph glyph-name="D" unicode="D" horiz-adv-x="732" 
d="M335 0h-225q-10 0 -10 10v680q0 10 10 10h225q76 0 137 -24t97.5 -61t60.5 -85t33 -92t9 -87t-9 -87.5t-33 -93t-60.5 -85.5t-97.5 -61t-137 -24zM123 21h207q76 0 135.5 24.5t93 60.5t55 83.5t28.5 86t7 75.5q0 35 -7 73t-28.5 85t-55 83.5t-93 61.5t-135.5 25h-207
v-658z" />
    <glyph glyph-name="E" unicode="E" horiz-adv-x="604" 
d="M451 335h-328v-314h411q10 0 10 -10v-1q0 -10 -10 -10h-424q-10 0 -10 10v680q0 10 10 10h424q10 0 10 -10v-1q0 -10 -10 -10h-411v-322h328q10 0 10 -10v-2q0 -10 -10 -10z" />
    <glyph glyph-name="F" unicode="F" horiz-adv-x="604" 
d="M451 335h-328v-325q0 -10 -10 -10h-3q-10 0 -10 10v680q0 10 10 10h424q10 0 10 -10v-1q0 -10 -10 -10h-411v-322h328q10 0 10 -10v-2q0 -10 -10 -10z" />
    <glyph glyph-name="G" unicode="G" horiz-adv-x="711" 
d="M640 607q-7 -7 -14 0q-82 82 -224 82q-79 0 -140 -27t-94 -65.5t-53.5 -88.5t-26.5 -86.5t-6 -69.5t6 -70t26.5 -87t53.5 -89t94 -66.5t140 -27.5q148 0 228 85v201h-172q-9 0 -9 9q0 10 9 10h183q10 0 10 -10v-207q0 -10 -7 -17q-93 -90 -242 -90q-76 0 -136.5 23
t-98 59.5t-62.5 85t-35 96t-10 95.5q0 46 10 92.5t35 95t62.5 85.5t98 60.5t136.5 23.5q148 0 238 -88q7 -7 0 -14z" />
    <glyph glyph-name="H" unicode="H" horiz-adv-x="758" 
d="M635 10v325h-512v-325q0 -10 -10 -10h-3q-10 0 -10 10v680q0 10 10 10h3q10 0 10 -10v-333h512v333q0 10 10 10h3q10 0 10 -10v-680q0 -10 -10 -10h-3q-10 0 -10 10z" />
    <glyph glyph-name="I" unicode="I" horiz-adv-x="223" 
d="M123 690v-678q0 -10 -10 -10h-3q-10 0 -10 10v678q0 10 10 10h3q10 0 10 -10z" />
    <glyph glyph-name="J" unicode="J" horiz-adv-x="579" 
d="M29 142l3 1q9 4 13 -5q56 -120 196 -124q203 9 215 244v432q0 10 10 10h3q10 0 10 -10v-432q0 -35 -6 -69t-22.5 -70.5t-42.5 -63.5t-69 -44.5t-98 -17.5q-158 0 -217 136q-4 9 5 13z" />
    <glyph glyph-name="K" unicode="K" horiz-adv-x="623" 
d="M114 0h-4q-10 0 -10 10v680q0 10 10 10h4q10 0 10 -10v-318l393 322q7 6 18 6h15q3 0 3 -3q0 -2 -2 -4l-404 -332l429 -353q2 -2 2 -5t-3 -3h-14q-11 0 -18 6l-419 346v-342q0 -10 -10 -10z" />
    <glyph glyph-name="L" unicode="L" horiz-adv-x="508" 
d="M123 690v-668h315q10 0 10 -10v-2q0 -10 -10 -10h-328q-10 0 -10 10v680q0 10 10 10h3q10 0 10 -10z" />
    <glyph glyph-name="M" unicode="M" horiz-adv-x="1010" 
d="M970 0h-5q-9 0 -13 9l-205 644l-231 -651q-3 -8 -12 -8q-8 0 -11 8l-230 651l-205 -644q-4 -9 -13 -9h-5q-4 0 -6 3t-1 6l217 684q4 9 12 9q9 0 12 -9l231 -651l231 652q3 8 11 8q9 0 12 -8l218 -685q2 -9 -7 -9z" />
    <glyph glyph-name="N" unicode="N" horiz-adv-x="758" 
d="M113 0h-3q-10 0 -10 10v686q0 9 8 9q9 0 14 -7l513 -654v646q0 10 10 10h3q10 0 10 -10v-688q0 -7 -8 -7t-12 6l-515 657v-648q0 -10 -10 -10z" />
    <glyph glyph-name="O" unicode="O" horiz-adv-x="804" 
d="M402 709q76 0 136.5 -23.5t98 -60.5t62.5 -85.5t35 -95t10 -92.5q0 -48 -10 -95t-35 -96t-62.5 -85.5t-98 -59.5t-136.5 -23t-136.5 23t-98 59.5t-62.5 85t-35 96t-10 95.5q0 46 10 92.5t35 95t62.5 85.5t98 60.5t136.5 23.5zM402 689q-79 0 -140 -27t-94 -65.5
t-53.5 -88.5t-26.5 -86.5t-6 -69.5t6 -70t26.5 -87t53.5 -89t94 -66.5t140 -27.5t140 27.5t94 66.5t53.5 89t26.5 87t6 70t-6 69.5t-26.5 86.5t-53.5 88.5t-94 65.5t-140 27z" />
    <glyph glyph-name="P" unicode="P" horiz-adv-x="650" 
d="M123 278v-268q0 -10 -10 -10h-3q-10 0 -10 10v680q0 10 10 10h245q65 0 113 -19.5t73.5 -52t37 -67t11.5 -71.5q0 -94 -67 -153t-153 -59h-247zM123 299h242q94 2 149 58t55 133q0 82 -55 136t-153 54h-238v-381z" />
    <glyph glyph-name="Q" unicode="Q" horiz-adv-x="794" 
d="M402 709q76 0 136.5 -23.5t98 -60.5t62.5 -85.5t35 -95t10 -92.5q0 -64 -16 -123t-60.5 -117.5t-112.5 -90.5l148 -176q0 -1 1 -3q0 -5 -5 -5h-7q-10 0 -16 8l-142 168q-49 -20 -132 -20q-76 0 -136.5 23t-98 59.5t-62.5 85t-35 96t-10 95.5q0 46 10 92.5t35 95
t62.5 85.5t98 60.5t136.5 23.5zM402 689q-79 0 -140 -27t-94 -65.5t-53.5 -88.5t-26.5 -86.5t-6 -69.5t6 -70t26.5 -87t53.5 -88.5t94 -65.5t140 -27t140 27t94 65.5t53.5 88.5t26.5 87t6 70t-6 69.5t-26.5 86.5t-53.5 88.5t-94 65.5t-140 27z" />
    <glyph glyph-name="R" unicode="R" horiz-adv-x="650" 
d="M123 278v-268q0 -10 -10 -10h-3q-10 0 -10 10v680q0 10 10 10h245q65 0 113 -19.5t73.5 -52t37 -67t11.5 -71.5q0 -88 -59 -145t-140 -66l132 -270q2 -3 0 -6t-6 -3h-6q-11 0 -14 9l-130 269h-244zM123 300h242q94 2 149 58t55 132q0 81 -55 135t-153 54h-238v-379z" />
    <glyph glyph-name="S" unicode="S" horiz-adv-x="580" 
d="M84 545q0 -51 32.5 -85.5t80.5 -50.5t105 -34.5t105 -37.5t80.5 -61t32.5 -103q0 -75 -64.5 -128t-166.5 -53q-118 0 -217 44q-9 4 -5 13l1 3q4 9 13 5q101 -44 200 -44q87 0 148.5 41t65.5 116q0 50 -24 86t-62.5 55.5t-84.5 34t-92.5 28.5t-85 33t-62.5 53t-24 82
q0 83 55.5 124.5t146.5 41.5q84 0 198 -40q9 -2 5 -12v-3q-4 -9 -14 -6q-117 39 -188 39q-175 0 -179 -141z" />
    <glyph glyph-name="T" unicode="T" horiz-adv-x="586" 
d="M305 679v-669q0 -10 -10 -10h-3q-10 0 -10 10v669h-227q-10 0 -10 10v1q0 10 10 10h476q10 0 10 -10v-1q0 -10 -10 -10h-226z" />
    <glyph glyph-name="U" unicode="U" horiz-adv-x="715" 
d="M356 16q57 0 102 17t71 43t42.5 60t22.5 64t6 60v430q0 10 10 10h5q10 0 10 -10v-429q0 -46 -14.5 -91t-44.5 -86t-84.5 -66t-125.5 -25q-70 0 -123.5 25t-83.5 66t-44.5 86t-14.5 91v429q0 10 10 10h2q10 0 10 -10v-430q0 -28 6 -58t23.5 -64.5t43.5 -60.5t70.5 -43.5
t100.5 -17.5z" />
    <glyph glyph-name="V" unicode="V" horiz-adv-x="665" 
d="M34 691q-2 3 0 6t6 3h4q9 0 14 -9l273 -660l276 660q4 9 14 9h4q4 0 6 -3t0 -6l-291 -691q-2 -5 -8 -5t-8 5z" />
    <glyph glyph-name="W" unicode="W" horiz-adv-x="1226" 
d="M1192 691l-284 -691q-5 -9 -14 -9q-10 0 -14 9l-267 671l-266 -671q-5 -9 -14 -9q-10 0 -14 9l-285 691q-2 3 0 6t6 3h2q9 0 14 -9l278 -669l268 677q4 7 10 7q8 0 11 -7l272 -677l275 669q4 9 14 9h2q4 0 6 -3t0 -6z" />
    <glyph glyph-name="X" unicode="X" horiz-adv-x="521" 
d="M476 700h5q3 0 4.5 -3t0.5 -6l-213 -341l213 -342q2 -2 0 -5t-5 -3h-5q-10 0 -15 8l-200 322l-201 -322q-5 -8 -15 -8h-5q-3 0 -5 3t0 5l213 342l-213 341q-1 3 0.5 6t4.5 3h5q11 0 15 -9l201 -321l200 321q5 9 15 9z" />
    <glyph glyph-name="Y" unicode="Y" horiz-adv-x="600" 
d="M288 10v310l-252 372q-2 2 -0.5 5t4.5 3h7q10 0 16 -8l237 -349l237 349q6 8 16 8h7q3 0 4.5 -3t-0.5 -5l-252 -372v-310q0 -10 -10 -10h-4q-10 0 -10 10z" />
    <glyph glyph-name="Z" unicode="Z" horiz-adv-x="614" 
d="M100 20l444 1q10 0 10 -10v-1q0 -10 -10 -10h-464q-10 0 -10 10v2q0 10 6 18l435 649h-427q-10 0 -10 10v1q0 10 10 10h448q10 0 10 -10v-1q0 -11 -6 -18z" />
    <glyph glyph-name="bracketleft" unicode="[" horiz-adv-x="192" 
d="M30 -192v958q0 10 10 10h112q10 0 10 -10v-4q0 -10 -10 -10h-99v-930h99q10 0 10 -10v-4q0 -10 -10 -10h-112q-10 0 -10 10z" />
    <glyph glyph-name="backslash" unicode="\" horiz-adv-x="311" 
d="M255 9l-222 681q-2 10 7 10h4q10 0 13 -10l221 -681q2 -9 -7 -9h-3q-9 0 -13 9z" />
    <glyph glyph-name="bracketright" unicode="]" horiz-adv-x="192" 
d="M162 766v-958q0 -10 -10 -10h-112q-10 0 -10 10v4q0 10 10 10h99v930h-99q-10 0 -10 10v4q0 10 10 10h112q10 0 10 -10z" />
    <glyph glyph-name="asciicircum" unicode="^" horiz-adv-x="628" 
d="M108 415q-8 6 -2 14l203 271q2 2 5 2t5 -2l203 -271q6 -8 -2 -14t-14 2l-192 254l-192 -254q-6 -8 -14 -2z" />
    <glyph glyph-name="underscore" unicode="_" horiz-adv-x="412" 
d="M5 -13q0 10 9 10h383q10 0 10 -10q0 -9 -10 -9h-383q-9 0 -9 9z" />
    <glyph glyph-name="grave" unicode="`" horiz-adv-x="510" 
d="M174 700l124 -82q8 -6 2 -14l-2 -2q-6 -10 -14 -2l-124 82q-8 6 -2 14l2 2q7 9 14 2z" />
    <glyph glyph-name="a" unicode="a" horiz-adv-x="520" 
d="M116 459l-2 4q-4 9 6 13q80 31 139 32q49 1 83.5 -11t53 -30t29 -47.5t13 -53.5t2.5 -59v-297q0 -10 -10 -10h-2q-10 0 -10 10l-1 71q-79 -89 -188 -89q-44 0 -77 13.5t-50 32t-27 42t-12.5 38.5t-2.5 27q0 158 191 158q67 0 166 -19v28q0 103 -38 138t-121 35
q-48 0 -130 -31q-10 -4 -12 5zM417 116v144q-93 21 -165 21q-80 0 -123 -30t-43 -102q0 -61 40.5 -97.5t101.5 -36.5q54 0 108 30t81 71z" />
    <glyph glyph-name="b" unicode="b" horiz-adv-x="594" 
d="M103 690v-242q76 53 181 58q106 4 178 -62t72 -195q0 -116 -67.5 -186t-162.5 -70q-121 0 -202 88l-3 -72q0 -9 -10 -9q-9 0 -9 9v681q0 10 10 10h3q10 0 10 -10zM103 420v-306q36 -49 85.5 -74t102.5 -25q106 0 162.5 69t56.5 165q0 42 -11.5 81t-36 75t-70 57.5
t-106.5 21.5q-98 0 -183 -64z" />
    <glyph glyph-name="c" unicode="c" horiz-adv-x="531" 
d="M464 442l-1 -2q-6 -6 -15 -1q-61 43 -140 48q-85 4 -154 -56.5t-69 -178.5q0 -112 57.5 -174.5t164.5 -62.5q74 0 134 49q8 6 14 -2l3 -3q6 -9 -2 -14q-65 -53 -149 -53q-71 0 -121.5 24t-76.5 65t-37.5 83.5t-11.5 89.5q0 34 7 67t25 67.5t45 61t71.5 43t100.5 16.5
q89 0 154 -53q8 -5 1 -14z" />
    <glyph glyph-name="d" unicode="d" horiz-adv-x="594" 
d="M491 448v242q0 10 10 10h3q10 0 10 -10v-681q0 -9 -9 -9t-9 9l-3 72q-81 -88 -203 -88q-95 0 -162.5 70t-67.5 186q0 129 72 195t178 62q105 -5 181 -58zM491 114v306q-85 64 -183 64q-61 0 -106.5 -21.5t-70 -57.5t-36 -75t-11.5 -81q0 -97 56 -165.5t163 -68.5
q53 0 102.5 25t85.5 74z" />
    <glyph glyph-name="e" unicode="e" horiz-adv-x="533" 
d="M459 62l1 -1q6 -8 -2 -14q-84 -55 -164 -55q-68 0 -119 25t-78 65.5t-39.5 83t-12.5 86.5q0 35 7.5 69t25.5 69t45.5 61.5t71.5 43t99 16.5q93 0 143.5 -55.5t50.5 -151.5q0 -4 -0.5 -13.5t-0.5 -15.5q-2 -10 -11 -10h-408q0 -110 56 -180.5t170 -70.5q71 0 151 50
q7 7 14 -2zM293 490q-196 0 -224 -205h396q6 90 -36 145.5t-136 59.5z" />
    <glyph glyph-name="f" unicode="f" horiz-adv-x="322" 
d="M328 680v-1q-3 -8 -12 -6q-39 14 -76 15q-57 2 -94 -29.5t-37 -98.5v-60h122q10 0 10 -10v-1q0 -10 -10 -10h-122v-469q0 -10 -10 -10h-3q-10 0 -10 10v469h-66q-10 0 -10 10v1q0 10 10 10h66v59q0 74 42.5 111t109.5 37q36 0 84 -15q10 -3 6 -12z" />
    <glyph glyph-name="g" unicode="g" horiz-adv-x="537" 
d="M268 -232q-112 2 -160 39.5t-48 86.5q0 32 30 64t100 39q-57 7 -80.5 35.5t-23.5 57.5q0 34 22.5 63t69.5 34q-43 23 -62 67.5t-19 80.5q0 29 9 57t28 55t55.5 44t84.5 17q70 0 122 -40l69 67q3 3 7 3t7 -3h1q3 -3 3 -7t-3 -7l-69 -70q40 -48 40 -116q0 -29 -9 -58
t-27.5 -56t-53.5 -43.5t-82 -16.5q-17 0 -40.5 4t-39.5 4q-50 0 -70.5 -25.5t-20.5 -50.5q0 -42 44 -64.5t102 -22.5q230 0 230 -114q0 -20 -8 -38.5t-29 -39.5t-67 -33.5t-112 -12.5zM276 183q43 0 74.5 16t47.5 41t23.5 49t7.5 46t-7.5 46t-23.5 48.5t-47.5 40.5t-74.5 16
q-81 0 -118.5 -47t-37.5 -104q0 -22 8 -46t24.5 -49t49 -41t74.5 -16zM274 -210q27 0 55 4t60 13.5t52.5 31.5t20.5 53q0 40 -44 66t-144 26q-109 0 -150.5 -27.5t-41.5 -64.5q0 -14 7.5 -29t26.5 -32t60 -28.5t98 -12.5z" />
    <glyph glyph-name="h" unicode="h" 
d="M93 0h-3q-10 0 -10 10v680q0 10 10 10h3q10 0 10 -10v-268q86 86 195 86q49 0 86 -15t58 -38t33.5 -57.5t16.5 -67t4 -72.5v-248q0 -10 -10 -10h-3q-10 0 -10 10v248q0 129 -47.5 178.5t-133.5 49.5q-46 0 -99.5 -26.5t-89.5 -68.5v-381q0 -10 -10 -10z" />
    <glyph glyph-name="i" unicode="i" horiz-adv-x="201" 
d="M113 490v-480q0 -10 -10 -10h-2q-10 0 -10 10v480q0 10 10 10h2q10 0 10 -10zM80 621q0 8 6.5 14t14.5 6t14 -6t6 -14t-6 -14.5t-14 -6.5t-14.5 6.5t-6.5 14.5z" />
    <glyph glyph-name="j" unicode="j" horiz-adv-x="209" 
d="M-125 -170q5 9 14 4q47 -22 79 -23q131 -5 131 167v512q0 10 10 10h2q10 0 10 -10v-512q0 -98 -41.5 -144.5t-111.5 -42.5q-44 4 -89 26q-9 6 -4 13zM88 621q0 8 6.5 14t14.5 6t14 -6t6 -14t-6 -14.5t-14 -6.5t-14.5 6.5t-6.5 14.5z" />
    <glyph glyph-name="k" unicode="k" horiz-adv-x="485" 
d="M102 690v-425l297 229q7 6 18 6h19q2 0 2 -2v-2l-310 -236l325 -255q2 -2 1 -3q0 -2 -2 -2h-16q-10 0 -18 6l-316 248v-244q0 -10 -10 -10h-2q-10 0 -10 10v680q0 10 10 10h2q10 0 10 -10z" />
    <glyph glyph-name="l" unicode="l" horiz-adv-x="183" 
d="M103 690v-680q0 -10 -10 -10h-3q-10 0 -10 10v680q0 10 10 10h3q10 0 10 -10z" />
    <glyph glyph-name="m" unicode="m" horiz-adv-x="892" 
d="M93 0h-3q-10 0 -10 10v480q0 10 10 10t10 -10l3 -68q86 86 195 86q115 0 155 -93q100 93 203 93q35 0 63.5 -9t46.5 -22t31 -35t19.5 -41.5t10.5 -48t4.5 -47.5t0.5 -47v-248q0 -10 -10 -10h-3q-10 0 -10 10v248q0 126 -35.5 177t-123.5 51q-46 0 -100 -26.5t-89 -67.5
q13 -47 13 -134v-248q0 -10 -10 -10h-3q-10 0 -10 10v248q0 126 -35.5 177t-123.5 51q-46 0 -99.5 -26.5t-89.5 -68.5v-381q0 -10 -10 -10z" />
    <glyph glyph-name="n" unicode="n" 
d="M93 0h-3q-10 0 -10 10v480q0 10 10 10t10 -10l3 -68q86 86 195 86q49 0 86 -15t58 -38t33.5 -57.5t16.5 -67t4 -72.5v-248q0 -10 -10 -10h-3q-10 0 -10 10v248q0 129 -47.5 178.5t-133.5 49.5q-46 0 -99.5 -26.5t-89.5 -68.5v-381q0 -10 -10 -10z" />
    <glyph glyph-name="o" unicode="o" horiz-adv-x="618" 
d="M309 508q68 0 119 -25t78 -65.5t39.5 -82.5t12.5 -85q0 -44 -12.5 -86.5t-39.5 -82.5t-78 -64.5t-119 -24.5t-119 24.5t-78 64.5t-39.5 82.5t-12.5 86.5q0 43 12.5 85t39.5 82.5t78 65.5t119 25zM309 14q56 0 99.5 19t66 45.5t37 61.5t18.5 61t4 49t-4 48.5t-18.5 60.5
t-37 61.5t-66 45.5t-99.5 19t-99.5 -19t-66 -45.5t-37 -61.5t-18.5 -60.5t-4 -48.5t4 -49t18.5 -61t37 -61.5t66 -45.5t99.5 -19z" />
    <glyph glyph-name="p" unicode="p" horiz-adv-x="594" 
d="M103 52v-242q0 -10 -10 -10h-3q-10 0 -10 10v680q0 10 9 10q10 0 10 -10l3 -71q81 88 202 88q95 0 162.5 -70t67.5 -186q0 -129 -72 -195t-178 -62q-105 5 -181 58zM103 386v-306q85 -64 183 -64q61 0 107 21.5t70.5 57.5t36 75t11.5 81q0 95 -56.5 164.5t-163.5 69.5
q-53 0 -102.5 -25t-85.5 -74z" />
    <glyph glyph-name="q" unicode="q" horiz-adv-x="594" 
d="M491 -190v242q-76 -53 -181 -58q-106 -4 -178 62t-72 195q0 116 67.5 186t162.5 70q121 0 202 -88l3 71q0 10 9 10q10 0 10 -10v-680q0 -10 -10 -10h-3q-10 0 -10 10zM491 80v306q-36 49 -85.5 74t-102.5 25q-107 0 -163.5 -69.5t-56.5 -164.5q0 -42 11.5 -81t36 -75
t70.5 -57.5t107 -21.5q98 0 183 64z" />
    <glyph glyph-name="r" unicode="r" horiz-adv-x="337" 
d="M325 497v-2q-2 -11 -12 -9h-21q-46 0 -99.5 -26.5t-89.5 -68.5v-381q0 -10 -10 -10h-3q-10 0 -10 10v480q0 10 10 10t10 -10l3 -68q86 86 195 86h19q10 -2 8 -11z" />
    <glyph glyph-name="s" unicode="s" horiz-adv-x="463" 
d="M82 385q0 -43 33 -68.5t80 -37.5t94.5 -26t80.5 -45t33 -82q0 -57 -49 -95t-123 -38q-83 0 -157 36q-9 4 -5 13l2 2q5 9 14 5q73 -35 143 -35q61 0 106 31t45 84q0 42 -33 68t-80 39.5t-93.5 27.5t-79.5 42t-33 73q0 65 41 97t107 32q74 0 146 -27q8 -2 6 -12q0 -1 -1 -1
l-1 -2q-4 -10 -13 -6q-75 25 -129 25q-58 0 -93 -21t-41 -79z" />
    <glyph glyph-name="t" unicode="t" horiz-adv-x="313" 
d="M106 477h-61q-10 0 -10 10v3q0 10 10 10h61l4 77q0 10 9 10q10 0 10 -10v-77h124q10 0 10 -10v-3q0 -10 -10 -10h-124v-372q0 -54 25.5 -71.5t66.5 -17.5q23 0 53 8q9 4 11 -6q3 -8 -6 -12q-34 -10 -71 -10q-102 0 -102 107v374z" />
    <glyph glyph-name="u" unicode="u" 
d="M463 500h3q10 0 10 -10v-480q0 -10 -10 -10t-10 10l-3 68q-86 -86 -195 -86q-49 0 -86 15t-58 38t-33.5 57.5t-16.5 67t-4 72.5v248q0 10 10 10h3q10 0 10 -10v-248q0 -129 47.5 -178.5t133.5 -49.5q46 0 99.5 26.5t89.5 68.5v381q0 10 10 10z" />
    <glyph glyph-name="v" unicode="v" horiz-adv-x="501" 
d="M456 500h6q4 0 6 -3t0 -6l-207 -489q-3 -7 -11 -7q-6 0 -10 7l-206 489q-2 3 0 6t6 3h6q9 0 14 -9l191 -453l191 453q4 9 14 9z" />
    <glyph glyph-name="w" unicode="w" horiz-adv-x="900" 
d="M853 500h7q4 0 6 -3t0 -6l-206 -489q-4 -7 -11 -7t-10 7l-189 459l-190 -460q-4 -6 -10 -6t-10 6l-206 490q-2 3 0 6t6 3h6q9 0 14 -9l191 -455l187 461q3 8 12 8t12 -8l188 -461l189 455q4 9 14 9z" />
    <glyph glyph-name="x" unicode="x" horiz-adv-x="439" 
d="M403 492l-169 -242l169 -242q2 -2 0.5 -5t-4.5 -3h-8q-10 0 -16 8l-155 222l-156 -222q-6 -8 -16 -8h-8q-3 0 -4.5 3t0.5 5l170 242l-170 242q-2 2 -0.5 5t4.5 3h8q10 0 16 -8l156 -222l155 222q6 8 16 8h8q3 0 4.5 -3t-0.5 -5z" />
    <glyph glyph-name="y" unicode="y" horiz-adv-x="531" 
d="M266 32l204 459q4 9 14 9h7q4 0 6 -3t0 -6l-310 -697q-4 -9 -14 -9h-6q-4 0 -6 3t0 6l92 207l-219 490q-2 3 0 6t6 3h7q10 0 14 -9z" />
    <glyph glyph-name="z" unicode="z" horiz-adv-x="461" 
d="M64 487v3q0 10 10 10h326q9 0 9 -9t-5 -16l-320 -452h320q10 0 10 -10v-3q0 -10 -10 -10h-339q-10 0 -10 10v1q0 11 6 18l315 448h-302q-10 0 -10 10z" />
    <glyph glyph-name="braceleft" unicode="{" horiz-adv-x="277" 
d="M247 767q0 -10 -10 -12q-52 -8 -84.5 -41t-32.5 -112v-207q0 -81 -63 -106q22 -8 36 -25.5t19 -37.5t6.5 -29.5t1.5 -16.5v-204q0 -76 33.5 -112t82.5 -41q10 -2 10 -11v-1q0 -11 -10 -9q-17 2 -35.5 8.5t-44 22.5t-42 50.5t-16.5 82.5v211q0 39 -17.5 65.5t-42.5 35.5
q-8 2 -8 10q0 9 8 11q60 21 60 102v211q0 39 11.5 69t27 47t37 28t35.5 14.5t28 5.5q4 1 7 -2t3 -7z" />
    <glyph glyph-name="bar" unicode="|" horiz-adv-x="142" 
d="M72 -198h-2q-10 0 -10 10v954q0 10 10 10h2q10 0 10 -10v-954q0 -10 -10 -10z" />
    <glyph glyph-name="braceright" unicode="}" horiz-adv-x="277" 
d="M30 767q0 11 10 9q14 -2 28 -5.5t35.5 -14.5t37 -28t27 -47t11.5 -69v-211q0 -81 60 -102q8 -2 8 -11q0 -8 -8 -10q-25 -9 -42.5 -35.5t-17.5 -65.5v-211q0 -48 -16.5 -82.5t-42 -50.5t-44 -22.5t-35.5 -8.5q-10 -2 -10 9v1q0 9 10 11q49 5 82.5 41t33.5 112v204
q0 7 1.5 16.5t6.5 29.5t19 37.5t36 25.5q-63 25 -63 106v207q0 79 -32.5 112t-84.5 41q-10 2 -10 12z" />
    <glyph glyph-name="asciitilde" unicode="~" horiz-adv-x="587" 
d="M67 266q-7 7 -2 13q54 69 130 67q5 0 10.5 -1t9.5 -1.5t9.5 -2.5t8.5 -3t9 -4l8 -4t9 -5t8.5 -5t9.5 -5.5t9 -5.5t15.5 -10t18.5 -11t16.5 -8t19.5 -8t18 -4.5t21 -2.5q68 0 112 60q5 7 12 2q8 -6 3 -13q-49 -70 -128 -70q-21 0 -44.5 9t-33 14.5t-38.5 24.5
q-48 34 -86 34q-65 0 -113 -58q-5 -7 -12 -2z" />
    <glyph glyph-name="exclamdown" unicode="&#xa1;" horiz-adv-x="241" 
d="M133 87v-274q0 -10 -10 -10h-2q-10 0 -10 10v274l3 200q0 8 7 8q8 0 8 -8zM100 485q0 8 6.5 14t14.5 6t14 -6t6 -14t-6 -14.5t-14 -6.5t-14.5 6.5t-6.5 14.5z" />
    <glyph glyph-name="cent" unicode="&#xa2;" horiz-adv-x="531" 
d="M295 -101h-2q-10 0 -10 10v84q-63 4 -109 29.5t-69.5 65t-34 80.5t-10.5 86q0 41 11 80.5t35 78t69.5 64.5t107.5 31v76q0 10 10 10h2q10 0 10 -10v-75h4q89 0 154 -53q8 -5 1 -14l-1 -2q-6 -6 -15 -1q-61 43 -140 48h-3v-472h2q74 0 134 49q8 6 14 -2l3 -3q6 -9 -2 -14
q-65 -53 -149 -53h-2v-83q0 -10 -10 -10zM85 252q0 -106 51 -167.5t147 -68.5v471q-79 -7 -138.5 -66.5t-59.5 -168.5z" />
    <glyph glyph-name="sterling" unicode="&#xa3;" horiz-adv-x="573" 
d="M54 3l-1 1q-3 1 -3.5 5.5t1.5 7.5q47 59 108 66v284h-66q-10 0 -10 10v3q0 10 10 10h66v170q0 74 42.5 111t109.5 37q36 0 84 -15q10 -3 6 -12v-1q-3 -8 -12 -6q-39 14 -76 15q-57 2 -94 -29.5t-37 -98.5v-171h122q10 0 10 -10v-3q0 -10 -10 -10h-122v-283q39 -3 90 -37
q1 -1 15.5 -10t18.5 -11t16.5 -8t19.5 -8t18 -4.5t21 -2.5q65 0 108 61q5 7 14 2l1 -1q9 -5 3 -13q-48 -70 -127 -70q-21 0 -44.5 9t-33 14.5t-38.5 24.5q-47 33 -86 33q-62 0 -110 -57q-6 -9 -14 -3z" />
    <glyph glyph-name="currency" unicode="&#xa4;" horiz-adv-x="601" 
d="M300 456q77 0 125 -46l93 93q3 3 7 3t7 -3l2 -2q3 -3 3 -7t-3 -7l-94 -94q39 -52 39 -123q0 -74 -38 -124l93 -93q3 -3 3 -7t-3 -7l-2 -2q-3 -3 -7 -3t-7 3l-93 92q-47 -45 -125 -45q-77 0 -124 45l-93 -93q-3 -3 -7 -3t-7 3l-2 2q-3 3 -3 7t3 7l94 93q-40 51 -40 125
q0 72 40 123l-94 95q-3 3 -3 7t3 7l2 2q3 3 7 3t7 -3l93 -93q47 45 124 45zM300 106q39 0 68.5 13t45 32t25.5 43t13 42t3 34t-3 34t-13 42t-25.5 43t-45 32t-68.5 13t-68.5 -13t-45 -32t-25.5 -43t-13 -42t-3 -34t3 -34t13 -42t25.5 -43t45 -32t68.5 -13z" />
    <glyph glyph-name="yen" unicode="&#xa5;" horiz-adv-x="600" 
d="M312 320h149q10 0 10 -10v-3q0 -10 -10 -10h-149v-157h149q10 0 10 -10v-3q0 -10 -10 -10h-149v-107q0 -10 -10 -10h-4q-10 0 -10 10v107h-150q-10 0 -10 10v3q0 10 10 10h150v157h-150q-10 0 -10 10v3q0 10 10 10h150l-252 372q-2 2 -0.5 5t4.5 3h7q10 0 16 -8l237 -349
l237 349q6 8 16 8h7q3 0 4.5 -3t-0.5 -5z" />
    <glyph glyph-name="brokenbar" unicode="&#xa6;" horiz-adv-x="142" 
d="M82 172v-361q0 -10 -10 -10h-2q-10 0 -10 10v361q0 10 10 10h2q10 0 10 -10zM82 764v-361q0 -10 -10 -10h-2q-10 0 -10 10v361q0 10 10 10h2q10 0 10 -10z" />
    <glyph glyph-name="section" unicode="&#xa7;" horiz-adv-x="535" 
d="M86 -155l1 2q6 8 14 2q84 -57 156 -57q38 0 73.5 11.5t63.5 43.5t28 80q0 45 -35 82.5t-85 65l-100 55t-85 65t-35 82.5t35 89t71 67q-97 61 -97 135q0 70 45 113t134 41q72 -4 138 -44q9 -5 4 -14l-2 -2q-6 -8 -14 -3q-73 41 -136 41q-67 0 -106.5 -33t-40.5 -95
q1 -47 36.5 -83.5t86 -61t100 -50t84.5 -62.5t35 -85q0 -40 -35 -88.5t-69 -74.5q94 -58 94 -138q0 -71 -54.5 -114.5t-130.5 -43.5q-87 0 -172 60q-4 2 -4 6.5t2 7.5zM102 279q0 -21 10 -41t23.5 -34.5t41 -33t46 -29.5t56.5 -31.5t57 -31.5l13 13l18 18t17.5 19t18.5 23.5
t14.5 23.5t11.5 27t5 27q-2 40 -28.5 71.5t-57.5 48t-77 37.5t-66 34q-36 -21 -69.5 -62t-33.5 -79z" />
    <glyph glyph-name="dieresis" unicode="&#xa8;" horiz-adv-x="581" 
d="M140 621q0 8 6.5 14t14.5 6t14 -6t6 -14t-6 -14.5t-14 -6.5t-14.5 6.5t-6.5 14.5zM400 621q0 8 6.5 14t14.5 6t14 -6t6 -14t-6 -14.5t-14 -6.5t-14.5 6.5t-6.5 14.5z" />
    <glyph glyph-name="copyright" unicode="&#xa9;" horiz-adv-x="586" 
d="M293 702q105 0 179 -74.5t74 -179.5q0 -104 -74 -178.5t-179 -74.5q-100 0 -176.5 74.5t-76.5 181.5q0 99 74 175t179 76zM293 217q97 0 164.5 67t67.5 164q0 96 -68 164.5t-164 68.5q-97 0 -164.5 -68.5t-67.5 -164.5q0 -97 67 -164t165 -67zM174 449q0 -60 36.5 -90.5
t81.5 -30.5q38 0 82 29q8 4 12 -3q6 -7 -2 -13q-40 -33 -92 -33q-72 0 -106.5 45t-34.5 95q0 30 12 59.5t45.5 54.5t83.5 25q52 0 92 -33q7 -6 0 -13q-5 -7 -14 -2q-39 27 -78 28q-43 3 -80.5 -28.5t-37.5 -89.5z" />
    <glyph glyph-name="ordfeminine" unicode="&#xaa;" horiz-adv-x="384" 
d="M87 666l-1 1q-5 7 4 13q59 31 111 31q72 0 97.5 -41t25.5 -113v-219q0 -9 -9 -9q-8 0 -10 9l-2 43q-44 -57 -116 -57q-38 0 -65.5 11.5t-39.5 30t-17 33.5t-5 29q0 57 36.5 84.5t93.5 27.5q52 0 111 -22v43q0 131 -98 131q-46 0 -102 -29q-8 -5 -14 3zM301 413v83
q-51 22 -105 22q-112 0 -112 -88q0 -44 30.5 -63.5t70.5 -19.5q39 0 70.5 20t45.5 46z" />
    <glyph glyph-name="guillemotleft" unicode="&#xab;" horiz-adv-x="425" 
d="M227 415l-164 -165l164 -164q7 -7 0 -14l-3 -2q-7 -7 -14 0l-173 173q-7 7 0 14l173 174q7 7 14 0l3 -2q7 -7 0 -14zM388 415l-164 -165l164 -164q7 -7 0 -14l-3 -2q-7 -7 -14 0l-173 173q-7 7 0 14l173 174q7 7 14 0l3 -2q7 -7 0 -14z" />
    <glyph glyph-name="logicalnot" unicode="&#xac;" horiz-adv-x="627" 
d="M547 410v-200q0 -10 -10 -10h-3q-10 0 -10 10v187h-434q-10 0 -10 10v3q0 10 10 10h447q10 0 10 -10z" />
    <glyph glyph-name="uni00AD" unicode="&#xad;" horiz-adv-x="402" 
d="M70 222h262q10 0 10 -10v-3q0 -10 -10 -10h-262q-10 0 -10 10v3q0 10 10 10z" />
    <glyph glyph-name="registered" unicode="&#xae;" horiz-adv-x="586" 
d="M293 702q105 0 179 -74.5t74 -179.5q0 -104 -74 -178.5t-179 -74.5q-100 0 -176.5 74.5t-76.5 181.5q0 99 74 175t179 76zM293 217q97 0 164.5 67t67.5 164q0 96 -68 164.5t-164 68.5q-97 0 -164.5 -68.5t-67.5 -164.5q0 -97 67 -164t165 -67zM225 419v-93q0 -9 -10 -9
q-9 0 -9 9v250q0 10 10 10h92q51 0 73 -26.5t22 -60.5q0 -26 -18.5 -50.5t-59.5 -27.5l58 -95q1 -3 -0.5 -6t-4.5 -3q-10 0 -15 8l-57 94h-81zM225 437h84q35 0 55 17t20 46q0 31 -19.5 49.5t-54.5 18.5h-85v-131z" />
    <glyph glyph-name="macron" unicode="&#xaf;" horiz-adv-x="521" 
d="M120 622h281q10 0 10 -10v-2q0 -10 -10 -10h-281q-10 0 -10 10v2q0 10 10 10z" />
    <glyph glyph-name="degree" unicode="&#xb0;" horiz-adv-x="330" 
d="M165 440q-56 0 -95.5 39.5t-39.5 95.5t39.5 95.5t95.5 39.5t95.5 -39.5t39.5 -95.5t-39.5 -95.5t-95.5 -39.5zM165 462q46 0 79 33t33 80q0 46 -33 79t-79 33q-47 0 -80 -33t-33 -79q0 -47 33 -80t80 -33z" />
    <glyph glyph-name="plusminus" unicode="&#xb1;" horiz-adv-x="553" 
d="M90 81h373q10 0 10 -10v-2q0 -10 -10 -10h-373q-10 0 -10 10v2q0 10 10 10zM265 339v175q0 10 10 10h2q10 0 10 -10v-175h176q10 0 10 -10v-2q0 -10 -10 -10h-176v-135q0 -10 -10 -10h-2q-10 0 -10 10v135h-175q-10 0 -10 10v2q0 10 10 10h175z" />
    <glyph glyph-name="twosuperior" unicode="&#xb2;" horiz-adv-x="244" 
d="M28 751l-1 1q-7 7 0 14q44 37 92 37q43 0 69 -23t26 -67q0 -45 -67 -120l-82 -95h132q10 0 10 -10v-3q0 -10 -10 -10h-168q-5 0 -5 5q0 6 4 10l126 149q34 41 34 75q0 10 -2.5 19.5t-9 21.5t-21 19t-35.5 7q-40 0 -78 -31q-7 -6 -14 1z" />
    <glyph glyph-name="threesuperior" unicode="&#xb3;" horiz-adv-x="240" 
d="M210 716q0 -22 -12.5 -43.5t-35.5 -33.5q22 -9 35 -31t13 -46q0 -34 -23 -62t-79 -28q-36 0 -80 28q-7 5 -2 14l2 1q2 4 6.5 4t7.5 -2q34 -23 68 -23q32 0 54 18t22 50q0 33 -22.5 50t-55.5 17h-32q-10 0 -10 10v1q0 10 10 10h32q32 0 54.5 17t22.5 49q0 33 -22 50
t-55 17q-31 0 -67 -22q-9 -4 -14 3l-1 2q-2 3 -2 7.5t4 6.5q35 24 80 25q56 2 79 -27t23 -62z" />
    <glyph glyph-name="acute" unicode="&#xb4;" horiz-adv-x="510" 
d="M181 618l124 82q7 7 14 -2l2 -2q6 -8 -2 -14l-124 -82q-8 -8 -14 2l-2 2q-6 8 2 14z" />
    <glyph glyph-name="mu" unicode="&#xb5;" horiz-adv-x="576" 
d="M80 -189v679q0 10 10 10h3q10 0 10 -10v-248q0 -129 47.5 -178.5t133.5 -49.5q46 0 99.5 26.5t89.5 68.5v381q0 10 10 10h3q10 0 10 -10v-480q0 -10 -10 -10t-10 10l-3 68q-86 -86 -195 -86q-133 0 -176 106v-287q0 -10 -10 -10h-2q-10 0 -10 10z" />
    <glyph glyph-name="mu" unicode="&#x3bc;" horiz-adv-x="576" 
d="M80 -189v679q0 10 10 10h3q10 0 10 -10v-248q0 -129 47.5 -178.5t133.5 -49.5q46 0 99.5 26.5t89.5 68.5v381q0 10 10 10h3q10 0 10 -10v-480q0 -10 -10 -10t-10 10l-3 68q-86 -86 -195 -86q-133 0 -176 106v-287q0 -10 -10 -10h-2q-10 0 -10 10z" />
    <glyph glyph-name="paragraph" unicode="&#xb6;" horiz-adv-x="659" 
d="M199 311v-3q-5 -9 -14 -6q-64 19 -104.5 72t-40.5 122q0 85 60 144.5t144 59.5h325q10 0 10 -10v-3q0 -10 -10 -10h-65v-866q0 -10 -10 -10h-5q-10 0 -10 10v866h-167v-866q0 -10 -10 -10h-3q-10 0 -10 10v866h-45q-76 0 -128.5 -52.5t-52.5 -128.5q0 -61 36.5 -108.5
t93.5 -64.5q9 -4 6 -12z" />
    <glyph glyph-name="periodcentered" unicode="&#xb7;" horiz-adv-x="161" 
d="M60 299q0 8 6.5 14.5t14.5 6.5t14 -6.5t6 -14.5t-6 -14t-14 -6t-14.5 6t-6.5 14z" />
    <glyph glyph-name="cedilla" unicode="&#xb8;" horiz-adv-x="514" 
d="M220 -62q-2 4 -2 6v64q0 10 10 10h2q10 0 10 -10v-52h12q43 0 68 -21.5t25 -56.5q0 -40 -27.5 -63t-67.5 -23t-75 18q-8 6 -4 13q5 9 14 5q34 -16 65 -16t52 17t21 47q0 60 -82 60h-15q-2 0 -6 2z" />
    <glyph glyph-name="onesuperior" unicode="&#xb9;" horiz-adv-x="188" 
d="M26 721q-2 3 -2 7.5t4 6.5l82 66q4 4 11 4t7 -7v-313q0 -10 -10 -10h-4q-10 0 -10 10v278l-64 -44q-8 -8 -14 2z" />
    <glyph glyph-name="ordmasculine" unicode="&#xba;" horiz-adv-x="378" 
d="M189 706q54 0 89 -26.5t47.5 -59.5t12.5 -69q0 -27 -7.5 -52t-23.5 -49.5t-46.5 -39t-71.5 -14.5t-71.5 15t-46.5 39.5t-23.5 49.5t-7.5 51q0 36 12.5 69t47.5 59.5t89 26.5zM189 416q38 0 65.5 14.5t40 37.5t17.5 43t5 40t-5 40.5t-17.5 43.5t-40 37.5t-65.5 14.5
q-31 0 -55 -10.5t-37 -25.5t-21.5 -35t-11 -35.5t-2.5 -29.5t2.5 -29.5t11 -35t21.5 -34.5t37 -25.5t55 -10.5zM69 299h239q10 0 10 -10v-3q0 -10 -10 -10h-239q-10 0 -10 10v3q0 10 10 10z" />
    <glyph glyph-name="guillemotright" unicode="&#xbb;" horiz-adv-x="425" 
d="M362 250l-164 165q-7 7 0 14l3 2q7 7 14 0l173 -174q7 -7 0 -14l-173 -173q-7 -7 -14 0l-3 2q-7 7 0 14zM201 250l-164 165q-7 7 0 14l3 2q7 7 14 0l173 -174q7 -7 0 -14l-173 -173q-7 -7 -14 0l-3 2q-7 7 0 14z" />
    <glyph glyph-name="onequarter" unicode="&#xbc;" horiz-adv-x="464" 
d="M26 618q-5 9 1 14l82 66q6 4 12 4q7 0 7 -7v-313q0 -10 -10 -10h-4q-10 0 -10 10v280l-64 -45q-8 -7 -14 1zM387 692l-340 -683q-3 -9 -14 -9h-3q-4 0 -6 3t0 6l340 683q5 9 15 9h3q4 0 5.5 -3t-0.5 -6zM378 52v-42q0 -10 -10 -10h-3q-10 0 -10 10v42h-149q-5 0 -5 5
q0 6 3 11l150 252q5 8 14 8q10 0 10 -10v-244h38q10 0 10 -10v-2q0 -10 -10 -10h-38zM355 278l-120 -204h120v204z" />
    <glyph glyph-name="onehalf" unicode="&#xbd;" horiz-adv-x="514" 
d="M387 692l-340 -683q-3 -9 -14 -9h-3q-4 0 -6 3t0 6l340 683q5 9 15 9h3q4 0 5.5 -3t-0.5 -6zM265 276l-1 1q-7 7 0 14q44 37 92 37q43 0 69 -23t26 -67q0 -45 -67 -120l-82 -95h132q10 0 10 -10v-3q0 -10 -10 -10h-163q-7 0 -7 7t5 14l122 143q34 41 34 75
q0 10 -2.5 19.5t-9 21.5t-21 19t-35.5 7q-40 0 -78 -31q-7 -6 -14 1zM25 618q-5 9 2 14l84 66q4 4 11 4q6 0 6 -6v-314q0 -10 -10 -10h-4q-10 0 -10 10v280l-65 -46q-8 -4 -14 2z" />
    <glyph glyph-name="threequarters" unicode="&#xbe;" horiz-adv-x="562" 
d="M455 692l-340 -683q-3 -9 -14 -9h-3q-4 0 -6 3t0 6l340 683q5 9 15 9h3q4 0 5.5 -3t-0.5 -6zM446 52v-42q0 -10 -10 -10h-3q-10 0 -10 10v42h-149q-5 0 -5 5q0 6 3 11l150 252q5 8 14 8q10 0 10 -10v-244h38q10 0 10 -10v-2q0 -10 -10 -10h-38zM423 278l-120 -204h120
v204zM217 618q0 -51 -48 -77q22 -9 35 -31t13 -46q0 -34 -23 -62t-79 -28q-36 0 -80 28q-7 5 -2 14l2 1q2 4 6.5 4t7.5 -2q35 -23 68 -23q32 0 54 18t22 50q0 33 -22.5 50t-55.5 17h-32q-10 0 -10 10v1q0 10 10 10h32q32 0 54.5 17t22.5 49q0 33 -22 50t-55 17
q-31 0 -67 -22q-9 -4 -14 3l-1 2q-2 3 -2 7.5t4 6.5q35 24 80 25q56 2 79 -27t23 -62z" />
    <glyph glyph-name="questiondown" unicode="&#xbf;" horiz-adv-x="530" 
d="M310 484q0 -8 -6.5 -14.5t-14.5 -6.5t-14 6.5t-6 14.5t6 14t14 6t14.5 -6t6.5 -14zM278 261v20q0 10 10 10h1q10 0 10 -10v-17q0 -26 -12.5 -54t-25.5 -45t-40 -48t-37 -44q-52 -67 -52 -122q0 -23 6.5 -44.5t21.5 -43t45 -34.5t70 -13q52 0 89 15t74 53q7 7 14 0
q8 -5 2 -14q-68 -75 -177 -75q-74 0 -120.5 40.5t-46.5 114.5q0 69 74 156q3 4 18 21.5t19.5 22.5t16 20t15.5 23t11 20.5t10 24t4 23.5z" />
    <glyph glyph-name="Agrave" unicode="&#xc0;" horiz-adv-x="665" 
d="M34 9l290 690q3 6 9 6q7 0 9 -6l289 -690q2 -3 0 -6t-6 -3h-2q-10 0 -14 9l-84 202h-384l-85 -202q-5 -9 -14 -9h-2q-4 0 -6 3t0 6zM334 672l-185 -442h368zM277 900l124 -82q8 -6 2 -14l-2 -2q-6 -10 -14 -2l-124 82q-8 6 -2 14l2 2q7 9 14 2z" />
    <glyph glyph-name="Aacute" unicode="&#xc1;" horiz-adv-x="665" 
d="M34 9l290 690q3 6 9 6q7 0 9 -6l289 -690q2 -3 0 -6t-6 -3h-2q-10 0 -14 9l-84 202h-384l-85 -202q-5 -9 -14 -9h-2q-4 0 -6 3t0 6zM334 672l-185 -442h368zM263 818l124 82q7 7 14 -2l2 -2q6 -8 -2 -14l-124 -82q-8 -8 -14 2l-2 2q-6 8 2 14z" />
    <glyph glyph-name="Acircumflex" unicode="&#xc2;" horiz-adv-x="665" 
d="M34 9l290 690q3 6 9 6q7 0 9 -6l289 -690q2 -3 0 -6t-6 -3h-2q-10 0 -14 9l-84 202h-384l-85 -202q-5 -9 -14 -9h-2q-4 0 -6 3t0 6zM334 672l-185 -442h368zM332 878l-118 -79q-8 -8 -14 2l-2 2q-6 8 2 14l124 82q8 6 16 0l124 -82q8 -6 2 -14l-2 -2q-6 -10 -14 -2z" />
    <glyph glyph-name="Atilde" unicode="&#xc3;" horiz-adv-x="665" 
d="M34 9l290 690q3 6 9 6q7 0 9 -6l289 -690q2 -3 0 -6t-6 -3h-2q-10 0 -14 9l-84 202h-384l-85 -202q-5 -9 -14 -9h-2q-4 0 -6 3t0 6zM334 672l-185 -442h368zM462 854l2 -1q9 -6 2 -13q-31 -46 -77 -44q-33 1 -62 25q-30 22 -53 22q-35 0 -57 -36q-5 -9 -14 -5h-1
q-9 4 -5 13q28 50 78 50q28 0 59 -23q35 -25 57 -25q32 0 57 35q7 7 14 2z" />
    <glyph glyph-name="Adieresis" unicode="&#xc4;" horiz-adv-x="665" 
d="M182 821q0 8 6.5 14t14.5 6t14 -6t6 -14t-6 -14.5t-14 -6.5t-14.5 6.5t-6.5 14.5zM442 821q0 8 6.5 14t14.5 6t14 -6t6 -14t-6 -14.5t-14 -6.5t-14.5 6.5t-6.5 14.5zM34 9l290 690q3 6 9 6q7 0 9 -6l289 -690q2 -3 0 -6t-6 -3h-2q-10 0 -14 9l-84 202h-384l-85 -202
q-5 -9 -14 -9h-2q-4 0 -6 3t0 6zM334 672l-185 -442h368z" />
    <glyph glyph-name="Aring" unicode="&#xc5;" horiz-adv-x="665" 
d="M247 875q0 36 25 61t61 25q35 0 60 -25t25 -61q0 -35 -25 -60t-60 -25q-36 0 -61 25t-25 60zM270 875q0 -25 18.5 -43.5t44.5 -18.5q25 0 43.5 18.5t18.5 43.5q0 26 -18.5 44.5t-43.5 18.5q-26 0 -44.5 -18.5t-18.5 -44.5zM34 9l290 690q3 6 9 6q7 0 9 -6l289 -690
q2 -3 0 -6t-6 -3h-2q-10 0 -14 9l-84 202h-384l-85 -202q-5 -9 -14 -9h-2q-4 0 -6 3t0 6zM334 672l-185 -442h368z" />
    <glyph glyph-name="AE" unicode="&#xc6;" horiz-adv-x="837" 
d="M684 335h-328v-314h411q10 0 10 -10v-1q0 -10 -10 -10h-424q-10 0 -10 10v201h-192l-85 -202q-5 -9 -14 -9h-2q-4 0 -6 3t0 6l290 682q4 9 14 9h429q10 0 10 -10v-1q0 -10 -10 -10h-411v-322h328q10 0 10 -10v-2q0 -10 -10 -10zM149 230h184v435z" />
    <glyph glyph-name="Ccedilla" unicode="&#xc7;" horiz-adv-x="707" 
d="M388 -62q-2 4 -2 6v51q-72 2 -130 27t-94 61.5t-59.5 84.5t-33 93.5t-9.5 90.5q0 46 10 92.5t35 95t62.5 86t98 61t136.5 23.5q148 0 238 -88q7 -7 0 -14t-14 0q-82 82 -224 82q-79 0 -140 -27t-94 -65.5t-53.5 -88.5t-26.5 -87t-6 -70t6 -70t26.5 -87t53.5 -88.5
t94 -65.5t140 -27q142 0 224 82q7 7 14 0t0 -14q-84 -84 -232 -88v-38h12q43 0 68 -21.5t25 -56.5q0 -40 -27.5 -63t-67.5 -23t-75 18q-8 6 -4 13q5 9 14 5q34 -16 65 -16t52 17t21 47q0 60 -82 60h-15q-2 0 -6 2z" />
    <glyph glyph-name="Egrave" unicode="&#xc8;" horiz-adv-x="604" 
d="M451 335h-328v-314h411q10 0 10 -10v-1q0 -10 -10 -10h-424q-10 0 -10 10v680q0 10 10 10h424q10 0 10 -10v-1q0 -10 -10 -10h-411v-322h328q10 0 10 -10v-2q0 -10 -10 -10zM247 900l124 -82q8 -6 2 -14l-2 -2q-6 -10 -14 -2l-124 82q-8 6 -2 14l2 2q7 9 14 2z" />
    <glyph glyph-name="Eacute" unicode="&#xc9;" horiz-adv-x="604" 
d="M451 335h-328v-314h411q10 0 10 -10v-1q0 -10 -10 -10h-424q-10 0 -10 10v680q0 10 10 10h424q10 0 10 -10v-1q0 -10 -10 -10h-411v-322h328q10 0 10 -10v-2q0 -10 -10 -10zM233 818l124 82q7 7 14 -2l2 -2q6 -8 -2 -14l-124 -82q-8 -8 -14 2l-2 2q-6 8 2 14z" />
    <glyph glyph-name="Ecircumflex" unicode="&#xca;" horiz-adv-x="604" 
d="M451 335h-328v-314h411q10 0 10 -10v-1q0 -10 -10 -10h-424q-10 0 -10 10v680q0 10 10 10h424q10 0 10 -10v-1q0 -10 -10 -10h-411v-322h328q10 0 10 -10v-2q0 -10 -10 -10zM302 878l-118 -79q-8 -8 -14 2l-2 2q-6 8 2 14l124 82q8 6 16 0l124 -82q8 -6 2 -14l-2 -2
q-6 -10 -14 -2z" />
    <glyph glyph-name="Edieresis" unicode="&#xcb;" horiz-adv-x="604" 
d="M151 821q0 8 6.5 14t14.5 6t14 -6t6 -14t-6 -14.5t-14 -6.5t-14.5 6.5t-6.5 14.5zM411 821q0 8 6.5 14t14.5 6t14 -6t6 -14t-6 -14.5t-14 -6.5t-14.5 6.5t-6.5 14.5zM451 335h-328v-314h411q10 0 10 -10v-1q0 -10 -10 -10h-424q-10 0 -10 10v680q0 10 10 10h424
q10 0 10 -10v-1q0 -10 -10 -10h-411v-322h328q10 0 10 -10v-2q0 -10 -10 -10z" />
    <glyph glyph-name="Igrave" unicode="&#xcc;" horiz-adv-x="194" 
d="M108 690v-678q0 -10 -10 -10h-3q-10 0 -10 10v678q0 10 10 10h3q10 0 10 -10zM42 900l124 -82q8 -6 2 -14l-2 -2q-6 -10 -14 -2l-124 82q-8 6 -2 14l2 2q7 9 14 2z" />
    <glyph glyph-name="Iacute" unicode="&#xcd;" horiz-adv-x="194" 
d="M108 690v-678q0 -10 -10 -10h-3q-10 0 -10 10v678q0 10 10 10h3q10 0 10 -10zM28 818l124 82q7 7 14 -2l2 -2q6 -8 -2 -14l-124 -82q-8 -8 -14 2l-2 2q-6 8 2 14z" />
    <glyph glyph-name="Icircumflex" unicode="&#xce;" horiz-adv-x="280" 
d="M151 690v-678q0 -10 -10 -10h-3q-10 0 -10 10v678q0 10 10 10h3q10 0 10 -10zM140 878l-118 -79q-8 -8 -14 2l-2 2q-6 8 2 14l124 82q8 6 16 0l124 -82q8 -6 2 -14l-2 -2q-6 -10 -14 -2z" />
    <glyph glyph-name="Idieresis" unicode="&#xcf;" horiz-adv-x="301" 
d="M0 821q0 8 6.5 14t14.5 6t14 -6t6 -14t-6 -14.5t-14 -6.5t-14.5 6.5t-6.5 14.5zM260 821q0 8 6.5 14t14.5 6t14 -6t6 -14t-6 -14.5t-14 -6.5t-14.5 6.5t-6.5 14.5zM162 690v-678q0 -10 -10 -10h-3q-10 0 -10 10v678q0 10 10 10h3q10 0 10 -10z" />
    <glyph glyph-name="Eth" unicode="&#xd0;" horiz-adv-x="730" 
d="M40 368h58v322q0 10 10 10h225q76 0 137 -24t97.5 -61t60.5 -85t33 -92t9 -87t-9 -87.5t-33 -93t-60.5 -85.5t-97.5 -61t-137 -24h-225q-10 0 -10 10v336h-58q-10 0 -10 10v2q0 10 10 10zM121 21h207q76 0 135.5 24.5t93 60.5t55 83.5t28.5 86t7 75.5q0 35 -7 73
t-28.5 85t-55 83.5t-93 61.5t-135.5 25h-207v-311h171q10 0 10 -10v-2q0 -10 -10 -10h-171v-325z" />
    <glyph glyph-name="Ntilde" unicode="&#xd1;" horiz-adv-x="758" 
d="M113 0h-3q-10 0 -10 10v686q0 9 8 9q9 0 14 -7l513 -654v646q0 10 10 10h3q10 0 10 -10v-688q0 -7 -8 -7t-12 6l-515 657v-648q0 -10 -10 -10zM508 854l2 -1q9 -6 2 -13q-31 -46 -77 -44q-33 1 -62 25q-30 22 -53 22q-35 0 -57 -36q-5 -9 -14 -5h-1q-9 4 -5 13
q28 50 78 50q28 0 59 -23q35 -25 57 -25q32 0 57 35q7 7 14 2z" />
    <glyph glyph-name="Ograve" unicode="&#xd2;" horiz-adv-x="804" 
d="M402 709q76 0 136.5 -23.5t98 -60.5t62.5 -85.5t35 -95t10 -92.5q0 -48 -10 -95t-35 -96t-62.5 -85.5t-98 -59.5t-136.5 -23t-136.5 23t-98 59.5t-62.5 85t-35 96t-10 95.5q0 46 10 92.5t35 95t62.5 85.5t98 60.5t136.5 23.5zM402 689q-79 0 -140 -27t-94 -65.5
t-53.5 -88.5t-26.5 -86.5t-6 -69.5t6 -70t26.5 -87t53.5 -89t94 -66.5t140 -27.5t140 27.5t94 66.5t53.5 89t26.5 87t6 70t-6 69.5t-26.5 86.5t-53.5 88.5t-94 65.5t-140 27zM347 900l124 -82q8 -6 2 -14l-2 -2q-6 -10 -14 -2l-124 82q-8 6 -2 14l2 2q7 9 14 2z" />
    <glyph glyph-name="Oacute" unicode="&#xd3;" horiz-adv-x="804" 
d="M402 709q76 0 136.5 -23.5t98 -60.5t62.5 -85.5t35 -95t10 -92.5q0 -48 -10 -95t-35 -96t-62.5 -85.5t-98 -59.5t-136.5 -23t-136.5 23t-98 59.5t-62.5 85t-35 96t-10 95.5q0 46 10 92.5t35 95t62.5 85.5t98 60.5t136.5 23.5zM402 689q-79 0 -140 -27t-94 -65.5
t-53.5 -88.5t-26.5 -86.5t-6 -69.5t6 -70t26.5 -87t53.5 -89t94 -66.5t140 -27.5t140 27.5t94 66.5t53.5 89t26.5 87t6 70t-6 69.5t-26.5 86.5t-53.5 88.5t-94 65.5t-140 27zM333 818l124 82q7 7 14 -2l2 -2q6 -8 -2 -14l-124 -82q-8 -8 -14 2l-2 2q-6 8 2 14z" />
    <glyph glyph-name="Ocircumflex" unicode="&#xd4;" horiz-adv-x="804" 
d="M402 709q76 0 136.5 -23.5t98 -60.5t62.5 -85.5t35 -95t10 -92.5q0 -48 -10 -95t-35 -96t-62.5 -85.5t-98 -59.5t-136.5 -23t-136.5 23t-98 59.5t-62.5 85t-35 96t-10 95.5q0 46 10 92.5t35 95t62.5 85.5t98 60.5t136.5 23.5zM402 689q-79 0 -140 -27t-94 -65.5
t-53.5 -88.5t-26.5 -86.5t-6 -69.5t6 -70t26.5 -87t53.5 -89t94 -66.5t140 -27.5t140 27.5t94 66.5t53.5 89t26.5 87t6 70t-6 69.5t-26.5 86.5t-53.5 88.5t-94 65.5t-140 27zM402 878l-118 -79q-8 -8 -14 2l-2 2q-6 8 2 14l124 82q8 6 16 0l124 -82q8 -6 2 -14l-2 -2
q-6 -10 -14 -2z" />
    <glyph glyph-name="Otilde" unicode="&#xd5;" horiz-adv-x="804" 
d="M402 709q76 0 136.5 -23.5t98 -60.5t62.5 -85.5t35 -95t10 -92.5q0 -48 -10 -95t-35 -96t-62.5 -85.5t-98 -59.5t-136.5 -23t-136.5 23t-98 59.5t-62.5 85t-35 96t-10 95.5q0 46 10 92.5t35 95t62.5 85.5t98 60.5t136.5 23.5zM402 689q-79 0 -140 -27t-94 -65.5
t-53.5 -88.5t-26.5 -86.5t-6 -69.5t6 -70t26.5 -87t53.5 -89t94 -66.5t140 -27.5t140 27.5t94 66.5t53.5 89t26.5 87t6 70t-6 69.5t-26.5 86.5t-53.5 88.5t-94 65.5t-140 27zM531 854l2 -1q9 -6 2 -13q-31 -46 -77 -44q-33 1 -62 25q-30 22 -53 22q-35 0 -57 -36
q-5 -9 -14 -5h-1q-9 4 -5 13q28 50 78 50q28 0 59 -23q35 -25 57 -25q32 0 57 35q7 7 14 2z" />
    <glyph glyph-name="Odieresis" unicode="&#xd6;" horiz-adv-x="804" 
d="M402 709q76 0 136.5 -23.5t98 -60.5t62.5 -85.5t35 -95t10 -92.5q0 -48 -10 -95t-35 -96t-62.5 -85.5t-98 -59.5t-136.5 -23t-136.5 23t-98 59.5t-62.5 85t-35 96t-10 95.5q0 46 10 92.5t35 95t62.5 85.5t98 60.5t136.5 23.5zM402 689q-79 0 -140 -27t-94 -65.5
t-53.5 -88.5t-26.5 -86.5t-6 -69.5t6 -70t26.5 -87t53.5 -89t94 -66.5t140 -27.5t140 27.5t94 66.5t53.5 89t26.5 87t6 70t-6 69.5t-26.5 86.5t-53.5 88.5t-94 65.5t-140 27zM251 821q0 8 6.5 14t14.5 6t14 -6t6 -14t-6 -14.5t-14 -6.5t-14.5 6.5t-6.5 14.5zM511 821
q0 8 6.5 14t14.5 6t14 -6t6 -14t-6 -14.5t-14 -6.5t-14.5 6.5t-6.5 14.5z" />
    <glyph glyph-name="multiply" unicode="&#xd7;" horiz-adv-x="494" 
d="M231 198l-124 124q-7 7 0 14l2 2q7 7 14 0l124 -124l124 125q7 7 14 0l2 -2q7 -7 0 -14l-125 -125l125 -124q7 -7 0 -14l-2 -2q-7 -7 -14 0l-124 125l-124 -124q-7 -7 -14 0l-2 2q-7 7 0 14z" />
    <glyph glyph-name="Oslash" unicode="&#xd8;" horiz-adv-x="804" 
d="M402 709q141 0 228 -79l57 67q3 3 7 3t6 -2h1q4 -3 4 -8q0 -3 -2 -7l-57 -68q50 -52 74 -123t24 -140q0 -48 -10 -95t-35 -96t-62.5 -85.5t-98 -59.5t-136.5 -23q-136 0 -219 69l-49 -58q-3 -4 -7 -4t-7 3h-1q-3 3 -3 8t2 7l49 58q-56 52 -81.5 126t-25.5 150
q0 46 10 92.5t35 95t62.5 85.5t98 60.5t136.5 23.5zM392 689q-77 -2 -136 -29.5t-90.5 -66t-51.5 -87.5t-26 -85.5t-6 -68.5q0 -60 22 -132.5t77 -127.5l436 523q-84 74 -225 74zM722 352q0 56 -20 125t-70 122l-435 -521q80 -66 205 -66q79 0 140 27.5t94 66.5t53.5 89
t26.5 87t6 70z" />
    <glyph glyph-name="Ugrave" unicode="&#xd9;" horiz-adv-x="715" 
d="M356 16q57 0 102 17t71 43t42.5 60t22.5 64t6 60v430q0 10 10 10h5q10 0 10 -10v-429q0 -46 -14.5 -91t-44.5 -86t-84.5 -66t-125.5 -25q-70 0 -123.5 25t-83.5 66t-44.5 86t-14.5 91v429q0 10 10 10h2q10 0 10 -10v-430q0 -28 6 -58t23.5 -64.5t43.5 -60.5t70.5 -43.5
t100.5 -17.5zM302 900l124 -82q4 -4 4 -8t-2 -6l-2 -2q-3 -5 -8 -5q-3 0 -6 3l-124 82q-4 3 -4 8q0 2 2 6l2 2q4 4 8 4q2 0 6 -2z" />
    <glyph glyph-name="Uacute" unicode="&#xda;" horiz-adv-x="715" 
d="M356 16q57 0 102 17t71 43t42.5 60t22.5 64t6 60v430q0 10 10 10h5q10 0 10 -10v-429q0 -46 -14.5 -91t-44.5 -86t-84.5 -66t-125.5 -25q-70 0 -123.5 25t-83.5 66t-44.5 86t-14.5 91v429q0 10 10 10h2q10 0 10 -10v-430q0 -28 6 -58t23.5 -64.5t43.5 -60.5t70.5 -43.5
t100.5 -17.5zM288 818l124 82q2 2 5 2q5 0 9 -4l2 -2q2 -4 2 -6q0 -4 -4 -8l-124 -82q-3 -3 -6 -3q-5 0 -8 5l-2 2q-2 2 -2 6q0 5 4 8z" />
    <glyph glyph-name="Ucircumflex" unicode="&#xdb;" horiz-adv-x="715" 
d="M356 16q57 0 102 17t71 43t42.5 60t22.5 64t6 60v430q0 10 10 10h5q10 0 10 -10v-429q0 -46 -14.5 -91t-44.5 -86t-84.5 -66t-125.5 -25q-70 0 -123.5 25t-83.5 66t-44.5 86t-14.5 91v429q0 10 10 10h2q10 0 10 -10v-430q0 -28 6 -58t23.5 -64.5t43.5 -60.5t70.5 -43.5
t100.5 -17.5zM357 878l-118 -79q-3 -3 -6 -3q-5 0 -8 5l-2 2q-2 2 -2 6q0 5 4 8l124 82q3 3 8 3q3 0 8 -3l124 -82q4 -4 4 -8t-2 -6l-2 -2q-3 -5 -8 -5q-3 0 -6 3z" />
    <glyph glyph-name="Udieresis" unicode="&#xdc;" horiz-adv-x="715" 
d="M207 821q0 8 6.5 14t14.5 6t14 -6t6 -14t-6 -14.5t-14 -6.5t-14.5 6.5t-6.5 14.5zM467 821q0 8 6.5 14t14.5 6t14 -6t6 -14t-6 -14.5t-14 -6.5t-14.5 6.5t-6.5 14.5zM356 16q57 0 102 17t71 43t42.5 60t22.5 64t6 60v430q0 10 10 10h5q10 0 10 -10v-429q0 -46 -14.5 -91
t-44.5 -86t-84.5 -66t-125.5 -25q-70 0 -123.5 25t-83.5 66t-44.5 86t-14.5 91v429q0 10 10 10h2q10 0 10 -10v-430q0 -28 6 -58t23.5 -64.5t43.5 -60.5t70.5 -43.5t100.5 -17.5z" />
    <glyph glyph-name="Yacute" unicode="&#xdd;" horiz-adv-x="600" 
d="M288 10v310l-252 372q-2 2 -0.5 5t4.5 3h7q10 0 16 -8l237 -349l237 349q6 8 16 8h7q3 0 4.5 -3t-0.5 -5l-252 -372v-310q0 -10 -10 -10h-4q-10 0 -10 10zM231 818l124 82q7 7 14 -2l2 -2q6 -8 -2 -14l-124 -82q-8 -8 -14 2l-2 2q-6 8 2 14z" />
    <glyph glyph-name="Thorn" unicode="&#xde;" horiz-adv-x="615" 
d="M303 98h-180v-88q0 -10 -10 -10h-3q-10 0 -10 10v680q0 10 10 10h3q10 0 10 -10v-87h180q104 0 178 -74t74 -179t-74 -178.5t-178 -73.5zM123 580v-459h180q95 0 162 66.5t67 162.5t-67 163t-162 67h-180z" />
    <glyph glyph-name="germandbls" unicode="&#xdf;" horiz-adv-x="617" 
d="M517 164q-6 -184 -250 -188q-10 0 -10 10t10 10q30 1 57.5 4.5t60 14.5t56 28t39 47.5t15.5 70.5q0 53 -63 112q-17 17 -24 24.5t-14 22.5t-6 29q1 9 5 19t12.5 22.5t13.5 19t17 21t14 16.5q32 45 32 87q0 13 -3 29t-14.5 39.5t-30 42t-53 31.5t-79.5 13q-20 0 -40.5 -3
t-46.5 -14t-45.5 -28.5t-33 -50t-13.5 -75.5v-578q0 -10 -10 -10h-3q-10 0 -10 10v576q0 54 20.5 93.5t45.5 58t58 29t47.5 12t24.5 1.5q48 0 86.5 -13t60.5 -32t36 -44t19 -46.5t5 -41.5q0 -57 -55 -120q-34 -41 -37 -63q-1 -7 1 -13.5t3.5 -11t7.5 -12t8.5 -10t12 -11
t11.5 -10.5q58 -55 62 -118z" />
    <glyph glyph-name="agrave" unicode="&#xe0;" horiz-adv-x="520" 
d="M116 459l-2 4q-4 9 6 13q80 31 139 32q49 1 83.5 -11t53 -30t29 -47.5t13 -53.5t2.5 -59v-297q0 -10 -10 -10h-2q-10 0 -10 10l-1 71q-79 -89 -188 -89q-44 0 -77 13.5t-50 32t-27 42t-12.5 38.5t-2.5 27q0 158 191 158q67 0 166 -19v28q0 103 -38 138t-121 35
q-48 0 -130 -31q-10 -4 -12 5zM417 116v144q-93 21 -165 21q-80 0 -123 -30t-43 -102q0 -61 40.5 -97.5t101.5 -36.5q54 0 108 30t81 71zM205 700l124 -82q8 -6 2 -14l-2 -2q-6 -10 -14 -2l-124 82q-8 6 -2 14l2 2q7 9 14 2z" />
    <glyph glyph-name="aacute" unicode="&#xe1;" horiz-adv-x="520" 
d="M116 459l-2 4q-4 9 6 13q80 31 139 32q49 1 83.5 -11t53 -30t29 -47.5t13 -53.5t2.5 -59v-297q0 -10 -10 -10h-2q-10 0 -10 10l-1 71q-79 -89 -188 -89q-44 0 -77 13.5t-50 32t-27 42t-12.5 38.5t-2.5 27q0 158 191 158q67 0 166 -19v28q0 103 -38 138t-121 35
q-48 0 -130 -31q-10 -4 -12 5zM417 116v144q-93 21 -165 21q-80 0 -123 -30t-43 -102q0 -61 40.5 -97.5t101.5 -36.5q54 0 108 30t81 71zM191 618l124 82q7 7 14 -2l2 -2q6 -8 -2 -14l-124 -82q-8 -8 -14 2l-2 2q-6 8 2 14z" />
    <glyph glyph-name="acircumflex" unicode="&#xe2;" horiz-adv-x="520" 
d="M116 459l-2 4q-4 9 6 13q80 31 139 32q49 1 83.5 -11t53 -30t29 -47.5t13 -53.5t2.5 -59v-297q0 -10 -10 -10h-2q-10 0 -10 10l-1 71q-79 -89 -188 -89q-44 0 -77 13.5t-50 32t-27 42t-12.5 38.5t-2.5 27q0 158 191 158q67 0 166 -19v28q0 103 -38 138t-121 35
q-48 0 -130 -31q-10 -4 -12 5zM417 116v144q-93 21 -165 21q-80 0 -123 -30t-43 -102q0 -61 40.5 -97.5t101.5 -36.5q54 0 108 30t81 71zM260 678l-118 -79q-8 -8 -14 2l-2 2q-6 8 2 14l124 82q8 6 16 0l124 -82q8 -6 2 -14l-2 -2q-6 -10 -14 -2z" />
    <glyph glyph-name="atilde" unicode="&#xe3;" horiz-adv-x="520" 
d="M116 459l-2 4q-4 9 6 13q80 31 139 32q49 1 83.5 -11t53 -30t29 -47.5t13 -53.5t2.5 -59v-297q0 -10 -10 -10h-2q-10 0 -10 10l-1 71q-79 -89 -188 -89q-44 0 -77 13.5t-50 32t-27 42t-12.5 38.5t-2.5 27q0 158 191 158q67 0 166 -19v28q0 103 -38 138t-121 35
q-48 0 -130 -31q-10 -4 -12 5zM417 116v144q-93 21 -165 21q-80 0 -123 -30t-43 -102q0 -61 40.5 -97.5t101.5 -36.5q54 0 108 30t81 71zM389 654l2 -1q9 -6 2 -13q-31 -46 -77 -44q-33 1 -62 25q-30 22 -53 22q-35 0 -57 -36q-5 -9 -14 -5h-1q-9 4 -5 13q28 50 78 50
q28 0 59 -23q35 -25 57 -25q32 0 57 35q7 7 14 2z" />
    <glyph glyph-name="adieresis" unicode="&#xe4;" horiz-adv-x="520" 
d="M110 621q0 8 6.5 14t14.5 6t14 -6t6 -14t-6 -14.5t-14 -6.5t-14.5 6.5t-6.5 14.5zM370 621q0 8 6.5 14t14.5 6t14 -6t6 -14t-6 -14.5t-14 -6.5t-14.5 6.5t-6.5 14.5zM116 459l-2 4q-4 9 6 13q80 31 139 32q49 1 83.5 -11t53 -30t29 -47.5t13 -53.5t2.5 -59v-297
q0 -10 -10 -10h-2q-10 0 -10 10l-1 71q-79 -89 -188 -89q-44 0 -77 13.5t-50 32t-27 42t-12.5 38.5t-2.5 27q0 158 191 158q67 0 166 -19v28q0 103 -38 138t-121 35q-48 0 -130 -31q-10 -4 -12 5zM417 116v144q-93 21 -165 21q-80 0 -123 -30t-43 -102q0 -61 40.5 -97.5
t101.5 -36.5q54 0 108 30t81 71z" />
    <glyph glyph-name="aring" unicode="&#xe5;" horiz-adv-x="520" 
d="M175 675q0 36 25 61t61 25q35 0 60 -25t25 -61q0 -35 -25 -60t-60 -25q-36 0 -61 25t-25 60zM198 675q0 -25 18.5 -43.5t44.5 -18.5q25 0 43.5 18.5t18.5 43.5q0 26 -18.5 44.5t-43.5 18.5q-26 0 -44.5 -18.5t-18.5 -44.5zM116 459l-2 4q-4 9 6 13q80 31 139 32
q49 1 83.5 -11t53 -30t29 -47.5t13 -53.5t2.5 -59v-297q0 -10 -10 -10h-2q-10 0 -10 10l-1 71q-79 -89 -188 -89q-44 0 -77 13.5t-50 32t-27 42t-12.5 38.5t-2.5 27q0 158 191 158q67 0 166 -19v28q0 103 -38 138t-121 35q-48 0 -130 -31q-10 -4 -12 5zM417 116v144
q-93 21 -165 21q-80 0 -123 -30t-43 -102q0 -61 40.5 -97.5t101.5 -36.5q54 0 108 30t81 71z" />
    <glyph glyph-name="ae" unicode="&#xe6;" horiz-adv-x="874" 
d="M800 62l1 -1q6 -8 -2 -14q-84 -55 -164 -55q-142 0 -206 104q-37 -55 -96.5 -79.5t-103.5 -24.5t-77 13.5t-50 32t-27 42t-12.5 38.5t-2.5 27q0 158 191 158q65 0 137 -14q7 50 24 87q-11 64 -48 86.5t-106 22.5q-48 0 -130 -31q-10 -4 -12 5l-2 4q-4 9 6 13
q80 31 139 32q143 0 170 -101q64 104 206 104q93 0 143.5 -55.5t50.5 -151.5q0 -4 -0.5 -13.5t-0.5 -15.5q-2 -10 -11 -10h-408q0 -110 56 -180.5t170 -70.5q71 0 151 50q7 7 14 -2zM386 252v14q-73 15 -134 15q-80 0 -123 -30t-43 -102q0 -61 40.5 -97.5t101.5 -36.5
q54 0 108 30t81 71v1q-31 59 -31 135zM634 490q-196 0 -224 -205h396q6 90 -36 145.5t-136 59.5z" />
    <glyph glyph-name="ccedilla" unicode="&#xe7;" horiz-adv-x="531" 
d="M293 -62q-2 4 -2 6v49q-66 3 -113.5 28t-72 64.5t-35 81t-10.5 87.5q0 34 7 67t25 67.5t45 61t71.5 43t100.5 16.5q89 0 154 -53q8 -5 1 -14l-1 -2q-6 -6 -15 -1q-61 43 -140 48q-85 4 -154 -56.5t-69 -178.5q0 -112 57.5 -174.5t164.5 -62.5q74 0 134 49q8 6 14 -2l3 -3
q6 -9 -2 -14q-63 -49 -143 -53v-36h12q43 0 68 -21.5t25 -56.5q0 -40 -27.5 -63t-67.5 -23q-41 0 -75 18q-7 4 -4 13q6 8 13 4q34 -15 66 -15q31 0 52 17t21 47q0 60 -82 60h-15q-2 0 -6 2z" />
    <glyph glyph-name="egrave" unicode="&#xe8;" horiz-adv-x="533" 
d="M459 62l1 -1q2 -4 2 -6q0 -4 -4 -8q-84 -55 -164 -55q-68 0 -119 25t-78 65.5t-39.5 83t-12.5 86.5q0 35 7.5 69t25.5 69t45.5 61.5t71.5 43t99 16.5q93 0 143.5 -55.5t50.5 -151.5q0 -39 -12 -39h-408q0 -110 56 -180.5t170 -70.5q71 0 151 50q2 2 5 2q5 0 9 -4z
M283 490q-186 -5 -214 -205h396q0 4 0.5 12t0.5 12q0 82 -45.5 131.5t-137.5 49.5zM204 700l124 -82q4 -4 4 -8t-2 -6l-2 -2q-3 -5 -8 -5q-3 0 -6 3l-124 82q-4 3 -4 8q0 2 2 6l2 2q4 4 8 4q2 0 6 -2z" />
    <glyph glyph-name="eacute" unicode="&#xe9;" horiz-adv-x="533" 
d="M459 62l1 -1q2 -4 2 -6q0 -4 -4 -8q-84 -55 -164 -55q-68 0 -119 25t-78 65.5t-39.5 83t-12.5 86.5q0 35 7.5 69t25.5 69t45.5 61.5t71.5 43t99 16.5q93 0 143.5 -55.5t50.5 -151.5q0 -39 -12 -39h-408q0 -110 56 -180.5t170 -70.5q71 0 151 50q2 2 5 2q5 0 9 -4z
M283 490q-186 -5 -214 -205h396q0 4 0.5 12t0.5 12q0 82 -45.5 131.5t-137.5 49.5zM190 618l124 82q2 2 5 2q5 0 9 -4l2 -2q2 -4 2 -6q0 -4 -4 -8l-124 -82q-3 -3 -6 -3q-5 0 -8 5l-2 2q-2 2 -2 6q0 5 4 8z" />
    <glyph glyph-name="ecircumflex" unicode="&#xea;" horiz-adv-x="548" 
d="M474 62l1 -1q2 -4 2 -6q0 -4 -4 -8q-84 -55 -164 -55q-68 0 -119 25t-78 65.5t-39.5 83t-12.5 86.5q0 35 7.5 69t25.5 69t45.5 61.5t71.5 43t99 16.5q93 0 143.5 -55.5t50.5 -151.5q0 -39 -12 -39h-408q0 -110 56 -180.5t170 -70.5q71 0 151 50q2 2 5 2q5 0 9 -4z
M298 490q-186 -5 -214 -205h396q0 4 0.5 12t0.5 12q0 82 -45.5 131.5t-137.5 49.5zM300 678l-118 -79q-3 -3 -6 -3q-5 0 -8 5l-2 2q-2 2 -2 6q0 5 4 8l124 82q3 3 8 3q4 0 8 -3l124 -82q4 -4 4 -8t-2 -6l-2 -2q-3 -5 -8 -5q-3 0 -6 3z" />
    <glyph glyph-name="edieresis" unicode="&#xeb;" horiz-adv-x="548" 
d="M145 621q0 8 6.5 14t14.5 6t14 -6t6 -14t-6 -14.5t-14 -6.5t-14.5 6.5t-6.5 14.5zM405 621q0 8 6.5 14t14.5 6t14 -6t6 -14t-6 -14.5t-14 -6.5t-14.5 6.5t-6.5 14.5zM474 62l1 -1q6 -8 -2 -14q-84 -55 -164 -55q-68 0 -119 25t-78 65.5t-39.5 83t-12.5 86.5q0 35 7.5 69
t25.5 69t45.5 61.5t71.5 43t99 16.5q93 0 143.5 -55.5t50.5 -151.5q0 -4 -0.5 -13.5t-0.5 -15.5q-2 -10 -11 -10h-408q0 -110 56 -180.5t170 -70.5q71 0 151 50q7 7 14 -2zM308 490q-196 0 -224 -205h396q6 90 -36 145.5t-136 59.5z" />
    <glyph glyph-name="igrave" unicode="&#xec;" horiz-adv-x="194" 
d="M108 490v-480q0 -10 -10 -10h-2q-10 0 -10 10v480q0 10 10 10h2q10 0 10 -10zM42 700l124 -82q8 -6 2 -14l-2 -2q-6 -10 -14 -2l-124 82q-8 6 -2 14l2 2q7 9 14 2z" />
    <glyph glyph-name="iacute" unicode="&#xed;" horiz-adv-x="194" 
d="M108 490v-480q0 -10 -10 -10h-2q-10 0 -10 10v480q0 10 10 10h2q10 0 10 -10zM28 618l124 82q7 7 14 -2l2 -2q6 -8 -2 -14l-124 -82q-8 -8 -14 2l-2 2q-6 8 2 14z" />
    <glyph glyph-name="icircumflex" unicode="&#xee;" horiz-adv-x="280" 
d="M151 490v-480q0 -10 -10 -10h-2q-10 0 -10 10v480q0 10 10 10h2q10 0 10 -10zM140 678l-118 -79q-8 -8 -14 2l-2 2q-6 8 2 14l124 82q8 6 16 0l124 -82q8 -6 2 -14l-2 -2q-6 -10 -14 -2z" />
    <glyph glyph-name="idieresis" unicode="&#xef;" horiz-adv-x="301" 
d="M0 621q0 8 6.5 14t14.5 6t14 -6t6 -14t-6 -14.5t-14 -6.5t-14.5 6.5t-6.5 14.5zM260 621q0 8 6.5 14t14.5 6t14 -6t6 -14t-6 -14.5t-14 -6.5t-14.5 6.5t-6.5 14.5zM161 490v-480q0 -10 -10 -10h-2q-10 0 -10 10v480q0 10 10 10h2q10 0 10 -10z" />
    <glyph glyph-name="eth" unicode="&#xf0;" horiz-adv-x="576" 
d="M339 622l77 77q7 7 14 0l1 -1q7 -7 0 -14l-76 -76q161 -155 161 -371q0 -39 -11 -77.5t-35 -77.5t-71 -63.5t-110 -24.5q-52 0 -94 17t-66.5 42t-40.5 56t-22 56.5t-6 45.5q0 26 5.5 53t21.5 58t40.5 54.5t66.5 39.5t95 16q16 0 35 -3t51.5 -12t63 -33.5t49.5 -60.5
q-26 158 -147 271l-89 -88q-7 -7 -14 0l-1 1q-7 7 0 14l88 87q-41 33 -82 60q-8 6 -3 13q6 8 13 3q59 -38 86 -62zM289 13q93 0 147.5 62t54.5 143q0 82 -54 137.5t-148 55.5q-98 0 -152 -56.5t-54 -144.5q0 -81 55.5 -139t150.5 -58z" />
    <glyph glyph-name="ntilde" unicode="&#xf1;" 
d="M93 0h-3q-10 0 -10 10v480q0 10 10 10t10 -10l3 -68q86 86 195 86q49 0 86 -15t58 -38t33.5 -57.5t16.5 -67t4 -72.5v-248q0 -10 -10 -10h-3q-10 0 -10 10v248q0 129 -47.5 178.5t-133.5 49.5q-46 0 -99.5 -26.5t-89.5 -68.5v-381q0 -10 -10 -10zM407 654l2 -1
q9 -6 2 -13q-31 -46 -77 -44q-33 1 -62 25q-30 22 -53 22q-35 0 -57 -36q-5 -9 -14 -5h-1q-9 4 -5 13q28 50 78 50q28 0 59 -23q35 -25 57 -25q32 0 57 35q7 7 14 2z" />
    <glyph glyph-name="ograve" unicode="&#xf2;" horiz-adv-x="618" 
d="M309 508q68 0 119 -25t78 -65.5t39.5 -82.5t12.5 -85q0 -44 -12.5 -86.5t-39.5 -82.5t-78 -64.5t-119 -24.5t-119 24.5t-78 64.5t-39.5 82.5t-12.5 86.5q0 43 12.5 85t39.5 82.5t78 65.5t119 25zM309 14q56 0 99.5 19t66 45.5t37 61.5t18.5 61t4 49t-4 48.5t-18.5 60.5
t-37 61.5t-66 45.5t-99.5 19t-99.5 -19t-66 -45.5t-37 -61.5t-18.5 -60.5t-4 -48.5t4 -49t18.5 -61t37 -61.5t66 -45.5t99.5 -19zM254 700l124 -82q8 -6 2 -14l-2 -2q-6 -10 -14 -2l-124 82q-8 6 -2 14l2 2q7 9 14 2z" />
    <glyph glyph-name="oacute" unicode="&#xf3;" horiz-adv-x="618" 
d="M309 508q68 0 119 -25t78 -65.5t39.5 -82.5t12.5 -85q0 -44 -12.5 -86.5t-39.5 -82.5t-78 -64.5t-119 -24.5t-119 24.5t-78 64.5t-39.5 82.5t-12.5 86.5q0 43 12.5 85t39.5 82.5t78 65.5t119 25zM309 14q56 0 99.5 19t66 45.5t37 61.5t18.5 61t4 49t-4 48.5t-18.5 60.5
t-37 61.5t-66 45.5t-99.5 19t-99.5 -19t-66 -45.5t-37 -61.5t-18.5 -60.5t-4 -48.5t4 -49t18.5 -61t37 -61.5t66 -45.5t99.5 -19zM240 618l124 82q7 7 14 -2l2 -2q6 -8 -2 -14l-124 -82q-8 -8 -14 2l-2 2q-6 8 2 14z" />
    <glyph glyph-name="ocircumflex" unicode="&#xf4;" horiz-adv-x="618" 
d="M309 508q68 0 119 -25t78 -65.5t39.5 -82.5t12.5 -85q0 -44 -12.5 -86.5t-39.5 -82.5t-78 -64.5t-119 -24.5t-119 24.5t-78 64.5t-39.5 82.5t-12.5 86.5q0 43 12.5 85t39.5 82.5t78 65.5t119 25zM309 14q56 0 99.5 19t66 45.5t37 61.5t18.5 61t4 49t-4 48.5t-18.5 60.5
t-37 61.5t-66 45.5t-99.5 19t-99.5 -19t-66 -45.5t-37 -61.5t-18.5 -60.5t-4 -48.5t4 -49t18.5 -61t37 -61.5t66 -45.5t99.5 -19zM309 678l-118 -79q-8 -8 -14 2l-2 2q-6 8 2 14l124 82q8 6 16 0l124 -82q8 -6 2 -14l-2 -2q-6 -10 -14 -2z" />
    <glyph glyph-name="otilde" unicode="&#xf5;" horiz-adv-x="618" 
d="M309 508q68 0 119 -25t78 -65.5t39.5 -82.5t12.5 -85q0 -44 -12.5 -86.5t-39.5 -82.5t-78 -64.5t-119 -24.5t-119 24.5t-78 64.5t-39.5 82.5t-12.5 86.5q0 43 12.5 85t39.5 82.5t78 65.5t119 25zM309 14q56 0 99.5 19t66 45.5t37 61.5t18.5 61t4 49t-4 48.5t-18.5 60.5
t-37 61.5t-66 45.5t-99.5 19t-99.5 -19t-66 -45.5t-37 -61.5t-18.5 -60.5t-4 -48.5t4 -49t18.5 -61t37 -61.5t66 -45.5t99.5 -19zM438 654l2 -1q9 -6 2 -13q-31 -46 -77 -44q-33 1 -62 25q-30 22 -53 22q-35 0 -57 -36q-5 -9 -14 -5h-1q-9 4 -5 13q28 50 78 50q28 0 59 -23
q35 -25 57 -25q32 0 57 35q7 7 14 2z" />
    <glyph glyph-name="odieresis" unicode="&#xf6;" horiz-adv-x="618" 
d="M309 508q68 0 119 -25t78 -65.5t39.5 -82.5t12.5 -85q0 -44 -12.5 -86.5t-39.5 -82.5t-78 -64.5t-119 -24.5t-119 24.5t-78 64.5t-39.5 82.5t-12.5 86.5q0 43 12.5 85t39.5 82.5t78 65.5t119 25zM309 14q56 0 99.5 19t66 45.5t37 61.5t18.5 61t4 49t-4 48.5t-18.5 60.5
t-37 61.5t-66 45.5t-99.5 19t-99.5 -19t-66 -45.5t-37 -61.5t-18.5 -60.5t-4 -48.5t4 -49t18.5 -61t37 -61.5t66 -45.5t99.5 -19zM162 621q0 8 6.5 14t14.5 6t14 -6t6 -14t-6 -14.5t-14 -6.5t-14.5 6.5t-6.5 14.5zM422 621q0 8 6.5 14t14.5 6t14 -6t6 -14t-6 -14.5t-14 -6.5
t-14.5 6.5t-6.5 14.5z" />
    <glyph glyph-name="divide" unicode="&#xf7;" horiz-adv-x="461" 
d="M209 33q0 8 6.5 14.5t14.5 6.5t14 -6.5t6 -14.5t-6 -14t-14 -6t-14.5 6t-6.5 14zM209 361q0 8 6.5 14.5t14.5 6.5t14 -6.5t6 -14.5t-6 -14t-14 -6t-14.5 6t-6.5 14zM70 208h321q10 0 10 -10v-2q0 -10 -10 -10h-321q-10 0 -10 10v2q0 10 10 10z" />
    <glyph glyph-name="oslash" unicode="&#xf8;" horiz-adv-x="618" 
d="M506 507l1 -2q7 -5 2 -14l-34 -40q43 -37 63 -91.5t20 -109.5q0 -44 -12.5 -86.5t-39.5 -82.5t-78 -64.5t-119 -24.5q-104 0 -169 58l-33 -38q-2 -4 -6.5 -4t-7.5 2l-1 1q-7 5 -2 14l34 40q-64 72 -64 185q0 43 12.5 85t39.5 82.5t78 65.5t119 25q90 0 149 -43l34 40
q5 8 14 2zM309 11q57 0 100 19.5t66.5 46.5t38 62.5t18.5 61.5t4 49q0 42 -17 95t-57 90l-309 -368q59 -56 156 -56zM83 250q0 -102 56 -167l306 366q-55 40 -136 40q-56 0 -99.5 -19.5t-66.5 -46.5t-37.5 -62.5t-18.5 -61.5t-4 -49z" />
    <glyph glyph-name="ugrave" unicode="&#xf9;" 
d="M463 500h3q10 0 10 -10v-480q0 -10 -10 -10t-10 10l-3 68q-86 -86 -195 -86q-49 0 -86 15t-58 38t-33.5 57.5t-16.5 67t-4 72.5v248q0 10 10 10h3q10 0 10 -10v-248q0 -129 47.5 -178.5t133.5 -49.5q46 0 99.5 26.5t89.5 68.5v381q0 10 10 10zM223 700l124 -82
q8 -6 2 -14l-2 -2q-6 -10 -14 -2l-124 82q-8 6 -2 14l2 2q7 9 14 2z" />
    <glyph glyph-name="uacute" unicode="&#xfa;" 
d="M463 500h3q10 0 10 -10v-480q0 -10 -10 -10t-10 10l-3 68q-86 -86 -195 -86q-49 0 -86 15t-58 38t-33.5 57.5t-16.5 67t-4 72.5v248q0 10 10 10h3q10 0 10 -10v-248q0 -129 47.5 -178.5t133.5 -49.5q46 0 99.5 26.5t89.5 68.5v381q0 10 10 10zM209 618l124 82q7 7 14 -2
l2 -2q6 -8 -2 -14l-124 -82q-8 -8 -14 2l-2 2q-6 8 2 14z" />
    <glyph glyph-name="ucircumflex" unicode="&#xfb;" 
d="M463 500h3q10 0 10 -10v-480q0 -10 -10 -10t-10 10l-3 68q-86 -86 -195 -86q-49 0 -86 15t-58 38t-33.5 57.5t-16.5 67t-4 72.5v248q0 10 10 10h3q10 0 10 -10v-248q0 -129 47.5 -178.5t133.5 -49.5q46 0 99.5 26.5t89.5 68.5v381q0 10 10 10zM278 678l-118 -79
q-8 -8 -14 2l-2 2q-6 8 2 14l124 82q8 6 16 0l124 -82q8 -6 2 -14l-2 -2q-6 -10 -14 -2z" />
    <glyph glyph-name="udieresis" unicode="&#xfc;" 
d="M128 621q0 8 6.5 14t14.5 6t14 -6t6 -14t-6 -14.5t-14 -6.5t-14.5 6.5t-6.5 14.5zM388 621q0 8 6.5 14t14.5 6t14 -6t6 -14t-6 -14.5t-14 -6.5t-14.5 6.5t-6.5 14.5zM463 500h3q10 0 10 -10v-480q0 -10 -10 -10t-10 10l-3 68q-86 -86 -195 -86q-49 0 -86 15t-58 38
t-33.5 57.5t-16.5 67t-4 72.5v248q0 10 10 10h3q10 0 10 -10v-248q0 -129 47.5 -178.5t133.5 -49.5q46 0 99.5 26.5t89.5 68.5v381q0 10 10 10z" />
    <glyph glyph-name="yacute" unicode="&#xfd;" horiz-adv-x="531" 
d="M266 32l204 459q4 9 14 9h7q4 0 6 -3t0 -6l-310 -697q-4 -9 -14 -9h-6q-4 0 -6 3t0 6l92 207l-219 490q-2 3 0 6t6 3h7q10 0 14 -9zM196 618l124 82q7 7 14 -2l2 -2q6 -8 -2 -14l-124 -82q-8 -8 -14 2l-2 2q-6 8 2 14z" />
    <glyph glyph-name="thorn" unicode="&#xfe;" horiz-adv-x="595" 
d="M104 50v-242q0 -10 -10 -10h-4q-10 0 -10 10v882q0 10 10 10h4q10 0 10 -10v-242q87 58 192 58q102 0 170.5 -66t68.5 -191t-68.5 -191t-170.5 -66q-105 0 -192 58zM104 420v-342q85 -64 183 -64q61 0 106.5 21.5t70 57.5t36 75t11.5 81t-11.5 81t-36 75t-70 57.5
t-106.5 21.5q-98 0 -183 -64z" />
    <glyph glyph-name="ydieresis" unicode="&#xff;" horiz-adv-x="531" 
d="M123 621q0 8 6.5 14t14.5 6t14 -6t6 -14t-6 -14.5t-14 -6.5t-14.5 6.5t-6.5 14.5zM383 621q0 8 6.5 14t14.5 6t14 -6t6 -14t-6 -14.5t-14 -6.5t-14.5 6.5t-6.5 14.5zM266 32l204 459q4 9 14 9h7q4 0 6 -3t0 -6l-310 -697q-4 -9 -14 -9h-6q-4 0 -6 3t0 6l92 207l-219 490
q-2 3 0 6t6 3h7q10 0 14 -9z" />
    <glyph glyph-name="Amacron" unicode="&#x100;" horiz-adv-x="665" 
d="M34 9l289 686q3 7 10 7t10 -7l288 -686q2 -3 0 -6t-6 -3h-2q-10 0 -14 9l-84 202h-384l-85 -202q-5 -9 -14 -9h-2q-4 0 -6 3t0 6zM334 672l-185 -442h368zM192 822h281q10 0 10 -10v-2q0 -10 -10 -10h-281q-10 0 -10 10v2q0 10 10 10z" />
    <glyph glyph-name="amacron" unicode="&#x101;" horiz-adv-x="520" 
d="M116 459l-2 4q-4 9 6 13q80 31 139 32q49 1 83.5 -11t53 -30t29 -47.5t13 -53.5t2.5 -59v-297q0 -10 -10 -10h-2q-10 0 -10 10l-1 71q-79 -89 -188 -89q-44 0 -77 13.5t-50 32t-27 42t-12.5 38.5t-2.5 27q0 158 191 158q67 0 166 -19v28q0 103 -38 138t-121 35
q-48 0 -130 -31q-10 -4 -12 5zM417 116v144q-93 21 -165 21q-80 0 -123 -30t-43 -102q0 -61 40.5 -97.5t101.5 -36.5q54 0 108 30t81 71zM120 622h281q10 0 10 -10v-2q0 -10 -10 -10h-281q-10 0 -10 10v2q0 10 10 10z" />
    <glyph glyph-name="Abreve" unicode="&#x102;" horiz-adv-x="665" 
d="M34 9l290 690q3 6 9 6q7 0 9 -6l289 -690q2 -3 0 -6t-6 -3h-2q-10 0 -14 9l-84 202h-384l-85 -202q-5 -9 -14 -9h-2q-4 0 -6 3t0 6zM334 672l-185 -442h368zM446 893h1q9 -2 5 -12q-39 -84 -120 -84q-84 0 -120 84q-4 9 6 12q9 3 14 -6q32 -71 100 -71t101 72q4 9 13 5z
" />
    <glyph glyph-name="abreve" unicode="&#x103;" horiz-adv-x="520" 
d="M116 459l-2 4q-4 9 6 13q80 31 139 32q49 1 83.5 -11t53 -30t29 -47.5t13 -53.5t2.5 -59v-297q0 -10 -10 -10h-2q-10 0 -10 10l-1 71q-79 -89 -188 -89q-44 0 -77 13.5t-50 32t-27 42t-12.5 38.5t-2.5 27q0 158 191 158q67 0 166 -19v28q0 103 -38 138t-121 35
q-48 0 -130 -31q-10 -4 -12 5zM417 116v144q-93 21 -165 21q-80 0 -123 -30t-43 -102q0 -61 40.5 -97.5t101.5 -36.5q54 0 108 30t81 71zM374 693h1q9 -2 5 -12q-39 -84 -120 -84q-84 0 -120 84q-4 9 6 12q9 3 14 -6q32 -71 100 -71t101 72q4 9 13 5z" />
    <glyph glyph-name="Aogonek" unicode="&#x104;" horiz-adv-x="666" 
d="M736 -193q1 -2 1 -5q0 -11 -24 -17t-42 -6q-49 0 -80.5 25.5t-31.5 74.5q0 29 27 68t27 48v5l-88 211h-384l-85 -202q-5 -9 -14 -9h-2q-7 0 -7 6q0 2 1 3l288 687q4 7 11 7t11 -7l286 -687q4 -10 4 -15q0 -14 -26 -53t-26 -60q0 -40 24.5 -60.5t60.5 -20.5q30 0 55 12h2
l2 1q7 0 10 -6zM334 672l-185 -442h368z" />
    <glyph glyph-name="aogonek" unicode="&#x105;" horiz-adv-x="519" 
d="M544 -193q1 -2 1 -5q0 -11 -24 -17t-42 -6q-49 0 -80.5 25.5t-31.5 74.5q0 29 25.5 68t25.5 48l-1 86q-79 -89 -188 -89q-44 0 -77 13.5t-50 32t-27 42t-12.5 38.5t-2.5 27q0 158 191 158q67 0 166 -19v28q0 103 -38 138t-121 35q-48 0 -130 -31q-1 -1 -4 -1q-6 0 -8 6
l-2 4q-1 1 -1 3q0 14 56.5 28t89.5 14q60 0 99 -16.5t55.5 -49t21.5 -61.5t5 -74v-313q0 -14 -25 -53t-25 -60q0 -40 24.5 -60.5t60.5 -20.5q30 0 55 12h2l2 1q7 0 10 -6zM417 116v144q-93 21 -165 21q-80 0 -123 -30t-43 -102q0 -61 40.5 -97.5t101.5 -36.5q54 0 108 30
t81 71z" />
    <glyph glyph-name="Cacute" unicode="&#x106;" horiz-adv-x="707" 
d="M82 352q0 -33 6 -70t26.5 -87t53.5 -88.5t94 -65.5t140 -27q142 0 224 82q3 3 7 3q10 0 10 -10q0 -4 -3 -7q-90 -88 -238 -88q-76 0 -136.5 23.5t-98 61t-62.5 86t-35 95t-10 92.5t10 92.5t35 95t62.5 86t98 61t136.5 23.5q148 0 238 -88q3 -3 3 -7q0 -10 -10 -10
q-4 0 -7 3q-82 82 -224 82q-79 0 -140 -27t-94 -65.5t-53.5 -88.5t-26.5 -87t-6 -70zM315 818l124 82q2 2 5 2q5 0 9 -4l2 -2q2 -4 2 -6q0 -4 -4 -8l-124 -82q-3 -3 -6 -3q-5 0 -8 5l-2 2q-2 2 -2 6q0 5 4 8z" />
    <glyph glyph-name="cacute" unicode="&#x107;" horiz-adv-x="531" 
d="M464 442l-1 -2q-6 -6 -15 -1q-61 43 -140 48q-85 4 -154 -56.5t-69 -178.5q0 -112 57.5 -174.5t164.5 -62.5q74 0 134 49q8 6 14 -2l3 -3q6 -9 -2 -14q-65 -53 -149 -53q-71 0 -121.5 24t-76.5 65t-37.5 83.5t-11.5 89.5q0 34 7 67t25 67.5t45 61t71.5 43t100.5 16.5
q89 0 154 -53q8 -5 1 -14zM219 618l124 82q7 7 14 -2l2 -2q6 -8 -2 -14l-124 -82q-8 -8 -14 2l-2 2q-6 8 2 14z" />
    <glyph glyph-name="Ccircumflex" unicode="&#x108;" horiz-adv-x="707" 
d="M82 352q0 -33 6 -70t26.5 -87t53.5 -88.5t94 -65.5t140 -27q142 0 224 82q3 3 7 3q10 0 10 -10q0 -4 -3 -7q-90 -88 -238 -88q-76 0 -136.5 23.5t-98 61t-62.5 86t-35 95t-10 92.5t10 92.5t35 95t62.5 86t98 61t136.5 23.5q148 0 238 -88q3 -3 3 -7q0 -10 -10 -10
q-4 0 -7 3q-82 82 -224 82q-79 0 -140 -27t-94 -65.5t-53.5 -88.5t-26.5 -87t-6 -70zM397 878l-118 -79q-3 -3 -6 -3q-5 0 -8 5l-2 2q-2 2 -2 6q0 5 4 8l124 82q3 3 8 3q3 0 8 -3l124 -82q4 -4 4 -8t-2 -6l-2 -2q-3 -5 -8 -5q-3 0 -6 3z" />
    <glyph glyph-name="ccircumflex" unicode="&#x109;" horiz-adv-x="531" 
d="M464 442l-1 -2q-6 -6 -15 -1q-61 43 -140 48q-85 4 -154 -56.5t-69 -178.5q0 -112 57.5 -174.5t164.5 -62.5q74 0 134 49q8 6 14 -2l3 -3q6 -9 -2 -14q-65 -53 -149 -53q-71 0 -121.5 24t-76.5 65t-37.5 83.5t-11.5 89.5q0 34 7 67t25 67.5t45 61t71.5 43t100.5 16.5
q89 0 154 -53q8 -5 1 -14zM293 678l-118 -79q-8 -8 -14 2l-2 2q-6 8 2 14l124 82q8 6 16 0l124 -82q8 -6 2 -14l-2 -2q-6 -10 -14 -2z" />
    <glyph glyph-name="Cdotaccent" unicode="&#x10a;" horiz-adv-x="707" 
d="M377 818q0 8 6.5 14.5t14.5 6.5t14 -6.5t6 -14.5t-6 -14t-14 -6t-14.5 6t-6.5 14zM82 352q0 -33 6 -70t26.5 -87t53.5 -88.5t94 -65.5t140 -27q142 0 224 82q3 3 7 3q10 0 10 -10q0 -4 -3 -7q-90 -88 -238 -88q-76 0 -136.5 23.5t-98 61t-62.5 86t-35 95t-10 92.5
t10 92.5t35 95t62.5 86t98 61t136.5 23.5q148 0 238 -88q3 -3 3 -7q0 -10 -10 -10q-4 0 -7 3q-82 82 -224 82q-79 0 -140 -27t-94 -65.5t-53.5 -88.5t-26.5 -87t-6 -70z" />
    <glyph glyph-name="cdotaccent" unicode="&#x10b;" horiz-adv-x="531" 
d="M278 618q0 8 6.5 14.5t14.5 6.5t14 -6.5t6 -14.5t-6 -14t-14 -6t-14.5 6t-6.5 14zM464 442l-1 -2q-6 -6 -15 -1q-61 43 -140 48q-85 4 -154 -56.5t-69 -178.5q0 -112 57.5 -174.5t164.5 -62.5q74 0 134 49q8 6 14 -2l3 -3q6 -9 -2 -14q-65 -53 -149 -53q-71 0 -121.5 24
t-76.5 65t-37.5 83.5t-11.5 89.5q0 34 7 67t25 67.5t45 61t71.5 43t100.5 16.5q89 0 154 -53q8 -5 1 -14z" />
    <glyph glyph-name="Ccaron" unicode="&#x10c;" horiz-adv-x="707" 
d="M82 352q0 -33 6 -70t26.5 -87t53.5 -88.5t94 -65.5t140 -27q142 0 224 82q7 7 14 0t0 -14q-90 -88 -238 -88q-76 0 -136.5 23.5t-98 61t-62.5 86t-35 95t-10 92.5t10 92.5t35 95t62.5 86t98 61t136.5 23.5q148 0 238 -88q7 -7 0 -14t-14 0q-82 82 -224 82q-79 0 -140 -27
t-94 -65.5t-53.5 -88.5t-26.5 -87t-6 -70zM277 899l118 -79l118 79q7 7 14 -2l2 -2q6 -8 -2 -14l-124 -82q-8 -6 -16 0l-124 82q-8 6 -2 14l2 2q7 9 14 2z" />
    <glyph glyph-name="ccaron" unicode="&#x10d;" horiz-adv-x="531" 
d="M464 442l-1 -2q-6 -6 -15 -1q-61 43 -140 48q-85 4 -154 -56.5t-69 -178.5q0 -112 57.5 -174.5t164.5 -62.5q74 0 134 49q8 6 14 -2l3 -3q6 -9 -2 -14q-65 -53 -149 -53q-71 0 -121.5 24t-76.5 65t-37.5 83.5t-11.5 89.5q0 34 7 67t25 67.5t45 61t71.5 43t100.5 16.5
q89 0 154 -53q8 -5 1 -14zM188 699l118 -79l118 79q7 7 14 -2l2 -2q6 -8 -2 -14l-124 -82q-8 -6 -16 0l-124 82q-8 6 -2 14l2 2q7 9 14 2z" />
    <glyph glyph-name="Dcaron" unicode="&#x10e;" horiz-adv-x="732" 
d="M335 0h-225q-10 0 -10 10v680q0 10 10 10h225q76 0 137 -24t97.5 -61t60.5 -85t33 -92t9 -87t-9 -87.5t-33 -93t-60.5 -85.5t-97.5 -61t-137 -24zM123 21h207q76 0 135.5 24.5t93 60.5t55 83.5t28.5 86t7 75.5q0 35 -7 73t-28.5 85t-55 83.5t-93 61.5t-135.5 25h-207
v-658zM147 899l118 -79l118 79q7 7 14 -2l2 -2q6 -8 -2 -14l-124 -82q-8 -6 -16 0l-124 82q-8 6 -2 14l2 2q7 9 14 2z" />
    <glyph glyph-name="dcaron" unicode="&#x10f;" horiz-adv-x="637" 
d="M491 448v242q0 10 10 10h4q10 0 10 -10v-681q0 -9 -10 -9q-9 0 -9 9l-3 72q-81 -88 -203 -88q-95 0 -162.5 70t-67.5 186q0 129 72 195t178 62q105 -5 181 -58zM491 114v306q-85 64 -183 64q-61 0 -106.5 -21.5t-70 -57.5t-36 -75t-11.5 -81q0 -97 56 -165.5t163 -68.5
q53 0 102.5 25t85.5 74zM591 555q-6 4 -3 9q31 67 26 106q-18 0 -18 18q0 9 6 15t14 6q21 0 21 -22q0 -48 -36 -129q-4 -6 -10 -3z" />
    <glyph glyph-name="Dcroat" unicode="&#x110;" horiz-adv-x="710" 
d="M20 368h58v322q0 10 10 10h225q76 0 137 -24t97.5 -61t60.5 -85t33 -92t9 -87t-9 -87.5t-33 -93t-60.5 -85.5t-97.5 -61t-137 -24h-225q-10 0 -10 10v336h-58q-10 0 -10 10v2q0 10 10 10zM101 21h207q76 0 135.5 24.5t93 60.5t55 83.5t28.5 86t7 75.5q0 35 -7 73
t-28.5 85t-55 83.5t-93 61.5t-135.5 25h-207v-311h171q10 0 10 -10v-2q0 -10 -10 -10h-171v-325z" />
    <glyph glyph-name="dcroat" unicode="&#x111;" horiz-adv-x="584" 
d="M515 635h49q10 0 10 -10v-2q0 -10 -10 -10h-49v-604q0 -9 -10 -9q-9 0 -9 9l-3 72q-81 -88 -203 -88q-95 0 -162.5 70t-67.5 186q0 129 72 195t178 62q105 -5 181 -58v165h-154q-10 0 -10 10v2q0 10 10 10h154v55q0 10 10 10h4q10 0 10 -10v-55zM491 114v306
q-85 64 -183 64q-61 0 -106.5 -21.5t-70 -57.5t-36 -75t-11.5 -81q0 -97 56 -165.5t163 -68.5q53 0 102.5 25t85.5 74z" />
    <glyph glyph-name="Emacron" unicode="&#x112;" horiz-adv-x="604" 
d="M451 335h-328v-314h411q10 0 10 -10v-1q0 -10 -10 -10h-424q-10 0 -10 10v680q0 10 10 10h424q10 0 10 -10v-1q0 -10 -10 -10h-411v-322h328q10 0 10 -10v-2q0 -10 -10 -10zM161 822h281q10 0 10 -10v-2q0 -10 -10 -10h-281q-10 0 -10 10v2q0 10 10 10z" />
    <glyph glyph-name="emacron" unicode="&#x113;" horiz-adv-x="548" 
d="M474 62l1 -1q2 -4 2 -6q0 -4 -4 -8q-84 -55 -164 -55q-68 0 -119 25t-78 65.5t-39.5 83t-12.5 86.5q0 35 7.5 69t25.5 69t45.5 61.5t71.5 43t99 16.5q93 0 143.5 -55.5t50.5 -151.5q0 -39 -12 -39h-408q0 -110 56 -180.5t170 -70.5q71 0 151 50q2 2 5 2q5 0 9 -4z
M298 490q-186 -5 -214 -205h396q0 4 0.5 12t0.5 12q0 82 -45.5 131.5t-137.5 49.5zM158 622h281q10 0 10 -10v-2q0 -10 -10 -10h-281q-10 0 -10 10v2q0 10 10 10z" />
    <glyph glyph-name="Ebreve" unicode="&#x114;" horiz-adv-x="604" 
d="M451 335h-328v-314h411q10 0 10 -10v-1q0 -10 -10 -10h-424q-10 0 -10 10v680q0 10 10 10h424q10 0 10 -10v-1q0 -10 -10 -10h-411v-322h328q10 0 10 -10v-2q0 -10 -10 -10zM416 893h1q9 -2 5 -12q-39 -84 -120 -84q-84 0 -120 84q-4 9 6 12q9 3 14 -6q32 -71 100 -71
t101 72q4 9 13 5z" />
    <glyph glyph-name="ebreve" unicode="&#x115;" horiz-adv-x="533" 
d="M459 62l1 -1q2 -4 2 -6q0 -4 -4 -8q-84 -55 -164 -55q-68 0 -119 25t-78 65.5t-39.5 83t-12.5 86.5q0 35 7.5 69t25.5 69t45.5 61.5t71.5 43t99 16.5q93 0 143.5 -55.5t50.5 -151.5q0 -39 -12 -39h-408q0 -110 56 -180.5t170 -70.5q71 0 151 50q2 2 5 2q5 0 9 -4z
M283 490q-186 -5 -214 -205h396q0 4 0.5 12t0.5 12q0 82 -45.5 131.5t-137.5 49.5zM402 693h1q6 -1 6 -8q0 -1 -0.5 -2t-0.5 -2q-39 -84 -120 -84q-84 0 -120 84q-1 1 -1 4q0 9 11 9q6 0 10 -7q32 -71 100 -71t101 72q1 6 9 6h2q1 -1 2 -1z" />
    <glyph glyph-name="Edotaccent" unicode="&#x116;" horiz-adv-x="604" 
d="M285 818q0 8 6.5 14.5t14.5 6.5t14 -6.5t6 -14.5t-6 -14t-14 -6t-14.5 6t-6.5 14zM451 335h-328v-314h411q10 0 10 -10v-1q0 -10 -10 -10h-424q-10 0 -10 10v680q0 10 10 10h424q10 0 10 -10v-1q0 -10 -10 -10h-411v-322h328q10 0 10 -10v-2q0 -10 -10 -10z" />
    <glyph glyph-name="edotaccent" unicode="&#x117;" horiz-adv-x="548" 
d="M277 618q0 8 6.5 14.5t14.5 6.5t14 -6.5t6 -14.5t-6 -14t-14 -6t-14.5 6t-6.5 14zM459 62l1 -1q2 -4 2 -6q0 -4 -4 -8q-84 -55 -164 -55q-68 0 -119 25t-78 65.5t-39.5 83t-12.5 86.5q0 35 7.5 69t25.5 69t45.5 61.5t71.5 43t99 16.5q93 0 143.5 -55.5t50.5 -151.5
q0 -39 -12 -39h-408q0 -110 56 -180.5t170 -70.5q71 0 151 50q2 2 5 2q5 0 9 -4zM283 490q-186 -5 -214 -205h396q0 4 0.5 12t0.5 12q0 82 -45.5 131.5t-137.5 49.5z" />
    <glyph glyph-name="Eogonek" unicode="&#x118;" horiz-adv-x="633" 
d="M648 -193q1 -2 1 -5q0 -11 -24 -17t-42 -6q-49 0 -80.5 25.5t-31.5 74.5q0 29 27 68t27 48v5h-415q-10 0 -10 10v680q0 10 10 10h424q10 0 10 -10v-1q0 -10 -10 -10h-411v-322h328q10 0 10 -10v-2q0 -10 -10 -10h-328v-314h411q10 0 10 -10v-17q0 -14 -25 -53t-25 -60
q0 -40 24.5 -60.5t60.5 -20.5q30 0 55 12h2l2 1q7 0 10 -6z" />
    <glyph glyph-name="eogonek" unicode="&#x119;" horiz-adv-x="548" 
d="M475 -193q1 -2 1 -5q0 -11 -24 -17t-42 -6q-49 0 -80.5 25.5t-31.5 74.5q0 29 27 68t27 48v1q-17 -4 -43 -4q-68 0 -119 25t-78 65.5t-39.5 83t-12.5 86.5q0 35 7.5 69t25.5 69t45.5 61.5t71.5 43t99 16.5q93 0 143.5 -55.5t50.5 -151.5q0 -39 -12 -39h-408
q0 -110 56 -180.5t170 -70.5q71 0 151 50q2 2 5 2q5 0 9 -4l1 -1q2 -4 2 -6q0 -13 -38.5 -30.5t-67.5 -24.5v-6q0 -14 -25 -53t-25 -60q0 -40 24.5 -60.5t60.5 -20.5q30 0 55 12h2q1 1 2 1q7 0 10 -6zM308 490q-196 0 -224 -205h396q0 4 0.5 12t0.5 11q0 81 -42.5 129.5
t-130.5 52.5z" />
    <glyph glyph-name="Ecaron" unicode="&#x11a;" horiz-adv-x="604" 
d="M451 335h-328v-314h411q10 0 10 -10v-1q0 -10 -10 -10h-424q-10 0 -10 10v680q0 10 10 10h424q10 0 10 -10v-1q0 -10 -10 -10h-411v-322h328q10 0 10 -10v-2q0 -10 -10 -10zM184 899l118 -79l118 79q7 7 14 -2l2 -2q6 -8 -2 -14l-124 -82q-8 -6 -16 0l-124 82q-8 6 -2 14
l2 2q7 9 14 2z" />
    <glyph glyph-name="ecaron" unicode="&#x11b;" horiz-adv-x="533" 
d="M459 62l1 -1q6 -8 -2 -14q-84 -55 -164 -55q-68 0 -119 25t-78 65.5t-39.5 83t-12.5 86.5q0 35 7.5 69t25.5 69t45.5 61.5t71.5 43t99 16.5q93 0 143.5 -55.5t50.5 -151.5q0 -4 -0.5 -13.5t-0.5 -15.5q-2 -10 -11 -10h-408q0 -110 56 -180.5t170 -70.5q71 0 151 50
q7 7 14 -2zM283 490q-186 -5 -214 -205h396q6 87 -33.5 142.5t-128.5 61.5q-7 1 -20 1zM169 699l118 -79l118 79q7 7 14 -2l2 -2q6 -8 -2 -14l-124 -82q-8 -6 -16 0l-124 82q-8 6 -2 14l2 2q7 9 14 2z" />
    <glyph glyph-name="Gcircumflex" unicode="&#x11c;" horiz-adv-x="711" 
d="M640 607q-7 -7 -14 0q-82 82 -224 82q-79 0 -140 -27t-94 -65.5t-53.5 -88.5t-26.5 -86.5t-6 -69.5t6 -69.5t26.5 -86.5t53.5 -88.5t94 -66t140 -27.5q150 0 228 83v201h-172q-9 0 -9 9q0 10 9 10h183q10 0 10 -10v-207q0 -10 -7 -17q-93 -90 -242 -90q-76 0 -136.5 23
t-98 59.5t-62.5 85t-35 96t-10 95.5q0 46 10 92.5t35 95t62.5 85.5t98 60.5t136.5 23.5q148 0 238 -88q7 -7 0 -14zM388 878l-118 -79q-8 -8 -14 2l-2 2q-6 8 2 14l124 82q8 6 16 0l124 -82q8 -6 2 -14l-2 -2q-6 -10 -14 -2z" />
    <glyph glyph-name="gcircumflex" unicode="&#x11d;" horiz-adv-x="537" 
d="M268 -232q-112 2 -160 39.5t-48 86.5q0 32 30 64t100 39q-57 7 -80.5 35.5t-23.5 57.5q0 34 22.5 63t69.5 34q-43 23 -62 67.5t-19 80.5q0 29 9 57t28 55t55.5 44t84.5 17q70 0 122 -40l69 67q3 3 7 3t7 -3h1q3 -3 3 -7t-3 -7l-69 -70q40 -48 40 -116q0 -29 -9 -58
t-27.5 -56t-53.5 -43.5t-82 -16.5q-17 0 -40.5 4t-39.5 4q-50 0 -70.5 -25.5t-20.5 -50.5q0 -42 44 -64.5t102 -22.5q230 0 230 -114q0 -20 -8 -38.5t-29 -39.5t-67 -33.5t-112 -12.5zM276 183q43 0 74.5 16t47.5 41t23.5 49t7.5 46t-7.5 46t-23.5 48.5t-47.5 40.5t-74.5 16
q-81 0 -118.5 -47t-37.5 -104q0 -22 8 -46t24.5 -49t49 -41t74.5 -16zM274 -210q27 0 55 4t60 13.5t52.5 31.5t20.5 53q0 40 -44 66t-144 26q-109 0 -150.5 -27.5t-41.5 -64.5q0 -14 7.5 -29t26.5 -32t60 -28.5t98 -12.5zM268 678l-118 -79q-3 -3 -6 -3q-5 0 -8 5l-2 2
q-2 2 -2 6q0 5 4 8l124 82q3 3 8 3q4 0 8 -3l124 -82q4 -4 4 -8t-2 -6l-2 -2q-3 -5 -8 -5q-3 0 -6 3z" />
    <glyph glyph-name="Gbreve" unicode="&#x11e;" horiz-adv-x="711" 
d="M640 607q-7 -7 -14 0q-82 82 -224 82q-79 0 -140 -27t-94 -65.5t-53.5 -88.5t-26.5 -86.5t-6 -69.5t6 -70t26.5 -87t53.5 -89t94 -66.5t140 -27.5q148 0 228 85v201h-172q-9 0 -9 9q0 10 9 10h183q10 0 10 -10v-207q0 -10 -7 -17q-93 -90 -242 -90q-76 0 -136.5 23
t-98 59.5t-62.5 85t-35 96t-10 95.5q0 46 10 92.5t35 95t62.5 85.5t98 60.5t136.5 23.5q148 0 238 -88q7 -7 0 -14zM510 893h1q9 -2 5 -12q-39 -84 -120 -84q-84 0 -120 84q-4 9 6 12q9 3 14 -6q32 -71 100 -71t101 72q4 9 13 5z" />
    <glyph glyph-name="gbreve" unicode="&#x11f;" horiz-adv-x="537" 
d="M268 -232q-112 2 -160 39.5t-48 86.5q0 32 30 64t100 39q-57 7 -80.5 35.5t-23.5 57.5q0 34 22.5 63t69.5 34q-43 23 -62 67.5t-19 80.5q0 29 9 57t28 55t55.5 44t84.5 17q70 0 122 -40l69 67q3 3 7 3t7 -3h1q3 -3 3 -7t-3 -7l-69 -70q40 -48 40 -116q0 -29 -9 -58
t-27.5 -56t-53.5 -43.5t-82 -16.5q-17 0 -40.5 4t-39.5 4q-50 0 -70.5 -25.5t-20.5 -50.5q0 -42 44 -64.5t102 -22.5q230 0 230 -114q0 -20 -8 -38.5t-29 -39.5t-67 -33.5t-112 -12.5zM276 183q43 0 74.5 16t47.5 41t23.5 49t7.5 46t-7.5 46t-23.5 48.5t-47.5 40.5t-74.5 16
q-81 0 -118.5 -47t-37.5 -104q0 -22 8 -46t24.5 -49t49 -41t74.5 -16zM274 -210q27 0 55 4t60 13.5t52.5 31.5t20.5 53q0 40 -44 66t-144 26q-109 0 -150.5 -27.5t-41.5 -64.5q0 -14 7.5 -29t26.5 -32t60 -28.5t98 -12.5zM382 693h1q6 -1 6 -8q0 -1 -0.5 -2t-0.5 -2
q-39 -84 -120 -84q-84 0 -120 84q-1 1 -1 4q0 9 11 9q6 0 10 -7q32 -71 100 -71t101 72q1 6 9 6h2z" />
    <glyph glyph-name="Gdotaccent" unicode="&#x120;" horiz-adv-x="711" 
d="M370 818q0 8 6.5 14.5t14.5 6.5t14 -6.5t6 -14.5t-6 -14t-14 -6t-14.5 6t-6.5 14zM640 607q-7 -7 -14 0q-82 82 -224 82q-79 0 -140 -27t-94 -65.5t-53.5 -88.5t-26.5 -86.5t-6 -69.5t6 -70t26.5 -87t53.5 -89t94 -66.5t140 -27.5q148 0 228 85v201h-172q-9 0 -9 9
q0 10 9 10h183q10 0 10 -10v-207q0 -10 -7 -17q-93 -90 -242 -90q-76 0 -136.5 23t-98 59.5t-62.5 85t-35 96t-10 95.5q0 46 10 92.5t35 95t62.5 85.5t98 60.5t136.5 23.5q148 0 238 -88q7 -7 0 -14z" />
    <glyph glyph-name="gdotaccent" unicode="&#x121;" horiz-adv-x="537" 
d="M247 618q0 8 6.5 14.5t14.5 6.5t14 -6.5t6 -14.5t-6 -14t-14 -6t-14.5 6t-6.5 14zM268 -232q-112 2 -160 39.5t-48 86.5q0 32 30 64t100 39q-57 7 -80.5 35.5t-23.5 57.5q0 34 22.5 63t69.5 34q-43 23 -62 67.5t-19 80.5q0 29 9 57t28 55t55.5 44t84.5 17q70 0 122 -40
l69 67q3 3 7 3t7 -3h1q3 -3 3 -7t-3 -7l-69 -70q40 -48 40 -116q0 -29 -9 -58t-27.5 -56t-53.5 -43.5t-82 -16.5q-17 0 -40.5 4t-39.5 4q-50 0 -70.5 -25.5t-20.5 -50.5q0 -42 44 -64.5t102 -22.5q230 0 230 -114q0 -20 -8 -38.5t-29 -39.5t-67 -33.5t-112 -12.5zM276 183
q43 0 74.5 16t47.5 41t23.5 49t7.5 46t-7.5 46t-23.5 48.5t-47.5 40.5t-74.5 16q-81 0 -118.5 -47t-37.5 -104q0 -22 8 -46t24.5 -49t49 -41t74.5 -16zM274 -210q27 0 55 4t60 13.5t52.5 31.5t20.5 53q0 40 -44 66t-144 26q-109 0 -150.5 -27.5t-41.5 -64.5q0 -14 7.5 -29
t26.5 -32t60 -28.5t98 -12.5z" />
    <glyph glyph-name="Gcommaaccent" unicode="&#x122;" horiz-adv-x="711" 
d="M640 607q-7 -7 -14 0q-82 82 -224 82q-79 0 -140 -27t-94 -65.5t-53.5 -88.5t-26.5 -86.5t-6 -69.5t6 -70t26.5 -87t53.5 -89t94 -66.5t140 -27.5q148 0 228 85v201h-172q-9 0 -9 9q0 10 9 10h183q10 0 10 -10v-207q0 -10 -7 -17q-93 -90 -242 -90q-76 0 -136.5 23
t-98 59.5t-62.5 85t-35 96t-10 95.5q0 46 10 92.5t35 95t62.5 85.5t98 60.5t136.5 23.5q148 0 238 -88q7 -7 0 -14zM382 -221q-7 4 -4 10q24 63 20 91q-18 0 -18 18q0 9 6 15t14 6q21 0 21 -22q0 -47 -29 -113q-3 -7 -10 -5z" />
    <glyph glyph-name="gcommaaccent" unicode="&#x123;" horiz-adv-x="537" 
d="M268 -232q-112 2 -160 39.5t-48 86.5q0 32 30 64t100 39q-57 7 -80.5 35.5t-23.5 57.5q0 34 22.5 63t69.5 34q-43 23 -62 67.5t-19 80.5q0 29 9 57t28 55t55.5 44t84.5 17q70 0 122 -40l69 67q3 3 7 3t7 -3h1q3 -3 3 -7t-3 -7l-69 -70q40 -48 40 -116q0 -29 -9 -58
t-27.5 -56t-53.5 -43.5t-82 -16.5q-17 0 -40.5 4t-39.5 4q-50 0 -70.5 -25.5t-20.5 -50.5q0 -42 44 -64.5t102 -22.5q230 0 230 -114q0 -20 -8 -38.5t-29 -39.5t-67 -33.5t-112 -12.5zM276 183q43 0 74.5 16t47.5 41t23.5 49t7.5 46t-7.5 46t-23.5 48.5t-47.5 40.5t-74.5 16
q-81 0 -118.5 -47t-37.5 -104q0 -22 8 -46t24.5 -49t49 -41t74.5 -16zM274 -210q27 0 55 4t60 13.5t52.5 31.5t20.5 53q0 40 -44 66t-144 26q-109 0 -150.5 -27.5t-41.5 -64.5q0 -14 7.5 -29t26.5 -32t60 -28.5t98 -12.5zM298 754q4 -3 4 -7v-3q-27 -54 -27 -98
q0 -5 9.5 -10.5t9.5 -14.5t-6 -15t-14 -6q-21 0 -21 22q0 26 15 79.5t27 53.5q1 0 3 -1z" />
    <glyph glyph-name="Hcircumflex" unicode="&#x124;" horiz-adv-x="758" 
d="M635 10v325h-512v-325q0 -10 -10 -10h-3q-10 0 -10 10v680q0 10 10 10h3q10 0 10 -10v-333h512v333q0 10 10 10h3q10 0 10 -10v-680q0 -10 -10 -10h-3q-10 0 -10 10zM379 878l-118 -79q-8 -8 -14 2l-2 2q-6 8 2 14l124 82q8 6 16 0l124 -82q8 -6 2 -14l-2 -2
q-6 -10 -14 -2z" />
    <glyph glyph-name="hcircumflex" unicode="&#x125;" 
d="M93 0h-3q-10 0 -10 10v680q0 10 10 10h3q10 0 10 -10v-268q86 86 195 86q49 0 86 -15t58 -38t33.5 -57.5t16.5 -67t4 -72.5v-248q0 -10 -10 -10h-3q-10 0 -10 10v248q0 129 -47.5 178.5t-133.5 49.5q-46 0 -99.5 -26.5t-89.5 -68.5v-381q0 -10 -10 -10zM94 877l-118 -79
q-8 -8 -14 2l-2 2q-6 8 2 14l124 82q8 6 16 0l124 -82q8 -6 2 -14l-2 -2q-6 -10 -14 -2z" />
    <glyph glyph-name="Hbar" unicode="&#x126;" horiz-adv-x="764" 
d="M632 10v325h-512v-325q0 -10 -10 -10h-3q-10 0 -10 10v540h-47q-10 0 -10 10t10 10h47v120q0 10 10 10h3q10 0 10 -10v-120h512v120q0 10 10 10h3q10 0 10 -10v-120h59q10 0 10 -10t-10 -10h-59v-540q0 -10 -10 -10h-3q-10 0 -10 10zM120 357h512v193h-512v-193z" />
    <glyph glyph-name="hbar" unicode="&#x127;" horiz-adv-x="546" 
d="M83 0h-3q-10 0 -10 10v590h-50q-10 0 -10 10v1q0 10 10 10h50v69q0 10 10 10h3q10 0 10 -10v-69h176q10 0 10 -10v-1q0 -10 -10 -10h-176v-178q86 86 195 86q49 0 86 -15t58 -38t33.5 -57.5t16.5 -67t4 -72.5v-248q0 -10 -10 -10h-3q-10 0 -10 10v248q0 129 -47.5 178.5
t-133.5 49.5q-46 0 -99.5 -26.5t-89.5 -68.5v-381q0 -10 -10 -10z" />
    <glyph glyph-name="Itilde" unicode="&#x128;" horiz-adv-x="279" 
d="M151 690v-678q0 -10 -10 -10h-3q-10 0 -10 10v678q0 10 10 10h3q10 0 10 -10zM269 854l2 -1q9 -6 2 -13q-31 -46 -77 -44q-33 1 -62 25q-30 22 -53 22q-35 0 -57 -36q-5 -9 -14 -5h-1q-9 4 -5 13q28 50 78 50q28 0 59 -23q35 -25 57 -25q32 0 57 35q7 7 14 2z" />
    <glyph glyph-name="itilde" unicode="&#x129;" horiz-adv-x="279" 
d="M150 490v-480q0 -10 -10 -10h-2q-10 0 -10 10v480q0 10 10 10h2q10 0 10 -10zM269 654l2 -1q9 -6 2 -13q-31 -46 -77 -44q-33 1 -62 25q-30 22 -53 22q-35 0 -57 -36q-5 -9 -14 -5h-1q-9 4 -5 13q28 50 78 50q28 0 59 -23q35 -25 57 -25q32 0 57 35q7 7 14 2z" />
    <glyph glyph-name="Imacron" unicode="&#x12a;" horiz-adv-x="301" 
d="M162 690v-678q0 -10 -10 -10h-3q-10 0 -10 10v678q0 10 10 10h3q10 0 10 -10zM10 822h281q10 0 10 -10v-2q0 -10 -10 -10h-281q-10 0 -10 10v2q0 10 10 10z" />
    <glyph glyph-name="imacron" unicode="&#x12b;" horiz-adv-x="301" 
d="M161 490v-480q0 -10 -10 -10h-2q-10 0 -10 10v480q0 10 10 10h2q10 0 10 -10zM10 622h281q10 0 10 -10v-2q0 -10 -10 -10h-281q-10 0 -10 10v2q0 10 10 10z" />
    <glyph glyph-name="Ibreve" unicode="&#x12c;" horiz-adv-x="248" 
d="M135 690v-678q0 -10 -10 -10h-3q-10 0 -10 10v678q0 10 10 10h3q10 0 10 -10zM238 893h1q6 -1 6 -8q0 -1 -0.5 -2t-0.5 -2q-39 -84 -120 -84q-84 0 -120 84q-1 1 -1 4q0 9 11 9q6 0 10 -7q32 -71 100 -71t101 72q1 6 9 6h2q1 -1 2 -1z" />
    <glyph glyph-name="ibreve" unicode="&#x12d;" horiz-adv-x="248" 
d="M135 490v-480q0 -10 -10 -10h-2q-10 0 -10 10v480q0 10 10 10h2q10 0 10 -10zM238 693h1q6 -1 6 -8q0 -1 -0.5 -2t-0.5 -2q-39 -84 -120 -84q-84 0 -120 84q-1 1 -1 4q0 9 11 9q6 0 10 -7q32 -71 100 -71t101 72q1 6 9 6h2q1 -1 2 -1z" />
    <glyph glyph-name="Iogonek" unicode="&#x12e;" horiz-adv-x="203" 
d="M213 -193q5 -9 -4 -14q-33 -14 -61 -14q-49 0 -80.5 25.5t-31.5 74.5q0 29 27 68t27 48v695q0 10 10 10h3q10 0 10 -10v-696q0 -14 -27 -53t-27 -60q0 -40 24.5 -60.5t60.5 -20.5q30 0 55 12q9 4 14 -5z" />
    <glyph glyph-name="iogonek" unicode="&#x12f;" horiz-adv-x="212" 
d="M217 -193q1 -2 1 -5q0 -11 -24 -17t-42 -6q-49 0 -80.5 25.5t-31.5 74.5q0 29 25.5 68t25.5 48v495q0 10 10 10h2q10 0 10 -10v-496q0 -14 -25 -53t-25 -60q0 -40 24.5 -60.5t60.5 -20.5q30 0 55 12q1 0 2 0.5t2 0.5q7 0 10 -6zM80 621q0 8 6.5 14t14.5 6t14 -6t6 -14
t-6 -14.5t-14 -6.5t-14.5 6.5t-6.5 14.5z" />
    <glyph glyph-name="Idotaccent" unicode="&#x130;" horiz-adv-x="221" 
d="M90 818q0 8 6.5 14.5t14.5 6.5t14 -6.5t6 -14.5t-6 -14t-14 -6t-14.5 6t-6.5 14zM122 690v-678q0 -10 -10 -10h-3q-10 0 -10 10v678q0 10 10 10h3q10 0 10 -10z" />
    <glyph glyph-name="dotlessi" unicode="&#x131;" horiz-adv-x="182" 
d="M102 490v-480q0 -10 -10 -10h-2q-10 0 -10 10v480q0 10 10 10h2q10 0 10 -10z" />
    <glyph glyph-name="IJ" unicode="&#x132;" horiz-adv-x="812" 
d="M123 690v-678q0 -10 -10 -10h-3q-10 0 -10 10v678q0 10 10 10h3q10 0 10 -10zM262 142l3 1q9 4 13 -5q56 -120 196 -124q203 9 215 244v432q0 10 10 10h3q10 0 10 -10v-432q0 -35 -6 -69t-22.5 -70.5t-42.5 -63.5t-69 -44.5t-98 -17.5q-158 0 -217 136q-4 9 5 13z" />
    <glyph glyph-name="ij" unicode="&#x133;" horiz-adv-x="419" 
d="M138 621q0 8 6.5 14t14.5 6t14 -6t6 -14t-6 -14.5t-14 -6.5t-14.5 6.5t-6.5 14.5zM298 621q0 8 6.5 14t14.5 6t14 -6t6 -14t-6 -14.5t-14 -6.5t-14.5 6.5t-6.5 14.5zM171 490v-480q0 -10 -10 -10h-2q-10 0 -10 10v480q0 10 10 10h2q10 0 10 -10zM85 -170q5 9 14 4
q47 -22 79 -23q131 -5 131 167v512q0 10 10 10h2q10 0 10 -10v-512q0 -98 -41.5 -144.5t-111.5 -42.5q-44 4 -89 26q-9 6 -4 13z" />
    <glyph glyph-name="Jcircumflex" unicode="&#x134;" horiz-adv-x="589" 
d="M29 142l3 1q9 4 13 -5q56 -120 196 -124q203 9 215 244v432q0 10 10 10h3q10 0 10 -10v-432q0 -35 -6 -69t-22.5 -70.5t-42.5 -63.5t-69 -44.5t-98 -17.5q-158 0 -217 136q-4 9 5 13zM470 878l-118 -79q-8 -8 -14 2l-2 2q-6 8 2 14l124 82q8 6 16 0l124 -82q8 -6 2 -14
l-2 -2q-6 -10 -14 -2z" />
    <glyph glyph-name="jcircumflex" unicode="&#x135;" horiz-adv-x="245" 
d="M-125 -170q5 9 14 4q47 -22 79 -23q131 -5 131 167v512q0 10 10 10h2q10 0 10 -10v-512q0 -98 -41.5 -144.5t-111.5 -42.5q-44 4 -89 26q-9 6 -4 13zM117 678l-118 -79q-8 -8 -14 2l-2 2q-6 8 2 14l124 82q8 6 16 0l124 -82q8 -6 2 -14l-2 -2q-6 -10 -14 -2z" />
    <glyph glyph-name="Kcommaaccent" unicode="&#x136;" horiz-adv-x="623" 
d="M114 0h-4q-10 0 -10 10v680q0 10 10 10h4q10 0 10 -10v-318l393 322q7 6 18 6h15q3 0 3 -3q0 -2 -2 -4l-404 -332l429 -353q2 -2 2 -5t-3 -3h-14q-11 0 -18 6l-419 346v-342q0 -10 -10 -10zM252 -220q-8 2 -4 9q24 63 20 91q-18 0 -18 18q0 9 6 15t14 6q21 0 21 -22
q0 -46 -29 -112q-3 -7 -10 -5z" />
    <glyph glyph-name="kcommaaccent" unicode="&#x137;" horiz-adv-x="485" 
d="M102 690v-425l297 229q7 6 18 6h19q2 0 2 -2v-2l-310 -236l325 -255q2 -2 1 -3q0 -2 -2 -2h-16q-10 0 -18 6l-316 248v-244q0 -10 -10 -10h-2q-10 0 -10 10v680q0 10 10 10h2q10 0 10 -10zM215 -220q-8 2 -4 9q24 63 20 91q-18 0 -18 18q0 9 6 15t14 6q21 0 21 -22
q0 -46 -29 -112q-3 -7 -10 -5zM215 -220q-8 2 -4 9q24 63 20 91q-18 0 -18 18q0 9 6 15t14 6q21 0 21 -22q0 -46 -29 -112q-3 -7 -10 -5z" />
    <glyph glyph-name="kgreenlandic" unicode="&#x138;" horiz-adv-x="485" 
d="M102 491v-226l297 229q7 6 18 6h19q2 0 2 -2v-2l-310 -236l325 -255q2 -2 1 -3q0 -2 -2 -2h-16q-10 0 -18 6l-316 248v-244q0 -10 -10 -10h-2q-10 0 -10 10v481q0 10 10 10h2q10 0 10 -10z" />
    <glyph glyph-name="Lacute" unicode="&#x139;" horiz-adv-x="508" 
d="M123 690v-668h315q10 0 10 -10v-2q0 -10 -10 -10h-328q-10 0 -10 10v680q0 10 10 10h3q10 0 10 -10zM123 818l124 82q7 7 14 -2l2 -2q6 -8 -2 -14l-124 -82q-8 -8 -14 2l-2 2q-6 8 2 14z" />
    <glyph glyph-name="lacute" unicode="&#x13a;" horiz-adv-x="214" 
d="M118 690v-680q0 -10 -10 -10h-3q-10 0 -10 10v680q0 10 10 10h3q10 0 10 -10zM38 819l124 82q7 7 14 -2l2 -2q6 -8 -2 -14l-124 -82q-8 -8 -14 2l-2 2q-6 8 2 14z" />
    <glyph glyph-name="Lcommaaccent" unicode="&#x13b;" horiz-adv-x="508" 
d="M123 690v-668h315q10 0 10 -10v-2q0 -10 -10 -10h-328q-10 0 -10 10v680q0 10 10 10h3q10 0 10 -10zM238 -220q-8 2 -4 9q24 63 20 91q-18 0 -18 18q0 9 6 15t14 6q21 0 21 -22q0 -46 -29 -112q-3 -7 -10 -5z" />
    <glyph glyph-name="lcommaaccent" unicode="&#x13c;" horiz-adv-x="226" 
d="M127 690v-680q0 -10 -10 -10h-3q-10 0 -10 10v680q0 10 10 10h3q10 0 10 -10zM97 -220q-8 2 -4 9q24 63 20 91q-18 0 -18 18q0 9 6 15t14 6q21 0 21 -22q0 -46 -29 -112q-3 -7 -10 -5z" />
    <glyph glyph-name="Lcaron" unicode="&#x13d;" horiz-adv-x="508" 
d="M123 690v-668h315q10 0 10 -10v-2q0 -10 -10 -10h-328q-10 0 -10 10v680q0 10 10 10h3q10 0 10 -10zM225 548q-6 4 -3 9q31 67 26 106q-18 0 -18 18q0 9 6 15t14 6q21 0 21 -22q0 -48 -36 -129q-4 -6 -10 -3z" />
    <glyph glyph-name="lcaron" unicode="&#x13e;" horiz-adv-x="230" 
d="M103 690v-680q0 -10 -10 -10h-3q-10 0 -10 10v680q0 10 10 10h3q10 0 10 -10zM184 553q-6 4 -3 9q31 67 26 106q-18 0 -18 18q0 9 6 15t14 6q21 0 21 -22q0 -48 -36 -129q-4 -6 -10 -3z" />
    <glyph glyph-name="Ldot" unicode="&#x13f;" horiz-adv-x="508" 
d="M123 690v-668h315q10 0 10 -10v-2q0 -10 -10 -10h-328q-10 0 -10 10v680q0 10 10 10h3q10 0 10 -10zM236 316q0 8 6.5 14.5t14.5 6.5t14 -6.5t6 -14.5t-6 -14t-14 -6t-14.5 6t-6.5 14z" />
    <glyph glyph-name="ldot" unicode="&#x140;" horiz-adv-x="239" 
d="M103 690v-680q0 -10 -10 -10h-3q-10 0 -10 10v680q0 10 10 10h3q10 0 10 -10zM188 299q0 8 6.5 14.5t14.5 6.5t14 -6.5t6 -14.5t-6 -14t-14 -6t-14.5 6t-6.5 14z" />
    <glyph glyph-name="Lslash" unicode="&#x141;" horiz-adv-x="523" 
d="M138 690v-324l209 122q9 5 14 -4l2 -2q5 -7 -4 -13l-221 -128v-319h315q10 0 10 -10v-2q0 -10 -10 -10h-328q-10 0 -10 10v318l-85 -49q-8 -5 -14 3l-1 1q-5 9 4 14l96 56v337q0 10 10 10h3q10 0 10 -10z" />
    <glyph glyph-name="lslash" unicode="&#x142;" horiz-adv-x="323" 
d="M307 453l1 -2q5 -9 -4 -14l-166 -96v-330q0 -10 -10 -10h-3q-10 0 -10 10v317l-85 -49q-8 -5 -14 3l-1 1q-5 9 4 14l96 56v337q0 10 10 10h3q10 0 10 -10v-324l155 91q9 5 14 -4z" />
    <glyph glyph-name="Nacute" unicode="&#x143;" horiz-adv-x="758" 
d="M113 0h-3q-10 0 -10 10v686q0 9 8 9q9 0 14 -7l513 -654v646q0 10 10 10h3q10 0 10 -10v-688q0 -7 -8 -7t-12 6l-515 657v-648q0 -10 -10 -10zM310 818l124 82q7 7 14 -2l2 -2q6 -8 -2 -14l-124 -82q-8 -8 -14 2l-2 2q-6 8 2 14z" />
    <glyph glyph-name="nacute" unicode="&#x144;" 
d="M93 0h-3q-10 0 -10 10v480q0 10 10 10t10 -10l3 -68q86 86 195 86q49 0 86 -15t58 -38t33.5 -57.5t16.5 -67t4 -72.5v-248q0 -10 -10 -10h-3q-10 0 -10 10v248q0 129 -47.5 178.5t-133.5 49.5q-46 0 -99.5 -26.5t-89.5 -68.5v-381q0 -10 -10 -10zM209 618l124 82
q7 7 14 -2l2 -2q6 -8 -2 -14l-124 -82q-8 -8 -14 2l-2 2q-6 8 2 14z" />
    <glyph glyph-name="Ncommaaccent" unicode="&#x145;" horiz-adv-x="758" 
d="M370 -223l-14 5q27 67 23 98q-18 0 -18 18q0 9 6 15t14 6q21 0 21 -22q0 -50 -32 -120zM113 0h-3q-10 0 -10 10v686q0 9 8 9q9 0 14 -7l513 -654v646q0 10 10 10h3q10 0 10 -10v-688q0 -7 -8 -7t-12 6l-515 657v-648q0 -10 -10 -10z" />
    <glyph glyph-name="ncommaaccent" unicode="&#x146;" 
d="M93 0h-3q-10 0 -10 10v480q0 10 10 10t10 -10l3 -68q86 86 195 86q49 0 86 -15t58 -38t33.5 -57.5t16.5 -67t4 -72.5v-248q0 -10 -10 -10h-3q-10 0 -10 10v248q0 129 -47.5 178.5t-133.5 49.5q-46 0 -99.5 -26.5t-89.5 -68.5v-381q0 -10 -10 -10zM262 -221q-7 4 -4 10
q24 63 20 91q-18 0 -18 18q0 9 6 15t14 6q21 0 21 -22q0 -47 -29 -113q-3 -7 -10 -5z" />
    <glyph glyph-name="Ncaron" unicode="&#x147;" horiz-adv-x="758" 
d="M113 0h-3q-10 0 -10 10v686q0 9 8 9q9 0 14 -7l513 -654v646q0 10 10 10h3q10 0 10 -10v-688q0 -7 -8 -7t-12 6l-515 657v-648q0 -10 -10 -10zM261 899l118 -79l118 79q7 7 14 -2l2 -2q6 -8 -2 -14l-124 -82q-8 -6 -16 0l-124 82q-8 6 -2 14l2 2q7 9 14 2z" />
    <glyph glyph-name="ncaron" unicode="&#x148;" 
d="M93 0h-3q-10 0 -10 10v480q0 10 10 10t10 -10l3 -68q86 86 195 86q49 0 86 -15t58 -38t33.5 -57.5t16.5 -67t4 -72.5v-248q0 -10 -10 -10h-3q-10 0 -10 10v248q0 129 -47.5 178.5t-133.5 49.5q-46 0 -99.5 -26.5t-89.5 -68.5v-381q0 -10 -10 -10zM160 699l118 -79l118 79
q7 7 14 -2l2 -2q6 -8 -2 -14l-124 -82q-8 -6 -16 0l-124 82q-8 6 -2 14l2 2q7 9 14 2z" />
    <glyph glyph-name="napostrophe" unicode="&#x149;" horiz-adv-x="589" 
d="M126 0h-3q-10 0 -10 10v480q0 10 10 10t10 -10l3 -68q86 86 195 86q49 0 86 -15t58 -38t33.5 -57.5t16.5 -67t4 -72.5v-248q0 -10 -10 -10h-3q-10 0 -10 10v248q0 129 -47.5 178.5t-133.5 49.5q-46 0 -99.5 -26.5t-89.5 -68.5v-381q0 -10 -10 -10zM16 583q-6 4 -3 9
q31 67 26 106q-18 0 -18 18q0 9 6 15t14 6q21 0 21 -22q0 -48 -36 -129q-4 -6 -10 -3z" />
    <glyph glyph-name="Eng" unicode="&#x14a;" horiz-adv-x="758" 
d="M412 -183q5 9 14 4q47 -22 79 -23q131 -5 131 167v42l-513 653v-650q0 -10 -10 -10h-3q-10 0 -10 10v687q0 9 8 9q9 0 14 -7l513 -654v645q0 10 10 10h3q10 0 10 -10v-725q0 -98 -41.5 -144.5t-111.5 -42.5q-44 4 -89 26q-9 6 -4 13z" />
    <glyph glyph-name="eng" unicode="&#x14b;" 
d="M93 0h-3q-10 0 -10 10v480q0 10 10 10t10 -10l3 -68q86 86 195 86q49 0 86 -15t58 -38t33.5 -57.5t16.5 -67t4 -72.5l-1 -292q0 -98 -41.5 -144.5t-111.5 -42.5q-44 4 -89 26q-9 6 -4 13q5 9 14 4q47 -22 79 -23q131 -5 131 167v292q0 129 -47.5 178.5t-133.5 49.5
q-46 0 -99.5 -26.5t-89.5 -68.5v-381q0 -10 -10 -10z" />
    <glyph glyph-name="Omacron" unicode="&#x14c;" horiz-adv-x="804" 
d="M402 709q76 0 136.5 -23.5t98 -60.5t62.5 -85.5t35 -95t10 -92.5q0 -48 -10 -95t-35 -96t-62.5 -85.5t-98 -59.5t-136.5 -23t-136.5 23t-98 59.5t-62.5 85t-35 96t-10 95.5q0 46 10 92.5t35 95t62.5 85.5t98 60.5t136.5 23.5zM402 689q-79 0 -140 -27t-94 -65.5
t-53.5 -88.5t-26.5 -86.5t-6 -69.5t6 -70t26.5 -87t53.5 -89t94 -66.5t140 -27.5t140 27.5t94 66.5t53.5 89t26.5 87t6 70t-6 69.5t-26.5 86.5t-53.5 88.5t-94 65.5t-140 27zM261 822h281q10 0 10 -10v-2q0 -10 -10 -10h-281q-10 0 -10 10v2q0 10 10 10z" />
    <glyph glyph-name="omacron" unicode="&#x14d;" horiz-adv-x="618" 
d="M309 508q68 0 119 -25t78 -65.5t39.5 -82.5t12.5 -85q0 -44 -12.5 -86.5t-39.5 -82.5t-78 -64.5t-119 -24.5t-119 24.5t-78 64.5t-39.5 82.5t-12.5 86.5q0 43 12.5 85t39.5 82.5t78 65.5t119 25zM309 14q56 0 99.5 19t66 45.5t37 61.5t18.5 61t4 49t-4 48.5t-18.5 60.5
t-37 61.5t-66 45.5t-99.5 19t-99.5 -19t-66 -45.5t-37 -61.5t-18.5 -60.5t-4 -48.5t4 -49t18.5 -61t37 -61.5t66 -45.5t99.5 -19zM168 622h281q10 0 10 -10v-2q0 -10 -10 -10h-281q-10 0 -10 10v2q0 10 10 10z" />
    <glyph glyph-name="Obreve" unicode="&#x14e;" horiz-adv-x="804" 
d="M402 709q76 0 136.5 -23.5t98 -60.5t62.5 -85.5t35 -95t10 -92.5q0 -48 -10 -95t-35 -96t-62.5 -85.5t-98 -59.5t-136.5 -23t-136.5 23t-98 59.5t-62.5 85t-35 96t-10 95.5q0 46 10 92.5t35 95t62.5 85.5t98 60.5t136.5 23.5zM402 689q-79 0 -140 -27t-94 -65.5
t-53.5 -88.5t-26.5 -86.5t-6 -69.5t6 -70t26.5 -87t53.5 -89t94 -66.5t140 -27.5t140 27.5t94 66.5t53.5 89t26.5 87t6 70t-6 69.5t-26.5 86.5t-53.5 88.5t-94 65.5t-140 27zM516 893h1q9 -2 5 -12q-39 -84 -120 -84q-84 0 -120 84q-4 9 6 12q9 3 14 -6q32 -71 100 -71
t101 72q4 9 13 5z" />
    <glyph glyph-name="obreve" unicode="&#x14f;" horiz-adv-x="618" 
d="M309 508q68 0 119 -25t78 -65.5t39.5 -82.5t12.5 -85q0 -44 -12.5 -86.5t-39.5 -82.5t-78 -64.5t-119 -24.5t-119 24.5t-78 64.5t-39.5 82.5t-12.5 86.5q0 43 12.5 85t39.5 82.5t78 65.5t119 25zM309 14q56 0 99.5 19t66 45.5t37 61.5t18.5 61t4 49t-4 48.5t-18.5 60.5
t-37 61.5t-66 45.5t-99.5 19t-99.5 -19t-66 -45.5t-37 -61.5t-18.5 -60.5t-4 -48.5t4 -49t18.5 -61t37 -61.5t66 -45.5t99.5 -19zM423 693h1q6 -1 6 -8q0 -1 -0.5 -2t-0.5 -2q-39 -84 -120 -84q-84 0 -120 84q-1 1 -1 4q0 9 11 9q7 0 10 -7q32 -71 100 -71t101 72q2 6 9 6h2
q1 -1 2 -1z" />
    <glyph glyph-name="Ohungarumlaut" unicode="&#x150;" horiz-adv-x="804" 
d="M402 709q76 0 136.5 -23.5t98 -60.5t62.5 -85.5t35 -95t10 -92.5q0 -48 -10 -95t-35 -96t-62.5 -85.5t-98 -59.5t-136.5 -23t-136.5 23t-98 59.5t-62.5 85t-35 96t-10 95.5q0 46 10 92.5t35 95t62.5 85.5t98 60.5t136.5 23.5zM402 689q-79 0 -140 -27t-94 -65.5
t-53.5 -88.5t-26.5 -86.5t-6 -69.5t6 -70t26.5 -87t53.5 -89t94 -66.5t140 -27.5t140 27.5t94 66.5t53.5 89t26.5 87t6 70t-6 69.5t-26.5 86.5t-53.5 88.5t-94 65.5t-140 27zM375 938l-42 -129q-4 -9 -13 -9h-4q-9 0 -7 9l42 129q3 10 13 10h4q9 0 7 -10zM537 938l-42 -129
q-4 -9 -13 -9h-4q-9 0 -7 9l42 129q3 10 13 10h4q9 0 7 -10z" />
    <glyph glyph-name="ohungarumlaut" unicode="&#x151;" horiz-adv-x="618" 
d="M309 508q68 0 119 -25t78 -65.5t39.5 -82.5t12.5 -85q0 -44 -12.5 -86.5t-39.5 -82.5t-78 -64.5t-119 -24.5t-119 24.5t-78 64.5t-39.5 82.5t-12.5 86.5q0 43 12.5 85t39.5 82.5t78 65.5t119 25zM309 14q56 0 99.5 19t66 45.5t37 61.5t18.5 61t4 49t-4 48.5t-18.5 60.5
t-37 61.5t-66 45.5t-99.5 19t-99.5 -19t-66 -45.5t-37 -61.5t-18.5 -60.5t-4 -48.5t4 -49t18.5 -61t37 -61.5t66 -45.5t99.5 -19zM281 738l-42 -129q-4 -9 -13 -9h-4q-9 0 -7 9l42 129q3 10 13 10h4q9 0 7 -10zM443 738l-42 -129q-4 -9 -13 -9h-4q-9 0 -7 9l42 129
q3 10 13 10h4q9 0 7 -10z" />
    <glyph glyph-name="OE" unicode="&#x152;" horiz-adv-x="991" 
d="M838 335h-328v-314h411q10 0 10 -10v-1q0 -10 -10 -10h-435q-35 -7 -84 -7q-76 0 -136.5 23t-98 59.5t-62.5 85t-35 96t-10 95.5q0 46 10 92.5t35 95t62.5 85.5t98 60.5t136.5 23.5q46 0 87 -9h432q10 0 10 -10v-1q0 -10 -10 -10h-411v-322h328q10 0 10 -10v-2
q0 -10 -10 -10zM402 689q-79 0 -140 -27t-94 -65.5t-53.5 -88.5t-26.5 -86.5t-6 -69.5t6 -70t26.5 -87t53.5 -89t94 -66.5t140 -27.5q47 0 85 7v661q-39 9 -85 9z" />
    <glyph glyph-name="oe" unicode="&#x153;" horiz-adv-x="1023" 
d="M949 62l1 -1q6 -8 -2 -14q-84 -55 -164 -55q-99 0 -158.5 49.5t-79.5 124.5q-20 -75 -78.5 -124.5t-158.5 -49.5q-68 0 -119 24.5t-78 64.5t-39.5 82.5t-12.5 86.5q0 43 12.5 85t39.5 82.5t78 65.5t119 25q100 0 158.5 -49.5t78.5 -124.5q20 76 78.5 126.5t159.5 50.5
q93 0 143.5 -55.5t50.5 -151.5q0 -4 -0.5 -13.5t-0.5 -15.5q-2 -10 -11 -10h-408q0 -110 56 -180.5t170 -70.5q71 0 151 50q7 7 14 -2zM309 11q53 0 94 17t64.5 41t39 56.5t21 58t7.5 50.5v18v15q-2 25 -7.5 51t-21.5 58t-39.5 56t-64.5 40.5t-93 16.5q-56 0 -99.5 -19.5
t-66.5 -46.5t-37.5 -62.5t-18.5 -61.5t-4 -49t4 -49t18.5 -61.5t37.5 -62.5t66.5 -46.5t99.5 -19.5zM783 490q-196 0 -224 -205h396q6 90 -36 145.5t-136 59.5z" />
    <glyph glyph-name="Racute" unicode="&#x154;" horiz-adv-x="650" 
d="M123 278v-268q0 -10 -10 -10h-3q-10 0 -10 10v680q0 10 10 10h245q65 0 113 -19.5t73.5 -52t37 -67t11.5 -71.5q0 -88 -59 -145t-140 -66l132 -270q2 -3 0 -6t-6 -3h-6q-11 0 -14 9l-130 269h-244zM123 300h242q94 2 149 58t55 132q0 81 -55 135t-153 54h-238v-379z
M215 818l124 82q7 7 14 -2l2 -2q6 -8 -2 -14l-124 -82q-8 -8 -14 2l-2 2q-6 8 2 14z" />
    <glyph glyph-name="racute" unicode="&#x155;" horiz-adv-x="337" 
d="M325 497v-2q-2 -11 -12 -9h-21q-46 0 -99.5 -26.5t-89.5 -68.5v-381q0 -10 -10 -10h-3q-10 0 -10 10v480q0 10 10 10t10 -10l3 -68q86 86 195 86h19q10 -2 8 -11zM105 618l124 82q7 7 14 -2l2 -2q6 -8 -2 -14l-124 -82q-8 -8 -14 2l-2 2q-6 8 2 14z" />
    <glyph glyph-name="Rcommaaccent" unicode="&#x156;" horiz-adv-x="650" 
d="M123 278v-268q0 -10 -10 -10h-3q-10 0 -10 10v680q0 10 10 10h245q65 0 113 -19.5t73.5 -52t37 -67t11.5 -71.5q0 -88 -59 -145t-140 -66l132 -270q2 -3 0 -6t-6 -3h-6q-11 0 -14 9l-130 269h-244zM123 300h242q94 2 149 58t55 132q0 81 -55 135t-153 54h-238v-379z
M281 -221q-7 4 -4 10q24 63 20 91q-18 0 -18 18q0 9 6 15t14 6q21 0 21 -22q0 -47 -29 -113q-3 -7 -10 -5z" />
    <glyph glyph-name="rcommaaccent" unicode="&#x157;" horiz-adv-x="347" 
d="M325 497v-2q-2 -11 -12 -9h-21q-46 0 -99.5 -26.5t-89.5 -68.5v-381q0 -10 -10 -10h-3q-10 0 -10 10v480q0 10 10 10t10 -10l3 -68q86 86 195 86h19q10 -2 8 -11zM75 -221q-7 4 -4 10q24 63 20 91q-18 0 -18 18q0 9 6 15t14 6q21 0 21 -22q0 -47 -29 -113q-3 -7 -10 -5z
" />
    <glyph glyph-name="Rcaron" unicode="&#x158;" horiz-adv-x="650" 
d="M123 278v-268q0 -10 -10 -10h-3q-10 0 -10 10v680q0 10 10 10h245q65 0 113 -19.5t73.5 -52t37 -67t11.5 -71.5q0 -88 -59 -145t-140 -66l132 -270q2 -3 0 -6t-6 -3h-6q-11 0 -14 9l-130 269h-244zM123 300h242q94 2 149 58t55 132q0 81 -55 135t-153 54h-238v-379z
M151 899l118 -79l118 79q7 7 14 -2l2 -2q6 -8 -2 -14l-124 -82q-8 -6 -16 0l-124 82q-8 6 -2 14l2 2q7 9 14 2z" />
    <glyph glyph-name="rcaron" unicode="&#x159;" horiz-adv-x="330" 
d="M304 497v-2q-2 -11 -12 -9h-21q-46 0 -99.5 -26.5t-89.5 -68.5v-381q0 -10 -10 -10h-3q-10 0 -10 10v480q0 10 10 10t10 -10l3 -68q86 86 195 86h19q10 -2 8 -11zM52 699l118 -79l118 79q7 7 14 -2l2 -2q6 -8 -2 -14l-124 -82q-8 -6 -16 0l-124 82q-8 6 -2 14l2 2
q7 9 14 2z" />
    <glyph glyph-name="Sacute" unicode="&#x15a;" horiz-adv-x="580" 
d="M84 545q0 -51 32.5 -85.5t80.5 -50.5t105 -34.5t105 -37.5t80.5 -61t32.5 -103q0 -75 -64.5 -128t-166.5 -53q-118 0 -217 44q-6 2 -6 9q0 3 1 4l1 3q2 6 9 6q1 0 2 -0.5t2 -0.5q101 -44 200 -44q85 0 147.5 42.5t66.5 114.5q0 50 -24 86t-62.5 55.5t-84.5 34t-92.5 28.5
t-85 33t-62.5 53t-24 82q0 83 55.5 124.5t146.5 41.5q84 0 198 -40q6 -2 6 -8v-2l-1 -2v-3q-3 -7 -10 -7q-3 0 -4 1q-117 39 -188 39q-175 0 -179 -141zM221 818l124 82q2 2 5 2q5 0 9 -4l2 -2q2 -4 2 -6q0 -4 -4 -8l-124 -82q-3 -3 -6 -3q-5 0 -8 5l-2 2q-2 2 -2 6q0 5 4 8
z" />
    <glyph glyph-name="sacute" unicode="&#x15b;" horiz-adv-x="463" 
d="M82 385q0 -43 33 -68.5t80 -37.5t94.5 -26t80.5 -45t33 -82q0 -57 -49 -95t-123 -38q-43 0 -103 13.5t-60 31.5q0 4 4.5 8t8.5 4q1 0 2 -0.5t2 -0.5q73 -35 143 -35q61 0 106 31t45 84q0 42 -33 68t-80 39.5t-93.5 27.5t-79.5 42t-33 73q0 65 41 97t107 32q74 0 146 -27
q6 -1 6 -10q0 -3 -4 -7.5t-8 -4.5q-2 0 -3 1q-75 25 -129 25q-58 0 -93 -21t-41 -79zM163 618l124 82q2 2 5 2q5 0 9 -4l2 -2q2 -4 2 -6q0 -4 -4 -8l-124 -82q-3 -3 -6 -3q-5 0 -8 5l-2 2q-2 2 -2 6q0 5 4 8z" />
    <glyph glyph-name="Scircumflex" unicode="&#x15c;" horiz-adv-x="580" 
d="M84 545q0 -51 32.5 -85.5t80.5 -50.5t105 -34.5t105 -37.5t80.5 -61t32.5 -103q0 -75 -64.5 -128t-166.5 -53q-118 0 -217 44q-6 2 -6 9q0 3 1 4l1 3q2 6 9 6q1 0 2 -0.5t2 -0.5q101 -44 200 -44q85 0 147.5 42.5t66.5 114.5q0 50 -24 86t-62.5 55.5t-84.5 34t-92.5 28.5
t-85 33t-62.5 53t-24 82q0 83 55.5 124.5t146.5 41.5q84 0 198 -40q6 -2 6 -8v-2l-1 -2v-3q-3 -7 -10 -7q-3 0 -4 1q-117 39 -188 39q-175 0 -179 -141zM290 878l-118 -79q-3 -3 -6 -3q-5 0 -8 5l-2 2q-2 2 -2 6q0 5 4 8l124 82q3 3 8 3q4 0 8 -3l124 -82q4 -4 4 -8t-2 -6
l-2 -2q-3 -5 -8 -5q-3 0 -6 3z" />
    <glyph glyph-name="scircumflex" unicode="&#x15d;" horiz-adv-x="463" 
d="M82 385q0 -43 33 -68.5t80 -37.5t94.5 -26t80.5 -45t33 -82q0 -57 -49 -95t-123 -38q-43 0 -103 13.5t-60 31.5q0 4 4.5 8t8.5 4q1 0 2 -0.5t2 -0.5q73 -35 143 -35q61 0 106 31t45 84q0 42 -33 68t-80 39.5t-93.5 27.5t-79.5 42t-33 73q0 65 41 97t107 32q74 0 146 -27
q6 -1 6 -10q0 -3 -4 -7.5t-8 -4.5q-2 0 -3 1q-75 25 -129 25q-58 0 -93 -21t-41 -79zM232 678l-118 -79q-3 -3 -6 -3q-5 0 -8 5l-2 2q-2 2 -2 6q0 5 4 8l124 82q3 3 8 3q4 0 8 -3l124 -82q4 -4 4 -8t-2 -6l-2 -2q-3 -5 -8 -5q-3 0 -6 3z" />
    <glyph glyph-name="Scedilla" unicode="&#x15e;" horiz-adv-x="580" 
d="M272 -62q-2 4 -2 6v48q-108 4 -198 44q-9 4 -5 13l1 3q4 9 13 5q101 -44 200 -44q85 0 147.5 42.5t66.5 114.5q0 50 -24 86t-62.5 55.5t-84.5 34t-92.5 28.5t-85 33t-62.5 53t-24 82q0 83 55.5 124.5t146.5 41.5q84 0 198 -40q9 -2 5 -12v-3q-4 -9 -14 -6
q-117 39 -188 39q-175 0 -179 -141q0 -51 32.5 -85.5t80.5 -50.5t105 -34.5t105 -37.5t80.5 -61t32.5 -103q0 -75 -63.5 -128t-164.5 -53v-36h12q43 0 68 -21.5t25 -56.5q0 -40 -27.5 -63t-67.5 -23t-75 18q-7 4 -4 13q6 8 13 4q34 -15 66 -15q31 0 52 17t21 47q0 60 -82 60
h-15q-2 0 -6 2z" />
    <glyph glyph-name="scedilla" unicode="&#x15f;" horiz-adv-x="463" 
d="M215 -62q-2 4 -2 6v50q-78 4 -139 34q-9 5 -5 14l2 2q5 9 14 5q73 -35 143 -35q61 0 106 31t45 84q0 42 -33 68t-80 39.5t-93.5 27.5t-79.5 42t-33 73q0 65 41 97t107 32q74 0 146 -27q8 -2 6 -12q0 -1 -1 -1l-1 -2q-4 -10 -13 -6q-75 25 -129 25q-58 0 -93 -21t-41 -79
q0 -43 33 -68.5t80 -37.5t94.5 -26t80.5 -45t33 -82q0 -57 -47.5 -94t-120.5 -39v-37h12q43 0 68 -21.5t25 -56.5q0 -40 -27.5 -63t-67.5 -23q-41 0 -75 18q-7 4 -4 13q6 8 13 4q34 -15 66 -15q31 0 52 17t21 47q0 60 -82 60h-15q-2 0 -6 2z" />
    <glyph glyph-name="Scaron" unicode="&#x160;" horiz-adv-x="580" 
d="M84 545q0 -51 32.5 -85.5t80.5 -50.5t105 -34.5t105 -37.5t80.5 -61t32.5 -103q0 -75 -64.5 -128t-166.5 -53q-118 0 -217 44q-6 2 -6 9q0 3 1 4l1 3q2 6 9 6q1 0 2 -0.5t2 -0.5q101 -44 200 -44q85 0 147.5 42.5t66.5 114.5q0 50 -24 86t-62.5 55.5t-84.5 34t-92.5 28.5
t-85 33t-62.5 53t-24 82q0 83 55.5 124.5t146.5 41.5q84 0 198 -40q6 -2 6 -8v-2l-1 -2v-3q-3 -7 -10 -7q-3 0 -4 1q-117 39 -188 39q-175 0 -179 -141zM149 899l118 -79l118 79q2 2 5 2q5 0 9 -4l2 -2q2 -4 2 -6q0 -4 -4 -8l-124 -82q-5 -3 -8 -3q-5 0 -8 3l-124 82
q-4 3 -4 8q0 2 2 6l2 2q4 4 8 4q2 0 6 -2z" />
    <glyph glyph-name="scaron" unicode="&#x161;" horiz-adv-x="465" 
d="M83 385q0 -42 33 -67.5t80 -38.5t94.5 -26.5t80.5 -45t33 -82.5q0 -57 -49 -94.5t-123 -37.5q-43 0 -103 13.5t-60 31.5q0 4 4.5 8t8.5 4h2l2 -1q73 -35 143 -35q61 0 106 31t45 84q0 42 -33 68.5t-80 39.5t-93.5 27t-79.5 42t-33 73q0 64 41 96.5t107 32.5q74 0 146 -27
q6 -1 6 -10q0 -3 -4 -7.5t-8 -4.5q-2 0 -3 1q-73 25 -133 25q-121 0 -130 -100zM95 699l118 -79l118 79q2 2 5 2q5 0 9 -4l2 -2q2 -4 2 -6q0 -4 -4 -8l-124 -82q-5 -3 -8 -3q-5 0 -8 3l-124 82q-4 3 -4 8q0 2 2 6l2 2q4 4 8 4q2 0 6 -2z" />
    <glyph glyph-name="Tcommaaccent" unicode="&#x162;" horiz-adv-x="586" 
d="M305 679v-669q0 -10 -10 -10h-3q-10 0 -10 10v669h-227q-10 0 -10 10v1q0 10 10 10h476q10 0 10 -10v-1q0 -10 -10 -10h-226zM277 -221q-7 4 -4 10q24 63 20 91q-18 0 -18 18q0 9 6 15t14 6q21 0 21 -22q0 -47 -29 -113q-3 -7 -10 -5z" />
    <glyph glyph-name="tcommaaccent" unicode="&#x163;" horiz-adv-x="273" 
d="M81 477h-61q-10 0 -10 10v3q0 10 10 10h61l4 77q0 10 9 10q10 0 10 -10v-77h124q10 0 10 -10v-3q0 -10 -10 -10h-124v-372q0 -54 25.5 -71.5t66.5 -17.5q23 0 53 8q9 4 11 -6q3 -8 -6 -12q-34 -10 -71 -10q-102 0 -102 107v374zM120 -221q-7 4 -4 10q24 63 20 91
q-18 0 -18 18q0 9 6 15t14 6q21 0 21 -22q0 -47 -29 -113q-3 -7 -10 -5z" />
    <glyph glyph-name="Tcaron" unicode="&#x164;" horiz-adv-x="586" 
d="M305 679v-669q0 -10 -10 -10h-3q-10 0 -10 10v669h-227q-10 0 -10 10v1q0 10 10 10h476q10 0 10 -10v-1q0 -10 -10 -10h-226zM175 899l118 -79l118 79q7 7 14 -2l2 -2q6 -8 -2 -14l-124 -82q-8 -6 -16 0l-124 82q-8 6 -2 14l2 2q7 9 14 2z" />
    <glyph glyph-name="tcaron" unicode="&#x165;" horiz-adv-x="340" 
d="M81 477h-61q-10 0 -10 10v3q0 10 10 10h61l4 77q0 10 9 10q10 0 10 -10v-77h124q10 0 10 -10v-3q0 -10 -10 -10h-124v-372q0 -54 25.5 -71.5t66.5 -17.5q23 0 53 8q9 4 11 -6q3 -8 -6 -12q-34 -10 -71 -10q-102 0 -102 107v374zM294 555q-6 4 -3 9q31 67 26 106
q-18 0 -18 18q0 9 6 15t14 6q21 0 21 -22q0 -48 -36 -129q-4 -6 -10 -3z" />
    <glyph glyph-name="Tbar" unicode="&#x166;" horiz-adv-x="586" 
d="M305 337v-327q0 -10 -10 -10h-3q-10 0 -10 10v327h-128q-10 0 -10 10t10 10h128v322h-227q-10 0 -10 10v1q0 10 10 10h476q10 0 10 -10v-1q0 -10 -10 -10h-226v-322h130q10 0 10 -10t-10 -10h-130z" />
    <glyph glyph-name="tbar" unicode="&#x167;" horiz-adv-x="273" 
d="M81 477h-61q-10 0 -10 10v3q0 10 10 10h61l4 77q0 10 9 10q10 0 10 -10v-77h124q10 0 10 -10v-3q0 -10 -10 -10h-124v-166h128q10 0 10 -10v-3q0 -10 -10 -10h-128v-181q0 -54 25.5 -71.5t66.5 -17.5q23 0 53 8q9 4 11 -6q3 -8 -6 -12q-34 -10 -71 -10q-102 0 -102 107
v183h-61q-10 0 -10 10v3q0 10 10 10h61v166z" />
    <glyph glyph-name="Utilde" unicode="&#x168;" horiz-adv-x="715" 
d="M356 16q57 0 102 17t71 43t42.5 60t22.5 64t6 60v430q0 10 10 10h5q10 0 10 -10v-429q0 -46 -14.5 -91t-44.5 -86t-84.5 -66t-125.5 -25q-70 0 -123.5 25t-83.5 66t-44.5 86t-14.5 91v429q0 10 10 10h2q10 0 10 -10v-430q0 -28 6 -58t23.5 -64.5t43.5 -60.5t70.5 -43.5
t100.5 -17.5zM487 854l2 -1q4 -4 4 -8q0 -3 -2 -5q-29 -44 -74 -44q-32 0 -63 23.5t-55 23.5q-35 0 -57 -36q-3 -6 -10 -6q-3 0 -4 1h-1q-6 2 -6 9q0 3 1 4q28 50 78 50q28 0 61 -24t55 -24q32 0 57 35q4 4 8 4q2 0 6 -2z" />
    <glyph glyph-name="utilde" unicode="&#x169;" 
d="M463 500h3q10 0 10 -10v-480q0 -10 -10 -10t-10 10l-3 68q-86 -86 -195 -86q-49 0 -86 15t-58 38t-33.5 57.5t-16.5 67t-4 72.5v248q0 10 10 10h3q10 0 10 -10v-248q0 -129 47.5 -178.5t133.5 -49.5q46 0 99.5 26.5t89.5 68.5v381q0 10 10 10zM407 654l2 -1q9 -6 2 -13
q-31 -46 -77 -44q-33 1 -62 25q-30 22 -53 22q-35 0 -57 -36q-5 -9 -14 -5h-1q-9 4 -5 13q28 50 78 50q28 0 59 -23q35 -25 57 -25q32 0 57 35q7 7 14 2z" />
    <glyph glyph-name="Umacron" unicode="&#x16a;" horiz-adv-x="715" 
d="M356 16q57 0 102 17t71 43t42.5 60t22.5 64t6 60v430q0 10 10 10h5q10 0 10 -10v-429q0 -46 -14.5 -91t-44.5 -86t-84.5 -66t-125.5 -25q-70 0 -123.5 25t-83.5 66t-44.5 86t-14.5 91v429q0 10 10 10h2q10 0 10 -10v-430q0 -28 6 -58t23.5 -64.5t43.5 -60.5t70.5 -43.5
t100.5 -17.5zM217 822h281q10 0 10 -10v-2q0 -10 -10 -10h-281q-10 0 -10 10v2q0 10 10 10z" />
    <glyph glyph-name="umacron" unicode="&#x16b;" 
d="M463 500h3q10 0 10 -10v-480q0 -10 -10 -10t-10 10l-3 68q-86 -86 -195 -86q-49 0 -86 15t-58 38t-33.5 57.5t-16.5 67t-4 72.5v248q0 10 10 10h3q10 0 10 -10v-248q0 -129 47.5 -178.5t133.5 -49.5q46 0 99.5 26.5t89.5 68.5v381q0 10 10 10zM137 622h281q10 0 10 -10
v-2q0 -10 -10 -10h-281q-10 0 -10 10v2q0 10 10 10z" />
    <glyph glyph-name="Ubreve" unicode="&#x16c;" horiz-adv-x="715" 
d="M356 16q57 0 102 17t71 43t42.5 60t22.5 64t6 60v430q0 10 10 10h5q10 0 10 -10v-429q0 -46 -14.5 -91t-44.5 -86t-84.5 -66t-125.5 -25q-70 0 -123.5 25t-83.5 66t-44.5 86t-14.5 91v429q0 10 10 10h2q10 0 10 -10v-430q0 -28 6 -58t23.5 -64.5t43.5 -60.5t70.5 -43.5
t100.5 -17.5zM471 893h1q6 -1 6 -8q0 -1 -0.5 -2t-0.5 -2q-39 -84 -120 -84q-84 0 -120 84q-1 1 -1 4q0 9 11 9q7 0 10 -7q32 -71 100 -71t101 72q2 6 9 6h2q1 -1 2 -1z" />
    <glyph glyph-name="ubreve" unicode="&#x16d;" 
d="M463 500h3q10 0 10 -10v-480q0 -10 -10 -10t-10 10l-3 68q-86 -86 -195 -86q-49 0 -86 15t-58 38t-33.5 57.5t-16.5 67t-4 72.5v248q0 10 10 10h3q10 0 10 -10v-248q0 -129 47.5 -178.5t133.5 -49.5q46 0 99.5 26.5t89.5 68.5v381q0 10 10 10zM392 693h1q9 -2 5 -12
q-39 -84 -120 -84q-84 0 -120 84q-4 9 6 12q9 3 14 -6q32 -71 100 -71t101 72q4 9 13 5z" />
    <glyph glyph-name="Uring" unicode="&#x16e;" horiz-adv-x="715" 
d="M272 875q0 36 25 61t61 25q35 0 60 -25t25 -61q0 -35 -25 -60t-60 -25q-36 0 -61 25t-25 60zM295 875q0 -25 18.5 -43.5t44.5 -18.5q25 0 43.5 18.5t18.5 43.5q0 26 -18.5 44.5t-43.5 18.5q-26 0 -44.5 -18.5t-18.5 -44.5zM356 16q57 0 102 17t71 43t42.5 60t22.5 64
t6 60v430q0 10 10 10h5q10 0 10 -10v-429q0 -46 -14.5 -91t-44.5 -86t-84.5 -66t-125.5 -25q-70 0 -123.5 25t-83.5 66t-44.5 86t-14.5 91v429q0 10 10 10h2q10 0 10 -10v-430q0 -28 6 -58t23.5 -64.5t43.5 -60.5t70.5 -43.5t100.5 -17.5z" />
    <glyph glyph-name="uring" unicode="&#x16f;" 
d="M192 675q0 36 25 61t61 25q35 0 60 -25t25 -61q0 -35 -25 -60t-60 -25q-36 0 -61 25t-25 60zM215 675q0 -25 18.5 -43.5t44.5 -18.5q25 0 43.5 18.5t18.5 43.5q0 26 -18.5 44.5t-43.5 18.5q-26 0 -44.5 -18.5t-18.5 -44.5zM463 500h3q10 0 10 -10v-480q0 -10 -10 -10
t-10 10l-3 68q-86 -86 -195 -86q-49 0 -86 15t-58 38t-33.5 57.5t-16.5 67t-4 72.5v248q0 10 10 10h3q10 0 10 -10v-248q0 -129 47.5 -178.5t133.5 -49.5q46 0 99.5 26.5t89.5 68.5v381q0 10 10 10z" />
    <glyph glyph-name="Uhungarumlaut" unicode="&#x170;" horiz-adv-x="715" 
d="M356 16q57 0 102 17t71 43t42.5 60t22.5 64t6 60v430q0 10 10 10h5q10 0 10 -10v-429q0 -46 -14.5 -91t-44.5 -86t-84.5 -66t-125.5 -25q-70 0 -123.5 25t-83.5 66t-44.5 86t-14.5 91v429q0 10 10 10h2q10 0 10 -10v-430q0 -28 6 -58t23.5 -64.5t43.5 -60.5t70.5 -43.5
t100.5 -17.5zM309 938l-42 -129q-4 -9 -13 -9h-4q-7 0 -7 7v2l42 129q3 10 13 10h4q7 0 7 -8v-2zM471 938l-42 -129q-4 -9 -13 -9h-4q-7 0 -7 7v2l42 129q3 10 13 10h4q7 0 7 -8v-2z" />
    <glyph glyph-name="uhungarumlaut" unicode="&#x171;" 
d="M463 500h3q10 0 10 -10v-480q0 -10 -10 -10t-10 10l-3 68q-86 -86 -195 -86q-49 0 -86 15t-58 38t-33.5 57.5t-16.5 67t-4 72.5v248q0 10 10 10h3q10 0 10 -10v-248q0 -129 47.5 -178.5t133.5 -49.5q46 0 99.5 26.5t89.5 68.5v381q0 10 10 10zM230 738l-42 -129
q-4 -9 -13 -9h-4q-9 0 -7 9l42 129q3 10 13 10h4q9 0 7 -10zM392 738l-42 -129q-4 -9 -13 -9h-4q-9 0 -7 9l42 129q3 10 13 10h4q9 0 7 -10z" />
    <glyph glyph-name="Uogonek" unicode="&#x172;" horiz-adv-x="715" 
d="M356 16q57 0 102 17t71 43t42.5 60t22.5 64t6 60v430q0 10 10 10h5q10 0 10 -10v-429q0 -87 -49.5 -163.5t-151.5 -97.5v-6q0 -14 -25 -53t-25 -60q0 -40 24.5 -60.5t60.5 -20.5q30 0 55 12h2l2 1q4 0 7.5 -3.5t3.5 -7.5q0 -11 -24 -17t-42 -6q-49 0 -80.5 25.5
t-31.5 74.5q0 29 27 68t27 48v2q-21 -4 -49 -4q-70 0 -123.5 25t-83.5 66t-44.5 86t-14.5 91v429q0 10 10 10h2q10 0 10 -10v-430q0 -28 6 -58t23.5 -64.5t43.5 -60.5t70.5 -43.5t100.5 -17.5z" />
    <glyph glyph-name="uogonek" unicode="&#x173;" horiz-adv-x="565" 
d="M580 -193q1 -2 1 -5q0 -11 -24 -17t-42 -6q-49 0 -80.5 25.5t-31.5 74.5q0 29 26.5 67.5t26.5 48.5l-3 83q-86 -86 -195 -86q-49 0 -86 15t-58 38t-33.5 57.5t-16.5 67t-4 72.5v248q0 10 10 10h3q10 0 10 -10v-248q0 -129 47.5 -178.5t133.5 -49.5q46 0 99.5 26.5
t89.5 68.5v381q0 10 10 10h3q10 0 10 -10v-496q0 -14 -25 -53t-25 -60q0 -40 24.5 -60.5t60.5 -20.5q30 0 55 12h2l2 1q7 0 10 -6z" />
    <glyph glyph-name="Wcircumflex" unicode="&#x174;" horiz-adv-x="1226" 
d="M1192 691l-284 -691q-5 -9 -14 -9q-10 0 -14 9l-266 670l-267 -670q-5 -9 -14 -9q-10 0 -14 9l-285 691q-2 3 0 6t6 3h2q9 0 14 -9l278 -669l268 677q4 7 10 7q8 0 11 -7l272 -677l275 669q4 9 14 9h2q4 0 6 -3t0 -6zM613 878l-118 -79q-8 -8 -14 2l-2 2q-6 8 2 14
l124 82q8 6 16 0l124 -82q8 -6 2 -14l-2 -2q-6 -10 -14 -2z" />
    <glyph glyph-name="wcircumflex" unicode="&#x175;" horiz-adv-x="900" 
d="M853 500h7q4 0 6 -3t0 -6l-206 -489q-4 -7 -11 -7t-10 7l-189 459l-190 -460q-4 -6 -10 -6t-10 6l-206 490q-2 3 0 6t6 3h6q9 0 14 -9l191 -455l187 461q3 8 12 8t12 -8l188 -461l189 455q4 9 14 9zM450 678l-118 -79q-8 -8 -14 2l-2 2q-6 8 2 14l124 82q8 6 16 0
l124 -82q8 -6 2 -14l-2 -2q-6 -10 -14 -2z" />
    <glyph glyph-name="Ycircumflex" unicode="&#x176;" horiz-adv-x="600" 
d="M288 10v310l-252 372q-2 2 -0.5 5t4.5 3h7q10 0 16 -8l237 -349l237 349q6 8 16 8h7q3 0 4.5 -3t-0.5 -5l-252 -372v-310q0 -10 -10 -10h-4q-10 0 -10 10zM300 878l-118 -79q-8 -8 -14 2l-2 2q-6 8 2 14l124 82q8 6 16 0l124 -82q8 -6 2 -14l-2 -2q-6 -10 -14 -2z" />
    <glyph glyph-name="ycircumflex" unicode="&#x177;" horiz-adv-x="531" 
d="M266 32l204 459q4 9 14 9h7q4 0 6 -3t0 -6l-310 -697q-4 -9 -14 -9h-6q-4 0 -6 3t0 6l92 207l-219 490q-2 3 0 6t6 3h7q10 0 14 -9zM265 678l-118 -79q-8 -8 -14 2l-2 2q-6 8 2 14l124 82q8 6 16 0l124 -82q8 -6 2 -14l-2 -2q-6 -10 -14 -2z" />
    <glyph glyph-name="Ydieresis" unicode="&#x178;" horiz-adv-x="600" 
d="M139 821q0 8 6.5 14t14.5 6t14 -6t6 -14t-6 -14.5t-14 -6.5t-14.5 6.5t-6.5 14.5zM419 821q0 8 6.5 14t14.5 6t14 -6t6 -14t-6 -14.5t-14 -6.5t-14.5 6.5t-6.5 14.5zM288 10v310l-252 372q-2 2 -0.5 5t4.5 3h7q10 0 16 -8l237 -349l237 349q6 8 16 8h7q3 0 4.5 -3
t-0.5 -5l-252 -372v-310q0 -10 -10 -10h-4q-10 0 -10 10z" />
    <glyph glyph-name="Zacute" unicode="&#x179;" horiz-adv-x="614" 
d="M100 20l444 1q10 0 10 -10v-1q0 -10 -10 -10h-464q-10 0 -10 10v2q0 10 6 18l435 649h-427q-10 0 -10 10v1q0 10 10 10h448q10 0 10 -10v-1q0 -11 -6 -18zM238 818l124 82q7 7 14 -2l2 -2q6 -8 -2 -14l-124 -82q-8 -8 -14 2l-2 2q-6 8 2 14z" />
    <glyph glyph-name="zacute" unicode="&#x17a;" horiz-adv-x="461" 
d="M64 487v3q0 10 10 10h324q10 0 10 -10t-6 -18l-318 -449h320q10 0 10 -10v-3q0 -10 -10 -10h-339q-10 0 -10 10v1q0 11 6 18l315 448h-302q-10 0 -10 10zM157 615l124 82q7 7 14 -2l2 -2q6 -8 -2 -14l-124 -82q-8 -8 -14 2l-2 2q-6 8 2 14z" />
    <glyph glyph-name="Zdotaccent" unicode="&#x17b;" horiz-adv-x="614" 
d="M286 818q0 8 6.5 14.5t14.5 6.5t14 -6.5t6 -14.5t-6 -14t-14 -6t-14.5 6t-6.5 14zM100 20l444 1q10 0 10 -10v-1q0 -10 -10 -10h-464q-10 0 -10 10v2q0 10 6 18l435 649h-427q-10 0 -10 10v1q0 10 10 10h448q10 0 10 -10v-1q0 -11 -6 -18z" />
    <glyph glyph-name="zdotaccent" unicode="&#x17c;" horiz-adv-x="461" 
d="M210 618q0 8 6.5 14.5t14.5 6.5t14 -6.5t6 -14.5t-6 -14t-14 -6t-14.5 6t-6.5 14zM64 487v3q0 10 10 10h324q10 0 10 -10t-6 -18l-318 -449h320q10 0 10 -10v-3q0 -10 -10 -10h-339q-10 0 -10 10v1q0 11 6 18l315 448h-302q-10 0 -10 10z" />
    <glyph glyph-name="Zcaron" unicode="&#x17d;" horiz-adv-x="614" 
d="M99 20l445 1q10 0 10 -10v-1q0 -10 -10 -10h-463q-10 0 -10 10v3q0 11 6 18l434 648h-427q-10 0 -10 10v1q0 10 10 10h451q9 0 9 -9t-5 -17zM189 899l118 -79l118 79q7 7 14 -2l2 -2q6 -8 -2 -14l-124 -82q-8 -6 -16 0l-124 82q-8 6 -2 14l2 2q7 9 14 2z" />
    <glyph glyph-name="zcaron" unicode="&#x17e;" horiz-adv-x="461" 
d="M64 487v3q0 10 10 10h324q10 0 10 -10t-6 -18l-318 -449h320q10 0 10 -10v-3q0 -10 -10 -10h-339q-10 0 -10 10v1q0 11 6 18l315 448h-302q-10 0 -10 10zM113 699l118 -79l118 79q7 7 14 -2l2 -2q6 -8 -2 -14l-124 -82q-8 -6 -16 0l-124 82q-8 6 -2 14l2 2q7 9 14 2z" />
    <glyph glyph-name="longs" unicode="&#x17f;" horiz-adv-x="322" 
d="M328 680v-1q-3 -8 -12 -6q-39 14 -76 15q-57 2 -94 -29.5t-37 -98.5v-550q0 -10 -10 -10h-3q-10 0 -10 10v467h-66q-10 0 -10 10v3q0 10 10 10h66v59q0 74 42.5 111t109.5 37q36 0 84 -15q10 -3 6 -12z" />
    <glyph glyph-name="florin" unicode="&#x192;" horiz-adv-x="369" 
d="M-87 -194v1q3 8 13 6q39 -14 76 -15q57 -2 94 29.5t37 98.5v551h-66q-10 0 -10 10v3q0 10 10 10h66v59q0 74 42.5 111t109.5 37q36 0 84 -15q10 -3 6 -12v-1q-3 -8 -12 -6q-39 14 -76 15q-57 2 -94 -29.5t-37 -98.5v-60h122q10 0 10 -10v-3q0 -10 -10 -10h-122v-550
q0 -74 -42.5 -111t-109.5 -37q-36 0 -84 15q-9 2 -7 12z" />
    <glyph glyph-name="Scommaaccent" unicode="&#x218;" horiz-adv-x="580" 
d="M266 -220q-8 2 -4 9q24 63 20 91q-18 0 -18 18q0 9 6 15t14 6q21 0 21 -22q0 -46 -29 -112q-3 -7 -10 -5zM84 545q0 -51 32.5 -85.5t80.5 -50.5t105 -34.5t105 -37.5t80.5 -61t32.5 -103q0 -75 -64.5 -128t-166.5 -53q-118 0 -217 44q-9 4 -5 13l1 3q4 9 13 5
q101 -44 200 -44q85 0 147.5 42.5t66.5 114.5q0 50 -24 86t-62.5 55.5t-84.5 34t-92.5 28.5t-85 33t-62.5 53t-24 82q0 83 55.5 124.5t146.5 41.5q84 0 198 -40q9 -2 5 -12v-3q-4 -9 -14 -6q-117 39 -188 39q-175 0 -179 -141z" />
    <glyph glyph-name="scommaaccent" unicode="&#x219;" horiz-adv-x="465" 
d="M83 385q0 -43 33 -68.5t80 -37.5t94.5 -26t80.5 -45t33 -82q0 -57 -49 -95t-123 -38q-43 0 -103 13.5t-60 31.5q0 4 4.5 8t8.5 4h2l2 -1q73 -35 143 -35q61 0 106 31t45 84q0 42 -33 68t-80 39.5t-93.5 27.5t-79.5 42t-33 73q0 65 41 97t107 32q74 0 146 -27q6 -1 6 -10
q0 -3 -4 -7.5t-8 -4.5q-2 0 -3 1q-75 25 -129 25q-58 0 -93 -21t-41 -79zM216 -220q-5 2 -5 6q0 2 1 3q20 49 20 83q0 6 -9 11t-9 15q0 9 6 15t14 6q21 0 21 -22q0 -25 -12.5 -71t-24.5 -46h-2z" />
    <glyph glyph-name="circumflex" unicode="&#x2c6;" horiz-adv-x="504" 
d="M252 678l-118 -79q-8 -8 -14 2l-2 2q-6 8 2 14l124 82q8 6 16 0l124 -82q8 -6 2 -14l-2 -2q-6 -10 -14 -2z" />
    <glyph glyph-name="caron" unicode="&#x2c7;" horiz-adv-x="504" 
d="M134 699l118 -79l118 79q7 7 14 -2l2 -2q6 -8 -2 -14l-124 -82q-8 -6 -16 0l-124 82q-8 6 -2 14l2 2q7 9 14 2z" />
    <glyph glyph-name="breve" unicode="&#x2d8;" horiz-adv-x="508" 
d="M377 693h1q6 -1 6 -8q0 -1 -0.5 -2t-0.5 -2q-39 -84 -120 -84q-84 0 -120 84q-1 1 -1 4q0 9 11 9q7 0 10 -7q32 -71 100 -71t101 72q2 6 9 6q1 0 2 -0.5t2 -0.5z" />
    <glyph glyph-name="dotaccent" unicode="&#x2d9;" horiz-adv-x="571" 
d="M265 618q0 8 6.5 14.5t14.5 6.5t14 -6.5t6 -14.5t-6 -14t-14 -6t-14.5 6t-6.5 14z" />
    <glyph glyph-name="ring" unicode="&#x2da;" horiz-adv-x="523" 
d="M176 675q0 36 25 61t61 25q35 0 60 -25t25 -61q0 -35 -25 -60t-60 -25q-36 0 -61 25t-25 60zM199 675q0 -25 18.5 -43.5t44.5 -18.5q25 0 43.5 18.5t18.5 43.5q0 26 -18.5 44.5t-43.5 18.5q-26 0 -44.5 -18.5t-18.5 -44.5z" />
    <glyph glyph-name="ogonek" unicode="&#x2db;" horiz-adv-x="608" 
d="M431 -193q1 -2 1 -5q0 -11 -24 -17t-42 -6q-49 0 -80.5 25.5t-31.5 74.5q0 29 27 68t27 48v6q0 10 9 10q10 0 10 -10v-7q0 -14 -25 -53t-25 -60q0 -40 24.5 -60.5t60.5 -20.5q30 0 55 12q1 0 2 0.5t2 0.5q7 0 10 -6z" />
    <glyph glyph-name="tilde" unicode="&#x2dc;" horiz-adv-x="519" 
d="M389 654l2 -1q9 -6 2 -13q-31 -46 -77 -44q-33 1 -62 25q-30 22 -53 22q-35 0 -57 -36q-5 -9 -14 -5h-1q-9 4 -5 13q28 50 78 50q28 0 59 -23q35 -25 57 -25q32 0 57 35q7 7 14 2z" />
    <glyph glyph-name="hungarumlaut" unicode="&#x2dd;" horiz-adv-x="530" 
d="M219 738l-42 -129q-4 -9 -13 -9h-4q-9 0 -7 9l42 129q3 10 13 10h4q9 0 7 -10zM381 738l-42 -129q-4 -9 -13 -9h-4q-9 0 -7 9l42 129q3 10 13 10h4q9 0 7 -10z" />
    <glyph glyph-name="Delta" unicode="&#x394;" horiz-adv-x="712" 
d="M642 0h-572q-4 0 -6 3t0 6l288 691q2 2 3 2q2 0 4 -2l289 -691q2 -3 0 -6t-6 -3zM356 651l-263 -630h526z" />
    <glyph glyph-name="Delta" unicode="&#x2206;" horiz-adv-x="712" 
d="M642 0h-572q-4 0 -6 3t0 6l288 691q2 2 3 2q2 0 4 -2l289 -691q2 -3 0 -6t-6 -3zM356 651l-263 -630h526z" />
    <glyph glyph-name="Omega" unicode="&#x3a9;" horiz-adv-x="850" 
d="M425 708q76 0 137 -23.5t99 -60.5t63.5 -86t35.5 -95.5t10 -93.5q0 -80 -37.5 -170t-126.5 -159h174q10 0 10 -10t-10 -10h-188q-10 0 -10 10v12q0 10 8 16q46 32 79 77t48.5 89.5t22.5 80.5t7 65q0 38 -7 77.5t-28.5 87.5t-55.5 84.5t-94 61.5t-137 25t-137 -25
t-94 -61.5t-55.5 -84.5t-28.5 -87.5t-7 -77.5q0 -29 7 -65t22.5 -80.5t48.5 -89.5t79 -77q8 -6 8 -16v-12q0 -10 -10 -10h-188q-10 0 -10 10t10 10h174q-89 69 -126.5 159t-37.5 170q0 47 10 93.5t35 95.5t63 86t99.5 60.5t137.5 23.5z" />
    <glyph glyph-name="Omega" unicode="&#x2126;" horiz-adv-x="850" 
d="M425 708q76 0 137 -23.5t99 -60.5t63.5 -86t35.5 -95.5t10 -93.5q0 -80 -37.5 -170t-126.5 -159h174q10 0 10 -10t-10 -10h-188q-10 0 -10 10v12q0 10 8 16q46 32 79 77t48.5 89.5t22.5 80.5t7 65q0 38 -7 77.5t-28.5 87.5t-55.5 84.5t-94 61.5t-137 25t-137 -25
t-94 -61.5t-55.5 -84.5t-28.5 -87.5t-7 -77.5q0 -29 7 -65t22.5 -80.5t48.5 -89.5t79 -77q8 -6 8 -16v-12q0 -10 -10 -10h-188q-10 0 -10 10t10 10h174q-89 69 -126.5 159t-37.5 170q0 47 10 93.5t35 95.5t63 86t99.5 60.5t137.5 23.5z" />
    <glyph glyph-name="pi" unicode="&#x3c0;" horiz-adv-x="611" 
d="M481 -3q-102 0 -102 107v374h-211v-468q0 -10 -10 -10h-3q-10 0 -10 10v468h-85q-10 0 -10 10v2q0 10 10 10h473q10 0 10 -10v-2q0 -10 -10 -10h-131v-372q0 -54 25.5 -71.5t66.5 -17.5q23 0 53 8q9 4 11 -6q3 -8 -6 -12q-34 -10 -71 -10z" />
    <glyph glyph-name="endash" unicode="&#x2013;" horiz-adv-x="550" 
d="M90 331h370q10 0 10 -10v-2q0 -10 -10 -10h-370q-10 0 -10 10v2q0 10 10 10z" />
    <glyph glyph-name="emdash" unicode="&#x2014;" horiz-adv-x="671" 
d="M90 331h491q10 0 10 -10v-2q0 -10 -10 -10h-491q-10 0 -10 10v2q0 10 10 10z" />
    <glyph glyph-name="quoteleft" unicode="&#x2018;" horiz-adv-x="172" 
d="M105 706q6 -3 4 -10q-12 -24 -20 -56.5t-6 -48.5q18 0 18 -18q0 -9 -6 -15t-14 -6q-21 0 -21 22q0 54 36 128q4 8 9 4z" />
    <glyph glyph-name="quoteright" unicode="&#x2019;" horiz-adv-x="172" 
d="M66 555q-6 4 -3 9q31 67 26 106q-18 0 -18 18q0 9 6 15t14 6q21 0 21 -22q0 -48 -36 -129q-4 -6 -10 -3z" />
    <glyph glyph-name="quotesinglbase" unicode="&#x201a;" horiz-adv-x="212" 
d="M86 -117q-6 4 -3 9q31 67 26 106q-18 0 -18 18q0 9 6 15t14 6q21 0 21 -22q0 -48 -36 -129q-4 -6 -10 -3z" />
    <glyph glyph-name="quotedblleft" unicode="&#x201c;" horiz-adv-x="256" 
d="M105 706q6 -3 4 -10q-12 -24 -20 -56.5t-6 -48.5q18 0 18 -18q0 -9 -6 -15t-14 -6q-21 0 -21 22q0 54 36 128q4 8 9 4zM189 706q6 -3 4 -10q-12 -24 -20 -56.5t-6 -48.5q18 0 18 -18q0 -9 -6 -15t-14 -6q-21 0 -21 22q0 54 36 128q4 8 9 4z" />
    <glyph glyph-name="quotedblright" unicode="&#x201d;" horiz-adv-x="256" 
d="M150 555q-6 4 -3 9q31 67 26 106q-18 0 -18 18q0 9 6 15t14 6q21 0 21 -22q0 -48 -36 -129q-4 -6 -10 -3zM66 555q-6 4 -3 9q31 67 26 106q-18 0 -18 18q0 9 6 15t14 6q21 0 21 -22q0 -48 -36 -129q-4 -6 -10 -3z" />
    <glyph glyph-name="quotedblbase" unicode="&#x201e;" horiz-adv-x="282" 
d="M86 -117q-6 4 -3 9q31 67 26 106q-18 0 -18 18q0 9 6 15t14 6q21 0 21 -22q0 -48 -36 -129q-4 -6 -10 -3zM196 -117q-6 4 -3 9q31 67 26 106q-18 0 -18 18q0 9 6 15t14 6q21 0 21 -22q0 -48 -36 -129q-4 -6 -10 -3z" />
    <glyph glyph-name="dagger" unicode="&#x2020;" horiz-adv-x="550" 
d="M90 500h173v190q0 10 10 10h3q10 0 10 -10v-190h174q10 0 10 -10v-3q0 -10 -10 -10h-174v-628q0 -10 -10 -10h-3q-10 0 -10 10v628h-173q-10 0 -10 10v3q0 10 10 10z" />
    <glyph glyph-name="daggerdbl" unicode="&#x2021;" horiz-adv-x="550" 
d="M90 500h173v190q0 10 10 10h3q10 0 10 -10v-190h174q10 0 10 -10v-3q0 -10 -10 -10h-174v-409h174q10 0 10 -10v-3q0 -10 -10 -10h-174v-196q0 -10 -10 -10h-3q-10 0 -10 10v196h-173q-10 0 -10 10v3q0 10 10 10h173v409h-173q-10 0 -10 10v3q0 10 10 10z" />
    <glyph glyph-name="bullet" unicode="&#x2022;" horiz-adv-x="319" 
d="M158 242q-23 0 -40.5 17.5t-17.5 40.5q0 25 17.5 43t40.5 18q26 0 43.5 -18t17.5 -43q0 -24 -17.5 -41t-43.5 -17z" />
    <glyph glyph-name="ellipsis" unicode="&#x2026;" horiz-adv-x="513" 
d="M80 18q0 8 6.5 14.5t14.5 6.5t14 -6.5t6 -14.5t-6 -14t-14 -6t-14.5 6t-6.5 14zM256 18q0 8 6.5 14.5t14.5 6.5t14 -6.5t6 -14.5t-6 -14t-14 -6t-14.5 6t-6.5 14zM432 18q0 8 6.5 14.5t14.5 6.5t14 -6.5t6 -14.5t-6 -14t-14 -6t-14.5 6t-6.5 14z" />
    <glyph glyph-name="perthousand" unicode="&#x2030;" horiz-adv-x="1078" 
d="M174 706q52 0 86.5 -26t46.5 -58t12 -67q0 -59 -34.5 -105t-110.5 -46q-75 0 -109.5 46t-34.5 105q0 57 34.5 104t109.5 47zM174 424q36 0 62.5 14.5t38.5 36.5t17 42t5 38t-5 38t-17 42t-38.5 36.5t-62.5 14.5t-62.5 -14.5t-38.5 -36.5t-17 -42t-5 -38t5 -38t17 -42
t38.5 -36.5t62.5 -14.5zM533 298q52 0 86.5 -26t46.5 -58t12 -67q0 -59 -34.5 -105t-110.5 -46q-75 0 -109.5 46t-34.5 105q0 57 34.5 104t109.5 47zM533 15q48 0 77.5 26t37.5 53t8 53t-8 53t-37.5 53t-77.5 26t-77.5 -26t-37.5 -53t-8 -53t8 -53t37.5 -53t77.5 -26z
M477 690l-222 -681q-4 -9 -13 -9h-3q-7 0 -7 7v2l221 681q3 10 13 10h4q7 0 7 -8v-2zM903 298q52 0 86.5 -26t46.5 -58t12 -67q0 -59 -34.5 -105t-110.5 -46q-75 0 -109.5 46t-34.5 105q0 57 34.5 104t109.5 47zM903 15q48 0 77.5 26t37.5 53t8 53t-8 53t-37.5 53t-77.5 26
t-77.5 -26t-37.5 -53t-8 -53t8 -53t37.5 -53t77.5 -26z" />
    <glyph glyph-name="guilsinglleft" unicode="&#x2039;" horiz-adv-x="264" 
d="M227 415l-164 -165l164 -164q7 -7 0 -14l-3 -2q-7 -7 -14 0l-173 173q-7 7 0 14l173 174q7 7 14 0l3 -2q7 -7 0 -14z" />
    <glyph glyph-name="guilsinglright" unicode="&#x203a;" horiz-adv-x="264" 
d="M201 250l-164 165q-7 7 0 14l3 2q7 7 14 0l173 -174q7 -7 0 -14l-173 -173q-7 -7 -14 0l-3 2q-7 7 0 14z" />
    <glyph glyph-name="fraction" unicode="&#x2044;" horiz-adv-x="72" 
d="M217 692l-340 -683q-3 -9 -14 -9h-3q-4 0 -6 3t0 6l340 683q5 9 15 9h3q4 0 5.5 -3t-0.5 -6z" />
    <glyph glyph-name="zerosuperior" unicode="&#x2070;" horiz-adv-x="306" 
d="M154 803q43 0 72 -28.5t39.5 -64t10.5 -73.5q0 -64 -29.5 -115t-92.5 -51q-44 0 -73.5 28t-40 63.5t-10.5 74.5q0 38 10.5 73.5t40 64t73.5 28.5zM154 493q30 0 50.5 16.5t29.5 42t12.5 46t3.5 39.5q0 18 -3.5 38.5t-12.5 46t-29.5 42t-50.5 16.5t-51.5 -16.5t-30.5 -42
t-12.5 -46t-3.5 -38.5t3.5 -38.5t12.5 -46.5t30.5 -42.5t51.5 -16.5z" />
    <glyph glyph-name="foursuperior" unicode="&#x2074;" horiz-adv-x="265" 
d="M197 527v-42q0 -10 -10 -10h-3q-10 0 -10 10v42h-149q-5 0 -5 5q0 6 3 11l150 252q5 8 14 8q10 0 10 -10v-244h38q10 0 10 -10v-2q0 -10 -10 -10h-38zM174 753l-120 -204h120v204z" />
    <glyph glyph-name="fivesuperior" unicode="&#x2075;" horiz-adv-x="257" 
d="M36 515l2 1q5 7 14 2q30 -25 65 -25q42 0 64 23.5t22 58.5q0 34 -21.5 56t-64.5 22h-57q-10 0 -10 10v127q0 10 10 10h129q10 0 10 -10v-2q0 -10 -10 -10h-116v-103h44q59 0 84.5 -32t25.5 -71q0 -36 -26 -68.5t-84 -32.5q-46 0 -80 29q-6 6 -1 15z" />
    <glyph glyph-name="sixsuperior" unicode="&#x2076;" horiz-adv-x="279" 
d="M166 798v-1q6 -7 -2 -13q-82 -53 -105 -137q27 35 79 35q59 0 84.5 -34.5t25.5 -72.5q0 -32 -26.5 -67.5t-83.5 -35.5t-82.5 37t-25.5 79q0 141 121 213q7 4 15 -3zM138 494q41 0 63.5 24.5t22.5 58.5q0 36 -21.5 59.5t-64.5 23.5q-40 0 -61.5 -24t-21.5 -55
q0 -33 22 -60t61 -27z" />
    <glyph glyph-name="sevensuperior" unicode="&#x2077;" horiz-adv-x="224" 
d="M20 788v2q0 10 10 10h165q6 0 6 -6q0 -4 -2 -12l-124 -297q-5 -9 -14 -9h-5q-4 0 -6 3t0 6l121 293h-141q-10 0 -10 10z" />
    <glyph glyph-name="eightsuperior" unicode="&#x2078;" horiz-adv-x="264" 
d="M30 716q0 32 23.5 59.5t77.5 27.5q55 0 78.5 -27.5t23.5 -59.5q0 -50 -49 -79q26 -9 37.5 -32t11.5 -45q0 -33 -23.5 -60.5t-78.5 -27.5q-54 0 -77.5 27.5t-23.5 60.5q0 22 12 44.5t37 33.5q-49 24 -49 78zM131 647q34 0 56.5 17.5t22.5 51.5t-22 50.5t-57 16.5
q-33 0 -55 -16.5t-22 -50.5q0 -33 22.5 -51t54.5 -18zM131 628q-32 0 -54.5 -18t-22.5 -50q0 -33 22 -50.5t55 -17.5q34 0 56.5 18.5t22.5 49.5q0 34 -22 51t-57 17z" />
    <glyph glyph-name="ninesuperior" unicode="&#x2079;" horiz-adv-x="279" 
d="M113 477v1q-6 7 2 13q82 53 105 137q-29 -35 -79 -35q-59 0 -84.5 34.5t-25.5 72.5q0 32 26.5 67.5t83.5 35.5t82.5 -37t25.5 -79q0 -141 -121 -213q-10 -6 -15 3zM141 781q-41 0 -63.5 -24.5t-22.5 -58.5q0 -36 21.5 -59.5t64.5 -23.5q40 0 61.5 24t21.5 55q0 33 -22 60
t-61 27z" />
    <glyph glyph-name="zeroinferior" unicode="&#x2080;" horiz-adv-x="306" 
d="M154 165q43 0 72 -28.5t39.5 -64t10.5 -73.5q0 -64 -29.5 -115t-92.5 -51q-44 0 -73.5 28t-40 63.5t-10.5 74.5q0 38 10.5 73.5t40 64t73.5 28.5zM154 -145q30 0 50.5 16.5t29.5 42t12.5 46t3.5 39.5q0 18 -3.5 38.5t-12.5 46t-29.5 42t-50.5 16.5t-51.5 -16.5t-30.5 -42
t-12.5 -46t-3.5 -38.5t3.5 -38.5t12.5 -46.5t30.5 -42.5t51.5 -16.5z" />
    <glyph glyph-name="oneinferior" unicode="&#x2081;" horiz-adv-x="178" 
d="M25 83q-5 7 2 14l84 66q4 4 11 4q6 0 6 -6v-314q0 -10 -10 -10h-4q-10 0 -10 10v280l-67 -46q-7 -5 -12 2z" />
    <glyph glyph-name="twoinferior" unicode="&#x2082;" horiz-adv-x="244" 
d="M34 118v1q-7 9 1 14q37 32 84 32q43 0 69 -23t26 -67q0 -45 -67 -120l-82 -95h132q10 0 10 -10v-3q0 -10 -10 -10h-164q-7 0 -7 7q0 6 4 12l124 145q34 41 34 75q0 10 -2.5 19.5t-9 21.5t-21 19t-35.5 7q-36 0 -71 -26q-9 -5 -15 1z" />
    <glyph glyph-name="threeinferior" unicode="&#x2083;" horiz-adv-x="240" 
d="M210 78q0 -22 -12.5 -43.5t-35.5 -33.5q22 -9 35 -31t13 -46q0 -34 -23 -62t-79 -28q-36 0 -80 28q-7 5 -2 14l2 1q2 4 6.5 4t7.5 -2q34 -23 68 -23q32 0 54 18t22 50q0 33 -22.5 50t-55.5 17h-32q-10 0 -10 10v1q0 10 10 10h32q32 0 54.5 17t22.5 49q0 33 -22 50t-55 17
q-31 0 -67 -22q-9 -4 -14 3l-1 2q-2 3 -2 7.5t4 6.5q35 24 80 25q56 2 79 -27t23 -62z" />
    <glyph glyph-name="fourinferior" unicode="&#x2084;" horiz-adv-x="265" 
d="M197 -111v-42q0 -10 -10 -10h-3q-10 0 -10 10v42h-149q-5 0 -5 5q0 6 3 11l150 252q5 8 14 8q10 0 10 -10v-244h38q10 0 10 -10v-2q0 -10 -10 -10h-38zM174 115l-120 -204h120v204z" />
    <glyph glyph-name="fiveinferior" unicode="&#x2085;" horiz-adv-x="257" 
d="M36 -124l2 1q5 7 14 2q30 -25 65 -25q42 0 64 23.5t22 58.5q0 34 -21.5 56t-64.5 22h-57q-10 0 -10 10v127q0 10 10 10h129q10 0 10 -10v-2q0 -10 -10 -10h-116v-103h44q59 0 84.5 -32t25.5 -71q0 -36 -26 -68.5t-84 -32.5q-46 0 -80 29q-6 6 -1 15z" />
    <glyph glyph-name="sixinferior" unicode="&#x2086;" horiz-adv-x="279" 
d="M166 160v-1q6 -7 -2 -13q-82 -53 -105 -137q27 35 79 35q59 0 84.5 -34.5t25.5 -72.5q0 -32 -26.5 -67.5t-83.5 -35.5t-82.5 37t-25.5 79q0 141 121 213q7 5 15 -3zM138 -144q41 0 63.5 24.5t22.5 58.5q0 36 -21.5 59.5t-64.5 23.5q-40 0 -61.5 -24t-21.5 -55
q0 -33 22 -60t61 -27z" />
    <glyph glyph-name="seveninferior" unicode="&#x2087;" horiz-adv-x="224" 
d="M20 149v2q0 10 10 10h158q10 0 10 -10q0 -11 -4 -19l-119 -286q-5 -9 -14 -9h-5q-4 0 -6 3t0 6l121 293h-141q-10 0 -10 10z" />
    <glyph glyph-name="eightinferior" unicode="&#x2088;" horiz-adv-x="264" 
d="M30 78q0 32 23.5 59.5t77.5 27.5q55 0 78.5 -27.5t23.5 -59.5q0 -50 -49 -79q26 -9 37.5 -32t11.5 -45q0 -33 -23.5 -60.5t-78.5 -27.5q-54 0 -77.5 27.5t-23.5 60.5q0 22 12 44.5t37 33.5q-49 24 -49 78zM131 9q34 0 56.5 17.5t22.5 51.5t-22 50.5t-57 16.5
q-33 0 -55 -16.5t-22 -50.5q0 -33 22.5 -51t54.5 -18zM131 -10q-32 0 -54.5 -18t-22.5 -50q0 -33 22 -50.5t55 -17.5q34 0 56.5 18.5t22.5 49.5q0 34 -22 51t-57 17z" />
    <glyph glyph-name="nineinferior" unicode="&#x2089;" horiz-adv-x="279" 
d="M113 -161v1q-6 7 2 13q82 53 105 137q-29 -35 -79 -35q-59 0 -84.5 34.5t-25.5 72.5q0 32 26.5 67.5t83.5 35.5t82.5 -37t25.5 -79q0 -141 -121 -213q-10 -6 -15 3zM141 143q-41 0 -63.5 -24.5t-22.5 -58.5q0 -36 21.5 -59.5t64.5 -23.5q40 0 61.5 24t21.5 55
q0 33 -22 60t-61 27z" />
    <glyph glyph-name="Euro" unicode="&#x20ac;" horiz-adv-x="507" 
d="M326 289v-2q0 -10 -10 -10h-231q14 -126 76 -194t154 -68q73 0 130 45q9 6 14 -2l2 -2q5 -9 -2 -15q-58 -49 -144 -49q-106 0 -172.5 74t-81.5 211h-41q-10 0 -10 10v2q0 10 10 10h39q-2 11 -2 53q0 34 1 50h-38q-10 0 -10 10v2q0 10 10 10h41q14 134 81.5 210t172.5 76
q84 0 144 -51q7 -7 0 -14l-2 -2q-6 -6 -15 -1q-60 45 -127 45q-91 0 -153 -67t-76 -196h279q10 0 10 -10v-2q0 -10 -10 -10h-281q-2 -11 -2 -50q0 -36 1 -53h233q10 0 10 -10z" />
    <glyph glyph-name="afii61289" unicode="&#x2113;" horiz-adv-x="407" 
d="M20 339q0 10 10 10h43v210q0 47 14.5 81t38 50t45.5 22.5t44 6.5q79 0 120.5 -51t41.5 -121q0 -108 -63 -163t-172 -55h-48v-149q0 -79 32.5 -123t112.5 -41q36 2 80 24q9 6 13 -4l1 -1q4 -9 -5 -14q-37 -21 -88 -26q-44 -3 -77 10t-49.5 33t-26.5 48t-12 46t-2 36v161
h-43q-10 0 -10 10zM94 350h50q59 0 105.5 17.5t78 64.5t27.5 119q-3 78 -44.5 114.5t-98.5 33.5q-47 -3 -82.5 -35.5t-35.5 -95.5v-218z" />
    <glyph glyph-name="trademark" unicode="&#x2122;" horiz-adv-x="643" 
d="M505 693l-84 -191q-2 -4 -7 -4q-4 0 -6 4l-83 191l-66 -189q-4 -9 -13 -9h-3q-9 0 -7 9l82 235q2 3 4 3t4 -3l89 -198l85 197q1 4 6 4q3 0 5 -4l84 -234q2 -9 -7 -9h-5q-9 0 -13 9zM45 732q0 10 10 10h172q10 0 10 -10t-10 -10h-75v-217q0 -10 -10 -10h-2q-10 0 -10 10
v217h-75q-10 0 -10 10z" />
    <glyph glyph-name="estimated" unicode="&#x212e;" horiz-adv-x="818" 
d="M654 115l2 -1q7 -7 0 -15q-99 -106 -247 -106q-77 0 -138.5 24t-100 61.5t-64 87t-36 97.5t-10.5 97q0 47 10.5 94.5t36 96.5t64 86t100 60.5t138.5 23.5q74 0 134 -22t98 -57.5t64.5 -82.5t38 -92.5t14.5 -92.5q0 -10 -10 -10h-579v-249q33 -41 97.5 -70.5t142.5 -29.5
q136 0 231 100q7 7 14 0zM409 699q-167 0 -240 -100v-215h477v217q-31 43 -93.5 70.5t-143.5 27.5z" />
    <glyph glyph-name="onethird" unicode="&#x2153;" horiz-adv-x="496" 
d="M25 619q-5 7 2 12l87 68q4 3 9 3t5 -5v-315q0 -10 -10 -10h-4q-10 0 -10 10v279l-67 -44q-7 -5 -12 2zM387 692l-340 -683q-3 -9 -14 -9h-3q-4 0 -6 3t0 6l340 683q5 9 15 9h3q4 0 5.5 -3t-0.5 -6zM446 241q0 -51 -48 -77q22 -9 35 -31t13 -46q0 -34 -23 -62t-79 -28
q-36 0 -80 28q-7 5 -2 14l2 1q2 4 6.5 4t7.5 -2q34 -23 68 -23q32 0 54 18t22 50q0 33 -22.5 50t-55.5 17h-32q-10 0 -10 10v1q0 10 10 10h32q32 0 54.5 17t22.5 49q0 33 -22 50t-55 17q-31 0 -67 -22q-9 -4 -14 3l-1 2q-2 3 -2 7.5t4 6.5q35 24 80 25q56 2 79 -27t23 -62z
" />
    <glyph glyph-name="twothirds" unicode="&#x2154;" horiz-adv-x="571" 
d="M518 241q0 -51 -48 -77q22 -9 35 -31t13 -46q0 -34 -23 -62t-79 -28q-23 0 -53.5 13t-30.5 23q0 2 2 6l2 1q3 4 8 4q2 0 6 -2q34 -23 68 -23q32 0 54 18t22 50q0 33 -22.5 50t-55.5 17h-32q-10 0 -10 10v1q0 10 10 10h32q32 0 54.5 17t22.5 49q0 33 -22 50t-55 17
q-31 0 -67 -22q-1 -1 -5 -1q-6 0 -9 4l-1 2q-2 4 -2 6q0 11 29 22t55 11q56 0 79 -27.5t23 -61.5zM459 692l-340 -683q-3 -9 -14 -9h-3q-7 0 -7 6q0 2 1 3l340 683q5 9 15 9h3q6 0 6 -6q0 -2 -1 -3zM50 659l-1 1q-3 3 -3 6q0 4 4 7q40 33 85 33q43 0 69 -23t26 -67
q0 -43 -67 -120l-82 -95h132q10 0 10 -10v-3q0 -10 -10 -10h-163q-7 0 -7 7t5 14l122 143q30 36 34 75q0 10 -2.5 19.5t-9 21.5t-21 19t-35.5 7q-36 0 -71 -26q-2 -2 -7 -2t-8 3z" />
    <glyph glyph-name="oneeighth" unicode="&#x215b;" horiz-adv-x="502" 
d="M25 619q-2 2 -2 5q0 4 4 7l88 68q4 3 8 3q5 0 5 -5v-315q0 -10 -10 -10h-4q-10 0 -10 10v280l-66 -44q-4 -2 -6 -2q-4 0 -7 3zM387 692l-340 -683q-3 -9 -14 -9h-3q-7 0 -7 6q0 2 1 3l340 683q5 9 15 9h3q6 0 6 -6q0 -2 -1 -3zM243 251q3 30 27 53.5t73 23.5
q55 0 78.5 -27.5t23.5 -59.5q0 -50 -49 -79q26 -9 37.5 -32t11.5 -45q0 -33 -23.5 -60.5t-78.5 -27.5q-54 0 -77.5 27.5t-23.5 60.5q0 22 12 44.5t37 33.5q-49 23 -49 78q0 6 1 10zM343 172q34 0 56.5 17.5t22.5 51.5t-22 50.5t-57 16.5q-33 0 -55 -16.5t-22 -50.5
q0 -33 22.5 -51t54.5 -18zM343 153q-32 0 -54.5 -18t-22.5 -50q0 -33 22 -50.5t55 -17.5q34 0 56.5 18.5t22.5 49.5q0 34 -22 51t-57 17z" />
    <glyph glyph-name="threeeighths" unicode="&#x215c;" horiz-adv-x="546" 
d="M431 692l-340 -683q-3 -9 -14 -9h-3q-7 0 -7 6q0 2 1 3l340 683q5 9 15 9h3q6 0 6 -6q0 -2 -1 -3zM287 251q3 30 27 53.5t73 23.5q55 0 78.5 -27.5t23.5 -59.5q0 -50 -49 -79q26 -9 37.5 -32t11.5 -45q0 -33 -23.5 -60.5t-78.5 -27.5q-54 0 -77.5 27.5t-23.5 60.5
q0 22 12 44.5t37 33.5q-49 23 -49 78q0 6 1 10zM387 172q34 0 56.5 17.5t22.5 51.5t-22 50.5t-57 16.5q-33 0 -55 -16.5t-22 -50.5q0 -33 22.5 -51t54.5 -18zM377 152q-29 -2 -48 -20t-19 -47q0 -33 22 -50.5t55 -17.5q34 0 56.5 18.5t22.5 49.5t-19 48.5t-50 19.5
q-13 0 -20 -1zM222 619q0 -51 -48 -77q22 -9 35 -31t13 -46q0 -34 -23 -62t-79 -28q-23 0 -53.5 13t-30.5 23q0 2 2 6l2 1q3 4 8 4q2 0 6 -2q34 -23 68 -23q32 0 54 18t22 50q0 33 -22.5 50t-55.5 17h-32q-10 0 -10 10v1q0 10 10 10h32q32 0 54.5 17t22.5 49q0 33 -22 50
t-55 17q-31 0 -67 -22q-1 -1 -5 -1q-6 0 -9 4l-1 2q-2 4 -2 6q0 11 29 22t55 11q56 0 79 -27.5t23 -61.5z" />
    <glyph glyph-name="fiveeighths" unicode="&#x215d;" horiz-adv-x="548" 
d="M431 692l-340 -683q-3 -9 -14 -9h-3q-4 0 -6 3t0 6l340 683q5 9 15 9h3q4 0 5.5 -3t-0.5 -6zM287 251q3 30 27 53.5t73 23.5q55 0 78.5 -27.5t23.5 -59.5q0 -50 -49 -79q26 -9 37.5 -32t11.5 -45q0 -33 -23.5 -60.5t-78.5 -27.5q-54 0 -77.5 27.5t-23.5 60.5
q0 22 12 44.5t37 33.5q-44 21 -48 68q-1 10 0 20zM387 172q34 0 56.5 17.5t22.5 51.5t-22 50.5t-57 16.5q-33 0 -55 -16.5t-22 -50.5q0 -33 22.5 -51t54.5 -18zM377 152q-29 -2 -48 -20t-19 -47q0 -33 22 -50.5t55 -17.5q34 0 56.5 18.5t22.5 49.5t-19 48.5t-50 19.5
q-13 0 -20 -1zM36 417l2 1q5 7 14 2q30 -25 65 -25q42 0 64 23.5t22 58.5q0 34 -21.5 56t-64.5 22h-57q-10 0 -10 10v127q0 10 10 10h129q10 0 10 -10v-2q0 -10 -10 -10h-116v-103h44q59 0 84.5 -32t25.5 -71q0 -36 -26 -68.5t-84 -32.5q-46 0 -80 29q-6 6 -1 15z" />
    <glyph glyph-name="seveneighths" unicode="&#x215e;" horiz-adv-x="500" 
d="M256 251q3 30 27 53.5t73 23.5q55 0 78.5 -27.5t23.5 -59.5q0 -50 -49 -79q26 -9 37.5 -32t11.5 -45q0 -33 -23.5 -60.5t-78.5 -27.5q-54 0 -77.5 27.5t-23.5 60.5q0 22 12 44.5t37 33.5q-44 21 -48 68q-1 10 0 20zM356 172q34 0 56.5 17.5t22.5 51.5t-22 50.5t-57 16.5
q-33 0 -55 -16.5t-22 -50.5q0 -33 22.5 -51t54.5 -18zM346 152q-29 -2 -48 -20t-19 -47q0 -33 22 -50.5t55 -17.5q34 0 56.5 18.5t22.5 49.5t-19 48.5t-50 19.5q-13 0 -20 -1zM400 692l-340 -683q-3 -9 -14 -9h-3q-4 0 -6 3t0 6l340 683q5 9 15 9h3q4 0 5.5 -3t-0.5 -6z
M34 690v2q0 10 10 10h165q6 0 6 -6q0 -4 -2 -12l-124 -297q-5 -9 -14 -9h-5q-4 0 -6 3t0 6l121 293h-141q-10 0 -10 10z" />
    <glyph glyph-name="arrowleft" unicode="&#x2190;" horiz-adv-x="607" 
d="M335 529l3 -3q7 -7 0 -14l-233 -233h432q10 0 10 -10v-3q0 -10 -10 -10h-431l232 -232q7 -7 0 -14l-3 -3q-7 -7 -14 0l-254 254q-7 7 0 14l254 254q7 7 14 0z" />
    <glyph glyph-name="arrowup" unicode="&#x2191;" horiz-adv-x="596" 
d="M40 227l-3 3q-7 7 0 14l254 254q7 7 14 0l254 -254q7 -7 0 -14l-3 -3q-7 -7 -14 0l-232 232v-431q0 -10 -10 -10h-3q-10 0 -10 10v432l-233 -233q-7 -7 -14 0z" />
    <glyph glyph-name="arrowright" unicode="&#x2192;" horiz-adv-x="607" 
d="M269 526l3 3q7 7 14 0l254 -254q7 -7 0 -14l-254 -254q-7 -7 -14 0l-3 3q-7 7 0 14l232 232h-431q-10 0 -10 10v3q0 10 10 10h432l-233 233q-7 7 0 14z" />
    <glyph glyph-name="arrowdown" unicode="&#x2193;" horiz-adv-x="596" 
d="M37 293l3 3q7 7 14 0l233 -233v432q0 10 10 10h3q10 0 10 -10v-431l232 232q7 7 14 0l3 -3q7 -7 0 -14l-254 -254q-7 -7 -14 0l-254 254q-7 7 0 14z" />
    <glyph glyph-name="partialdiff" unicode="&#x2202;" horiz-adv-x="576" 
d="M240 701q6 8 13 3q48 -29 92 -72t83.5 -100.5t63.5 -134.5t24 -160q0 -39 -11 -77.5t-35 -77.5t-71 -63.5t-110 -24.5q-52 0 -94 17t-66.5 42t-40.5 56t-22 56.5t-6 45.5q0 26 5.5 53t21.5 58t40.5 54.5t66.5 39.5t95 16q16 0 35 -3t51.5 -12t63 -33.5t49.5 -60.5
q-19 118 -84 210.5t-161 154.5q-8 6 -3 13zM289 13q93 0 147.5 62t54.5 143q0 82 -54 137.5t-148 55.5q-98 0 -152 -56.5t-54 -144.5q0 -81 55.5 -139t150.5 -58z" />
    <glyph glyph-name="product" unicode="&#x220f;" horiz-adv-x="616" 
d="M140 10v669h-85q-10 0 -10 10v1q0 10 10 10h506q10 0 10 -10v-1q0 -10 -10 -10h-86v-669q0 -10 -10 -10h-3q-10 0 -10 10v669h-289v-669q0 -10 -10 -10h-3q-10 0 -10 10z" />
    <glyph glyph-name="summation" unicode="&#x2211;" horiz-adv-x="477" 
d="M59 679l222 -321q6 -8 0 -16l-222 -321h378q10 0 10 -10v-1q0 -10 -10 -10h-400q-7 0 -7 7q0 8 4 13l227 330l-227 330q-4 5 -4 13q0 7 7 7h400q10 0 10 -10v-1q0 -10 -10 -10h-378z" />
    <glyph glyph-name="minus" unicode="&#x2212;" horiz-adv-x="574" 
d="M90 396h394q10 0 10 -10v-2q0 -10 -10 -10h-394q-10 0 -10 10v2q0 10 10 10z" />
    <glyph glyph-name="radical" unicode="&#x221a;" horiz-adv-x="629" 
d="M247 43l240 648q5 9 14 9h88q10 0 10 -10v-1q0 -10 -10 -10h-82l-253 -679q-2 -4 -7 -4q-4 0 -6 4l-207 491q-2 3 0 6t6 3h4q9 0 14 -9z" />
    <glyph glyph-name="infinity" unicode="&#x221e;" horiz-adv-x="717" 
d="M208 430q49 0 83 -27.5t68 -81.5q34 55 67.5 82t82.5 27q55 0 91.5 -38t36.5 -97q0 -61 -36.5 -98t-93.5 -37q-48 0 -81 27t-67 82q-34 -54 -67.5 -81.5t-81.5 -27.5q-57 0 -93.5 37t-36.5 98q0 59 36.5 97t91.5 38zM370 295q4 -10 12 -23.5t25 -37t43.5 -38.5t55.5 -15
q47 0 78 31t31 84q0 51 -31 82t-78 31q-14 0 -27 -3.5t-24 -10t-21 -13.5t-18.5 -17t-15 -18t-12 -17.5t-9 -15.5t-6.5 -12zM347 295l-3 7q-3 6 -6.5 12t-9 15.5t-12 17.5t-15 18t-18.5 17t-21 13.5t-24 10t-27 3.5q-47 0 -78 -31t-31 -82q0 -53 31 -84t78 -31q29 0 55.5 15
t43.5 38.5t25 37t12 23.5z" />
    <glyph glyph-name="integral" unicode="&#x222b;" horiz-adv-x="430" 
d="M435 684q-6 -7 -14 -4q-45 23 -79 24q-131 5 -131 -167v-559q0 -98 -41.5 -144.5t-111.5 -42.5q-44 4 -89 26q-9 6 -4 13q5 9 14 4q47 -22 79 -23q131 -5 131 167v559q0 98 41.5 144.5t111.5 42.5q43 -4 89 -27q10 -4 4 -13z" />
    <glyph glyph-name="approxequal" unicode="&#x2248;" horiz-adv-x="541" 
d="M88 142q-4 2 -4 6.5t2 7.5q45 57 107 57q30 0 78.5 -31t78.5 -32q45 -5 89 49q5 7 14 2v-1q4 -2 4 -6.5t-2 -7.5q-47 -58 -104 -58q-35 0 -84.5 31.5t-74.5 31.5q-49 0 -90 -47q-2 -4 -6.5 -4t-7.5 2zM88 327q-4 2 -4 6.5t2 7.5q45 57 107 57q30 0 78.5 -31t78.5 -32
q45 -5 89 49q5 7 14 2v-1q4 -2 4 -6.5t-2 -7.5q-47 -58 -104 -58q-35 0 -84.5 31.5t-74.5 31.5q-49 0 -90 -47q-2 -4 -6.5 -4t-7.5 2z" />
    <glyph glyph-name="notequal" unicode="&#x2260;" horiz-adv-x="503" 
d="M90 378h186l37 112q3 10 13 10h7q9 0 7 -10l-37 -112h110q10 0 10 -10v-3q0 -10 -10 -10h-117l-64 -197h181q10 0 10 -10v-3q0 -10 -10 -10h-189l-40 -126q-4 -9 -13 -9h-7q-4 0 -6 3t-1 6l40 126h-107q-10 0 -10 10v3q0 10 10 10h115l64 197h-179q-10 0 -10 10v3
q0 10 10 10z" />
    <glyph glyph-name="lessequal" unicode="&#x2264;" horiz-adv-x="416" 
d="M40 21h336q10 0 10 -10v-1q0 -10 -10 -10h-336q-10 0 -10 10v1q0 10 10 10zM344 141l-313 188l-1 2q0 2 1 3l313 190q9 5 14 -4l2 -2q5 -9 -4 -14l-283 -172l283 -171q9 -5 4 -14l-2 -2q-5 -9 -14 -4z" />
    <glyph glyph-name="greaterequal" unicode="&#x2265;" horiz-adv-x="416" 
d="M40 21h336q10 0 10 -10v-1q0 -10 -10 -10h-336q-10 0 -10 10v1q0 10 10 10zM385 329l-313 -188q-9 -5 -14 4l-2 2q-5 9 4 14l283 171l-283 172q-9 5 -4 14l2 2q6 9 13 4l314 -190l1 -1v-2q-1 -1 -1 -2z" />
    <glyph glyph-name="lozenge" unicode="&#x25ca;" horiz-adv-x="644" 
d="M66 360l250 348q6 8 12 0l250 -348q6 -8 0 -16l-250 -346q-6 -8 -12 0l-250 346q-6 8 0 16zM322 678l-235 -326l235 -325l235 325z" />
    <glyph glyph-name="CR" horiz-adv-x="250" 
 />
    <glyph glyph-name="zero.oldstyle" horiz-adv-x="569" 
d="M284 506q62 0 108 -25.5t70 -66.5t35.5 -84t11.5 -86q0 -33 -5.5 -64.5t-21.5 -66t-40 -60.5t-65 -42.5t-93 -16.5q-64 0 -110.5 25.5t-70 66.5t-33.5 81.5t-10 82.5q0 32 5.5 64t21.5 67.5t40 62.5t64.5 44.5t92.5 17.5zM284 16q55 0 96 20t63 54.5t32 72.5t10 81
q0 31 -6 62t-20.5 64t-37 58t-58 41t-79.5 16q-55 0 -96.5 -23t-63 -60.5t-31.5 -75.5t-10 -76q0 -41 10 -79.5t31.5 -74.5t62.5 -58t97 -22z" />
    <glyph glyph-name="one.oldstyle" horiz-adv-x="431" 
d="M371 12v-2q0 -10 -10 -10h-304q-10 0 -10 10v2q0 10 10 10h168v455l-176 -127q-8 -6 -14 2t3 14l179 136q7 6 18 6h2q10 0 10 -10v-476h114q10 0 10 -10z" />
    <glyph glyph-name="two.oldstyle" horiz-adv-x="376" 
d="M43 443l-2 1q-6 8 2 14q65 48 131 48q62 0 102 -32.5t40 -93.5q0 -63 -64 -139l-179 -219h221q10 0 10 -10v-2q0 -10 -10 -10h-248q-7 0 -7 7t5 14q36 44 98.5 121t91.5 113q58 72 58 125q0 41 -28 73t-90 32q-53 0 -117 -44q-9 -6 -14 2z" />
    <glyph glyph-name="three.oldstyle" horiz-adv-x="443" 
d="M383 346q0 -52 -30 -94.5t-85 -57.5q56 -17 85.5 -56t29.5 -94q0 -25 -8.5 -51t-28 -53.5t-58.5 -45t-93 -17.5q-81 0 -147 52q-8 5 -2 13q6 7 15 2q62 -47 135 -48q67 -2 116.5 36.5t49.5 111.5t-49 106.5t-118 33.5h-42q-9 0 -9 9q0 10 9 10h42q68 0 117.5 35t49.5 107
q0 68 -48 103.5t-116 35.5q-72 0 -138 -43q-3 -2 -7.5 -2t-6.5 4q-6 8 2 14q72 48 147 48q54 0 93 -16t58.5 -42t28 -51t8.5 -50z" />
    <glyph glyph-name="four.oldstyle" horiz-adv-x="507" 
d="M373 20v-128q0 -10 -10 -10h-2q-10 0 -10 10v128h-311q-10 0 -10 10v2q0 10 6 18l309 442q6 8 16 8h2q10 0 10 -10v-447h94q10 0 10 -10v-3q0 -10 -10 -10h-94zM351 460l-295 -417h295v417z" />
    <glyph glyph-name="five.oldstyle" horiz-adv-x="492" 
d="M67 -43q7 7 14 0q69 -61 142 -61q78 0 132 46.5t54 130.5q0 170 -192 170h-113q-10 0 -10 10v237q0 10 10 10h285q10 0 10 -10v-2q0 -10 -10 -10h-272v-213h105q60 0 103.5 -17.5t65.5 -48t31.5 -63t9.5 -69.5q0 -20 -5.5 -43t-20.5 -50t-37.5 -48t-60.5 -35.5t-86 -14.5
q-90 0 -155 67q-7 7 0 14z" />
    <glyph glyph-name="six.oldstyle" horiz-adv-x="529" 
d="M319 622l1 -2q6 -8 -3 -13q-87 -53 -150 -142t-75 -175q23 40 67.5 66.5t103.5 27.5q60 1 103 -18t63.5 -51t29.5 -63t9 -64q0 -28 -9.5 -58t-30.5 -62t-64 -52.5t-101 -20.5q-46 0 -82.5 14.5t-57.5 35.5t-35.5 48t-20 49.5t-6.5 43.5q-3 77 16.5 146t56 123t78.5 94.5
t93 74.5q7 7 14 -2zM261 15q84 0 134 48t50 123q0 87 -47 132t-135 45q-78 0 -129.5 -55.5t-49.5 -120.5q2 -67 50 -119.5t127 -52.5z" />
    <glyph glyph-name="seven.oldstyle" horiz-adv-x="410" 
d="M350 478h-310q-10 0 -10 10v2q0 10 10 10h327q9 0 9 -9t-3 -16l-245 -587q-5 -9 -14 -9h-4q-4 0 -6 3t0 6z" />
    <glyph glyph-name="eight.oldstyle" horiz-adv-x="514" 
d="M252 -6q-99 0 -146.5 53.5t-44.5 115.5q2 49 35.5 91.5t89.5 58.5q-117 41 -119 152q0 26 8.5 52t28.5 53t60 44t94 17t93 -15.5t58.5 -41.5t28 -53t8.5 -56q0 -42 -25.5 -85.5t-86.5 -66.5q62 -16 91 -61t29 -88q0 -28 -10 -55.5t-32 -54.5t-63.5 -43.5t-96.5 -16.5z
M259 303q-87 -2 -131 -46t-44 -94q0 -72 50.5 -110.5t117.5 -38.5q72 0 125.5 38t53.5 112q0 53 -43 96t-129 43zM424 465q0 78 -49 112.5t-119 34.5q-67 0 -116 -37.5t-49 -110.5q0 -53 40 -95t128 -47q45 -1 79.5 15t51.5 40t25.5 47t8.5 41z" />
    <glyph glyph-name="nine.oldstyle" horiz-adv-x="529" 
d="M210 -121l-1 2q-6 8 3 13q87 52 150 141.5t75 175.5q-23 -40 -67.5 -66.5t-103.5 -27.5q-60 -1 -103 18t-63.5 51t-29.5 63t-9 64q0 28 9.5 58t30.5 62t64 52.5t101 20.5q46 0 82.5 -14.5t57.5 -35.5t35.5 -48t20 -49.5t6.5 -43.5q3 -77 -16.5 -146t-56 -123t-78.5 -95
t-93 -75q-8 -6 -14 3zM268 486q-84 0 -134 -48t-50 -123q0 -87 47 -132t135 -45q78 0 129.5 55.5t49.5 120.5q-2 67 -50.5 119.5t-126.5 52.5z" />
    <glyph glyph-name="Euro.oldstyle" horiz-adv-x="521" 
d="M278 199h-145q12 -85 60 -134t130 -49q51 0 107 27q9 6 13 -4l1 -1q4 -9 -5 -14q-60 -30 -116 -30q-87 0 -144 52.5t-69 152.5h-40q-10 0 -10 10v2q0 10 10 10h38q-1 9 -1 29q0 19 1 28h-38q-10 0 -10 10v2q0 10 10 10h40q14 95 75.5 150t147.5 55q57 0 119 -30
q10 -4 4 -13l-1 -2q-5 -9 -14 -4q-51 27 -107 27q-75 0 -130.5 -48t-69.5 -135h184q10 0 10 -10v-2q0 -10 -10 -10h-187q-1 -9 -1 -27q0 -21 1 -30h147q10 0 10 -10v-2q0 -10 -10 -10z" />
    <glyph glyph-name="florin.oldstyle" horiz-adv-x="399" 
d="M-77 -45v1q3 8 13 6q39 -14 76 -15q57 -2 94 29.5t37 98.5v200h-66q-10 0 -10 10v3q0 10 10 10h66v59q0 74 42.5 111t109.5 37q36 0 84 -15q10 -3 6 -12v-1q-3 -8 -12 -6q-39 14 -76 15q-57 2 -94 -29.5t-37 -98.5v-60h122q10 0 10 -10v-3q0 -10 -10 -10h-122v-199
q0 -74 -42.5 -111t-109.5 -37q-36 0 -84 15q-9 2 -7 12z" />
    <glyph glyph-name="sterling.oldstyle" horiz-adv-x="573" 
d="M54 3l-1 1q-3 1 -3.5 5.5t1.5 7.5q47 59 108 66v157h-66q-10 0 -10 10v3q0 10 10 10h66v96q0 74 42.5 111t109.5 37q36 0 84 -15q10 -3 6 -12v-1q-3 -8 -12 -6q-39 14 -76 15q-57 2 -94 -29.5t-37 -98.5v-97h122q10 0 10 -10v-3q0 -10 -10 -10h-122v-156q39 -3 90 -37
q1 -1 15.5 -10t18.5 -11t16.5 -8t19.5 -8t18 -4.5t21 -2.5q65 0 108 61q5 7 14 2l1 -1q9 -5 3 -13q-48 -70 -127 -70q-21 0 -44.5 9t-33 14.5t-38.5 24.5q-47 33 -86 33q-62 0 -110 -57q-6 -9 -14 -3z" />
    <glyph glyph-name="yen.oldstyle" horiz-adv-x="538" 
d="M281 241h134q10 0 10 -10v-3q0 -10 -10 -10h-134v-124h134q10 0 10 -10v-3q0 -10 -10 -10h-134v-61q0 -10 -10 -10h-4q-10 0 -10 10v61h-135q-10 0 -10 10v3q0 10 10 10h135v124h-135q-10 0 -10 10v3q0 10 10 10h135l-191 251q-2 2 -0.5 5t4.5 3h9q10 0 16 -8l174 -229
l173 229q6 8 16 8h10q3 0 4.5 -3t-0.5 -5z" />
    <glyph glyph-name="percent.oldstyle" horiz-adv-x="753" 
d="M578 298q52 0 86.5 -26t46.5 -58t12 -67q0 -59 -34.5 -105t-110.5 -46q-75 0 -109.5 46t-34.5 105q0 57 34.5 104t109.5 47zM174 558q52 0 86.5 -26t46.5 -58t12 -67q0 -59 -34.5 -105t-110.5 -46q-75 0 -109.5 46t-34.5 105q0 57 34.5 104t109.5 47zM578 15
q48 0 77.5 26t37.5 53t8 53t-8 53t-37.5 53t-77.5 26t-77.5 -26t-37.5 -53t-8 -53t8 -53t37.5 -53t77.5 -26zM174 276q36 0 62.5 14.5t38.5 36.5t17 42t5 38t-5 38t-17 42t-38.5 36.5t-62.5 14.5t-62.5 -14.5t-38.5 -36.5t-17 -42t-5 -38t5 -38t17 -42t38.5 -36.5
t62.5 -14.5zM289 0h-3q-7 0 -7 7v2l176 541q3 10 13 10h4q7 0 7 -8v-2l-177 -541q-4 -9 -13 -9z" />
    <glyph glyph-name="commaaccent" horiz-adv-x="276" 
d="M120 -220q-8 2 -4 9q24 63 20 91q-18 0 -18 18q0 9 6 15t14 6q21 0 21 -22q0 -46 -29 -112q-3 -7 -10 -5z" />
    <glyph glyph-name="a.alt" horiz-adv-x="595" 
d="M280 -7q-92 4 -156 73.5t-64 182.5q0 116 67.5 186t162.5 70q122 0 203 -88l3 71q0 10 9 10q10 0 10 -10v-479q0 -9 -10 -9q-9 0 -9 9l-3 72q-46 -50 -95.5 -69t-117.5 -19zM491 114v270q-36 49 -85.5 74t-102.5 25q-106 0 -162.5 -68.5t-56.5 -163.5q0 -97 55.5 -166.5
t163.5 -69.5q53 0 102.5 25t85.5 74z" />
    <glyph glyph-name="aogonek.alt" horiz-adv-x="604" 
d="M619 -193q5 -9 -4 -14q-33 -14 -61 -14q-49 0 -80.5 25.5t-31.5 74.5q0 29 27 68t27 48v5l-3 81q-81 -88 -203 -88q-95 0 -162.5 70t-67.5 186t67.5 186t162.5 70q122 0 203 -88l3 71q0 10 9 10q10 0 10 -10v-494q0 -14 -25 -53t-25 -60q0 -40 24.5 -60.5t60.5 -20.5
q30 0 55 12q9 4 14 -5zM491 114v270q-36 49 -85.5 74t-102.5 25q-106 0 -162.5 -68.5t-56.5 -163.5q0 -97 55.5 -166.5t163.5 -69.5q53 0 102.5 25t85.5 74z" />
    <glyph glyph-name="amacron.alt" horiz-adv-x="595" 
d="M280 -7q-92 4 -156 73.5t-64 182.5q0 116 67.5 186t162.5 70q122 0 203 -88l3 71q0 10 9 10q10 0 10 -10v-479q0 -9 -10 -9q-9 0 -9 9l-3 72q-79 -85 -193 -88h-20zM491 114v270q-36 49 -85.5 74t-102.5 25q-106 0 -162.5 -68.5t-56.5 -163.5q0 -97 55.5 -166.5
t163.5 -69.5q53 0 102.5 25t85.5 74zM175 622h281q10 0 10 -10v-2q0 -10 -10 -10h-281q-10 0 -10 10v2q0 10 10 10z" />
    <glyph glyph-name="adieresis.alt" horiz-adv-x="595" 
d="M156 621q0 8 6.5 14t14.5 6t14 -6t6 -14t-6 -14.5t-14 -6.5t-14.5 6.5t-6.5 14.5zM416 621q0 8 6.5 14t14.5 6t14 -6t6 -14t-6 -14.5t-14 -6.5t-14.5 6.5t-6.5 14.5zM280 -7q-92 4 -156 73.5t-64 182.5q0 116 67.5 186t162.5 70q122 0 203 -88l3 71q0 10 9 10
q10 0 10 -10v-479q0 -9 -10 -9q-9 0 -9 9l-3 72q-79 -85 -193 -88h-20zM491 114v270q-36 49 -85.5 74t-102.5 25q-106 0 -162.5 -68.5t-56.5 -163.5q0 -97 55.5 -166.5t163.5 -69.5q53 0 102.5 25t85.5 74z" />
    <glyph glyph-name="aring.alt" horiz-adv-x="595" 
d="M214 675q0 36 25 61t61 25q35 0 60 -25t25 -61q0 -35 -25 -60t-60 -25q-36 0 -61 25t-25 60zM237 675q0 -25 18.5 -43.5t44.5 -18.5q25 0 43.5 18.5t18.5 43.5q0 26 -18.5 44.5t-43.5 18.5q-26 0 -44.5 -18.5t-18.5 -44.5zM280 -7q-92 4 -156 73.5t-64 182.5
q0 116 67.5 186t162.5 70q122 0 203 -88l3 71q0 10 9 10q10 0 10 -10v-479q0 -9 -10 -9q-9 0 -9 9l-3 72q-79 -85 -193 -88h-20zM491 114v270q-36 49 -85.5 74t-102.5 25q-106 0 -162.5 -68.5t-56.5 -163.5q0 -97 55.5 -166.5t163.5 -69.5q53 0 102.5 25t85.5 74z" />
    <glyph glyph-name="agrave.alt" horiz-adv-x="595" 
d="M219 706l140 -94l-14 -18l-140 94zM280 -7q-92 4 -156 73.5t-64 182.5q0 116 67.5 186t162.5 70q122 0 203 -88l3 71q0 10 9 10q10 0 10 -10v-479q0 -9 -10 -9q-9 0 -9 9l-3 72q-79 -85 -193 -88h-20zM491 114v270q-36 49 -85.5 74t-102.5 25q-106 0 -162.5 -68.5
t-56.5 -163.5q0 -97 55.5 -166.5t163.5 -69.5q53 0 102.5 25t85.5 74z" />
    <glyph glyph-name="acircumflex.alt" horiz-adv-x="595" 
d="M298 678l-126 -85l-14 18l140 94l140 -94l-14 -18zM280 -7q-92 4 -156 73.5t-64 182.5q0 116 67.5 186t162.5 70q122 0 203 -88l3 71q0 10 9 10q10 0 10 -10v-479q0 -9 -10 -9q-9 0 -9 9l-3 72q-79 -85 -193 -88h-20zM491 114v270q-36 49 -85.5 74t-102.5 25
q-106 0 -162.5 -68.5t-56.5 -163.5q0 -97 55.5 -166.5t163.5 -69.5q53 0 102.5 25t85.5 74z" />
    <glyph glyph-name="aacute.alt" horiz-adv-x="595" 
d="M250 612l140 94l14 -18l-140 -94zM280 -7q-92 4 -156 73.5t-64 182.5q0 116 67.5 186t162.5 70q122 0 203 -88l3 71q0 10 9 10q10 0 10 -10v-479q0 -9 -10 -9q-9 0 -9 9l-3 72q-79 -85 -193 -88h-20zM491 114v270q-36 49 -85.5 74t-102.5 25q-106 0 -162.5 -68.5
t-56.5 -163.5q0 -97 55.5 -166.5t163.5 -69.5q53 0 102.5 25t85.5 74z" />
    <glyph glyph-name="atilde.alt" horiz-adv-x="595" 
d="M429 660l18 -12q-34 -54 -83 -52q-33 1 -62 25q-30 22 -53 22q-38 0 -62 -45l-19 8q26 59 82 59q28 0 59 -23q35 -25 57 -25q35 0 63 43zM280 -7q-92 4 -156 73.5t-64 182.5q0 116 67.5 186t162.5 70q122 0 203 -88l3 71q0 10 9 10q10 0 10 -10v-479q0 -9 -10 -9
q-9 0 -9 9l-3 72q-79 -85 -193 -88h-20zM491 114v270q-36 49 -85.5 74t-102.5 25q-106 0 -162.5 -68.5t-56.5 -163.5q0 -97 55.5 -166.5t163.5 -69.5q53 0 102.5 25t85.5 74z" />
    <glyph glyph-name="abreve.alt" horiz-adv-x="595" 
d="M412 697l19 -7q-37 -93 -124 -93q-88 0 -124 93l20 6q14 -37 41.5 -58.5t62.5 -21.5q74 0 105 81zM280 -7q-92 4 -156 73.5t-64 182.5q0 116 67.5 186t162.5 70q122 0 203 -88l3 71q0 10 9 10q10 0 10 -10v-479q0 -9 -10 -9q-9 0 -9 9l-3 72q-79 -85 -193 -88h-20z
M491 114v270q-36 49 -85.5 74t-102.5 25q-106 0 -162.5 -68.5t-56.5 -163.5q0 -97 55.5 -166.5t163.5 -69.5q53 0 102.5 25t85.5 74z" />
    <glyph glyph-name="parenleft.case" horiz-adv-x="234" 
d="M196 -135l-1 -1q-8 -6 -14 3q-151 234 -151 490q0 258 151 487q5 9 13 3t3 -13q-145 -223 -145 -477q0 -250 147 -479q4 -8 -3 -13z" />
    <glyph glyph-name="hyphen.case" horiz-adv-x="432" 
d="M90 352h252q10 0 10 -10v-2q0 -10 -10 -10h-252q-10 0 -10 10v2q0 10 10 10z" />
    <glyph glyph-name="bracketleft.case" horiz-adv-x="192" 
d="M30 -125v958q0 10 10 10h112q10 0 10 -10v-4q0 -10 -10 -10h-99v-930h99q10 0 10 -10v-4q0 -10 -10 -10h-112q-10 0 -10 10z" />
    <glyph glyph-name="braceleft.case" horiz-adv-x="277" 
d="M247 833q0 -10 -10 -12q-52 -8 -84.5 -41t-32.5 -112v-207q0 -81 -63 -106q22 -8 36 -25.5t19 -37.5t6.5 -29.5t1.5 -16.5v-204q0 -76 33.5 -112t82.5 -41q10 -2 10 -11v-1q0 -11 -10 -9q-17 2 -35.5 8.5t-44 22.5t-42 50.5t-16.5 82.5v211q0 39 -17.5 65.5t-42.5 35.5
q-8 2 -8 10q0 9 8 11q60 21 60 102v211q0 39 11.5 69t27 47t37 28t35.5 14.5t28 5.5q4 1 7 -2t3 -7z" />
    <glyph glyph-name="bar.case" horiz-adv-x="142" 
d="M72 -135h-2q-10 0 -10 10v954q0 10 10 10h2q10 0 10 -10v-954q0 -10 -10 -10z" />
    <glyph glyph-name="endash.case" horiz-adv-x="550" 
d="M90 376h370q10 0 10 -10v-2q0 -10 -10 -10h-370q-10 0 -10 10v2q0 10 10 10z" />
    <glyph glyph-name="emdash.case" horiz-adv-x="671" 
d="M90 377h491q10 0 10 -10v-2q0 -10 -10 -10h-491q-10 0 -10 10v2q0 10 10 10z" />
    <glyph glyph-name="bullet.case" horiz-adv-x="319" 
d="M158 266q-23 0 -40.5 17.5t-17.5 40.5q0 25 17.5 43t40.5 18q26 0 43.5 -18t17.5 -43q0 -24 -17.5 -41t-43.5 -17z" />
    <glyph glyph-name="periodcentered.case" horiz-adv-x="161" 
d="M60 360q0 8 6.5 14.5t14.5 6.5t14 -6.5t6 -14.5t-6 -14t-14 -6t-14.5 6t-6.5 14z" />
    <glyph glyph-name="brokenbar.case" horiz-adv-x="142" 
d="M82 236v-361q0 -10 -10 -10h-2q-10 0 -10 10v361q0 10 10 10h2q10 0 10 -10zM82 828v-361q0 -10 -10 -10h-2q-10 0 -10 10v361q0 10 10 10h2q10 0 10 -10z" />
    <glyph glyph-name="dollar.oldstyle" horiz-adv-x="463" 
d="M225 -90h-2q-10 0 -10 10v74q-78 4 -139 34q-9 5 -5 14l2 2q5 9 14 5q69 -31 128 -35v238q-35 10 -57.5 18t-47 22.5t-36.5 36t-12 50.5q0 65 41 97t107 32h5v55q0 10 10 10h2q10 0 10 -10v-56q72 -7 119 -25q8 -3 6 -13q0 -1 -1 -1l-1 -2q-4 -10 -13 -6q-56 19 -110 24
v-216q28 -8 36 -10.5t32.5 -11t33 -14.5t25.5 -17.5t23 -23t12 -28.5t6 -37q0 -57 -47.5 -94t-120.5 -39v-73q0 -10 -10 -10zM378 139q-4 43 -40.5 65.5t-102.5 41.5v-232q58 2 99 29.5t45 75.5q0 13 -1 20zM82 385q0 -46 34 -70t97 -41v211q-121 0 -131 -100z" />
    <glyph glyph-name="cent.oldstyle" horiz-adv-x="531" 
d="M307 -91h-2q-10 0 -10 10v74q-54 1 -96.5 18.5t-68 43.5t-42 61t-22.5 68.5t-6 69.5q0 33 6.5 65t23.5 66t42.5 60t67.5 43.5t95 19.5v63q0 10 10 10h2q10 0 10 -10v-62q82 -4 146 -53q8 -6 1 -14l-1 -2q-7 -7 -15 -1q-55 40 -131 47v-471q68 4 124 49q8 6 14 -2l3 -3
q6 -9 -2 -14q-59 -49 -139 -53v-73q0 -10 -10 -10zM85 252q0 -109 54.5 -171t155.5 -66v472q-82 0 -146 -61t-64 -174z" />
    <glyph glyph-name="zero.denom" horiz-adv-x="306" 
d="M154 328q43 0 72 -28.5t39.5 -64t10.5 -73.5q0 -64 -29.5 -115t-92.5 -51q-44 0 -73.5 28t-40 63.5t-10.5 74.5q0 38 10.5 73.5t40 64t73.5 28.5zM154 18q30 0 50.5 16.5t29.5 42t12.5 46t3.5 39.5q0 18 -3.5 38.5t-12.5 46t-29.5 42t-50.5 16.5t-51.5 -16.5t-30.5 -42
t-12.5 -46t-3.5 -38.5t3.5 -38.5t12.5 -46.5t30.5 -42.5t51.5 -16.5z" />
    <glyph glyph-name="one.denom" horiz-adv-x="178" 
d="M26 246q-2 3 -2 7.5t4 6.5l86 67q4 3 9 3t5 -5v-315q0 -10 -10 -10h-4q-10 0 -10 10v278l-64 -44q-8 -8 -14 2z" />
    <glyph glyph-name="two.denom" horiz-adv-x="244" 
d="M34 281l-1 1q-8 8 1 13q40 33 85 33q43 0 69 -23t26 -67q0 -45 -67 -120l-82 -95h132q10 0 10 -10v-3q0 -10 -10 -10h-164q-7 0 -7 7q0 6 4 12l124 145q34 41 34 75q0 10 -2.5 19.5t-9 21.5t-21 19t-35.5 7q-38 0 -71 -26q-9 -5 -15 1z" />
    <glyph glyph-name="three.denom" horiz-adv-x="240" 
d="M210 241q0 -51 -48 -77q22 -9 35 -31t13 -46q0 -34 -23 -62t-79 -28q-36 0 -80 28q-7 5 -2 14l2 1q2 4 6.5 4t7.5 -2q34 -23 68 -23q32 0 54 18t22 50q0 33 -22.5 50t-55.5 17h-32q-10 0 -10 10v1q0 10 10 10h32q32 0 54.5 17t22.5 49q0 33 -22 50t-55 17q-31 0 -67 -22
q-8 -6 -14 3h-1q-2 3 -2 7.5t4 6.5q36 27 80 28q39 1 63.5 -15.5t31.5 -35.5t7 -39z" />
    <glyph glyph-name="four.denom" horiz-adv-x="265" 
d="M197 52v-42q0 -10 -10 -10h-3q-10 0 -10 10v42h-149q-5 0 -5 5q0 6 3 11l150 252q5 8 14 8q10 0 10 -10v-244h38q10 0 10 -10v-2q0 -10 -10 -10h-38zM174 278l-120 -204h120v204z" />
    <glyph glyph-name="five.denom" horiz-adv-x="257" 
d="M36 39l2 1q5 7 14 2q30 -25 65 -25q42 0 64 23.5t22 58.5q0 34 -21.5 56t-64.5 22h-57q-10 0 -10 10v127q0 10 10 10h129q10 0 10 -10v-2q0 -10 -10 -10h-116v-103h44q59 0 84.5 -32t25.5 -71q0 -36 -26 -68.5t-84 -32.5q-46 0 -80 29q-6 6 -1 15z" />
    <glyph glyph-name="six.denom" horiz-adv-x="279" 
d="M166 323v-1q6 -7 -2 -13q-82 -53 -105 -137q27 35 79 35q59 0 84.5 -34.5t25.5 -72.5q0 -32 -26.5 -67.5t-83.5 -35.5t-82.5 37t-25.5 79q0 141 121 213q7 4 15 -3zM138 19q41 0 63.5 24.5t22.5 58.5q0 36 -21.5 59.5t-64.5 23.5q-40 0 -61.5 -24t-21.5 -55q0 -33 22 -60
t61 -27z" />
    <glyph glyph-name="seven.denom" horiz-adv-x="224" 
d="M20 312v2q0 10 10 10h162q8 0 8 -8q0 -6 -3 -14l-122 -293q-5 -9 -14 -9h-5q-4 0 -6 3t0 6l121 293h-141q-10 0 -10 10z" />
    <glyph glyph-name="eight.denom" horiz-adv-x="264" 
d="M30 241q0 32 23.5 59.5t77.5 27.5q55 0 78.5 -27.5t23.5 -59.5q0 -50 -49 -79q26 -9 37.5 -32t11.5 -45q0 -33 -23.5 -60.5t-78.5 -27.5q-54 0 -77.5 27.5t-23.5 60.5q0 22 12 44.5t37 33.5q-49 24 -49 78zM131 172q34 0 56.5 17.5t22.5 51.5t-22 50.5t-57 16.5
q-33 0 -55 -16.5t-22 -50.5q0 -33 22.5 -51t54.5 -18zM131 153q-32 0 -54.5 -18t-22.5 -50q0 -33 22 -50.5t55 -17.5q34 0 56.5 18.5t22.5 49.5q0 34 -22 51t-57 17z" />
    <glyph glyph-name="nine.denom" horiz-adv-x="279" 
d="M113 2v1q-6 7 2 13q82 53 105 137q-29 -35 -79 -35q-59 0 -84.5 34.5t-25.5 72.5q0 32 26.5 67.5t83.5 35.5t82.5 -37t25.5 -79q0 -141 -121 -213q-10 -6 -15 3zM141 306q-41 0 -63.5 -24.5t-22.5 -58.5q0 -36 21.5 -59.5t64.5 -23.5q40 0 61.5 24t21.5 55q0 33 -22 60
t-61 27z" />
    <glyph glyph-name="g.alt" horiz-adv-x="595" 
d="M491 19v33q-76 -53 -181 -58q-106 -4 -178 62t-72 195q0 116 67.5 186t162.5 70q121 0 202 -88l3 71q0 10 10 10t10 -10v-468q0 -31 -4 -59.5t-18 -64t-37 -61t-66.5 -43t-101.5 -17.5q-94 0 -193 64q-8 6 -2 14l2 3q6 8 14 2q97 -61 177 -61q58 0 99.5 20t61 44.5
t30.5 61t12.5 54.5t1.5 40zM491 80v306q-36 49 -85.5 74t-102.5 25q-107 0 -163.5 -69.5t-56.5 -164.5q0 -42 11.5 -81t36 -75t70.5 -57.5t107 -21.5q98 0 183 64z" />
    <glyph glyph-name="gcircumflex.alt" horiz-adv-x="595" 
d="M491 19v33q-76 -53 -181 -58q-106 -4 -178 62t-72 195q0 116 67.5 186t162.5 70q121 0 202 -88l3 71q0 10 10 10t10 -10v-468q0 -31 -4 -59.5t-18 -64t-37 -61t-66.5 -43t-101.5 -17.5q-94 0 -193 64q-8 6 -2 14l2 3q6 8 14 2q97 -61 177 -61q58 0 99.5 20t61 44.5
t30.5 61t12.5 54.5t1.5 40zM491 80v306q-36 49 -85.5 74t-102.5 25q-107 0 -163.5 -69.5t-56.5 -164.5q0 -42 11.5 -81t36 -75t70.5 -57.5t107 -21.5q98 0 183 64zM309 678l-118 -79q-8 -8 -14 2l-2 2q-6 8 2 14l124 82q8 6 16 0l124 -82q8 -6 2 -14l-2 -2q-6 -10 -14 -2z
" />
    <glyph glyph-name="gbreve.alt" horiz-adv-x="595" 
d="M491 19v33q-76 -53 -181 -58q-106 -4 -178 62t-72 195q0 116 67.5 186t162.5 70q121 0 202 -88l3 71q0 10 10 10t10 -10v-468q0 -31 -4 -59.5t-18 -64t-37 -61t-66.5 -43t-101.5 -17.5q-94 0 -193 64q-8 6 -2 14l2 3q6 8 14 2q97 -61 177 -61q58 0 99.5 20t61 44.5
t30.5 61t12.5 54.5t1.5 40zM491 80v306q-36 49 -85.5 74t-102.5 25q-107 0 -163.5 -69.5t-56.5 -164.5q0 -42 11.5 -81t36 -75t70.5 -57.5t107 -21.5q98 0 183 64zM423 693h1q9 -2 5 -12q-39 -84 -120 -84q-84 0 -120 84q-4 9 6 12q9 3 14 -6q32 -71 100 -71t101 72
q4 9 13 5z" />
    <glyph glyph-name="gdotaccent.alt" horiz-adv-x="609" 
d="M286 618q0 8 6.5 14.5t14.5 6.5t14 -6.5t6 -14.5t-6 -14t-14 -6t-14.5 6t-6.5 14zM491 19v33q-76 -53 -181 -58q-106 -4 -178 62t-72 195q0 116 67.5 186t162.5 70q121 0 202 -88l3 71q0 10 10 10t10 -10v-468q0 -31 -4 -59.5t-18 -64t-37 -61t-66.5 -43t-101.5 -17.5
q-94 0 -193 64q-8 6 -2 14l2 3q6 8 14 2q97 -61 177 -61q58 0 99.5 20t61 44.5t30.5 61t12.5 54.5t1.5 40zM491 80v306q-36 49 -85.5 74t-102.5 25q-107 0 -163.5 -69.5t-56.5 -164.5q0 -42 11.5 -81t36 -75t70.5 -57.5t107 -21.5q98 0 183 64z" />
    <glyph glyph-name="gcommaaccent.alt" horiz-adv-x="595" 
d="M491 19v33q-76 -53 -181 -58q-106 -4 -178 62t-72 195q0 116 67.5 186t162.5 70q121 0 202 -88l3 71q0 10 10 10t10 -10v-468q0 -31 -4 -59.5t-18 -64t-37 -61t-66.5 -43t-101.5 -17.5q-94 0 -193 64q-8 6 -2 14l2 3q6 8 14 2q97 -61 177 -61q58 0 99.5 20t61 44.5
t30.5 61t12.5 54.5t1.5 40zM491 80v306q-36 49 -85.5 74t-102.5 25q-107 0 -163.5 -69.5t-56.5 -164.5q0 -42 11.5 -81t36 -75t70.5 -57.5t107 -21.5q98 0 183 64z" />
    <glyph glyph-name="zero.num" horiz-adv-x="306" 
d="M154 706q43 0 72 -28.5t39.5 -64t10.5 -73.5q0 -64 -29.5 -115t-92.5 -51q-44 0 -73.5 28t-40 63.5t-10.5 74.5q0 38 10.5 73.5t40 64t73.5 28.5zM154 396q30 0 50.5 16.5t29.5 42t12.5 46t3.5 39.5q0 18 -3.5 38.5t-12.5 46t-29.5 42t-50.5 16.5t-51.5 -16.5t-30.5 -42
t-12.5 -46t-3.5 -38.5t3.5 -38.5t12.5 -46.5t30.5 -42.5t51.5 -16.5z" />
    <glyph glyph-name="one.num" horiz-adv-x="178" 
d="M26 624q-2 3 -2 7.5t4 6.5l85 67q3 3 9 3t6 -6v-314q0 -10 -10 -10h-4q-10 0 -10 10v278l-64 -44q-8 -8 -14 2z" />
    <glyph glyph-name="two.num" horiz-adv-x="244" 
d="M33 658l-1 1q-7 7 1 14q40 33 86 33q43 0 69 -23t26 -67q0 -45 -67 -120l-82 -95h132q10 0 10 -10v-3q0 -10 -10 -10h-163q-7 0 -7 7t5 14l122 143q34 41 34 75q0 10 -2.5 19.5t-9 21.5t-21 19t-35.5 7q-38 0 -72 -27q-9 -5 -15 1z" />
    <glyph glyph-name="three.num" horiz-adv-x="240" 
d="M210 619q0 -51 -48 -77q22 -9 35 -31t13 -46q0 -34 -23 -62t-79 -28q-36 0 -80 28q-7 5 -2 14l2 1q2 4 6.5 4t7.5 -2q34 -23 68 -23q32 0 54 18t22 50q0 33 -22.5 50t-55.5 17h-32q-10 0 -10 10v1q0 10 10 10h32q32 0 54.5 17t22.5 49q0 33 -22 50t-55 17q-31 0 -67 -22
q-9 -4 -14 3l-1 2q-2 3 -2 7.5t4 6.5q35 24 80 25q56 2 79 -27t23 -62z" />
    <glyph glyph-name="four.num" horiz-adv-x="265" 
d="M197 430v-42q0 -10 -10 -10h-3q-10 0 -10 10v42h-149q-5 0 -5 5q0 7 3 11l150 252q5 8 14 8q10 0 10 -10v-244h38q10 0 10 -10v-2q0 -10 -10 -10h-38zM174 656l-120 -204h120v204z" />
    <glyph glyph-name="five.num" horiz-adv-x="257" 
d="M36 415l2 1q5 7 14 2q30 -25 65 -25q42 0 64 23.5t22 58.5q0 34 -21.5 56t-64.5 22h-57q-10 0 -10 10v127q0 10 10 10h129q10 0 10 -10v-2q0 -10 -10 -10h-116v-103h44q59 0 84.5 -32t25.5 -71q0 -36 -26 -68.5t-84 -32.5q-46 0 -80 29q-6 6 -1 15z" />
    <glyph glyph-name="six.num" horiz-adv-x="279" 
d="M166 701v-1q6 -7 -2 -13q-82 -53 -105 -137q27 35 79 35q59 0 84.5 -34.5t25.5 -72.5q0 -32 -26.5 -67.5t-83.5 -35.5t-82.5 37t-25.5 79q0 141 121 213q7 4 15 -3zM138 397q41 0 63.5 24.5t22.5 58.5q0 36 -21.5 59.5t-64.5 23.5q-40 0 -61.5 -24t-21.5 -55
q0 -33 22 -60t61 -27z" />
    <glyph glyph-name="seven.num" horiz-adv-x="224" 
d="M20 688v2q0 10 10 10h160q9 0 9 -9t-3 -16l-121 -290q-5 -9 -14 -9h-5q-4 0 -6 3t0 6l121 293h-141q-10 0 -10 10z" />
    <glyph glyph-name="eight.num" horiz-adv-x="264" 
d="M30 619q0 32 23.5 59.5t77.5 27.5q55 0 78.5 -27.5t23.5 -59.5q0 -50 -49 -79q26 -9 37.5 -32t11.5 -45q0 -33 -23.5 -60.5t-78.5 -27.5q-54 0 -77.5 27.5t-23.5 60.5q0 22 12 44.5t37 33.5q-49 24 -49 78zM131 550q34 0 56.5 17.5t22.5 51.5t-22 50.5t-57 16.5
q-33 0 -55 -16.5t-22 -50.5q0 -33 22.5 -51t54.5 -18zM131 531q-32 0 -54.5 -18t-22.5 -50q0 -33 22 -50.5t55 -17.5q34 0 56.5 18.5t22.5 49.5q0 34 -22 51t-57 17z" />
    <glyph glyph-name="nine.num" horiz-adv-x="279" 
d="M113 380v1q-6 7 2 13q82 53 105 137q-29 -35 -79 -35q-59 0 -84.5 34.5t-25.5 72.5q0 32 26.5 67.5t83.5 35.5t82.5 -37t25.5 -79q0 -141 -121 -213q-10 -6 -15 3zM141 684q-41 0 -63.5 -24.5t-22.5 -58.5q0 -36 21.5 -59.5t64.5 -23.5q40 0 61.5 24t21.5 55q0 33 -22 60
t-61 27z" />
    <glyph glyph-name="parenright.case" horiz-adv-x="234" 
d="M39 -136l-1 1q-8 6 -3 13q147 229 147 479q0 252 -145 477q-5 7 3 13t13 -3q151 -231 151 -487q0 -257 -152 -490q-6 -8 -13 -3z" />
    <glyph glyph-name="bracketright.case" horiz-adv-x="192" 
d="M162 833v-958q0 -10 -10 -10h-112q-10 0 -10 10v4q0 10 10 10h99v930h-99q-10 0 -10 10v4q0 10 10 10h112q10 0 10 -10z" />
    <glyph glyph-name="braceright.case" horiz-adv-x="277" 
d="M30 833q0 11 10 9q14 -2 28 -5.5t35.5 -14.5t37 -28t27 -47t11.5 -69v-211q0 -81 60 -102q8 -2 8 -11q0 -8 -8 -10q-25 -9 -42.5 -35.5t-17.5 -65.5v-211q0 -48 -16.5 -82.5t-42 -50.5t-44 -22.5t-35.5 -8.5q-10 -2 -10 9v1q0 9 10 11q49 5 82.5 41t33.5 112v204
q0 7 1.5 16.5t6.5 29.5t19 37.5t36 25.5q-63 25 -63 106v207q0 79 -32.5 112t-84.5 41q-10 2 -10 12z" />
    <glyph glyph-name="guilsinglleft.case" horiz-adv-x="264" 
d="M227 506l-164 -165l164 -164q7 -7 0 -14l-3 -2q-7 -7 -14 0l-173 173q-7 7 0 14l173 174q7 7 14 0l3 -2q7 -7 0 -14z" />
    <glyph glyph-name="guilsinglright.case" horiz-adv-x="264" 
d="M201 341l-164 165q-7 7 0 14l3 2q7 7 14 0l173 -174q7 -7 0 -14l-173 -173q-7 -7 -14 0l-3 2q-7 7 0 14z" />
    <glyph glyph-name="guillemotleft.case" horiz-adv-x="425" 
d="M227 506l-164 -165l164 -164q7 -7 0 -14l-3 -2q-7 -7 -14 0l-173 173q-7 7 0 14l173 174q7 7 14 0l3 -2q7 -7 0 -14zM388 506l-164 -165l164 -164q7 -7 0 -14l-3 -2q-7 -7 -14 0l-173 173q-7 7 0 14l173 174q7 7 14 0l3 -2q7 -7 0 -14z" />
    <glyph glyph-name="guillemotright.case" horiz-adv-x="425" 
d="M362 341l-164 165q-7 7 0 14l3 2q7 7 14 0l173 -174q7 -7 0 -14l-173 -173q-7 -7 -14 0l-3 2q-7 7 0 14zM201 341l-164 165q-7 7 0 14l3 2q7 7 14 0l173 -174q7 -7 0 -14l-173 -173q-7 -7 -14 0l-3 2q-7 7 0 14z" />
    <glyph glyph-name="numbersign.oldstyle" horiz-adv-x="568" 
d="M162 128h-92q-10 0 -10 10v2q0 10 10 10h92v200h-92q-10 0 -10 10v2q0 10 10 10h92v118q0 10 10 10h2q10 0 10 -10v-118h200v118q0 10 10 10h2q10 0 10 -10v-118h92q10 0 10 -10v-2q0 -10 -10 -10h-92v-200h92q10 0 10 -10v-2q0 -10 -10 -10h-92v-118q0 -10 -10 -10h-2
q-10 0 -10 10v118h-200v-118q0 -10 -10 -10h-2q-10 0 -10 10v118zM184 350v-200h200v200h-200z" />
    <glyph glyph-name="zero.ftd" horiz-adv-x="680" 
d="M339 681q58 0 104 -22t74.5 -57t48 -81t27 -91t7.5 -91q0 -60 -13.5 -117t-41.5 -110t-81.5 -85.5t-124.5 -32.5t-124 32.5t-81 85.5t-41 110t-13 117q0 46 7.5 91t26.5 91t47.5 81t74.5 57t103 22zM339 14q60 0 105.5 26.5t70 63.5t39.5 85.5t19 83.5t4 66q0 30 -4 64
t-19 82t-39.5 85t-70 63.5t-105.5 26.5q-59 0 -104.5 -26t-69.5 -62.5t-39.5 -84.5t-19.5 -82.5t-4 -65.5t4 -66t19.5 -83.5t39.5 -85.5t69.5 -63.5t104.5 -26.5z" />
    <glyph glyph-name="one.ftd" horiz-adv-x="459" 
d="M399 12v-2q0 -10 -10 -10h-300q-10 0 -10 10v2q0 10 10 10h166v627l-176 -129q-9 -5 -14 2q-6 8 3 14l184 140q7 5 16 5t9 -9v-650h112q10 0 10 -10z" />
    <glyph glyph-name="two.ftd" horiz-adv-x="522" 
d="M64 583l-2 1q-7 7 0 14q79 81 182 81q79 0 133.5 -47t54.5 -133q0 -42 -24 -91t-48.5 -80.5t-67.5 -79.5l-199 -226h319q10 0 10 -10v-2q0 -10 -10 -10h-338q-10 0 -10 10v3q0 11 6 18l260 299q77 88 77 170q0 76 -48 116.5t-115 40.5q-87 0 -166 -74q-7 -7 -14 0z" />
    <glyph glyph-name="three.ftd" horiz-adv-x="521" 
d="M441 504q0 -63 -36 -106t-96 -55q60 -19 96 -62.5t36 -103.5q0 -23 -5 -45.5t-19.5 -47.5t-37 -44t-60.5 -31.5t-86 -12.5q-98 0 -165 56q-8 5 -2 14l3 2q5 8 14 2q67 -49 150 -49q78 0 130 37.5t52 118.5q0 69 -54.5 112.5t-127.5 43.5h-76q-10 0 -10 10v3q0 10 10 10
h76q76 0 129.5 35.5t53.5 107.5q0 83 -52.5 122.5t-130.5 39.5q-84 0 -150 -49q-9 -6 -14 2l-2 1q-2 3 -2 7.5t4 6.5q71 55 164 55q60 0 103.5 -18t64.5 -47t30.5 -57.5t9.5 -57.5z" />
    <glyph glyph-name="four.ftd" horiz-adv-x="566" 
d="M407 139v-129q0 -10 -10 -10h-3q-10 0 -10 10v129h-314q-10 0 -10 10t5 18l314 503q5 9 15 9h3q10 0 10 -10v-508h89q10 0 10 -10v-2q0 -10 -10 -10h-89zM384 638l-297 -477h297v477z" />
    <glyph glyph-name="five.ftd" horiz-adv-x="575" 
d="M87 80l1 1q6 6 14 0q30 -33 74 -52t86 -19q87 0 148.5 55t63.5 145q2 93 -58.5 138.5t-154.5 45.5h-134q-10 0 -10 10v262q0 10 10 10h301q10 0 10 -10v-2q0 -10 -10 -10h-288v-239h121q67 0 115.5 -19.5t73 -51.5t35 -65.5t10.5 -70.5q0 -23 -6.5 -49t-23 -57t-42 -55
t-67.5 -40t-95 -16q-105 0 -174 74q-7 8 0 15z" />
    <glyph glyph-name="six.ftd" horiz-adv-x="636" 
d="M366 680q5 -7 -3 -13q-210 -133 -244 -344q19 36 49.5 60.5t62.5 33.5t51 12t35 3q53 0 95 -16t66.5 -39.5t40.5 -54.5t21.5 -58t5.5 -53q0 -20 -6 -45.5t-22 -56.5t-40.5 -56t-66.5 -42t-94 -17q-63 0 -110 24.5t-71 63.5t-35 77.5t-11 77.5q0 82 23.5 156t64 128.5
t83 94t91.5 68.5q9 5 14 -4zM317 13q95 0 150.5 58t55.5 139q0 88 -54 144.5t-152 56.5q-94 0 -148 -55.5t-54 -137.5q0 -81 54.5 -143t147.5 -62z" />
    <glyph glyph-name="seven.ftd" horiz-adv-x="500" 
d="M50 664v2q0 10 10 10h371q10 0 10 -10v-2q0 -11 -4 -19l-267 -636q-5 -9 -14 -9h-4q-4 0 -6 3t0 6l270 645h-356q-10 0 -10 10z" />
    <glyph glyph-name="eight.ftd" horiz-adv-x="581" 
d="M80 504q0 26 9.5 54.5t31 58.5t65.5 49.5t104 19.5t104.5 -18.5t66 -48t31 -58t9.5 -57.5q0 -51 -35 -100.5t-97 -66.5q64 -20 98 -64t34 -100q0 -29 -9.5 -58t-31 -58.5t-66 -48t-104.5 -18.5t-104 18.5t-65.5 48t-31 58.5t-9.5 58q0 55 35 101t100 63q-66 20 -100.5 63
t-34.5 104zM290 346q74 -2 131 40.5t57 117.5q0 81 -55.5 121.5t-132.5 40.5t-132.5 -40.5t-55.5 -121.5q0 -76 55.5 -115.5t132.5 -42.5zM290 326q-76 0 -131.5 -38.5t-55.5 -114.5q0 -83 55 -122.5t132 -39.5t132 40.5t55 121.5q0 76 -55.5 114.5t-131.5 38.5z" />
    <glyph glyph-name="nine.ftd" horiz-adv-x="636" 
d="M270 -3q-5 7 3 13q210 137 244 345q-19 -36 -49.5 -60.5t-62.5 -33.5t-51 -12t-35 -3q-53 0 -95 16t-66.5 39.5t-40.5 54.5t-21.5 58t-5.5 53q0 20 6 45.5t22 56.5t40.5 56t66.5 42t94 17q63 0 110 -24.5t71 -63.5t35 -77.5t11 -77.5q0 -83 -23.5 -156.5t-64 -128.5
t-83.5 -94t-92 -68q-8 -6 -13 3zM319 665q-95 0 -150.5 -58t-55.5 -139q0 -88 54 -144.5t152 -56.5q94 0 148 55.5t54 137.5q0 80 -54.5 142.5t-147.5 62.5z" />
    <glyph glyph-name="ampersand.alt1" horiz-adv-x="733" 
d="M292 -7q-99 0 -140.5 47t-41.5 145v364q0 90 -70 96q-10 0 -10 10v1q0 10 10 10q52 -3 73 -33.5t21 -91.5v-366q0 -92 42.5 -126.5t114.5 -34.5q112 0 207 86l-110 79q-68 48 -95.5 83.5t-27.5 80.5q0 36 27 70t81 41q-75 38 -75 113q0 66 48 104t117 38q106 0 158 -70
t52 -171q0 -98 -37.5 -196.5t-103.5 -167.5l128 -92q8 -6 2 -14l-2 -1q-2 -4 -6.5 -4t-7.5 2l-130 93q-100 -94 -224 -95zM651 467q0 102 -50 162t-140 60q-60 0 -100.5 -36t-40.5 -85q0 -44 34 -76.5t79 -32.5h9q10 0 10 -10t-10 -10h-29q-59 0 -92 -29t-33 -69
q1 -37 22.5 -65t70.5 -63l133 -96q64 68 100.5 163.5t36.5 186.5z" />
    <glyph glyph-name="T_L" horiz-adv-x="565" 
d="M165 701h3q10 0 10 -10v-150l212 78q9 2 9 -7t-9 -13l-212 -78v-76l212 78q9 2 9 -7t-9 -13l-212 -78v-408q52 2 102.5 18.5t96 48t79.5 84t47 119.5q2 10 12 10t8 -10q-26 -130 -121.5 -209.5t-229.5 -79.5h-7q-10 0 -10 10v409l-126 -47q-9 -2 -9 7t9 13l126 47v76
l-126 -47q-9 -2 -9 7t9 13l126 47v158q0 10 10 10z" />
    </font>
</defs>
</svg>
