<?xml version="1.0" standalone="no"?>
<!DOCTYPE svg PUBLIC "-//W3C//DTD SVG 1.1//EN" "http://www.w3.org/Graphics/SVG/1.1/DTD/svg11.dtd" >
<svg xmlns="http://www.w3.org/2000/svg" xmlns:xlink="http://www.w3.org/1999/xlink" version="1.1">
<metadata>
Created by FontForge 20170731 at Tue Dec  2 23:19:54 2014
 By Aleksey,,,
Copyright (c) 2013 by Ahmet Altun. All rights reserved.
</metadata>
<defs>
<font id="HalisR-Black" horiz-adv-x="587" >
  <font-face 
    font-family="Halis R Black"
    font-weight="900"
    font-stretch="normal"
    units-per-em="1000"
    panose-1="2 0 5 5 3 0 0 2 0 4"
    ascent="800"
    descent="-200"
    x-height="500"
    cap-height="700"
    bbox="-183.385 -349.227 1237.46 995"
    underline-thickness="50"
    underline-position="-230"
    unicode-range="U+0020-FB04"
  />
<missing-glyph horiz-adv-x="490" 
d="M210 209q0 -12 9 -21t22 -9q12 0 20.5 9t8.5 21t-8.5 20t-20.5 8q-13 0 -22 -8t-9 -20zM262 267v28q0 13 18 33.5t36.5 47t18.5 54.5q0 39 -24.5 60.5t-62.5 21.5q-55 0 -104 -52l29 -28q35 37 65 38q47 2 47 -41q0 -29 -34 -67t-34 -65v-30h45zM460 632v-564
q0 -8 -5 -13t-13 -5h-394q-8 0 -13 5t-5 13v564q0 8 5 13t13 5h394q8 0 13 -5t5 -13z" />
    <glyph glyph-name="f_f" unicode="ff" horiz-adv-x="697" 
d="M701 651l-34 -86q-5 -17 -23 -11q-45 16 -81 16q-16 0 -27.5 -9.5t-11.5 -28.5v-32h71q7 0 12.5 -5t5.5 -13v-99q0 -7 -5.5 -12.5t-12.5 -5.5h-71v-347q0 -8 -5 -13t-13 -5h-116q-8 0 -13 5t-5 13v347h-160v-347q0 -8 -5 -13t-13 -5h-116q-8 0 -13 5t-5 13v347h-32
q-8 0 -13 5.5t-5 12.5v99q0 8 5 13t13 5h32v35q6 90 60.5 133.5t136.5 43.5q102 0 177 -39q48 36 121 36q58 0 136 -33q15 -8 10 -25zM212 500h160v35q0 15 2 33q-38 20 -85 20q-33 0 -55 -13.5t-22 -40.5v-34z" />
    <glyph glyph-name="fi" unicode="fi" horiz-adv-x="605" 
d="M525 482v-464q0 -8 -5.5 -13t-12.5 -5h-116q-7 0 -12.5 5t-5.5 13v347h-161v-347q0 -8 -5 -13t-13 -5h-116q-8 0 -13 5t-5 13v347h-32q-8 0 -13 5.5t-5 12.5v99q0 8 5 13t13 5h32v35q0 85 51.5 129.5t131.5 44.5q58 0 136 -33q15 -8 10 -25l-34 -86q-5 -17 -23 -11
q-45 16 -81 16q-16 0 -27.5 -9.5t-11.5 -28.5v-32h295q7 0 12.5 -5t5.5 -13z" />
    <glyph glyph-name="fl" unicode="fl" horiz-adv-x="627" 
d="M547 682v-665q0 -7 -5.5 -12.5t-12.5 -5.5h-116q-7 0 -12.5 5.5t-5.5 12.5v515q-17 27 -46 41.5t-60 14.5q-33 0 -55 -13.5t-22 -40.5v-34h87q7 0 12.5 -5t5.5 -13v-99q0 -7 -5.5 -12.5t-12.5 -5.5h-87v-347q0 -8 -5 -13t-13 -5h-116q-8 0 -13 5t-5 13v347h-32
q-8 0 -13 5.5t-5 12.5v99q0 8 5 13t13 5h32v35q6 90 60.5 133.5t136.5 43.5q110 0 166 -63l9 34q3 17 22 17h75q7 0 12.5 -5t5.5 -13z" />
    <glyph glyph-name="f_f_i" unicode="ffi" horiz-adv-x="925" 
d="M701 651l-34 -86q-5 -17 -23 -11q-45 16 -81 16q-16 0 -27.5 -9.5t-11.5 -28.5v-32h303q7 0 12.5 -5t5.5 -13v-464q0 -8 -5.5 -13t-12.5 -5h-116q-7 0 -12.5 5t-5.5 13v347h-169v-347q0 -8 -5 -13t-13 -5h-116q-8 0 -13 5t-5 13v347h-160v-347q0 -8 -5 -13t-13 -5h-116
q-8 0 -13 5t-5 13v347h-32q-8 0 -13 5.5t-5 12.5v99q0 8 5 13t13 5h32v35q6 90 60.5 133.5t136.5 43.5q102 0 177 -39q48 36 121 36q58 0 136 -33q15 -8 10 -25zM212 500h160v35q0 15 2 33q-38 20 -85 20q-33 0 -55 -13.5t-22 -40.5v-34z" />
    <glyph glyph-name="f_f_l" unicode="ffl" horiz-adv-x="949" 
d="M423 649q52 63 156 63q110 0 166 -63l9 34q3 17 22 17h75q7 0 12.5 -5t5.5 -13v-664q0 -8 -5.5 -13t-12.5 -5h-116q-7 0 -12.5 5t-5.5 13v514q-17 27 -46 41.5t-60 14.5q-33 0 -55 -13.5t-22 -40.5v-34h87q7 0 12.5 -5t5.5 -13v-99q0 -7 -5.5 -12.5t-12.5 -5.5h-87v-347
q0 -8 -5 -13t-13 -5h-116q-8 0 -13 5t-5 13v347h-170v-347q0 -8 -5 -13t-13 -5h-116q-8 0 -13 5t-5 13v347h-32q-8 0 -13 5.5t-5 12.5v99q0 8 5 13t13 5h32v35q6 90 60.5 133.5t136.5 43.5q110 0 166 -63zM382 500v23t0.5 14t0.5 6.5v3.5q-36 41 -94 41q-33 0 -55 -13.5
t-22 -40.5v-34h170z" />
    <glyph glyph-name="f_h" unicode="fh" horiz-adv-x="901" 
d="M646 508q51 -3 87.5 -19t57 -39t32 -57.5t15 -64.5t3.5 -70v-240q0 -8 -5.5 -13t-12.5 -5h-115q-8 0 -13 5t-5 13v240q0 18 -1.5 32t-6 30t-13 26t-23.5 16.5t-36 5.5q-44 -2 -63 -28v-322q0 -8 -5.5 -13t-12.5 -5h-116q-7 0 -12.5 5t-5.5 13v514q-17 27 -46 41.5
t-60 14.5q-33 0 -55 -13.5t-22 -40.5v-34h87q7 0 12.5 -5t5.5 -13v-99q0 -7 -5.5 -12.5t-12.5 -5.5h-87v-347q0 -8 -5 -13t-13 -5h-116q-8 0 -13 5t-5 13v347h-32q-8 0 -13 5.5t-5 12.5v99q0 8 5 13t13 5h32v35q6 90 60.5 133.5t136.5 43.5q110 0 166 -63l9 34q3 17 22 17
h75q7 0 12.5 -5t5.5 -13v-197q36 23 99 23z" />
    <glyph glyph-name="f_j" unicode="fj" horiz-adv-x="605" 
d="M525 482v-483q0 -18 -2 -37t-12.5 -49t-28.5 -52t-54 -38.5t-84 -16.5q-81 0 -151 55q-14 11 -3 27l44 71q11 15 25 6q40 -23 69 -23q45 0 45 60v363h-161v-347q0 -8 -5 -13t-13 -5h-116q-8 0 -13 5t-5 13v347h-32q-8 0 -13 5.5t-5 12.5v99q0 8 5 13t13 5h32v35
q0 85 51.5 129.5t131.5 44.5q58 0 136 -33q15 -8 10 -25l-34 -86q-5 -17 -23 -11q-45 16 -81 16q-16 0 -27.5 -9.5t-11.5 -28.5v-32h295q7 0 12.5 -5t5.5 -13z" />
    <glyph glyph-name="f_k" unicode="fk" horiz-adv-x="949" 
d="M726 13l-179 200v-195q0 -8 -5.5 -13t-12.5 -5h-116q-7 0 -12.5 5t-5.5 13v514q-17 27 -46 41.5t-60 14.5q-33 0 -55 -13.5t-22 -40.5v-34h87q7 0 12.5 -5t5.5 -13v-99q0 -7 -5.5 -12.5t-12.5 -5.5h-87v-347q0 -8 -5 -13t-13 -5h-116q-8 0 -13 5t-5 13v347h-32
q-8 0 -13 5.5t-5 12.5v99q0 8 5 13t13 5h32v35q6 90 60.5 133.5t136.5 43.5q110 0 166 -63l9 34q3 17 22 17h75q7 0 12.5 -5t5.5 -13v-383l166 187q12 14 30 14h145q5 0 7.5 -4.5t-1.5 -8.5l-205 -227l224 -247q4 -4 1.5 -8.5t-7.5 -4.5h-151q-17 0 -30 13z" />
    <glyph glyph-name="f_b" unicode="fb" horiz-adv-x="930" 
d="M681 504q55 -9 94 -35.5t58.5 -64.5t28 -75.5t8.5 -78.5t-10 -80.5t-32.5 -78.5t-64.5 -65.5t-99 -32.5q-90 -9 -153 40l-7 -16q-6 -17 -25 -17h-66q-7 0 -12.5 5t-5.5 13v514q-17 27 -46 41.5t-60 14.5q-33 0 -55 -13.5t-22 -40.5v-34h87q7 0 12.5 -5t5.5 -13v-99
q0 -7 -5.5 -12.5t-12.5 -5.5h-87v-347q0 -8 -5 -13t-13 -5h-116q-8 0 -13 5t-5 13v347h-32q-8 0 -13 5.5t-5 12.5v99q0 8 5 13t13 5h32v35q6 90 60.5 133.5t136.5 43.5q110 0 166 -63l9 34q3 17 22 17h75q7 0 12.5 -5t5.5 -13v-199q47 31 134 21zM621 131q31 0 52 13
t30 34.5t12.5 38t3.5 33.5q0 15 -2 29t-8.5 31.5t-17.5 30t-31 21t-47 8.5q-37 0 -66 -18v-192q23 -29 74 -29z" />
    <glyph glyph-name="f_f_b" unicode="ffb" horiz-adv-x="1252" 
d="M1003 504q55 -9 94 -35.5t58.5 -64.5t28 -75.5t8.5 -78.5t-10 -80.5t-32.5 -78.5t-64.5 -65.5t-99 -32.5q-90 -9 -153 40l-7 -16q-6 -17 -25 -17h-66q-7 0 -12.5 5t-5.5 13v514q-17 27 -46 41.5t-60 14.5q-33 0 -55 -13.5t-22 -40.5v-34h87q7 0 12.5 -5t5.5 -13v-99
q0 -7 -5.5 -12.5t-12.5 -5.5h-87v-347q0 -8 -5 -13t-13 -5h-116q-8 0 -13 5t-5 13v347h-170v-347q0 -8 -5 -13t-13 -5h-116q-8 0 -13 5t-5 13v347h-32q-8 0 -13 5.5t-5 12.5v99q0 8 5 13t13 5h32v35q6 90 60.5 133.5t136.5 43.5q110 0 166 -63q52 63 156 63q110 0 166 -63
l9 34q3 17 22 17h75q7 0 12.5 -5t5.5 -13v-199q47 31 134 21zM382 500v23t0.5 14t0.5 6.5v3.5q-36 41 -94 41q-33 0 -55 -13.5t-22 -40.5v-34h170zM943 131q31 0 52 13t30 34.5t12.5 38t3.5 33.5q0 15 -2 29t-8.5 31.5t-17.5 30t-31 21t-47 8.5q-37 0 -66 -18v-192
q23 -29 74 -29z" />
    <glyph glyph-name="f_f_h" unicode="ffh" horiz-adv-x="1223" 
d="M968 508q51 -3 87.5 -19t57 -39t32 -57.5t15 -64.5t3.5 -70v-240q0 -8 -5.5 -13t-12.5 -5h-115q-8 0 -13 5t-5 13v240q0 18 -1.5 32t-6 30t-13 26t-23.5 16.5t-36 5.5q-44 -2 -63 -28v-322q0 -8 -5.5 -13t-12.5 -5h-116q-7 0 -12.5 5t-5.5 13v514q-17 27 -46 41.5
t-60 14.5q-33 0 -55 -13.5t-22 -40.5v-34h87q7 0 12.5 -5t5.5 -13v-99q0 -7 -5.5 -12.5t-12.5 -5.5h-87v-347q0 -8 -5 -13t-13 -5h-116q-8 0 -13 5t-5 13v347h-170v-347q0 -8 -5 -13t-13 -5h-116q-8 0 -13 5t-5 13v347h-32q-8 0 -13 5.5t-5 12.5v99q0 8 5 13t13 5h32v35
q6 90 60.5 133.5t136.5 43.5q110 0 166 -63q52 63 156 63q110 0 166 -63l9 34q3 17 22 17h75q7 0 12.5 -5t5.5 -13v-197q36 23 99 23zM382 500v23t0.5 14t0.5 6.5v3.5q-36 41 -94 41q-33 0 -55 -13.5t-22 -40.5v-34h170z" />
    <glyph glyph-name="f_f_j" unicode="ffj" horiz-adv-x="925" 
d="M524 500h303q7 0 12.5 -5t5.5 -13v-483q0 -18 -2 -37t-12.5 -49t-28.5 -52t-54 -38.5t-84 -16.5q-81 0 -151 55q-14 11 -3 27l44 65q11 15 25 6q40 -23 69 -23q45 0 45 60v369h-169v-347q0 -8 -5 -13t-13 -5h-116q-8 0 -13 5t-5 13v347h-160v-347q0 -8 -5 -13t-13 -5
h-116q-8 0 -13 5t-5 13v347h-32q-8 0 -13 5.5t-5 12.5v99q0 8 5 13t13 5h32v35q6 90 60.5 133.5t136.5 43.5q102 0 177 -39q48 36 121 36q58 0 136 -33q15 -8 10 -25l-34 -86q-5 -17 -23 -11q-45 16 -81 16q-16 0 -27.5 -9.5t-11.5 -28.5v-32zM372 535q0 15 2 33
q-38 20 -85 20q-33 0 -55 -13.5t-22 -40.5v-34h160v35z" />
    <glyph glyph-name="f_f_k" unicode="ffk" horiz-adv-x="1271" 
d="M423 649q52 63 156 63q110 0 166 -63l9 34q3 17 22 17h75q7 0 12.5 -5t5.5 -13v-383l166 187q12 14 30 14h147q5 0 7 -4.5t-1 -8.5l-207 -227l224 -247q4 -4 1.5 -8.5t-7.5 -4.5h-151q-17 0 -30 13l-179 200v-195q0 -8 -5.5 -13t-12.5 -5h-116q-7 0 -12.5 5t-5.5 13v514
q-17 27 -46 41.5t-60 14.5q-33 0 -55 -13.5t-22 -40.5v-34h87q7 0 12.5 -5t5.5 -13v-99q0 -7 -5.5 -12.5t-12.5 -5.5h-87v-347q0 -8 -5 -13t-13 -5h-116q-8 0 -13 5t-5 13v347h-170v-347q0 -8 -5 -13t-13 -5h-116q-8 0 -13 5t-5 13v347h-32q-8 0 -13 5.5t-5 12.5v99
q0 8 5 13t13 5h32v35q6 90 60.5 133.5t136.5 43.5q110 0 166 -63zM382 500v23t0.5 14t0.5 6.5v3.5q-36 41 -94 41q-33 0 -55 -13.5t-22 -40.5v-34h170z" />
    <glyph glyph-name=".notdef" horiz-adv-x="490" 
d="M210 209q0 -12 9 -21t22 -9q12 0 20.5 9t8.5 21t-8.5 20t-20.5 8q-13 0 -22 -8t-9 -20zM262 267v28q0 13 18 33.5t36.5 47t18.5 54.5q0 39 -24.5 60.5t-62.5 21.5q-55 0 -104 -52l29 -28q35 37 65 38q47 2 47 -41q0 -29 -34 -67t-34 -65v-30h45zM460 632v-564
q0 -8 -5 -13t-13 -5h-394q-8 0 -13 5t-5 13v564q0 8 5 13t13 5h394q8 0 13 -5t5 -13z" />
    <glyph glyph-name=".null" horiz-adv-x="0" 
 />
    <glyph glyph-name="nonmarkingreturn" horiz-adv-x="333" 
 />
    <glyph glyph-name="space" unicode=" " horiz-adv-x="300" 
 />
    <glyph glyph-name="exclam" unicode="!" horiz-adv-x="354" 
d="M101 68q0 32 22 54.5t55 22.5q32 0 54 -22.5t22 -54.5q0 -33 -22 -54.5t-54 -21.5q-33 0 -55 21.5t-22 54.5zM252 684v-258l-16 -186q-2 -18 -20 -18h-80q-18 0 -20 18l-16 186v258q0 8 5 13t13 5h116q8 0 13 -5t5 -13z" />
    <glyph glyph-name="quotedbl" unicode="&#x22;" horiz-adv-x="442" 
d="M400 684l-20 -219q-2 -18 -20 -18h-62q-18 0 -20 18l-20 219q-1 8 4 13t12 5h110q7 0 12 -5t4 -13zM184 684l-20 -219q-2 -18 -20 -18h-62q-18 0 -20 18l-20 219q-1 8 4 13t12 5h110q7 0 12 -5t4 -13z" />
    <glyph glyph-name="numbersign" unicode="#" horiz-adv-x="576" 
d="M78 399h60v83q0 8 5 13t13 5h84q8 0 13 -5t5 -13v-83h60v83q0 8 5 13t13 5h84q8 0 13 -5t5 -13v-83h60q8 0 13 -5.5t5 -12.5v-83q0 -8 -5 -13t-13 -5h-60v-60h60q8 0 13 -5t5 -13v-82q0 -8 -5 -13t-13 -5h-60v-84q0 -8 -5 -13t-13 -5h-84q-8 0 -13 5t-5 13v84h-60v-84
q0 -8 -5 -13t-13 -5h-84q-8 0 -13 5t-5 13v84h-60q-8 0 -13 5t-5 13v82q0 8 5 13t13 5h60v60h-60q-8 0 -13 5t-5 13v83q0 7 5 12.5t13 5.5zM258 280v-60h60v60h-60z" />
    <glyph glyph-name="dollar" unicode="$" horiz-adv-x="656" 
d="M240 509q1 -7 3.5 -13.5t8.5 -12t11.5 -10.5t16 -10t18 -9t21.5 -9t22.5 -8t25 -9t25.5 -9q44 -15 74 -30t63 -39t50 -59.5t17 -81.5q0 -83 -59 -142.5t-155 -71.5v-74q0 -7 -5 -12.5t-13 -5.5h-72q-8 0 -13 5.5t-5 12.5v75q-96 10 -198 63q-15 9 -8 25l55 102q7 16 24 8
q115 -52 184 -52q40 0 68 17t28 43q0 30 -29.5 47t-90.5 37q-32 10 -45.5 15t-43 17t-44.5 21.5t-36.5 27t-32 35.5t-18.5 44t-8 56q0 87 53.5 142t141.5 65v72q0 7 5 12.5t13 5.5h72q8 0 13 -5.5t5 -12.5v-77q81 -13 174 -53q16 -7 9 -24l-45 -103q-7 -16 -24 -9
q-118 45 -176 45q-35 0 -58 -12t-22 -39z" />
    <glyph glyph-name="percent" unicode="%" horiz-adv-x="857" 
d="M346 541q0 -27 -8 -54t-25 -52.5t-49 -41t-75 -15.5q-83 0 -121 50.5t-38 112.5q0 28 8 54.5t25 52.5t49.5 42t76.5 16q43 0 75 -16t49 -42t25 -53t8 -54zM189 494q36 0 36 47q0 48 -36 48q-38 0 -38 -48q0 -47 38 -47zM504 700h85q7 0 10.5 -5.5t1.5 -11.5l-220 -666
q-7 -17 -24 -17h-86q-7 0 -10.5 5.5t-1.5 11.5l221 666q7 17 24 17zM670 323q43 0 75 -16t49 -42t25 -53t8 -54t-8 -54t-25 -52.5t-49 -41t-75 -15.5t-75.5 15.5t-49.5 41t-25 52.5t-8 54q0 28 8 54.5t25 52.5t49.5 42t75.5 16zM670 111q21 0 29 15.5t8 31.5q0 10 -2 19.5
t-11 19t-24 9.5q-22 0 -30 -15.5t-8 -32.5q0 -9 2.5 -18.5t11.5 -19t24 -9.5z" />
    <glyph glyph-name="ampersand" unicode="&#x26;" horiz-adv-x="731" 
d="M584 156q13 -14 40 -42.5t35 -37.5q12 -14 -1 -25l-75 -68q-5 -5 -13 -4.5t-13 5.5l-60 62q-73 -59 -188 -59q-99 1 -164 64.5t-65 148.5q0 64 29.5 111.5t74.5 70.5q-61 69 -61 149q0 71 49 125t140 54q87 0 133.5 -52t46.5 -124q0 -98 -94 -177q15 -16 40.5 -44
t41.5 -45q13 33 25 89q3 17 21 15l94 -19q18 -4 16 -21q-12 -98 -52 -176zM309 578q-23 0 -33.5 -15t-10.5 -31q0 -37 40 -75q45 34 45 76q0 18 -11 31.5t-30 13.5zM315 126q49 0 84 24q-97 102 -118 125q-51 -24 -53 -69q0 -36 26 -58t61 -22z" />
    <glyph glyph-name="quotesingle" unicode="'" horiz-adv-x="226" 
d="M184 684l-20 -219q-2 -18 -20 -18h-62q-18 0 -20 18l-20 219q-1 8 4 13t12 5h110q7 0 12 -5t4 -13z" />
    <glyph glyph-name="parenleft" unicode="(" horiz-adv-x="333" 
d="M30 296q0 251 161 488q9 16 25 6l72 -44q15 -9 6 -25q-118 -227 -118 -424q0 -204 118 -431q9 -16 -6 -25l-72 -43q-16 -10 -25 6q-161 233 -161 492z" />
    <glyph glyph-name="parenright" unicode=")" horiz-adv-x="333" 
d="M303 296q0 -259 -161 -492q-10 -15 -25 -6l-72 43q-14 9 -7 25q119 226 119 431q0 198 -119 424q-7 16 7 25l72 44q15 9 25 -6q161 -237 161 -488z" />
    <glyph glyph-name="asterisk" unicode="*" horiz-adv-x="484" 
d="M362 393l-69 36l-4 -78q-2 -18 -19 -18h-56q-17 0 -19 18l-4 78l-69 -36q-16 -7 -25 8l-28 48q-8 15 6 26l65 41l-65 42q-14 11 -6 26l28 48q9 15 25 8l69 -36l4 78q2 18 19 18h56q17 0 19 -18l4 -78l69 36q16 7 25 -8l28 -48q8 -15 -6 -26l-65 -42l65 -41q14 -11 6 -26
l-28 -48q-9 -15 -25 -8z" />
    <glyph glyph-name="plus" unicode="+" horiz-adv-x="558" 
d="M219 158v121h-121q-8 0 -13 5.5t-5 12.5v83q0 8 5 13t13 5h121v121q0 7 5.5 12.5t12.5 5.5h84q7 0 12.5 -5.5t5.5 -12.5v-121h121q8 0 13 -5t5 -13v-83q0 -7 -5 -12.5t-13 -5.5h-121v-121q0 -8 -5.5 -13t-12.5 -5h-84q-7 0 -12.5 5t-5.5 13z" />
    <glyph glyph-name="comma" unicode="," horiz-adv-x="339" 
d="M133 -165l-35 20q-16 9 -7 25q42 79 48 116q-25 5 -42 27.5t-17 52.5q0 36 26 61.5t61 25.5q48 0 70 -27.5t22 -67.5q0 -43 -32 -112.5t-67 -115.5q-11 -14 -27 -5z" />
    <glyph glyph-name="hyphen" unicode="-" horiz-adv-x="446" 
d="M98 356h250q8 0 13 -5t5 -13v-85q0 -7 -5 -12.5t-13 -5.5h-250q-8 0 -13 5.5t-5 12.5v85q0 8 5 13t13 5z" />
    <glyph glyph-name="period" unicode="." horiz-adv-x="335" 
d="M80 81q0 36 26 62t62 26t61.5 -25.5t25.5 -62.5q0 -36 -25.5 -61.5t-61.5 -25.5t-62 25.5t-26 61.5z" />
    <glyph glyph-name="slash" unicode="/" horiz-adv-x="414" 
d="M378 683l-220 -666q-7 -17 -24 -17h-86q-7 0 -10.5 5.5t-1.5 11.5l221 666q7 17 24 17h85q7 0 10.5 -5.5t1.5 -11.5z" />
    <glyph glyph-name="zero" unicode="0" horiz-adv-x="645" 
d="M322 683q71 0 125 -33t82.5 -86.5t42 -109t13.5 -111.5q0 -58 -13.5 -115t-42 -111.5t-82.5 -88.5t-125 -34t-125 34t-82 88.5t-41.5 111.5t-13.5 115q0 44 7.5 88t27 90.5t48 81.5t75 57.5t104.5 22.5zM322 133q33 0 57 25t34 63t14 67.5t4 54.5t-4 53t-14 64
t-33.5 59.5t-57.5 23.5t-57.5 -23.5t-34 -59t-14.5 -64.5t-4 -53q0 -25 4 -54.5t14.5 -67.5t34.5 -63t57 -25z" />
    <glyph glyph-name="one" unicode="1" horiz-adv-x="430" 
d="M340 660v-642q0 -8 -5 -13t-13 -5h-116q-8 0 -13 5t-5 13v440l-76 -37q-16 -7 -25 7l-41 69q-9 15 5 26l195 144q14 11 32 11h44q8 0 13 -5t5 -13z" />
    <glyph glyph-name="two" unicode="2" horiz-adv-x="540" 
d="M113 476l-69 72q-13 13 0 26q110 110 223 110q93 0 153 -49t60 -140q0 -61 -39 -129q-15 -25 -157 -225h164q8 0 13 -5.5t5 -12.5v-105q0 -8 -5 -13t-13 -5h-382q-8 0 -13 5t-5 13v17q0 16 10 33q247 348 253 359q20 34 20 62q0 23 -15 39.5t-48 16.5q-52 0 -130 -70
q-14 -12 -25 1z" />
    <glyph glyph-name="three" unicode="3" horiz-adv-x="553" 
d="M493 483q0 -42 -19 -82.5t-55 -61.5q35 -17 54.5 -59.5t19.5 -84.5q0 -32 -10 -64t-33 -65.5t-70.5 -54.5t-113.5 -21q-114 0 -213 87q-14 12 -1 26l64 77q12 13 25 2q29 -24 64.5 -40.5t60.5 -16.5q33 0 56.5 18.5t23.5 51.5q0 35 -23.5 55.5t-56.5 20.5h-74
q-8 0 -13 5.5t-5 12.5v99q0 8 5 13t13 5h74q33 0 56.5 21t23.5 56q0 33 -23.5 51.5t-56.5 18.5q-25 0 -60 -15.5t-63 -38.5q-15 -11 -26 2l-64 76q-12 13 1 26q97 85 212 85q66 0 113.5 -21t70.5 -54.5t33 -65.5t10 -64z" />
    <glyph glyph-name="four" unicode="4" horiz-adv-x="555" 
d="M441 127v-109q0 -8 -5.5 -13t-12.5 -5h-119q-8 0 -13 5t-5 13v109h-238q-8 0 -13 5.5t-5 12.5v53q0 19 10 33l271 433q10 15 28 15h84q7 0 12.5 -5.5t5.5 -12.5v-393h66q7 0 12.5 -5t5.5 -13v-105q0 -7 -5.5 -12.5t-12.5 -5.5h-66zM286 379l-72 -111h72v111z" />
    <glyph glyph-name="five" unicode="5" horiz-adv-x="580" 
d="M73 124l77 68q12 12 25 -2q52 -56 108 -56q40 0 63.5 26t23.5 61t-23.5 60t-64.5 25h-157q-7 0 -12.5 5t-5.5 13v337q0 7 5.5 12.5t12.5 5.5h336q7 0 12.5 -5.5t5.5 -12.5v-104q0 -7 -5.5 -12.5t-12.5 -5.5h-196v-98h17q68 0 117.5 -21.5t74 -57.5t35.5 -71.5t11 -73.5
q0 -32 -11 -66.5t-35.5 -71.5t-74.5 -61t-117 -24q-122 0 -211 104q-10 14 2 26z" />
    <glyph glyph-name="six" unicode="6" 
d="M367 676l55 -84q10 -15 -6 -24q-71 -43 -140 -124q16 3 36 3q62 -4 107 -27t67 -58.5t31.5 -70.5t9.5 -73q0 -24 -5.5 -50.5t-22 -58.5t-41 -56.5t-67.5 -41.5t-97 -17t-97 17.5t-68 43.5t-41.5 59t-22 60.5t-5.5 51.5q0 67 16.5 128.5t43.5 109.5t64.5 90.5t76 72.5
t80.5 55q15 8 26 -6zM294 135q39 0 61.5 26t22.5 61t-22 60.5t-62 25.5t-61.5 -25t-23.5 -61q0 -35 22.5 -61t62.5 -26z" />
    <glyph glyph-name="seven" unicode="7" horiz-adv-x="501" 
d="M30 557v104q0 7 5 12.5t13 5.5h391q7 0 12.5 -5.5t5.5 -12.5v-25q0 -20 -7 -35l-237 -584q-7 -17 -25 -17h-123q-7 0 -10.5 5.5t-0.5 11.5l210 522h-216q-8 0 -13 5.5t-5 12.5z" />
    <glyph glyph-name="eight" unicode="8" horiz-adv-x="575" 
d="M514 479q-1 -34 -19.5 -74.5t-58.5 -65.5q41 -23 59.5 -61.5t18.5 -77.5q0 -24 -5.5 -49.5t-21 -54.5t-39.5 -51t-65.5 -36.5t-94.5 -14.5q-65 0 -112.5 21t-70.5 55t-33 65.5t-10 63.5q0 37 21 80.5t53 60.5q-36 18 -56 55t-20 84q0 25 5.5 50t21.5 53.5t40.5 50
t66 35.5t94.5 14q65 0 113 -21t71 -54t33 -65.5t9 -62.5zM288 129q32 0 55 19t23 51q0 33 -23 52t-55 19t-55.5 -19t-23.5 -52t23.5 -51.5t55.5 -18.5zM288 408q32 0 55 19t23 52t-23 50.5t-55 17.5q-33 0 -56 -17.5t-23 -50.5t23.5 -52t55.5 -19z" />
    <glyph glyph-name="nine" unicode="9" 
d="M220 3l-55 84q-11 15 6 24q71 43 140 124q-16 -3 -36 -3q-62 4 -107 27t-67 58.5t-31.5 70.5t-9.5 73q0 24 5.5 50.5t22 58.5t41 56.5t67.5 41.5t97 17t97 -17.5t68 -43.5t41.5 -59t22 -60.5t5.5 -51.5q0 -67 -16.5 -128.5t-43.5 -109.5t-64.5 -90.5t-76 -72.5t-80.5 -55
q-16 -9 -26 6zM293 544q-39 0 -61.5 -26t-22.5 -61t22 -60.5t62 -25.5t61.5 25t23.5 61q0 35 -22.5 61t-62.5 26z" />
    <glyph glyph-name="colon" unicode=":" horiz-adv-x="335" 
d="M80 81q0 36 26 62t62 26t61.5 -25.5t25.5 -62.5q0 -36 -25.5 -61.5t-61.5 -25.5t-62 25.5t-26 61.5zM80 418q0 36 26 62t62 26t61.5 -25.5t25.5 -62.5q0 -36 -25.5 -61.5t-61.5 -25.5t-62 25.5t-26 61.5z" />
    <glyph glyph-name="semicolon" unicode=";" horiz-adv-x="339" 
d="M80 417q0 36 26 62t62 26t61.5 -25.5t25.5 -62.5q0 -36 -25.5 -61.5t-61.5 -25.5t-62 25.5t-26 61.5zM133 -165l-35 20q-16 9 -7 25q42 79 48 116q-25 5 -42 27.5t-17 52.5q0 36 26 61.5t61 25.5q48 0 70 -27.5t22 -67.5q0 -43 -32 -112.5t-67 -115.5q-11 -14 -27 -5z
" />
    <glyph glyph-name="less" unicode="&#x3c;" horiz-adv-x="451" 
d="M247 292l159 -100q14 -11 6 -26l-47 -84q-9 -16 -24 -7l-296 180q-15 8 -15 27v20q0 17 15 27l296 179q15 9 24 -7l47 -83q8 -15 -6 -26z" />
    <glyph glyph-name="equal" unicode="=" horiz-adv-x="510" 
d="M412 385h-314q-8 0 -13 5.5t-5 12.5v82q0 7 5 12.5t13 5.5h314q8 0 13 -5.5t5 -12.5v-82q0 -7 -5 -12.5t-13 -5.5zM412 176h-314q-8 0 -13 5t-5 13v80q0 8 5 13t13 5h314q8 0 13 -5t5 -13v-80q0 -8 -5 -13t-13 -5z" />
    <glyph glyph-name="greater" unicode="&#x3e;" horiz-adv-x="451" 
d="M45 192l159 100l-159 100q-14 11 -6 26l47 83q9 16 24 7l296 -179q15 -10 15 -27v-20q0 -19 -15 -27l-296 -180q-15 -9 -24 7l-47 84q-8 15 6 26z" />
    <glyph glyph-name="question" unicode="?" horiz-adv-x="580" 
d="M216 72q0 35 24 59t60 24q35 0 59.5 -24t24.5 -59q0 -36 -24.5 -60t-59.5 -24q-37 0 -60.5 23t-23.5 61zM370 291v-53q0 -8 -5 -13t-13 -5h-108q-8 0 -13 5t-5 13v55q0 38 19 72.5t41 56t41 51t19 58.5q0 9 -2.5 17.5t-13.5 17.5t-28 9q-31 0 -54.5 -13.5t-62.5 -50.5
q-13 -13 -26 -1l-66 62q-12 12 -2 26q53 62 104 87.5t117 25.5q84 0 136 -47t52 -132q0 -52 -32.5 -103.5t-65 -87.5t-32.5 -50z" />
    <glyph glyph-name="at" unicode="@" horiz-adv-x="1146" 
d="M580 730q229 0 367.5 -136t138.5 -345q0 -61 -14 -119t-42.5 -110t-80.5 -84t-120 -32q-84 0 -123 68q-60 -47 -141 -47q-70 0 -122 26t-80 67.5t-41 86t-13 89.5q0 46 13 90t41 86t80 67.5t122 25.5q81 0 137 -43l6 18q7 17 24 17h56q8 0 13 -5.5t5 -12.5v-367
q2 -46 39 -46q47 0 77.5 63t30.5 157q0 158 -100.5 259t-275.5 101q-180 0 -283.5 -114t-101.5 -307q1 -57 20 -114.5t56.5 -113t102 -103.5t148.5 -79q7 -2 9.5 -9t-0.5 -13l-38 -72q-9 -16 -25 -10q-198 71 -300.5 206.5t-103.5 307.5q-1 156 61.5 280t182 195.5
t275.5 71.5zM672 95v198q-41 53 -102 53q-39 0 -66.5 -17.5t-39.5 -45t-17 -49.5t-5 -41t5 -41t17.5 -48.5t40 -44t65.5 -17.5q67 0 102 53z" />
    <glyph glyph-name="A" unicode="A" horiz-adv-x="738" 
d="M392 692l308 -676q3 -5 -0.5 -10.5t-9.5 -5.5h-143q-18 0 -25 17l-50 125h-206l-50 -125q-7 -17 -25 -17h-143q-6 0 -9.5 5.5t-1.5 10.5l307 676q6 16 24 16t24 -16zM369 397l-53 -130h105z" />
    <glyph glyph-name="B" unicode="B" horiz-adv-x="681" 
d="M531 351q40 -15 65 -53t25 -85q0 -38 -13 -73.5t-40.5 -68t-79 -52t-120.5 -19.5h-250q-8 0 -13 5t-5 13v664q0 8 5 13t13 5h250q69 0 120.5 -19.5t79 -52t40.5 -68.5t13 -74t-26 -78.5t-64 -56.5zM378 149q32 0 51.5 13.5t24.5 26.5t5 24q0 14 -4.5 27t-23.5 26t-51 14
h-121v-131h119zM380 413q31 1 50.5 16t24 29.5t4.5 27.5q0 12 -5 25t-24.5 27t-51.5 14h-119v-139h121z" />
    <glyph glyph-name="C" unicode="C" horiz-adv-x="749" 
d="M676 557l-81 -78q-13 -11 -25 1q-33 33 -78 56t-84 23q-46 0 -81 -17t-54 -41t-31 -55t-15.5 -53.5t-3.5 -41.5q0 -26 7 -55.5t24.5 -66.5t57.5 -61t97 -24q83 0 169 71q15 11 25 -2l69 -82q12 -14 -1 -27q-120 -113 -263 -113q-76 0 -137.5 23.5t-100 60t-64 85t-36 96
t-10.5 95.5q0 47 10.5 94t36 95.5t63.5 85.5t100 60.5t138 23.5q152 0 269 -127q5 -5 4.5 -13t-5.5 -13z" />
    <glyph glyph-name="D" unicode="D" horiz-adv-x="759" 
d="M352 0h-234q-8 0 -13 5t-5 13v664q0 8 5 13t13 5h234q77 0 138 -22.5t99.5 -58t64 -82.5t35.5 -93t10 -93q0 -61 -17.5 -119t-55.5 -112t-108.5 -87t-165.5 -33zM259 149h93q46 0 81 16.5t54 39.5t31 53t15.5 52t3.5 41t-3.5 41t-15.5 52t-31 52.5t-54 39t-81 16.5h-93
v-403z" />
    <glyph glyph-name="E" unicode="E" horiz-adv-x="644" 
d="M495 271h-235v-122h306q8 0 13 -5.5t5 -12.5v-113q0 -8 -5 -13t-13 -5h-448q-8 0 -13 5t-5 13v664q0 8 5 13t13 5h448q8 0 13 -5t5 -13v-113q0 -7 -5 -12.5t-13 -5.5h-306v-131h235q7 0 12.5 -5t5.5 -13v-113q0 -7 -5.5 -12.5t-12.5 -5.5z" />
    <glyph glyph-name="F" unicode="F" horiz-adv-x="643" 
d="M495 271h-236v-253q0 -8 -5.5 -13t-12.5 -5h-123q-8 0 -13 5t-5 13v664q0 8 5 13t13 5h447q7 0 12.5 -5t5.5 -13v-113q0 -7 -5.5 -12.5t-12.5 -5.5h-306v-131h236q7 0 12.5 -5t5.5 -13v-113q0 -7 -5.5 -12.5t-12.5 -5.5z" />
    <glyph glyph-name="G" unicode="G" horiz-adv-x="734" 
d="M508 237h-115q-7 0 -12.5 5.5t-5.5 12.5v111q0 8 5.5 13t12.5 5h258q7 0 12.5 -5t5.5 -13v-249q0 -18 -13 -31q-103 -95 -248 -95q-76 0 -137.5 23.5t-100 60t-64 85t-36 96t-10.5 95.5q0 47 10.5 94t36 95.5t63.5 85.5t100 60.5t138 23.5q143 0 254 -109q13 -13 0 -26
l-75 -82q-12 -12 -25 -1q-33 29 -75.5 48t-78.5 19q-46 0 -81 -17t-54 -40.5t-31 -54t-15.5 -53t-3.5 -41.5q0 -20 3.5 -43t15.5 -54.5t31 -56.5t54 -42.5t81 -17.5q61 0 100 29v69z" />
    <glyph glyph-name="H" unicode="H" horiz-adv-x="779" 
d="M261 271v-253q0 -8 -5.5 -13t-12.5 -5h-125q-8 0 -13 5t-5 13v664q0 8 5 13t13 5h125q7 0 12.5 -5t5.5 -13v-262h259v262q0 8 5 13t13 5h123q7 0 12.5 -5t5.5 -13v-664q0 -8 -5.5 -13t-12.5 -5h-123q-8 0 -13 5t-5 13v253h-259z" />
    <glyph glyph-name="I" unicode="I" horiz-adv-x="360" 
d="M260 682v-664q0 -8 -5 -13t-13 -5h-124q-8 0 -13 5t-5 13v664q0 8 5 13t13 5h124q8 0 13 -5t5 -13z" />
    <glyph glyph-name="J" unicode="J" horiz-adv-x="641" 
d="M37 224l108 40q16 5 23 -11q38 -106 110 -106q101 0 101 129v406q0 8 5.5 13t12.5 5h126q7 0 12.5 -5t5.5 -13v-406q0 -38 -6.5 -74t-24.5 -75t-46 -67.5t-75 -47t-108 -18.5q-107 0 -169.5 56.5t-87.5 150.5q-4 18 13 23z" />
    <glyph glyph-name="K" unicode="K" horiz-adv-x="745" 
d="M243 0h-125q-8 0 -13 5t-5 13v664q0 8 5 13t13 5h125q7 0 12.5 -5t5.5 -13v-248l220 252q12 14 30 14h164q5 0 7.5 -4.5t-1.5 -8.5l-294 -326l316 -348q3 -4 1 -8.5t-7 -4.5h-164q-17 0 -30 13l-242 275v-270q0 -8 -5.5 -13t-12.5 -5z" />
    <glyph glyph-name="L" unicode="L" horiz-adv-x="574" 
d="M261 682v-533h235q8 0 13 -5.5t5 -12.5v-113q0 -8 -5 -13t-13 -5h-378q-8 0 -13 5t-5 13v664q0 8 5 13t13 5h125q7 0 12.5 -5t5.5 -13z" />
    <glyph glyph-name="M" unicode="M" horiz-adv-x="1012" 
d="M506 301l181 392q7 15 23 15q17 0 23 -16l243 -675q2 -6 -1.5 -11.5t-10.5 -5.5h-134q-17 0 -24 17l-115 348l-162 -358q-7 -15 -23 -15t-23 15l-162 358l-115 -348q-7 -17 -24 -17h-134q-7 0 -10.5 5.5t-1.5 11.5l243 675q6 16 22 16q17 0 24 -15z" />
    <glyph glyph-name="N" unicode="N" horiz-adv-x="780" 
d="M243 0h-125q-8 0 -13 5t-5 13v677q0 15 14 15t26 -10l380 -355v337q0 8 5 13t13 5h124q8 0 13 -5t5 -13v-674q0 -13 -13 -13t-22 9l-384 363v-349q0 -8 -5.5 -13t-12.5 -5z" />
    <glyph glyph-name="O" unicode="O" horiz-adv-x="815" 
d="M408 712q76 0 137.5 -24t99.5 -61t63.5 -86t36 -96t10.5 -94q0 -48 -10.5 -95.5t-36 -96.5t-63.5 -86t-99.5 -60.5t-137.5 -23.5t-137.5 23.5t-100 60.5t-64 86t-36 96.5t-10.5 95.5q0 47 10.5 94t36 96t63.5 86t100 61t138 24zM408 139q46 0 81 17.5t53.5 42t30.5 56
t15.5 54.5t3.5 42t-3.5 42t-15.5 54t-30.5 55.5t-53.5 41.5t-81 17t-81 -17t-54 -41.5t-31 -55.5t-15.5 -54t-3.5 -42q0 -20 3.5 -42.5t15.5 -54t31 -56t54 -42t81 -17.5z" />
    <glyph glyph-name="P" unicode="P" horiz-adv-x="683" 
d="M261 235v-217q0 -8 -5.5 -13t-12.5 -5h-125q-8 0 -13 5t-5 13v664q0 8 5 13t13 5h252q56 0 100.5 -15t72.5 -39t46.5 -55t26 -61.5t7.5 -60.5q0 -101 -74 -167.5t-167 -66.5h-121zM378 385q32 1 52.5 17.5t26.5 33.5t6 33q0 30 -20 56.5t-68 26.5h-114v-167h117z" />
    <glyph glyph-name="Q" unicode="Q" horiz-adv-x="843" 
d="M629 60l156 -189q4 -5 1.5 -9.5t-7.5 -4.5h-153q-18 0 -30 14l-106 126q-40 -8 -82 -8q-76 0 -137.5 23.5t-100 60.5t-64 86t-36 96.5t-10.5 95.5q0 47 10.5 94t36 96t63.5 86t100 61t138 24t137.5 -24t99.5 -61t63.5 -86t36 -96t10.5 -94q0 -81 -30.5 -160t-95.5 -131z
M408 139q46 0 81 17.5t53.5 42t30.5 56t15.5 54.5t3.5 42t-3.5 42t-15.5 54t-30.5 55.5t-53.5 41.5t-81 17t-81 -17t-54 -41.5t-31 -55.5t-15.5 -54t-3.5 -42q0 -20 3.5 -42.5t15.5 -54t31 -56t54 -42t81 -17.5z" />
    <glyph glyph-name="R" unicode="R" horiz-adv-x="681" 
d="M621 469q0 -71 -35 -124.5t-94 -82.5l115 -246q3 -5 -0.5 -10.5t-9.5 -5.5h-139q-18 0 -26 16l-102 219h-71v-217q0 -8 -5.5 -13t-12.5 -5h-123q-8 0 -13 5t-5 13v664q0 8 5 13t13 5h250q56 0 100.5 -15t72.5 -39t46.5 -55t26 -61.5t7.5 -60.5zM377 385q45 1 64.5 28.5
t19.5 55.5q0 30 -20 56.5t-68 26.5h-114v-167h118z" />
    <glyph glyph-name="S" unicode="S" horiz-adv-x="656" 
d="M392 419q44 -15 74 -30t63 -39t50 -59.5t17 -81.5q0 -93 -73 -155t-186 -62q-130 0 -261 68q-16 7 -8 24l55 102q7 16 24 8q115 -52 184 -52q40 0 68 17t28 43q0 30 -29.5 47t-90.5 37q-32 10 -45.5 15t-43 17t-44.5 21.5t-36.5 27t-32 35.5t-18.5 44t-8 56
q0 97 64.5 153t166.5 56q123 0 253 -60q16 -9 9 -25l-45 -103q-7 -16 -24 -9q-127 46 -183 46q-35 0 -58 -12t-22 -39q1 -7 3.5 -13.5t8.5 -12t11.5 -10.5t16 -10t18 -9t21.5 -9t22.5 -8t25 -9t25.5 -9z" />
    <glyph glyph-name="T" unicode="T" horiz-adv-x="619" 
d="M228 18v533h-165q-7 0 -12.5 5.5t-5.5 12.5v113q0 8 5.5 13t12.5 5h493q8 0 13 -5t5 -13v-113q0 -7 -5 -12.5t-13 -5.5h-167v-533q0 -8 -5.5 -13t-12.5 -5h-125q-8 0 -13 5t-5 13z" />
    <glyph glyph-name="U" unicode="U" horiz-adv-x="740" 
d="M370 141q33 0 58 15.5t37.5 38.5t18 43t5.5 37v407q0 8 5.5 13t12.5 5h125q8 0 13 -5t5 -13v-407q0 -48 -15 -95t-46 -90t-88 -70t-131 -27t-131 27t-88 70t-46 90t-15 95v407q0 8 5 13t13 5h124q8 0 13 -5t5 -13v-407q0 -24 9 -52t38.5 -55t72.5 -27z" />
    <glyph glyph-name="V" unicode="V" horiz-adv-x="738" 
d="M700 684l-308 -677q-7 -15 -24 -15t-24 15l-307 677q-2 5 1.5 10.5t9.5 5.5h143q18 0 25 -17l153 -380l153 380q7 17 25 17h143q6 0 9.5 -5.5t0.5 -10.5z" />
    <glyph glyph-name="W" unicode="W" horiz-adv-x="1094" 
d="M725 323l153 360q7 17 25 17h143q6 0 9.5 -5.5t0.5 -10.5l-309 -679q-7 -13 -20 -13t-20 13l-160 361l-160 -361q-7 -13 -20 -13t-20 13l-310 679q-2 5 1.5 10.5t9.5 5.5h143q18 0 25 -17l153 -360l156 371q5 15 22 15q15 0 22 -15z" />
    <glyph glyph-name="X" unicode="X" horiz-adv-x="684" 
d="M460 15l-118 201l-118 -201q-10 -15 -27 -15h-149q-6 0 -8.5 5t0.5 10l218 335l-218 335q-3 5 -0.5 10t8.5 5h149q17 0 27 -16l118 -201l118 201q8 16 27 16h149q6 0 8.5 -5t-0.5 -10l-219 -335l219 -335q3 -5 0.5 -10t-8.5 -5h-149q-19 0 -27 15z" />
    <glyph glyph-name="Y" unicode="Y" horiz-adv-x="697" 
d="M428 311v-293q0 -8 -5 -13t-13 -5h-123q-7 0 -12.5 5t-5.5 13v291l-230 376q-3 5 0 10t9 5h141q17 0 27 -15l132 -220l132 220q8 15 27 15h142q6 0 9 -5t0 -10z" />
    <glyph glyph-name="Z" unicode="Z" horiz-adv-x="666" 
d="M311 149h271q8 0 13 -5.5t5 -12.5v-113q0 -8 -5 -13t-13 -5h-482q-8 0 -13 5t-5 13v12q0 18 9 34l264 488h-248q-7 0 -12.5 5t-5.5 13v112q0 8 5.5 13t12.5 5h464q7 0 12.5 -5t5.5 -13v-4q0 -18 -9 -34z" />
    <glyph glyph-name="bracketleft" unicode="[" horiz-adv-x="277" 
d="M30 -187v951q0 8 5 13t13 5h181q7 0 12.5 -5t5.5 -13v-80q0 -8 -5.5 -13t-12.5 -5h-60v-755h60q7 0 12.5 -5.5t5.5 -12.5v-80q0 -7 -5.5 -12.5t-12.5 -5.5h-181q-8 0 -13 5.5t-5 12.5z" />
    <glyph glyph-name="backslash" unicode="\" horiz-adv-x="414" 
d="M256 17l-220 666q-2 6 1.5 11.5t10.5 5.5h85q17 0 24 -17l221 -666q2 -6 -1.5 -11.5t-10.5 -5.5h-86q-17 0 -24 17z" />
    <glyph glyph-name="bracketright" unicode="]" horiz-adv-x="277" 
d="M247 764v-951q0 -7 -5.5 -12.5t-12.5 -5.5h-181q-8 0 -13 5.5t-5 12.5v80q0 7 5 12.5t13 5.5h60v755h-60q-8 0 -13 5t-5 13v80q0 8 5 13t13 5h181q7 0 12.5 -5t5.5 -13z" />
    <glyph glyph-name="asciicircum" unicode="^" horiz-adv-x="686" 
d="M130 359l-57 57q-13 13 0 26l244 244q11 11 26 11t26 -11l244 -244q13 -13 0 -26l-57 -57q-14 -13 -26 -1l-187 168l-187 -168q-12 -12 -26 1z" />
    <glyph glyph-name="underscore" unicode="_" horiz-adv-x="421" 
d="M5 -73v52q0 7 5.5 12.5t12.5 5.5h375q8 0 13 -5.5t5 -12.5v-52q0 -7 -5 -12.5t-13 -5.5h-375q-7 0 -12.5 5.5t-5.5 12.5z" />
    <glyph glyph-name="grave" unicode="`" horiz-adv-x="510" 
d="M181 786l138 -107q15 -11 4 -26l-36 -52q-11 -15 -25 -6l-150 93q-14 11 -5 25l50 69q9 15 24 4z" />
    <glyph glyph-name="a" unicode="a" horiz-adv-x="552" 
d="M284 509q62 0 102 -18t57.5 -52.5t23 -66t5.5 -78.5v-276q0 -8 -5 -13t-13 -5h-65q-19 0 -25 16l-8 18q-47 -44 -122 -44q-52 0 -88.5 16.5t-54 43t-24.5 51.5t-7 51q0 89 55.5 129t138.5 40q30 0 65 -7q0 60 -57 60q-39 0 -112 -30q-17 -7 -24 9l-37 83q-7 18 9 25
q91 44 186 48zM319 156v38q-28 8 -47 8q-66 0 -66 -44q0 -15 13 -23.5t32 -8.5q47 0 68 30z" />
    <glyph glyph-name="b" unicode="b" horiz-adv-x="615" 
d="M366 504q55 -9 94 -35.5t58.5 -64.5t28 -75.5t8.5 -78.5t-10 -80.5t-32.5 -78.5t-64.5 -65.5t-99 -32.5q-90 -9 -153 40l-7 -16q-6 -17 -25 -17h-66q-8 0 -13 5t-5 13v664q0 8 5 13t13 5h116q8 0 13 -5t5 -13v-199q47 31 134 21zM306 131q31 0 52 13t30 34.5t12.5 38
t3.5 33.5q0 15 -2 29t-8.5 31.5t-17.5 30t-31 21t-47 8.5q-37 0 -66 -18v-192q23 -29 74 -29z" />
    <glyph glyph-name="c" unicode="c" horiz-adv-x="563" 
d="M430 179l67 -80q13 -15 -1 -27q-86 -79 -182 -79q-68 0 -120 24.5t-79.5 64t-41 81.5t-13.5 85q0 44 12 85.5t38.5 82.5t78.5 66.5t123 25.5q108 0 193 -85q14 -13 1 -26l-66 -73q-12 -12 -25 -1q-48 42 -103 42q-49 0 -73.5 -35t-24.5 -79q0 -51 29 -81t70 -30
q42 0 93 41q14 12 24 -2z" />
    <glyph glyph-name="d" unicode="d" horiz-adv-x="615" 
d="M383 483v199q0 8 5.5 13t12.5 5h116q7 0 12.5 -5t5.5 -13v-664q0 -8 -5.5 -13t-12.5 -5h-66q-19 0 -25 17l-7 16q-63 -49 -153 -40q-57 6 -99 32.5t-64.5 65.5t-32.5 78.5t-10 80.5t8.5 78.5t28 75.5t58.5 64.5t94 35.5q87 10 134 -21zM309 131q51 0 74 29v192
q-29 18 -66 18q-27 0 -47 -8.5t-31 -21t-17.5 -30t-8.5 -31.5t-2 -29q0 -17 3.5 -33.5t12.5 -38t30 -34.5t52 -13z" />
    <glyph glyph-name="e" unicode="e" horiz-adv-x="549" 
d="M479 217h-274q8 -36 31 -59t59 -23q56 0 105 30q6 4 13.5 2.5t11.5 -7.5l52 -76q10 -15 -4 -26q-82 -64 -178 -64q-68 0 -119 24.5t-78 64t-40 82t-13 86.5q0 43 13 85t40 82t78 64.5t119 24.5q99 0 154 -58.5t55 -158.5q0 -17 -4 -55q-3 -18 -21 -18zM295 368
q-68 0 -86 -64h143q-6 63 -57 64z" />
    <glyph glyph-name="f" unicode="f" horiz-adv-x="385" 
d="M389 651l-34 -86q-5 -17 -23 -11q-45 16 -81 16q-16 0 -27.5 -9.5t-11.5 -28.5v-32h71q7 0 12.5 -5t5.5 -13v-99q0 -7 -5.5 -12.5t-12.5 -5.5h-71v-347q0 -8 -5 -13t-13 -5h-116q-8 0 -13 5t-5 13v347h-32q-8 0 -13 5.5t-5 12.5v99q0 8 5 13t13 5h32v35q0 85 51.5 129.5
t131.5 44.5q58 0 136 -33q15 -8 10 -25z" />
    <glyph glyph-name="g" unicode="g" horiz-adv-x="592" 
d="M288 85q130 0 181 -40t51 -110q0 -13 -3 -28.5t-16.5 -40t-36 -44t-66.5 -33.5t-102 -14q-125 0 -180.5 49t-55.5 112q1 24 14 51t35 45q-38 43 -38 93q0 57 48 91q-34 40 -34 97q0 35 11 68t33.5 64t64.5 50t97 19q53 0 88 -19l68 61q12 12 25 -1l58 -63q12 -12 -1 -26
l-61 -64q28 -36 28 -91q0 -33 -11 -66t-33.5 -63t-64 -48.5t-96.5 -18.5q-56 0 -84 11q-13 -1 -13 -16q0 -26 42 -26q5 0 25 0.5t27 0.5zM291 373q-19 0 -31 -12t-15 -24t-3 -24q0 -11 2.5 -22t14.5 -24t32 -13q19 0 30.5 12.5t14 24t2.5 22.5t-2.5 22.5t-14 24.5t-30.5 13z
M291 -108q36 0 56.5 10.5t24 17.5t3.5 13q0 45 -84 45q-51 0 -68.5 -11.5t-17.5 -31.5q0 -41 86 -43z" />
    <glyph glyph-name="h" unicode="h" horiz-adv-x="586" 
d="M214 0h-116q-8 0 -13 5t-5 13v664q0 8 5 13t13 5h116q8 0 13 -5t5 -13v-197q36 23 99 23q51 -3 87.5 -19t57 -39t32 -57.5t15 -64.5t3.5 -70v-240q0 -8 -5 -13t-13 -5h-115q-7 0 -12.5 5t-5.5 13v240q0 18 -1.5 32t-6 30t-13 26t-23.5 16.5t-36 5.5q-44 -2 -63 -28v-322
q0 -8 -5 -13t-13 -5z" />
    <glyph glyph-name="i" unicode="i" horiz-adv-x="321" 
d="M236 482v-464q0 -8 -5 -13t-13 -5h-116q-8 0 -13 5t-5 13v464q0 8 5 13t13 5h116q8 0 13 -5t5 -13zM80 671q0 34 23.5 57.5t57.5 23.5t57 -23.5t23 -57.5t-23 -57t-57 -23q-35 0 -58 23t-23 57z" />
    <glyph glyph-name="j" unicode="j" horiz-adv-x="298" 
d="M-51 -35q40 -23 69 -23q42 0 42 60v480q0 8 5 13t13 5h119q7 0 12.5 -5t5.5 -13v-483q0 -18 -2 -37t-12.5 -49t-28.5 -52t-54 -38.5t-84 -16.5q-81 0 -151 55q-14 11 -3 27l44 71q11 15 25 6zM57 669q0 34 23.5 57.5t57.5 23.5t57 -23.5t23 -57.5t-23 -57t-57 -23
q-35 0 -58 23t-23 57z" />
    <glyph glyph-name="k" unicode="k" horiz-adv-x="634" 
d="M411 13l-179 200v-195q0 -8 -5 -13t-13 -5h-116q-8 0 -13 5t-5 13v664q0 8 5 13t13 5h116q8 0 13 -5t5 -13v-383l166 187q12 14 30 14h145q5 0 7 -4.5t-1 -8.5l-215 -227l233 -247q3 -4 1 -8.5t-7 -4.5h-150q-17 0 -30 13z" />
    <glyph glyph-name="l" unicode="l" horiz-adv-x="314" 
d="M234 682v-664q0 -8 -5 -13t-13 -5h-118q-8 0 -13 5t-5 13v664q0 8 5 13t13 5h118q8 0 13 -5t5 -13z" />
    <glyph glyph-name="m" unicode="m" horiz-adv-x="845" 
d="M232 338v-320q0 -8 -5 -13t-13 -5h-116q-8 0 -13 5t-5 13v464q0 8 5 13t13 5h64q18 0 25 -17l6 -16q50 41 118 41q94 0 141 -55q21 26 58.5 40.5t74.5 14.5q56 0 95 -16t59 -37.5t31 -59t13 -65.5t2 -72v-240q0 -8 -5.5 -13t-12.5 -5h-119q-8 0 -13 5t-5 13v252
q7 100 -50 100q-40 0 -70 -32v-320q0 -8 -5 -13t-13 -5h-117q-7 0 -12.5 5t-5.5 13v252q0 22 -0.5 35.5t-5 30.5t-16 25.5t-29.5 8.5q-46 0 -74 -32z" />
    <glyph glyph-name="n" unicode="n" 
d="M232 336v-318q0 -8 -5 -13t-13 -5h-116q-8 0 -13 5t-5 13v464q0 8 5 13t13 5h63q17 0 27 -16l8 -15q48 39 115 39q55 0 96 -15.5t63.5 -38.5t35.5 -58t17 -66.5t4 -71.5v-240q0 -8 -5.5 -13t-12.5 -5h-118q-7 0 -12.5 5t-5.5 13v240q0 23 -1.5 37.5t-7.5 34t-20.5 29.5
t-37.5 10q-50 0 -74 -33z" />
    <glyph glyph-name="o" unicode="o" horiz-adv-x="618" 
d="M309 510q68 0 119 -25t78 -66t39.5 -83.5t12.5 -85.5q0 -44 -12.5 -86.5t-39.5 -83t-78 -65t-119 -24.5t-119 24.5t-78 65t-39.5 83t-12.5 86.5q0 43 12.5 85.5t39.5 83.5t78 66t119 25zM309 130q30 0 51 14t30 35.5t12.5 38.5t3.5 32q0 22 -5.5 46t-29 49.5t-62.5 25.5
t-63 -25.5t-29.5 -49.5t-5.5 -46q0 -15 3.5 -32t13 -38.5t30.5 -35.5t51 -14z" />
    <glyph glyph-name="p" unicode="p" horiz-adv-x="615" 
d="M232 18v-199q0 -7 -5 -12.5t-13 -5.5h-116q-8 0 -13 5.5t-5 12.5v664q0 7 5 12.5t13 5.5h66q18 0 25 -17l7 -16q63 49 153 40q57 -6 99 -32.5t64.5 -65.5t32.5 -78.5t10 -80.5t-8.5 -78.5t-28 -75.5t-58.5 -64.5t-94 -35.5q-87 -10 -134 21zM306 370q-51 0 -74 -29v-192
q29 -18 66 -18q27 0 47 8.5t31 21t17.5 30t8.5 31.5t2 29q0 17 -3.5 33.5t-12.5 38t-30 34.5t-52 13z" />
    <glyph glyph-name="q" unicode="q" horiz-adv-x="615" 
d="M367 8q-46 -20 -118 -12q-55 9 -94 35.5t-58.5 64.5t-28 75.5t-8.5 78.5t10 80.5t32.5 78.5t64.5 65.5t99 32.5q90 9 153 -40l7 16q7 17 25 17h66q7 0 12.5 -5t5.5 -13v-664q0 -8 -5.5 -13t-12.5 -5h-116q-7 0 -12.5 5t-5.5 13v181q0 6 -5.5 9t-10.5 0zM309 369
q-31 0 -52 -13t-30 -34.5t-12.5 -38t-3.5 -33.5q0 -15 2 -29t8.5 -31.5t17.5 -30t31 -21t47 -8.5q37 0 66 18v192q-23 29 -74 29z" />
    <glyph glyph-name="r" unicode="r" horiz-adv-x="426" 
d="M401 478l-34 -106q-6 -17 -22 -13q-23 5 -42 5q-47 0 -71 -31v-315q0 -8 -5 -13t-13 -5h-116q-8 0 -13 5t-5 13v464q0 8 5 13t13 5h63q18 0 26 -16l8 -15q45 37 118 37q28 0 75 -7q7 -1 11 -7.5t2 -13.5z" />
    <glyph glyph-name="s" unicode="s" horiz-adv-x="519" 
d="M335 301q57 -22 90.5 -55t33.5 -96q0 -70 -54 -114t-137 -44q-97 0 -192 54q-15 9 -8 25l46 88q7 16 24 8q77 -36 125 -36q41 0 41 20q0 4 -1 7t-4.5 5.5t-7 4.5t-10 4t-12 3.5t-15.5 4.5t-17 5q-32 10 -54.5 19.5t-49.5 28t-41.5 47.5t-14.5 68q0 74 48 117t126 43
q86 0 184 -44q16 -7 9 -25l-40 -89q-7 -16 -24 -9q-83 32 -124 32q-28 0 -28 -18q0 -6 5.5 -11.5t17 -11t22.5 -9.5t30.5 -10.5t31.5 -11.5z" />
    <glyph glyph-name="t" unicode="t" horiz-adv-x="381" 
d="M85 363h-32q-7 0 -12.5 5.5t-5.5 12.5v101q0 8 5.5 13t12.5 5h32l8 80q2 18 20 18h106q7 0 12.5 -5t5.5 -13v-80h72q7 0 12.5 -5t5.5 -13v-101q0 -7 -5.5 -12.5t-12.5 -5.5h-72v-203q0 -14 7.5 -21t15.5 -7q20 0 52 7q7 2 13.5 -2t7.5 -11l19 -88q4 -17 -13 -23
q-84 -21 -129 -21q-40 0 -67.5 16t-38.5 41.5t-15 45t-4 38.5v228z" />
    <glyph glyph-name="u" unicode="u" 
d="M355 164v318q0 8 5.5 13t12.5 5h116q7 0 12.5 -5t5.5 -13v-464q0 -8 -5.5 -13t-12.5 -5h-63q-17 0 -27 16l-8 15q-48 -39 -115 -39q-55 0 -96 15.5t-63.5 38.5t-35.5 58t-17 66.5t-4 71.5v240q0 8 5 13t13 5h118q8 0 13 -5t5 -13v-240q0 -23 1.5 -37.5t7.5 -34
t20.5 -29.5t37.5 -10q50 0 74 33z" />
    <glyph glyph-name="v" unicode="v" horiz-adv-x="583" 
d="M291 276l86 207q7 17 25 17h133q6 0 9.5 -5.5t0.5 -10.5l-237 -481q-6 -12 -19 -12q-12 0 -19 12l-232 481q-3 5 0.5 10.5t9.5 5.5h131q18 0 25 -17z" />
    <glyph glyph-name="w" unicode="w" horiz-adv-x="834" 
d="M416 506q10 0 14 -9l111 -244l92 230q7 17 25 17h126q6 0 9.5 -5.5t0.5 -10.5l-227 -485q-5 -10 -16 -10t-16 10l-119 212l-119 -212q-5 -10 -16 -10t-16 10l-227 485q-3 5 0.5 10.5t9.5 5.5h126q18 0 25 -17l92 -230l111 244q4 9 14 9z" />
    <glyph glyph-name="x" unicode="x" horiz-adv-x="520" 
d="M185 0h-137q-6 0 -9 5t0 10l142 235l-142 235q-3 5 0 10t9 5h138q18 0 26 -16l48 -97l48 97q8 16 26 16h138q6 0 9 -5t0 -10l-142 -235l142 -235q3 -5 0 -10t-9 -5h-137q-18 0 -26 16l-49 98l-49 -98q-8 -16 -26 -16z" />
    <glyph glyph-name="y" unicode="y" horiz-adv-x="616" 
d="M207 483l99 -256l102 256q7 17 25 17h135q6 0 9.5 -5.5t1.5 -11.5l-284 -665q-6 -17 -25 -17h-127q-7 0 -10 5.5t-1 11.5l92 221l-187 444q-2 6 1 11.5t10 5.5h135q19 0 24 -17z" />
    <glyph glyph-name="z" unicode="z" horiz-adv-x="532" 
d="M75 372v110q0 8 5.5 13t12.5 5h357q8 0 13 -5t5 -13v-5q0 -17 -9 -34l-161 -297h152q8 0 13 -5t5 -13v-110q0 -8 -5 -13t-13 -5h-366q-8 0 -13 5t-5 13v7q0 17 9 34l161 295h-143q-7 0 -12.5 5t-5.5 13z" />
    <glyph glyph-name="braceleft" unicode="{" horiz-adv-x="328" 
d="M280 -199h-28q-7 0 -19.5 1.5t-39.5 11.5t-48.5 27.5t-38.5 54t-17 85.5v216q0 18 -9 29t-20 12h-12q-8 0 -13 5t-5 13v66q0 8 5 13t13 5h11q12 0 21 11.5t9 29.5v216q0 49 17 85.5t38.5 54t48.5 27.5t39.5 11.5t19.5 1.5h28q8 0 13 -5.5t5 -12.5v-79q0 -8 -5 -13t-13 -5
h-4q-3 0 -7 -0.5t-12 -4.5t-14 -11t-11 -21.5t-5 -34.5v-209q0 -31 -15.5 -56t-35.5 -36q20 -11 35.5 -36t15.5 -55v-209q0 -20 5 -34.5t11 -22t14 -11.5t12 -4.5t7 -0.5h4q8 0 13 -5t5 -13v-79q0 -7 -5 -12.5t-13 -5.5z" />
    <glyph glyph-name="bar" unicode="|" horiz-adv-x="228" 
d="M150 -201h-72q-8 0 -13 5.5t-5 12.5v936q0 7 5 12.5t13 5.5h72q8 0 13 -5.5t5 -12.5v-936q0 -7 -5 -12.5t-13 -5.5z" />
    <glyph glyph-name="braceright" unicode="}" horiz-adv-x="328" 
d="M76 -199h-28q-8 0 -13 5.5t-5 12.5v79q0 8 5 13t13 5h4q3 0 7 0.5t12 4.5t14 11.5t11 22t5 34.5v209q0 30 15.5 55t35.5 36q-20 11 -35.5 36t-15.5 56v209q0 20 -5 34.5t-11 21.5t-14 11t-12 4.5t-7 0.5h-4q-8 0 -13 5t-5 13v79q0 7 5 12.5t13 5.5h28q7 0 19.5 -1.5
t39.5 -11.5t48.5 -27.5t38.5 -54t17 -85.5v-216q0 -18 9 -29.5t21 -11.5h11q8 0 13 -5t5 -13v-66q0 -8 -5 -13t-13 -5h-12q-11 -1 -20 -12t-9 -29v-216q0 -49 -17 -85.5t-38.5 -54t-48.5 -27.5t-39.5 -11.5t-19.5 -1.5z" />
    <glyph glyph-name="asciitilde" unicode="~" horiz-adv-x="630" 
d="M131 216l-56 40q-16 9 -6 25q69 113 169 113q34 0 92 -32q42 -24 66 -24q32 0 76 52q10 14 26 3l57 -41q15 -11 6 -27q-70 -115 -166 -115q-46 0 -104 36q-42 22 -57 22q-36 0 -77 -48q-10 -14 -26 -4z" />
    <glyph glyph-name="exclamdown" unicode="&#xa1;" horiz-adv-x="368" 
d="M261 76v-258q0 -8 -5.5 -13t-12.5 -5h-116q-7 0 -12.5 5t-5.5 13v258l16 178q2 18 20 18h80q18 0 20 -18zM110 434q0 33 22 54.5t55 21.5q32 0 54 -21.5t22 -54.5q0 -32 -22 -54.5t-54 -22.5q-33 0 -55 22.5t-22 54.5z" />
    <glyph glyph-name="cent" unicode="&#xa2;" horiz-adv-x="563" 
d="M351 -87h-72q-7 0 -12.5 5.5t-5.5 12.5v67q-54 9 -94.5 35.5t-63 63.5t-33 75t-10.5 76q0 39 9.5 77t31 76.5t63 66t97.5 36.5v60q0 8 5.5 13t12.5 5h72q7 0 12.5 -5t5.5 -13v-62q74 -17 136 -79q14 -13 1 -26l-66 -73q-12 -12 -25 -1q-24 20 -46 29v-196q18 9 37 25
q14 12 24 -2l67 -80q12 -14 -1 -27q-60 -57 -127 -72v-69q0 -7 -5.5 -12.5t-12.5 -5.5zM214 251q0 -66 47 -96v196q-47 -30 -47 -100z" />
    <glyph glyph-name="sterling" unicode="&#xa3;" horiz-adv-x="706" 
d="M494 650l-34 -86q-5 -17 -23 -11q-45 16 -81 16q-16 0 -27.5 -9.5t-11.5 -28.5v-32h71q8 0 13 -5.5t5 -12.5v-99q0 -8 -5 -13t-13 -5h-71v-196q16 -2 52.5 -18t56.5 -16q66 -2 111 53q11 15 25 4l70 -52q14 -11 5 -27q-37 -60 -88.5 -88.5t-123.5 -30.5q-32 -1 -88 25.5
t-86 26.5q-19 0 -49.5 -11.5t-57.5 -39.5q-13 -13 -25 -2l-66 60q-15 13 -4 27q40 59 116 90v195h-32q-7 0 -12.5 5t-5.5 13v99q0 7 5.5 12.5t12.5 5.5h32v35q0 85 51.5 129.5t131.5 44.5q58 0 136 -33q15 -8 10 -25z" />
    <glyph glyph-name="currency" unicode="&#xa4;" horiz-adv-x="664" 
d="M535 285q0 -57 -20 -101l76 -76q13 -13 0 -26l-49 -48q-13 -13 -26 0l-71 71q-51 -30 -113 -30q-65 0 -113 29l-71 -70q-13 -13 -26 0l-49 49q-13 13 0 25l78 76q-22 44 -22 101q0 61 25 110l-80 81q-13 13 0 26l49 50q13 13 26 0l80 -81q46 24 103 24q60 0 105 -26
l79 83q13 13 26 0l49 -50q13 -13 0 -26l-82 -82q26 -48 26 -109zM332 221q29 0 40.5 21.5t11.5 42.5q0 12 -3 24.5t-16 26.5t-33 14q-30 0 -41.5 -22t-11.5 -43q0 -12 3 -24.5t16 -26t34 -13.5z" />
    <glyph glyph-name="yen" unicode="&#xa5;" horiz-adv-x="697" 
d="M505 60h-77v-42q0 -8 -5 -13t-13 -5h-123q-7 0 -12.5 5t-5.5 13v42h-78q-7 0 -12.5 5t-5.5 13v67q0 7 5.5 12.5t12.5 5.5h78v67h-78q-7 0 -12.5 5t-5.5 13v67q0 7 5.5 12.5t12.5 5.5h63l-215 352q-3 5 0 10t9 5h141q17 0 27 -15l132 -220l132 220q8 15 27 15h142
q6 0 9 -5t0 -10l-217 -352h64q7 0 12.5 -5.5t5.5 -12.5v-67q0 -8 -5.5 -13t-12.5 -5h-77v-67h77q7 0 12.5 -5.5t5.5 -12.5v-67q0 -8 -5.5 -13t-12.5 -5z" />
    <glyph glyph-name="brokenbar" unicode="&#xa6;" horiz-adv-x="229" 
d="M169 170v-351q0 -7 -5.5 -12.5t-12.5 -5.5h-73q-8 0 -13 5.5t-5 12.5v351q0 8 5 13t13 5h73q7 0 12.5 -5t5.5 -13zM169 756v-350q0 -8 -5.5 -13t-12.5 -5h-73q-8 0 -13 5t-5 13v350q0 8 5 13t13 5h73q7 0 12.5 -5t5.5 -13z" />
    <glyph glyph-name="section" unicode="&#xa7;" horiz-adv-x="615" 
d="M91 -92l60 77q10 13 26 4q83 -59 130 -59q24 0 43 13t19 36q0 40 -104 94q-163 77 -163 204q0 64 57 123q-18 17 -34 52.5t-16 71.5q0 71 54.5 128t154.5 57q92 0 196 -71q6 -4 7.5 -11.5t-2.5 -13.5l-57 -83q-10 -15 -26 -6q-84 46 -130 46q-20 0 -33 -11t-15 -32
q3 -37 82 -77q88 -43 141.5 -94t53.5 -120q0 -64 -60 -129q51 -62 51 -132q0 -83 -60 -134.5t-146 -51.5q-118 0 -227 93q-12 12 -2 26zM247 285q0 -11 3.5 -21t12 -18.5t16 -15t21 -14t20.5 -11t22.5 -10.5t18.5 -8q19 24 21 45q0 16 -20 31t-54 31.5t-44 23.5
q-17 -17 -17 -33z" />
    <glyph glyph-name="dieresis" unicode="&#xa8;" horiz-adv-x="582" 
d="M91 669q0 34 23.5 57.5t57.5 23.5t57 -23.5t23 -57.5t-23 -57t-57 -23q-35 0 -58 23t-23 57zM327 669q0 34 23.5 57.5t57.5 23.5t57 -23.5t23 -57.5t-23 -57t-57 -23q-35 0 -58 23t-23 57z" />
    <glyph glyph-name="copyright" unicode="&#xa9;" horiz-adv-x="586" 
d="M293 705q105 0 179 -74t74 -179t-74 -179t-179 -74q-100 0 -176.5 74t-76.5 181q0 99 74 175t179 76zM293 272q76 0 128 52t52 128t-52 128.5t-128 52.5t-128.5 -52.5t-52.5 -128.5t52.5 -128t128.5 -52zM235 450q0 31 18 50.5t44 19.5q28 0 53 -21q14 -13 25 0l21 22
q14 13 1 26q-43 46 -100 46q-38 0 -67.5 -14t-45 -36.5t-23.5 -46t-8 -46.5q0 -54 35.5 -99t108.5 -45q56 0 100 46q13 12 -1 26l-19 20q-12 12 -27 1q-25 -19 -53 -19q-26 0 -44 19t-18 51z" />
    <glyph glyph-name="ordfeminine" unicode="&#xaa;" horiz-adv-x="409" 
d="M190 708l18 1q47 0 77 -13.5t43 -39.5t17 -49.5t4 -58.5v-203q0 -7 -5.5 -12.5t-12.5 -5.5h-39q-18 0 -26 16l-4 10q-35 -33 -91 -33q-39 0 -66.5 12.5t-40.5 32t-18.5 38.5t-5.5 38q0 67 42 97t104 30q25 0 49 -5q0 45 -43 45q-27 0 -80 -21q-17 -7 -24 9l-24 54
q-7 18 9 25q65 32 117 33zM235 444v29q-22 6 -36 6q-49 0 -49 -33q0 -24 34 -24t51 22z" />
    <glyph glyph-name="guillemotleft" unicode="&#xab;" horiz-adv-x="597" 
d="M187 256l101 -127q11 -14 -3 -26l-52 -45q-13 -12 -26 1l-173 185q-4 6 -4 11q0 6 4 12l173 184q13 13 26 1l52 -45q14 -12 3 -26zM455 256l101 -127q11 -14 -3 -26l-52 -45q-13 -12 -26 1l-173 185q-4 6 -4 11q0 6 4 12l173 184q13 13 26 1l52 -45q14 -12 3 -26z" />
    <glyph glyph-name="logicalnot" unicode="&#xac;" horiz-adv-x="627" 
d="M547 402v-298q0 -8 -5.5 -13t-12.5 -5h-185q-8 0 -13 5t-5 13v109h-228q-8 0 -13 5.5t-5 12.5v171q0 8 5 13t13 5h431q7 0 12.5 -5t5.5 -13z" />
    <glyph glyph-name="uni00AD" unicode="&#xad;" horiz-adv-x="400" 
d="M79 266h246q7 0 12.5 -5t5.5 -13v-80q0 -8 -5.5 -13t-12.5 -5h-246q-7 0 -12.5 5t-5.5 13v80q0 8 5.5 13t12.5 5z" />
    <glyph glyph-name="registered" unicode="&#xae;" horiz-adv-x="586" 
d="M293 705q105 0 179 -74t74 -179t-74 -179t-179 -74q-100 0 -176.5 74t-76.5 181q0 99 74 175t179 76zM293 272q76 0 128 52t52 128t-52 128.5t-128 52.5t-128.5 -52.5t-52.5 -128.5t52.5 -128t128.5 -52zM268 404v-55q0 -7 -5 -12.5t-13 -5.5h-32q-8 0 -13 5.5t-5 12.5
v214q0 7 5 12.5t13 5.5h82q49 0 71.5 -27.5t22.5 -60.5q0 -20 -12 -40.5t-29 -32.5l41 -73q3 -5 0 -10.5t-9 -5.5h-44q-17 0 -27 16l-30 57h-16zM268 471h35q22 1 22 22q0 8 -5.5 15.5t-18.5 7.5h-33v-45z" />
    <glyph glyph-name="macron" unicode="&#xaf;" horiz-adv-x="516" 
d="M131 705h265q8 0 13 -5.5t5 -12.5v-72q0 -7 -5 -12.5t-13 -5.5h-265q-7 0 -12.5 5.5t-5.5 12.5v72q0 7 5.5 12.5t12.5 5.5z" />
    <glyph glyph-name="degree" unicode="&#xb0;" horiz-adv-x="330" 
d="M165 440q-56 0 -95.5 39.5t-39.5 95.5t39.5 95.5t95.5 39.5t95.5 -38.5t39.5 -96.5q0 -56 -39.5 -95.5t-95.5 -39.5zM165 527q19 0 32.5 13.5t13.5 34.5q0 20 -13.5 33t-32.5 13t-34 -14t-15 -32q0 -21 14.5 -34.5t34.5 -13.5z" />
    <glyph glyph-name="plusminus" unicode="&#xb1;" horiz-adv-x="558" 
d="M98 115h357q7 0 12.5 -5.5t5.5 -12.5v-78q0 -7 -5.5 -12.5t-12.5 -5.5h-357q-8 0 -13 5.5t-5 12.5v78q0 7 5 12.5t13 5.5zM219 200v79h-121q-8 0 -13 5.5t-5 12.5v83q0 8 5 13t13 5h121v121q0 7 5.5 12.5t12.5 5.5h84q7 0 12.5 -5.5t5.5 -12.5v-121h121q8 0 13 -5t5 -13
v-83q0 -7 -5 -12.5t-13 -5.5h-121v-79q0 -8 -5.5 -13t-12.5 -5h-84q-7 0 -12.5 5t-5.5 13z" />
    <glyph glyph-name="twosuperior" unicode="&#xb2;" horiz-adv-x="305" 
d="M71 697l-28 27q-13 14 -1 26q51 55 114 55q50 0 79.5 -30.5t29.5 -73.5q0 -42 -40 -94l-43 -57h61q7 0 12.5 -5t5.5 -13v-42q0 -8 -5.5 -13t-12.5 -5h-187q-12 0 -12 12t7 22l69 96q51 76 52 78q4 10 4 20q0 8 -6.5 15.5t-17.5 7.5q-22 0 -55 -26q-13 -13 -26 0z" />
    <glyph glyph-name="threesuperior" unicode="&#xb3;" horiz-adv-x="282" 
d="M252 700q0 -40 -31 -66q31 -24 31 -64q0 -37 -27 -70.5t-89 -33.5q-56 0 -102 37q-15 12 -2 25l25 28q11 11 26 2q23 -15 53 -15q14 0 24.5 7.5t10.5 19.5q0 15 -10 23t-25 8h-37q-7 0 -12.5 5.5t-5.5 12.5v31q0 8 5.5 13t12.5 5h37q14 0 24.5 8.5t10.5 23.5
q0 12 -10.5 19.5t-24.5 7.5q-24 0 -52 -18q-16 -9 -27 4l-23 26q-13 15 1 26q47 39 101 39q62 0 89 -33t27 -71z" />
    <glyph glyph-name="acute" unicode="&#xb4;" horiz-adv-x="510" 
d="M151 680l138 107q5 5 12.5 3.5t11.5 -7.5l50 -69q9 -14 -5 -25l-150 -93q-6 -4 -13.5 -2t-11.5 8l-36 52q-11 15 4 26z" />
    <glyph glyph-name="mu" unicode="&#xb5;" horiz-adv-x="607" 
d="M80 -181v663q0 8 5 13t13 5h118q8 0 13 -5t5 -13v-258q2 -93 67 -93q50 0 74 33v318q0 8 5.5 13t12.5 5h116q7 0 12.5 -5t5.5 -13v-464q0 -8 -5.5 -13t-12.5 -5h-63q-17 0 -27 16l-8 15q-47 -38 -109 -38q-40 0 -68 14v-188q0 -7 -5 -12.5t-13 -5.5h-118q-8 0 -13 5.5
t-5 12.5z" />
    <glyph glyph-name="mu" unicode="&#x3bc;" horiz-adv-x="607" 
d="M80 -181v663q0 8 5 13t13 5h118q8 0 13 -5t5 -13v-258q2 -93 67 -93q50 0 74 33v318q0 8 5.5 13t12.5 5h116q7 0 12.5 -5t5.5 -13v-464q0 -8 -5.5 -13t-12.5 -5h-63q-17 0 -27 16l-8 15q-47 -38 -109 -38q-40 0 -68 14v-188q0 -7 -5 -12.5t-13 -5.5h-118q-8 0 -13 5.5
t-5 12.5z" />
    <glyph glyph-name="paragraph" unicode="&#xb6;" horiz-adv-x="734" 
d="M40 491q0 28 6 55t20.5 55.5t37 50.5t59 35.5t81.5 13.5h392q8 0 13 -5.5t5 -12.5v-72q0 -7 -5 -12.5t-13 -5.5h-49v-774q0 -7 -5.5 -12.5t-12.5 -5.5h-94q-7 0 -12.5 5.5t-5.5 12.5v774h-88v-774q0 -7 -5.5 -12.5t-12.5 -5.5h-94q-7 0 -12.5 5.5t-5.5 12.5v462
q-54 1 -95 21.5t-62.5 53t-31.5 66.5t-10 69z" />
    <glyph glyph-name="periodcentered" unicode="&#xb7;" horiz-adv-x="294" 
d="M60 299q0 37 24 61.5t62 24.5q37 0 62.5 -24.5t25.5 -61.5t-25.5 -62.5t-62.5 -25.5t-61.5 25.5t-24.5 62.5z" />
    <glyph glyph-name="cedilla" unicode="&#xb8;" horiz-adv-x="554" 
d="M326 -90h-16q-8 0 -16 6q-6 8 -6 16v86q0 8 5 13t13 5h46q8 0 13 -5t5 -13v-46q49 -1 73.5 -30t24.5 -61q0 -53 -34.5 -81.5t-84.5 -28.5q-39 0 -89 18q-16 6 -11 24l15 40q6 17 23 12q30 -10 52 -10q32 0 34 26q1 11 -9.5 20t-37.5 9z" />
    <glyph glyph-name="onesuperior" unicode="&#xb9;" horiz-adv-x="228" 
d="M183 781v-291q0 -8 -5.5 -13t-12.5 -5h-52q-7 0 -12.5 5t-5.5 13v190l-25 -14q-16 -7 -25 7l-16 26q-10 16 6 25l89 64q16 11 33 11h8q7 0 12.5 -5.5t5.5 -12.5z" />
    <glyph glyph-name="ordmasculine" unicode="&#xba;" horiz-adv-x="378" 
d="M189 706q54 0 89 -26.5t47.5 -59.5t12.5 -69q0 -27 -7.5 -52t-23.5 -49.5t-46.5 -39t-71.5 -14.5t-71.5 14.5t-46.5 39t-23.5 49.5t-7.5 52q0 36 12.5 69t47.5 59.5t89 26.5zM189 501q25 0 34 16.5t9 33.5q0 9 -2.5 18.5t-13 20t-27.5 10.5q-25 0 -34 -16.5t-9 -32.5
q0 -9 2.5 -19t13 -20.5t27.5 -10.5zM77 322h223q8 0 13 -5t5 -13v-69q0 -7 -5 -12.5t-13 -5.5h-223q-7 0 -12.5 5.5t-5.5 12.5v69q0 8 5.5 13t12.5 5z" />
    <glyph glyph-name="guillemotright" unicode="&#xbb;" horiz-adv-x="597" 
d="M309 129l101 127l-101 125q-11 14 3 26l52 45q13 12 26 -1l173 -184q4 -6 4 -12q0 -5 -4 -11l-173 -185q-13 -13 -26 -1l-52 45q-14 12 -3 26zM41 129l101 127l-101 125q-11 14 3 26l52 45q13 12 26 -1l173 -184q4 -6 4 -12q0 -5 -4 -11l-173 -185q-13 -13 -26 -1l-52 45
q-14 12 -3 26z" />
    <glyph glyph-name="onequarter" unicode="&#xbc;" horiz-adv-x="592" 
d="M504 684l-333 -668q-8 -16 -26 -16h-66q-6 0 -9.5 5.5t-0.5 10.5l334 668q8 16 26 16h65q6 0 9.5 -5.5t0.5 -10.5zM183 685v-291q0 -8 -5.5 -13t-12.5 -5h-52q-7 0 -12.5 5t-5.5 13v190l-25 -14q-16 -7 -25 7l-16 26q-10 16 6 25l89 64q16 11 33 11h8q7 0 12.5 -5.5
t5.5 -12.5zM510 48v-29q0 -7 -5 -12.5t-13 -5.5h-47q-7 0 -12.5 5.5t-5.5 12.5v29h-114q-7 0 -12.5 5t-5.5 13v30q0 16 10 33l127 185q10 15 28 15h32q8 0 13 -5.5t5 -12.5v-189h28q8 0 13 -5t5 -13v-38q0 -8 -5 -13t-13 -5h-28zM427 183l-42 -61h42v61z" />
    <glyph glyph-name="onehalf" unicode="&#xbd;" horiz-adv-x="639" 
d="M396 226l-28 27q-5 5 -5.5 13t4.5 13q51 55 114 55q50 0 79.5 -30.5t29.5 -73.5q0 -42 -40 -94l-43 -57h61q8 0 13 -5.5t5 -12.5v-42q0 -7 -5 -12.5t-13 -5.5h-187q-12 0 -12 12t7 22l69 96q51 76 52 78q4 10 4 20q0 8 -6.5 15.5t-17.5 7.5q-23 0 -55 -26q-13 -13 -26 0z
M504 684l-333 -668q-8 -16 -26 -16h-66q-6 0 -9.5 5.5t-0.5 10.5l334 668q8 16 26 16h65q6 0 9.5 -5.5t0.5 -10.5zM183 685v-291q0 -8 -5.5 -13t-12.5 -5h-52q-7 0 -12.5 5t-5.5 13v190l-25 -14q-16 -7 -25 7l-16 26q-10 16 6 25l89 64q16 11 33 11h8q7 0 12.5 -5.5
t5.5 -12.5z" />
    <glyph glyph-name="threequarters" unicode="&#xbe;" horiz-adv-x="633" 
d="M541 684l-333 -668q-8 -16 -26 -16h-66q-6 0 -9.5 5.5t-0.5 10.5l334 668q8 16 26 16h65q6 0 9.5 -5.5t0.5 -10.5zM547 48v-30q0 -8 -5.5 -13t-12.5 -5h-47q-8 0 -13 5t-5 13v30h-114q-8 0 -13 5t-5 13v30q0 16 10 33l127 185q10 15 28 15h32q7 0 12.5 -5.5t5.5 -12.5
v-189h28q7 0 12.5 -5t5.5 -13v-38q0 -8 -5.5 -13t-12.5 -5h-28zM464 183l-42 -61h42v61zM252 603q0 -40 -31 -66q31 -24 31 -64q0 -37 -27 -70.5t-89 -33.5q-56 0 -102 37q-15 12 -2 25l25 28q11 11 26 2q23 -15 53 -15q14 0 24.5 7.5t10.5 19.5q0 15 -10 23t-25 8h-37
q-7 0 -12.5 5t-5.5 13v31q0 7 5.5 12.5t12.5 5.5h37q14 0 24.5 8.5t10.5 23.5q0 12 -10.5 19.5t-24.5 7.5q-24 0 -52 -18q-16 -9 -27 4l-23 26q-13 15 1 26q47 39 101 39q62 0 89 -33t27 -71z" />
    <glyph glyph-name="questiondown" unicode="&#xbf;" horiz-adv-x="580" 
d="M210 201v42q0 7 5 12.5t13 5.5h108q8 0 13 -5.5t5 -12.5v-44q0 -38 -19 -72.5t-41 -56t-41 -51t-19 -58.5q0 -9 2.5 -17.5t13.5 -17.5t28 -9q31 0 54.5 13.5t62.5 50.5q13 13 26 1l66 -62q12 -12 2 -26q-53 -62 -104.5 -87.5t-116.5 -25.5q-84 0 -136 47t-52 132
q0 52 32.5 103.5t65 87.5t32.5 50zM364 420q0 -35 -24 -59t-60 -24q-35 0 -59.5 24t-24.5 59q0 36 24.5 60t59.5 24q37 0 60.5 -23t23.5 -61z" />
    <glyph glyph-name="Agrave" unicode="&#xc0;" horiz-adv-x="738" 
d="M392 692l308 -676q3 -5 -0.5 -10.5t-9.5 -5.5h-143q-18 0 -25 17l-50 125h-206l-50 -125q-7 -17 -25 -17h-143q-6 0 -9.5 5.5t-1.5 10.5l307 676q6 16 24 16t24 -16zM369 397l-53 -130h105zM335 986l138 -107q15 -11 4 -26l-36 -52q-11 -15 -25 -6l-150 93q-14 11 -5 25
l50 69q9 15 24 4z" />
    <glyph glyph-name="Aacute" unicode="&#xc1;" horiz-adv-x="738" 
d="M392 692l308 -676q3 -5 -0.5 -10.5t-9.5 -5.5h-143q-18 0 -25 17l-50 125h-206l-50 -125q-7 -17 -25 -17h-143q-6 0 -9.5 5.5t-1.5 10.5l307 676q6 16 24 16t24 -16zM369 397l-53 -130h105zM266 879l138 107q15 11 24 -4l50 -69q9 -14 -5 -25l-150 -93q-14 -9 -25 6
l-36 52q-11 15 4 26z" />
    <glyph glyph-name="Acircumflex" unicode="&#xc2;" horiz-adv-x="738" 
d="M392 692l308 -676q3 -5 -0.5 -10.5t-9.5 -5.5h-143q-18 0 -25 17l-50 125h-206l-50 -125q-7 -17 -25 -17h-143q-6 0 -9.5 5.5t-1.5 10.5l307 676q6 16 24 16t24 -16zM369 397l-53 -130h105zM383 986l138 -107q15 -11 4 -26l-36 -52q-11 -15 -25 -6l-95 59l-95 -59
q-6 -4 -13.5 -2t-11.5 8l-36 52q-11 15 4 26l138 107q14 10 28 0z" />
    <glyph glyph-name="Atilde" unicode="&#xc3;" horiz-adv-x="738" 
d="M392 692l308 -676q3 -5 -0.5 -10.5t-9.5 -5.5h-143q-18 0 -25 17l-50 125h-206l-50 -125q-7 -17 -25 -17h-143q-6 0 -9.5 5.5t-1.5 10.5l307 676q6 16 24 16t24 -16zM369 397l-53 -130h105zM243 797l-51 31q-15 11 -7 26q47 84 120 84q21 0 56 -16.5t55 -16.5q23 0 41 21
q11 15 25 5l51 -31q16 -10 7 -25q-46 -85 -122 -85q-21 0 -54 17t-52 17q-25 0 -44 -21q-11 -15 -25 -6z" />
    <glyph glyph-name="Adieresis" unicode="&#xc4;" horiz-adv-x="738" 
d="M170 869q0 34 23.5 57.5t57.5 23.5t57 -23.5t23 -57.5t-23 -57t-57 -23q-35 0 -58 23t-23 57zM406 869q0 34 23.5 57.5t57.5 23.5t57 -23.5t23 -57.5t-23 -57t-57 -23q-35 0 -58 23t-23 57zM392 692l308 -676q3 -5 -0.5 -10.5t-9.5 -5.5h-143q-18 0 -25 17l-50 125h-206
l-50 -125q-7 -17 -25 -17h-143q-6 0 -9.5 5.5t-1.5 10.5l307 676q6 16 24 16t24 -16zM369 397l-53 -130h105z" />
    <glyph glyph-name="Aring" unicode="&#xc5;" horiz-adv-x="738" 
d="M263 888q0 44 31.5 75t74.5 31t74 -31t31 -75t-31 -74.5t-74 -30.5q-44 0 -75 31t-31 74zM339 888q0 -11 9 -20t21 -9q11 0 20 9t9 20q0 12 -9 21t-20 9q-12 0 -21 -9t-9 -21zM392 692l308 -676q3 -5 -0.5 -10.5t-9.5 -5.5h-143q-18 0 -25 17l-50 125h-206l-50 -125
q-7 -17 -25 -17h-143q-6 0 -9.5 5.5t-1.5 10.5l307 676q6 16 24 16t24 -16zM369 397l-53 -130h105z" />
    <glyph glyph-name="AE" unicode="&#xc6;" horiz-adv-x="913" 
d="M764 271h-235v-122h306q7 0 12.5 -5.5t5.5 -12.5v-113q0 -8 -5.5 -13t-12.5 -5h-448q-7 0 -12.5 5t-5.5 13v128h-99l-54 -129q-7 -17 -25 -17h-143q-6 0 -9.5 5.5t-0.5 10.5l313 668q8 16 26 16h458q7 0 12.5 -5t5.5 -13v-113q0 -7 -5.5 -12.5t-12.5 -5.5h-306v-131h235
q8 0 13 -5t5 -13v-113q0 -7 -5 -12.5t-13 -5.5zM369 384l-47 -112h47v112z" />
    <glyph glyph-name="Ccedilla" unicode="&#xc7;" horiz-adv-x="749" 
d="M386 -90h-16q-9 0 -16 6q-6 8 -6 16v63q-78 10 -136.5 47.5t-90 90.5t-46.5 107.5t-15 110.5q0 47 10.5 94t36 95.5t63.5 85.5t100 60.5t138 23.5q152 0 269 -127q5 -5 4.5 -13t-5.5 -13l-81 -78q-13 -11 -25 1q-33 33 -78 56t-84 23q-46 0 -81 -17t-54 -41t-31 -55
t-15.5 -53.5t-3.5 -41.5q0 -26 7 -55.5t24.5 -66.5t57.5 -61t97 -24q83 0 169 71q15 11 25 -2l69 -82q12 -14 -1 -27q-110 -104 -241 -112v-20q49 -1 73.5 -30t24.5 -61q0 -53 -34.5 -81.5t-84.5 -28.5q-39 0 -89 18q-16 6 -11 24l15 40q6 17 23 12q30 -10 52 -10
q32 0 34 26q1 11 -9.5 20t-37.5 9z" />
    <glyph glyph-name="Egrave" unicode="&#xc8;" horiz-adv-x="644" 
d="M495 271h-235v-122h306q8 0 13 -5.5t5 -12.5v-113q0 -8 -5 -13t-13 -5h-448q-8 0 -13 5t-5 13v664q0 8 5 13t13 5h448q8 0 13 -5t5 -13v-113q0 -7 -5 -12.5t-13 -5.5h-306v-131h235q7 0 12.5 -5t5.5 -13v-113q0 -7 -5.5 -12.5t-12.5 -5.5zM288 986l138 -107q15 -11 4 -26
l-36 -52q-11 -15 -25 -6l-150 93q-14 11 -5 25l50 69q9 15 24 4z" />
    <glyph glyph-name="Eacute" unicode="&#xc9;" horiz-adv-x="644" 
d="M495 271h-235v-122h306q8 0 13 -5.5t5 -12.5v-113q0 -8 -5 -13t-13 -5h-448q-8 0 -13 5t-5 13v664q0 8 5 13t13 5h448q8 0 13 -5t5 -13v-113q0 -7 -5 -12.5t-13 -5.5h-306v-131h235q7 0 12.5 -5t5.5 -13v-113q0 -7 -5.5 -12.5t-12.5 -5.5zM218 880l138 107q5 5 12.5 3.5
t11.5 -7.5l50 -69q9 -14 -5 -25l-150 -93q-6 -4 -13.5 -2t-11.5 8l-36 52q-11 15 4 26z" />
    <glyph glyph-name="Ecircumflex" unicode="&#xca;" horiz-adv-x="644" 
d="M495 271h-235v-122h306q8 0 13 -5.5t5 -12.5v-113q0 -8 -5 -13t-13 -5h-448q-8 0 -13 5t-5 13v664q0 8 5 13t13 5h448q8 0 13 -5t5 -13v-113q0 -7 -5 -12.5t-13 -5.5h-306v-131h235q7 0 12.5 -5t5.5 -13v-113q0 -7 -5.5 -12.5t-12.5 -5.5zM336 986l138 -107q15 -11 4 -26
l-36 -52q-11 -15 -25 -6l-95 59l-95 -59q-6 -4 -13.5 -2t-11.5 8l-36 52q-11 15 4 26l138 107q14 10 28 0z" />
    <glyph glyph-name="Edieresis" unicode="&#xcb;" horiz-adv-x="644" 
d="M495 271h-235v-122h306q8 0 13 -5.5t5 -12.5v-113q0 -8 -5 -13t-13 -5h-448q-8 0 -13 5t-5 13v664q0 8 5 13t13 5h448q8 0 13 -5t5 -13v-113q0 -7 -5 -12.5t-13 -5.5h-306v-131h235q7 0 12.5 -5t5.5 -13v-113q0 -7 -5.5 -12.5t-12.5 -5.5zM135 887q6 28 27.5 45.5
t51.5 17.5q34 0 57 -23.5t23 -57.5t-23 -57t-57 -23q-30 0 -51.5 17t-27.5 45q-5 18 0 36zM369 869q0 34 23.5 57.5t57.5 23.5t57 -23.5t23 -57.5t-23 -57t-57 -23q-35 0 -58 23t-23 57z" />
    <glyph glyph-name="Igrave" unicode="&#xcc;" horiz-adv-x="276" 
d="M218 682v-664q0 -8 -5 -13t-13 -5h-124q-8 0 -13 5t-5 13v664q0 8 5 13t13 5h124q8 0 13 -5t5 -13zM104 986l138 -107q15 -11 4 -26l-36 -52q-11 -15 -25 -6l-150 93q-14 11 -5 25l50 69q9 15 24 4z" />
    <glyph glyph-name="Iacute" unicode="&#xcd;" horiz-adv-x="276" 
d="M218 682v-664q0 -8 -5 -13t-13 -5h-124q-8 0 -13 5t-5 13v664q0 8 5 13t13 5h124q8 0 13 -5t5 -13zM34 880l138 107q5 5 12.5 3.5t11.5 -7.5l50 -69q9 -14 -5 -25l-150 -93q-6 -4 -13.5 -2t-11.5 8l-36 52q-11 15 4 26z" />
    <glyph glyph-name="Icircumflex" unicode="&#xce;" horiz-adv-x="332" 
d="M246 682v-664q0 -8 -5 -13t-13 -5h-124q-8 0 -13 5t-5 13v664q0 8 5 13t13 5h124q8 0 13 -5t5 -13zM180 986l138 -107q15 -11 4 -26l-36 -52q-11 -15 -25 -6l-95 59l-95 -59q-6 -4 -13.5 -2t-11.5 8l-36 52q-11 15 4 26l138 107q14 10 28 0z" />
    <glyph glyph-name="Idieresis" unicode="&#xcf;" horiz-adv-x="397" 
d="M0 869q0 34 23.5 57.5t57.5 23.5t57 -23.5t23 -57.5t-23 -57t-57 -23q-35 0 -58 23t-23 57zM236 869q0 34 23.5 57.5t57.5 23.5t57 -23.5t23 -57.5t-23 -57t-57 -23q-35 0 -58 23t-23 57zM278 682v-664q0 -8 -5 -13t-13 -5h-124q-8 0 -13 5t-5 13v664q0 8 5 13t13 5h124
q8 0 13 -5t5 -13z" />
    <glyph glyph-name="Eth" unicode="&#xd0;" horiz-adv-x="759" 
d="M71 414h29v268q0 8 5 13t13 5h234q77 0 138 -22.5t99.5 -58t64 -82.5t35.5 -93t10 -93q0 -61 -17.5 -119t-55.5 -112t-108.5 -87t-165.5 -33h-234q-8 0 -13 5t-5 13v275h-29q-7 0 -12.5 5.5t-5.5 12.5v85q0 8 5.5 13t12.5 5zM259 149h93q46 0 81 16.5t54 39.5t31 53
t15.5 52t3.5 41t-3.5 41t-15.5 52t-31 52.5t-54 39t-81 16.5h-93v-138h98q7 0 12.5 -5t5.5 -13v-85q0 -7 -5.5 -12.5t-12.5 -5.5h-98v-144z" />
    <glyph glyph-name="Ntilde" unicode="&#xd1;" horiz-adv-x="780" 
d="M243 0h-125q-8 0 -13 5t-5 13v677q0 13 13 13t22 -9l385 -364v347q0 8 5 13t13 5h124q8 0 13 -5t5 -13v-677q0 -14 -14 -14q-15 0 -24 10l-381 362v-345q0 -8 -5.5 -13t-12.5 -5zM270 797l-51 31q-15 11 -7 26q47 84 120 84q20 0 55 -16.5t56 -16.5q23 0 41 21
q11 15 25 5l51 -31q16 -10 7 -25q-46 -85 -122 -85q-21 0 -54 17t-52 17q-25 0 -44 -21q-11 -15 -25 -6z" />
    <glyph glyph-name="Ograve" unicode="&#xd2;" horiz-adv-x="815" 
d="M408 712q76 0 137.5 -24t99.5 -61t63.5 -86t36 -96t10.5 -94q0 -48 -10.5 -95.5t-36 -96.5t-63.5 -86t-99.5 -60.5t-137.5 -23.5t-137.5 23.5t-100 60.5t-64 86t-36 96.5t-10.5 95.5q0 47 10.5 94t36 96t63.5 86t100 61t138 24zM408 139q46 0 81 17.5t53.5 42t30.5 56
t15.5 54.5t3.5 42t-3.5 42t-15.5 54t-30.5 55.5t-53.5 41.5t-81 17t-81 -17t-54 -41.5t-31 -55.5t-15.5 -54t-3.5 -42q0 -20 3.5 -42.5t15.5 -54t31 -56t54 -42t81 -17.5zM335 986l138 -107q15 -11 4 -26l-36 -52q-11 -15 -25 -6l-150 93q-14 11 -5 25l50 69q9 15 24 4z" />
    <glyph glyph-name="Oacute" unicode="&#xd3;" horiz-adv-x="815" 
d="M408 712q76 0 137.5 -24t99.5 -61t63.5 -86t36 -96t10.5 -94q0 -48 -10.5 -95.5t-36 -96.5t-63.5 -86t-99.5 -60.5t-137.5 -23.5t-137.5 23.5t-100 60.5t-64 86t-36 96.5t-10.5 95.5q0 47 10.5 94t36 96t63.5 86t100 61t138 24zM408 139q46 0 81 17.5t53.5 42t30.5 56
t15.5 54.5t3.5 42t-3.5 42t-15.5 54t-30.5 55.5t-53.5 41.5t-81 17t-81 -17t-54 -41.5t-31 -55.5t-15.5 -54t-3.5 -42q0 -20 3.5 -42.5t15.5 -54t31 -56t54 -42t81 -17.5zM434 986q15 11 24 -4l50 -69q9 -14 -5 -25l-150 -93q-14 -9 -25 6l-36 52q-11 15 4 26z" />
    <glyph glyph-name="Ocircumflex" unicode="&#xd4;" horiz-adv-x="815" 
d="M408 712q76 0 137.5 -24t99.5 -61t63.5 -86t36 -96t10.5 -94q0 -48 -10.5 -95.5t-36 -96.5t-63.5 -86t-99.5 -60.5t-137.5 -23.5t-137.5 23.5t-100 60.5t-64 86t-36 96.5t-10.5 95.5q0 47 10.5 94t36 96t63.5 86t100 61t138 24zM408 139q46 0 81 17.5t53.5 42t30.5 56
t15.5 54.5t3.5 42t-3.5 42t-15.5 54t-30.5 55.5t-53.5 41.5t-81 17t-81 -17t-54 -41.5t-31 -55.5t-15.5 -54t-3.5 -42q0 -20 3.5 -42.5t15.5 -54t31 -56t54 -42t81 -17.5zM421 986l138 -107q15 -11 4 -26l-36 -52q-11 -15 -25 -6l-95 59l-95 -59q-6 -4 -13.5 -2t-11.5 8
l-36 52q-11 15 4 26l138 107q14 10 28 0z" />
    <glyph glyph-name="Otilde" unicode="&#xd5;" horiz-adv-x="815" 
d="M408 712q76 0 137.5 -24t99.5 -61t63.5 -86t36 -96t10.5 -94q0 -48 -10.5 -95.5t-36 -96.5t-63.5 -86t-99.5 -60.5t-137.5 -23.5t-137.5 23.5t-100 60.5t-64 86t-36 96.5t-10.5 95.5q0 47 10.5 94t36 96t63.5 86t100 61t138 24zM408 139q46 0 81 17.5t53.5 42t30.5 56
t15.5 54.5t3.5 42t-3.5 42t-15.5 54t-30.5 55.5t-53.5 41.5t-81 17t-81 -17t-54 -41.5t-31 -55.5t-15.5 -54t-3.5 -42q0 -20 3.5 -42.5t15.5 -54t31 -56t54 -42t81 -17.5zM282 797l-51 31q-15 11 -7 26q47 84 120 84q20 0 55 -16.5t56 -16.5q23 0 41 21q11 15 25 5l51 -31
q16 -10 7 -25q-46 -85 -122 -85q-21 0 -54 17t-52 17q-25 0 -44 -21q-11 -15 -25 -6z" />
    <glyph glyph-name="Odieresis" unicode="&#xd6;" horiz-adv-x="815" 
d="M408 712q76 0 137.5 -24t99.5 -61t63.5 -86t36 -96t10.5 -94q0 -48 -10.5 -95.5t-36 -96.5t-63.5 -86t-99.5 -60.5t-137.5 -23.5t-137.5 23.5t-100 60.5t-64 86t-36 96.5t-10.5 95.5q0 47 10.5 94t36 96t63.5 86t100 61t138 24zM408 139q46 0 81 17.5t53.5 42t30.5 56
t15.5 54.5t3.5 42t-3.5 42t-15.5 54t-30.5 55.5t-53.5 41.5t-81 17t-81 -17t-54 -41.5t-31 -55.5t-15.5 -54t-3.5 -42q0 -20 3.5 -42.5t15.5 -54t31 -56t54 -42t81 -17.5zM209 869q0 34 23.5 57.5t57.5 23.5t57 -23.5t23 -57.5t-23 -57t-57 -23q-35 0 -58 23t-23 57z
M445 869q0 34 23.5 57.5t57.5 23.5t57 -23.5t23 -57.5t-23 -57t-57 -23q-35 0 -58 23t-23 57z" />
    <glyph glyph-name="multiply" unicode="&#xd7;" horiz-adv-x="566" 
d="M368 36l-85 85l-86 -85q-13 -13 -26 0l-58 58q-13 13 0 26l86 85l-86 85q-13 13 0 26l59 59q13 13 26 0l85 -85l86 85q13 13 26 0l58 -58q13 -13 0 -26l-86 -85l86 -85q13 -13 0 -26l-59 -59q-13 -13 -26 0z" />
    <glyph glyph-name="Oslash" unicode="&#xd8;" horiz-adv-x="815" 
d="M671 599q84 -102 84 -248q0 -48 -10.5 -95.5t-36 -96.5t-63.5 -86t-99.5 -60.5t-137.5 -23.5q-120 0 -201 55l-33 -39q-12 -14 -26 -3l-55 46q-14 12 -3 26l39 46q-69 98 -69 231q0 47 10.5 94t36 96t63.5 86t100 61t138 24q103 0 180 -44l35 42q12 14 26 2l55 -46
q14 -11 2 -25zM223 351q0 -51 18 -97l244 291q-34 16 -77 16q-46 0 -81 -17t-54 -41.5t-31 -55.5t-15.5 -54t-3.5 -42zM408 139q46 0 81 17.5t53.5 42t30.5 56t15.5 54.5t3.5 42q0 65 -29 119l-254 -304q40 -27 99 -27z" />
    <glyph glyph-name="Ugrave" unicode="&#xd9;" horiz-adv-x="740" 
d="M478 853l-36 -52q-11 -15 -25 -6l-150 93q-14 11 -5 25l50 69q9 15 24 4l138 -107q15 -11 4 -26zM507 700h125q8 0 13 -5t5 -13v-407q0 -48 -15 -95t-46 -90t-88 -70t-131 -27t-131 27t-88 70t-46 90t-15 95v407q0 8 5 13t13 5h124q8 0 13 -5t5 -13v-407q0 -24 9 -52
t38.5 -55t72.5 -27q33 0 58 15.5t37.5 38.5t18 43t5.5 37v407q0 8 5.5 13t12.5 5z" />
    <glyph glyph-name="Uacute" unicode="&#xda;" horiz-adv-x="740" 
d="M299 801l-36 52q-11 15 4 26l138 107q15 11 24 -4l50 -69q9 -14 -5 -25l-150 -93q-14 -9 -25 6zM507 700h125q8 0 13 -5t5 -13v-407q0 -48 -15 -95t-46 -90t-88 -70t-131 -27t-131 27t-88 70t-46 90t-15 95v407q0 8 5 13t13 5h124q8 0 13 -5t5 -13v-407q0 -24 9 -52
t38.5 -55t72.5 -27q33 0 58 15.5t37.5 38.5t18 43t5.5 37v407q0 8 5.5 13t12.5 5z" />
    <glyph glyph-name="Ucircumflex" unicode="&#xdb;" horiz-adv-x="740" 
d="M507 700h125q8 0 13 -5t5 -13v-407q0 -48 -15 -95t-46 -90t-88 -70t-131 -27t-131 27t-88 70t-46 90t-15 95v407q0 8 5 13t13 5h124q8 0 13 -5t5 -13v-407q0 -24 9 -52t38.5 -55t72.5 -27q33 0 58 15.5t37.5 38.5t18 43t5.5 37v407q0 8 5.5 13t12.5 5zM370 854l-95 -59
q-6 -4 -13.5 -2t-11.5 8l-36 52q-11 15 4 26l138 107q14 10 28 0l138 -107q15 -11 4 -26l-36 -52q-11 -15 -25 -6z" />
    <glyph glyph-name="Udieresis" unicode="&#xdc;" horiz-adv-x="740" 
d="M171 869q0 34 23.5 57.5t57.5 23.5t57 -23.5t23 -57.5t-23 -57t-57 -23q-35 0 -58 23t-23 57zM407 869q0 34 23.5 57.5t57.5 23.5t57 -23.5t23 -57.5t-23 -57t-57 -23q-35 0 -58 23t-23 57zM507 700h125q8 0 13 -5t5 -13v-407q0 -48 -15 -95t-46 -90t-88 -70t-131 -27
t-131 27t-88 70t-46 90t-15 95v407q0 8 5 13t13 5h124q8 0 13 -5t5 -13v-407q0 -24 9 -52t38.5 -55t72.5 -27q33 0 58 15.5t37.5 38.5t18 43t5.5 37v407q0 8 5.5 13t12.5 5z" />
    <glyph glyph-name="Yacute" unicode="&#xdd;" horiz-adv-x="697" 
d="M428 311v-293q0 -8 -5 -13t-13 -5h-123q-7 0 -12.5 5t-5.5 13v291l-230 376q-3 5 0 10t9 5h141q17 0 27 -15l132 -220l132 220q8 15 27 15h142q6 0 9 -5t0 -10zM244 880l138 107q5 5 12.5 3.5t11.5 -7.5l50 -69q9 -14 -5 -25l-150 -93q-6 -4 -13.5 -2t-11.5 8l-36 52
q-11 15 4 26z" />
    <glyph glyph-name="Thorn" unicode="&#xde;" horiz-adv-x="662" 
d="M343 80h-86v-62q0 -8 -5.5 -13t-12.5 -5h-121q-8 0 -13 5t-5 13v664q0 8 5 13t13 5h121q7 0 12.5 -5t5.5 -13v-68h86q57 0 103 -17.5t74.5 -45t47.5 -64t26.5 -71t7.5 -69.5t-7.5 -69.5t-26.5 -71t-47.5 -64t-74.5 -45t-103 -17.5zM257 472v-249h79q32 0 55 14t34 35
t15.5 40t4.5 35q0 17 -4.5 35.5t-15.5 40t-34 35.5t-55 14h-79z" />
    <glyph glyph-name="germandbls" unicode="&#xdf;" horiz-adv-x="676" 
d="M576 187q0 -88 -63 -142t-187 -59q-8 0 -13 5t-5 13v87q0 17 18 19q49 5 69.5 28t21.5 52q-2 27 -45 79.5t-43 84.5t37 77t37 70v8t-4 15t-10.5 19t-21 14.5t-34.5 6.5q-28 0 -51.5 -16t-24.5 -58v-542q0 -8 -5.5 -13t-12.5 -5h-121q-8 0 -13 5t-5 13v540q0 45 12 81
t29.5 58.5t42 39t45.5 24t44.5 12t32.5 5t17 0.5q66 0 114 -22t71.5 -56t33.5 -66t10 -62q0 -39 -15 -71t-29.5 -50.5t-14.5 -25.5t20.5 -28t41.5 -57.5t21 -82.5z" />
    <glyph glyph-name="agrave" unicode="&#xe0;" horiz-adv-x="552" 
d="M384 653l-36 -52q-11 -15 -25 -6l-150 93q-14 11 -5 25l50 69q9 15 24 4l138 -107q15 -11 4 -26zM284 509q62 0 102 -18t57.5 -52.5t23 -66t5.5 -78.5v-276q0 -8 -5 -13t-13 -5h-65q-19 0 -25 16l-8 18q-47 -44 -122 -44q-52 0 -88.5 16.5t-54 43t-24.5 51.5t-7 51
q0 89 55.5 129t138.5 40q30 0 65 -7q0 60 -57 60q-39 0 -112 -30q-17 -7 -24 9l-37 83q-7 18 9 25q91 44 186 48zM319 156v38q-28 8 -47 8q-66 0 -66 -44q0 -15 13 -23.5t32 -8.5q47 0 68 30z" />
    <glyph glyph-name="aacute" unicode="&#xe1;" horiz-adv-x="552" 
d="M284 509q62 0 102 -18t57.5 -52.5t23 -66t5.5 -78.5v-276q0 -8 -5 -13t-13 -5h-65q-19 0 -25 16l-8 18q-47 -44 -122 -44q-52 0 -88.5 16.5t-54 43t-24.5 51.5t-7 51q0 89 55.5 129t138.5 40q30 0 65 -7q0 60 -57 60q-39 0 -112 -30q-17 -7 -24 9l-37 83q-7 18 9 25
q91 44 186 48zM319 156v38q-28 8 -47 8q-66 0 -66 -44q0 -15 13 -23.5t32 -8.5q47 0 68 30zM379 689l-150 -93q-6 -4 -13.5 -2t-11.5 8l-36 52q-11 15 4 26l138 107q5 5 12.5 3.5t11.5 -7.5l50 -69q9 -14 -5 -25z" />
    <glyph glyph-name="acircumflex" unicode="&#xe2;" horiz-adv-x="552" 
d="M276 654l-95 -59q-6 -4 -13.5 -2t-11.5 8l-36 52q-11 15 4 26l138 107q14 10 28 0l138 -107q15 -11 4 -26l-36 -52q-11 -15 -25 -6zM284 509q62 0 102 -18t57.5 -52.5t23 -66t5.5 -78.5v-276q0 -8 -5 -13t-13 -5h-65q-19 0 -25 16l-8 18q-47 -44 -122 -44
q-52 0 -88.5 16.5t-54 43t-24.5 51.5t-7 51q0 89 55.5 129t138.5 40q30 0 65 -7q0 60 -57 60q-39 0 -112 -30q-17 -7 -24 9l-37 83q-7 18 9 25q91 44 186 48zM319 156v38q-28 8 -47 8q-66 0 -66 -44q0 -15 13 -23.5t32 -8.5q47 0 68 30z" />
    <glyph glyph-name="atilde" unicode="&#xe3;" horiz-adv-x="552" 
d="M284 509q62 0 102 -18t57.5 -52.5t23 -66t5.5 -78.5v-276q0 -8 -5 -13t-13 -5h-65q-19 0 -25 16l-8 18q-47 -44 -122 -44q-52 0 -88.5 16.5t-54 43t-24.5 51.5t-7 51q0 89 55.5 129t138.5 40q30 0 65 -7q0 60 -57 60q-39 0 -112 -30q-17 -7 -24 9l-37 83q-7 18 9 25
q91 44 186 48zM319 156v38q-28 8 -47 8q-66 0 -66 -44q0 -15 13 -23.5t32 -8.5q47 0 68 30zM225 624q-25 0 -44 -21q-11 -15 -25 -6l-51 31q-15 11 -7 26q47 84 120 84q20 0 55 -16.5t56 -16.5q23 0 41 21q11 15 25 5l51 -31q16 -10 7 -25q-46 -85 -122 -85q-21 0 -54 17
t-52 17z" />
    <glyph glyph-name="adieresis" unicode="&#xe4;" horiz-adv-x="555" 
d="M78 669q0 34 23.5 57.5t57.5 23.5t57 -23.5t23 -57.5t-23 -57t-57 -23q-35 0 -58 23t-23 57zM314 669q0 34 23.5 57.5t57.5 23.5t57 -23.5t23 -57.5t-23 -57t-57 -23q-35 0 -58 23t-23 57zM284 509q62 0 102 -18t57.5 -52.5t23 -66t5.5 -78.5v-276q0 -8 -5 -13t-13 -5
h-65q-19 0 -25 16l-8 18q-47 -44 -122 -44q-52 0 -88.5 16.5t-54 43t-24.5 51.5t-7 51q0 89 55.5 129t138.5 40q30 0 65 -7q0 60 -57 60q-39 0 -112 -30q-17 -7 -24 9l-37 83q-7 18 9 25q91 44 186 48zM319 156v38q-28 8 -47 8q-66 0 -66 -44q0 -15 13 -23.5t32 -8.5
q47 0 68 30z" />
    <glyph glyph-name="aring" unicode="&#xe5;" horiz-adv-x="552" 
d="M170 688q0 44 31 75t75 31q43 0 74 -31t31 -75t-30.5 -74.5t-74.5 -30.5t-75 31t-31 74zM246 688q0 -11 9 -20t21 -9q11 0 20 9t9 20q0 12 -9 21t-20 9q-12 0 -21 -9t-9 -21zM284 509q62 0 102 -18t57.5 -52.5t23 -66t5.5 -78.5v-276q0 -8 -5 -13t-13 -5h-65
q-19 0 -25 16l-8 18q-47 -44 -122 -44q-52 0 -88.5 16.5t-54 43t-24.5 51.5t-7 51q0 89 55.5 129t138.5 40q30 0 65 -7q0 60 -57 60q-39 0 -112 -30q-17 -7 -24 9l-37 83q-7 18 9 25q91 44 186 48zM319 156v38q-28 8 -47 8q-66 0 -66 -44q0 -15 13 -23.5t32 -8.5q47 0 68 30
z" />
    <glyph glyph-name="ae" unicode="&#xe6;" horiz-adv-x="804" 
d="M759 290q0 -17 -4 -55q-3 -18 -21 -18h-274q8 -36 31 -59t59 -23q56 0 105 30q6 4 13.5 2.5t11.5 -7.5l52 -76q10 -15 -4 -26q-82 -64 -178 -64q-98 0 -161 51q-73 -55 -155 -55q-52 0 -88.5 16.5t-54 43t-24.5 51.5t-7 51q0 89 55.5 129t138.5 40q28 0 53 -5q6 28 7 30
q-10 28 -52 28q-39 0 -112 -30q-17 -7 -24 9l-37 83q-7 18 9 25q91 44 186 48q84 0 130 -36q57 34 136 34q99 0 154 -58.5t55 -158.5zM251 126q43 0 65 26q-7 21 -12 46q-20 4 -32 4q-66 0 -66 -44q0 -15 13 -23.5t32 -8.5zM464 304h143q-6 63 -57 64q-68 0 -86 -64z" />
    <glyph glyph-name="ccedilla" unicode="&#xe7;" horiz-adv-x="563" 
d="M313 140q42 0 93 41q14 12 24 -2l67 -80q13 -15 -1 -27q-74 -71 -161 -78v-22q49 -1 73.5 -30t24.5 -61q0 -53 -34.5 -81.5t-84.5 -28.5q-39 0 -89 18q-16 6 -11 24l15 40q6 17 23 12q30 -10 52 -10q32 0 34 26q1 11 -9.5 20t-37.5 9h-16q-9 0 -16 6q-6 8 -6 16v67
q-52 10 -91 37t-60.5 63.5t-31.5 74t-10 74.5q0 44 12 85.5t38.5 82.5t78.5 66.5t123 25.5q108 0 193 -85q14 -13 1 -26l-66 -73q-12 -12 -25 -1q-48 42 -103 42q-49 0 -73.5 -35t-24.5 -79q0 -51 29 -81t70 -30z" />
    <glyph glyph-name="egrave" unicode="&#xe8;" horiz-adv-x="549" 
d="M382 653l-36 -52q-11 -15 -25 -6l-150 93q-14 11 -5 25l50 69q9 15 24 4l138 -107q15 -11 4 -26zM504 290q0 -17 -4 -55q-3 -18 -21 -18h-274q8 -36 31 -59t59 -23q56 0 105 30q6 4 13.5 2.5t11.5 -7.5l52 -76q10 -15 -4 -26q-82 -64 -178 -64q-68 0 -119 24.5t-78 64
t-40 82t-13 86.5q0 43 13 85t40 82t78 64.5t119 24.5q99 0 154 -58.5t55 -158.5zM209 304h143q-6 63 -57 64q-68 0 -86 -64z" />
    <glyph glyph-name="eacute" unicode="&#xe9;" horiz-adv-x="549" 
d="M221 601l-36 52q-11 15 4 26l138 107q15 11 24 -4l50 -69q9 -14 -5 -25l-150 -93q-14 -9 -25 6zM504 290q0 -17 -4 -55q-3 -18 -21 -18h-274q8 -36 31 -59t59 -23q56 0 105 30q6 4 13.5 2.5t11.5 -7.5l52 -76q10 -15 -4 -26q-82 -64 -178 -64q-68 0 -119 24.5t-78 64
t-40 82t-13 86.5q0 43 13 85t40 82t78 64.5t119 24.5q99 0 154 -58.5t55 -158.5zM209 304h143q-6 63 -57 64q-68 0 -86 -64z" />
    <glyph glyph-name="ecircumflex" unicode="&#xea;" horiz-adv-x="549" 
d="M289 654l-95 -59q-6 -4 -13.5 -2t-11.5 8l-36 52q-11 15 4 26l138 107q14 10 28 0l138 -107q15 -11 4 -26l-36 -52q-11 -15 -25 -6zM504 290q0 -17 -4 -55q-3 -18 -21 -18h-274q8 -36 31 -59t59 -23q56 0 105 30q6 4 13.5 2.5t11.5 -7.5l52 -76q10 -15 -4 -26
q-82 -64 -178 -64q-68 0 -119 24.5t-78 64t-40 82t-13 86.5q0 43 13 85t40 82t78 64.5t119 24.5q99 0 154 -58.5t55 -158.5zM209 304h143q-6 63 -57 64q-68 0 -86 -64z" />
    <glyph glyph-name="edieresis" unicode="&#xeb;" horiz-adv-x="549" 
d="M88 669q0 34 23.5 57.5t57.5 23.5t57 -23.5t23 -57.5t-23 -57t-57 -23q-35 0 -58 23t-23 57zM324 669q0 34 23.5 57.5t57.5 23.5t57 -23.5t23 -57.5t-23 -57t-57 -23q-35 0 -58 23t-23 57zM504 290q0 -17 -4 -55q-3 -18 -21 -18h-274q8 -36 31 -59t59 -23q56 0 105 30
q6 4 13.5 2.5t11.5 -7.5l52 -76q10 -15 -4 -26q-82 -64 -178 -64q-68 0 -119 24.5t-78 64t-40 82t-13 86.5q0 43 13 85t40 82t78 64.5t119 24.5q99 0 154 -58.5t55 -158.5zM209 304h143q-6 63 -57 64q-68 0 -86 -64z" />
    <glyph glyph-name="igrave" unicode="&#xec;" horiz-adv-x="276" 
d="M205 482v-464q0 -8 -5.5 -13t-12.5 -5h-100q-7 0 -12.5 5t-5.5 13v464q0 8 5.5 13t12.5 5h100q7 0 12.5 -5t5.5 -13zM104 781l138 -107q15 -11 4 -26l-36 -52q-11 -15 -25 -6l-150 93q-14 11 -5 25l50 69q9 15 24 4z" />
    <glyph glyph-name="iacute" unicode="&#xed;" horiz-adv-x="276" 
d="M205 482v-464q0 -8 -5.5 -13t-12.5 -5h-100q-7 0 -12.5 5t-5.5 13v464q0 8 5.5 13t12.5 5h100q7 0 12.5 -5t5.5 -13zM35 674l138 107q15 11 24 -4l50 -69q9 -14 -5 -25l-150 -93q-14 -9 -25 6l-36 52q-11 15 4 26z" />
    <glyph glyph-name="icircumflex" unicode="&#xee;" horiz-adv-x="332" 
d="M233 482v-464q0 -8 -5.5 -13t-12.5 -5h-100q-7 0 -12.5 5t-5.5 13v464q0 8 5.5 13t12.5 5h100q7 0 12.5 -5t5.5 -13zM180 781l138 -107q15 -11 4 -26l-36 -52q-11 -15 -25 -6l-95 59l-95 -59q-6 -4 -13.5 -2t-11.5 8l-36 52q-11 15 4 26l138 107q14 11 28 0z" />
    <glyph glyph-name="idieresis" unicode="&#xef;" horiz-adv-x="397" 
d="M0 669q0 34 23.5 57.5t57.5 23.5t57 -23.5t23 -57.5t-23 -57t-57 -23q-35 0 -58 23t-23 57zM236 669q0 34 23.5 57.5t57.5 23.5t57 -23.5t23 -57.5t-23 -57t-57 -23q-35 0 -58 23t-23 57zM266 482v-464q0 -8 -5 -13t-13 -5h-100q-8 0 -13 5t-5 13v464q0 8 5 13t13 5h100
q8 0 13 -5t5 -13z" />
    <glyph glyph-name="eth" unicode="&#xf0;" 
d="M162 549l28 28q-16 12 -26 18q-14 9 -5 24l55 83q11 14 26 6q8 -5 49 -31l36 38q13 13 26 0l38 -38q13 -13 0 -26l-31 -31q169 -162 169 -394q0 -24 -5.5 -51.5t-22 -60.5t-41.5 -59t-68 -43.5t-97 -17.5t-97 17t-67.5 41.5t-41 56.5t-22 58.5t-5.5 50.5q0 36 8.5 69.5
t28.5 68t59.5 58.5t94.5 31q31 4 66 -4q-20 38 -60 78l-33 -32q-13 -13 -26 0l-36 36q-13 13 0 26zM293 135q40 0 62.5 26t22.5 61q-2 36 -23.5 61t-61.5 25t-62 -25.5t-22 -60.5t22.5 -61t61.5 -26z" />
    <glyph glyph-name="ntilde" unicode="&#xf1;" 
d="M232 336v-318q0 -8 -5 -13t-13 -5h-116q-8 0 -13 5t-5 13v464q0 8 5 13t13 5h63q17 0 27 -16l8 -15q48 39 115 39q55 0 96 -15.5t63.5 -38.5t35.5 -58t17 -66.5t4 -71.5v-240q0 -8 -5.5 -13t-12.5 -5h-118q-7 0 -12.5 5t-5.5 13v240q0 23 -1.5 37.5t-7.5 34t-20.5 29.5
t-37.5 10q-50 0 -74 -33zM174 594l-51 31q-15 11 -7 26q47 84 120 84q20 0 55 -16.5t56 -16.5q23 0 41 21q11 15 25 5l51 -31q16 -10 7 -25q-46 -85 -122 -85q-21 0 -54 17t-52 17q-25 0 -44 -21q-11 -15 -25 -6z" />
    <glyph glyph-name="ograve" unicode="&#xf2;" horiz-adv-x="618" 
d="M309 510q68 0 119 -25t78 -66t39.5 -83.5t12.5 -85.5q0 -44 -12.5 -86.5t-39.5 -83t-78 -65t-119 -24.5t-119 24.5t-78 65t-39.5 83t-12.5 86.5q0 43 12.5 85.5t39.5 83.5t78 66t119 25zM309 130q30 0 51 14t30 35.5t12.5 38.5t3.5 32q0 22 -5.5 46t-29 49.5t-62.5 25.5
t-63 -25.5t-29.5 -49.5t-5.5 -46q0 -15 3.5 -32t13 -38.5t30.5 -35.5t51 -14zM275 781l138 -107q15 -11 4 -26l-36 -52q-11 -15 -25 -6l-150 93q-14 11 -5 25l50 69q9 15 24 4z" />
    <glyph glyph-name="oacute" unicode="&#xf3;" horiz-adv-x="618" 
d="M309 510q68 0 119 -25t78 -66t39.5 -83.5t12.5 -85.5q0 -44 -12.5 -86.5t-39.5 -83t-78 -65t-119 -24.5t-119 24.5t-78 65t-39.5 83t-12.5 86.5q0 43 12.5 85.5t39.5 83.5t78 66t119 25zM309 130q30 0 51 14t30 35.5t12.5 38.5t3.5 32q0 22 -5.5 46t-29 49.5t-62.5 25.5
t-63 -25.5t-29.5 -49.5t-5.5 -46q0 -15 3.5 -32t13 -38.5t30.5 -35.5t51 -14zM344 781q15 11 24 -4l50 -69q9 -14 -5 -25l-150 -93q-14 -9 -25 6l-36 52q-11 15 4 26z" />
    <glyph glyph-name="ocircumflex" unicode="&#xf4;" horiz-adv-x="618" 
d="M309 510q68 0 119 -25t78 -66t39.5 -83.5t12.5 -85.5q0 -44 -12.5 -86.5t-39.5 -83t-78 -65t-119 -24.5t-119 24.5t-78 65t-39.5 83t-12.5 86.5q0 43 12.5 85.5t39.5 83.5t78 66t119 25zM309 130q30 0 51 14t30 35.5t12.5 38.5t3.5 32q0 22 -5.5 46t-29 49.5t-62.5 25.5
t-63 -25.5t-29.5 -49.5t-5.5 -46q0 -15 3.5 -32t13 -38.5t30.5 -35.5t51 -14zM323 781l138 -107q15 -11 4 -26l-36 -52q-11 -15 -25 -6l-95 59l-95 -59q-6 -4 -13.5 -2t-11.5 8l-36 52q-11 15 4 26l138 107q14 11 28 0z" />
    <glyph glyph-name="otilde" unicode="&#xf5;" horiz-adv-x="618" 
d="M309 510q68 0 119 -25t78 -66t39.5 -83.5t12.5 -85.5q0 -44 -12.5 -86.5t-39.5 -83t-78 -65t-119 -24.5t-119 24.5t-78 65t-39.5 83t-12.5 86.5q0 43 12.5 85.5t39.5 83.5t78 66t119 25zM309 130q30 0 51 14t30 35.5t12.5 38.5t3.5 32q0 22 -5.5 46t-29 49.5t-62.5 25.5
t-63 -25.5t-29.5 -49.5t-5.5 -46q0 -15 3.5 -32t13 -38.5t30.5 -35.5t51 -14zM189 594l-51 31q-15 11 -7 26q47 84 120 84q21 0 56 -16.5t55 -16.5q23 0 41 21q11 15 25 5l51 -31q16 -10 7 -25q-46 -85 -122 -85q-21 0 -54 17t-52 17q-25 0 -44 -21q-11 -15 -25 -6z" />
    <glyph glyph-name="odieresis" unicode="&#xf6;" horiz-adv-x="618" 
d="M309 510q68 0 119 -25t78 -66t39.5 -83.5t12.5 -85.5q0 -44 -12.5 -86.5t-39.5 -83t-78 -65t-119 -24.5t-119 24.5t-78 65t-39.5 83t-12.5 86.5q0 43 12.5 85.5t39.5 83.5t78 66t119 25zM309 130q30 0 51 14t30 35.5t12.5 38.5t3.5 32q0 22 -5.5 46t-29 49.5t-62.5 25.5
t-63 -25.5t-29.5 -49.5t-5.5 -46q0 -15 3.5 -32t13 -38.5t30.5 -35.5t51 -14zM110 662q0 34 23.5 57.5t57.5 23.5t57 -23.5t23 -57.5t-23 -57t-57 -23q-35 0 -58 23t-23 57zM346 662q0 34 23.5 57.5t57.5 23.5t57 -23.5t23 -57.5t-23 -57t-57 -23q-35 0 -58 23t-23 57z" />
    <glyph glyph-name="divide" unicode="&#xf7;" horiz-adv-x="468" 
d="M78 304h312q8 0 13 -5t5 -13v-73q0 -7 -5 -12.5t-13 -5.5h-312q-8 0 -13 5.5t-5 12.5v73q0 8 5 13t13 5zM159 444q6 26 26.5 42t48.5 16q32 0 54 -22t22 -54q0 -34 -22 -55.5t-54 -21.5q-28 0 -49 16.5t-26 42.5q-5 18 0 36zM157 76q0 32 22 54.5t55 22.5q32 0 54 -22.5
t22 -54.5q0 -33 -21.5 -54.5t-54.5 -21.5t-55 21.5t-22 54.5z" />
    <glyph glyph-name="oslash" unicode="&#xf8;" horiz-adv-x="618" 
d="M509 413q49 -71 49 -163q0 -44 -12.5 -86.5t-39.5 -83t-78 -65t-119 -24.5q-78 0 -128 29l-24 -28q-10 -14 -25 -3l-55 46q-14 12 -3 26l28 33q-42 66 -42 156q0 43 12.5 85.5t39.5 83.5t78 66t119 25q67 0 119 -26l26 32q12 14 26 2l55 -46q14 -11 2 -25zM211 250
q0 -15 2 -24l118 142q-11 3 -22 3q-39 0 -63 -25.5t-29.5 -49.5t-5.5 -46zM309 130q30 0 51 14t30 35.5t12.5 38.5t3.5 32q0 16 -4 35l-125 -150q15 -5 32 -5z" />
    <glyph glyph-name="ugrave" unicode="&#xf9;" 
d="M355 164v318q0 8 5.5 13t12.5 5h116q7 0 12.5 -5t5.5 -13v-464q0 -8 -5.5 -13t-12.5 -5h-63q-17 0 -27 16l-8 15q-48 -39 -115 -39q-55 0 -96 15.5t-63.5 38.5t-35.5 58t-17 66.5t-4 71.5v240q0 8 5 13t13 5h118q8 0 13 -5t5 -13v-240q0 -23 1.5 -37.5t7.5 -34
t20.5 -29.5t37.5 -10q50 0 74 33zM259 781l138 -107q15 -11 4 -26l-36 -52q-11 -15 -25 -6l-150 93q-14 11 -5 25l50 69q9 15 24 4z" />
    <glyph glyph-name="uacute" unicode="&#xfa;" 
d="M355 164v318q0 8 5.5 13t12.5 5h116q7 0 12.5 -5t5.5 -13v-464q0 -8 -5.5 -13t-12.5 -5h-63q-17 0 -27 16l-8 15q-48 -39 -115 -39q-55 0 -96 15.5t-63.5 38.5t-35.5 58t-17 66.5t-4 71.5v240q0 8 5 13t13 5h118q8 0 13 -5t5 -13v-240q0 -23 1.5 -37.5t7.5 -34
t20.5 -29.5t37.5 -10q50 0 74 33zM328 781q15 11 24 -4l50 -69q9 -14 -5 -25l-150 -93q-14 -9 -25 6l-36 52q-11 15 4 26z" />
    <glyph glyph-name="ucircumflex" unicode="&#xfb;" 
d="M355 164v318q0 8 5.5 13t12.5 5h116q7 0 12.5 -5t5.5 -13v-464q0 -8 -5.5 -13t-12.5 -5h-63q-17 0 -27 16l-8 15q-48 -39 -115 -39q-55 0 -96 15.5t-63.5 38.5t-35.5 58t-17 66.5t-4 71.5v240q0 8 5 13t13 5h118q8 0 13 -5t5 -13v-240q0 -23 1.5 -37.5t7.5 -34
t20.5 -29.5t37.5 -10q50 0 74 33zM307 786l138 -107q15 -11 4 -26l-36 -52q-11 -15 -25 -6l-95 59l-95 -59q-6 -4 -13.5 -2t-11.5 8l-36 52q-11 15 4 26l138 107q14 10 28 0z" />
    <glyph glyph-name="udieresis" unicode="&#xfc;" 
d="M95 662q0 34 23.5 57.5t57.5 23.5t57 -23.5t23 -57.5t-23 -57t-57 -23q-35 0 -58 23t-23 57zM331 662q0 34 23.5 57.5t57.5 23.5t57 -23.5t23 -57.5t-23 -57t-57 -23q-35 0 -58 23t-23 57zM355 164v318q0 8 5.5 13t12.5 5h116q7 0 12.5 -5t5.5 -13v-464q0 -8 -5.5 -13
t-12.5 -5h-63q-17 0 -27 16l-8 15q-48 -39 -115 -39q-55 0 -96 15.5t-63.5 38.5t-35.5 58t-17 66.5t-4 71.5v240q0 8 5 13t13 5h118q8 0 13 -5t5 -13v-240q0 -23 1.5 -37.5t7.5 -34t20.5 -29.5t37.5 -10q50 0 74 33z" />
    <glyph glyph-name="yacute" unicode="&#xfd;" horiz-adv-x="616" 
d="M207 483l99 -256l102 256q7 17 25 17h135q6 0 9.5 -5.5t1.5 -11.5l-284 -665q-6 -17 -25 -17h-127q-7 0 -10 5.5t-1 11.5l92 221l-187 444q-2 6 1 11.5t10 5.5h135q19 0 24 -17zM204 674l138 107q5 5 12.5 3.5t11.5 -7.5l50 -69q9 -14 -5 -25l-150 -93q-6 -4 -13.5 -2
t-11.5 8l-36 52q-11 15 4 26z" />
    <glyph glyph-name="thorn" unicode="&#xfe;" horiz-adv-x="615" 
d="M288 -7q-29 1 -56 9v-182q0 -8 -5 -13t-13 -5h-116q-8 0 -13 5t-5 13v862q0 8 5 13t13 5h116q8 0 13 -5t5 -13v-184q38 10 74 10q68 0 119 -25t78 -65.5t39.5 -82.5t12.5 -85q0 -42 -11.5 -82.5t-36.5 -80t-72.5 -65.5t-110.5 -30q-24 0 -36 1zM232 353v-206
q26 -16 66 -16q41 0 66.5 24t32.5 48t7 47t-7 47t-32.5 48t-66.5 24q-40 0 -66 -16z" />
    <glyph glyph-name="ydieresis" unicode="&#xff;" horiz-adv-x="616" 
d="M207 483l99 -256l102 256q7 17 25 17h135q6 0 9.5 -5.5t1.5 -11.5l-284 -665q-6 -17 -25 -17h-127q-7 0 -10 5.5t-1 11.5l92 221l-187 444q-2 6 1 11.5t10 5.5h135q19 0 24 -17zM111 687q6 28 27.5 45.5t51.5 17.5q34 0 57 -23.5t23 -57.5t-23 -57t-57 -23
q-30 0 -51.5 17t-27.5 45q-5 18 0 36zM345 669q0 34 23.5 57.5t57.5 23.5t57 -23.5t23 -57.5t-23 -57t-57 -23q-35 0 -58 23t-23 57z" />
    <glyph glyph-name="Amacron" unicode="&#x100;" horiz-adv-x="738" 
d="M392 692l308 -676q3 -5 -0.5 -10.5t-9.5 -5.5h-143q-18 0 -25 17l-50 125h-206l-50 -125q-7 -17 -25 -17h-143q-6 0 -9.5 5.5t-1.5 10.5l307 676q6 16 24 16t24 -16zM369 397l-53 -130h105zM236 905h265q7 0 12.5 -5.5t5.5 -12.5v-72q0 -7 -5.5 -12.5t-12.5 -5.5h-265
q-8 0 -13 5.5t-5 12.5v72q0 7 5 12.5t13 5.5z" />
    <glyph glyph-name="amacron" unicode="&#x101;" horiz-adv-x="552" 
d="M426 687v-72q0 -7 -5 -12.5t-13 -5.5h-265q-7 0 -12.5 5.5t-5.5 12.5v72q0 7 5.5 12.5t12.5 5.5h265q8 0 13 -5.5t5 -12.5zM284 509q62 0 102 -18t57.5 -52.5t23 -66t5.5 -78.5v-276q0 -8 -5 -13t-13 -5h-65q-19 0 -25 16l-8 18q-47 -44 -122 -44q-52 0 -88.5 16.5
t-54 43t-24.5 51.5t-7 51q0 89 55.5 129t138.5 40q30 0 65 -7q0 60 -57 60q-39 0 -112 -30q-17 -7 -24 9l-37 83q-7 18 9 25q91 44 186 48zM319 156v38q-28 8 -47 8q-66 0 -66 -44q0 -15 13 -23.5t32 -8.5q47 0 68 30z" />
    <glyph glyph-name="Abreve" unicode="&#x102;" horiz-adv-x="738" 
d="M392 692l308 -676q3 -5 -0.5 -10.5t-9.5 -5.5h-143q-18 0 -25 17l-50 125h-206l-50 -125q-7 -17 -25 -17h-143q-6 0 -9.5 5.5t-1.5 10.5l307 676q6 16 24 16t24 -16zM369 397l-53 -130h105zM435 952l76 -23q17 -6 12 -22q-19 -60 -61 -89.5t-94 -29.5q-53 0 -94 29.5
t-60 90.5q-5 16 12 22l74 21q15 5 22 -12q12 -37 46 -37q31 0 45 38q6 17 22 12z" />
    <glyph glyph-name="abreve" unicode="&#x103;" horiz-adv-x="552" 
d="M284 509q62 0 102 -18t57.5 -52.5t23 -66t5.5 -78.5v-276q0 -8 -5 -13t-13 -5h-65q-19 0 -25 16l-8 18q-47 -44 -122 -44q-52 0 -88.5 16.5t-54 43t-24.5 51.5t-7 51q0 89 55.5 129t138.5 40q30 0 65 -7q0 60 -57 60q-39 0 -112 -30q-17 -7 -24 9l-37 83q-7 18 9 25
q91 44 186 48zM319 156v38q-28 8 -47 8q-66 0 -66 -44q0 -15 13 -23.5t32 -8.5q47 0 68 30zM275 588q-53 0 -94 29.5t-60 90.5q-5 16 12 22l74 21q15 5 22 -12q12 -37 46 -37q31 0 45 38q6 17 22 12l76 -23q17 -6 12 -22q-19 -60 -61 -89.5t-94 -29.5z" />
    <glyph glyph-name="Aogonek" unicode="&#x104;" horiz-adv-x="738" 
d="M392 692l308 -676q3 -5 -0.5 -10.5t-9.5 -5.5h-61v-3q0 -10 -15.5 -39.5t-15.5 -50.5q0 -35 48 -35q25 0 65 10q6 2 11.5 -1.5t5.5 -10.5v-54q0 -19 -17 -24q-48 -16 -108 -16q-50 0 -84 27.5t-34 79.5q0 30 22 69.5t22 47.5q-3 8 -57 142h-206l-50 -125q-7 -17 -25 -17
h-143q-6 0 -9.5 5.5t-1.5 10.5l307 676q6 16 24 16t24 -16zM369 397l-53 -130h105z" />
    <glyph glyph-name="aogonek" unicode="&#x105;" horiz-adv-x="561" 
d="M489 -128q25 0 65 10q6 2 11.5 -1.5t5.5 -10.5v-54q0 -19 -17 -24q-48 -16 -108 -16q-50 0 -84 27.5t-34 79.5q0 30 21.5 69.5t21.5 47.5l-15 34q-47 -44 -122 -44q-52 0 -88.5 16.5t-54 43t-24.5 51.5t-7 51q0 89 55.5 129t138.5 40q30 0 65 -7q0 60 -57 60
q-39 0 -112 -30q-17 -7 -24 9l-37 83q-7 18 9 25q91 44 186 48q62 0 102 -18t57.5 -52.5t23 -66t5.5 -78.5v-297q0 -10 -15.5 -39.5t-15.5 -50.5q0 -35 48 -35zM319 156v38q-28 8 -47 8q-66 0 -66 -44q0 -15 13 -23.5t32 -8.5q47 0 68 30z" />
    <glyph glyph-name="Cacute" unicode="&#x106;" horiz-adv-x="749" 
d="M676 557l-81 -78q-13 -11 -25 1q-33 33 -78 56t-84 23q-46 0 -81 -17t-54 -41t-31 -55t-15.5 -53.5t-3.5 -41.5q0 -26 7 -55.5t24.5 -66.5t57.5 -61t97 -24q83 0 169 71q15 11 25 -2l69 -82q12 -14 -1 -27q-120 -113 -263 -113q-76 0 -137.5 23.5t-100 60t-64 85t-36 96
t-10.5 95.5q0 47 10.5 94t36 95.5t63.5 85.5t100 60.5t138 23.5q152 0 269 -127q5 -5 4.5 -13t-5.5 -13zM301 880l138 107q5 5 12.5 3.5t11.5 -7.5l50 -69q9 -14 -5 -25l-150 -93q-6 -4 -13.5 -2t-11.5 8l-36 52q-11 15 4 26z" />
    <glyph glyph-name="cacute" unicode="&#x107;" horiz-adv-x="563" 
d="M313 140q42 0 93 41q14 12 24 -2l67 -80q13 -15 -1 -27q-86 -79 -182 -79q-68 0 -120 24.5t-79.5 64t-41 81.5t-13.5 85q0 44 12 85.5t38.5 82.5t78.5 66.5t123 25.5q108 0 193 -85q14 -13 1 -26l-66 -73q-12 -12 -25 -1q-48 42 -103 42q-49 0 -73.5 -35t-24.5 -79
q0 -51 29 -81t70 -30zM415 689l-150 -93q-6 -4 -13.5 -2t-11.5 8l-36 52q-11 15 4 26l138 107q5 5 12.5 3.5t11.5 -7.5l50 -69q9 -14 -5 -25z" />
    <glyph glyph-name="Ccircumflex" unicode="&#x108;" horiz-adv-x="749" 
d="M406 854l-95 -59q-6 -4 -13.5 -2t-11.5 8l-36 52q-11 15 4 26l138 107q14 10 28 0l138 -107q15 -11 4 -26l-36 -52q-11 -15 -25 -6zM409 144q83 0 169 71q15 11 25 -2l69 -82q12 -14 -1 -27q-120 -113 -263 -113q-76 0 -137.5 23.5t-100 60t-64 85t-36 96t-10.5 95.5
q0 47 10.5 94t36 95.5t63.5 85.5t100 60.5t138 23.5q152 0 269 -127q5 -5 4.5 -13t-5.5 -13l-81 -78q-13 -11 -25 1q-33 33 -78 56t-84 23q-46 0 -81 -17t-54 -41t-31 -55t-15.5 -53.5t-3.5 -41.5q0 -26 7 -55.5t24.5 -66.5t57.5 -61t97 -24z" />
    <glyph glyph-name="ccircumflex" unicode="&#x109;" horiz-adv-x="563" 
d="M313 140q42 0 93 41q14 12 24 -2l67 -80q13 -15 -1 -27q-86 -79 -182 -79q-68 0 -120 24.5t-79.5 64t-41 81.5t-13.5 85q0 44 12 85.5t38.5 82.5t78.5 66.5t123 25.5q108 0 193 -85q14 -13 1 -26l-66 -73q-12 -12 -25 -1q-48 42 -103 42q-49 0 -73.5 -35t-24.5 -79
q0 -51 29 -81t70 -30zM305 654l-95 -59q-6 -4 -13.5 -2t-11.5 8l-36 52q-11 15 4 26l138 107q14 10 28 0l138 -107q15 -11 4 -26l-36 -52q-11 -15 -25 -6z" />
    <glyph glyph-name="Cdotaccent" unicode="&#x10a;" horiz-adv-x="749" 
d="M324 868q0 34 23.5 57.5t57.5 23.5t57 -23.5t23 -57.5t-23 -57t-57 -23q-35 0 -58 23t-23 57zM409 144q83 0 169 71q15 11 25 -2l69 -82q12 -14 -1 -27q-120 -113 -263 -113q-76 0 -137.5 23.5t-100 60t-64 85t-36 96t-10.5 95.5q0 47 10.5 94t36 95.5t63.5 85.5
t100 60.5t138 23.5q152 0 269 -127q5 -5 4.5 -13t-5.5 -13l-81 -78q-13 -11 -25 1q-33 33 -78 56t-84 23q-46 0 -81 -17t-54 -41t-31 -55t-15.5 -53.5t-3.5 -41.5q0 -26 7 -55.5t24.5 -66.5t57.5 -61t97 -24z" />
    <glyph glyph-name="cdotaccent" unicode="&#x10b;" horiz-adv-x="563" 
d="M227 668q0 34 23.5 57.5t57.5 23.5t57 -23.5t23 -57.5t-23 -57t-57 -23q-35 0 -58 23t-23 57zM313 140q42 0 93 41q14 12 24 -2l67 -80q13 -15 -1 -27q-86 -79 -182 -79q-68 0 -120 24.5t-79.5 64t-41 81.5t-13.5 85q0 44 12 85.5t38.5 82.5t78.5 66.5t123 25.5
q108 0 193 -85q14 -13 1 -26l-66 -73q-12 -12 -25 -1q-48 42 -103 42q-49 0 -73.5 -35t-24.5 -79q0 -51 29 -81t70 -30z" />
    <glyph glyph-name="Ccaron" unicode="&#x10c;" horiz-adv-x="749" 
d="M676 557l-81 -78q-13 -11 -25 1q-33 33 -78 56t-84 23q-46 0 -81 -17t-54 -41t-31 -55t-15.5 -53.5t-3.5 -41.5q0 -26 7 -55.5t24.5 -66.5t57.5 -61t97 -24q83 0 169 71q15 11 25 -2l69 -82q12 -14 -1 -27q-120 -113 -263 -113q-76 0 -137.5 23.5t-100 60t-64 85t-36 96
t-10.5 95.5q0 47 10.5 94t36 95.5t63.5 85.5t100 60.5t138 23.5q152 0 269 -127q5 -5 4.5 -13t-5.5 -13zM553 904l-138 -107q-14 -11 -28 0l-138 107q-14 11 -4 26l36 52q4 6 11.5 7.5t13.5 -2.5l95 -58l95 58q14 10 25 -5l36 -52q10 -15 -4 -26z" />
    <glyph glyph-name="ccaron" unicode="&#x10d;" horiz-adv-x="563" 
d="M497 99l-67 80q-10 14 -24 2q-51 -41 -93 -41q-41 0 -70 30t-29 81q0 44 24.5 79t73.5 35q55 0 103 -42q13 -11 25 1l66 73q13 13 -1 26q-85 85 -193 85q-71 0 -123 -25.5t-78.5 -66.5t-38.5 -82.5t-12 -85.5q0 -43 13.5 -85t41 -81.5t79.5 -64t120 -24.5q96 0 182 79
q14 12 1 27zM471 715l-166 -129l-166 129l56 82l95 -59q15 -8 30 0l95 59z" />
    <glyph glyph-name="Dcaron" unicode="&#x10e;" horiz-adv-x="759" 
d="M352 0h-234q-8 0 -13 5t-5 13v664q0 8 5 13t13 5h234q77 0 138 -22.5t99.5 -58t64 -82.5t35.5 -93t10 -93q0 -61 -17.5 -119t-55.5 -112t-108.5 -87t-165.5 -33zM259 149h93q46 0 81 16.5t54 39.5t31 53t15.5 52t3.5 41t-3.5 41t-15.5 52t-31 52.5t-54 39t-81 16.5h-93
v-403zM443 904l-138 -107q-14 -11 -28 0l-138 107q-14 11 -4 26l36 52q4 6 11.5 7.5t13.5 -2.5l95 -58l95 58q14 10 25 -5l36 -52q10 -15 -4 -26z" />
    <glyph glyph-name="dcaron" unicode="&#x10f;" horiz-adv-x="788" 
d="M696 712q48 0 70 -27.5t22 -67.5q0 -43 -32 -112.5t-67 -115.5q-11 -14 -27 -5l-35 20q-16 9 -7 25q42 79 48 116q-25 5 -42 27.5t-17 52.5q0 36 26 61.5t61 25.5zM383 483v199q0 8 5.5 13t12.5 5h116q7 0 12.5 -5t5.5 -13v-664q0 -8 -5.5 -13t-12.5 -5h-66q-19 0 -25 17
l-7 16q-63 -49 -153 -40q-57 6 -99 32.5t-64.5 65.5t-32.5 78.5t-10 80.5t8.5 78.5t28 75.5t58.5 64.5t94 35.5q87 10 134 -21zM383 160v192q-29 18 -66 18q-27 0 -47 -8.5t-31 -21t-17.5 -30t-8.5 -31.5t-2 -29q0 -17 3.5 -33.5t12.5 -38t30 -34.5t52 -13q51 0 74 29z" />
    <glyph glyph-name="Dcroat" unicode="&#x110;" horiz-adv-x="759" 
d="M352 0h-234q-8 0 -13 5t-5 13v664q0 8 5 13t13 5h234q77 0 138 -22.5t99.5 -58t64 -82.5t35.5 -93t10 -93q0 -61 -17.5 -119t-55.5 -112t-108.5 -87t-165.5 -33zM259 149h93q46 0 81 16.5t54 39.5t31 53t15.5 52t3.5 41t-3.5 41t-15.5 52t-31 52.5t-54 39t-81 16.5h-93
v-403zM146 905h265q7 0 12.5 -5.5t5.5 -12.5v-72q0 -7 -5.5 -12.5t-12.5 -5.5h-265q-8 0 -13 5.5t-5 12.5v72q0 7 5 12.5t13 5.5z" />
    <glyph glyph-name="dcroat" unicode="&#x111;" horiz-adv-x="614" 
d="M535 666h41q8 0 13 -5t5 -13v-48q0 -8 -5 -13t-13 -5h-41v-564q0 -8 -5.5 -13t-12.5 -5h-66q-19 0 -25 17l-7 16q-63 -49 -153 -40q-57 6 -99 32.5t-64.5 65.5t-32.5 78.5t-10 80.5t8.5 78.5t28 75.5t58.5 64.5t94 35.5q87 10 134 -21v99h-46q-7 0 -12.5 5t-5.5 13v48
q0 8 5.5 13t12.5 5h46v16q0 8 5.5 13t12.5 5h116q7 0 12.5 -5t5.5 -13v-16zM309 131q51 0 74 29v192q-29 18 -66 18q-27 0 -47 -8.5t-31 -21t-17.5 -30t-8.5 -31.5t-2 -29q0 -17 3.5 -33.5t12.5 -38t30 -34.5t52 -13z" />
    <glyph glyph-name="Emacron" unicode="&#x112;" horiz-adv-x="644" 
d="M495 271h-235v-122h306q8 0 13 -5.5t5 -12.5v-113q0 -8 -5 -13t-13 -5h-448q-8 0 -13 5t-5 13v664q0 8 5 13t13 5h448q8 0 13 -5t5 -13v-113q0 -7 -5 -12.5t-13 -5.5h-306v-131h235q7 0 12.5 -5t5.5 -13v-113q0 -7 -5.5 -12.5t-12.5 -5.5zM189 905h265q8 0 13 -5.5
t5 -12.5v-72q0 -7 -5 -12.5t-13 -5.5h-265q-7 0 -12.5 5.5t-5.5 12.5v72q0 7 5.5 12.5t12.5 5.5z" />
    <glyph glyph-name="emacron" unicode="&#x113;" horiz-adv-x="549" 
d="M479 217h-274q8 -36 31 -59t59 -23q56 0 105 30q6 4 13.5 2.5t11.5 -7.5l52 -76q10 -15 -4 -26q-82 -64 -178 -64q-68 0 -119 24.5t-78 64t-40 82t-13 86.5q0 43 13 85t40 82t78 64.5t119 24.5q99 0 154 -58.5t55 -158.5q0 -17 -4 -55q-3 -18 -21 -18zM277 367
q-52 -8 -68 -63h143q-6 51 -39 61q-12 4 -36 2zM157 705h265q8 0 13 -5.5t5 -12.5v-72q0 -7 -5 -12.5t-13 -5.5h-265q-7 0 -12.5 5.5t-5.5 12.5v72q0 7 5.5 12.5t12.5 5.5z" />
    <glyph glyph-name="Ebreve" unicode="&#x114;" horiz-adv-x="644" 
d="M495 271h-235v-122h306q8 0 13 -5.5t5 -12.5v-113q0 -8 -5 -13t-13 -5h-448q-8 0 -13 5t-5 13v664q0 8 5 13t13 5h448q8 0 13 -5t5 -13v-113q0 -7 -5 -12.5t-13 -5.5h-306v-131h235q7 0 12.5 -5t5.5 -13v-113q0 -7 -5.5 -12.5t-12.5 -5.5zM388 952l76 -23q17 -6 12 -22
q-19 -60 -61 -89.5t-94 -29.5q-53 0 -94 29.5t-60 90.5q-5 16 12 22l74 21q15 5 22 -12q12 -37 46 -37q31 0 45 38q6 17 22 12z" />
    <glyph glyph-name="ebreve" unicode="&#x115;" horiz-adv-x="549" 
d="M293 588q-53 0 -94 29.5t-60 90.5q-5 16 12 22l74 21q15 5 22 -12q12 -37 46 -37q31 0 45 38q6 17 22 12l76 -23q17 -6 12 -22q-19 -60 -61 -89.5t-94 -29.5zM504 290q0 -17 -4 -55q-3 -18 -21 -18h-274q8 -36 31 -59t59 -23q56 0 105 30q6 4 13.5 2.5t11.5 -7.5l52 -76
q10 -15 -4 -26q-82 -64 -178 -64q-68 0 -119 24.5t-78 64t-40 82t-13 86.5q0 43 13 85t40 82t78 64.5t119 24.5q99 0 154 -58.5t55 -158.5zM209 304h143q-6 63 -57 64q-68 0 -86 -64z" />
    <glyph glyph-name="Edotaccent" unicode="&#x116;" horiz-adv-x="644" 
d="M241 868q0 34 23.5 57.5t57.5 23.5t57 -23.5t23 -57.5t-23 -57t-57 -23q-35 0 -58 23t-23 57zM495 271h-235v-122h306q8 0 13 -5.5t5 -12.5v-113q0 -8 -5 -13t-13 -5h-448q-8 0 -13 5t-5 13v664q0 8 5 13t13 5h448q8 0 13 -5t5 -13v-113q0 -7 -5 -12.5t-13 -5.5h-306
v-131h235q7 0 12.5 -5t5.5 -13v-113q0 -7 -5.5 -12.5t-12.5 -5.5z" />
    <glyph glyph-name="edotaccent" unicode="&#x117;" horiz-adv-x="549" 
d="M212 668q0 34 23.5 57.5t57.5 23.5t57 -23.5t23 -57.5t-23 -57t-57 -23q-35 0 -58 23t-23 57zM504 290q0 -17 -4 -55q-3 -18 -21 -18h-274q8 -36 31 -59t59 -23q56 0 105 30q6 4 13.5 2.5t11.5 -7.5l52 -76q10 -15 -4 -26q-82 -64 -178 -64q-68 0 -119 24.5t-78 64
t-40 82t-13 86.5q0 43 13 85t40 82t78 64.5t119 24.5q99 0 154 -58.5t55 -158.5zM209 304h143q-6 63 -57 64q-68 0 -86 -64z" />
    <glyph glyph-name="Eogonek" unicode="&#x118;" horiz-adv-x="644" 
d="M495 271h-235v-122h306q8 0 13 -5.5t5 -12.5v-134q0 -10 -16 -39.5t-16 -50.5q0 -35 48 -35q25 0 65 10q6 2 11.5 -1.5t5.5 -10.5v-54q0 -19 -17 -24q-48 -16 -108 -16q-50 0 -84 27.5t-34 79.5q0 30 22 69.5t22 47.5h-365q-8 0 -13 5t-5 13v664q0 8 5 13t13 5h448
q8 0 13 -5t5 -13v-113q0 -7 -5 -12.5t-13 -5.5h-306v-131h235q7 0 12.5 -5t5.5 -13v-113q0 -7 -5.5 -12.5t-12.5 -5.5z" />
    <glyph glyph-name="eogonek" unicode="&#x119;" horiz-adv-x="549" 
d="M479 217h-274q8 -36 31 -59t59 -23q56 0 105 30q6 4 13.5 2.5t11.5 -7.5l52 -76q10 -15 -4 -27q-19 -15 -50 -32v-28q0 -10 -15.5 -39.5t-15.5 -50.5q0 -35 48 -35q25 0 65 10q6 2 11.5 -1.5t5.5 -10.5v-54q0 -19 -17 -24q-48 -16 -108 -16q-50 0 -84 27.5t-34 79.5
q0 30 21 69t22 43q-4 0 -13 -0.5t-14 -0.5q-68 0 -119 24.5t-78 64t-40 82t-13 86.5q0 43 13 85t40 82t78 64.5t119 24.5q99 0 154 -58.5t55 -158.5q0 -17 -4 -55q-3 -18 -21 -18zM295 368q-68 0 -86 -64h143q-6 63 -57 64z" />
    <glyph glyph-name="Ecaron" unicode="&#x11a;" horiz-adv-x="644" 
d="M495 271h-235v-122h306q8 0 13 -5.5t5 -12.5v-113q0 -8 -5 -13t-13 -5h-448q-8 0 -13 5t-5 13v664q0 8 5 13t13 5h448q8 0 13 -5t5 -13v-113q0 -7 -5 -12.5t-13 -5.5h-306v-131h235q7 0 12.5 -5t5.5 -13v-113q0 -7 -5.5 -12.5t-12.5 -5.5zM474 904l-138 -107
q-14 -11 -28 0l-138 107q-14 11 -4 26l36 52q4 6 11.5 7.5t13.5 -2.5l95 -58l95 58q14 10 25 -5l36 -52q10 -15 -4 -26z" />
    <glyph glyph-name="ecaron" unicode="&#x11b;" horiz-adv-x="549" 
d="M479 217h-274q8 -36 31 -59t59 -23q56 0 105 30q6 4 13.5 2.5t11.5 -7.5l52 -76q10 -15 -4 -26q-82 -64 -178 -64q-68 0 -119 24.5t-78 64t-40 82t-13 86.5q0 43 13 85t40 82t78 64.5t119 24.5q99 0 154 -58.5t55 -158.5q0 -17 -4 -55q-3 -18 -21 -18zM277 367
q-52 -8 -68 -63h143q-6 51 -39 61q-12 4 -36 2zM443 704l-138 -107q-14 -11 -28 0l-138 107q-14 11 -4 26l36 52q4 6 11.5 7.5t13.5 -2.5l95 -58l95 58q14 10 25 -5l36 -52q10 -15 -4 -26z" />
    <glyph glyph-name="Gcircumflex" unicode="&#x11c;" horiz-adv-x="734" 
d="M508 237h-115q-7 0 -12.5 5.5t-5.5 12.5v111q0 8 5.5 13t12.5 5h258q7 0 12.5 -5t5.5 -13v-249q0 -18 -13 -31q-103 -95 -248 -95q-76 0 -137.5 23.5t-100 60t-64 85t-36 96t-10.5 95.5q0 47 10.5 94t36 95.5t63.5 85.5t100 60.5t138 23.5q143 0 254 -109q13 -13 0 -26
l-75 -82q-12 -12 -25 -1q-33 29 -75.5 48t-78.5 19q-46 0 -81 -17t-54 -40.5t-31 -54t-15.5 -53t-3.5 -41.5q0 -20 3.5 -43t15.5 -54.5t31 -56.5t54 -42.5t81 -17.5q61 0 100 29v69zM422 986l138 -107q15 -11 4 -26l-36 -52q-11 -15 -25 -6l-95 59l-95 -59q-6 -4 -13.5 -2
t-11.5 8l-36 52q-11 15 4 26l138 107q14 10 28 0z" />
    <glyph glyph-name="gcircumflex" unicode="&#x11d;" horiz-adv-x="592" 
d="M296 654l-95 -59q-6 -4 -13.5 -2t-11.5 8l-36 52q-11 15 4 26l138 107q14 10 28 0l138 -107q15 -11 4 -26l-36 -52q-11 -15 -25 -6zM288 85q130 0 181 -40t51 -110q0 -13 -3 -28.5t-16.5 -40t-36 -44t-66.5 -33.5t-102 -14q-125 0 -180.5 49t-55.5 112q1 24 14 51t35 45
q-38 43 -38 93q0 57 48 91q-34 40 -34 97q0 35 11 68t33.5 64t64.5 50t97 19q53 0 88 -19l68 61q12 12 25 -1l58 -63q12 -12 -1 -26l-61 -64q28 -36 28 -91q0 -33 -11 -66t-33.5 -63t-64 -48.5t-96.5 -18.5q-56 0 -84 11q-13 -1 -13 -16q0 -26 42 -26q5 0 25 0.5t27 0.5z
M291 373q-19 0 -31 -12t-15 -24t-3 -24q0 -11 2.5 -22t14.5 -24t32 -13q19 0 30.5 12.5t14 24t2.5 22.5t-2.5 22.5t-14 24.5t-30.5 13zM291 -94q22 0 39 3t25 6.5t13 8t6 6.5t1 3q0 25 -84 25q-86 0 -86 -23q0 -4 5 -9.5t26 -12t55 -7.5z" />
    <glyph glyph-name="Gbreve" unicode="&#x11e;" horiz-adv-x="734" 
d="M508 237h-115q-7 0 -12.5 5.5t-5.5 12.5v111q0 8 5.5 13t12.5 5h258q7 0 12.5 -5t5.5 -13v-249q0 -18 -13 -31q-103 -95 -248 -95q-76 0 -137.5 23.5t-100 60t-64 85t-36 96t-10.5 95.5q0 47 10.5 94t36 95.5t63.5 85.5t100 60.5t138 23.5q143 0 254 -109q13 -13 0 -26
l-75 -82q-12 -12 -25 -1q-33 29 -75.5 48t-78.5 19q-46 0 -81 -17t-54 -40.5t-31 -54t-15.5 -53t-3.5 -41.5q0 -20 3.5 -43t15.5 -54.5t31 -56.5t54 -42.5t81 -17.5q61 0 100 29v69zM472 952l76 -23q17 -6 12 -22q-19 -60 -61 -89.5t-94 -29.5q-53 0 -94 29.5t-60 90.5
q-5 16 12 22l74 21q15 5 22 -12q12 -37 46 -37q31 0 45 38q6 17 22 12z" />
    <glyph glyph-name="gbreve" unicode="&#x11f;" horiz-adv-x="592" 
d="M288 85q130 0 181 -40t51 -110q0 -13 -3 -28.5t-16.5 -40t-36 -44t-66.5 -33.5t-102 -14q-125 0 -180.5 49t-55.5 112q1 24 14 51t35 45q-38 43 -38 93q0 57 48 91q-34 40 -34 97q0 35 11 68t33.5 64t64.5 50t97 19q53 0 88 -19l68 61q12 12 25 -1l58 -63q12 -12 -1 -26
l-61 -64q28 -36 28 -91q0 -33 -11 -66t-33.5 -63t-64 -48.5t-96.5 -18.5q-56 0 -84 11q-13 -1 -13 -16q0 -26 42 -26q5 0 25 0.5t27 0.5zM291 373q-19 0 -31 -12t-15 -24t-3 -24q0 -11 2.5 -22t14.5 -24t32 -13q19 0 30.5 12.5t14 24t2.5 22.5t-2.5 22.5t-14 24.5t-30.5 13z
M291 -94q22 0 39 3t25 6.5t13 8t6 6.5t1 3q0 25 -84 25q-86 0 -86 -23q0 -4 5 -9.5t26 -12t55 -7.5zM295 588q-53 0 -94 29.5t-60 90.5q-5 16 12 22l74 21q15 5 22 -12q12 -37 46 -37q31 0 45 38q6 17 22 12l76 -23q17 -6 12 -22q-19 -60 -61 -89.5t-94 -29.5z" />
    <glyph glyph-name="Gdotaccent" unicode="&#x120;" horiz-adv-x="734" 
d="M310 868q0 34 23.5 57.5t57.5 23.5t57 -23.5t23 -57.5t-23 -57t-57 -23q-35 0 -58 23t-23 57zM508 237h-115q-7 0 -12.5 5.5t-5.5 12.5v111q0 8 5.5 13t12.5 5h258q7 0 12.5 -5t5.5 -13v-249q0 -18 -13 -31q-103 -95 -248 -95q-76 0 -137.5 23.5t-100 60t-64 85t-36 96
t-10.5 95.5q0 47 10.5 94t36 95.5t63.5 85.5t100 60.5t138 23.5q143 0 254 -109q13 -13 0 -26l-75 -82q-12 -12 -25 -1q-33 29 -75.5 48t-78.5 19q-46 0 -81 -17t-54 -40.5t-31 -54t-15.5 -53t-3.5 -41.5q0 -20 3.5 -43t15.5 -54.5t31 -56.5t54 -42.5t81 -17.5q61 0 100 29
v69z" />
    <glyph glyph-name="gdotaccent" unicode="&#x121;" horiz-adv-x="592" 
d="M215 668q0 34 23.5 57.5t57.5 23.5t57 -23.5t23 -57.5t-23 -57t-57 -23q-35 0 -58 23t-23 57zM288 85q130 0 181 -40t51 -110q0 -13 -3 -28.5t-16.5 -40t-36 -44t-66.5 -33.5t-102 -14q-125 0 -180.5 49t-55.5 112q1 24 14 51t35 45q-38 43 -38 93q0 57 48 91
q-34 40 -34 97q0 35 11 68t33.5 64t64.5 50t97 19q53 0 88 -19l68 61q12 12 25 -1l58 -63q12 -12 -1 -26l-61 -64q28 -36 28 -91q0 -33 -11 -66t-33.5 -63t-64 -48.5t-96.5 -18.5q-56 0 -84 11q-13 -1 -13 -16q0 -26 42 -26q5 0 25 0.5t27 0.5zM291 373q-19 0 -31 -12
t-15 -24t-3 -24q0 -11 2.5 -22t14.5 -24t32 -13q19 0 30.5 12.5t14 24t2.5 22.5t-2.5 22.5t-14 24.5t-30.5 13zM291 -94q22 0 39 3t25 6.5t13 8t6 6.5t1 3q0 25 -84 25q-86 0 -86 -23q0 -4 5 -9.5t26 -12t55 -7.5z" />
    <glyph glyph-name="Gcommaaccent" unicode="&#x122;" horiz-adv-x="734" 
d="M508 237h-115q-7 0 -12.5 5.5t-5.5 12.5v111q0 8 5.5 13t12.5 5h258q7 0 12.5 -5t5.5 -13v-249q0 -18 -13 -31q-103 -95 -248 -95q-76 0 -137.5 23.5t-100 60t-64 85t-36 96t-10.5 95.5q0 47 10.5 94t36 95.5t63.5 85.5t100 60.5t138 23.5q143 0 254 -109q13 -13 0 -26
l-75 -82q-12 -12 -25 -1q-33 29 -75.5 48t-78.5 19q-46 0 -81 -17t-54 -40.5t-31 -54t-15.5 -53t-3.5 -41.5q0 -20 3.5 -43t15.5 -54.5t31 -56.5t54 -42.5t81 -17.5q61 0 100 29v69zM387 -347l-31 14q-15 7 -8 23q7 18 19 52.5t13 36.5q-46 19 -46 73q0 31 22 54t53 23
q40 0 60.5 -24.5t20.5 -58.5q0 -64 -76 -185q-10 -15 -27 -8z" />
    <glyph glyph-name="gcommaaccent" unicode="&#x123;" horiz-adv-x="592" 
d="M298 591q-40 0 -60.5 24.5t-20.5 58.5q0 62 76 185q10 15 26 8l31 -14q16 -7 9 -23q-7 -18 -19 -52.5t-13 -36.5q46 -19 46 -73q0 -31 -22 -54t-53 -23zM288 85q130 0 181 -40t51 -110q0 -13 -3 -28.5t-16.5 -40t-36 -44t-66.5 -33.5t-102 -14q-125 0 -180.5 49
t-55.5 112q1 24 14 51t35 45q-38 43 -38 93q0 57 48 91q-34 40 -34 97q0 35 11 68t33.5 64t64.5 50t97 19q53 0 88 -19l68 61q12 12 25 -1l58 -63q12 -12 -1 -26l-61 -64q28 -36 28 -91q0 -33 -11 -66t-33.5 -63t-64 -48.5t-96.5 -18.5q-56 0 -84 11q-13 -1 -13 -16
q0 -26 42 -26q5 0 25 0.5t27 0.5zM291 373q-19 0 -31 -12t-15 -24t-3 -24q0 -11 2.5 -22t14.5 -24t32 -13q19 0 30.5 12.5t14 24t2.5 22.5t-2.5 22.5t-14 24.5t-30.5 13zM291 -94q22 0 39 3t25 6.5t13 8t6 6.5t1 3q0 25 -84 25q-86 0 -86 -23q0 -4 5 -9.5t26 -12t55 -7.5z
" />
    <glyph glyph-name="Hcircumflex" unicode="&#x124;" horiz-adv-x="779" 
d="M261 271v-253q0 -8 -5.5 -13t-12.5 -5h-125q-8 0 -13 5t-5 13v664q0 8 5 13t13 5h125q7 0 12.5 -5t5.5 -13v-262h259v262q0 8 5 13t13 5h123q7 0 12.5 -5t5.5 -13v-664q0 -8 -5.5 -13t-12.5 -5h-123q-8 0 -13 5t-5 13v253h-259zM403 986l138 -107q15 -11 4 -26l-36 -52
q-11 -15 -25 -6l-95 59l-95 -59q-6 -4 -13.5 -2t-11.5 8l-36 52q-11 15 4 26l138 107q14 10 28 0z" />
    <glyph glyph-name="hcircumflex" unicode="&#x125;" horiz-adv-x="586" 
d="M214 0h-116q-8 0 -13 5t-5 13v664q0 8 5 13t13 5h116q8 0 13 -5t5 -13v-197q36 23 99 23q51 -3 87.5 -19t57 -39t32 -57.5t15 -64.5t3.5 -70v-240q0 -8 -5 -13t-13 -5h-115q-7 0 -12.5 5t-5.5 13v240q0 18 -1.5 32t-6 30t-13 26t-23.5 16.5t-36 5.5q-44 -2 -63 -28v-322
q0 -8 -5 -13t-13 -5zM166 990l138 -107q15 -11 4 -26l-36 -52q-11 -15 -25 -6l-95 59l-95 -59q-6 -4 -13.5 -2t-11.5 8l-36 52q-11 15 4 26l138 107q14 10 28 0z" />
    <glyph glyph-name="Hbar" unicode="&#x126;" horiz-adv-x="760" 
d="M58 618h32v64q0 8 5 13t13 5h124q8 0 13 -5t5 -13v-64h260v64q0 8 5 13t13 5h124q8 0 13 -5t5 -13v-64h32q8 0 13 -5t5 -13v-72q0 -8 -5 -13t-13 -5h-32v-492q0 -8 -5 -13t-13 -5h-124q-8 0 -13 5t-5 13v253h-260v-253q0 -8 -5 -13t-13 -5h-124q-8 0 -13 5t-5 13v492h-32
q-8 0 -13 5t-5 13v72q0 8 5 13t13 5zM250 420h260v90h-260v-90z" />
    <glyph glyph-name="hbar" unicode="&#x127;" horiz-adv-x="586" 
d="M43 653h37v29q0 8 5 13t13 5h116q8 0 13 -5t5 -13v-29h76q8 0 13 -5.5t5 -12.5v-54q0 -7 -5 -12.5t-13 -5.5h-76v-78q36 23 99 23q51 -3 87.5 -19t57 -39t32 -57.5t15 -64.5t3.5 -70v-240q0 -8 -5 -13t-13 -5h-115q-7 0 -12.5 5t-5.5 13v240q0 18 -1.5 32t-6 30t-13 26
t-23.5 16.5t-36 5.5q-44 -2 -63 -28v-322q0 -8 -5 -13t-13 -5h-116q-8 0 -13 5t-5 13v545h-37q-7 0 -12.5 5.5t-5.5 12.5v54q0 7 5.5 12.5t12.5 5.5z" />
    <glyph glyph-name="Itilde" unicode="&#x128;" horiz-adv-x="371" 
d="M265 682v-664q0 -8 -5.5 -13t-12.5 -5h-124q-7 0 -12.5 5t-5.5 13v664q0 8 5.5 13t12.5 5h124q7 0 12.5 -5t5.5 -13zM66 797l-51 31q-15 11 -7 26q47 84 120 84q20 0 55 -16.5t56 -16.5q23 0 41 21q11 15 25 5l51 -31q16 -10 7 -25q-46 -85 -122 -85q-21 0 -54 17t-52 17
q-25 0 -44 -21q-11 -15 -25 -6z" />
    <glyph glyph-name="itilde" unicode="&#x129;" horiz-adv-x="371" 
d="M255 482v-464q0 -8 -5.5 -13t-12.5 -5h-116q-7 0 -12.5 5t-5.5 13v464q0 8 5.5 13t12.5 5h116q7 0 12.5 -5t5.5 -13zM66 597l-51 31q-15 11 -7 26q47 84 120 84q20 0 55 -16.5t56 -16.5q23 0 41 21q11 15 25 5l51 -31q16 -10 7 -25q-46 -85 -122 -85q-21 0 -54 17t-52 17
q-25 0 -44 -21q-11 -15 -25 -6z" />
    <glyph glyph-name="Imacron" unicode="&#x12a;" horiz-adv-x="301" 
d="M230 682v-664q0 -8 -5 -13t-13 -5h-124q-8 0 -13 5t-5 13v664q0 8 5 13t13 5h124q8 0 13 -5t5 -13zM18 905h265q7 0 12.5 -5.5t5.5 -12.5v-72q0 -7 -5.5 -12.5t-12.5 -5.5h-265q-8 0 -13 5.5t-5 12.5v72q0 7 5 12.5t13 5.5z" />
    <glyph glyph-name="imacron" unicode="&#x12b;" horiz-adv-x="301" 
d="M220 482v-464q0 -8 -5 -13t-13 -5h-116q-8 0 -13 5t-5 13v464q0 8 5 13t13 5h116q8 0 13 -5t5 -13zM18 705h265q7 0 12.5 -5.5t5.5 -12.5v-72q0 -7 -5.5 -12.5t-12.5 -5.5h-265q-8 0 -13 5.5t-5 12.5v72q0 7 5 12.5t13 5.5z" />
    <glyph glyph-name="Ibreve" unicode="&#x12c;" horiz-adv-x="319" 
d="M239 682v-664q0 -8 -5.5 -13t-12.5 -5h-124q-7 0 -12.5 5t-5.5 13v664q0 8 5.5 13t12.5 5h124q7 0 12.5 -5t5.5 -13zM226 952l76 -23q17 -6 12 -22q-19 -60 -61 -89.5t-94 -29.5q-53 0 -94 29.5t-60 90.5q-5 16 12 22l74 21q15 5 22 -12q12 -37 46 -37q31 0 45 38
q6 17 22 12z" />
    <glyph glyph-name="ibreve" unicode="&#x12d;" horiz-adv-x="319" 
d="M229 482v-464q0 -8 -5.5 -13t-12.5 -5h-116q-7 0 -12.5 5t-5.5 13v464q0 8 5.5 13t12.5 5h116q7 0 12.5 -5t5.5 -13zM226 752l76 -23q17 -6 12 -22q-19 -60 -61 -89.5t-94 -29.5q-53 0 -94 29.5t-60 90.5q-5 16 12 22l74 21q15 5 22 -12q12 -37 46 -37q31 0 45 38
q6 17 22 12z" />
    <glyph glyph-name="Iogonek" unicode="&#x12e;" horiz-adv-x="349" 
d="M260 682v-685q0 -10 -15.5 -39.5t-15.5 -50.5q0 -35 48 -35q25 0 65 10q6 2 11.5 -1.5t5.5 -10.5v-54q0 -19 -17 -24q-48 -16 -108 -16q-50 0 -84 27.5t-34 79.5q0 30 22 69.5t22 47.5h-42q-8 0 -13 5t-5 13v664q0 8 5 13t13 5h124q8 0 13 -5t5 -13z" />
    <glyph glyph-name="iogonek" unicode="&#x12f;" horiz-adv-x="325" 
d="M236 482v-485q0 -10 -15.5 -39.5t-15.5 -50.5q0 -35 48 -35q25 0 65 10q6 2 11.5 -1.5t5.5 -10.5v-54q0 -19 -17 -24q-48 -16 -108 -16q-50 0 -84 27.5t-34 79.5q0 30 22 69.5t22 47.5h-34q-8 0 -13 5t-5 13v464q0 8 5 13t13 5h116q8 0 13 -5t5 -13zM80 671
q0 34 23.5 57.5t57.5 23.5t57 -23.5t23 -57.5t-23 -57t-57 -23q-35 0 -58 23t-23 57z" />
    <glyph glyph-name="Idotaccent" unicode="&#x130;" horiz-adv-x="361" 
d="M260 682v-664q0 -8 -5 -13t-13 -5h-124q-8 0 -13 5t-5 13v664q0 8 5 13t13 5h124q8 0 13 -5t5 -13zM100 868q0 34 23.5 57.5t57.5 23.5t57 -23.5t23 -57.5t-23 -57t-57 -23q-35 0 -58 23t-23 57z" />
    <glyph glyph-name="dotlessi" unicode="&#x131;" horiz-adv-x="312" 
d="M232 482v-464q0 -8 -5 -13t-13 -5h-116q-8 0 -13 5t-5 13v464q0 8 5 13t13 5h116q8 0 13 -5t5 -13z" />
    <glyph glyph-name="IJ" unicode="&#x132;" horiz-adv-x="943" 
d="M260 682v-664q0 -8 -5 -13t-13 -5h-124q-8 0 -13 5t-5 13v664q0 8 5 13t13 5h124q8 0 13 -5t5 -13zM349 224l108 40q16 5 23 -11q38 -106 110 -106q101 0 101 129v406q0 8 5.5 13t12.5 5h126q7 0 12.5 -5t5.5 -13v-406q0 -38 -6.5 -74t-24.5 -75t-46 -67.5t-75 -47
t-108 -18.5q-107 0 -169.5 56.5t-87.5 150.5q-4 18 13 23z" />
    <glyph glyph-name="ij" unicode="&#x133;" horiz-adv-x="632" 
d="M234 482v-464q0 -8 -5 -13t-13 -5h-116q-8 0 -13 5t-5 13v464q0 8 5 13t13 5h116q8 0 13 -5t5 -13zM80 689q6 28 28 45.5t51 17.5q34 0 57 -23.5t23 -57.5t-23 -57t-57 -23q-30 0 -51.5 17t-27.5 45q-4 18 0 36zM278 -35q40 -23 69 -23q42 0 42 60v480q0 8 5.5 13t12.5 5
h119q8 0 13 -5t5 -13v-483q0 -18 -2 -37t-12.5 -49t-28.5 -52t-54 -38.5t-84 -16.5q-81 0 -151 55q-14 11 -3 27l44 71q11 15 25 6zM386 669q0 34 23.5 57.5t57.5 23.5t57 -23.5t23 -57.5t-23 -57t-57 -23q-35 0 -58 23t-23 57z" />
    <glyph glyph-name="Jcircumflex" unicode="&#x134;" horiz-adv-x="640" 
d="M37 224l108 40q16 5 23 -11q38 -106 110 -106q101 0 101 129v406q0 8 5.5 13t12.5 5h126q7 0 12.5 -5t5.5 -13v-406q0 -38 -6.5 -74t-24.5 -75t-46 -67.5t-75 -47t-108 -18.5q-107 0 -169.5 56.5t-87.5 150.5q-4 18 13 23zM478 986l138 -107q15 -11 4 -26l-36 -52
q-11 -15 -25 -6l-95 59l-95 -59q-6 -4 -13.5 -2t-11.5 8l-36 52q-11 15 4 26l138 107q14 10 28 0z" />
    <glyph glyph-name="jcircumflex" unicode="&#x135;" horiz-adv-x="328" 
d="M-51 -35q40 -23 69 -23q42 0 42 60v480q0 8 5 13t13 5h119q7 0 12.5 -5t5.5 -13v-483q0 -18 -2 -37t-12.5 -49t-28.5 -52t-54 -38.5t-84 -16.5q-81 0 -151 55q-14 11 -3 27l44 71q11 15 25 6zM166 786l138 -107q15 -11 4 -26l-36 -52q-11 -15 -25 -6l-95 59l-95 -59
q-6 -4 -13.5 -2t-11.5 8l-36 52q-11 15 4 26l138 107q14 10 28 0z" />
    <glyph glyph-name="Kcommaaccent" unicode="&#x136;" horiz-adv-x="745" 
d="M243 0h-125q-8 0 -13 5t-5 13v664q0 8 5 13t13 5h125q7 0 12.5 -5t5.5 -13v-248l220 252q12 14 30 14h164q5 0 7.5 -4.5t-1.5 -8.5l-294 -326l316 -348q3 -4 1 -8.5t-7 -4.5h-164q-17 0 -30 13l-242 275v-270q0 -8 -5.5 -13t-12.5 -5zM347 -347l-31 14q-15 7 -8 23
q7 18 19 52.5t13 36.5q-46 19 -46 73q0 31 22 54t53 23q40 0 60.5 -24.5t20.5 -58.5q0 -64 -76 -185q-10 -15 -27 -8z" />
    <glyph glyph-name="kcommaaccent" unicode="&#x137;" horiz-adv-x="634" 
d="M411 13l-179 200v-195q0 -8 -5 -13t-13 -5h-116q-8 0 -13 5t-5 13v664q0 8 5 13t13 5h116q8 0 13 -5t5 -13v-383l166 187q12 14 30 14h147q5 0 7 -4.5t-1 -8.5l-207 -227l224 -247q4 -4 1.5 -8.5t-7.5 -4.5h-151q-17 0 -30 13zM292 -347l-31 14q-15 7 -8 23q7 18 19 52.5
t13 36.5q-46 19 -46 73q0 31 22 54t53 23q40 0 60.5 -24.5t20.5 -58.5q0 -64 -76 -185q-10 -15 -27 -8z" />
    <glyph glyph-name="kgreenlandic" unicode="&#x138;" horiz-adv-x="634" 
d="M411 13l-179 200v-195q0 -8 -5 -13t-13 -5h-116q-8 0 -13 5t-5 13v465q0 7 5 12.5t13 5.5h116q8 0 13 -5.5t5 -12.5v-184l166 187q12 14 30 14h147q5 0 7 -4.5t-1 -8.5l-207 -227l224 -247q4 -4 1.5 -8.5t-7.5 -4.5h-151q-17 0 -30 13z" />
    <glyph glyph-name="Lacute" unicode="&#x139;" horiz-adv-x="574" 
d="M261 682v-533h235q8 0 13 -5.5t5 -12.5v-113q0 -8 -5 -13t-13 -5h-378q-8 0 -13 5t-5 13v664q0 8 5 13t13 5h125q7 0 12.5 -5t5.5 -13zM114 882l138 107q5 5 12.5 3.5t11.5 -7.5l50 -69q9 -14 -5 -25l-150 -93q-6 -4 -13.5 -2t-11.5 8l-36 52q-11 15 4 26z" />
    <glyph glyph-name="lacute" unicode="&#x13a;" horiz-adv-x="276" 
d="M208 683v-665q0 -8 -5 -13t-13 -5h-118q-8 0 -13 5t-5 13v665q0 7 5 12.5t13 5.5h118q8 0 13 -5.5t5 -12.5zM39 878l138 107q5 5 12.5 3.5t11.5 -7.5l50 -69q9 -14 -5 -25l-150 -93q-6 -4 -13.5 -2t-11.5 8l-36 52q-11 15 4 26z" />
    <glyph glyph-name="Lcommaaccent" unicode="&#x13b;" horiz-adv-x="574" 
d="M261 682v-533h235q8 0 13 -5.5t5 -12.5v-113q0 -8 -5 -13t-13 -5h-378q-8 0 -13 5t-5 13v664q0 8 5 13t13 5h125q7 0 12.5 -5t5.5 -13zM262 -347l-31 14q-15 7 -8 23q7 18 19 52.5t13 36.5q-46 19 -46 73q0 31 22 54t53 23q40 0 60.5 -24.5t20.5 -58.5q0 -64 -76 -185
q-10 -15 -27 -8z" />
    <glyph glyph-name="lcommaaccent" unicode="&#x13c;" horiz-adv-x="316" 
d="M235 682v-664q0 -8 -5.5 -13t-12.5 -5h-118q-7 0 -12.5 5t-5.5 13v664q0 8 5.5 13t12.5 5h118q7 0 12.5 -5t5.5 -13zM137 -347l-31 14q-15 7 -8 23q7 18 19 52.5t13 36.5q-46 19 -46 73q0 31 22 54t53 23q40 0 60.5 -24.5t20.5 -58.5q0 -64 -76 -185q-10 -15 -27 -8z" />
    <glyph glyph-name="Lcaron" unicode="&#x13d;" horiz-adv-x="574" 
d="M261 682v-533h235q8 0 13 -5.5t5 -12.5v-113q0 -8 -5 -13t-13 -5h-378q-8 0 -13 5t-5 13v664q0 8 5 13t13 5h125q7 0 12.5 -5t5.5 -13zM403 386l-35 20q-16 9 -7 25q42 79 48 116q-25 5 -42 27.5t-17 52.5q0 36 26 61.5t61 25.5q48 0 70 -27.5t22 -67.5q0 -43 -32 -112.5
t-67 -115.5q-11 -14 -27 -5z" />
    <glyph glyph-name="lcaron" unicode="&#x13e;" horiz-adv-x="476" 
d="M234 682v-664q0 -8 -5 -13t-13 -5h-118q-8 0 -13 5t-5 13v664q0 8 5 13t13 5h118q8 0 13 -5t5 -13zM350 379l-35 20q-16 9 -7 25q42 79 48 116q-25 5 -42 27.5t-17 52.5q0 36 26 61.5t61 25.5q48 0 70 -27.5t22 -67.5q0 -43 -32 -112.5t-67 -115.5q-11 -14 -27 -5z" />
    <glyph glyph-name="Ldot" unicode="&#x13f;" horiz-adv-x="574" 
d="M261 682v-533h235q8 0 13 -5.5t5 -12.5v-113q0 -8 -5 -13t-13 -5h-378q-8 0 -13 5t-5 13v664q0 8 5 13t13 5h125q7 0 12.5 -5t5.5 -13zM319 379q0 -35 23 -59t58 -24q34 0 58.5 24t24.5 59t-24 58t-59 23t-58 -23t-23 -58z" />
    <glyph glyph-name="ldot" unicode="&#x140;" horiz-adv-x="493" 
d="M319 379q0 -35 23 -59t58 -24q34 0 58.5 24t24.5 59t-24 58t-59 23t-58 -23t-23 -58zM234 682v-664q0 -8 -5 -13t-13 -5h-118q-8 0 -13 5t-5 13v664q0 8 5 13t13 5h118q8 0 13 -5t5 -13z" />
    <glyph glyph-name="Lslash" unicode="&#x141;" horiz-adv-x="592" 
d="M67 211l-48 79q-9 15 7 24l104 60v308q0 8 5 13t13 5h124q8 0 13 -5t5 -13v-214l96 56q16 9 25 -7l47 -79q9 -15 -7 -24l-161 -94v-171h224q8 0 13 -5.5t5 -12.5v-113q0 -8 -5 -13t-13 -5h-366q-8 0 -13 5t-5 13v210l-39 -23q-15 -9 -24 6z" />
    <glyph glyph-name="lslash" unicode="&#x142;" horiz-adv-x="405" 
d="M65 206l-46 75q-9 15 6 24l93 57v320q0 8 5 13t13 5h118q8 0 13 -5t5 -13v-231l44 26q16 9 25 -7l45 -75q9 -15 -7 -24l-107 -63v-289q0 -7 -5 -12.5t-13 -5.5h-118q-8 0 -13 5.5t-5 12.5v200l-29 -18q-14 -11 -24 5z" />
    <glyph glyph-name="Nacute" unicode="&#x143;" horiz-adv-x="780" 
d="M243 0h-125q-8 0 -13 5t-5 13v677q0 15 14 15t26 -10l380 -355v337q0 8 5 13t13 5h124q8 0 13 -5t5 -13v-674q0 -13 -13 -13t-22 9l-384 363v-349q0 -8 -5.5 -13t-12.5 -5zM286 880l138 107q5 5 12.5 3.5t11.5 -7.5l50 -69q9 -14 -5 -25l-150 -93q-6 -4 -13.5 -2t-11.5 8
l-36 52q-11 15 4 26z" />
    <glyph glyph-name="nacute" unicode="&#x144;" 
d="M232 336v-318q0 -8 -5 -13t-13 -5h-116q-8 0 -13 5t-5 13v464q0 8 5 13t13 5h63q17 0 27 -16l8 -15q48 39 115 39q55 0 96 -15.5t63.5 -38.5t35.5 -58t17 -66.5t4 -71.5v-240q0 -8 -5.5 -13t-12.5 -5h-118q-7 0 -12.5 5t-5.5 13v240q0 23 -1.5 37.5t-7.5 34t-20.5 29.5
t-37.5 10q-50 0 -74 -33zM189 680l138 107q5 5 12.5 3.5t11.5 -7.5l50 -69q9 -14 -5 -25l-150 -93q-6 -4 -13.5 -2t-11.5 8l-36 52q-11 15 4 26z" />
    <glyph glyph-name="Ncommaaccent" unicode="&#x145;" horiz-adv-x="780" 
d="M243 0h-125q-8 0 -13 5t-5 13v677q0 15 14 15t26 -10l380 -355v337q0 8 5 13t13 5h124q8 0 13 -5t5 -13v-674q0 -13 -13 -13t-22 9l-384 363v-349q0 -8 -5.5 -13t-12.5 -5zM365 -347l-31 14q-15 7 -8 23q7 18 19 52.5t13 36.5q-46 19 -46 73q0 31 22 54t53 23
q40 0 60.5 -24.5t20.5 -58.5q0 -64 -76 -185q-10 -15 -27 -8z" />
    <glyph glyph-name="ncommaaccent" unicode="&#x146;" 
d="M232 336v-318q0 -8 -5 -13t-13 -5h-116q-8 0 -13 5t-5 13v464q0 8 5 13t13 5h63q17 0 27 -16l8 -15q48 39 115 39q55 0 96 -15.5t63.5 -38.5t35.5 -58t17 -66.5t4 -71.5v-240q0 -8 -5.5 -13t-12.5 -5h-118q-7 0 -12.5 5t-5.5 13v240q0 23 -1.5 37.5t-7.5 34t-20.5 29.5
t-37.5 10q-50 0 -74 -33zM268 -347l-31 14q-15 7 -8 23q7 18 19 52.5t13 36.5q-46 19 -46 73q0 31 22 54t53 23q40 0 60.5 -24.5t20.5 -58.5q0 -64 -76 -185q-10 -15 -27 -8z" />
    <glyph glyph-name="Ncaron" unicode="&#x147;" horiz-adv-x="780" 
d="M243 0h-125q-8 0 -13 5t-5 13v677q0 15 14 15t26 -10l380 -355v337q0 8 5 13t13 5h124q8 0 13 -5t5 -13v-674q0 -13 -13 -13t-22 9l-384 363v-349q0 -8 -5.5 -13t-12.5 -5zM542 904l-138 -107q-14 -11 -28 0l-138 107q-14 11 -4 26l36 52q4 6 11.5 7.5t13.5 -2.5l95 -58
l95 58q14 10 25 -5l36 -52q10 -15 -4 -26z" />
    <glyph glyph-name="ncaron" unicode="&#x148;" 
d="M232 336v-318q0 -8 -5 -13t-13 -5h-116q-8 0 -13 5t-5 13v464q0 8 5 13t13 5h63q17 0 27 -16l8 -15q48 39 115 39q55 0 96 -15.5t63.5 -38.5t35.5 -58t17 -66.5t4 -71.5v-240q0 -8 -5.5 -13t-12.5 -5h-118q-7 0 -12.5 5t-5.5 13v240q0 23 -1.5 37.5t-7.5 34t-20.5 29.5
t-37.5 10q-50 0 -74 -33zM445 704l-138 -107q-14 -11 -28 0l-138 107q-14 11 -4 26l36 52q4 6 11.5 7.5t13.5 -2.5l95 -58l95 58q14 10 25 -5l36 -52q10 -15 -4 -26z" />
    <glyph glyph-name="napostrophe" unicode="&#x149;" horiz-adv-x="729" 
d="M374 336v-318q0 -8 -5 -13t-13 -5h-116q-8 0 -13 5t-5 13v464q0 8 5 13t13 5h63q17 0 27 -16l8 -15q48 39 115 39q55 0 96 -15.5t63.5 -38.5t35.5 -58t17 -66.5t4 -71.5v-240q0 -8 -5.5 -13t-12.5 -5h-118q-7 0 -12.5 5t-5.5 13v240q0 23 -1.5 37.5t-7.5 34t-20.5 29.5
t-37.5 10q-50 0 -74 -33zM63 464l-31 14q-15 7 -8 23q7 18 19 52.5t13 36.5q-46 19 -46 73q0 31 22 54t53 23q40 0 60.5 -24.5t20.5 -58.5q0 -64 -76 -185q-10 -15 -27 -8z" />
    <glyph glyph-name="Eng" unicode="&#x14a;" horiz-adv-x="780" 
d="M414 -67q36 -21 62 -21q45 0 45 58v156l-260 241v-349q0 -8 -5.5 -13t-12.5 -5h-125q-8 0 -13 5t-5 13v676q0 16 16 16q15 0 28 -11l376 -353v336q0 8 5 13t13 5h124q8 0 13 -5t5 -13v-709q0 -18 -2 -37t-12.5 -49t-28.5 -52t-54 -38.5t-84 -16.5q-81 0 -151 55
q-14 11 -3 27l44 65q4 6 11.5 8t13.5 -2z" />
    <glyph glyph-name="eng" unicode="&#x14b;" 
d="M261 -78q40 -23 69 -23q42 0 42 60l1 299q0 23 -1.5 37.5t-7.5 34t-20.5 29.5t-37.5 10q-50 0 -74 -33v-318q0 -8 -5 -13t-13 -5h-116q-8 0 -13 5t-5 13v464q0 8 5 13t13 5h63q17 0 27 -16l8 -15q48 39 115 39q55 0 96 -15.5t63.5 -38.5t35.5 -58t17 -66.5t4 -71.5v-294
q0 -18 -2 -37t-12.5 -49t-28.5 -52t-54 -38.5t-84 -16.5q-81 0 -151 55q-14 10 -3 27l44 63q4 6 11.5 8t13.5 -2z" />
    <glyph glyph-name="Omacron" unicode="&#x14c;" horiz-adv-x="815" 
d="M408 712q76 0 137.5 -24t99.5 -61t63.5 -86t36 -96t10.5 -94q0 -48 -10.5 -95.5t-36 -96.5t-63.5 -86t-99.5 -60.5t-137.5 -23.5t-137.5 23.5t-100 60.5t-64 86t-36 96.5t-10.5 95.5q0 47 10.5 94t36 96t63.5 86t100 61t138 24zM408 139q46 0 81 17.5t53.5 42t30.5 56
t15.5 54.5t3.5 42t-3.5 42t-15.5 54t-30.5 55.5t-53.5 41.5t-81 17t-81 -17t-54 -41.5t-31 -55.5t-15.5 -54t-3.5 -42q0 -20 3.5 -42.5t15.5 -54t31 -56t54 -42t81 -17.5zM275 905h265q8 0 13 -5.5t5 -12.5v-72q0 -7 -5 -12.5t-13 -5.5h-265q-7 0 -12.5 5.5t-5.5 12.5v72
q0 7 5.5 12.5t12.5 5.5z" />
    <glyph glyph-name="omacron" unicode="&#x14d;" horiz-adv-x="618" 
d="M309 510q68 0 119 -25t78 -66t39.5 -83.5t12.5 -85.5q0 -44 -12.5 -86.5t-39.5 -83t-78 -65t-119 -24.5t-119 24.5t-78 65t-39.5 83t-12.5 86.5q0 43 12.5 85.5t39.5 83.5t78 66t119 25zM309 130q30 0 51 14t30 35.5t12.5 38.5t3.5 32q0 22 -5.5 46t-29 49.5t-62.5 25.5
t-63 -25.5t-29.5 -49.5t-5.5 -46q0 -15 3.5 -32t13 -38.5t30.5 -35.5t51 -14zM176 705h265q7 0 12.5 -5.5t5.5 -12.5v-72q0 -7 -5.5 -12.5t-12.5 -5.5h-265q-8 0 -13 5.5t-5 12.5v72q0 7 5 12.5t13 5.5z" />
    <glyph glyph-name="Obreve" unicode="&#x14e;" horiz-adv-x="815" 
d="M408 712q76 0 137.5 -24t99.5 -61t63.5 -86t36 -96t10.5 -94q0 -48 -10.5 -95.5t-36 -96.5t-63.5 -86t-99.5 -60.5t-137.5 -23.5t-137.5 23.5t-100 60.5t-64 86t-36 96.5t-10.5 95.5q0 47 10.5 94t36 96t63.5 86t100 61t138 24zM408 139q46 0 81 17.5t53.5 42t30.5 56
t15.5 54.5t3.5 42t-3.5 42t-15.5 54t-30.5 55.5t-53.5 41.5t-81 17t-81 -17t-54 -41.5t-31 -55.5t-15.5 -54t-3.5 -42q0 -20 3.5 -42.5t15.5 -54t31 -56t54 -42t81 -17.5zM474 952l76 -23q17 -6 12 -22q-19 -60 -61 -89.5t-94 -29.5q-53 0 -94 29.5t-60 90.5q-5 16 12 22
l74 21q15 5 22 -12q12 -37 46 -37q31 0 45 38q6 17 22 12z" />
    <glyph glyph-name="obreve" unicode="&#x14f;" horiz-adv-x="618" 
d="M309 510q68 0 119 -25t78 -66t39.5 -83.5t12.5 -85.5q0 -44 -12.5 -86.5t-39.5 -83t-78 -65t-119 -24.5t-119 24.5t-78 65t-39.5 83t-12.5 86.5q0 43 12.5 85.5t39.5 83.5t78 66t119 25zM309 130q30 0 51 14t30 35.5t12.5 38.5t3.5 32q0 22 -5.5 46t-29 49.5t-62.5 25.5
t-63 -25.5t-29.5 -49.5t-5.5 -46q0 -15 3.5 -32t13 -38.5t30.5 -35.5t51 -14zM375 752l76 -23q17 -6 12 -22q-19 -60 -61 -89.5t-94 -29.5q-53 0 -94 29.5t-60 90.5q-5 16 12 22l74 21q15 5 22 -12q12 -37 46 -37q31 0 45 38q6 17 22 12z" />
    <glyph glyph-name="Ohungarumlaut" unicode="&#x150;" horiz-adv-x="815" 
d="M408 712q76 0 137.5 -24t99.5 -61t63.5 -86t36 -96t10.5 -94q0 -48 -10.5 -95.5t-36 -96.5t-63.5 -86t-99.5 -60.5t-137.5 -23.5t-137.5 23.5t-100 60.5t-64 86t-36 96.5t-10.5 95.5q0 47 10.5 94t36 96t63.5 86t100 61t138 24zM408 139q46 0 81 17.5t53.5 42t30.5 56
t15.5 54.5t3.5 42t-3.5 42t-15.5 54t-30.5 55.5t-53.5 41.5t-81 17t-81 -17t-54 -41.5t-31 -55.5t-15.5 -54t-3.5 -42q0 -20 3.5 -42.5t15.5 -54t31 -56t54 -42t81 -17.5zM618 944l-54 -132q-7 -17 -25 -17h-71q-7 0 -11 5.5t-2 11.5l41 132q5 17 23 17h88q7 0 10 -5.5
t1 -11.5zM420 944l-55 -132q-7 -17 -25 -17h-70q-7 0 -11 5.5t-2 11.5l41 132q5 17 23 17h88q7 0 10 -5.5t1 -11.5z" />
    <glyph glyph-name="ohungarumlaut" unicode="&#x151;" horiz-adv-x="618" 
d="M309 510q68 0 119 -25t78 -66t39.5 -83.5t12.5 -85.5q0 -44 -12.5 -86.5t-39.5 -83t-78 -65t-119 -24.5t-119 24.5t-78 65t-39.5 83t-12.5 86.5q0 43 12.5 85.5t39.5 83.5t78 66t119 25zM309 130q30 0 51 14t30 35.5t12.5 38.5t3.5 32q0 22 -5.5 46t-29 49.5t-62.5 25.5
t-63 -25.5t-29.5 -49.5t-5.5 -46q0 -15 3.5 -32t13 -38.5t30.5 -35.5t51 -14zM520 744l-54 -132q-7 -17 -25 -17h-71q-7 0 -11 5.5t-2 11.5l41 132q5 17 23 17h88q7 0 10 -5.5t1 -11.5zM322 744l-55 -132q-7 -17 -25 -17h-70q-7 0 -11 5.5t-2 11.5l41 132q5 17 23 17h88
q7 0 10 -5.5t1 -11.5z" />
    <glyph glyph-name="OE" unicode="&#x152;" horiz-adv-x="1040" 
d="M891 271h-235v-122h306q8 0 13 -5.5t5 -12.5v-113q0 -8 -5 -13t-13 -5h-455q-47 -11 -99 -11q-76 0 -137.5 23.5t-100 60.5t-64 86t-36 96.5t-10.5 95.5q0 47 10.5 94t36 96t63.5 86t100 61t138 24q49 0 100 -12h454q8 0 13 -5t5 -13v-113q0 -7 -5 -12.5t-13 -5.5h-306
v-131h235q7 0 12.5 -5t5.5 -13v-113q0 -7 -5.5 -12.5t-12.5 -5.5zM408 139q48 0 88 20v381q-39 21 -88 21q-46 0 -81 -17t-54 -41.5t-31 -55.5t-15.5 -54t-3.5 -42q0 -20 3.5 -42.5t15.5 -54t31 -56t54 -42t81 -17.5z" />
    <glyph glyph-name="oe" unicode="&#x153;" horiz-adv-x="911" 
d="M866 290q0 -17 -4 -55q-3 -18 -21 -18h-274q8 -36 31 -59t59 -23q56 0 105 30q6 4 13.5 2.5t11.5 -7.5l52 -76q10 -15 -4 -26q-82 -64 -178 -64q-108 0 -173 62q-65 -65 -175 -65q-68 0 -119 24.5t-78 65t-39.5 83t-12.5 86.5q0 43 12.5 85.5t39.5 83.5t78 66t119 25
q110 0 174 -66q66 63 174 63q99 0 154 -58.5t55 -158.5zM309 130q30 0 51 14t30 35.5t12.5 38.5t3.5 32q0 22 -5.5 46t-29 49.5t-62.5 25.5t-63 -25.5t-29.5 -49.5t-5.5 -46q0 -15 3.5 -32t13 -38.5t30.5 -35.5t51 -14zM571 304h143q-6 63 -57 64q-68 0 -86 -64z" />
    <glyph glyph-name="Racute" unicode="&#x154;" horiz-adv-x="681" 
d="M443 889l-150 -93q-6 -4 -13.5 -2t-11.5 8l-36 52q-11 15 4 26l138 107q5 5 12.5 3.5t11.5 -7.5l50 -69q9 -14 -5 -25zM621 469q0 -71 -35 -124.5t-94 -82.5l115 -246q3 -5 -0.5 -10.5t-9.5 -5.5h-139q-18 0 -26 16l-102 219h-71v-217q0 -8 -5.5 -13t-12.5 -5h-123
q-8 0 -13 5t-5 13v664q0 8 5 13t13 5h250q56 0 100.5 -15t72.5 -39t46.5 -55t26 -61.5t7.5 -60.5zM377 385q45 1 64.5 28.5t19.5 55.5q0 30 -20 56.5t-68 26.5h-114v-167h118z" />
    <glyph glyph-name="racute" unicode="&#x155;" horiz-adv-x="426" 
d="M401 478l-34 -106q-6 -17 -22 -13q-23 5 -42 5q-47 0 -71 -31v-315q0 -8 -5 -13t-13 -5h-116q-8 0 -13 5t-5 13v464q0 8 5 13t13 5h63q18 0 26 -16l8 -15q45 37 118 37q28 0 75 -7q7 -1 11 -7.5t2 -13.5zM109 680l138 107q5 5 12.5 3.5t11.5 -7.5l50 -69q9 -14 -5 -25
l-150 -93q-6 -4 -13.5 -2t-11.5 8l-36 52q-11 15 4 26z" />
    <glyph glyph-name="Rcommaaccent" unicode="&#x156;" horiz-adv-x="681" 
d="M337 -71q40 0 60.5 -24.5t20.5 -58.5q0 -64 -76 -185q-10 -15 -27 -8l-31 14q-15 7 -8 23q7 18 19 52.5t13 36.5q-46 19 -46 73q0 31 22 54t53 23zM621 469q0 -71 -35 -124.5t-94 -82.5l115 -246q3 -5 -0.5 -10.5t-9.5 -5.5h-139q-18 0 -26 16l-102 219h-71v-217
q0 -8 -5.5 -13t-12.5 -5h-123q-8 0 -13 5t-5 13v664q0 8 5 13t13 5h250q56 0 100.5 -15t72.5 -39t46.5 -55t26 -61.5t7.5 -60.5zM377 385q45 1 64.5 28.5t19.5 55.5q0 30 -20 56.5t-68 26.5h-114v-167h118z" />
    <glyph glyph-name="rcommaaccent" unicode="&#x157;" horiz-adv-x="426" 
d="M401 478l-34 -106q-6 -17 -22 -13q-23 5 -42 5q-47 0 -71 -31v-315q0 -8 -5 -13t-13 -5h-116q-8 0 -13 5t-5 13v464q0 8 5 13t13 5h63q18 0 26 -16l8 -15q45 37 118 37q28 0 75 -7q7 -1 11 -7.5t2 -13.5zM131 -347l-31 14q-15 7 -8 23q7 18 19 52.5t13 36.5
q-46 19 -46 73q0 31 22 54t53 23q40 0 60.5 -24.5t20.5 -58.5q0 -64 -76 -185q-10 -15 -27 -8z" />
    <glyph glyph-name="Rcaron" unicode="&#x158;" horiz-adv-x="681" 
d="M443 904l-138 -107q-14 -11 -28 0l-138 107q-14 11 -4 26l36 52q4 6 11.5 7.5t13.5 -2.5l95 -58l95 58q14 10 25 -5l36 -52q10 -15 -4 -26zM621 469q0 -71 -35 -124.5t-94 -82.5l115 -246q3 -5 -0.5 -10.5t-9.5 -5.5h-139q-18 0 -26 16l-102 219h-71v-217q0 -8 -5.5 -13
t-12.5 -5h-123q-8 0 -13 5t-5 13v664q0 8 5 13t13 5h250q56 0 100.5 -15t72.5 -39t46.5 -55t26 -61.5t7.5 -60.5zM377 385q45 1 64.5 28.5t19.5 55.5q0 30 -20 56.5t-68 26.5h-114v-167h118z" />
    <glyph glyph-name="rcaron" unicode="&#x159;" horiz-adv-x="426" 
d="M401 478l-34 -106q-6 -17 -22 -13q-23 5 -42 5q-47 0 -71 -31v-315q0 -8 -5 -13t-13 -5h-116q-8 0 -13 5t-5 13v464q0 8 5 13t13 5h63q18 0 26 -16l8 -15q45 37 118 37q28 0 75 -7q7 -1 11 -7.5t2 -13.5zM371 704l-138 -107q-14 -11 -28 0l-138 107q-14 11 -4 26l36 52
q4 6 11.5 7.5t13.5 -2.5l95 -58l95 58q14 10 25 -5l36 -52q10 -15 -4 -26z" />
    <glyph glyph-name="Sacute" unicode="&#x15a;" horiz-adv-x="656" 
d="M392 419q44 -15 74 -30t63 -39t50 -59.5t17 -81.5q0 -93 -73 -155t-186 -62q-130 0 -261 68q-16 7 -8 24l55 102q7 16 24 8q115 -52 184 -52q40 0 68 17t28 43q0 30 -29.5 47t-90.5 37q-32 10 -45.5 15t-43 17t-44.5 21.5t-36.5 27t-32 35.5t-18.5 44t-8 56
q0 97 64.5 153t166.5 56q123 0 253 -60q16 -9 9 -25l-45 -103q-7 -16 -24 -9q-127 46 -183 46q-35 0 -58 -12t-22 -39q1 -7 3.5 -13.5t8.5 -12t11.5 -10.5t16 -10t18 -9t21.5 -9t22.5 -8t25 -9t25.5 -9zM431 889l-150 -93q-6 -4 -13.5 -2t-11.5 8l-36 52q-11 15 4 26
l138 107q5 5 12.5 3.5t11.5 -7.5l50 -69q9 -14 -5 -25z" />
    <glyph glyph-name="sacute" unicode="&#x15b;" horiz-adv-x="519" 
d="M335 301q57 -22 90.5 -55t33.5 -96q0 -70 -54 -114t-137 -44q-97 0 -192 54q-15 9 -8 25l46 88q7 16 24 8q77 -36 125 -36q41 0 41 20q0 4 -1 7t-4.5 5.5t-7 4.5t-10 4t-12 3.5t-15.5 4.5t-17 5q-32 10 -54.5 19.5t-49.5 28t-41.5 47.5t-14.5 68q0 74 48 117t126 43
q86 0 184 -44q16 -7 9 -25l-40 -89q-7 -16 -24 -9q-83 32 -124 32q-28 0 -28 -18q0 -6 5.5 -11.5t17 -11t22.5 -9.5t30.5 -10.5t31.5 -11.5zM362 689l-150 -93q-6 -4 -13.5 -2t-11.5 8l-36 52q-11 15 4 26l138 107q5 5 12.5 3.5t11.5 -7.5l50 -69q9 -14 -5 -25z" />
    <glyph glyph-name="Scircumflex" unicode="&#x15c;" horiz-adv-x="656" 
d="M328 854l-95 -59q-6 -4 -13.5 -2t-11.5 8l-36 52q-11 15 4 26l138 107q14 10 28 0l138 -107q15 -11 4 -26l-36 -52q-11 -15 -25 -6zM392 419q44 -15 74 -30t63 -39t50 -59.5t17 -81.5q0 -93 -73 -155t-186 -62q-130 0 -261 68q-16 7 -8 24l55 102q7 16 24 8
q115 -52 184 -52q40 0 68 17t28 43q0 30 -29.5 47t-90.5 37q-32 10 -45.5 15t-43 17t-44.5 21.5t-36.5 27t-32 35.5t-18.5 44t-8 56q0 97 64.5 153t166.5 56q123 0 253 -60q16 -9 9 -25l-45 -103q-7 -16 -24 -9q-127 46 -183 46q-35 0 -58 -12t-22 -39q1 -7 3.5 -13.5
t8.5 -12t11.5 -10.5t16 -10t18 -9t21.5 -9t22.5 -8t25 -9t25.5 -9z" />
    <glyph glyph-name="scircumflex" unicode="&#x15d;" horiz-adv-x="519" 
d="M260 654l-95 -59q-6 -4 -13.5 -2t-11.5 8l-36 52q-11 15 4 26l138 107q14 10 28 0l138 -107q15 -11 4 -26l-36 -52q-11 -15 -25 -6zM335 301q57 -22 90.5 -55t33.5 -96q0 -70 -54 -114t-137 -44q-97 0 -192 54q-15 9 -8 25l46 88q7 16 24 8q77 -36 125 -36q41 0 41 20
q0 4 -1 7t-4.5 5.5t-7 4.5t-10 4t-12 3.5t-15.5 4.5t-17 5q-32 10 -54.5 19.5t-49.5 28t-41.5 47.5t-14.5 68q0 74 48 117t126 43q86 0 184 -44q16 -7 9 -25l-40 -89q-7 -16 -24 -9q-83 32 -124 32q-28 0 -28 -18q0 -6 5.5 -11.5t17 -11t22.5 -9.5t30.5 -10.5t31.5 -11.5z
" />
    <glyph glyph-name="Scedilla" unicode="&#x15e;" horiz-adv-x="646" 
d="M586 193q0 -81 -65.5 -137.5t-165.5 -62.5v-21q49 -1 72.5 -30.5t23.5 -60.5q0 -53 -34 -81t-83 -28q-47 0 -90 19q-16 7 -9 24l16 34q6 14 24 9q28 -10 49 -10q14 0 25 10t12 23q1 14 -11.5 23.5t-38.5 9.5h-17q-9 0 -15 6q-6 8 -6 16v59q-98 8 -197 60q-16 7 -8 24
l43 85q7 16 24 8q109 -49 189 -49q48 0 82 19.5t34 51.5q0 18 -8.5 33t-19 24.5t-34 19.5t-37 14.5t-45.5 14.5q-9 3 -13 4q-38 11 -60.5 19.5t-54 25.5t-49 36.5t-30.5 51t-13 70.5q0 94 63 149t164 55q110 0 238 -57q17 -7 10 -23l-40 -89q-7 -16 -24 -9q-112 43 -162 43
q-49 0 -77 -13.5t-30 -50.5q1 -18 10.5 -31t32 -23.5t39 -16.5t52.5 -16q42 -12 66 -20.5t60.5 -28t56.5 -41.5t35.5 -59t15.5 -83z" />
    <glyph glyph-name="scedilla" unicode="&#x15f;" horiz-adv-x="512" 
d="M247 -86h-17q-9 0 -15 6q-6 8 -6 16v60q-64 8 -134 48q-14 9 -7 25l38 74q7 16 24 8q79 -38 129 -38q23 0 39 8.5t16 22.5q0 20 -20.5 31t-62.5 23q-35 11 -55.5 19.5t-47 26t-39.5 45t-13 64.5q0 72 46.5 113.5t123.5 41.5q81 0 178 -44q17 -8 8 -24l-36 -79
q-6 -15 -23 -9q-73 32 -111 32q-55 0 -55 -27q0 -19 74 -42q31 -10 47.5 -16t44 -21t42 -31t26 -42.5t11.5 -59.5q0 -62 -44.5 -103t-116.5 -48v-22q49 -1 72.5 -30.5t23.5 -60.5q0 -53 -34 -81t-83 -28q-47 0 -90 19q-16 7 -9 24l16 34q6 14 24 9q28 -10 49 -10q14 0 25 10
t12 23q1 14 -11.5 23.5t-38.5 9.5z" />
    <glyph glyph-name="Scaron" unicode="&#x160;" horiz-adv-x="656" 
d="M475 900l-133 -103q-14 -11 -28 0l-133 103q-13 10 -4 26l32 44q4 6 11.5 8t13.5 -2l94 -58l94 58q14 9 25 -6l32 -44q9 -16 -4 -26zM392 419q44 -15 74 -30t63 -39t50 -59.5t17 -81.5q0 -93 -73 -155t-186 -62q-130 0 -261 68q-16 7 -8 24l55 102q7 16 24 8
q115 -52 184 -52q40 0 68 17t28 43q0 30 -29.5 47t-90.5 37q-32 10 -45.5 15t-43 17t-44.5 21.5t-36.5 27t-32 35.5t-18.5 44t-8 56q0 97 64.5 153t166.5 56q123 0 253 -60q16 -9 9 -25l-45 -103q-7 -16 -24 -9q-127 46 -183 46q-35 0 -58 -12t-22 -39q1 -7 3.5 -13.5
t8.5 -12t11.5 -10.5t16 -10t18 -9t21.5 -9t22.5 -8t25 -9t25.5 -9z" />
    <glyph glyph-name="scaron" unicode="&#x161;" horiz-adv-x="519" 
d="M412 704l-138 -107q-14 -11 -28 0l-138 107q-14 11 -4 26l36 52q4 6 11.5 7.5t13.5 -2.5l95 -58l95 58q14 10 25 -5l36 -52q10 -15 -4 -26zM335 301q57 -22 90.5 -55t33.5 -96q0 -70 -54 -114t-137 -44q-97 0 -192 54q-15 9 -8 25l46 88q7 16 24 8q77 -36 125 -36
q41 0 41 20q0 4 -1 7t-4.5 5.5t-7 4.5t-10 4t-12 3.5t-15.5 4.5t-17 5q-32 10 -54.5 19.5t-49.5 28t-41.5 47.5t-14.5 68q0 74 48 117t126 43q86 0 184 -44q16 -7 9 -25l-40 -89q-7 -16 -24 -9q-83 32 -124 32q-28 0 -28 -18q0 -6 5.5 -11.5t17 -11t22.5 -9.5t30.5 -10.5
t31.5 -11.5z" />
    <glyph glyph-name="Tcommaaccent" unicode="&#x162;" horiz-adv-x="619" 
d="M228 18v533h-165q-7 0 -12.5 5.5t-5.5 12.5v113q0 8 5.5 13t12.5 5h493q8 0 13 -5t5 -13v-113q0 -7 -5 -12.5t-13 -5.5h-167v-533q0 -8 -5.5 -13t-12.5 -5h-125q-8 0 -13 5t-5 13zM284 -347l-31 14q-15 7 -8 23q7 18 19 52.5t13 36.5q-46 19 -46 73q0 31 22 54t53 23
q40 0 60.5 -24.5t20.5 -58.5q0 -64 -76 -185q-10 -15 -27 -8z" />
    <glyph glyph-name="tcommaaccent" unicode="&#x163;" horiz-adv-x="341" 
d="M185 -6q-40 0 -67.5 16t-38.5 41.5t-15 45t-4 38.5v228h-32q-8 0 -13 5.5t-5 12.5v101q0 8 5 13t13 5h32l8 80q2 18 20 18h106q8 0 13 -5t5 -13v-80h72q8 0 13 -5t5 -13v-101q0 -7 -5 -12.5t-13 -5.5h-72v-203q0 -14 7.5 -21t15.5 -7q20 0 52 7q7 2 13.5 -2t7.5 -11
l19 -88q4 -17 -13 -23q-84 -21 -129 -21zM167 -71q40 0 60.5 -24.5t20.5 -58.5q0 -64 -76 -185q-10 -15 -27 -8l-31 14q-15 7 -8 23q7 18 19 52.5t13 36.5q-46 19 -46 73q0 31 22 54t53 23z" />
    <glyph glyph-name="Tcaron" unicode="&#x164;" horiz-adv-x="619" 
d="M228 18v533h-165q-7 0 -12.5 5.5t-5.5 12.5v113q0 8 5.5 13t12.5 5h493q8 0 13 -5t5 -13v-113q0 -7 -5 -12.5t-13 -5.5h-167v-533q0 -8 -5.5 -13t-12.5 -5h-125q-8 0 -13 5t-5 13zM461 904l-138 -107q-14 -11 -28 0l-138 107q-14 11 -4 26l36 52q4 6 11.5 7.5t13.5 -2.5
l95 -58l95 58q14 10 25 -5l36 -52q10 -15 -4 -26z" />
    <glyph glyph-name="tcaron" unicode="&#x165;" horiz-adv-x="541" 
d="M235 132q20 0 52 7q7 2 13.5 -2t7.5 -11l19 -88q4 -17 -13 -23q-84 -21 -129 -21q-40 0 -67.5 16t-38.5 41.5t-15 45t-4 38.5v228h-32q-8 0 -13 5.5t-5 12.5v101q0 8 5 13t13 5h32l8 80q2 18 20 18h106q8 0 13 -5t5 -13v-80h72q8 0 13 -5t5 -13v-101q0 -7 -5 -12.5
t-13 -5.5h-72v-203q0 -14 7.5 -21t15.5 -7zM448 704q48 0 70 -27.5t22 -67.5q0 -43 -32 -112.5t-67 -115.5q-11 -14 -27 -5l-35 20q-16 9 -7 25q42 79 48 116q-25 5 -42 27.5t-17 52.5q0 36 26 61.5t61 25.5z" />
    <glyph glyph-name="Tbar" unicode="&#x166;" horiz-adv-x="619" 
d="M228 18v265h-67q-7 0 -12.5 5.5t-5.5 12.5v73q0 8 5.5 13t12.5 5h67v159h-165q-7 0 -12.5 5.5t-5.5 12.5v113q0 8 5.5 13t12.5 5h493q8 0 13 -5t5 -13v-113q0 -7 -5 -12.5t-13 -5.5h-166v-159h66q8 0 13 -5t5 -13v-73q0 -7 -5 -12.5t-13 -5.5h-66v-265q0 -8 -5 -13
t-13 -5h-126q-8 0 -13 5t-5 13z" />
    <glyph glyph-name="tbar" unicode="&#x167;" horiz-adv-x="341" 
d="M26 310h34v71h-32q-8 0 -13 5.5t-5 12.5v83q0 8 5 13t13 5h32l8 80q2 18 20 18h106q8 0 13 -5t5 -13v-80h72q8 0 13 -5t5 -13v-83q0 -7 -5 -12.5t-13 -5.5h-72v-71h71q7 0 12.5 -5t5.5 -13v-68q0 -8 -5.5 -13t-12.5 -5h-71v-46q0 -14 7.5 -21t15.5 -7q20 0 52 7
q7 2 13.5 -2t7.5 -11l19 -88q4 -17 -13 -23q-84 -21 -129 -21q-40 0 -67.5 16t-38.5 41.5t-15 45t-4 38.5v71h-34q-8 0 -13 5t-5 13v68q0 8 5 13t13 5z" />
    <glyph glyph-name="Utilde" unicode="&#x168;" horiz-adv-x="740" 
d="M507 700h125q8 0 13 -5t5 -13v-407q0 -48 -15 -95t-46 -90t-88 -70t-131 -27t-131 27t-88 70t-46 90t-15 95v407q0 8 5 13t13 5h124q8 0 13 -5t5 -13v-407q0 -24 9 -52t38.5 -55t72.5 -27q33 0 58 15.5t37.5 38.5t18 43t5.5 37v407q0 8 5.5 13t12.5 5zM319 824
q-25 0 -44 -21q-11 -15 -25 -6l-51 31q-15 11 -7 26q47 84 120 84q20 0 55 -16.5t56 -16.5q23 0 41 21q11 15 25 5l51 -31q16 -10 7 -25q-46 -85 -122 -85q-21 0 -54 17t-52 17z" />
    <glyph glyph-name="utilde" unicode="&#x169;" 
d="M355 164v318q0 8 5.5 13t12.5 5h116q7 0 12.5 -5t5.5 -13v-464q0 -8 -5.5 -13t-12.5 -5h-63q-17 0 -27 16l-8 15q-48 -39 -115 -39q-55 0 -96 15.5t-63.5 38.5t-35.5 58t-17 66.5t-4 71.5v240q0 8 5 13t13 5h118q8 0 13 -5t5 -13v-240q0 -23 1.5 -37.5t7.5 -34
t20.5 -29.5t37.5 -10q50 0 74 33zM174 597l-51 31q-15 11 -7 26q47 84 120 84q20 0 55 -16.5t56 -16.5q23 0 41 21q11 15 25 5l51 -31q16 -10 7 -25q-46 -85 -122 -85q-21 0 -54 17t-52 17q-25 0 -44 -21q-11 -15 -25 -6z" />
    <glyph glyph-name="Umacron" unicode="&#x16a;" horiz-adv-x="740" 
d="M507 700h125q8 0 13 -5t5 -13v-407q0 -48 -15 -95t-46 -90t-88 -70t-131 -27t-131 27t-88 70t-46 90t-15 95v407q0 8 5 13t13 5h124q8 0 13 -5t5 -13v-407q0 -24 9 -52t38.5 -55t72.5 -27q33 0 58 15.5t37.5 38.5t18 43t5.5 37v407q0 8 5.5 13t12.5 5zM520 887v-72
q0 -7 -5 -12.5t-13 -5.5h-265q-7 0 -12.5 5.5t-5.5 12.5v72q0 7 5.5 12.5t12.5 5.5h265q8 0 13 -5.5t5 -12.5z" />
    <glyph glyph-name="umacron" unicode="&#x16b;" 
d="M430 687v-72q0 -7 -5 -12.5t-13 -5.5h-265q-7 0 -12.5 5.5t-5.5 12.5v72q0 7 5.5 12.5t12.5 5.5h265q8 0 13 -5.5t5 -12.5zM373 500h116q7 0 12.5 -5t5.5 -13v-464q0 -8 -5.5 -13t-12.5 -5h-63q-17 0 -27 16l-8 15q-48 -39 -115 -39q-55 0 -96 15.5t-63.5 38.5t-35.5 58
t-17 66.5t-4 71.5v240q0 8 5 13t13 5h118q8 0 13 -5t5 -13v-240q0 -23 1.5 -37.5t7.5 -34t20.5 -29.5t37.5 -10q50 0 74 33v318q0 8 5.5 13t12.5 5z" />
    <glyph glyph-name="Ubreve" unicode="&#x16c;" horiz-adv-x="740" 
d="M369 788q-53 0 -94 29.5t-60 90.5q-5 16 12 22l74 21q15 5 22 -12q12 -37 46 -37q31 0 45 38q6 17 22 12l76 -23q17 -6 12 -22q-19 -60 -61 -89.5t-94 -29.5zM507 700h125q8 0 13 -5t5 -13v-407q0 -48 -15 -95t-46 -90t-88 -70t-131 -27t-131 27t-88 70t-46 90t-15 95
v407q0 8 5 13t13 5h124q8 0 13 -5t5 -13v-407q0 -24 9 -52t38.5 -55t72.5 -27q33 0 58 15.5t37.5 38.5t18 43t5.5 37v407q0 8 5.5 13t12.5 5z" />
    <glyph glyph-name="ubreve" unicode="&#x16d;" 
d="M293 588q-53 0 -94 29.5t-60 90.5q-5 16 12 22l74 21q15 5 22 -12q12 -37 46 -37q31 0 45 38q6 17 22 12l76 -23q17 -6 12 -22q-19 -60 -61 -89.5t-94 -29.5zM373 500h116q7 0 12.5 -5t5.5 -13v-464q0 -8 -5.5 -13t-12.5 -5h-63q-17 0 -27 16l-8 15q-48 -39 -115 -39
q-55 0 -96 15.5t-63.5 38.5t-35.5 58t-17 66.5t-4 71.5v240q0 8 5 13t13 5h118q8 0 13 -5t5 -13v-240q0 -23 1.5 -37.5t7.5 -34t20.5 -29.5t37.5 -10q50 0 74 33v318q0 8 5.5 13t12.5 5z" />
    <glyph glyph-name="Uring" unicode="&#x16e;" horiz-adv-x="740" 
d="M264 888q0 44 31 75t75 31q43 0 74 -31t31 -75t-30.5 -74.5t-74.5 -30.5t-75 31t-31 74zM340 888q0 -11 9 -20t21 -9q11 0 20 9t9 20q0 12 -9 21t-20 9q-12 0 -21 -9t-9 -21zM507 700h125q8 0 13 -5t5 -13v-407q0 -48 -15 -95t-46 -90t-88 -70t-131 -27t-131 27t-88 70
t-46 90t-15 95v407q0 8 5 13t13 5h124q8 0 13 -5t5 -13v-407q0 -24 9 -52t38.5 -55t72.5 -27q33 0 58 15.5t37.5 38.5t18 43t5.5 37v407q0 8 5.5 13t12.5 5z" />
    <glyph glyph-name="uring" unicode="&#x16f;" 
d="M373 500h116q7 0 12.5 -5t5.5 -13v-464q0 -8 -5.5 -13t-12.5 -5h-63q-17 0 -27 16l-8 15q-48 -39 -115 -39q-55 0 -96 15.5t-63.5 38.5t-35.5 58t-17 66.5t-4 71.5v240q0 8 5 13t13 5h118q8 0 13 -5t5 -13v-240q0 -23 1.5 -37.5t7.5 -34t20.5 -29.5t37.5 -10q50 0 74 33
v318q0 8 5.5 13t12.5 5zM281 583q-44 0 -75 31t-31 74q0 44 31.5 75t74.5 31t74 -31t31 -75t-31 -74.5t-74 -30.5zM281 718q-12 0 -21 -9t-9 -21q0 -11 9 -20t21 -9q11 0 20 9t9 20q0 12 -9 21t-20 9z" />
    <glyph glyph-name="Uhungarumlaut" unicode="&#x170;" horiz-adv-x="740" 
d="M507 700h125q8 0 13 -5t5 -13v-407q0 -48 -15 -95t-46 -90t-88 -70t-131 -27t-131 27t-88 70t-46 90t-15 95v407q0 8 5 13t13 5h124q8 0 13 -5t5 -13v-407q0 -24 9 -52t38.5 -55t72.5 -27q33 0 58 15.5t37.5 38.5t18 43t5.5 37v407q0 8 5.5 13t12.5 5zM572 944l-54 -132
q-7 -17 -25 -17h-71q-7 0 -11 5.5t-2 11.5l41 132q5 17 23 17h88q7 0 10 -5.5t1 -11.5zM374 944l-55 -132q-7 -17 -25 -17h-70q-7 0 -11 5.5t-2 11.5l41 132q5 17 23 17h88q7 0 10 -5.5t1 -11.5z" />
    <glyph glyph-name="uhungarumlaut" unicode="&#x171;" 
d="M355 164v318q0 8 5.5 13t12.5 5h116q7 0 12.5 -5t5.5 -13v-464q0 -8 -5.5 -13t-12.5 -5h-63q-17 0 -27 16l-8 15q-48 -39 -115 -39q-55 0 -96 15.5t-63.5 38.5t-35.5 58t-17 66.5t-4 71.5v240q0 8 5 13t13 5h118q8 0 13 -5t5 -13v-240q0 -23 1.5 -37.5t7.5 -34
t20.5 -29.5t37.5 -10q50 0 74 33zM473 744l-54 -132q-7 -17 -25 -17h-71q-7 0 -11 5.5t-2 11.5l41 132q5 17 23 17h88q7 0 10 -5.5t1 -11.5zM275 744l-55 -132q-7 -17 -25 -17h-70q-7 0 -11 5.5t-2 11.5l41 132q5 17 23 17h88q7 0 10 -5.5t1 -11.5z" />
    <glyph glyph-name="Uogonek" unicode="&#x172;" horiz-adv-x="740" 
d="M501 20v-23q0 -10 -15.5 -39.5t-15.5 -50.5q0 -35 48 -35q25 0 65 10q6 2 11.5 -1.5t5.5 -10.5v-54q0 -19 -17 -24q-48 -16 -108 -16q-50 0 -84 27.5t-34 79.5q0 29 21 68t22 43q-10 -1 -30 -1q-74 0 -131 27t-88 70t-46 90t-15 95v407q0 8 5 13t13 5h124q8 0 13 -5
t5 -13v-407q0 -24 9 -52t38.5 -55t72.5 -27q33 0 58 15.5t37.5 38.5t18 43t5.5 37v407q0 8 5.5 13t12.5 5h125q8 0 13 -5t5 -13v-407q0 -76 -37 -147.5t-112 -107.5z" />
    <glyph glyph-name="uogonek" unicode="&#x173;" 
d="M355 164v318q0 8 5.5 13t12.5 5h116q7 0 12.5 -5t5.5 -13v-485q0 -10 -15.5 -39.5t-15.5 -50.5q0 -35 48 -35q25 0 65 10q6 2 11.5 -1.5t5.5 -10.5v-54q0 -19 -17 -24q-48 -16 -108 -16q-50 0 -84 27.5t-34 79.5q0 30 22.5 69.5t22.5 47.5l-17 31q-48 -39 -115 -39
q-55 0 -96 15.5t-63.5 38.5t-35.5 58t-17 66.5t-4 71.5v240q0 8 5 13t13 5h118q8 0 13 -5t5 -13v-240q0 -23 1.5 -37.5t7.5 -34t20.5 -29.5t37.5 -10q50 0 74 33z" />
    <glyph glyph-name="Wcircumflex" unicode="&#x174;" horiz-adv-x="1094" 
d="M725 323l153 360q7 17 25 17h143q6 0 9.5 -5.5t0.5 -10.5l-309 -679q-7 -13 -20 -13t-20 13l-160 361l-160 -361q-7 -13 -20 -13t-20 13l-310 679q-2 5 1.5 10.5t9.5 5.5h143q18 0 25 -17l153 -360l156 371q5 15 22 15q15 0 22 -15zM565 986l138 -107q15 -11 4 -26
l-36 -52q-11 -15 -25 -6l-95 59l-95 -59q-6 -4 -13.5 -2t-11.5 8l-36 52q-11 15 4 26l138 107q14 10 28 0z" />
    <glyph glyph-name="wcircumflex" unicode="&#x175;" horiz-adv-x="832" 
d="M416 506q10 0 14 -9l111 -244l92 230q7 17 25 17h126q6 0 9.5 -5.5t0.5 -10.5l-227 -485q-5 -10 -16 -10t-16 10l-119 212l-119 -212q-5 -10 -16 -10t-16 10l-227 485q-3 5 0.5 10.5t9.5 5.5h126q18 0 25 -17l92 -230l111 244q4 9 14 9zM431 786l138 -107q15 -11 4 -26
l-36 -52q-11 -15 -25 -6l-95 59l-95 -59q-6 -4 -13.5 -2t-11.5 8l-36 52q-11 15 4 26l138 107q14 10 28 0z" />
    <glyph glyph-name="Ycircumflex" unicode="&#x176;" horiz-adv-x="697" 
d="M428 311v-293q0 -8 -5 -13t-13 -5h-123q-7 0 -12.5 5t-5.5 13v291l-230 376q-3 5 0 10t9 5h141q17 0 27 -15l132 -220l132 220q8 15 27 15h142q6 0 9 -5t0 -10zM362 986l138 -107q15 -11 4 -26l-36 -52q-11 -15 -25 -6l-95 59l-95 -59q-6 -4 -13.5 -2t-11.5 8l-36 52
q-11 15 4 26l138 107q14 10 28 0z" />
    <glyph glyph-name="ycircumflex" unicode="&#x177;" horiz-adv-x="616" 
d="M207 483l96 -262l105 262q7 17 25 17h135q6 0 9.5 -5.5t1.5 -11.5l-284 -665q-6 -17 -25 -17h-127q-7 0 -10 5.5t-1 11.5l92 221l-187 444q-2 6 1 11.5t10 5.5h135q17 0 24 -17zM322 786l138 -107q15 -11 4 -26l-36 -52q-11 -15 -25 -6l-95 59l-95 -59q-6 -4 -13.5 -2
t-11.5 8l-36 52q-11 15 4 26l138 107q14 10 28 0z" />
    <glyph glyph-name="Ydieresis" unicode="&#x178;" horiz-adv-x="697" 
d="M428 311v-293q0 -8 -5 -13t-13 -5h-123q-7 0 -12.5 5t-5.5 13v291l-230 376q-3 5 0 10t9 5h141q17 0 27 -15l132 -220l132 220q8 15 27 15h142q6 0 9 -5t0 -10zM152 887q6 28 28 45.5t51 17.5q34 0 57 -23.5t23 -57.5t-23 -57t-57 -23q-30 0 -51.5 17t-27.5 45
q-4 18 0 36zM386 869q0 34 23.5 57.5t57.5 23.5t57 -23.5t23 -57.5t-23 -57t-57 -23q-35 0 -58 23t-23 57z" />
    <glyph glyph-name="Zacute" unicode="&#x179;" horiz-adv-x="666" 
d="M311 149h271q8 0 13 -5.5t5 -12.5v-113q0 -8 -5 -13t-13 -5h-486q-8 0 -13 5t-5 13v5q0 17 9 34l268 495h-248q-7 0 -12.5 5t-5.5 13v112q0 8 5.5 13t12.5 5h468q7 0 12 -5t5 -12q0 -16 -8 -32zM229 880l138 107q5 5 12.5 3.5t11.5 -7.5l50 -69q9 -14 -5 -25l-150 -93
q-6 -4 -13.5 -2t-11.5 8l-36 52q-11 15 4 26z" />
    <glyph glyph-name="zacute" unicode="&#x17a;" horiz-adv-x="532" 
d="M75 372v110q0 8 5.5 13t12.5 5h368q14 0 14 -14q0 -15 -7 -26l-170 -314h152q8 0 13 -5t5 -13v-110q0 -8 -5 -13t-13 -5h-370q-8 0 -13 5t-5 13q0 17 9 34l165 302h-143q-7 0 -12.5 5t-5.5 13zM162 680l138 107q5 5 12.5 3.5t11.5 -7.5l50 -69q9 -14 -5 -25l-150 -93
q-6 -4 -13.5 -2t-11.5 8l-36 52q-11 15 4 26z" />
    <glyph glyph-name="Zdotaccent" unicode="&#x17b;" horiz-adv-x="666" 
d="M252 868q0 34 23.5 57.5t57.5 23.5t57 -23.5t23 -57.5t-23 -57t-57 -23q-35 0 -58 23t-23 57zM311 149h271q8 0 13 -5.5t5 -12.5v-113q0 -8 -5 -13t-13 -5h-486q-8 0 -13 5t-5 13v5q0 17 9 34l268 495h-248q-7 0 -12.5 5t-5.5 13v112q0 8 5.5 13t12.5 5h468q7 0 12 -5
t5 -12q0 -16 -8 -32z" />
    <glyph glyph-name="zdotaccent" unicode="&#x17c;" horiz-adv-x="532" 
d="M186 668q0 34 23.5 57.5t57.5 23.5t57 -23.5t23 -57.5t-23 -57t-57 -23q-35 0 -58 23t-23 57zM75 372v110q0 8 5.5 13t12.5 5h368q14 0 14 -14q0 -15 -7 -26l-170 -314h152q8 0 13 -5t5 -13v-110q0 -8 -5 -13t-13 -5h-370q-8 0 -13 5t-5 13q0 17 9 34l165 302h-143
q-7 0 -12.5 5t-5.5 13z" />
    <glyph glyph-name="Zcaron" unicode="&#x17d;" horiz-adv-x="666" 
d="M311 149h271q8 0 13 -5.5t5 -12.5v-113q0 -8 -5 -13t-13 -5h-484q-8 0 -13 5t-5 13v9q0 18 9 34l266 491h-248q-7 0 -12.5 5t-5.5 13v112q0 8 5.5 13t12.5 5h472q6 0 10.5 -4.5t4.5 -10.5q0 -14 -7 -28zM485 904l-138 -107q-14 -11 -28 0l-138 107q-14 11 -4 26l36 52
q4 6 11.5 7.5t13.5 -2.5l95 -58l95 58q14 10 25 -5l36 -52q10 -15 -4 -26z" />
    <glyph glyph-name="zcaron" unicode="&#x17e;" horiz-adv-x="532" 
d="M75 372v110q0 8 5.5 13t12.5 5h364q16 0 16 -16t-8 -30l-167 -308h152q8 0 13 -5t5 -13v-110q0 -8 -5 -13t-13 -5h-361q-7 0 -12.5 5t-5.5 13v16q0 17 9 34l156 286h-143q-7 0 -12.5 5t-5.5 13zM418 704l-138 -107q-14 -11 -28 0l-138 107q-14 11 -4 26l36 52
q4 6 11.5 7.5t13.5 -2.5l95 -58l95 58q14 10 25 -5l36 -52q10 -15 -4 -26z" />
    <glyph glyph-name="longs" unicode="&#x17f;" horiz-adv-x="385" 
d="M389 651l-34 -86q-5 -17 -23 -11q-45 16 -81 16q-16 0 -27.5 -9.5t-11.5 -28.5v-514q0 -8 -5 -13t-13 -5h-116q-8 0 -13 5t-5 13v347h-32q-8 0 -13 5.5t-5 12.5v99q0 8 5 13t13 5h32v35q0 85 51.5 129.5t131.5 44.5q58 0 136 -33q15 -8 10 -25z" />
    <glyph glyph-name="florin" unicode="&#x192;" horiz-adv-x="418" 
d="M-84 -165l34 86q5 16 23 11q45 -16 81 -16q16 0 27.5 9.5t11.5 28.5v411h-32q-7 0 -12.5 5.5t-5.5 12.5v99q0 8 5.5 13t12.5 5h32v35q0 85 51.5 129.5t131.5 44.5q58 0 136 -33q15 -8 10 -25l-34 -86q-5 -17 -23 -11q-45 16 -81 16q-16 0 -27.5 -9.5t-11.5 -28.5v-32h71
q8 0 13 -5t5 -13v-99q0 -7 -5 -12.5t-13 -5.5h-71v-414q0 -85 -51.5 -129.5t-131.5 -44.5q-58 0 -136 33q-15 7 -10 25z" />
    <glyph glyph-name="Scommaaccent" unicode="&#x218;" horiz-adv-x="656" 
d="M315 -347l-31 14q-15 7 -8 23q7 18 19 52.5t13 36.5q-46 19 -46 73q0 31 22 54t53 23q40 0 60.5 -24.5t20.5 -58.5q0 -64 -76 -185q-10 -15 -27 -8zM240 509q1 -7 3.5 -13.5t8.5 -12t11.5 -10.5t16 -10t18 -9t21.5 -9t22.5 -8t25 -9t25.5 -9q44 -15 74 -30t63 -39
t50 -59.5t17 -81.5q0 -93 -73 -155t-186 -62q-130 0 -261 68q-16 7 -8 24l55 102q7 16 24 8q115 -52 184 -52q40 0 68 17t28 43q0 30 -29.5 47t-90.5 37q-32 10 -45.5 15t-43 17t-44.5 21.5t-36.5 27t-32 35.5t-18.5 44t-8 56q0 97 64.5 153t166.5 56q123 0 253 -60
q16 -9 9 -25l-45 -103q-7 -16 -24 -9q-127 46 -183 46q-35 0 -58 -12t-22 -39z" />
    <glyph glyph-name="scommaaccent" unicode="&#x219;" horiz-adv-x="519" 
d="M238 370q-10 -6 -10 -15q0 -6 5.5 -11.5t17 -11t22.5 -9.5t30.5 -10.5t31.5 -11.5q57 -22 90.5 -55t33.5 -96q0 -70 -54 -114t-137 -44q-97 0 -192 54q-15 9 -8 25l46 88q7 16 24 8q77 -36 125 -36q41 0 41 20q0 4 -1 7t-4.5 5.5t-7 4.5t-10 4t-12 3.5t-15.5 4.5t-17 5
q-32 10 -54.5 19.5t-49.5 28t-41.5 47.5t-14.5 68q0 74 48 117t126 43q86 0 184 -44q16 -7 9 -25l-40 -89q-7 -16 -24 -9q-65 25 -106 31q-27 2 -36 -2zM234 -347l-31 14q-15 7 -8 23q7 18 19 52.5t13 36.5q-46 19 -46 73q0 31 22 54t53 23q40 0 60.5 -24.5t20.5 -58.5
q0 -64 -76 -185q-10 -15 -27 -8z" />
    <glyph glyph-name="circumflex" unicode="&#x2c6;" horiz-adv-x="518" 
d="M277 786l138 -107q15 -11 4 -26l-36 -52q-11 -15 -25 -6l-95 59l-95 -59q-6 -4 -13.5 -2t-11.5 8l-36 52q-11 15 4 26l138 107q14 10 28 0z" />
    <glyph glyph-name="caron" unicode="&#x2c7;" horiz-adv-x="500" 
d="M415 704l-138 -107q-14 -11 -28 0l-138 107q-14 11 -4 26l36 52q4 6 11.5 7.5t13.5 -2.5l95 -58l95 58q14 10 25 -5l36 -52q10 -15 -4 -26z" />
    <glyph glyph-name="breve" unicode="&#x2d8;" horiz-adv-x="516" 
d="M330 752l76 -23q17 -6 12 -22q-19 -60 -61 -89.5t-94 -29.5q-53 0 -94 29.5t-60 90.5q-5 16 12 22l74 21q15 5 22 -12q12 -37 46 -37q31 0 45 38q6 17 22 12z" />
    <glyph glyph-name="dotaccent" unicode="&#x2d9;" horiz-adv-x="579" 
d="M203 668q0 34 23.5 57.5t57.5 23.5t57 -23.5t23 -57.5t-23 -57t-57 -23q-35 0 -58 23t-23 57z" />
    <glyph glyph-name="ring" unicode="&#x2da;" horiz-adv-x="523" 
d="M156 688q0 44 31 75t75 31q43 0 74 -31t31 -75t-30.5 -74.5t-74.5 -30.5t-75 31t-31 74zM232 688q0 -11 9 -20t21 -9q11 0 20 9t9 20q0 12 -9 21t-20 9q-12 0 -21 -9t-9 -21z" />
    <glyph glyph-name="ogonek" unicode="&#x2db;" horiz-adv-x="611" 
d="M286 49h64q8 0 13 -5.5t5 -12.5v-34q0 -10 -15.5 -39.5t-15.5 -50.5q0 -35 48 -35q25 0 65 10q6 2 11.5 -1.5t5.5 -10.5v-54q0 -19 -17 -24q-48 -16 -108 -16q-50 0 -84 27.5t-34 79.5q0 30 22 69.5t22 47.5v31q0 7 5 12.5t13 5.5z" />
    <glyph glyph-name="tilde" unicode="&#x2dc;" horiz-adv-x="535" 
d="M142 597l-51 31q-15 11 -7 26q47 84 120 84q20 0 55 -16.5t56 -16.5q23 0 41 21q11 15 25 5l51 -31q16 -10 7 -25q-46 -85 -122 -85q-21 0 -54 17t-52 17q-25 0 -44 -21q-11 -15 -25 -6z" />
    <glyph glyph-name="hungarumlaut" unicode="&#x2dd;" horiz-adv-x="530" 
d="M456 744l-54 -132q-7 -17 -25 -17h-71q-7 0 -11 5.5t-2 11.5l41 132q5 17 23 17h88q7 0 10 -5.5t1 -11.5zM258 744l-55 -132q-7 -17 -25 -17h-70q-7 0 -11 5.5t-2 11.5l41 132q5 17 23 17h88q7 0 10 -5.5t1 -11.5z" />
    <glyph glyph-name="Delta" unicode="&#x394;" horiz-adv-x="779" 
d="M396 691l315 -675q3 -5 -0.5 -10.5t-9.5 -5.5h-623q-6 0 -9.5 5.5t-0.5 10.5l312 675q2 5 8 5t8 -5zM290 149h198l-99 242z" />
    <glyph glyph-name="Delta" unicode="&#x2206;" horiz-adv-x="779" 
d="M396 691l315 -675q3 -5 -0.5 -10.5t-9.5 -5.5h-623q-6 0 -9.5 5.5t-0.5 10.5l312 675q2 5 8 5t8 -5zM290 149h198l-99 242z" />
    <glyph glyph-name="Omega" unicode="&#x3a9;" horiz-adv-x="848" 
d="M424 708q77 0 138.5 -23.5t99 -60.5t63 -86t35.5 -95.5t10 -93.5q0 -118 -66 -200h66q8 0 13 -5.5t5 -12.5v-113q0 -8 -5 -13t-13 -5h-269q-7 0 -12.5 5t-5.5 13v98q0 17 16 27q43 27 69.5 71.5t33 76t6.5 58.5q0 26 -7 56t-24.5 67t-57 61.5t-95.5 24.5t-96 -24.5
t-57 -62t-24 -67t-7 -55.5q0 -27 6.5 -58.5t33 -76t69.5 -71.5q16 -10 16 -27v-98q0 -8 -5.5 -13t-12.5 -5h-269q-8 0 -13 5t-5 13v113q0 7 5 12.5t13 5.5h66q-66 82 -66 200q0 47 10 93.5t35.5 95.5t63 86t99 60.5t138.5 23.5z" />
    <glyph glyph-name="Omega" unicode="&#x2126;" horiz-adv-x="848" 
d="M424 708q77 0 138.5 -23.5t99 -60.5t63 -86t35.5 -95.5t10 -93.5q0 -118 -66 -200h66q8 0 13 -5.5t5 -12.5v-113q0 -8 -5 -13t-13 -5h-269q-7 0 -12.5 5t-5.5 13v98q0 17 16 27q43 27 69.5 71.5t33 76t6.5 58.5q0 26 -7 56t-24.5 67t-57 61.5t-95.5 24.5t-96 -24.5
t-57 -62t-24 -67t-7 -55.5q0 -27 6.5 -58.5t33 -76t69.5 -71.5q16 -10 16 -27v-98q0 -8 -5.5 -13t-12.5 -5h-269q-8 0 -13 5t-5 13v113q0 7 5 12.5t13 5.5h66q-66 82 -66 200q0 47 10 93.5t35.5 95.5t63 86t99 60.5t138.5 23.5z" />
    <glyph glyph-name="pi" unicode="&#x3c0;" horiz-adv-x="656" 
d="M460 -7q-33 0 -57.5 11.5t-37 27t-20.5 37t-10 36.5t-2 29v220h-65v-336q0 -8 -5 -13t-13 -5h-117q-7 0 -12.5 5t-5.5 13v336h-47q-8 0 -13 5t-5 13v110q0 8 5 13t13 5h490q8 0 13 -5t5 -13v-110q0 -8 -5 -13t-13 -5h-71v-195q0 -14 7.5 -21t15.5 -7q20 0 52 7
q7 2 13.5 -2t7.5 -11l19 -88q1 -7 -2.5 -14t-10.5 -9q-84 -21 -129 -21z" />
    <glyph glyph-name="endash" unicode="&#x2013;" horiz-adv-x="550" 
d="M453 258h-355q-8 0 -13 5t-5 13v83q0 7 5 12.5t13 5.5h355q7 0 12.5 -5.5t5.5 -12.5v-83q0 -8 -5.5 -13t-12.5 -5z" />
    <glyph glyph-name="emdash" unicode="&#x2014;" horiz-adv-x="672" 
d="M574 258h-476q-8 0 -13 5t-5 13v83q0 7 5 12.5t13 5.5h476q8 0 13 -5.5t5 -12.5v-83q0 -8 -5 -13t-13 -5z" />
    <glyph glyph-name="quoteleft" unicode="&#x2018;" horiz-adv-x="299" 
d="M186 723l35 -20q16 -9 7 -25q-42 -79 -48 -116q25 -5 42 -27.5t17 -52.5q0 -36 -26 -61.5t-61 -25.5q-48 0 -70 27.5t-22 67.5q0 42 31.5 112t67.5 116q11 14 27 5z" />
    <glyph glyph-name="quoteright" unicode="&#x2019;" horiz-adv-x="299" 
d="M113 404l-35 20q-16 9 -7 25q42 79 48 116q-25 5 -42 27.5t-17 52.5q0 36 26 61.5t61 25.5q48 0 70 -27.5t22 -67.5q0 -43 -32 -112.5t-67 -115.5q-11 -14 -27 -5z" />
    <glyph glyph-name="quotesinglbase" unicode="&#x201a;" horiz-adv-x="332" 
d="M134 -160l-38 18q-16 7 -7 24q33 65 47 112q-54 17 -54 78q0 35 23 58.5t58 23.5q46 0 67.5 -26t21.5 -64q0 -41 -29 -105.5t-62 -112.5q-11 -15 -27 -6z" />
    <glyph glyph-name="quotedblleft" unicode="&#x201c;" horiz-adv-x="534" 
d="M186 723l35 -20q16 -9 7 -25q-42 -79 -48 -116q25 -5 42 -27.5t17 -52.5q0 -36 -26 -61.5t-61 -25.5q-48 0 -70 27.5t-22 67.5q0 42 31.5 112t67.5 116q11 14 27 5zM421 723l35 -20q16 -9 7 -25q-42 -79 -48 -116q25 -5 42 -27.5t17 -52.5q0 -36 -26 -61.5t-61 -25.5
q-48 0 -70 27.5t-22 67.5q0 42 31.5 112t67.5 116q11 14 27 5z" />
    <glyph glyph-name="quotedblright" unicode="&#x201d;" horiz-adv-x="534" 
d="M348 404l-35 20q-16 9 -7 25q42 79 48 116q-25 5 -42 27.5t-17 52.5q0 36 26 61.5t61 25.5q48 0 70 -27.5t22 -67.5q0 -43 -32 -112.5t-67 -115.5q-11 -14 -27 -5zM113 404l-35 20q-16 9 -7 25q42 79 48 116q-25 5 -42 27.5t-17 52.5q0 36 26 61.5t61 25.5q48 0 70 -27.5
t22 -67.5q0 -43 -32 -112.5t-67 -115.5q-11 -14 -27 -5z" />
    <glyph glyph-name="quotedblbase" unicode="&#x201e;" horiz-adv-x="544" 
d="M134 -160l-38 18q-16 7 -7 24q33 65 47 112q-54 17 -54 78q0 35 23 58.5t58 23.5q46 0 67.5 -26t21.5 -64q0 -41 -29 -105.5t-62 -112.5q-11 -15 -27 -6zM386 -160l-38 18q-16 7 -7 24q33 65 47 112q-54 17 -54 78q0 35 23 58.5t58 23.5q46 0 67.5 -26t21.5 -64
q0 -41 -29 -105.5t-62 -112.5q-11 -15 -27 -6z" />
    <glyph glyph-name="dagger" unicode="&#x2020;" horiz-adv-x="553" 
d="M347 366v-507q0 -7 -5.5 -12.5t-12.5 -5.5h-106q-7 0 -12.5 5.5t-5.5 12.5v507h-107q-8 0 -13 5t-5 13v98q0 8 5 13t13 5h107v182q0 8 5.5 13t12.5 5h106q7 0 12.5 -5t5.5 -13v-182h108q7 0 12.5 -5t5.5 -13v-98q0 -8 -5.5 -13t-12.5 -5h-108z" />
    <glyph glyph-name="daggerdbl" unicode="&#x2021;" horiz-adv-x="553" 
d="M347 39v-180q0 -7 -5.5 -12.5t-12.5 -5.5h-106q-7 0 -12.5 5.5t-5.5 12.5v180h-107q-8 0 -13 5.5t-5 12.5v98q0 7 5 12.5t13 5.5h107v193h-107q-8 0 -13 5t-5 13v98q0 8 5 13t13 5h107v182q0 8 5.5 13t12.5 5h106q7 0 12.5 -5t5.5 -13v-182h108q7 0 12.5 -5t5.5 -13v-98
q0 -8 -5.5 -13t-12.5 -5h-108v-193h108q7 0 12.5 -5.5t5.5 -12.5v-98q0 -7 -5.5 -12.5t-12.5 -5.5h-108z" />
    <glyph glyph-name="bullet" unicode="&#x2022;" horiz-adv-x="432" 
d="M213 154q-52 0 -92.5 41t-40.5 93q0 55 40.5 97t92.5 42q58 0 98.5 -41.5t40.5 -97.5q0 -53 -40.5 -93.5t-98.5 -40.5z" />
    <glyph glyph-name="ellipsis" unicode="&#x2026;" horiz-adv-x="780" 
d="M80 77q0 35 25 59.5t59 24.5q35 0 59 -24.5t24 -59.5t-24.5 -59t-58.5 -24t-59 24.5t-25 58.5zM326 77q0 35 25 59.5t59 24.5q35 0 59 -24.5t24 -59.5t-24.5 -59t-58.5 -24t-59 24.5t-25 58.5zM573 77q0 35 25 59.5t59 24.5q35 0 59 -24.5t24 -59.5t-24 -59t-59 -24
q-34 0 -59 24.5t-25 58.5z" />
    <glyph glyph-name="perthousand" unicode="&#x2030;" horiz-adv-x="1246" 
d="M346 541q0 -27 -8 -54t-25 -52.5t-49 -41t-75 -15.5q-83 0 -121 50.5t-38 112.5q0 28 8 54.5t25 52.5t49.5 42t76.5 16q43 0 75 -16t49 -42t25 -53t8 -54zM189 494q36 0 36 47q0 48 -36 48q-38 0 -38 -48q0 -47 38 -47zM1059 323q43 0 75 -16t49 -42t25 -53t8 -54t-8 -54
t-25 -52.5t-49 -41t-75 -15.5t-75.5 15.5t-49.5 41t-25 52.5t-8 54q0 28 8 54.5t25 52.5t49.5 42t75.5 16zM1059 111q21 0 29 15.5t8 31.5q0 10 -2 19.5t-11 19t-24 9.5q-22 0 -30 -15.5t-8 -32.5q0 -9 2.5 -18.5t11.5 -19t24 -9.5zM670 323q43 0 75 -16t49 -42t25 -53
t8 -54t-8 -54t-25 -52.5t-49 -41t-75 -15.5t-75.5 15.5t-49.5 41t-25 52.5t-8 54q0 28 8 54.5t25 52.5t49.5 42t75.5 16zM670 111q21 0 29 15.5t8 31.5q0 10 -2 19.5t-11 19t-24 9.5q-22 0 -30 -15.5t-8 -32.5q0 -9 2.5 -18.5t11.5 -19t24 -9.5zM504 700h85q7 0 10.5 -5.5
t1.5 -11.5l-220 -666q-7 -17 -24 -17h-86q-7 0 -10.5 5.5t-1.5 11.5l221 666q7 17 24 17z" />
    <glyph glyph-name="guilsinglleft" unicode="&#x2039;" horiz-adv-x="329" 
d="M187 256l101 -127q11 -14 -3 -26l-52 -45q-13 -12 -26 1l-173 185q-4 6 -4 11q0 6 4 12l173 184q13 13 26 1l52 -45q14 -12 3 -26z" />
    <glyph glyph-name="guilsinglright" unicode="&#x203a;" horiz-adv-x="329" 
d="M41 129l101 127l-101 125q-11 14 3 26l52 45q13 12 26 -1l173 -184q4 -6 4 -12q0 -5 -4 -11l-173 -185q-13 -13 -26 -1l-52 45q-14 12 -3 26z" />
    <glyph glyph-name="fraction" unicode="&#x2044;" horiz-adv-x="67" 
d="M253 684l-333 -668q-8 -16 -26 -16h-66q-6 0 -9.5 5.5t-0.5 10.5l334 668q8 16 26 16h65q6 0 9.5 -5.5t0.5 -10.5z" />
    <glyph glyph-name="zerosuperior" unicode="&#x2070;" horiz-adv-x="328" 
d="M164 803q70 0 102 -52.5t32 -116.5q0 -40 -11 -75t-42.5 -63t-80.5 -28q-48 0 -80 28t-43 63t-11 75q0 39 11 75t43 65t80 29zM164 547q18 0 29.5 18.5t14.5 36t3 32.5q0 16 -3 34t-14.5 36.5t-29.5 18.5t-29.5 -18.5t-14.5 -36.5t-3 -34q0 -11 2 -23.5t6.5 -28
t14.5 -25.5t24 -10z" />
    <glyph glyph-name="foursuperior" unicode="&#x2074;" horiz-adv-x="301" 
d="M235 519v-29q0 -8 -5.5 -13t-12.5 -5h-47q-8 0 -13 5t-5 13v29h-114q-8 0 -13 5.5t-5 12.5v30q0 16 10 33l127 185q10 15 28 15h32q7 0 12.5 -5t5.5 -13v-189h28q7 0 12.5 -5.5t5.5 -12.5v-38q0 -7 -5.5 -12.5t-12.5 -5.5h-28zM152 654l-42 -61h42v61z" />
    <glyph glyph-name="fivesuperior" unicode="&#x2075;" horiz-adv-x="305" 
d="M43 540l31 28q12 10 25 -1q24 -20 54 -20q16 0 26 11t10 24q0 15 -10 24.5t-27 9.5h-70q-8 0 -13 5t-5 13v147q0 7 5 12.5t13 5.5h153q7 0 12.5 -5.5t5.5 -12.5v-37q0 -8 -5.5 -13t-12.5 -5h-84v-39q70 0 97 -31.5t27 -73.5q0 -39 -29.5 -77t-93.5 -38q-63 0 -110 47
q-12 13 1 26z" />
    <glyph glyph-name="sixsuperior" unicode="&#x2076;" horiz-adv-x="300" 
d="M187 792l18 -24q11 -15 -4 -24q-41 -31 -69 -62q9 6 31 6q33 0 56.5 -13t33 -32.5t13 -35t3.5 -28.5q-1 -22 -9.5 -45.5t-37.5 -46t-73 -22.5q-34 0 -59 12.5t-37 31.5t-17.5 36.5t-5.5 33.5q0 133 131 218q15 9 26 -5zM149 546q16 0 25.5 11t9.5 25t-9.5 24t-25.5 10
q-14 0 -24 -9.5t-10 -24.5q0 -14 9 -25t25 -11z" />
    <glyph glyph-name="sevensuperior" unicode="&#x2077;" horiz-adv-x="264" 
d="M20 739v43q0 8 5 13t13 5h179q16 0 16 -16t-6 -31l-104 -263q-7 -17 -25 -17h-53q-7 0 -10.5 5.5t-0.5 11.5l91 231h-87q-8 0 -13 5.5t-5 12.5z" />
    <glyph glyph-name="eightsuperior" unicode="&#x2078;" horiz-adv-x="288" 
d="M258 703q0 -16 -9 -36.5t-27 -31.5q35 -23 35 -72q0 -35 -25.5 -66t-86.5 -31q-62 0 -88.5 30.5t-26.5 67.5q0 19 9.5 40.5t25.5 31.5q-16 8 -25.5 27t-9.5 39q0 34 27 67t88 33t87 -30t26 -69zM145 543q11 0 19.5 7.5t8.5 18.5t-8.5 18.5t-19.5 7.5q-12 0 -21 -7.5
t-9 -18.5t9 -18.5t21 -7.5zM145 673q11 0 19.5 7.5t8.5 18.5q0 12 -8.5 19.5t-19.5 7.5q-12 0 -21 -7.5t-9 -19.5q0 -11 9 -18.5t21 -7.5z" />
    <glyph glyph-name="ninesuperior" unicode="&#x2079;" horiz-adv-x="300" 
d="M113 479l-18 24q-5 5 -3.5 12.5t7.5 11.5q41 31 69 62q-9 -6 -31 -6q-33 0 -56.5 13t-33 32.5t-13 35t-3.5 28.5q1 22 9.5 45.5t37.5 46t73 22.5q34 0 59 -12.5t37 -31.5t17.5 -36.5t5.5 -33.5q0 -133 -131 -218q-15 -9 -26 5zM151 725q-16 0 -25.5 -11t-9.5 -25t9.5 -24
t25.5 -10q14 0 24 9.5t10 24.5q0 14 -9 25t-25 11z" />
    <glyph glyph-name="zeroinferior" unicode="&#x2080;" horiz-adv-x="328" 
d="M164 169q70 0 102 -52.5t32 -116.5q0 -40 -11 -75t-42.5 -63t-80.5 -28q-48 0 -80 28t-43 63t-11 75q0 39 11 75t43 65t80 29zM164 -87q18 0 29.5 18.5t14.5 36t3 32.5q0 16 -3 34t-14.5 36.5t-29.5 18.5t-29.5 -18.5t-14.5 -36.5t-3 -34q0 -11 2 -23.5t6.5 -28
t14.5 -25.5t24 -10z" />
    <glyph glyph-name="oneinferior" unicode="&#x2081;" horiz-adv-x="228" 
d="M183 147v-291q0 -8 -5.5 -13t-12.5 -5h-52q-7 0 -12.5 5t-5.5 13v190l-25 -14q-16 -7 -25 7l-16 26q-10 16 6 25l89 64q16 11 33 11h8q7 0 12.5 -5.5t5.5 -12.5z" />
    <glyph glyph-name="twoinferior" unicode="&#x2082;" horiz-adv-x="305" 
d="M71 63l-28 27q-13 14 -1 26q51 55 114 55q50 0 79.5 -30.5t29.5 -73.5q0 -40 -40 -94l-41 -57l58 -1q8 0 13 -5.5t5 -12.5v-42q0 -7 -5 -12.5t-13 -5.5l-174 1q-7 0 -12 5t-5 12q0 18 10 31l97 137q18 27 18 43q0 8 -6.5 15.5t-17.5 7.5q-22 0 -55 -26q-13 -13 -26 0z
" />
    <glyph glyph-name="threeinferior" unicode="&#x2083;" horiz-adv-x="282" 
d="M252 66q0 -40 -31 -66q31 -24 31 -64q0 -37 -27 -70.5t-89 -33.5q-56 0 -102 37q-15 12 -2 25l25 28q11 11 26 2q23 -15 53 -15q14 0 24.5 7.5t10.5 19.5q0 15 -10 23t-25 8h-37q-7 0 -12.5 5.5t-5.5 12.5v31q0 8 5.5 13t12.5 5h37q14 0 24.5 8.5t10.5 23.5
q0 12 -10.5 19.5t-24.5 7.5q-24 0 -52 -18q-16 -9 -27 4l-23 26q-13 15 1 26q47 39 101 39q62 0 89 -33t27 -71z" />
    <glyph glyph-name="fourinferior" unicode="&#x2084;" horiz-adv-x="301" 
d="M235 -115v-29q0 -8 -5.5 -13t-12.5 -5h-47q-8 0 -13 5t-5 13v29h-114q-8 0 -13 5.5t-5 12.5v30q0 16 10 33l127 185q10 15 28 15h32q7 0 12.5 -5t5.5 -13v-189h28q7 0 12.5 -5.5t5.5 -12.5v-38q0 -7 -5.5 -12.5t-12.5 -5.5h-28zM152 20l-42 -61h42v61z" />
    <glyph glyph-name="fiveinferior" unicode="&#x2085;" horiz-adv-x="305" 
d="M43 -94l31 28q12 10 25 -1q24 -20 54 -20q16 0 26 11t10 24q0 15 -10 24.5t-27 9.5h-70q-8 0 -13 5t-5 13v147q0 7 5 12.5t13 5.5h153q7 0 12.5 -5.5t5.5 -12.5v-37q0 -8 -5.5 -13t-12.5 -5h-84v-39q70 0 97 -31.5t27 -73.5q0 -39 -29.5 -77t-93.5 -38q-63 0 -110 47
q-12 13 1 26z" />
    <glyph glyph-name="sixinferior" unicode="&#x2086;" horiz-adv-x="300" 
d="M187 158l18 -24q11 -15 -4 -24q-41 -31 -69 -62q9 6 31 6q33 0 56.5 -13t33 -32.5t13 -35t3.5 -28.5q-1 -22 -9.5 -45.5t-37.5 -46t-73 -22.5q-34 0 -59 12.5t-37 31.5t-17.5 36.5t-5.5 33.5q0 133 131 218q15 9 26 -5zM149 -88q16 0 25.5 11t9.5 25t-9.5 24t-25.5 10
q-14 0 -24 -9.5t-10 -24.5q0 -14 9 -25t25 -11z" />
    <glyph glyph-name="seveninferior" unicode="&#x2087;" horiz-adv-x="264" 
d="M20 104v43q0 7 5 12.5t13 5.5h182q16 0 16 -16q0 -15 -6 -29l-107 -265q-7 -17 -25 -17h-53q-7 0 -10.5 5.5t-0.5 11.5l94 231h-90q-8 0 -13 5t-5 13z" />
    <glyph glyph-name="eightinferior" unicode="&#x2088;" horiz-adv-x="288" 
d="M258 69q0 -16 -9 -36.5t-27 -31.5q35 -23 35 -72q0 -35 -25.5 -66t-86.5 -31q-62 0 -88.5 30.5t-26.5 67.5q0 19 9.5 40.5t25.5 31.5q-16 8 -25.5 27t-9.5 39q0 34 27 67t88 33t87 -30t26 -69zM145 -91q11 0 19.5 7.5t8.5 18.5t-8.5 18.5t-19.5 7.5q-12 0 -21 -7.5
t-9 -18.5t9 -18.5t21 -7.5zM145 39q11 0 19.5 7.5t8.5 18.5q0 12 -8.5 19.5t-19.5 7.5q-12 0 -21 -7.5t-9 -19.5q0 -11 9 -18.5t21 -7.5z" />
    <glyph glyph-name="nineinferior" unicode="&#x2089;" horiz-adv-x="300" 
d="M113 -155l-18 24q-5 5 -3.5 12.5t7.5 11.5q41 31 69 62q-9 -6 -31 -6q-33 0 -56.5 13t-33 32.5t-13 35t-3.5 28.5q1 22 9.5 45.5t37.5 46t73 22.5q34 0 59 -12.5t37 -31.5t17.5 -36.5t5.5 -33.5q0 -133 -131 -218q-15 -9 -26 5zM151 91q-16 0 -25.5 -11t-9.5 -25t9.5 -24
t25.5 -10q14 0 24 9.5t10 24.5q0 14 -9 25t-25 11z" />
    <glyph glyph-name="Euro" unicode="&#x20ac;" horiz-adv-x="583" 
d="M56 311h22q-1 17 -1 53h-49q-7 0 -11 5.5t-2 11.5l18 61q5 17 23 17h30q9 49 27.5 91t48.5 77t75 55.5t101 20.5q112 0 193 -87q13 -12 -1 -26l-71 -71q-13 -13 -26 -1q-48 44 -95 44q-78 0 -101 -103h167q7 0 11 -5.5t2 -11.5l-17 -61q-5 -17 -23 -17h-147v-2
q0 -33 2 -51h117q7 0 11 -5.5t2 -11.5l-15 -61q-5 -17 -23 -17h-71q30 -82 85 -82q45 0 95 47q13 13 26 0l68 -69q13 -14 1 -26q-88 -93 -190 -93q-96 0 -157 61t-87 162h-66q-7 0 -11 5.5t-2 11.5l18 61q5 17 23 17z" />
    <glyph glyph-name="afii61289" unicode="&#x2113;" horiz-adv-x="454" 
d="M20 303v102q0 7 5 12.5t13 5.5h31v107q0 54 17.5 92.5t45.5 57t54.5 26t52.5 7.5q90 0 137.5 -56.5t47.5 -135.5q0 -90 -58 -154.5t-143 -78.5v-92q0 -63 29 -63q24 0 74 33q14 9 25 -5l52 -82q11 -16 -3 -28q-69 -61 -157 -61q-46 0 -80 15.5t-51 37t-27.5 51t-13 50
t-2.5 42.5v99h-31q-8 0 -13 5.5t-5 12.5zM223 537v-108q24 9 39 33t15 57q0 22 -9.5 38t-22.5 16q-22 0 -22 -36z" />
    <glyph glyph-name="trademark" unicode="&#x2122;" horiz-adv-x="679" 
d="M107 502v168h-44q-7 0 -12.5 5t-5.5 13v50q0 8 5.5 13t12.5 5h179q8 0 13 -5t5 -13v-50q0 -8 -5 -13t-13 -5h-45v-168q0 -8 -5.5 -13t-12.5 -5h-54q-7 0 -12.5 5t-5.5 13zM449 482q-6 0 -9 5l-52 90l-23 -76q-5 -17 -23 -17h-59q-7 0 -10.5 5.5t-1.5 11.5l96 247
q3 7 10 7t10 -6l63 -107l57 106q5 7 11 7q8 0 11 -7l98 -247q2 -6 -1 -11.5t-10 -5.5h-56q-17 0 -24 17l-26 80l-52 -94q-3 -5 -9 -5z" />
    <glyph glyph-name="estimated" unicode="&#x212e;" horiz-adv-x="810" 
d="M624 177l44 -36q14 -10 3 -25q-54 -64 -117.5 -94.5t-149.5 -30.5q-76 0 -137.5 23.5t-99 60t-62.5 85.5t-35 96t-10 95q0 46 10 92t35 94.5t62.5 85.5t99 60.5t137.5 23.5q77 0 138.5 -23.5t99 -60.5t63 -85.5t35.5 -94.5t10 -92v-15q0 -8 -5 -13t-13 -5h-506v-159
q68 -81 178 -81q108 0 194 96q12 14 26 3zM404 621q-110 0 -178 -81v-135h356v139q-66 77 -178 77z" />
    <glyph glyph-name="onethird" unicode="&#x2153;" horiz-adv-x="630" 
d="M504 684l-333 -668q-8 -16 -26 -16h-66q-6 0 -9.5 5.5t-0.5 10.5l334 668q8 16 26 16h65q6 0 9.5 -5.5t0.5 -10.5zM183 685v-291q0 -8 -5.5 -13t-12.5 -5h-52q-7 0 -12.5 5t-5.5 13v190l-25 -14q-16 -7 -25 7l-16 26q-10 16 6 25l89 64q16 11 33 11h8q7 0 12.5 -5.5
t5.5 -12.5zM598 228q0 -40 -31 -66q31 -24 31 -64q0 -37 -27 -70.5t-89 -33.5q-56 0 -102 37q-15 12 -2 25l25 28q11 11 26 2q23 -15 53 -15q14 0 24.5 7.5t10.5 19.5q0 15 -10 23t-25 8h-37q-7 0 -12.5 5.5t-5.5 12.5v31q0 8 5.5 13t12.5 5h37q14 0 24.5 8.5t10.5 23.5
q0 12 -10.5 19.5t-24.5 7.5q-24 0 -52 -18q-16 -9 -27 4l-23 26q-13 15 1 26q47 39 101 39q62 0 89 -33t27 -71z" />
    <glyph glyph-name="twothirds" unicode="&#x2154;" horiz-adv-x="690" 
d="M560 684l-333 -668q-8 -16 -26 -16h-66q-11 0 -11 11q0 3 1 5l334 668q8 16 26 16h65q11 0 11 -11q0 -4 -1 -5zM654 228q0 -40 -31 -66q31 -24 31 -64q0 -37 -27 -70.5t-89 -33.5q-34 0 -71.5 16.5t-37.5 33.5q0 7 5 12l25 28q5 5 14 5q6 0 12 -3q23 -15 53 -15
q14 0 24.5 7.5t10.5 19.5q0 15 -10 23t-25 8h-37q-7 0 -12.5 5.5t-5.5 12.5v31q0 8 5.5 13t12.5 5h37q14 0 24.5 8.5t10.5 23.5q0 12 -10.5 19.5t-24.5 7.5q-8 0 -32 -10.5t-32 -10.5q-9 0 -15 7l-23 26q-5 5 -5 13q0 17 37 34.5t70 17.5q62 0 89 -33t27 -71zM68 600l-28 27
q-6 6 -6 14q0 7 5 12q51 55 114 55q50 0 79.5 -30.5t29.5 -73.5q0 -38 -40 -94l-41 -57h58q7 0 12.5 -5.5t5.5 -12.5v-42q0 -7 -5.5 -12.5t-12.5 -5.5h-169q-7 0 -12 5t-5 12q0 18 9 31l93 137q18 26 18 43q0 8 -6.5 15.5t-17.5 7.5q-23 0 -55 -26q-5 -5 -13 -5q-9 0 -13 5z
" />
    <glyph glyph-name="oneeighth" unicode="&#x215b;" horiz-adv-x="628" 
d="M504 684l-333 -668q-8 -16 -26 -16h-66q-11 0 -11 11q0 3 1 5l334 668q8 16 26 16h65q11 0 11 -11q0 -4 -1 -5zM183 685v-291q0 -8 -5.5 -13t-12.5 -5h-52q-7 0 -12.5 5t-5.5 13v190l-25 -14q-6 -2 -9 -2q-11 0 -16 9l-16 26q-3 5 -3 9q0 12 9 16l89 64q16 11 33 11h8
q7 0 12.5 -5.5t5.5 -12.5zM593 231q0 -16 -9 -36.5t-27 -31.5q35 -23 35 -72q0 -35 -25.5 -66t-86.5 -31q-62 0 -88.5 30.5t-26.5 67.5q0 19 9.5 40.5t25.5 31.5q-16 8 -25.5 27t-9.5 39q0 34 27 67t88 33t87 -30t26 -69zM480 71q11 0 19.5 7.5t8.5 18.5t-8.5 18.5
t-19.5 7.5q-12 0 -21 -7.5t-9 -18.5t9 -18.5t21 -7.5zM480 201q11 0 19.5 7.5t8.5 18.5q0 12 -8.5 19.5t-19.5 7.5q-12 0 -21 -7.5t-9 -19.5q0 -11 9 -18.5t21 -7.5z" />
    <glyph glyph-name="threeeighths" unicode="&#x215c;" horiz-adv-x="644" 
d="M540 684l-333 -668q-8 -16 -26 -16h-66q-11 0 -11 11q0 3 1 5l334 668q8 16 26 16h65q11 0 11 -11q0 -4 -1 -5zM612 231q0 -16 -9 -36.5t-27 -31.5q35 -23 35 -72q0 -35 -25.5 -66t-86.5 -31q-62 0 -88.5 30.5t-26.5 67.5q0 19 9.5 40.5t25.5 31.5q-16 8 -25.5 27
t-9.5 39q0 34 27 67t88 33t87 -30t26 -69zM499 71q11 0 19.5 7.5t8.5 18.5t-8.5 18.5t-19.5 7.5q-12 0 -21 -7.5t-9 -18.5t9 -18.5t21 -7.5zM499 201q11 0 19.5 7.5t8.5 18.5q0 12 -8.5 19.5t-19.5 7.5q-12 0 -21 -7.5t-9 -19.5q0 -11 9 -18.5t21 -7.5zM254 598
q0 -40 -31 -66q31 -24 31 -64q0 -37 -27 -70.5t-89 -33.5q-34 0 -71.5 16.5t-37.5 33.5q0 7 5 12l25 28q5 5 14 5q6 0 12 -3q22 -15 53 -15q14 0 24.5 7.5t10.5 19.5q0 15 -10 23t-25 8h-37q-7 0 -12.5 5.5t-5.5 12.5v31q0 8 5.5 13t12.5 5h37q14 0 24.5 8.5t10.5 23.5
q0 12 -10.5 19.5t-24.5 7.5q-8 0 -32 -10.5t-32 -10.5q-9 0 -15 7l-23 26q-5 5 -5 13q0 17 37 34.5t70 17.5q62 0 89 -33t27 -71z" />
    <glyph glyph-name="fiveeighths" unicode="&#x215d;" horiz-adv-x="655" 
d="M263 485q0 -39 -29.5 -77t-93.5 -38q-63 0 -110 47q-12 13 1 26l31 28q12 10 25 -1q24 -20 54 -20q16 0 26 11t10 24q0 15 -10 24.5t-27 9.5h-70q-8 0 -13 5.5t-5 12.5v147q0 8 5 13t13 5h153q7 0 12.5 -5t5.5 -13v-37q0 -7 -5.5 -12.5t-12.5 -5.5h-84v-39q70 0 97 -31.5
t27 -73.5zM576 163q35 -23 35 -72q0 -35 -25.5 -66t-86.5 -31q-62 0 -88.5 30.5t-26.5 67.5q0 19 9.5 40.5t25.5 31.5q-16 8 -25.5 27t-9.5 39q0 34 27 67t88 33t87 -30t26 -69q0 -16 -9 -36.5t-27 -31.5zM499 71q11 0 19.5 7.5t8.5 18.5t-8.5 18.5t-19.5 7.5
q-12 0 -21 -7.5t-9 -18.5t9 -18.5t21 -7.5zM499 201q11 0 19.5 7.5t8.5 18.5q0 12 -8.5 19.5t-19.5 7.5q-12 0 -21 -7.5t-9 -19.5q0 -11 9 -18.5t21 -7.5zM465 700h65q6 0 9.5 -5.5t0.5 -10.5l-333 -668q-8 -16 -26 -16h-66q-6 0 -9.5 5.5t-0.5 10.5l334 668q8 16 26 16z
" />
    <glyph glyph-name="seveneighths" unicode="&#x215e;" horiz-adv-x="614" 
d="M428 700h65q6 0 9.5 -5.5t0.5 -10.5l-333 -668q-8 -16 -26 -16h-66q-6 0 -9.5 5.5t-0.5 10.5l334 668q8 16 26 16zM110 373h-53q-7 0 -10.5 5.5t-0.5 11.5l90 231h-86q-8 0 -13 5.5t-5 12.5v43q0 8 5 13t13 5h183q16 0 16 -16t-6 -29l-108 -265q-7 -17 -25 -17zM539 163
q35 -23 35 -72q0 -35 -25.5 -66t-86.5 -31q-62 0 -88.5 30.5t-26.5 67.5q0 19 9.5 40.5t25.5 31.5q-16 8 -25.5 27t-9.5 39q0 34 27 67t88 33t87 -30t26 -69q0 -16 -9 -36.5t-27 -31.5zM462 71q11 0 19.5 7.5t8.5 18.5t-8.5 18.5t-19.5 7.5q-12 0 -21 -7.5t-9 -18.5t9 -18.5
t21 -7.5zM462 201q11 0 19.5 7.5t8.5 18.5q0 12 -8.5 19.5t-19.5 7.5q-12 0 -21 -7.5t-9 -19.5q0 -11 9 -18.5t21 -7.5z" />
    <glyph glyph-name="arrowleft" unicode="&#x2190;" horiz-adv-x="635" 
d="M557 189h-251l98 -106q12 -14 -1 -25l-67 -63q-12 -13 -26 1l-244 247q-6 6 -6 14q0 9 6 15l242 249q13 13 26 0l66 -65q14 -14 1 -26l-94 -104h250q7 0 12.5 -5t5.5 -13v-101q0 -7 -5.5 -12.5t-12.5 -5.5z" />
    <glyph glyph-name="arrowup" unicode="&#x2191;" horiz-adv-x="671" 
d="M266 19v251l-106 -98q-13 -13 -25 1l-63 67q-12 12 1 26l247 244q6 6 14 6q9 0 15 -6l249 -242q13 -13 0 -26l-65 -66q-5 -5 -13 -5.5t-13 4.5l-104 94v-250q0 -7 -5.5 -12.5t-12.5 -5.5h-101q-8 0 -13 5.5t-5 12.5z" />
    <glyph glyph-name="arrowright" unicode="&#x2192;" horiz-adv-x="635" 
d="M329 189h-251q-8 0 -13 5.5t-5 12.5v101q0 8 5 13t13 5h250l-94 104q-12 12 1 26l66 65q13 13 26 0l242 -249q6 -6 6 -15q0 -8 -6 -14l-244 -247q-5 -5 -13 -5.5t-13 4.5l-67 63q-14 12 -1 25z" />
    <glyph glyph-name="arrowdown" unicode="&#x2193;" horiz-adv-x="671" 
d="M266 247v251q0 8 5 13t13 5h101q7 0 12.5 -5t5.5 -13v-250l104 94q13 12 26 -1l65 -66q13 -13 0 -26l-249 -242q-6 -6 -15 -6q-8 0 -14 6l-247 244q-13 13 -1 26l63 67q11 13 25 1z" />
    <glyph glyph-name="partialdiff" unicode="&#x2202;" 
d="M162 612l58 84q10 15 26 6q53 -31 100.5 -76t89.5 -104t66.5 -136t24.5 -160q0 -24 -5.5 -51.5t-22 -60.5t-41.5 -59t-68 -43.5t-97 -17.5t-97 17t-67.5 41.5t-41 56.5t-22 58.5t-5.5 50.5q0 38 9.5 73t31.5 70.5t67 58.5t107 27q19 0 36 -3q-30 51 -63 81.5t-81 61.5
q-14 11 -5 25zM293 135q40 0 62.5 26t22.5 61q-2 36 -23.5 61t-61.5 25t-62 -25.5t-22 -60.5t22.5 -61t61.5 -26z" />
    <glyph glyph-name="product" unicode="&#x220f;" horiz-adv-x="611" 
d="M114 18v542h-51q-7 0 -12.5 5t-5.5 13v104q0 8 5.5 13t12.5 5h485q8 0 13 -5t5 -13v-104q0 -8 -5 -13t-13 -5h-48v-542q0 -8 -5 -13t-13 -5h-120q-8 0 -13 5t-5 13v542h-75v-542q0 -8 -5.5 -13t-12.5 -5h-119q-8 0 -13 5t-5 13z" />
    <glyph glyph-name="summation" unicode="&#x2211;" horiz-adv-x="542" 
d="M290 560l127 -195q10 -15 0 -30l-127 -195h204q8 0 13 -5t5 -13v-104q0 -8 -5 -13t-13 -5h-440q-11 0 -11 11q0 12 6 22l204 317l-204 319q-6 9 -6 20t11 11h440q8 0 13 -5t5 -13v-104q0 -8 -5 -13t-13 -5h-204z" />
    <glyph glyph-name="minus" unicode="&#x2212;" horiz-adv-x="557" 
d="M93 428h378q7 0 12.5 -5t5.5 -13v-61q0 -7 -5.5 -12.5t-12.5 -5.5h-378q-7 0 -12.5 5.5t-5.5 12.5v61q0 8 5.5 13t12.5 5z" />
    <glyph glyph-name="radical" unicode="&#x221a;" horiz-adv-x="706" 
d="M294 314l160 369q7 17 25 17h179q8 0 13 -5t5 -13v-91q0 -7 -5 -12.5t-13 -5.5h-92l-263 -568q-3 -5 -8.5 -5t-7.5 5l-249 479q-3 5 0.5 10.5t9.5 5.5h134q18 0 26 -16z" />
    <glyph glyph-name="infinity" unicode="&#x221e;" horiz-adv-x="670" 
d="M224 143q-72 0 -108 45t-36 107q0 61 36 106.5t108 45.5q65 0 112 -58q43 58 110 58q72 0 108 -45.5t36 -107.5t-36 -106.5t-108 -44.5q-65 0 -110 55q-43 -55 -112 -55zM438 252q17 0 27.5 12t10.5 30q0 16 -10.5 27.5t-27.5 11.5q-28 0 -45 -39q17 -42 45 -42zM233 252
q27 0 44 43q-16 39 -44 39q-17 0 -27.5 -10.5t-10.5 -28.5q0 -20 10.5 -31.5t27.5 -11.5z" />
    <glyph glyph-name="integral" unicode="&#x222b;" horiz-adv-x="485" 
d="M416 547q-40 23 -69 23q-42 0 -42 -60v-517q0 -18 -2 -37t-12.5 -49t-28.5 -52t-54 -38.5t-84 -16.5q-81 0 -151 55q-14 11 -3 27l44 71q11 15 25 6q40 -23 69 -23q42 0 42 60v517q0 18 2 37t12.5 49t28.5 52t54 38.5t84 16.5q40 0 81 -16.5t69 -38.5q14 -11 4 -27
l-44 -71q-11 -15 -25 -6z" />
    <glyph glyph-name="approxequal" unicode="&#x2248;" horiz-adv-x="650" 
d="M151 305l-56 40q-16 9 -6 25q69 113 169 113q34 0 92 -32q42 -24 66 -24q32 0 76 52q10 14 26 3l57 -41q15 -11 6 -27q-70 -115 -166 -115q-46 0 -104 36q-42 22 -57 22q-36 0 -77 -48q-10 -14 -26 -4zM151 78l-56 40q-16 9 -6 25q69 113 169 113q34 0 92 -32
q42 -24 66 -24q32 0 76 52q10 14 26 3l57 -41q15 -11 6 -27q-70 -115 -166 -115q-46 0 -104 36q-42 22 -57 22q-36 0 -77 -48q-10 -14 -26 -4z" />
    <glyph glyph-name="notequal" unicode="&#x2260;" horiz-adv-x="510" 
d="M412 291h-80l-29 -87h109q8 0 13 -5t5 -13v-84q0 -8 -5 -13t-13 -5h-148l-22 -67q-5 -17 -23 -17h-82q-7 0 -11 5.5t-2 11.5l22 67h-48q-8 0 -13 5t-5 13v84q0 8 5 13t13 5h86l28 87h-114q-8 0 -13 5.5t-5 12.5v83q0 8 5 13t13 5h153l23 73q7 17 24 17h84q7 0 10.5 -5.5
t1.5 -11.5l-24 -73h42q8 0 13 -5t5 -13v-83q0 -7 -5 -12.5t-13 -5.5z" />
    <glyph glyph-name="lessequal" unicode="&#x2264;" horiz-adv-x="451" 
d="M48 131h320q8 0 13 -5.5t5 -12.5v-95q0 -8 -5 -13t-13 -5h-320q-8 0 -13 5t-5 13v95q0 7 5 12.5t13 5.5zM247 398l159 -100q14 -11 6 -26l-47 -84q-9 -16 -24 -7l-296 180q-15 8 -15 27v20q0 17 15 27l296 179q15 9 24 -7l47 -83q8 -15 -6 -26z" />
    <glyph glyph-name="greaterequal" unicode="&#x2265;" horiz-adv-x="451" 
d="M421 131h-356v-131h356v131zM45 298l159 100l-159 100q-14 11 -6 26l47 83q9 16 24 7l296 -179q15 -10 15 -27v-20q0 -19 -15 -27l-296 -180q-15 -9 -24 7l-47 84q-8 15 6 26z" />
    <glyph glyph-name="lozenge" unicode="&#x25ca;" horiz-adv-x="664" 
d="M70 359l251 351q11 13 21 0l251 -351q12 -15 0 -30l-251 -347q-4 -6 -10 -6t-11 6l-251 347q-10 15 0 30zM332 470l-85 -126l85 -122l85 122z" />
    <glyph glyph-name="CR" horiz-adv-x="250" 
 />
    <glyph glyph-name="zero.oldstyle" horiz-adv-x="580" 
d="M290 506q51 0 91.5 -17.5t66 -44.5t42 -62.5t23.5 -69.5t7 -68q0 -42 -10.5 -81.5t-34 -79.5t-71.5 -64.5t-114 -24.5t-114 25.5t-71.5 66.5t-34 81.5t-10.5 82.5q0 40 10.5 80.5t34 82t71.5 67.5t114 26zM290 135q26 0 43 13t23.5 34t8.5 34.5t2 27.5q0 15 -2 30.5
t-8.5 38.5t-23.5 37.5t-43 14.5t-43 -13.5t-23.5 -36t-8.5 -36.5t-2 -29t2 -29t8.5 -36.5t23.5 -36t43 -13.5z" />
    <glyph glyph-name="one.oldstyle" horiz-adv-x="483" 
d="M82 123h97v170l-73 -40q-16 -7 -25 7l-42 68q-9 15 6 25l200 140q17 10 33 10h25q7 0 12.5 -5.5t5.5 -12.5v-362h84q7 0 12.5 -5.5t5.5 -12.5v-87q0 -8 -5.5 -13t-12.5 -5h-323q-8 0 -13 5t-5 13v87q0 7 5 12.5t13 5.5z" />
    <glyph glyph-name="two.oldstyle" horiz-adv-x="457" 
d="M396 349q0 -61 -61 -145l-54 -74h98q7 0 12.5 -5t5.5 -13v-94q0 -8 -5.5 -13t-12.5 -5h-302q-7 0 -12.5 5t-5.5 13v15q0 16 10 33l156 225q25 33 25 54q0 8 -6 16t-19 9q-23 1 -43.5 -7.5t-57.5 -40.5q-12 -12 -25 2l-57 65q-13 14 0 27q90 90 185 90q75 0 122 -40
t47 -117z" />
    <glyph glyph-name="three.oldstyle" horiz-adv-x="518" 
d="M458 318q0 -80 -59 -122q59 -42 59 -129q0 -27 -9 -56.5t-30 -61t-64 -52t-102 -20.5q-111 0 -200 84q-14 12 -1 27l59 69q12 13 25 2q54 -41 117 -41q26 0 42.5 16.5t16.5 42.5q0 25 -17.5 42t-44.5 17h-81q-7 0 -12.5 5t-5.5 13v85q0 7 5.5 12.5t12.5 5.5h84
q24 0 41 17.5t17 43.5q0 24 -16.5 38t-41.5 14q-54 0 -116 -46q-15 -11 -25 3l-59 71q-10 14 2 26q94 82 198 82q51 0 89.5 -13.5t59.5 -33t34.5 -46.5t17.5 -49.5t4 -45.5z" />
    <glyph glyph-name="four.oldstyle" horiz-adv-x="518" 
d="M406 0v-98q0 -8 -5 -13t-13 -5h-117q-7 0 -12.5 5t-5.5 13v98h-205q-8 0 -13 5t-5 13v48q0 18 9 33l239 386q10 15 28 15h82q8 0 13 -5t5 -13v-343h64q8 0 13 -5.5t5 -12.5v-103q0 -8 -5 -13t-13 -5h-64zM253 211l-46 -72h46v72z" />
    <glyph glyph-name="five.oldstyle" horiz-adv-x="557" 
d="M73 15l71 68q13 11 25 -2q50 -54 105 -54q32 0 52.5 20.5t22.5 46.5q3 29 -15.5 51t-61.5 22h-134q-8 0 -13 5.5t-5 12.5v297q0 8 5 13t13 5h309q7 0 12.5 -5t5.5 -13v-104q0 -8 -5.5 -13t-12.5 -5h-178v-60h9q63 0 108 -19.5t68 -51.5t33 -66.5t9 -72.5
q0 -28 -11.5 -59.5t-34.5 -65.5t-69.5 -56t-107.5 -22q-112 0 -202 102q-10 14 2 26z" />
    <glyph glyph-name="six.oldstyle" horiz-adv-x="560" 
d="M353 626l55 -77q10 -15 -6 -24q-82 -49 -133 -108l12 1q52 0 92 -15t63.5 -37.5t38.5 -53t20 -57t5 -53.5q0 -22 -5.5 -46.5t-20.5 -54.5t-38.5 -53.5t-63.5 -39.5t-91 -16q-62 0 -108 22.5t-68.5 57.5t-33 67.5t-10.5 62.5q-3 144 72.5 251t193.5 179q16 9 26 -6z
M281 131q34 0 53 23t19 53t-18.5 52t-53.5 22q-34 0 -53.5 -22t-19.5 -52t19.5 -53t53.5 -23z" />
    <glyph glyph-name="seven.oldstyle" horiz-adv-x="447" 
d="M221 361h-173q-8 0 -13 5.5t-5 12.5v103q0 8 5 13t13 5h349q7 0 12.5 -5t5.5 -13v-14q0 -20 -7 -35l-207 -527q-7 -17 -25 -17h-118q-7 0 -10.5 5.5t-1.5 11.5z" />
    <glyph glyph-name="eight.oldstyle" horiz-adv-x="556" 
d="M278 -6q-60 0 -105 19t-68 49.5t-34 62.5t-11 64q0 39 20 75.5t48 53.5q-26 20 -43.5 57.5t-17.5 71.5q0 30 9.5 60.5t31.5 62t67 51.5t106 20q60 0 103.5 -20t65 -51.5t31 -62t9.5 -60.5q0 -37 -15.5 -72.5t-43.5 -55.5q27 -17 46 -56.5t19 -73.5q0 -32 -10.5 -64
t-34 -62.5t-68.5 -49.5t-105 -19zM280 252q-37 0 -56.5 -21t-19.5 -42q0 -33 22 -50.5t54 -17.5q29 0 51 18.5t22 49.5q0 22 -18.5 42.5t-54.5 20.5zM347 447q0 30 -20.5 47t-47.5 17q-29 0 -49 -17t-20 -47q0 -19 17 -41t52 -23q35 1 51.5 22.5t16.5 41.5z" />
    <glyph glyph-name="nine.oldstyle" horiz-adv-x="560" 
d="M207 -128l-55 77q-10 15 6 24q82 49 133 108l-12 -1q-52 0 -92 15t-63.5 37.5t-38.5 53t-20 57t-5 53.5q0 22 5.5 46.5t20.5 54.5t38.5 53.5t63.5 39.5t91 16q62 0 108 -22.5t68.5 -57.5t33 -67.5t10.5 -62.5q3 -144 -72.5 -251t-193.5 -179q-17 -10 -26 6zM279 367
q-34 0 -53 -23t-19 -53t18.5 -52t53.5 -22q34 0 53.5 22t19.5 52t-19.5 53t-53.5 23z" />
    <glyph glyph-name="Euro.oldstyle" horiz-adv-x="590" 
d="M357 263h-88q-1 -9 -1 -29v-3h58q7 0 10.5 -5.5t1.5 -11.5l-12 -30q-7 -17 -24 -17h-16q20 -35 65 -35q42 0 86 26q14 9 25 -5l52 -81q10 -16 -5 -26q-74 -52 -162 -52q-93 0 -148 45.5t-73 127.5h-48q-7 0 -10.5 5.5t-1.5 11.5l12 30q5 17 24 17h17v1q0 20 1 31h-42
q-7 0 -10.5 5.5t-1.5 11.5l12 30q5 17 24 17h28q20 80 73.5 129.5t143.5 49.5q97 0 169 -57q14 -12 4 -27l-57 -80q-4 -6 -11.5 -7.5t-13.5 2.5q-40 27 -79 27q-50 0 -72 -37h94q7 0 10.5 -5.5t1.5 -11.5l-12 -30q-7 -17 -24 -17z" />
    <glyph glyph-name="florin.oldstyle" horiz-adv-x="468" 
d="M-34 -115l34 86q5 16 23 11q45 -16 81 -16q16 0 27.5 9.5t11.5 28.5v183h-32q-7 0 -12.5 5.5t-5.5 12.5v80q0 7 5.5 12.5t12.5 5.5h32v33q0 85 51.5 129.5t131.5 44.5q58 0 136 -33q15 -8 10 -25l-34 -86q-5 -17 -23 -11q-45 16 -81 16q-16 0 -27.5 -9.5t-11.5 -28.5v-30
h71q8 0 13 -5.5t5 -12.5v-80q0 -7 -5 -12.5t-13 -5.5h-71v-186q0 -85 -51.5 -129.5t-131.5 -44.5q-58 0 -136 33q-15 7 -10 25z" />
    <glyph glyph-name="sterling.oldstyle" horiz-adv-x="711" 
d="M499 470l-34 -86q-5 -17 -23 -11q-45 16 -81 16q-16 0 -27.5 -9.5t-11.5 -28.5v-42h71q7 0 12.5 -5.5t5.5 -12.5v-46q0 -7 -5.5 -12.5t-12.5 -5.5h-71v-63q16 -2 52.5 -18t56.5 -16q66 -2 111 53q11 15 25 4l70 -52q14 -11 5 -27q-37 -60 -88.5 -88.5t-123.5 -30.5
q-32 -1 -88 25.5t-86 26.5q-19 0 -49.5 -11.5t-57.5 -39.5q-13 -13 -25 -2l-66 60q-15 13 -4 27q40 59 116 90v62h-32q-8 0 -13 5.5t-5 12.5v46q0 7 5 12.5t13 5.5h32v45q0 85 51.5 129.5t131.5 44.5q58 0 136 -33q15 -8 10 -25z" />
    <glyph glyph-name="yen.oldstyle" horiz-adv-x="643" 
d="M478 60h-77v-42q0 -8 -5.5 -13t-12.5 -5h-123q-8 0 -13 5t-5 13v42h-78q-8 0 -13 5t-5 13v41q0 7 5 12.5t13 5.5h78v50h-78q-8 0 -13 5.5t-5 12.5v49q0 8 5 13t13 5h63l-156 213q-4 5 -1.5 10t8.5 5h161q17 0 27 -16l55 -94l56 94q8 16 27 16h161q5 0 8 -5t-1 -10
l-158 -213h64q8 0 13 -5t5 -13v-49q0 -7 -5 -12.5t-13 -5.5h-77v-50h77q8 0 13 -5.5t5 -12.5v-41q0 -8 -5 -13t-13 -5z" />
    <glyph glyph-name="percent.oldstyle" horiz-adv-x="902" 
d="M715 323q43 0 75 -16t49 -42t25 -53t8 -54t-8 -54t-25 -52.5t-49 -41t-75 -15.5t-75.5 15.5t-49.5 41t-25 52.5t-8 54q0 28 8 54.5t25 52.5t49.5 42t75.5 16zM715 111q21 0 29 15.5t8 31.5q0 10 -2 19.5t-11 19t-24 9.5q-22 0 -30 -15.5t-8 -32.5q0 -9 2.5 -18.5
t11.5 -19t24 -9.5zM346 395q0 -27 -8 -54t-25 -52.5t-49 -41t-75 -15.5q-83 0 -121 50.5t-38 112.5q0 28 8 54.5t25 52.5t49.5 42t76.5 16q43 0 75 -16t49 -42t25 -53t8 -54zM189 348q36 0 36 47q0 48 -36 48q-38 0 -38 -48q0 -47 38 -47zM502 557h85q7 0 10.5 -5.5
t1.5 -11.5l-173 -523q-7 -17 -24 -17h-86q-7 0 -10.5 5.5t-1.5 11.5l174 523q7 17 24 17z" />
    <glyph glyph-name="commaaccent" horiz-adv-x="250" 
d="M104 -347l-31 14q-15 7 -8 23q7 18 19 52.5t13 36.5q-46 19 -46 73q0 31 22 54t53 23q40 0 60.5 -24.5t20.5 -58.5q0 -64 -76 -185q-10 -15 -27 -8z" />
    <glyph glyph-name="a.alt" horiz-adv-x="615" 
d="M451 500h66q7 0 12.5 -5t5.5 -13v-464q0 -8 -5.5 -13t-12.5 -5h-66q-19 0 -25 17l-7 16q-53 -41 -127 -41q-18 0 -26 1q-57 6 -99 32.5t-64.5 65.5t-32.5 78.5t-10 80.5q0 42 11.5 84t36 82.5t72.5 66t112 25.5q74 0 127 -41l7 16q7 17 25 17zM383 160v180q-23 29 -74 29
q-31 0 -52 -13t-30 -34.5t-12.5 -38t-3.5 -33.5t3.5 -33.5t12.5 -38t30 -34.5t52 -13q51 0 74 29z" />
    <glyph glyph-name="aogonek.alt" horiz-adv-x="615" 
d="M552 -128q25 0 65 10q6 2 11.5 -1.5t5.5 -10.5v-54q0 -19 -17 -24q-48 -16 -108 -16q-50 0 -84 27.5t-34 79.5q0 30 21 69.5t21 47.5l-14 33q-53 -41 -127 -41q-18 0 -26 1q-57 6 -99 32.5t-64.5 65.5t-32.5 78.5t-10 80.5q0 42 11.5 84t36 82.5t72.5 66t112 25.5
q74 0 127 -41l7 16q7 17 25 17h66q7 0 12.5 -5t5.5 -13v-485q0 -10 -15.5 -39.5t-15.5 -50.5q0 -35 48 -35zM383 160v180q-23 29 -74 29q-31 0 -52 -13t-30 -34.5t-12.5 -38t-3.5 -33.5t3.5 -33.5t12.5 -38t30 -34.5t52 -13q51 0 74 29z" />
    <glyph glyph-name="amacron.alt" horiz-adv-x="615" 
d="M465 681v-72q0 -7 -5.5 -12.5t-12.5 -5.5h-265q-8 0 -13 5.5t-5 12.5v72q0 7 5 12.5t13 5.5h265q7 0 12.5 -5.5t5.5 -12.5zM451 500h66q7 0 12.5 -5t5.5 -13v-464q0 -8 -5.5 -13t-12.5 -5h-66q-19 0 -25 17l-7 16q-53 -41 -127 -41q-18 0 -26 1q-57 6 -99 32.5
t-64.5 65.5t-32.5 78.5t-10 80.5q0 42 11.5 84t36 82.5t72.5 66t112 25.5q74 0 127 -41l7 16q7 17 25 17zM383 160v180q-23 29 -74 29q-31 0 -52 -13t-30 -34.5t-12.5 -38t-3.5 -33.5t3.5 -33.5t12.5 -38t30 -34.5t52 -13q51 0 74 29z" />
    <glyph glyph-name="adieresis.alt" horiz-adv-x="615" 
d="M121 669q0 34 23.5 57.5t57.5 23.5t57 -23.5t23 -57.5t-23 -57t-57 -23q-35 0 -58 23t-23 57zM357 669q0 34 23.5 57.5t57.5 23.5t57 -23.5t23 -57.5t-23 -57t-57 -23q-35 0 -58 23t-23 57zM451 500h66q7 0 12.5 -5t5.5 -13v-464q0 -8 -5.5 -13t-12.5 -5h-66
q-19 0 -25 17l-7 16q-53 -41 -127 -41q-18 0 -26 1q-57 6 -99 32.5t-64.5 65.5t-32.5 78.5t-10 80.5q0 42 11.5 84t36 82.5t72.5 66t112 25.5q74 0 127 -41l7 16q7 17 25 17zM383 160v180q-23 29 -74 29q-31 0 -52 -13t-30 -34.5t-12.5 -38t-3.5 -33.5t3.5 -33.5t12.5 -38
t30 -34.5t52 -13q51 0 74 29z" />
    <glyph glyph-name="aring.alt" horiz-adv-x="615" 
d="M209 690q0 44 31.5 75t74.5 31t74 -31t31 -75t-31 -74.5t-74 -30.5q-44 0 -75 31t-31 74zM285 690q0 -11 9 -20t21 -9q11 0 20 9t9 20q0 12 -9 21t-20 9q-12 0 -21 -9t-9 -21zM451 500h66q7 0 12.5 -5t5.5 -13v-464q0 -8 -5.5 -13t-12.5 -5h-66q-19 0 -25 17l-7 16
q-53 -41 -127 -41q-18 0 -26 1q-57 6 -99 32.5t-64.5 65.5t-32.5 78.5t-10 80.5q0 42 11.5 84t36 82.5t72.5 66t112 25.5q74 0 127 -41l7 16q7 17 25 17zM383 160v180q-23 29 -74 29q-31 0 -52 -13t-30 -34.5t-12.5 -38t-3.5 -33.5t3.5 -33.5t12.5 -38t30 -34.5t52 -13
q51 0 74 29z" />
    <glyph glyph-name="agrave.alt" horiz-adv-x="615" 
d="M451 500h66q7 0 12.5 -5t5.5 -13v-464q0 -8 -5.5 -13t-12.5 -5h-66q-19 0 -25 17l-7 16q-53 -41 -127 -41q-18 0 -26 1q-57 6 -99 32.5t-64.5 65.5t-32.5 78.5t-10 80.5q0 42 11.5 84t36 82.5t72.5 66t112 25.5q74 0 127 -41l7 16q7 17 25 17zM383 160v180q-23 29 -74 29
q-31 0 -52 -13t-30 -34.5t-12.5 -38t-3.5 -33.5t3.5 -33.5t12.5 -38t30 -34.5t52 -13q51 0 74 29zM398 654l-36 -50q-10 -16 -26 -6l-148 91q-14 11 -5 25l50 69q9 15 24 4l138 -107q14 -10 3 -26z" />
    <glyph glyph-name="acircumflex.alt" horiz-adv-x="615" 
d="M451 500h66q7 0 12.5 -5t5.5 -13v-464q0 -8 -5.5 -13t-12.5 -5h-66q-19 0 -25 17l-7 16q-53 -41 -127 -41q-18 0 -26 1q-57 6 -99 32.5t-64.5 65.5t-32.5 78.5t-10 80.5q0 42 11.5 84t36 82.5t72.5 66t112 25.5q74 0 127 -41l7 16q7 17 25 17zM383 160v180q-23 29 -74 29
q-31 0 -52 -13t-30 -34.5t-12.5 -38t-3.5 -33.5t3.5 -33.5t12.5 -38t30 -34.5t52 -13q51 0 74 29zM301 654l-95 -59q-6 -4 -13.5 -2t-11.5 8l-36 52q-11 15 4 26l138 107q14 10 28 0l138 -107q15 -11 4 -26l-36 -52q-11 -15 -25 -6z" />
    <glyph glyph-name="aacute.alt" horiz-adv-x="615" 
d="M451 500h66q7 0 12.5 -5t5.5 -13v-464q0 -8 -5.5 -13t-12.5 -5h-66q-19 0 -25 17l-7 16q-53 -41 -127 -41q-18 0 -26 1q-57 6 -99 32.5t-64.5 65.5t-32.5 78.5t-10 80.5q0 42 11.5 84t36 82.5t72.5 66t112 25.5q74 0 127 -41l7 16q7 17 25 17zM383 160v180q-23 29 -74 29
q-31 0 -52 -13t-30 -34.5t-12.5 -38t-3.5 -33.5t3.5 -33.5t12.5 -38t30 -34.5t52 -13q51 0 74 29zM425 689l-148 -91q-16 -10 -26 6l-36 50q-11 16 3 26l138 107q5 5 12.5 3.5t11.5 -7.5l50 -69q9 -14 -5 -25z" />
    <glyph glyph-name="atilde.alt" horiz-adv-x="615" 
d="M261 624q-25 0 -44 -21q-11 -15 -25 -6l-51 31q-15 11 -7 26q47 84 120 84q20 0 55 -16.5t56 -16.5q23 0 41 21q11 15 25 5l51 -31q16 -10 7 -25q-46 -85 -122 -85q-21 0 -54 17t-52 17zM451 500h66q7 0 12.5 -5t5.5 -13v-464q0 -8 -5.5 -13t-12.5 -5h-66q-19 0 -25 17
l-7 16q-53 -41 -127 -41q-103 0 -167.5 74.5t-64.5 183.5q0 42 11.5 84t36 82.5t72.5 66t112 25.5q74 0 127 -41l7 16q7 17 25 17zM383 160v180q-23 29 -74 29q-31 0 -52 -13t-30 -34.5t-12.5 -38t-3.5 -33.5t3.5 -33.5t12.5 -38t30 -34.5t52 -13q51 0 74 29z" />
    <glyph glyph-name="abreve.alt" horiz-adv-x="615" 
d="M302 588q-53 0 -94 29.5t-60 90.5q-5 16 12 22l74 21q15 5 22 -12q12 -37 46 -37q31 0 45 38q6 17 22 12l76 -23q17 -6 12 -22q-19 -60 -61 -89.5t-94 -29.5zM451 500h66q7 0 12.5 -5t5.5 -13v-464q0 -8 -5.5 -13t-12.5 -5h-66q-19 0 -25 17l-7 16q-53 -41 -127 -41
q-103 0 -167.5 74.5t-64.5 183.5q0 42 11.5 84t36 82.5t72.5 66t112 25.5q74 0 127 -41l7 16q7 17 25 17zM383 160v180q-23 29 -74 29q-31 0 -52 -13t-30 -34.5t-12.5 -38t-3.5 -33.5t3.5 -33.5t12.5 -38t30 -34.5t52 -13q51 0 74 29z" />
    <glyph glyph-name="parenleft.case" horiz-adv-x="333" 
d="M294 779q-118 -227 -118 -424q0 -204 118 -431q9 -16 -6 -25l-72 -43q-16 -10 -25 6q-161 233 -161 492q0 251 161 488q9 16 25 6l72 -44q15 -9 6 -25z" />
    <glyph glyph-name="parenright.case" horiz-adv-x="333" 
d="M303 354q0 -259 -161 -492q-10 -15 -25 -6l-72 43q-14 9 -7 25q119 226 119 431q0 198 -119 424q-7 16 7 25l72 44q15 9 25 -6q161 -237 161 -488z" />
    <glyph glyph-name="hyphen.case" horiz-adv-x="446" 
d="M98 415h250q8 0 13 -5.5t5 -12.5v-85q0 -8 -5 -13t-13 -5h-250q-8 0 -13 5t-5 13v85q0 7 5 12.5t13 5.5z" />
    <glyph glyph-name="bracketleft.case" horiz-adv-x="277" 
d="M30 -118v951q0 7 5 12.5t13 5.5h181q7 0 12.5 -5.5t5.5 -12.5v-80q0 -7 -5.5 -12.5t-12.5 -5.5h-60v-755h60q7 0 12.5 -5t5.5 -13v-80q0 -8 -5.5 -13t-12.5 -5h-181q-8 0 -13 5t-5 13z" />
    <glyph glyph-name="bracketright.case" horiz-adv-x="277" 
d="M247 833v-951q0 -8 -5.5 -13t-12.5 -5h-181q-8 0 -13 5t-5 13v80q0 8 5 13t13 5h60v755h-60q-8 0 -13 5.5t-5 12.5v80q0 7 5 12.5t13 5.5h181q7 0 12.5 -5.5t5.5 -12.5z" />
    <glyph glyph-name="braceleft.case" horiz-adv-x="328" 
d="M280 -134h-28q-7 0 -19.5 1.5t-39.5 11.5t-48.5 27.5t-38.5 54t-17 85.5v216q0 18 -9 29t-20 12h-12q-8 0 -13 5.5t-5 12.5v66q0 7 5 12.5t13 5.5h11q12 0 21 11.5t9 29.5v216q0 49 17 85.5t38.5 54t48.5 27.5t39.5 11.5t19.5 1.5h28q8 0 13 -5t5 -13v-79q0 -7 -5 -12.5
t-13 -5.5h-4q-3 0 -7 -0.5t-12 -4.5t-14 -11t-11 -21.5t-5 -34.5v-209q0 -31 -15.5 -56t-35.5 -36q20 -11 35.5 -36t15.5 -55v-209q0 -20 5 -34.5t11 -22t14 -11.5t12 -4.5t7 -0.5h4q8 0 13 -5.5t5 -12.5v-79q0 -8 -5 -13t-13 -5z" />
    <glyph glyph-name="bar.case" horiz-adv-x="228" 
d="M150 -135h-72q-8 0 -13 5.5t-5 12.5v936q0 7 5 12.5t13 5.5h72q8 0 13 -5.5t5 -12.5v-936q0 -7 -5 -12.5t-13 -5.5z" />
    <glyph glyph-name="braceright.case" horiz-adv-x="328" 
d="M76 -134h-28q-8 0 -13 5t-5 13v79q0 7 5 12.5t13 5.5h4q3 0 7 0.5t12 4.5t14 11.5t11 22t5 34.5v209q0 30 15.5 55t35.5 36q-20 11 -35.5 36t-15.5 56v209q0 20 -5 34.5t-11 21.5t-14 11t-12 4.5t-7 0.5h-4q-8 0 -13 5.5t-5 12.5v79q0 8 5 13t13 5h28q7 0 19.5 -1.5
t39.5 -11.5t48.5 -27.5t38.5 -54t17 -85.5v-216q0 -18 9 -29.5t21 -11.5h11q8 0 13 -5.5t5 -12.5v-66q0 -7 -5 -12.5t-13 -5.5h-12q-11 -1 -20 -12t-9 -29v-216q0 -49 -17 -85.5t-38.5 -54t-48.5 -27.5t-39.5 -11.5t-19.5 -1.5z" />
    <glyph glyph-name="guilsinglleft.case" horiz-adv-x="329" 
d="M187 352l101 -127q11 -14 -3 -26l-52 -45q-13 -12 -26 1l-173 185q-4 6 -4 11q0 6 4 12l173 184q13 13 26 1l52 -45q14 -12 3 -26z" />
    <glyph glyph-name="guilsinglright.case" horiz-adv-x="329" 
d="M41 225l101 127l-101 125q-11 14 3 26l52 45q13 12 26 -1l173 -184q4 -6 4 -12q0 -5 -4 -11l-173 -185q-13 -13 -26 -1l-52 45q-14 12 -3 26z" />
    <glyph glyph-name="guillemotleft.case" horiz-adv-x="597" 
d="M187 354l101 -127q11 -14 -3 -26l-52 -45q-13 -12 -26 1l-173 185q-4 6 -4 11q0 6 4 12l173 184q13 13 26 1l52 -45q14 -12 3 -26zM455 354l101 -127q11 -14 -3 -26l-52 -45q-13 -12 -26 1l-173 185q-4 6 -4 11q0 6 4 12l173 184q13 13 26 1l52 -45q14 -12 3 -26z" />
    <glyph glyph-name="guillemotright.case" horiz-adv-x="597" 
d="M309 227l101 127l-101 125q-11 14 3 26l52 45q13 12 26 -1l173 -184q4 -6 4 -12q0 -5 -4 -11l-173 -185q-13 -13 -26 -1l-52 45q-14 12 -3 26zM41 227l101 127l-101 125q-11 14 3 26l52 45q13 12 26 -1l173 -184q4 -6 4 -12q0 -5 -4 -11l-173 -185q-13 -13 -26 -1l-52 45
q-14 12 -3 26z" />
    <glyph glyph-name="endash.case" horiz-adv-x="551" 
d="M453 319h-355q-8 0 -13 5.5t-5 12.5v83q0 8 5 13t13 5h355q7 0 12.5 -5t5.5 -13v-83q0 -7 -5.5 -12.5t-12.5 -5.5z" />
    <glyph glyph-name="emdash.case" horiz-adv-x="672" 
d="M574 319h-476q-8 0 -13 5.5t-5 12.5v83q0 8 5 13t13 5h476q8 0 13 -5t5 -13v-83q0 -7 -5 -12.5t-13 -5.5z" />
    <glyph glyph-name="bullet.case" horiz-adv-x="432" 
d="M213 222q-52 0 -92.5 41t-40.5 93q0 55 40.5 97t92.5 42q58 0 98.5 -41.5t40.5 -97.5q0 -53 -40.5 -93.5t-98.5 -40.5z" />
    <glyph glyph-name="periodcentered.case" horiz-adv-x="294" 
d="M60 361q0 37 24 61.5t62 24.5q37 0 62.5 -24.5t25.5 -61.5t-25.5 -62.5t-62.5 -25.5t-61.5 25.5t-24.5 62.5z" />
    <glyph glyph-name="brokenbar.case" horiz-adv-x="229" 
d="M169 234v-351q0 -7 -5.5 -12.5t-12.5 -5.5h-73q-8 0 -13 5.5t-5 12.5v351q0 8 5 13t13 5h73q7 0 12.5 -5t5.5 -13zM169 820v-350q0 -8 -5.5 -13t-12.5 -5h-73q-8 0 -13 5t-5 13v350q0 8 5 13t13 5h73q7 0 12.5 -5t5.5 -13z" />
    <glyph glyph-name="numbersign.oldstyle" horiz-adv-x="575" 
d="M78 399h60v83q0 8 5 13t13 5h84q8 0 13 -5t5 -13v-83h60v83q0 8 5 13t13 5h84q8 0 13 -5t5 -13v-83h60q8 0 13 -5.5t5 -12.5v-83q0 -8 -5 -13t-13 -5h-60v-60h60q8 0 13 -5t5 -13v-82q0 -8 -5 -13t-13 -5h-60v-84q0 -8 -5 -13t-13 -5h-84q-8 0 -13 5t-5 13v84h-60v-84
q0 -8 -5 -13t-13 -5h-84q-8 0 -13 5t-5 13v84h-60q-8 0 -13 5t-5 13v82q0 8 5 13t13 5h60v60h-60q-8 0 -13 5t-5 13v83q0 7 5 12.5t13 5.5zM258 280v-60h60v60h-60z" />
    <glyph glyph-name="dollar.oldstyle" horiz-adv-x="519" 
d="M294 -87h-66q-8 0 -13 5.5t-5 12.5v66q-63 8 -134 49q-15 9 -8 25l46 88q7 16 24 8q77 -36 125 -36q41 0 41 20q0 4 -1 7t-4.5 5.5t-7 4.5t-10 4t-12 3.5t-15.5 4.5t-17 5q-32 10 -54.5 19.5t-49.5 28t-41.5 47.5t-14.5 68q0 64 35.5 104.5t97.5 51.5v60q0 8 5 13t13 5
h66q8 0 13 -5t5 -13v-61q55 -9 123 -39q16 -9 9 -25l-40 -89q-7 -16 -24 -9q-83 32 -124 32q-28 0 -28 -18q0 -6 5.5 -11.5t17 -11t22.5 -9.5t30.5 -10.5t31.5 -11.5q57 -22 90.5 -55t33.5 -96q0 -60 -40.5 -101.5t-106.5 -52.5v-65q0 -7 -5 -12.5t-13 -5.5z" />
    <glyph glyph-name="cent.oldstyle" horiz-adv-x="563" 
d="M332 -87h-66q-8 0 -13 5.5t-5 12.5v69q-96 20 -142 93t-46 155q0 52 15 100.5t59.5 94t113.5 59.5v62q0 8 5 13t13 5h66q8 0 13 -5t5 -13v-59q85 -13 156 -82q13 -13 0 -26l-66 -73q-12 -12 -25 -1q-48 42 -103 42q-49 0 -73.5 -35t-24.5 -79q0 -51 29 -81t70 -30
q42 0 93 41q14 12 24 -2l67 -80q12 -14 -1 -27q-72 -67 -146 -76v-65q0 -7 -5 -12.5t-13 -5.5z" />
    <glyph glyph-name="g.alt" horiz-adv-x="616" 
d="M367 9q-46 -20 -118 -12q-55 9 -94 35.5t-58.5 64.5t-28 75.5t-8.5 78.5t10 80.5t32.5 78.5t64.5 65.5t99 32.5q90 9 153 -40l7 16q7 17 25 17h67q8 0 13 -5.5t5 -12.5v-468q0 -31 -4 -59t-18.5 -64t-38 -61t-68 -43t-104.5 -18q-115 0 -227 88q-14 10 -3 25l63 75
q12 14 26 3q69 -53 137 -53q84 0 84 92q0 6 -5.5 9t-10.5 0zM309 370q-31 0 -52 -13t-30 -34.5t-12.5 -38t-3.5 -33.5q0 -15 2 -29t8.5 -31.5t17.5 -30t31 -21t47 -8.5q37 0 66 18v192q-23 29 -74 29z" />
    <glyph glyph-name="gcircumflex.alt" horiz-adv-x="616" 
d="M451 501h67q8 0 13 -5.5t5 -12.5v-468q0 -31 -4 -59t-18.5 -64t-38 -61t-68 -43t-104.5 -18q-115 0 -227 88q-14 10 -3 25l63 75q12 14 26 3q69 -53 137 -53q84 0 84 98v12q-47 -31 -134 -21q-55 9 -94 35.5t-58.5 64.5t-28 75.5t-8.5 78.5t10 80.5t32.5 78.5t64.5 65.5
t99 32.5q90 9 153 -40l7 16q7 17 25 17zM383 149v192q-23 29 -74 29q-31 0 -52 -13t-30 -34.5t-12.5 -38t-3.5 -33.5q0 -15 2 -29t8.5 -31.5t17.5 -30t31 -21t47 -8.5q37 0 66 18zM305 654l-95 -59q-6 -4 -13.5 -2t-11.5 8l-36 52q-11 15 4 26l138 107q14 10 28 0l138 -107
q15 -11 4 -26l-36 -52q-11 -15 -25 -6z" />
    <glyph glyph-name="gbreve.alt" horiz-adv-x="616" 
d="M315 588q-53 0 -94 29.5t-60 90.5q-5 16 12 22l74 21q15 5 22 -12q12 -37 46 -37q31 0 45 38q6 17 22 12l76 -23q17 -6 12 -22q-19 -60 -61 -89.5t-94 -29.5zM451 501h67q8 0 13 -5.5t5 -12.5v-468q0 -31 -4 -59t-18.5 -64t-38 -61t-68 -43t-104.5 -18q-115 0 -227 88
q-14 10 -3 25l63 75q12 14 26 3q69 -53 137 -53q84 0 84 98v12q-47 -31 -134 -21q-55 9 -94 35.5t-58.5 64.5t-28 75.5t-8.5 78.5t10 80.5t32.5 78.5t64.5 65.5t99 32.5q90 9 153 -40l7 16q7 17 25 17zM383 149v192q-23 29 -74 29q-31 0 -52 -13t-30 -34.5t-12.5 -38
t-3.5 -33.5q0 -15 2 -29t8.5 -31.5t17.5 -30t31 -21t47 -8.5q37 0 66 18z" />
    <glyph glyph-name="gdotaccent.alt" horiz-adv-x="616" 
d="M242 668q0 34 23.5 57.5t57.5 23.5t57 -23.5t23 -57.5t-23 -57t-57 -23q-35 0 -58 23t-23 57zM451 501h67q8 0 13 -5.5t5 -12.5v-468q0 -31 -4 -59t-18.5 -64t-38 -61t-68 -43t-104.5 -18q-115 0 -227 88q-14 10 -3 25l63 75q12 14 26 3q69 -53 137 -53q84 0 84 98v12
q-47 -31 -134 -21q-55 9 -94 35.5t-58.5 64.5t-28 75.5t-8.5 78.5t10 80.5t32.5 78.5t64.5 65.5t99 32.5q90 9 153 -40l7 16q7 17 25 17zM383 149v192q-23 29 -74 29q-31 0 -52 -13t-30 -34.5t-12.5 -38t-3.5 -33.5q0 -15 2 -29t8.5 -31.5t17.5 -30t31 -21t47 -8.5
q37 0 66 18z" />
    <glyph glyph-name="gcommaaccent.alt" horiz-adv-x="616" 
d="M313 579q-40 0 -60.5 24.5t-20.5 58.5q0 62 76 185q10 15 26 8l31 -14q16 -7 9 -23q-7 -18 -19 -52.5t-13 -36.5q46 -19 46 -73q0 -31 -22 -54t-53 -23zM451 501h67q8 0 13 -5.5t5 -12.5v-468q0 -31 -4 -59t-18.5 -64t-38 -61t-68 -43t-104.5 -18q-115 0 -227 88
q-14 10 -3 25l63 75q12 14 26 3q69 -53 137 -53q84 0 84 98v12q-47 -31 -134 -21q-55 9 -94 35.5t-58.5 64.5t-28 75.5t-8.5 78.5t10 80.5t32.5 78.5t64.5 65.5t99 32.5q90 9 153 -40l7 16q7 17 25 17zM383 149v192q-23 29 -74 29q-31 0 -52 -13t-30 -34.5t-12.5 -38
t-3.5 -33.5q0 -15 2 -29t8.5 -31.5t17.5 -30t31 -21t47 -8.5q37 0 66 18z" />
    <glyph glyph-name="zero.denom" horiz-adv-x="328" 
d="M164 331q70 0 102 -52.5t32 -116.5q0 -40 -11 -75t-42.5 -63t-80.5 -28q-48 0 -80 28t-43 63t-11 75q0 39 11 75t43 65t80 29zM164 75q18 0 29.5 18.5t14.5 36t3 32.5q0 16 -3 34t-14.5 36.5t-29.5 18.5t-29.5 -18.5t-14.5 -36.5t-3 -34q0 -11 2 -23.5t6.5 -28
t14.5 -25.5t24 -10z" />
    <glyph glyph-name="one.denom" horiz-adv-x="228" 
d="M183 309v-291q0 -8 -5.5 -13t-12.5 -5h-52q-7 0 -12.5 5t-5.5 13v190l-25 -14q-16 -7 -25 7l-16 26q-10 16 6 25l89 64q16 11 33 11h8q7 0 12.5 -5.5t5.5 -12.5z" />
    <glyph glyph-name="two.denom" horiz-adv-x="305" 
d="M71 225l-28 27q-13 14 -1 26q51 55 114 55q50 0 79.5 -30.5t29.5 -73.5q0 -40 -40 -94l-44 -57h62q7 0 12.5 -5t5.5 -13v-42q0 -8 -5.5 -13t-12.5 -5h-185q-14 0 -14 14q0 15 9 27l105 144q18 27 18 43q0 8 -6.5 15.5t-17.5 7.5q-22 0 -55 -26q-13 -13 -26 0z" />
    <glyph glyph-name="three.denom" horiz-adv-x="282" 
d="M252 228q0 -40 -31 -66q31 -24 31 -64q0 -37 -27 -70.5t-89 -33.5q-56 0 -102 37q-15 12 -2 25l25 28q11 11 26 2q22 -15 53 -15q14 0 24.5 7.5t10.5 19.5q0 15 -10 23t-25 8h-37q-7 0 -12.5 5.5t-5.5 12.5v31q0 8 5.5 13t12.5 5h37q14 0 24.5 8.5t10.5 23.5
q0 12 -10.5 19.5t-24.5 7.5q-24 0 -52 -18q-16 -9 -27 4l-23 26q-13 15 1 26q47 39 101 39q62 0 89 -33t27 -71z" />
    <glyph glyph-name="four.denom" horiz-adv-x="301" 
d="M235 47v-29q0 -8 -5.5 -13t-12.5 -5h-47q-8 0 -13 5t-5 13v29h-114q-8 0 -13 5.5t-5 12.5v30q0 16 10 33l127 185q10 15 28 15h32q7 0 12.5 -5t5.5 -13v-189h28q7 0 12.5 -5.5t5.5 -12.5v-38q0 -7 -5.5 -12.5t-12.5 -5.5h-28zM152 182l-42 -61h42v61z" />
    <glyph glyph-name="five.denom" horiz-adv-x="305" 
d="M43 68l31 28q12 10 25 -1q24 -20 54 -20q16 0 26 11t10 24q0 15 -10 24.5t-27 9.5h-70q-8 0 -13 5t-5 13v147q0 7 5 12.5t13 5.5h153q7 0 12.5 -5.5t5.5 -12.5v-37q0 -8 -5.5 -13t-12.5 -5h-84v-39q70 0 97 -31.5t27 -73.5q0 -39 -29.5 -77t-93.5 -38q-63 0 -110 47
q-12 13 1 26z" />
    <glyph glyph-name="six.denom" horiz-adv-x="300" 
d="M187 320l18 -24q11 -15 -4 -24q-41 -31 -69 -62q9 6 31 6q33 0 56.5 -13t33 -32.5t13 -35t3.5 -28.5q-1 -22 -9.5 -45.5t-37.5 -46t-73 -22.5q-34 0 -59 12.5t-37 31.5t-17.5 36.5t-5.5 33.5q0 133 131 218q15 9 26 -5zM149 74q16 0 25.5 11t9.5 25t-9.5 24t-25.5 10
q-14 0 -24 -9.5t-10 -24.5q0 -14 9 -25t25 -11z" />
    <glyph glyph-name="seven.denom" horiz-adv-x="263" 
d="M20 266v43q0 7 5 12.5t13 5.5h178q8 0 13 -5.5t5 -12.5v-1q0 -20 -7 -35l-104 -256q-7 -17 -25 -17h-53q-7 0 -10.5 5.5t-0.5 11.5l94 231h-90q-8 0 -13 5t-5 13z" />
    <glyph glyph-name="eight.denom" horiz-adv-x="288" 
d="M258 231q0 -16 -9 -36.5t-27 -31.5q35 -23 35 -72q0 -35 -25.5 -66t-86.5 -31q-62 0 -88.5 30.5t-26.5 67.5q0 19 9.5 40.5t25.5 31.5q-16 8 -25.5 27t-9.5 39q0 34 27 67t88 33t87 -30t26 -69zM145 71q11 0 19.5 7.5t8.5 18.5t-8.5 18.5t-19.5 7.5q-12 0 -21 -7.5
t-9 -18.5t9 -18.5t21 -7.5zM145 201q11 0 19.5 7.5t8.5 18.5q0 12 -8.5 19.5t-19.5 7.5q-12 0 -21 -7.5t-9 -19.5q0 -11 9 -18.5t21 -7.5z" />
    <glyph glyph-name="nine.denom" horiz-adv-x="300" 
d="M113 7l-18 24q-5 5 -3.5 12.5t7.5 11.5q41 31 69 62q-9 -6 -31 -6q-33 0 -56.5 13t-33 32.5t-13 35t-3.5 28.5q1 22 9.5 45.5t37.5 46t73 22.5q34 0 59 -12.5t37 -31.5t17.5 -36.5t5.5 -33.5q0 -133 -131 -218q-15 -9 -26 5zM151 253q-16 0 -25.5 -11t-9.5 -25t9.5 -24
t25.5 -10q14 0 24 9.5t10 24.5q0 14 -9 25t-25 11z" />
    <glyph glyph-name="zero.num" horiz-adv-x="328" 
d="M164 706q70 0 102 -52.5t32 -116.5q0 -40 -11 -75t-42.5 -63t-80.5 -28q-48 0 -80 28t-43 63t-11 75q0 39 11 75t43 65t80 29zM164 450q18 0 29.5 18.5t14.5 36t3 32.5q0 16 -3 34t-14.5 36.5t-29.5 18.5t-29.5 -18.5t-14.5 -36.5t-3 -34q0 -11 2 -23.5t6.5 -28
t14.5 -25.5t24 -10z" />
    <glyph glyph-name="one.num" horiz-adv-x="228" 
d="M183 684v-291q0 -7 -5.5 -12.5t-12.5 -5.5h-52q-7 0 -12.5 5.5t-5.5 12.5v190l-25 -14q-16 -7 -25 7l-16 26q-10 16 6 25l89 64q16 11 33 11h8q7 0 12.5 -5t5.5 -13z" />
    <glyph glyph-name="two.num" horiz-adv-x="305" 
d="M71 600l-28 27q-13 13 -1 26q51 55 114 55q50 0 79.5 -30.5t29.5 -73.5q0 -40 -40 -94l-41 -57l58 -1q8 0 13 -5t5 -13v-42q0 -8 -5 -13t-13 -5l-174 1q-7 0 -12 5t-5 12q0 18 10 31l97 137q18 27 18 43q0 8 -6.5 15.5t-17.5 7.5q-22 0 -55 -26q-13 -13 -26 0z" />
    <glyph glyph-name="three.num" horiz-adv-x="282" 
d="M252 603q0 -40 -31 -66q31 -24 31 -64q0 -37 -27 -70.5t-89 -33.5q-56 0 -102 37q-15 12 -2 25l25 28q11 11 26 2q23 -15 53 -15q14 0 24.5 7.5t10.5 19.5q0 15 -10 23t-25 8h-37q-7 0 -12.5 5t-5.5 13v31q0 7 5.5 12.5t12.5 5.5h37q14 0 24.5 8.5t10.5 23.5
q0 12 -10.5 19.5t-24.5 7.5q-24 0 -52 -18q-16 -9 -27 4l-23 26q-13 15 1 26q47 39 101 39q62 0 89 -33t27 -71z" />
    <glyph glyph-name="four.num" horiz-adv-x="301" 
d="M235 422v-29q0 -7 -5.5 -12.5t-12.5 -5.5h-47q-8 0 -13 5.5t-5 12.5v29h-114q-8 0 -13 5t-5 13v30q0 16 10 33l127 185q10 15 28 15h32q7 0 12.5 -5.5t5.5 -12.5v-189h28q7 0 12.5 -5t5.5 -13v-38q0 -8 -5.5 -13t-12.5 -5h-28zM152 557l-42 -61h42v61z" />
    <glyph glyph-name="five.num" horiz-adv-x="305" 
d="M43 443l31 28q12 10 25 -1q24 -20 54 -20q16 0 26 11t10 24q0 15 -10 24.5t-27 9.5h-70q-8 0 -13 5.5t-5 12.5v147q0 8 5 13t13 5h153q7 0 12.5 -5t5.5 -13v-37q0 -7 -5.5 -12.5t-12.5 -5.5h-84v-39q70 0 97 -31.5t27 -73.5q0 -39 -29.5 -77t-93.5 -38q-63 0 -110 47
q-12 13 1 26z" />
    <glyph glyph-name="six.num" horiz-adv-x="300" 
d="M187 695l18 -24q11 -15 -4 -24q-41 -31 -69 -62q9 6 31 6q33 0 56.5 -13t33 -32.5t13 -35t3.5 -28.5q-1 -22 -9.5 -45.5t-37.5 -46t-73 -22.5q-34 0 -59 12.5t-37 31.5t-17.5 36.5t-5.5 33.5q0 133 131 218q15 9 26 -5zM149 449q16 0 25.5 11t9.5 25t-9.5 24t-25.5 10
q-14 0 -24 -9.5t-10 -24.5q0 -14 9 -25t25 -11z" />
    <glyph glyph-name="seven.num" horiz-adv-x="265" 
d="M20 639v43q0 8 5 13t13 5h178q8 0 13 -5t5 -13v-3q0 -20 -7 -35l-104 -254q-7 -17 -25 -17h-53q-7 0 -10.5 5.5t-0.5 11.5l91 231h-87q-8 0 -13 5.5t-5 12.5z" />
    <glyph glyph-name="eight.num" horiz-adv-x="288" 
d="M258 606q0 -16 -9 -36.5t-27 -31.5q35 -23 35 -72q0 -35 -25.5 -66t-86.5 -31q-62 0 -88.5 30.5t-26.5 67.5q0 19 9.5 40.5t25.5 31.5q-16 8 -25.5 27t-9.5 39q0 34 27 67t88 33t87 -30t26 -69zM145 446q11 0 19.5 7t8.5 19t-8.5 19t-19.5 7q-12 0 -21 -7t-9 -19t9 -19
t21 -7zM145 576q11 0 19.5 7t8.5 19t-8.5 19.5t-19.5 7.5q-12 0 -21 -7.5t-9 -19.5t9 -19t21 -7z" />
    <glyph glyph-name="nine.num" horiz-adv-x="300" 
d="M113 382l-18 24q-5 5 -3.5 12.5t7.5 11.5q41 31 69 62q-9 -6 -31 -6q-33 0 -56.5 13t-33 32.5t-13 35t-3.5 28.5q1 22 9.5 45.5t37.5 46t73 22.5q34 0 59 -12.5t37 -31.5t17.5 -36.5t5.5 -33.5q0 -133 -131 -218q-15 -9 -26 5zM151 628q-16 0 -25.5 -11t-9.5 -25t9.5 -24
t25.5 -10q14 0 24 9.5t10 24.5q0 14 -9 25t-25 11z" />
    <glyph glyph-name="zero.ftd" horiz-adv-x="645" 
d="M322 683q71 0 125 -33t82.5 -86.5t42 -109t13.5 -111.5q0 -58 -13.5 -115t-42 -111.5t-82.5 -88.5t-125 -34t-125 34t-82 88.5t-41.5 111.5t-13.5 115q0 44 7.5 88t27 90.5t48 81.5t75 57.5t104.5 22.5zM322 133q33 0 57 25t34 63t14 67.5t4 54.5t-4 53t-14 64
t-33.5 59.5t-57.5 23.5t-57.5 -23.5t-34 -59t-14.5 -64.5t-4 -53q0 -25 4 -54.5t14.5 -67.5t34.5 -63t57 -25z" />
    <glyph glyph-name="one.ftd" horiz-adv-x="512" 
d="M76 18v97q0 7 5 12.5t13 5.5h113v324l-70 -37q-16 -7 -26 7l-42 68q-9 15 5 26l204 149q16 11 33 11h31q8 0 13 -5.5t5 -12.5v-530h74q8 0 13 -5.5t5 -12.5v-97q0 -8 -5 -13t-13 -5h-340q-8 0 -13 5t-5 13z" />
    <glyph glyph-name="two.ftd" horiz-adv-x="591" 
d="M133 476l-69 72q-13 13 0 26q110 110 223 110q95 0 156 -51.5t57 -147.5q-3 -78 -83 -186l-116 -155l163 -1q8 0 13 -5.5t5 -12.5v-108q0 -7 -5 -12.5t-13 -5.5l-383 1q-7 0 -12.5 5t-5.5 13v11q0 16 10 33l232 328q46 63 46 99q0 23 -15 39.5t-48 16.5q-52 0 -130 -70
q-14 -12 -25 1z" />
    <glyph glyph-name="three.ftd" horiz-adv-x="593" 
d="M513 483q0 -42 -19 -82.5t-55 -61.5q35 -17 54.5 -59.5t19.5 -84.5q0 -32 -10 -64t-33 -65.5t-70.5 -54.5t-113.5 -21q-114 0 -213 87q-14 12 -1 26l64 77q12 13 25 2q29 -24 64.5 -40.5t60.5 -16.5q33 0 56.5 18.5t23.5 51.5q0 35 -23.5 55.5t-56.5 20.5h-74
q-8 0 -13 5.5t-5 12.5v99q0 8 5 13t13 5h74q33 0 56.5 21t23.5 56q0 33 -23.5 51.5t-56.5 18.5q-25 0 -60 -15.5t-63 -38.5q-15 -11 -26 2l-64 76q-12 13 1 26q97 85 212 85q66 0 113.5 -21t70.5 -54.5t33 -65.5t10 -64z" />
    <glyph glyph-name="four.ftd" horiz-adv-x="615" 
d="M471 127v-109q0 -8 -5.5 -13t-12.5 -5h-119q-8 0 -13 5t-5 13v109h-238q-8 0 -13 5.5t-5 12.5v53q0 19 10 33l271 433q10 15 28 15h84q7 0 12.5 -5.5t5.5 -12.5v-393h66q7 0 12.5 -5t5.5 -13v-105q0 -7 -5.5 -12.5t-12.5 -5.5h-66zM316 379l-72 -111h72v111z" />
    <glyph glyph-name="five.ftd" horiz-adv-x="620" 
d="M93 124l77 68q12 12 25 -2q52 -56 108 -56q40 0 63.5 26t23.5 61t-23.5 60t-64.5 25h-157q-7 0 -12.5 5t-5.5 13v337q0 7 5.5 12.5t12.5 5.5h336q7 0 12.5 -5.5t5.5 -12.5v-104q0 -7 -5.5 -12.5t-12.5 -5.5h-196v-98h17q68 0 117.5 -21.5t74 -57.5t35.5 -71.5t11 -73.5
q0 -32 -11 -66.5t-35.5 -71.5t-74.5 -61t-117 -24q-122 0 -211 104q-10 14 2 26z" />
    <glyph glyph-name="six.ftd" horiz-adv-x="647" 
d="M397 676l55 -84q10 -15 -6 -24q-71 -43 -140 -124q16 3 36 3q62 -4 107 -27t67 -58.5t31.5 -70.5t9.5 -73q0 -24 -5.5 -50.5t-22 -58.5t-41 -56.5t-67.5 -41.5t-97 -17t-97 17.5t-68 43.5t-41.5 59t-22 60.5t-5.5 51.5q0 67 16.5 128.5t43.5 109.5t64.5 90.5t76 72.5
t80.5 55q15 8 26 -6zM324 135q39 0 61.5 26t22.5 61t-22 60.5t-62 25.5t-61.5 -25t-23.5 -61q0 -35 22.5 -61t62.5 -26z" />
    <glyph glyph-name="seven.ftd" horiz-adv-x="536" 
d="M50 557v104q0 7 5 12.5t13 5.5h384q8 0 13 -5.5t5 -12.5v-25q0 -20 -7 -35l-230 -584q-7 -17 -25 -17h-123q-7 0 -10.5 5.5t-1.5 11.5l204 522h-209q-8 0 -13 5.5t-5 12.5z" />
    <glyph glyph-name="eight.ftd" horiz-adv-x="615" 
d="M534 479q-1 -34 -19.5 -74.5t-58.5 -65.5q41 -23 59.5 -61.5t18.5 -77.5q0 -24 -5.5 -49.5t-21 -54.5t-39.5 -51t-65.5 -36.5t-94.5 -14.5q-65 0 -112.5 21t-70.5 55t-33 65.5t-10 63.5q0 37 21 80.5t53 60.5q-36 18 -56 55t-20 84q0 25 5.5 50t21.5 53.5t40.5 50
t66 35.5t94.5 14q65 0 113 -21t71 -54t33 -65.5t9 -62.5zM308 129q32 0 55 19t23 51q0 33 -23 52t-55 19t-55.5 -19t-23.5 -52t23.5 -51.5t55.5 -18.5zM308 408q32 0 55 19t23 52t-23 50.5t-55 17.5q-33 0 -56 -17.5t-23 -50.5t23.5 -52t55.5 -19z" />
    <glyph glyph-name="nine.ftd" horiz-adv-x="647" 
d="M250 3l-55 84q-11 15 6 24q71 43 140 124q-17 -3 -36 -3q-62 4 -107 27t-67 58.5t-31.5 70.5t-9.5 73q0 24 5.5 50.5t22 58.5t41 56.5t67.5 41.5t97 17t97 -17.5t68 -43.5t41.5 -59t22 -60.5t5.5 -51.5q0 -67 -16.5 -128.5t-43.5 -109.5t-64.5 -90.5t-76 -72.5t-80.5 -55
q-16 -9 -26 6zM323 544q-39 0 -61.5 -26t-22.5 -61t22 -60.5t62 -25.5t61.5 25t23.5 61q0 35 -22.5 61t-62.5 26z" />
    <glyph glyph-name="ampersand.alt1" horiz-adv-x="829" 
d="M654 164l101 -77q13 -11 3 -25l-71 -87q-10 -14 -25 -3l-115 86q-87 -69 -192 -69q-120 0 -191.5 64t-71.5 182v280q-1 12 -10.5 17t-33.5 7q-8 0 -13 5.5t-5 12.5v85q0 18 18 21q33 5 52 5q77 0 111 -42.5t34 -124.5v-264q1 -53 31.5 -81t70.5 -28q33 0 69 19l-14 9
q-123 84 -123 186q0 35 18.5 68t45.5 44q-39 29 -39 76q0 80 56 131.5t137 51.5q63 0 111.5 -22t76 -60.5t41.5 -84.5t14 -99q0 -159 -86 -283zM532 254q54 87 54 192q0 56 -21.5 91.5t-59.5 35.5q-20 0 -31.5 -16.5t-11.5 -31.5q0 -10 7 -17.5t15 -7.5h18q8 0 13 -5t5 -13
v-79q0 -7 -5 -12.5t-13 -5.5h-41q-14 0 -22 -10t-8 -23q0 -12 11 -24t43 -39z" />
    <glyph glyph-name="T_L" horiz-adv-x="603" 
d="M151 700h120q7 0 12.5 -5t5.5 -13v-81l168 63q6 2 11.5 -1.5t5.5 -10.5v-58q0 -17 -17 -24l-168 -60v-49l168 63q6 2 11.5 -1.5t5.5 -10.5v-57q0 -19 -17 -24l-168 -61v-210q50 21 83 68.5t44 114.5q2 18 20 18h109q7 0 12 -5t4 -13q-12 -107 -64.5 -187.5t-126.5 -120.5
t-158 -40q-26 0 -61 3q-18 4 -18 21v296l-96 -36q-6 -2 -11.5 1.5t-5.5 10.5v56q0 17 17 24l96 35v49l-96 -34q-6 -2 -11.5 1.5t-5.5 10.5v52q0 19 17 24l96 37v136q0 8 5.5 13t12.5 5z" />
    </font>
</defs>
</svg>
