<?xml version="1.0" standalone="no"?>
<!DOCTYPE svg PUBLIC "-//W3C//DTD SVG 1.1//EN" "http://www.w3.org/Graphics/SVG/1.1/DTD/svg11.dtd" >
<svg xmlns="http://www.w3.org/2000/svg" xmlns:xlink="http://www.w3.org/1999/xlink" version="1.1">
<metadata>
Created by FontForge 20170731 at Tue Dec  2 23:22:41 2014
 By Aleksey,,,
Copyright (c) 2013 by Ahmet Altun. All rights reserved.
</metadata>
<defs>
<font id="HalisR-Book" horiz-adv-x="576" >
  <font-face 
    font-family="Halis R Book"
    font-weight="400"
    font-stretch="normal"
    units-per-em="1000"
    panose-1="2 0 5 5 0 0 0 2 0 4"
    ascent="800"
    descent="-200"
    x-height="500"
    cap-height="700"
    bbox="-172.889 -337 1101.8 990"
    underline-thickness="50"
    underline-position="-230"
    unicode-range="U+0020-FB04"
  />
<missing-glyph horiz-adv-x="490" 
d="M210 209q0 -12 9 -21t22 -9q12 0 20.5 9t8.5 21t-8.5 20t-20.5 8q-13 0 -22 -8t-9 -20zM262 267v28q0 13 18 33.5t36.5 47t18.5 54.5q0 39 -24.5 60.5t-62.5 21.5q-55 0 -104 -52l29 -28q35 37 65 38q27 2 37 -11.5t10 -29.5q0 -29 -34 -67t-34 -65v-30h45zM460 635v-570
q0 -6 -4.5 -10.5t-10.5 -4.5h-400q-6 0 -10.5 4.5t-4.5 10.5v570q0 6 4.5 10.5t10.5 4.5h400q6 0 10.5 -4.5t4.5 -10.5z" />
    <glyph glyph-name="f_f" unicode="ff" horiz-adv-x="614" 
d="M619 671l-10 -33q-5 -14 -19 -9q-39 12 -76 12q-96 0 -96 -96v-45h92q6 0 10.5 -4.5t4.5 -10.5v-35q0 -6 -4.5 -10.5t-10.5 -4.5h-92v-419q0 -6 -4.5 -10.5t-10.5 -4.5h-54q-6 0 -10.5 4.5t-4.5 10.5v419h-177v-419q0 -6 -4.5 -10.5t-10.5 -4.5h-54q-6 0 -10.5 4.5
t-4.5 10.5v419h-48q-6 0 -10.5 4.5t-4.5 10.5v35q0 6 4.5 10.5t10.5 4.5h48v49q0 79 48 119.5t122 40.5q32 0 72 -11t68 -28q45 39 121 39q55 0 106 -19q14 -5 9 -19zM157 500h177v49q0 40 10 64q-40 28 -91 28q-96 0 -96 -96v-45z" />
    <glyph glyph-name="fi" unicode="fi" horiz-adv-x="509" 
d="M429 485v-471q0 -6 -4.5 -10.5t-10.5 -4.5h-53q-6 0 -10.5 4.5t-4.5 10.5v421h-189v-419q0 -6 -4.5 -10.5t-10.5 -4.5h-54q-6 0 -10.5 4.5t-4.5 10.5v419h-48q-6 0 -10.5 4.5t-4.5 10.5v35q0 6 4.5 10.5t10.5 4.5h48v49q0 79 48 119.5t122 40.5q55 0 106 -19q14 -5 9 -19
l-10 -33q-5 -14 -19 -9q-39 12 -76 12q-96 0 -96 -96v-45h257q6 0 10.5 -4.5t4.5 -10.5z" />
    <glyph glyph-name="fl" unicode="fl" horiz-adv-x="521" 
d="M441 685v-670q0 -6 -4.5 -10.5t-10.5 -4.5h-53q-6 0 -10.5 4.5t-4.5 10.5v575q-45 46 -108 46q-41 0 -67 -21.5t-26 -69.5v-45h105q6 0 10.5 -4.5t4.5 -10.5v-35q0 -6 -4.5 -10.5t-10.5 -4.5h-105v-419q0 -6 -4.5 -10.5t-10.5 -4.5h-54q-6 0 -10.5 4.5t-4.5 10.5v419h-48
q-6 0 -10.5 4.5t-4.5 10.5v35q0 6 4.5 10.5t10.5 4.5h48v49q0 81 45.5 119.5t113.5 38.5q90 0 146 -60l12 39q5 14 20 14h16q6 0 10.5 -4.5t4.5 -10.5z" />
    <glyph glyph-name="f_f_i" unicode="ffi" horiz-adv-x="769" 
d="M689 485v-471q0 -6 -4.5 -10.5t-10.5 -4.5h-53q-6 0 -10.5 4.5t-4.5 10.5v421h-189v-419q0 -6 -4.5 -10.5t-10.5 -4.5h-54q-6 0 -10.5 4.5t-4.5 10.5v419h-176v-419q0 -6 -4.5 -10.5t-10.5 -4.5h-54q-6 0 -10.5 4.5t-4.5 10.5v419h-48q-6 0 -10.5 4.5t-4.5 10.5v35
q0 6 4.5 10.5t10.5 4.5h48v49q0 79 48 119.5t122 40.5q32 0 72 -10.5t67 -28.5q45 39 121 39q55 0 106 -19q14 -5 9 -19l-10 -33q-5 -14 -19 -9q-39 12 -76 12q-96 0 -96 -96v-45h257q6 0 10.5 -4.5t4.5 -10.5zM333 500v49q0 40 10 64q-40 28 -90 28q-96 0 -96 -96v-45h176z
" />
    <glyph glyph-name="f_f_l" unicode="ffl" horiz-adv-x="782" 
d="M702 685v-670q0 -6 -4.5 -10.5t-10.5 -4.5h-53q-6 0 -10.5 4.5t-4.5 10.5v575q-45 46 -108 46q-41 0 -67 -21.5t-26 -69.5v-45h105q6 0 10.5 -4.5t4.5 -10.5v-35q0 -6 -4.5 -10.5t-10.5 -4.5h-105v-420q0 -6 -4.5 -10.5t-10.5 -4.5h-54q-6 0 -10.5 4.5t-4.5 10.5v420
h-177v-420q0 -6 -4.5 -10.5t-10.5 -4.5h-54q-6 0 -10.5 4.5t-4.5 10.5v420h-48q-6 0 -10.5 4.5t-4.5 10.5v35q0 6 4.5 10.5t10.5 4.5h48v49q0 79 48 119.5t122 40.5q32 0 72 -10.5t67 -28.5q42 37 111 37q90 0 146 -60l12 39q5 14 20 14h16q6 0 10.5 -4.5t4.5 -10.5z
M334 500v49q0 38 10 64q-40 28 -91 28q-96 0 -96 -96v-45h177z" />
    <glyph glyph-name="f_h" unicode="fh" horiz-adv-x="854" 
d="M441 685v-235q68 57 152 57q62 0 104.5 -22t62 -61.5t27 -78t7.5 -87.5v-243q0 -6 -4.5 -10.5t-10.5 -4.5h-52q-6 0 -10.5 4.5t-4.5 10.5v243q0 98 -32.5 139.5t-102.5 41.5q-42 0 -81.5 -21.5t-54.5 -48.5v-354q0 -6 -4.5 -10.5t-10.5 -4.5h-53q-6 0 -10.5 4.5
t-4.5 10.5v575q-45 46 -108 46q-41 0 -67 -21.5t-26 -69.5v-45h105q6 0 10.5 -4.5t4.5 -10.5v-35q0 -6 -4.5 -10.5t-10.5 -4.5h-105v-419q0 -6 -4.5 -10.5t-10.5 -4.5h-54q-6 0 -10.5 4.5t-4.5 10.5v419h-48q-6 0 -10.5 4.5t-4.5 10.5v35q0 6 4.5 10.5t10.5 4.5h48v49
q0 81 45.5 119.5t113.5 38.5q90 0 146 -60l12 39q5 14 20 14h16q6 0 10.5 -4.5t4.5 -10.5z" />
    <glyph glyph-name="f_j" unicode="fj" horiz-adv-x="510" 
d="M429 485v-499v-2q0 -12 -0.5 -23t-4 -36t-14 -45.5t-27.5 -41.5t-48 -33t-71 -12q-62 0 -115 33q-12 9 -4 22l19 29q8 14 21 6q37 -18 72 -18q89 0 89 121v449h-189v-420q0 -6 -4.5 -10.5t-10.5 -4.5h-54q-6 0 -10.5 4.5t-4.5 10.5v420h-48q-6 0 -10.5 4.5t-4.5 10.5v35
q0 6 4.5 10.5t10.5 4.5h48v49q0 79 48 119.5t122 40.5q55 0 106 -19q14 -5 9 -19l-10 -33q-5 -14 -19 -9q-39 12 -76 12q-96 0 -96 -96v-45h257q6 0 10.5 -4.5t4.5 -10.5z" />
    <glyph glyph-name="f_k" unicode="fk" horiz-adv-x="819" 
d="M442 248v-234q0 -6 -4.5 -10.5t-10.5 -4.5h-54q-6 0 -10.5 4.5t-4.5 10.5v576q-45 46 -108 46q-41 0 -67 -21.5t-26 -69.5v-45h105q6 0 10.5 -4.5t4.5 -10.5v-35q0 -6 -4.5 -10.5t-10.5 -4.5h-105v-419q0 -6 -4.5 -10.5t-10.5 -4.5h-54q-6 0 -10.5 4.5t-4.5 10.5v419h-48
q-6 0 -10.5 4.5t-4.5 10.5v35q0 6 4.5 10.5t10.5 4.5h48v49q0 81 45.5 119.5t113.5 38.5q90 0 146 -60l12 39q5 14 20 14h17q6 0 10.5 -4.5t4.5 -10.5v-420l223 223q11 11 26 11h72q4 0 5.5 -4t-1.5 -6l-235 -228l255 -252q3 -2 1.5 -6t-5.5 -4h-76q-15 0 -26 11z" />
    <glyph glyph-name="f_b" unicode="fb" horiz-adv-x="889" 
d="M580 507q68 0 119 -25t78 -65.5t39.5 -82.5t12.5 -85t-12.5 -85.5t-39.5 -82.5t-76.5 -64.5t-115.5 -24.5q-103 0 -163 70l-16 -48q-5 -14 -20 -14h-13q-6 0 -10.5 4.5t-4.5 10.5v575q-45 46 -108 46q-41 0 -67 -21.5t-26 -69.5v-45h105q6 0 10.5 -4.5t4.5 -10.5v-35
q0 -6 -4.5 -10.5t-10.5 -4.5h-105v-419q0 -6 -4.5 -10.5t-10.5 -4.5h-54q-6 0 -10.5 4.5t-4.5 10.5v419h-48q-6 0 -10.5 4.5t-4.5 10.5v35q0 6 4.5 10.5t10.5 4.5h48v49q0 81 45.5 119.5t113.5 38.5q90 0 146 -60l12 39q5 14 20 14h16q6 0 10.5 -4.5t4.5 -10.5v-213
q68 35 139 35zM581 67q41 0 72.5 14.5t48.5 35t28 47.5t14 47t3 38q0 26 -7.5 54.5t-25 60.5t-54.5 53t-88 21q-29 0 -68 -13t-62 -30v-261q19 -26 56.5 -46.5t82.5 -20.5z" />
    <glyph glyph-name="f_f_b" unicode="ffb" horiz-adv-x="1150" 
d="M841 506q68 0 119 -25t78 -65.5t39.5 -82.5t12.5 -85t-12.5 -85.5t-39.5 -82.5t-76.5 -64.5t-115.5 -24.5q-103 0 -163 70q-2 -9 -16 -48q-5 -14 -20 -14h-13q-6 0 -10.5 4.5t-4.5 10.5v576q-45 46 -108 46q-41 0 -67 -21.5t-26 -69.5v-45h105q6 0 10.5 -4.5t4.5 -10.5
v-35q0 -6 -4.5 -10.5t-10.5 -4.5h-105v-420q0 -6 -4.5 -10.5t-10.5 -4.5h-54q-6 0 -10.5 4.5t-4.5 10.5v420h-177v-420q0 -6 -4.5 -10.5t-10.5 -4.5h-54q-6 0 -10.5 4.5t-4.5 10.5v420h-48q-6 0 -10.5 4.5t-4.5 10.5v35q0 6 4.5 10.5t10.5 4.5h48v49q0 79 48 119.5t122 40.5
q32 0 72 -10.5t67 -28.5q42 37 111 37q90 0 146 -60l12 39q5 14 20 14h16q6 0 10.5 -4.5t4.5 -10.5v-214q68 35 139 35zM334 549q0 38 10 64q-40 28 -91 28q-96 0 -96 -96v-45h177v49zM841 66q41 0 72.5 14.5t48.5 35t28 47.5t14 47t3 38q0 26 -7.5 54.5t-25 60.5t-54.5 53
t-88 21q-29 0 -68 -13t-62 -30v-261q19 -26 56.5 -46.5t82.5 -20.5z" />
    <glyph glyph-name="f_f_h" unicode="ffh" horiz-adv-x="1115" 
d="M702 685v-235q68 57 152 57q62 0 104.5 -22t62 -61.5t27 -78t7.5 -87.5v-243q0 -6 -4.5 -10.5t-10.5 -4.5h-52q-6 0 -10.5 4.5t-4.5 10.5v243q0 98 -32.5 139.5t-102.5 41.5q-42 0 -81.5 -21.5t-54.5 -48.5v-354q0 -6 -4.5 -10.5t-10.5 -4.5h-53q-6 0 -10.5 4.5
t-4.5 10.5v575q-45 46 -108 46q-41 0 -67 -21.5t-26 -69.5v-45h105q6 0 10.5 -4.5t4.5 -10.5v-35q0 -6 -4.5 -10.5t-10.5 -4.5h-105v-420q0 -6 -4.5 -10.5t-10.5 -4.5h-54q-6 0 -10.5 4.5t-4.5 10.5v420h-177v-420q0 -6 -4.5 -10.5t-10.5 -4.5h-54q-6 0 -10.5 4.5t-4.5 10.5
v420h-48q-6 0 -10.5 4.5t-4.5 10.5v35q0 6 4.5 10.5t10.5 4.5h48v49q0 79 48 119.5t122 40.5q32 0 72 -10.5t67 -28.5q42 37 111 37q90 0 146 -60l12 39q5 14 20 14h16q6 0 10.5 -4.5t4.5 -10.5zM334 500v49q0 38 10 64q-40 28 -91 28q-96 0 -96 -96v-45h177z" />
    <glyph glyph-name="f_f_j" unicode="ffj" horiz-adv-x="769" 
d="M689 485l1 -493q0 -159 -117 -188q-22 -5 -49 -5q-62 0 -115 33q-12 9 -4 22l19 29q8 14 21 6q37 -18 72 -18q89 0 89 121v443h-189v-419q0 -6 -4.5 -10.5t-10.5 -4.5h-54q-6 0 -10.5 4.5t-4.5 10.5v419h-176v-419q0 -6 -4.5 -10.5t-10.5 -4.5h-54q-6 0 -10.5 4.5
t-4.5 10.5v419h-48q-6 0 -10.5 4.5t-4.5 10.5v35q0 6 4.5 10.5t10.5 4.5h48v49q0 79 48 119.5t122 40.5q32 0 72 -10.5t67 -28.5q45 39 121 39q55 0 106 -19q14 -5 9 -19l-10 -33q-5 -14 -19 -9q-39 12 -76 12q-96 0 -96 -96v-45h257q6 0 10.5 -4.5t4.5 -10.5zM333 500v49
q0 40 10 64q-40 28 -90 28q-96 0 -96 -96v-45h176z" />
    <glyph glyph-name="f_f_k" unicode="ffk" horiz-adv-x="1080" 
d="M703 248v-234q0 -6 -4.5 -10.5t-10.5 -4.5h-54q-6 0 -10.5 4.5t-4.5 10.5v576q-45 46 -108 46q-41 0 -67 -21.5t-26 -69.5v-45h105q6 0 10.5 -4.5t4.5 -10.5v-35q0 -6 -4.5 -10.5t-10.5 -4.5h-105v-420q0 -6 -4.5 -10.5t-10.5 -4.5h-54q-6 0 -10.5 4.5t-4.5 10.5v420
h-177v-420q0 -6 -4.5 -10.5t-10.5 -4.5h-54q-6 0 -10.5 4.5t-4.5 10.5v420h-48q-6 0 -10.5 4.5t-4.5 10.5v35q0 6 4.5 10.5t10.5 4.5h48v49q0 79 48 119.5t122 40.5q32 0 72 -10.5t67 -28.5q42 37 111 37q90 0 146 -60l12 39q5 14 20 14h17q6 0 10.5 -4.5t4.5 -10.5v-420
l223 223q11 11 26 11h72q4 0 5.5 -4t-1.5 -6l-235 -228l255 -252q3 -2 1.5 -6t-5.5 -4h-76q-15 0 -26 11zM334 500v49q0 38 10 64q-40 28 -91 28q-96 0 -96 -96v-45h177z" />
    <glyph glyph-name=".notdef" horiz-adv-x="490" 
d="M210 209q0 -12 9 -21t22 -9q12 0 20.5 9t8.5 21t-8.5 20t-20.5 8q-13 0 -22 -8t-9 -20zM262 267v28q0 13 18 33.5t36.5 47t18.5 54.5q0 39 -24.5 60.5t-62.5 21.5q-55 0 -104 -52l29 -28q35 37 65 38q27 2 37 -11.5t10 -29.5q0 -29 -34 -67t-34 -65v-30h45zM460 635v-570
q0 -6 -4.5 -10.5t-10.5 -4.5h-400q-6 0 -10.5 4.5t-4.5 10.5v570q0 6 4.5 10.5t10.5 4.5h400q6 0 10.5 -4.5t4.5 -10.5z" />
    <glyph glyph-name=".null" horiz-adv-x="0" 
 />
    <glyph glyph-name="nonmarkingreturn" horiz-adv-x="333" 
 />
    <glyph glyph-name="space" unicode=" " horiz-adv-x="300" 
 />
    <glyph glyph-name="exclam" unicode="!" horiz-adv-x="303" 
d="M193 685v-268l-19 -194q0 -15 -16 -15h-16q-16 0 -16 15l-16 194v268q0 6 4.5 10.5t10.5 4.5h53q6 0 10.5 -4.5t4.5 -10.5zM100 48q0 22 14.5 36.5t36.5 14.5t37 -14.5t15 -36.5t-15 -37t-37 -15t-36.5 15t-14.5 37z" />
    <glyph glyph-name="quotedbl" unicode="&#x22;" horiz-adv-x="321" 
d="M59 475l-18 210q0 15 14 15h55q14 0 14 -15l-18 -210q-2 -15 -16 -15h-15q-16 0 -16 15zM215 475l-18 210q0 15 14 15h55q14 0 14 -15l-18 -210q-2 -15 -16 -15h-15q-16 0 -16 15z" />
    <glyph glyph-name="numbersign" unicode="#" horiz-adv-x="571" 
d="M75 383h78v102q0 6 4.5 10.5t10.5 4.5h27q6 0 10.5 -4.5t4.5 -10.5v-102h151v102q0 6 4.5 10.5t10.5 4.5h27q6 0 10.5 -4.5t4.5 -10.5v-102h78q6 0 10.5 -4.5t4.5 -10.5v-27q0 -6 -4.5 -10.5t-10.5 -4.5h-78v-151h78q6 0 10.5 -4.5t4.5 -10.5v-27q0 -6 -4.5 -10.5
t-10.5 -4.5h-78v-103q0 -6 -4.5 -10.5t-10.5 -4.5h-27q-6 0 -10.5 4.5t-4.5 10.5v103h-151v-103q0 -6 -4.5 -10.5t-10.5 -4.5h-27q-6 0 -10.5 4.5t-4.5 10.5v103h-78q-6 0 -10.5 4.5t-4.5 10.5v27q0 6 4.5 10.5t10.5 4.5h78v151h-78q-6 0 -10.5 4.5t-4.5 10.5v27
q0 6 4.5 10.5t10.5 4.5zM210 326v-151h151v151h-151z" />
    <glyph glyph-name="dollar" unicode="$" horiz-adv-x="613" 
d="M310 -104h-27q-6 0 -10.5 4.5t-4.5 10.5v79q-102 7 -195 53q-8 5 -8 15q0 12 13 33.5t22 21.5q4 0 6 -1q85 -36 162 -43v266q-46 14 -76.5 26.5t-63 35t-49 56.5t-16.5 80q0 85 56.5 130.5t148.5 47.5v73q0 6 4.5 10.5t10.5 4.5h27q6 0 10.5 -4.5t4.5 -10.5v-76
q15 -2 36.5 -5.5t59 -11t62 -18.5t24.5 -23q0 -15 -11 -36.5t-20 -21.5q-3 0 -5 1q-90 28 -146 34v-225q43 -13 66.5 -22t59 -27.5t54.5 -39.5t33.5 -55t14.5 -76q0 -77 -64 -132.5t-164 -59.5v-79q0 -6 -4.5 -10.5t-10.5 -4.5zM462 195q-2 49 -37 76t-100 47v-249
q58 5 97.5 37.5t39.5 80.5v8zM150 537v-1q0 -44 30 -69t88 -46v209q-50 -2 -83 -25.5t-35 -67.5z" />
    <glyph glyph-name="percent" unicode="%" horiz-adv-x="733" 
d="M558 300q75 0 110 -47t35 -104q0 -58 -35 -104.5t-110 -46.5q-76 0 -110.5 46t-34.5 105q0 35 12 67t46.5 58t86.5 26zM174 704q52 0 86.5 -26t46.5 -58t12 -67q0 -59 -34.5 -105t-110.5 -46q-75 0 -109.5 46t-34.5 105q0 57 34.5 104t109.5 47zM267 0h-32q-11 0 -11 10
q0 3 1 4l218 673q5 14 20 14h30q11 0 11 -10v-3l-1 -1l-216 -673q-5 -14 -20 -14zM558 49q26 0 44.5 11.5t27 29t11.5 32t3 27.5t-3 27.5t-11.5 32t-27 28.5t-44.5 11q-35 0 -56 -20t-26.5 -40t-5.5 -39t5.5 -39t26.5 -40.5t56 -20.5zM174 453q27 0 45.5 11.5t27 29t11.5 32
t3 27.5t-3 27.5t-11.5 32t-27 28.5t-45.5 11t-45.5 -11t-27 -28.5t-11.5 -32t-3 -27.5t3 -27.5t11.5 -32t27 -29t45.5 -11.5z" />
    <glyph glyph-name="ampersand" unicode="&#x26;" horiz-adv-x="696" 
d="M206 543v-1q1 -23 15.5 -48t26 -38t35.5 -37q46 29 70 59.5t24 75.5q0 36 -22 61.5t-64 25.5q-45 0 -65.5 -31t-20.5 -61q0 -1 0.5 -3t0.5 -3zM166 192q0 -58 40 -92.5t95 -34.5q87 0 149 65q-30 32 -90.5 95t-91.5 95q-49 -33 -75.5 -62t-26.5 -66zM457 555
q0 -61 -33 -105t-90 -86q19 -21 75.5 -80.5t85.5 -91.5q27 56 40 126q2 12 14 12h3l45 -7q13 -3 13 -18q-17 -102 -62 -172q5 -5 16.5 -16t21.5 -20.5t21 -20.5t17 -19.5t6 -13.5q0 -8 -5 -11l-35 -32q-4 -4 -10 -4t-11 5l-68 71q-82 -82 -197 -82q-97 0 -160 58.5
t-63 138.5q0 65 36 110t96 81q-5 6 -20.5 24.5t-19 23t-14 19t-13 19.5t-8.5 17.5t-7.5 21.5t-3 21.5t-1.5 26.5q0 63 44.5 110.5t125.5 47.5q78 0 119.5 -45.5t41.5 -108.5z" />
    <glyph glyph-name="quotesingle" unicode="'" horiz-adv-x="165" 
d="M59 475l-18 210q0 15 14 15h55q14 0 14 -15l-18 -210q-2 -15 -16 -15h-15q-16 0 -16 15z" />
    <glyph glyph-name="parenleft" unicode="(" horiz-adv-x="267" 
d="M30 292q0 248 149 472q8 13 20 5l25 -17q14 -7 6 -21q-115 -218 -115 -438q0 -228 115 -446q8 -13 -6 -21l-24 -16q-14 -8 -21 4q-149 227 -149 478z" />
    <glyph glyph-name="parenright" unicode=")" horiz-adv-x="267" 
d="M237 292q0 -249 -149 -478q-7 -12 -21 -4l-24 16q-14 7 -6 21q115 221 115 446q0 217 -115 438q-8 14 5 21l25 17q14 8 21 -5q149 -226 149 -472z" />
    <glyph glyph-name="asterisk" unicode="*" horiz-adv-x="457" 
d="M163 519l-91 60q-13 7 -5 21l10 19q8 13 20 6l100 -51l6 111q2 15 16 15h20q14 0 16 -15l5 -112l100 52q12 7 20 -6l10 -19q8 -13 -6 -21l-92 -60l92 -60q14 -8 6 -21l-10 -17q-8 -13 -20 -6l-100 49l-6 -110q-2 -15 -16 -15h-20q-14 0 -16 15l-5 111l-100 -50
q-12 -7 -20 6l-10 17q-8 14 5 21z" />
    <glyph glyph-name="plus" unicode="+" horiz-adv-x="553" 
d="M247 298h-152q-6 0 -10.5 4.5t-4.5 10.5v29q0 6 4.5 10.5t10.5 4.5h152v152q0 6 4.5 10.5t10.5 4.5h29q6 0 10.5 -4.5t4.5 -10.5v-152h152q6 0 10.5 -4.5t4.5 -10.5v-29q0 -6 -4.5 -10.5t-10.5 -4.5h-152v-152q0 -6 -4.5 -10.5t-10.5 -4.5h-29q-6 0 -10.5 4.5t-4.5 10.5
v152z" />
    <glyph glyph-name="comma" unicode="," horiz-adv-x="284" 
d="M109 -159l-6 3q-13 8 -6 20q39 78 47 130q-25 -2 -44 13t-19 45q1 24 17 40.5t40 16.5q34 0 50 -19t16 -46q0 -42 -22.5 -98t-50.5 -99q-7 -12 -22 -6z" />
    <glyph glyph-name="hyphen" unicode="-" horiz-adv-x="432" 
d="M95 323h242q6 0 10.5 -4.5t4.5 -10.5v-36q0 -6 -4.5 -10.5t-10.5 -4.5h-242q-6 0 -10.5 4.5t-4.5 10.5v36q0 6 4.5 10.5t10.5 4.5z" />
    <glyph glyph-name="period" unicode="." horiz-adv-x="275" 
d="M80 53q0 24 16.5 40.5t40.5 16.5t41 -16.5t17 -40.5t-17 -41t-41 -17t-40.5 17t-16.5 41z" />
    <glyph glyph-name="slash" unicode="/" horiz-adv-x="354" 
d="M319 686l-218 -672q-5 -14 -20 -14h-36q-5 0 -8.5 4.5t-1.5 9.5l218 672q5 14 20 14h36q5 0 8.5 -4.5t1.5 -9.5z" />
    <glyph glyph-name="zero" unicode="0" horiz-adv-x="639" 
d="M319 683q57 0 103.5 -22.5t75 -58t47.5 -82.5t26.5 -92t7.5 -90q0 -47 -7.5 -93t-26.5 -92.5t-47.5 -82t-74.5 -57.5t-104 -22q-71 0 -124 33t-81 86.5t-41 110.5t-13 117q0 58 13 114.5t41 110t81 87t124 33.5zM319 59q44 0 78.5 23t52.5 55t29.5 73.5t14.5 71.5t3 56
t-3 55.5t-14.5 70.5t-29.5 72.5t-52.5 54t-78.5 22.5q-54 0 -92.5 -32t-55.5 -81t-23.5 -88.5t-6.5 -73.5t6.5 -74t23.5 -90t55.5 -82.5t92.5 -32.5z" />
    <glyph glyph-name="one" unicode="1" horiz-adv-x="373" 
d="M283 663v-648q0 -6 -4.5 -10.5t-10.5 -4.5h-53q-6 0 -10.5 4.5t-4.5 10.5v531l-113 -70q-13 -9 -22 4l-16 23q-9 12 3 21l174 144q11 10 27 10h15q6 0 10.5 -4.5t4.5 -10.5z" />
    <glyph glyph-name="two" unicode="2" horiz-adv-x="518" 
d="M80 548l-25 25q-10 11 1 22q90 87 199 87q94 0 151 -54.5t51 -153.5q-2 -37 -26 -84t-59 -84l-197 -233h250q6 0 10.5 -4.5t4.5 -10.5v-43q0 -6 -4.5 -10.5t-10.5 -4.5h-357q-6 0 -10.5 4.5t-4.5 10.5v7q0 16 10 27l251 303q57 69 64 123q10 54 -18.5 98t-103.5 44
q-76 0 -155 -70q-11 -11 -21 1z" />
    <glyph glyph-name="three" unicode="3" horiz-adv-x="509" 
d="M449 494q0 -101 -88 -158q88 -55 88 -155q0 -30 -9.5 -59.5t-31.5 -60.5t-67.5 -50.5t-107.5 -19.5q-108 0 -182 66q-12 10 -1 21q8 10 22 26q9 11 21 1q68 -52 140 -52q58 0 98.5 33.5t40.5 94.5q0 62 -40 93.5t-99 31.5h-60q-6 0 -10.5 4.5t-4.5 10.5v33q0 6 4.5 10.5
t10.5 4.5h60q59 0 99 32t40 93t-40.5 94.5t-98.5 33.5q-72 0 -139 -51q-13 -9 -22 2q-7 7 -21 25q-10 10 1 21q80 66 181 66q50 0 89.5 -13.5t62.5 -33.5t38 -47t20.5 -50.5t5.5 -46.5z" />
    <glyph glyph-name="four" unicode="4" horiz-adv-x="542" 
d="M416 139v-124q0 -6 -4.5 -10.5t-10.5 -4.5h-53q-6 0 -10.5 4.5t-4.5 10.5v124h-288q-6 0 -10.5 4.5t-4.5 10.5v14q0 14 8 28l303 467q8 13 23 13h37q6 0 10.5 -4.5t4.5 -10.5v-453h81q6 0 10.5 -4.5t4.5 -10.5v-39q0 -6 -4.5 -10.5t-10.5 -4.5h-81zM333 526l-204 -318
h204v318z" />
    <glyph glyph-name="five" unicode="5" horiz-adv-x="544" 
d="M71 91l27 27q11 10 22 -1q60 -57 130 -57q71 0 112.5 46t41.5 109q0 61 -41.5 103.5t-113.5 42.5h-134q-6 0 -10.5 4.5t-4.5 10.5v284q0 6 4.5 10.5t10.5 4.5h300q6 0 10.5 -4.5t4.5 -10.5v-38q0 -6 -4.5 -10.5t-10.5 -4.5h-232v-177h66q67 0 116 -21.5t73 -57t35 -71
t11 -72.5q0 -23 -6 -49.5t-23 -57t-42 -55t-68 -40.5t-96 -16q-106 0 -179 80q-10 10 1 21z" />
    <glyph glyph-name="six" unicode="6" horiz-adv-x="583" 
d="M357 677l18 -26q7 -12 -5 -21q-156 -94 -205 -233q55 40 126 40q55 0 97.5 -16t67 -40t40 -55.5t21 -59.5t5.5 -56q0 -21 -6 -47t-22 -57t-40.5 -56t-67 -41t-95.5 -15q-54 1 -96 18.5t-66.5 42.5t-40.5 57t-21.5 59t-5.5 51q0 91 25 170t66.5 134.5t87 94t95.5 63.5
q14 5 22 -7zM291 63q71 0 111 46t40 108t-40 107t-111 45q-72 0 -111 -41t-41 -107q0 -62 40.5 -110t111.5 -48z" />
    <glyph glyph-name="seven" unicode="7" horiz-adv-x="467" 
d="M30 623v38q0 6 4.5 10.5t10.5 4.5h368q6 0 10.5 -4.5t4.5 -10.5v-2q0 -15 -6 -29l-259 -616q-6 -14 -21 -14h-54q-5 0 -8 4.5t-1 9.5l244 594h-278q-6 0 -10.5 4.5t-4.5 10.5z" />
    <glyph glyph-name="eight" unicode="8" horiz-adv-x="553" 
d="M60 492q0 30 9.5 60t31.5 61.5t67.5 51.5t107.5 20t107.5 -20t67.5 -51.5t32 -61.5t10 -60q0 -43 -21 -85.5t-65 -70.5q44 -29 65 -71t21 -84q0 -30 -10 -60t-32 -61.5t-67.5 -51t-107.5 -19.5q-50 0 -89.5 13.5t-62.5 34t-38 47t-20.5 50.5t-5.5 47q0 42 21 85t65 70
q-44 27 -65 70t-21 86zM276 368q59 0 99.5 32t40.5 92q0 61 -41.5 95t-98.5 34q-58 0 -98.5 -34t-40.5 -95q0 -60 40.5 -92t98.5 -32zM276 305q-59 0 -99 -31t-40 -93q0 -61 40.5 -94.5t98.5 -33.5q57 0 98.5 34t41.5 94q0 62 -40.5 93t-99.5 31z" />
    <glyph glyph-name="nine" unicode="9" horiz-adv-x="583" 
d="M226 3l-18 26q-7 12 5 21q156 95 205 233q-55 -40 -126 -40q-55 0 -97.5 16t-67 40t-40 55.5t-21 59.5t-5.5 56q0 29 10.5 62t34 70t72 61t114.5 23q66 -2 114.5 -27t72 -62.5t33.5 -72t10 -66.5q0 -91 -25 -170t-66.5 -134.5t-87 -94t-95.5 -63.5q-16 -6 -22 7zM292 617
q-71 0 -111 -46t-40 -108t39.5 -107t111.5 -45t111 41t41 107q0 62 -40.5 110t-111.5 48z" />
    <glyph glyph-name="colon" unicode=":" horiz-adv-x="275" 
d="M80 53q0 24 16.5 40.5t40.5 16.5t41 -16.5t17 -40.5t-17 -41t-41 -17t-40.5 17t-16.5 41zM80 446q0 24 16.5 40.5t40.5 16.5t41 -16.5t17 -40.5t-17 -41.5t-41 -17.5t-40.5 17.5t-16.5 41.5z" />
    <glyph glyph-name="semicolon" unicode=";" horiz-adv-x="284" 
d="M80 446q0 24 16.5 40.5t40.5 16.5t41 -16.5t17 -40.5t-17 -41.5t-41 -17.5t-40.5 17.5t-16.5 41.5zM109 -159l-6 3q-13 8 -6 20q39 78 47 130q-25 -2 -44 13t-19 45q1 24 17 40.5t40 16.5q34 0 50 -19t16 -46q0 -42 -22.5 -98t-50.5 -99q-7 -12 -22 -6z" />
    <glyph glyph-name="less" unicode="&#x3c;" horiz-adv-x="420" 
d="M377 444l-224 -143l224 -145q14 -8 5 -21l-16 -28q-9 -13 -21 -5l-308 185q-7 3 -7 12t7 13l308 185q12 7 21 -5l16 -27q9 -13 -5 -21z" />
    <glyph glyph-name="equal" unicode="=" horiz-adv-x="502" 
d="M407 453h-312q-6 0 -10.5 4.5t-4.5 10.5v27q0 6 4.5 10.5t10.5 4.5h312q6 0 10.5 -4.5t4.5 -10.5v-27q0 -6 -4.5 -10.5t-10.5 -4.5zM407 198h-312q-6 0 -10.5 4.5t-4.5 10.5v27q0 6 4.5 10.5t10.5 4.5h312q6 0 10.5 -4.5t4.5 -10.5v-27q0 -6 -4.5 -10.5t-10.5 -4.5z" />
    <glyph glyph-name="greater" unicode="&#x3e;" horiz-adv-x="420" 
d="M267 301l-224 143q-14 8 -5 21l16 27q7 13 21 5l308 -185q7 -4 7 -13t-7 -12l-308 -185q-12 -8 -21 5l-16 28q-9 13 5 21z" />
    <glyph glyph-name="question" unicode="?" horiz-adv-x="540" 
d="M216 48q0 22 15.5 36.5t37.5 14.5q23 0 38 -14.5t15 -36.5t-15 -37t-38 -15q-22 0 -37.5 15t-15.5 37zM306 259v-46q0 -6 -4.5 -10.5t-10.5 -4.5h-45q-6 0 -10.5 4.5t-4.5 10.5v47q0 24 11 49t23 40t34 40q27 31 38.5 46.5t25 45.5t13.5 60q0 16 -4 31.5t-15 32t-34.5 26
t-56.5 8.5q-36 -2 -65 -18t-64 -49q-11 -9 -22 0l-24 24q-11 12 -1 22q46 48 90.5 68.5t105.5 20.5q77 0 125.5 -43t48.5 -122q0 -77 -94 -182q-57 -65 -60 -101z" />
    <glyph glyph-name="at" unicode="@" horiz-adv-x="1156" 
d="M586 728q232 0 371 -136t139 -347q0 -59 -12 -115t-38 -108t-74 -83.5t-112 -31.5q-99 0 -126 89q-77 -68 -164 -68q-66 0 -115.5 24.5t-76 64.5t-39 82.5t-12.5 86.5q0 34 7 68t25 69t44 61.5t68 43t94 16.5q95 0 168 -70l15 47q5 14 20 14h14q6 0 10.5 -4.5t4.5 -10.5
v-366q0 -79 71 -79q65 0 106 76t41 190q0 181 -114.5 297.5t-315.5 116.5q-204 0 -324 -129t-120 -345q0 -90 31 -171.5t109.5 -158t197.5 -121.5q9 -3 9 -13q0 -4 -1 -6l-16 -38q-5 -10 -15 -10q-3 0 -5 1q-190 70 -289 203.5t-101 306.5q0 159 62 284t182.5 197.5
t280.5 72.5zM716 71v230q-13 25 -57 49.5t-87 24.5q-41 0 -72.5 -15.5t-48 -37.5t-27 -50.5t-13 -48.5t-2.5 -38t3 -39t14 -49.5t28.5 -50t49 -37t72.5 -15.5q46 0 84 23.5t56 53.5z" />
    <glyph glyph-name="A" unicode="A" horiz-adv-x="683" 
d="M552 14l-73 179h-278l-72 -179q-6 -14 -21 -14h-63q-5 0 -8 4.5t-1 9.5l284 679q5 13 20 13q13 0 18 -13l289 -679q2 -5 -1 -9.5t-8 -4.5h-65q-15 0 -21 14zM339 536l-110 -273h221z" />
    <glyph glyph-name="B" unicode="B" horiz-adv-x="656" 
d="M510 351v-2q44 -24 65 -67.5t21 -87.5q0 -33 -12 -65t-38 -62t-75 -48.5t-114 -18.5h-242q-6 0 -10.5 4.5t-4.5 10.5v670q0 6 4.5 10.5t10.5 4.5h242q65 0 114 -18.5t75 -48.5t38 -62.5t12 -65.5q0 -44 -22 -86t-64 -68zM184 382h187q42 1 71.5 14.5t42.5 34t18.5 38.5
t5.5 36q0 15 -5.5 32.5t-19 40t-44 37t-73.5 14.5h-183v-247zM184 72h183q43 0 73.5 14t44 35.5t19 39.5t5.5 33q0 44 -29.5 78.5t-108.5 36.5h-187v-237z" />
    <glyph glyph-name="C" unicode="C" horiz-adv-x="718" 
d="M647 596l-31 -31q-11 -9 -22 0q-90 74 -188 74q-64 0 -113.5 -23.5t-76 -56.5t-43 -75.5t-21.5 -73t-5 -57.5t5 -58t21.5 -73t43 -75t76 -56t113.5 -23q98 0 190 71q12 9 21 -2q3 -4 31 -37q8 -12 -2 -22q-100 -87 -240 -87q-77 0 -138.5 23.5t-99 60.5t-63 86
t-35.5 96.5t-10 95.5q0 47 10 93.5t35.5 95.5t63 86t99 60.5t138.5 23.5q144 0 241 -94q11 -11 0 -22z" />
    <glyph glyph-name="D" unicode="D" horiz-adv-x="745" 
d="M339 0h-224q-6 0 -10.5 4.5t-4.5 10.5v670q0 6 4.5 10.5t10.5 4.5h224q77 0 138.5 -22.5t99 -58t63 -83t35.5 -93t10 -92.5q0 -48 -10 -94.5t-35 -93.5t-63.5 -82.5t-99.5 -58t-138 -22.5zM185 72h154q64 0 114 22.5t77 54.5t44.5 73t22.5 72t5 57t-5 57t-22.5 71.5
t-44.5 72.5t-77 54.5t-114 22.5h-154v-557z" />
    <glyph glyph-name="E" unicode="E" horiz-adv-x="613" 
d="M458 309h-273v-237h353q6 0 10.5 -4.5t4.5 -10.5v-42q0 -6 -4.5 -10.5t-10.5 -4.5h-423q-6 0 -10.5 4.5t-4.5 10.5v670q0 6 4.5 10.5t10.5 4.5h423q6 0 10.5 -4.5t4.5 -10.5v-42q0 -6 -4.5 -10.5t-10.5 -4.5h-353v-247h273q6 0 10.5 -4.5t4.5 -10.5v-42q0 -6 -4.5 -10.5
t-10.5 -4.5z" />
    <glyph glyph-name="F" unicode="F" horiz-adv-x="613" 
d="M458 309h-273v-294q0 -6 -4.5 -10.5t-10.5 -4.5h-55q-6 0 -10.5 4.5t-4.5 10.5v670q0 6 4.5 10.5t10.5 4.5h423q6 0 10.5 -4.5t4.5 -10.5v-42q0 -6 -4.5 -10.5t-10.5 -4.5h-353v-247h273q6 0 10.5 -4.5t4.5 -10.5v-42q0 -6 -4.5 -10.5t-10.5 -4.5z" />
    <glyph glyph-name="G" unicode="G" horiz-adv-x="714" 
d="M568 257h-136q-6 0 -10.5 4.5t-4.5 10.5v42q0 6 4.5 10.5t10.5 4.5h207q6 0 10.5 -4.5t4.5 -10.5v-214q0 -16 -11 -25q-92 -84 -237 -84q-77 0 -138.5 23.5t-99 60t-63 85t-35.5 96t-10 95.5q0 47 10 93.5t35.5 95.5t63 86t99 60.5t138.5 23.5q78 0 129.5 -19.5
t95.5 -60.5q11 -12 1 -22q-5 -5 -10 -10.5t-11.5 -11.5t-10.5 -10q-9 -11 -21 -1q-71 62 -173 62q-64 0 -113.5 -23.5t-76.5 -56.5t-43.5 -75.5t-21.5 -73.5t-5 -57q0 -27 5 -58t21.5 -73t43.5 -75t76.5 -56t113.5 -23q94 0 162 51v140z" />
    <glyph glyph-name="H" unicode="H" horiz-adv-x="763" 
d="M185 309v-294q0 -6 -4.5 -10.5t-10.5 -4.5h-55q-6 0 -10.5 4.5t-4.5 10.5v670q0 6 4.5 10.5t10.5 4.5h55q6 0 10.5 -4.5t4.5 -10.5v-304h392v304q0 6 4.5 10.5t10.5 4.5h56q6 0 10.5 -4.5t4.5 -10.5v-670q0 -6 -4.5 -10.5t-10.5 -4.5h-56q-6 0 -10.5 4.5t-4.5 10.5v294
h-392z" />
    <glyph glyph-name="I" unicode="I" horiz-adv-x="285" 
d="M185 685v-670q0 -6 -4.5 -10.5t-10.5 -4.5h-55q-6 0 -10.5 4.5t-4.5 10.5v670q0 6 4.5 10.5t10.5 4.5h55q6 0 10.5 -4.5t4.5 -10.5z" />
    <glyph glyph-name="J" unicode="J" horiz-adv-x="604" 
d="M34 177l44 16q14 5 19 -9q47 -118 160 -114q43 1 75 17.5t47.5 37.5t25 51t11 49t1.5 40v420q0 6 4.5 10.5t10.5 4.5h57q6 0 10.5 -4.5t4.5 -10.5v-420q0 -37 -6.5 -72t-23.5 -72t-44 -64.5t-71.5 -45t-101.5 -17.5q-171 0 -232 164q-5 14 9 19z" />
    <glyph glyph-name="K" unicode="K" horiz-adv-x="691" 
d="M170 0h-55q-6 0 -10.5 4.5t-4.5 10.5v670q0 6 4.5 10.5t10.5 4.5h55q6 0 10.5 -4.5t4.5 -10.5v-312l330 317q12 10 26 10h78q7 0 7 -7q0 -6 -5 -11l-335 -318l353 -340q7 -6 7 -15t-9 -9h-74q-14 0 -26 10l-352 343v-338q0 -6 -4.5 -10.5t-10.5 -4.5z" />
    <glyph glyph-name="L" unicode="L" horiz-adv-x="520" 
d="M185 685v-613h260q6 0 10.5 -4.5t4.5 -10.5v-42q0 -6 -4.5 -10.5t-10.5 -4.5h-330q-6 0 -10.5 4.5t-4.5 10.5v670q0 6 4.5 10.5t10.5 4.5h55q6 0 10.5 -4.5t4.5 -10.5z" />
    <glyph glyph-name="M" unicode="M" horiz-adv-x="1012" 
d="M731 498l-206 -493q-5 -13 -19 -13t-20 13l-206 492l-154 -483q-4 -14 -19 -14h-62q-5 0 -8.5 4.5t-1.5 9.5l220 681q4 11 16 11t17 -11l218 -530l219 530q3 11 15 11q11 0 16 -11l221 -681q2 -5 -1.5 -9.5t-8.5 -4.5h-62q-15 0 -20 14z" />
    <glyph glyph-name="N" unicode="N" horiz-adv-x="763" 
d="M171 0h-56q-6 0 -10.5 4.5t-4.5 10.5v676q0 6 4.5 10.5t10.5 4.5h1q16 0 25 -11l437 -505v495q0 6 4.5 10.5t10.5 4.5h55q6 0 10.5 -4.5t4.5 -10.5v-677q0 -14 -15 -14t-24 11l-438 507v-497q0 -6 -4.5 -10.5t-10.5 -4.5z" />
    <glyph glyph-name="O" unicode="O" horiz-adv-x="812" 
d="M406 710q77 0 138.5 -23.5t99 -60.5t63 -86t35.5 -95.5t10 -93.5q0 -48 -10 -95.5t-35.5 -96t-63 -85t-99 -60t-138.5 -23.5t-138.5 23.5t-99 60t-63 85t-35.5 96t-10 95.5q0 47 10 93.5t35.5 95.5t63 86t99 60.5t138.5 23.5zM406 68q64 0 113 23t75.5 55.5t43.5 74.5
t21.5 72.5t4.5 57.5q0 26 -5 56.5t-21.5 72.5t-43 74t-75.5 55t-113 23t-113.5 -23t-76 -55t-43 -74t-21.5 -72.5t-5 -56.5q0 -27 5 -57.5t21.5 -72.5t43 -74.5t76 -55.5t113.5 -23z" />
    <glyph glyph-name="P" unicode="P" horiz-adv-x="658" 
d="M185 268v-253q0 -6 -4.5 -10.5t-10.5 -4.5h-55q-6 0 -10.5 4.5t-4.5 10.5v670q0 6 4.5 10.5t10.5 4.5h243q66 0 115 -21t75 -54.5t38 -68.5t12 -71q0 -94 -69.5 -155.5t-155.5 -61.5h-188zM185 341h183q42 1 72 17t45 39.5t21.5 45.5t6.5 42q0 21 -6.5 43.5t-21.5 46.5
t-46.5 39t-74.5 15h-179v-288z" />
    <glyph glyph-name="Q" unicode="Q" horiz-adv-x="812" 
d="M406 710q77 0 138.5 -23.5t99 -60.5t63 -86t35.5 -95.5t10 -93.5q0 -91 -39.5 -178.5t-123.5 -138.5l152 -182q2 -2 2 -4q0 -7 -7 -7h-67q-16 0 -25 11l-131 151q-51 -12 -107 -12q-77 0 -138.5 23.5t-99 60t-63 85t-35.5 96t-10 95.5q0 47 10 93.5t35.5 95.5t63 86
t99 60.5t138.5 23.5zM406 69q64 0 113 23t75.5 55.5t43.5 74t21.5 72t4.5 57.5t-4.5 57.5t-21.5 72t-43.5 74t-75.5 55.5t-113 23t-113.5 -23t-76 -55.5t-43 -74t-21.5 -72t-5 -57.5t5 -57.5t21.5 -72t43 -74t76 -55.5t113.5 -23z" />
    <glyph glyph-name="R" unicode="R" horiz-adv-x="656" 
d="M183 268v-253q0 -6 -4.5 -10.5t-10.5 -4.5h-53q-6 0 -10.5 4.5t-4.5 10.5v670q0 6 4.5 10.5t10.5 4.5h241q66 0 115 -21t75 -54.5t38 -68.5t12 -71q0 -74 -46 -129t-117 -81q40 -87 123 -261q2 -5 -1 -9.5t-8 -4.5h-57q-16 0 -21 14l-121 254h-165zM183 341h183
q42 1 72 17t45 39.5t21.5 45.5t6.5 42q0 21 -6.5 43.5t-21.5 46.5t-46.5 39t-74.5 15h-179v-288z" />
    <glyph glyph-name="S" unicode="S" horiz-adv-x="613" 
d="M150 537v-1q0 -41 30 -69t74.5 -41.5t97 -32t97 -39.5t74.5 -65t30 -107q0 -81 -69 -137t-176 -56q-122 0 -235 54q-12 7 -7 21q2 5 6 13t7.5 14.5t6.5 12.5q5 14 20 8q104 -44 194 -44q65 0 111.5 31t50.5 81q3 40 -16.5 68.5t-54 44t-76.5 28.5t-85.5 27.5t-80 34
t-60.5 55t-26 85.5q-4 91 56.5 139.5t157.5 48.5q103 0 220 -46q14 -5 9 -20q-3 -9 -8 -23.5t-7 -19.5q-5 -14 -20 -9q-116 37 -191 37q-55 0 -91.5 -22.5t-38.5 -70.5z" />
    <glyph glyph-name="T" unicode="T" horiz-adv-x="596" 
d="M254 15v613h-194q-6 0 -10.5 4.5t-4.5 10.5v42q0 6 4.5 10.5t10.5 4.5h476q6 0 10.5 -4.5t4.5 -10.5v-42q0 -6 -4.5 -10.5t-10.5 -4.5h-196v-613q0 -6 -4.5 -10.5t-10.5 -4.5h-56q-6 0 -10.5 4.5t-4.5 10.5z" />
    <glyph glyph-name="U" unicode="U" horiz-adv-x="720" 
d="M359 64q52 0 91 23t58 57.5t27.5 65t8.5 54.5v421q0 6 4.5 10.5t10.5 4.5h56q6 0 10.5 -4.5t4.5 -10.5v-421q0 -47 -14.5 -92t-45 -86.5t-85 -67t-126.5 -25.5q-71 0 -125.5 25.5t-84.5 67t-44.5 86.5t-14.5 92v421q0 6 4.5 10.5t10.5 4.5h54q6 0 10.5 -4.5t4.5 -10.5
v-421q0 -19 5 -42t18 -51.5t32.5 -51.5t53.5 -39t76 -16z" />
    <glyph glyph-name="V" unicode="V" horiz-adv-x="683" 
d="M129 686l210 -522l213 522q6 14 21 14h65q5 0 8 -4.5t1 -9.5l-289 -679q-5 -13 -19 -13t-19 13l-284 679q-2 5 1 9.5t8 4.5h63q15 0 21 -14z" />
    <glyph glyph-name="W" unicode="W" horiz-adv-x="1137" 
d="M1029 700h63q5 0 8 -4.5t1 -9.5l-292 -681q-3 -11 -16 -11q-12 0 -15 11l-210 517l-212 -518q-3 -10 -15 -10q-11 0 -14 10l-291 682q-2 5 1 9.5t8 4.5h62q14 0 21 -14l214 -519l206 526q5 14 19 14q15 0 20 -14l206 -526l215 519q7 14 21 14z" />
    <glyph glyph-name="X" unicode="X" horiz-adv-x="596" 
d="M482 700h69q5 0 7 -4.5t0 -8.5l-215 -336l215 -338q2 -4 0 -8.5t-7 -4.5h-67q-15 0 -23 13l-163 268l-163 -268q-8 -13 -23 -13h-67q-5 0 -7 4t0 9l215 338l-215 336q-2 5 0 9t7 4h69q15 0 23 -13l161 -266l161 266q8 13 23 13z" />
    <glyph glyph-name="Y" unicode="Y" horiz-adv-x="622" 
d="M353 318v-303q0 -6 -4.5 -10.5t-10.5 -4.5h-56q-6 0 -10.5 4.5t-4.5 10.5v302l-229 370q-3 5 -0.5 9t7.5 4h66q15 0 23 -13l176 -299l176 299q8 13 23 13h68q5 0 7 -4.5t0 -8.5z" />
    <glyph glyph-name="Z" unicode="Z" horiz-adv-x="631" 
d="M196 72h360q6 0 10.5 -4.5t4.5 -10.5v-42q0 -6 -4.5 -10.5t-10.5 -4.5h-469q-14 0 -14 14q0 15 7 26l354 589h-335q-6 0 -10.5 4.5t-4.5 10.5v41q0 6 4.5 10.5t10.5 4.5h449q12 0 12 -12q0 -13 -6 -22z" />
    <glyph glyph-name="bracketleft" unicode="[" horiz-adv-x="235" 
d="M30 -186v948q0 6 4.5 10.5t10.5 4.5h145q6 0 10.5 -4.5t4.5 -10.5v-27q0 -6 -4.5 -10.5t-10.5 -4.5h-78v-864h78q6 0 10.5 -4.5t4.5 -10.5v-27q0 -6 -4.5 -10.5t-10.5 -4.5h-145q-6 0 -10.5 4.5t-4.5 10.5z" />
    <glyph glyph-name="backslash" unicode="\" horiz-adv-x="354" 
d="M253 14l-218 672q-2 5 1.5 9.5t8.5 4.5h36q15 0 20 -14l218 -672q2 -5 -1.5 -9.5t-8.5 -4.5h-36q-15 0 -20 14z" />
    <glyph glyph-name="bracketright" unicode="]" horiz-adv-x="235" 
d="M205 762v-948q0 -6 -4.5 -10.5t-10.5 -4.5h-145q-6 0 -10.5 4.5t-4.5 10.5v27q0 6 4.5 10.5t10.5 4.5h78v864h-78q-6 0 -10.5 4.5t-4.5 10.5v27q0 6 4.5 10.5t10.5 4.5h145q6 0 10.5 -4.5t4.5 -10.5z" />
    <glyph glyph-name="asciicircum" unicode="^" horiz-adv-x="617" 
d="M319 713l189 -254q9 -12 -3 -21l-23 -19q-12 -8 -22 2l-152 179l-151 -179q-10 -10 -22 -2l-23 19q-12 9 -3 21l189 254q5 5 10 5q6 0 11 -5z" />
    <glyph glyph-name="underscore" unicode="_" horiz-adv-x="412" 
d="M5 -27v9q0 6 4.5 10.5t10.5 4.5h372q6 0 10.5 -4.5t4.5 -10.5v-9q0 -6 -4.5 -10.5t-10.5 -4.5h-372q-6 0 -10.5 4.5t-4.5 10.5z" />
    <glyph glyph-name="grave" unicode="`" horiz-adv-x="510" 
d="M160 737l131 -97q13 -9 3 -21l-12 -18q-8 -13 -21 -4l-138 84q-13 8 -5 20l22 32q7 13 20 4z" />
    <glyph glyph-name="a" unicode="a" horiz-adv-x="532" 
d="M115 419l-12 32q-7 14 8 20q82 37 164 37q47 0 81 -12.5t52.5 -31t28.5 -48.5t12.5 -55t2.5 -60v-286q0 -6 -4.5 -10.5t-10.5 -4.5h-14q-15 0 -19 14l-15 51q-29 -38 -72.5 -56t-83.5 -18q-52 0 -89 16t-54 41t-23.5 47t-6.5 42q0 87 53.5 125t137.5 38q64 0 117 -13v20
q0 85 -26.5 110.5t-85.5 21.5q-61 -8 -121 -29q-15 -5 -20 9zM368 133v86q-56 14 -115 14q-117 0 -117 -87q0 -42 28.5 -64t71.5 -22q44 0 79 21.5t53 51.5z" />
    <glyph glyph-name="b" unicode="b" horiz-adv-x="611" 
d="M302 507q68 0 119 -25t78 -65.5t39.5 -82.5t12.5 -85t-12.5 -85.5t-39.5 -82.5t-76.5 -64.5t-115.5 -24.5q-103 0 -163 70q-16 -62 -36 -62h-13q-6 0 -10.5 4.5t-4.5 10.5v672q0 6 4.5 10.5t10.5 4.5h53q6 0 10.5 -4.5t4.5 -10.5v-215q68 35 139 35zM302 67
q41 0 72.5 14.5t48.5 35t28 47.5t14 47t3 38q0 26 -7.5 54.5t-25 60.5t-54.5 53t-88 21q-29 0 -68 -13t-62 -30v-261q19 -26 56.5 -46.5t82.5 -20.5z" />
    <glyph glyph-name="c" unicode="c" horiz-adv-x="551" 
d="M480 424l-33 -31q-11 -11 -22 0q-54 43 -117 43q-68 0 -116.5 -49t-48.5 -133q0 -77 44 -135t120 -58q71 0 121 45q11 11 21 0l25 -29q10 -11 -1 -22q-71 -66 -166 -66q-57 0 -101.5 17t-71.5 43.5t-44 62.5t-23.5 70.5t-6.5 71.5q0 43 12.5 85t39.5 83t78 66.5t119 25.5
q101 0 172 -69q10 -12 -1 -21z" />
    <glyph glyph-name="d" unicode="d" horiz-adv-x="611" 
d="M309 507q71 0 139 -35v215q0 6 4.5 10.5t10.5 4.5h53q6 0 10.5 -4.5t4.5 -10.5v-672q0 -6 -4.5 -10.5t-10.5 -4.5h-13q-21 0 -36 62q-60 -70 -163 -70q-66 0 -115.5 24.5t-76.5 64.5t-39.5 82.5t-12.5 85.5t12.5 85t39.5 82.5t78 65.5t119 25zM309 67q45 0 82.5 20.5
t56.5 46.5v261q-23 17 -62 30t-68 13q-51 0 -88 -21t-54.5 -53t-25 -60.5t-7.5 -54.5q0 -18 3 -38t14 -47t28 -47.5t48.5 -35t72.5 -14.5z" />
    <glyph glyph-name="e" unicode="e" horiz-adv-x="539" 
d="M456 108l23 -29q9 -13 -2 -22q-77 -65 -183 -65q-68 0 -119 25t-78 65.5t-39.5 83t-12.5 86.5q0 43 12.5 85t39.5 82.5t78 65.5t119 25q95 0 147.5 -57t52.5 -154q0 -22 -3 -46q-2 -15 -17 -15h-346q1 -27 10 -55t27.5 -56.5t52 -46.5t76.5 -18q79 0 141 48q13 9 21 -2z
M293 439q-132 0 -163 -142h284q7 54 -21.5 96.5t-99.5 45.5z" />
    <glyph glyph-name="f" unicode="f" horiz-adv-x="353" 
d="M358 671l-10 -33q-5 -14 -19 -9q-39 12 -76 12q-96 0 -96 -96v-45h92q6 0 10.5 -4.5t4.5 -10.5v-35q0 -6 -4.5 -10.5t-10.5 -4.5h-92v-419q0 -6 -4.5 -10.5t-10.5 -4.5h-54q-6 0 -10.5 4.5t-4.5 10.5v419h-48q-6 0 -10.5 4.5t-4.5 10.5v35q0 6 4.5 10.5t10.5 4.5h48v49
q0 79 48 119.5t122 40.5q55 0 106 -19q14 -5 9 -19z" />
    <glyph glyph-name="g" unicode="g" horiz-adv-x="553" 
d="M61 -67q10 56 74 88q-61 23 -61 92q0 31 18 53.5t50 31.5q-48 64 -48 130q0 31 9.5 60.5t29.5 57.5t57.5 45t87.5 17q59 0 107 -28l64 58q4 4 10 4q7 0 12 -5l21 -21q5 -5 5 -11q0 -4 -4 -10l-60 -64q29 -55 29 -103q0 -69 -44.5 -125t-139.5 -56q-18 0 -46.5 6t-39.5 6
q-53 0 -53 -52q0 -16 5.5 -27.5t18.5 -18.5t24.5 -11t34 -5.5t36 -2t41.5 -0.5h4h3h4q104 -2 144 -35.5t40 -87.5q0 -12 -3.5 -27.5t-17 -37.5t-35 -39.5t-61.5 -30t-92 -12.5q-119 0 -172 45t-53 101q0 10 1 15zM278 214q40 0 64.5 24t30.5 46.5t6 43.5q0 20 -6 43
t-30.5 47.5t-64.5 24.5q-31 0 -52.5 -13.5t-31 -34t-13.5 -37t-4 -30.5t4 -30.5t13.5 -37t31 -33.5t52.5 -13zM278 -160q37 0 65 6.5t42 15.5t22.5 20.5t10.5 18.5t2 12q0 1 0.5 4t0.5 5q0 26 -31 39.5t-112 13.5q-86 0 -115.5 -15.5t-29.5 -45.5q0 -6 3 -13.5t12.5 -18.5
t24.5 -19.5t42.5 -15t62.5 -7.5z" />
    <glyph glyph-name="h" unicode="h" 
d="M148 0h-53q-6 0 -10.5 4.5t-4.5 10.5v670q0 6 4.5 10.5t10.5 4.5h53q6 0 10.5 -4.5t4.5 -10.5v-235q68 57 152 57q62 0 104.5 -22t62 -61.5t27 -78t7.5 -87.5v-243q0 -6 -4.5 -10.5t-10.5 -4.5h-52q-6 0 -10.5 4.5t-4.5 10.5v243q0 98 -32.5 139.5t-102.5 41.5
q-42 0 -81.5 -21.5t-54.5 -48.5v-354q0 -6 -4.5 -10.5t-10.5 -4.5z" />
    <glyph glyph-name="i" unicode="i" horiz-adv-x="263" 
d="M80 645q0 22 14.5 37t36.5 15t37 -15t15 -37t-15 -36.5t-37 -14.5t-36.5 14.5t-14.5 36.5zM172 485v-471q0 -6 -4.5 -10.5t-10.5 -4.5h-53q-6 0 -10.5 4.5t-4.5 10.5v471q0 6 4.5 10.5t10.5 4.5h53q6 0 10.5 -4.5t4.5 -10.5z" />
    <glyph glyph-name="j" unicode="j" horiz-adv-x="253" 
d="M70 645q0 22 14.5 37t36.5 15t37 -15t15 -37t-15 -36.5t-37 -14.5t-36.5 14.5t-14.5 36.5zM-3 -207q-62 0 -115 33q-12 9 -4 22l19 29q8 14 21 6q38 -18 72 -18q89 0 89 121v499q0 6 4.5 10.5t10.5 4.5h54q6 0 10.5 -4.5t4.5 -10.5v-499q0 -159 -117 -188q-22 -5 -49 -5z
" />
    <glyph glyph-name="k" unicode="k" horiz-adv-x="550" 
d="M164 249v-234q0 -6 -4.5 -10.5t-10.5 -4.5h-54q-6 0 -10.5 4.5t-4.5 10.5v671q0 6 4.5 10.5t10.5 4.5h54q6 0 10.5 -4.5t4.5 -10.5v-420l223 223q11 11 26 11h72q4 0 5.5 -4t-1.5 -6l-235 -228l255 -252q3 -2 1.5 -6t-5.5 -4h-76q-15 0 -26 11z" />
    <glyph glyph-name="l" unicode="l" horiz-adv-x="263" 
d="M173 687v-672q0 -6 -4.5 -10.5t-10.5 -4.5h-53q-6 0 -10.5 4.5t-4.5 10.5v672q0 6 4.5 10.5t10.5 4.5h53q6 0 10.5 -4.5t4.5 -10.5z" />
    <glyph glyph-name="m" unicode="m" horiz-adv-x="888" 
d="M163 360v-345q0 -6 -4.5 -10.5t-10.5 -4.5h-53q-6 0 -10.5 4.5t-4.5 10.5v470q0 6 4.5 10.5t10.5 4.5h13q15 0 20 -14l15 -48q74 70 164 70q111 0 162 -74q75 74 167 74q53 0 90 -16t56.5 -38.5t30.5 -60t13 -65.5t2 -70v-243q0 -6 -4.5 -10.5t-10.5 -4.5h-53
q-6 0 -10.5 4.5t-4.5 10.5v267q0 22 -1 36.5t-7 38.5t-17 39t-33.5 28t-54.5 15q-46 3 -85.5 -20.5t-55.5 -53.5q7 -40 7 -107v-243q0 -6 -4.5 -10.5t-10.5 -4.5h-52q-6 0 -10.5 4.5t-4.5 10.5v262q0 3 -0.5 16t-1 19t-2.5 19.5t-4 21t-6.5 20t-10 19.5t-14 16t-19 14.5
t-24.5 9.5t-31 5q-47 2 -85.5 -23t-54.5 -54z" />
    <glyph glyph-name="n" unicode="n" 
d="M163 357v-342q0 -6 -4.5 -10.5t-10.5 -4.5h-53q-6 0 -10.5 4.5t-4.5 10.5v470q0 6 4.5 10.5t10.5 4.5h13q15 0 20 -14l15 -48q66 70 164 70q53 0 92 -15.5t61 -38.5t35 -58t17 -66.5t4 -71.5v-243q0 -6 -4.5 -10.5t-10.5 -4.5h-54q-6 0 -10.5 4.5t-4.5 10.5v242v27
t-2.5 30t-7 34.5t-14 30.5t-22.5 28t-35 17.5t-49 7.5q-42 0 -82.5 -24.5t-56.5 -50.5z" />
    <glyph glyph-name="o" unicode="o" horiz-adv-x="618" 
d="M309 508q68 0 119 -25t78 -65.5t39.5 -82.5t12.5 -85q0 -44 -12.5 -86.5t-39.5 -82.5t-78 -64.5t-119 -24.5q-55 0 -99 16.5t-71.5 43t-45.5 61.5t-25.5 68.5t-7.5 68.5q0 43 12.5 85t39.5 82.5t78 65.5t119 25zM309 62q42 0 73.5 15t49 36.5t28 49.5t13.5 48.5t3 38.5
t-3 38.5t-13.5 48.5t-28 49.5t-49 36.5t-73.5 15q-51 0 -86.5 -21.5t-51.5 -55t-22 -60.5t-6 -51t6 -51t22 -60.5t51.5 -55t86.5 -21.5z" />
    <glyph glyph-name="p" unicode="p" horiz-adv-x="611" 
d="M287 -6q-66 5 -124 35v-215q0 -6 -4.5 -10.5t-10.5 -4.5h-53q-6 0 -10.5 4.5t-4.5 10.5v672q0 6 4.5 10.5t10.5 4.5h13q15 0 20 -14q14 -39 16 -48q60 70 163 70q66 0 115.5 -24.5t76.5 -64.5t39.5 -82.5t12.5 -85.5q0 -42 -12 -83t-37.5 -80.5t-73 -65.5t-111.5 -29h-30
zM302 434q-45 0 -83 -21t-56 -46v-261q23 -17 62 -30t68 -13q51 0 88 21t54.5 53t25 60.5t7.5 54.5q0 18 -3 38t-14 47t-28 47.5t-48.5 35t-72.5 14.5z" />
    <glyph glyph-name="q" unicode="q" horiz-adv-x="611" 
d="M294 -6q-64 3 -111.5 29t-73 65.5t-37.5 80.5t-12 83q0 43 12.5 85.5t39.5 82.5t76.5 64.5t115.5 24.5q103 0 163 -70q15 62 36 62h13q6 0 10.5 -4.5t4.5 -10.5v-672q0 -6 -4.5 -10.5t-10.5 -4.5h-53q-6 0 -10.5 4.5t-4.5 10.5v215q-65 -35 -154 -35zM309 434
q-41 0 -72.5 -14.5t-48.5 -35t-28 -47.5t-14 -47t-3 -38q0 -26 7.5 -54.5t25 -60.5t54.5 -53t88 -21q29 0 68 13t62 30v261q-18 25 -56 46t-83 21z" />
    <glyph glyph-name="r" unicode="r" horiz-adv-x="365" 
d="M342 490l-7 -40q-3 -15 -18 -13q-3 0 -8.5 0.5t-8.5 0.5q-48 0 -86 -22.5t-51 -58.5v-342q0 -6 -4.5 -10.5t-10.5 -4.5h-53q-6 0 -10.5 4.5t-4.5 10.5v470q0 6 4.5 10.5t10.5 4.5h13q15 0 20 -14l15 -48q74 70 164 70q15 0 23 -1q6 -1 9.5 -6t2.5 -11z" />
    <glyph glyph-name="s" unicode="s" horiz-adv-x="483" 
d="M143 374q0 -32 27.5 -49t83.5 -34q36 -11 59.5 -21.5t52 -29t43 -46t14.5 -64.5q0 -61 -50.5 -99.5t-128.5 -38.5q-94 0 -171 40q-12 7 -7 21q3 5 8.5 14.5t7.5 14.5q5 14 19 8q71 -33 137 -33q41 0 70 20t29 52q0 17 -7.5 31t-15.5 22.5t-28.5 18t-30.5 13t-38 12.5
q-31 10 -44.5 15t-39 18t-37 26.5t-21.5 35.5t-10 49q1 65 44 101.5t114 36.5q80 0 160 -35q14 -5 8 -20q-5 -10 -15 -34q-7 -13 -21 -8q-72 28 -113 28q-95 0 -99 -65z" />
    <glyph glyph-name="t" unicode="t" horiz-adv-x="341" 
d="M99 434h-49q-6 0 -10.5 4.5t-4.5 10.5v36q0 6 4.5 10.5t10.5 4.5h49l7 85q0 6 4.5 10.5t11.5 4.5h46q6 0 10.5 -4.5t4.5 -10.5v-85h92q6 0 10.5 -4.5t4.5 -10.5v-36q0 -6 -4.5 -10.5t-10.5 -4.5h-92v-302q0 -37 12.5 -56t51.5 -16q24 2 43 6q14 4 18 -11l5 -26
q3 -16 -12 -19q-51 -14 -102 -14q-26 0 -45.5 10.5t-29.5 24.5t-16 33t-7.5 31t-1.5 23v316z" />
    <glyph glyph-name="u" unicode="u" 
d="M413 143v342q0 6 4.5 10.5t10.5 4.5h53q6 0 10.5 -4.5t4.5 -10.5v-470q0 -6 -4.5 -10.5t-10.5 -4.5h-13q-15 0 -20 14l-15 48q-66 -70 -164 -70q-53 0 -92 15.5t-61 38.5t-35 58t-17 66.5t-4 71.5v243q0 6 4.5 10.5t10.5 4.5h54q6 0 10.5 -4.5t4.5 -10.5v-242v-27
t2.5 -30t7 -34.5t14 -30.5t22.5 -28t35 -17.5t49 -7.5q43 0 82.5 24.5t56.5 50.5z" />
    <glyph glyph-name="v" unicode="v" horiz-adv-x="512" 
d="M126 486l130 -336l130 336q5 14 20 14h61q5 0 8 -4.5t1 -9.5l-199 -481q-7 -13 -21 -13t-20 13l-200 481q-2 5 1 9.5t8 4.5h61q15 0 20 -14z" />
    <glyph glyph-name="w" unicode="w" horiz-adv-x="797" 
d="M541 150l130 336q5 14 20 14h61q5 0 8 -4.5t1 -9.5l-200 -481q-7 -13 -21 -13t-19 14l-123 323l-123 -324q-5 -13 -19 -13t-19 13l-201 481q-2 5 1 9.5t8 4.5h61q15 0 20 -14l130 -336l126 350q4 11 16 11t16 -11z" />
    <glyph glyph-name="x" unicode="x" horiz-adv-x="473" 
d="M334 13l-98 166l-98 -166q-8 -13 -23 -13h-70q-5 0 -7 4t0 9l154 236l-154 238q-2 5 0 9t7 4h68q15 0 23 -13l100 -170l100 170q8 13 23 13h68q5 0 7 -4.5t0 -8.5l-155 -238l156 -237q2 -4 -0.5 -8t-6.5 -4h-71q-15 0 -23 13z" />
    <glyph glyph-name="y" unicode="y" horiz-adv-x="565" 
d="M126 486l157 -379l152 379q7 14 21 14h64q5 0 8 -4.5t1 -9.5l-288 -679q-6 -14 -21 -14h-58q-5 0 -8 4.5t-1 9.5l86 203l-203 476q-2 5 1 9.5t8 4.5h60q14 0 21 -14z" />
    <glyph glyph-name="z" unicode="z" horiz-adv-x="477" 
d="M69 440v45q0 6 4.5 10.5t10.5 4.5h323q13 0 13 -13t-7 -23l-237 -389h231q6 0 10.5 -4.5t4.5 -10.5v-45q0 -6 -4.5 -10.5t-10.5 -4.5h-330q-6 0 -10.5 4.5t-4.5 10.5v3q0 14 8 28l227 379h-213q-6 0 -10.5 4.5t-4.5 10.5z" />
    <glyph glyph-name="braceleft" unicode="{" horiz-adv-x="290" 
d="M95 608q0 37 9.5 66.5t26.5 47t33 29.5t35.5 17t28.5 6.5t17 2.5q6 0 10.5 -4.5t4.5 -10.5v-27q0 -13 -15 -15q-67 -10 -67 -122v-215q0 -31 -20.5 -56t-53.5 -37q34 -11 54 -37t20 -59v-214q0 -112 67 -122q15 -2 15 -15v-27q0 -6 -4.5 -10.5t-10.5 -4.5q-8 1 -17 2.5
t-28.5 6.5t-35.5 17t-33 29.5t-26.5 47t-9.5 66.5v212q0 62 -51 80q-14 5 -14 19v16q0 14 14 19q51 20 51 80v212z" />
    <glyph glyph-name="bar" unicode="|" horiz-adv-x="177" 
d="M102 -198h-27q-6 0 -10.5 4.5t-4.5 10.5v944q0 6 4.5 10.5t10.5 4.5h27q6 0 10.5 -4.5t4.5 -10.5v-944q0 -6 -4.5 -10.5t-10.5 -4.5z" />
    <glyph glyph-name="braceright" unicode="}" horiz-adv-x="290" 
d="M45 777q8 -1 17 -2.5t28.5 -6.5t35.5 -17t33 -29.5t26.5 -47t9.5 -66.5v-212q0 -60 50 -80q15 -5 15 -19v-16q0 -14 -15 -19q-50 -18 -50 -80v-212q0 -37 -9.5 -66.5t-26.5 -47t-33 -29.5t-35.5 -17t-28.5 -6.5t-17 -2.5q-6 0 -10.5 4.5t-4.5 10.5v27q0 13 15 15
q67 10 67 122v214q0 33 20 59t54 37q-33 12 -53.5 37t-20.5 56v215q0 112 -67 122q-15 2 -15 15v27q0 6 4.5 10.5t10.5 4.5z" />
    <glyph glyph-name="asciitilde" unicode="~" horiz-adv-x="607" 
d="M97 245l-25 16q-13 9 -4 22q59 85 149 85q33 0 89 -32.5t90 -32.5q50 0 95 52q10 11 21 2l24 -21q11 -11 3 -23q-57 -87 -144 -87q-39 0 -96.5 33.5t-86.5 33.5q-51 0 -93 -46q-10 -10 -22 -2z" />
    <glyph glyph-name="exclamdown" unicode="&#xa1;" horiz-adv-x="303" 
d="M100 456q0 22 14.5 37t36.5 15t37 -15t15 -37t-15 -36.5t-37 -14.5t-36.5 14.5t-14.5 36.5zM193 87v-268q0 -6 -4.5 -10.5t-10.5 -4.5h-53q-6 0 -10.5 4.5t-4.5 10.5v268l16 194q0 6 4.5 10.5t11.5 4.5h16q6 0 11 -4.5t5 -10.5z" />
    <glyph glyph-name="cent" unicode="&#xa2;" horiz-adv-x="551" 
d="M318 -105h-27q-6 0 -10.5 4.5t-4.5 10.5v83q-61 5 -105.5 30.5t-67.5 65.5t-33 80.5t-10 84.5q0 40 11 79.5t34.5 78t67.5 65t103 32.5v72q0 6 4.5 10.5t10.5 4.5h27q6 0 10.5 -4.5t4.5 -10.5v-71q87 -8 147 -65q11 -11 0 -21l-33 -31q-10 -10 -23 -1q-45 37 -91 46v-379
q53 8 95 47q11 11 21 0l25 -29q10 -11 -1 -22q-58 -55 -140 -63v-82q0 -6 -4.5 -10.5t-10.5 -4.5zM143 254q0 -73 35 -127.5t98 -66.5v377q-58 -11 -95.5 -58.5t-37.5 -124.5z" />
    <glyph glyph-name="sterling" unicode="&#xa3;" horiz-adv-x="593" 
d="M82 6l-25 17q-5 3 -6.5 9t2.5 11q31 43 71 65v233h-45q-6 0 -10.5 4.5t-4.5 10.5v34q0 6 4.5 10.5t10.5 4.5h45v142q0 79 47.5 119.5t121.5 40.5q50 0 105 -19q14 -5 9 -19q0 -1 -4.5 -13.5t-6.5 -19.5q-5 -13 -19 -10q-44 14 -80 14q-86 0 -90 -87v-148h156
q6 0 10.5 -4.5t4.5 -10.5v-34q0 -6 -4.5 -10.5t-10.5 -4.5h-156v-212q37 -5 89 -34.5t86 -29.5q51 0 95 51q10 11 21 2l24 -20q11 -11 3 -23q-57 -87 -144 -87q-38 0 -96 33t-87 33q-52 0 -94 -45q-10 -10 -22 -3z" />
    <glyph glyph-name="currency" unicode="&#xa4;" horiz-adv-x="644" 
d="M518 271q0 -60 -32 -120l87 -87q11 -11 0 -22l-14 -14q-11 -11 -22 -1l-83 83q-56 -43 -132 -43q-78 0 -132 42q-12 -12 -40.5 -40t-41.5 -41q-11 -11 -22 -1l-15 15q-11 11 0 22l87 86q-33 59 -33 121q0 72 37 131l-91 91q-11 11 0 22l15 15q11 11 22 0l91 -91
q52 36 123 36t124 -37q14 14 45 45.5t46 46.5q11 11 21 0l15 -15q11 -11 0 -22l-92 -92q37 -59 37 -130zM322 144q34 0 57.5 14.5t34 37.5t14.5 41t4 34q0 15 -4 33.5t-14.5 41t-34 37.5t-57.5 15t-58 -15t-34.5 -37.5t-14.5 -41t-4 -33.5q0 -16 4 -34t14.5 -41t34.5 -37.5
t58 -14.5z" />
    <glyph glyph-name="yen" unicode="&#xa5;" horiz-adv-x="622" 
d="M467 87h-114v-72q0 -6 -4.5 -10.5t-10.5 -4.5h-56q-6 0 -10.5 4.5t-4.5 10.5v72h-112q-6 0 -10.5 4.5t-4.5 10.5v27q0 6 4.5 10.5t10.5 4.5h112v116h-112q-6 0 -10.5 4.5t-4.5 10.5v27q0 6 4.5 10.5t10.5 4.5h112l-229 370q-3 5 -0.5 9t7.5 4h66q15 0 23 -13l176 -290
l176 290q8 13 23 13h68q5 0 7 -4.5t0 -8.5l-231 -369v-1h114q6 0 10.5 -4.5t4.5 -10.5v-27q0 -6 -4.5 -10.5t-10.5 -4.5h-114v-116h114q6 0 10.5 -4.5t4.5 -10.5v-27q0 -6 -4.5 -10.5t-10.5 -4.5z" />
    <glyph glyph-name="brokenbar" unicode="&#xa6;" horiz-adv-x="176" 
d="M116 167v-351q0 -6 -4.5 -10.5t-10.5 -4.5h-26q-6 0 -10.5 4.5t-4.5 10.5v351q0 6 4.5 10.5t10.5 4.5h26q6 0 10.5 -4.5t4.5 -10.5zM116 759v-351q0 -6 -4.5 -10.5t-10.5 -4.5h-26q-6 0 -10.5 4.5t-4.5 10.5v351q0 6 4.5 10.5t10.5 4.5h26q6 0 10.5 -4.5t4.5 -10.5z" />
    <glyph glyph-name="section" unicode="&#xa7;" horiz-adv-x="567" 
d="M89 -127l25 32q9 12 21 3q71 -49 136 -53q44 0 78.5 25t34.5 70q0 39 -33 69.5t-105 65.5q-156 66 -156 189q0 76 78 132q-70 70 -70 139q0 62 50.5 113.5t141.5 51.5q80 0 161 -54q12 -9 4 -21q-5 -8 -14 -19.5t-11 -14.5q-9 -12 -22 -5q-63 34 -113 38
q-54 0 -81.5 -24.5t-30.5 -58.5q0 -69 113 -124q44 -21 73 -38t58.5 -41.5t44.5 -54t15 -64.5q0 -67 -84 -137q74 -83 74 -149q0 -73 -58.5 -118.5t-138.5 -45.5q-95 0 -188 72q-12 10 -3 22zM170 284q0 -25 11.5 -46t40.5 -42t45 -30.5t59 -31.5l3 -1.5l3 -1.5t3.5 -2
t3.5 -2q54 43 57 95q0 15 -6.5 29t-21 27.5t-26.5 23.5t-34 22t-31.5 16.5t-32.5 15.5l-23 10q-2 -2 -11.5 -10.5t-14.5 -14t-12 -15t-10 -20t-3 -22.5z" />
    <glyph glyph-name="dieresis" unicode="&#xa8;" horiz-adv-x="572" 
d="M110 643q0 22 14.5 37t36.5 15t37 -15t15 -37t-15 -36.5t-37 -14.5t-36.5 14.5t-14.5 36.5zM359 643q0 22 14.5 37t36.5 15t37 -15t15 -37t-15 -36.5t-37 -14.5t-36.5 14.5t-14.5 36.5z" />
    <glyph glyph-name="copyright" unicode="&#xa9;" horiz-adv-x="586" 
d="M293 702q105 0 179 -74.5t74 -179.5q0 -104 -74 -178.5t-179 -74.5q-100 0 -176.5 74.5t-76.5 181.5q0 99 74 175t179 76zM293 235q90 0 152 62t62 151q0 90 -62 152.5t-152 62.5t-152 -62.5t-62 -152.5q0 -89 62 -151t152 -62zM207 447q0 -42 25 -67.5t60 -25.5
q30 0 59 19q14 7 24 -2l6 -7q5 -4 5 -10t-5 -10q-40 -32 -89 -32q-68 0 -102 43.5t-34 91.5t34 92t102 44q49 0 89 -32q5 -4 5 -10t-5 -10l-6 -7q-10 -10 -23 -2q-30 19 -60 19q-34 0 -59.5 -26.5t-25.5 -67.5z" />
    <glyph glyph-name="ordfeminine" unicode="&#xaa;" horiz-adv-x="394" 
d="M183 710q40 2 69 -6.5t44.5 -22t24.5 -37t11 -43t2 -46.5v-210q0 -6 -4.5 -10.5t-10.5 -4.5h-3q-16 0 -19 14l-10 34q-58 -55 -117 -55q-39 0 -67 12t-40.5 30.5t-17.5 35t-5 31.5q0 59 37.5 87t95.5 28q39 0 98 -19v32q0 63 -19.5 81t-64.5 18q-32 0 -87 -20
q-15 -4 -20 9l-6 16q-7 14 7 20q51 23 102 26zM271 429v54q-52 16 -92 16q-34 0 -58 -16t-24 -44q0 -32 21.5 -49.5t53.5 -17.5t59 17.5t40 39.5z" />
    <glyph glyph-name="guillemotleft" unicode="&#xab;" horiz-adv-x="447" 
d="M105 251l121 -144q11 -11 -1 -21l-12 -12q-12 -10 -21 1l-159 167q-3 4 -3 9t3 9l159 168q9 11 21 1l13 -13q11 -11 1 -21zM285 251l121 -144q11 -11 -1 -21l-12 -12q-12 -10 -21 1l-159 167q-3 4 -3 9t3 9l159 168q9 11 21 1l13 -13q11 -11 1 -21z" />
    <glyph glyph-name="logicalnot" unicode="&#xac;" horiz-adv-x="627" 
d="M547 405v-279q0 -6 -4.5 -10.5t-10.5 -4.5h-103q-6 0 -10.5 4.5t-4.5 10.5v174h-319q-6 0 -10.5 4.5t-4.5 10.5v90q0 6 4.5 10.5t10.5 4.5h437q6 0 10.5 -4.5t4.5 -10.5z" />
    <glyph glyph-name="uni00AD" unicode="&#xad;" horiz-adv-x="400" 
d="M76 234h252q6 0 10.5 -4.5t4.5 -10.5v-32q0 -6 -4.5 -10.5t-10.5 -4.5h-252q-6 0 -10.5 4.5t-4.5 10.5v32q0 6 4.5 10.5t10.5 4.5z" />
    <glyph glyph-name="registered" unicode="&#xae;" horiz-adv-x="586" 
d="M293 702q105 0 179 -74.5t74 -179.5q0 -104 -74 -178.5t-179 -74.5q-100 0 -176.5 74.5t-76.5 181.5q0 99 74 175t179 76zM293 235q90 0 152 62t62 151q0 90 -62 152.5t-152 62.5t-152 -62.5t-62 -152.5q0 -89 62 -151t152 -62zM247 409v-79q0 -6 -4.5 -10.5t-10.5 -4.5
h-11q-6 0 -10.5 4.5t-4.5 10.5v242q0 6 4.5 10.5t10.5 4.5h89q50 0 73.5 -27.5t23.5 -61.5q0 -28 -16.5 -52t-43.5 -33l43 -85q2 -5 -0.5 -9t-7.5 -4h-13q-15 0 -22 13l-41 81h-59zM247 447h67q28 0 39 17t11 34q0 20 -11.5 36t-40.5 16h-65v-103z" />
    <glyph glyph-name="macron" unicode="&#xaf;" horiz-adv-x="516" 
d="M128 651h271q6 0 10.5 -4.5t4.5 -10.5v-25q0 -6 -4.5 -10.5t-10.5 -4.5h-271q-6 0 -10.5 4.5t-4.5 10.5v25q0 6 4.5 10.5t10.5 4.5z" />
    <glyph glyph-name="degree" unicode="&#xb0;" horiz-adv-x="330" 
d="M165 440q-56 0 -95.5 39.5t-39.5 95.5t39.5 95.5t95.5 39.5t95.5 -39.5t39.5 -95.5t-39.5 -95.5t-95.5 -39.5zM165 486q37 0 62.5 25.5t25.5 63.5q0 37 -25.5 62.5t-62.5 25.5q-38 0 -63.5 -25.5t-25.5 -62.5q0 -38 25.5 -63.5t63.5 -25.5z" />
    <glyph glyph-name="plusminus" unicode="&#xb1;" horiz-adv-x="553" 
d="M95 98h363q6 0 10.5 -4.5t4.5 -10.5v-28q0 -6 -4.5 -10.5t-10.5 -4.5h-363q-6 0 -10.5 4.5t-4.5 10.5v28q0 6 4.5 10.5t10.5 4.5zM247 298h-152q-6 0 -10.5 4.5t-4.5 10.5v29q0 6 4.5 10.5t10.5 4.5h152v152q0 6 4.5 10.5t10.5 4.5h29q6 0 10.5 -4.5t4.5 -10.5v-152h152
q6 0 10.5 -4.5t4.5 -10.5v-29q0 -6 -4.5 -10.5t-10.5 -4.5h-152v-110q0 -6 -4.5 -10.5t-10.5 -4.5h-29q-6 0 -10.5 4.5t-4.5 10.5v110z" />
    <glyph glyph-name="twosuperior" unicode="&#xb2;" horiz-adv-x="263" 
d="M44 732l-9 8q-10 12 1 21q45 42 95 42q47 0 75.5 -27.5t25.5 -76.5q-4 -32 -42 -83l-79 -99h98q6 0 10.5 -4.5t4.5 -10.5v-16q0 -6 -4.5 -10.5t-10.5 -4.5h-170q-9 0 -9 9q0 11 6 17l117 149q27 32 30 54q7 60 -51 60q-30 0 -67 -29q-11 -11 -21 1z" />
    <glyph glyph-name="threesuperior" unicode="&#xb3;" horiz-adv-x="257" 
d="M227 707q0 -43 -38 -74q38 -31 38 -72q0 -35 -24.5 -65.5t-83.5 -30.5q-49 0 -88 31q-12 10 -1 21l7 9q10 12 22 3q36 -23 60 -23q25 0 42.5 14.5t17.5 40.5t-17 39t-43 13h-26q-6 0 -10.5 4.5t-4.5 10.5v11q0 6 4.5 10.5t10.5 4.5h26q25 0 42.5 13.5t17.5 39.5t-17.5 40
t-42.5 14q-26 0 -59 -21q-12 -7 -22 3l-6 7q-10 10 1 21q40 32 86 32q59 0 83.5 -30.5t24.5 -65.5z" />
    <glyph glyph-name="acute" unicode="&#xb4;" horiz-adv-x="510" 
d="M218 640l131 97q5 4 11 2.5t9 -6.5l22 -32q8 -12 -5 -20l-138 -84q-13 -9 -22 4l-12 18q-8 12 4 21z" />
    <glyph glyph-name="mu" unicode="&#xb5;" horiz-adv-x="596" 
d="M80 -184v670q0 6 4.5 10.5t10.5 4.5h54q6 0 10.5 -4.5t4.5 -10.5v-265q0 -152 130 -152q43 0 82.5 24.5t56.5 50.5v342q0 6 4.5 10.5t10.5 4.5h53q6 0 10.5 -4.5t4.5 -10.5v-470q0 -6 -4.5 -10.5t-10.5 -4.5h-13q-15 0 -20 14l-15 48q-66 -70 -164 -70q-82 0 -125 46
v-223q0 -6 -4.5 -10.5t-10.5 -4.5h-54q-6 0 -10.5 4.5t-4.5 10.5z" />
    <glyph glyph-name="mu" unicode="&#x3bc;" horiz-adv-x="596" 
d="M80 -184v670q0 6 4.5 10.5t10.5 4.5h54q6 0 10.5 -4.5t4.5 -10.5v-265q0 -152 130 -152q43 0 82.5 24.5t56.5 50.5v342q0 6 4.5 10.5t10.5 4.5h53q6 0 10.5 -4.5t4.5 -10.5v-470q0 -6 -4.5 -10.5t-10.5 -4.5h-13q-15 0 -20 14l-15 48q-66 -70 -164 -70q-82 0 -125 46
v-223q0 -6 -4.5 -10.5t-10.5 -4.5h-54q-6 0 -10.5 4.5t-4.5 10.5z" />
    <glyph glyph-name="paragraph" unicode="&#xb6;" horiz-adv-x="657" 
d="M40 496q0 34 10 67.5t31.5 65.5t62 51.5t94.5 19.5h324q6 0 10.5 -4.5t4.5 -10.5v-21q0 -6 -4.5 -10.5t-10.5 -4.5h-58v-832q0 -6 -4.5 -10.5t-10.5 -4.5h-21q-6 0 -10.5 4.5t-4.5 10.5v832h-134v-832q0 -6 -4.5 -10.5t-10.5 -4.5h-21q-6 0 -10.5 4.5t-4.5 10.5v475h-30
q-54 0 -94.5 19.5t-62 51.5t-31.5 65.5t-10 67.5z" />
    <glyph glyph-name="periodcentered" unicode="&#xb7;" horiz-adv-x="236" 
d="M60 297q0 24 16.5 40.5t40.5 16.5t41.5 -16.5t17.5 -40.5q0 -25 -17.5 -42t-41.5 -17t-40.5 17t-16.5 42z" />
    <glyph glyph-name="cedilla" unicode="&#xb8;" horiz-adv-x="554" 
d="M275 -76q-3 3 -3 7v83q0 6 4.5 10.5t10.5 4.5h18q6 0 10.5 -4.5t4.5 -10.5v-51h13q42 -2 64.5 -27t22.5 -55q0 -49 -30 -75.5t-72 -26.5q-39 0 -69 17q-14 7 -6 21l6 14q6 13 20 7q24 -10 44 -10q28 0 40.5 16t12.5 33t-13 30.5t-42 13.5h-29q-4 0 -7 3z" />
    <glyph glyph-name="onesuperior" unicode="&#xb9;" horiz-adv-x="198" 
d="M148 787v-303q0 -6 -4.5 -10.5t-10.5 -4.5h-21q-6 0 -10.5 4.5t-4.5 10.5v236l-43 -26q-13 -9 -21 4l-5 7q-8 14 4 22l84 65q11 7 20 7q12 0 12 -12z" />
    <glyph glyph-name="ordmasculine" unicode="&#xba;" horiz-adv-x="378" 
d="M189 706q54 0 89 -26.5t47.5 -59.5t12.5 -69q0 -27 -7.5 -52t-23.5 -49.5t-46.5 -39t-71.5 -14.5t-71.5 14.5t-46.5 39t-23.5 49.5t-7.5 52q0 36 12.5 69t47.5 59.5t89 26.5zM189 442q29 0 49.5 12.5t29 32t12 35t3.5 29.5q0 13 -3.5 28.5t-12 34.5t-29 31.5t-49.5 12.5
t-49.5 -12.5t-29 -31.5t-12 -34.5t-3.5 -28.5q0 -14 3.5 -29.5t12 -35t29 -32t49.5 -12.5zM74 299h229q6 0 10.5 -4.5t4.5 -10.5v-19q0 -6 -4.5 -10.5t-10.5 -4.5h-229q-6 0 -10.5 4.5t-4.5 10.5v19q0 6 4.5 10.5t10.5 4.5z" />
    <glyph glyph-name="guillemotright" unicode="&#xbb;" horiz-adv-x="447" 
d="M221 107l121 144l-122 144q-10 10 1 21l13 13q12 10 21 -1l159 -168q3 -4 3 -9t-3 -9l-159 -167q-9 -11 -21 -1l-12 12q-12 10 -1 21zM41 107l121 144l-122 144q-10 10 1 21l13 13q12 10 21 -1l159 -168q3 -4 3 -9t-3 -9l-159 -167q-9 -11 -21 -1l-12 12q-12 10 -1 21z
" />
    <glyph glyph-name="onequarter" unicode="&#xbc;" horiz-adv-x="544" 
d="M148 690v-305q0 -6 -4.5 -10.5t-10.5 -4.5h-21q-6 0 -10.5 4.5t-4.5 10.5v236q-9 -5 -43 -27q-14 -8 -21 5l-5 7q-8 14 4 22l89 66q7 6 17 6t10 -10zM452 687l-335 -674q-7 -13 -22 -13h-31q-5 0 -7.5 4t-0.5 9l336 674q6 13 22 13h30q5 0 7.5 -4t0.5 -9zM449 64v-49
q0 -6 -4.5 -10.5t-10.5 -4.5h-21q-6 0 -10.5 4.5t-4.5 10.5v49h-128q-14 0 -14 14t8 27l136 210q8 13 23 13h11q6 0 10.5 -4.5t4.5 -10.5v-204h30q6 0 10.5 -4.5t4.5 -10.5v-15q0 -6 -4.5 -10.5t-10.5 -4.5h-30zM398 231l-79 -122h79v122z" />
    <glyph glyph-name="onehalf" unicode="&#xbd;" horiz-adv-x="585" 
d="M452 687l-335 -674q-7 -13 -22 -13h-31q-5 0 -7.5 4t-0.5 9l336 674q6 13 22 13h30q5 0 7.5 -4t0.5 -9zM336 261l-9 8q-10 12 1 21q45 42 95 42q47 0 75.5 -27.5t25.5 -76.5q-4 -32 -42 -83l-88 -99h107q6 0 10.5 -4.5t4.5 -10.5v-16q0 -6 -4.5 -10.5t-10.5 -4.5h-168
q-13 0 -13 13q0 12 8 23l117 139q27 29 30 54q4 24 -7.5 42t-43.5 18q-30 0 -67 -29q-11 -11 -21 1zM148 687v-302q0 -6 -4.5 -10.5t-10.5 -4.5h-21q-6 0 -10.5 4.5t-4.5 10.5v236q-9 -5 -43 -27q-14 -8 -21 5l-5 7q-8 14 4 22l81 64q10 8 22 8q13 0 13 -13z" />
    <glyph glyph-name="threequarters" unicode="&#xbe;" horiz-adv-x="599" 
d="M497 687l-335 -674q-6 -13 -22 -13h-31q-5 0 -7.5 4t-0.5 9l336 674q7 13 22 13h30q5 0 7.5 -4t0.5 -9zM494 64v-49q0 -6 -4.5 -10.5t-10.5 -4.5h-21q-6 0 -10.5 4.5t-4.5 10.5v49h-128q-14 0 -14 14t8 27l136 210q8 13 23 13h11q6 0 10.5 -4.5t4.5 -10.5v-204h30
q6 0 10.5 -4.5t4.5 -10.5v-15q0 -6 -4.5 -10.5t-10.5 -4.5h-30zM443 231l-79 -122h79v122zM237 608q0 -43 -38 -74q38 -31 38 -72q0 -35 -24.5 -65.5t-83.5 -30.5q-49 0 -88 31q-12 10 -1 21l7 9q10 12 22 3q36 -23 60 -23q25 0 42.5 14.5t17.5 40.5t-17 39t-43 13h-26
q-6 0 -10.5 4.5t-4.5 10.5v11q0 6 4.5 10.5t10.5 4.5h26q25 0 42.5 13.5t17.5 39.5t-17.5 40t-42.5 14q-26 0 -59 -21q-12 -7 -22 3l-6 7q-10 10 1 21q40 32 86 32q59 0 83.5 -30.5t24.5 -65.5z" />
    <glyph glyph-name="questiondown" unicode="&#xbf;" horiz-adv-x="540" 
d="M324 454q0 -22 -15.5 -36.5t-37.5 -14.5q-23 0 -38 14.5t-15 36.5t15 37t38 15q22 0 37.5 -15t15.5 -37zM234 243v46q0 6 4.5 10.5t10.5 4.5h45q6 0 10.5 -4.5t4.5 -10.5v-47q0 -24 -11 -49t-23 -40t-34 -40q-3 -4 -12.5 -15t-13 -15.5t-11.5 -14.5t-11 -15.5t-9 -15.5
t-8.5 -17.5t-6 -17.5t-4.5 -20t-1 -21q0 -16 4 -31.5t15 -32t34.5 -26t56.5 -8.5q36 1 64 17t65 50q11 10 22 -1l24 -24q11 -9 1 -21q-46 -48 -90.5 -68.5t-105.5 -20.5q-77 0 -125.5 43t-48.5 122q0 77 94 182q57 65 60 101z" />
    <glyph glyph-name="Agrave" unicode="&#xc0;" horiz-adv-x="683" 
d="M552 14l-73 179h-278l-72 -179q-6 -14 -21 -14h-63q-5 0 -8 4.5t-1 9.5l284 679q5 13 20 13q13 0 18 -13l289 -679q2 -5 -1 -9.5t-8 -4.5h-65q-15 0 -21 14zM339 536l-110 -273h221zM295 937l131 -97q13 -9 3 -21l-12 -18q-8 -13 -21 -4l-138 84q-13 8 -5 20l22 32
q7 13 20 4z" />
    <glyph glyph-name="Aacute" unicode="&#xc1;" horiz-adv-x="683" 
d="M552 14l-73 179h-278l-72 -179q-6 -14 -21 -14h-63q-5 0 -8 4.5t-1 9.5l284 679q5 13 20 13q13 0 18 -13l289 -679q2 -5 -1 -9.5t-8 -4.5h-65q-15 0 -21 14zM339 536l-110 -273h221zM388 937q13 9 20 -4l22 -32q8 -12 -5 -20l-138 -84q-13 -9 -21 4l-12 18q-10 12 3 21z
" />
    <glyph glyph-name="Acircumflex" unicode="&#xc2;" horiz-adv-x="683" 
d="M552 14l-73 179h-278l-72 -179q-6 -14 -21 -14h-63q-5 0 -8 4.5t-1 9.5l284 679q5 13 20 13q13 0 18 -13l289 -679q2 -5 -1 -9.5t-8 -4.5h-65q-15 0 -21 14zM339 536l-110 -273h221zM353 937l131 -97q13 -9 3 -21l-12 -18q-8 -13 -21 -4l-113 69l-113 -69q-13 -9 -22 4
l-12 18q-8 12 4 21l131 97q12 9 24 0z" />
    <glyph glyph-name="Atilde" unicode="&#xc3;" horiz-adv-x="683" 
d="M552 14l-73 179h-278l-72 -179q-6 -14 -21 -14h-63q-5 0 -8 4.5t-1 9.5l284 679q5 13 20 13q13 0 18 -13l289 -679q2 -5 -1 -9.5t-8 -4.5h-65q-15 0 -21 14zM339 536l-110 -273h221zM462 886l20 -11q13 -8 6 -20q-36 -62 -98 -62q-22 0 -52 20t-52 20q-28 0 -47 -28
q-9 -12 -22 -7l-17 8q-13 7 -8 21q29 68 95 68q25 0 55.5 -20t49.5 -20q27 0 48 26q10 12 22 5z" />
    <glyph glyph-name="Adieresis" unicode="&#xc4;" horiz-adv-x="683" 
d="M165 843q0 22 14.5 37t36.5 15t37 -15t15 -37t-15 -36.5t-37 -14.5t-36.5 14.5t-14.5 36.5zM414 843q0 22 14.5 37t36.5 15t37 -15t15 -37t-15 -36.5t-37 -14.5t-36.5 14.5t-14.5 36.5zM552 14l-73 179h-278l-72 -179q-6 -14 -21 -14h-63q-5 0 -8 4.5t-1 9.5l284 679
q5 13 20 13q13 0 18 -13l289 -679q2 -5 -1 -9.5t-8 -4.5h-65q-15 0 -21 14zM339 536l-110 -273h221z" />
    <glyph glyph-name="Aring" unicode="&#xc5;" horiz-adv-x="683" 
d="M240 888q0 42 30 72t72 30t71.5 -30t29.5 -72t-29.5 -71.5t-71.5 -29.5t-72 29.5t-30 71.5zM293 888q0 -19 14.5 -33.5t34.5 -14.5q19 0 33.5 14.5t14.5 33.5q0 20 -14.5 34.5t-33.5 14.5q-20 0 -34.5 -14.5t-14.5 -34.5zM552 14l-73 179h-278l-72 -179q-6 -14 -21 -14
h-63q-5 0 -8 4.5t-1 9.5l284 679q5 13 20 13q13 0 18 -13l289 -679q2 -5 -1 -9.5t-8 -4.5h-65q-15 0 -21 14zM339 536l-110 -273h221z" />
    <glyph glyph-name="AE" unicode="&#xc6;" horiz-adv-x="852" 
d="M697 309h-273v-237h353q6 0 10.5 -4.5t4.5 -10.5v-42q0 -6 -4.5 -10.5t-10.5 -4.5h-423q-6 0 -10.5 4.5t-4.5 10.5v178h-137l-73 -179q-6 -14 -21 -14h-63q-5 0 -8 4.5t-1 9.5l285 672q7 14 21 14h435q6 0 10.5 -4.5t4.5 -10.5v-42q0 -6 -4.5 -10.5t-10.5 -4.5h-353v-247
h273q6 0 10.5 -4.5t4.5 -10.5v-42q0 -6 -4.5 -10.5t-10.5 -4.5zM339 526l-108 -263h108v263z" />
    <glyph glyph-name="Ccedilla" unicode="&#xc7;" horiz-adv-x="718" 
d="M375 -76q-3 3 -3 7v62q-69 5 -124.5 30.5t-89.5 62t-57 84t-32 92.5t-9 91q0 47 10 93.5t35.5 95.5t63 86t99 60.5t138.5 23.5q144 0 241 -94q11 -11 0 -22l-31 -31q-11 -9 -22 0q-90 74 -188 74q-64 0 -113.5 -23.5t-76 -56.5t-43 -75.5t-21.5 -73t-5 -57.5t5 -58
t21.5 -73t43 -75t76 -56t113.5 -23q98 0 190 71q12 9 21 -2q3 -4 31 -37q8 -12 -2 -22q-94 -83 -226 -87v-28h13q41 -2 64 -27t23 -55q2 -48 -29 -75t-73 -27q-39 0 -69 17q-14 7 -6 21l6 14q6 13 20 7q24 -10 44 -10q29 0 41 16.5t12 34.5q-1 17 -14.5 29.5t-40.5 12.5h-29
q-4 0 -7 3z" />
    <glyph glyph-name="Egrave" unicode="&#xc8;" horiz-adv-x="613" 
d="M458 309h-273v-237h353q6 0 10.5 -4.5t4.5 -10.5v-42q0 -6 -4.5 -10.5t-10.5 -4.5h-423q-6 0 -10.5 4.5t-4.5 10.5v670q0 6 4.5 10.5t10.5 4.5h423q6 0 10.5 -4.5t4.5 -10.5v-42q0 -6 -4.5 -10.5t-10.5 -4.5h-353v-247h273q6 0 10.5 -4.5t4.5 -10.5v-42q0 -6 -4.5 -10.5
t-10.5 -4.5zM260 937l131 -97q13 -9 3 -21l-12 -18q-8 -13 -21 -4l-138 84q-13 8 -5 20l22 32q7 13 20 4z" />
    <glyph glyph-name="Eacute" unicode="&#xc9;" horiz-adv-x="613" 
d="M458 309h-273v-237h353q6 0 10.5 -4.5t4.5 -10.5v-42q0 -6 -4.5 -10.5t-10.5 -4.5h-423q-6 0 -10.5 4.5t-4.5 10.5v670q0 6 4.5 10.5t10.5 4.5h423q6 0 10.5 -4.5t4.5 -10.5v-42q0 -6 -4.5 -10.5t-10.5 -4.5h-353v-247h273q6 0 10.5 -4.5t4.5 -10.5v-42q0 -6 -4.5 -10.5
t-10.5 -4.5zM222 840l131 97q5 4 11 2.5t9 -6.5l22 -32q8 -12 -5 -20l-138 -84q-13 -9 -22 4l-12 18q-8 12 4 21z" />
    <glyph glyph-name="Ecircumflex" unicode="&#xca;" horiz-adv-x="613" 
d="M458 309h-273v-237h353q6 0 10.5 -4.5t4.5 -10.5v-42q0 -6 -4.5 -10.5t-10.5 -4.5h-423q-6 0 -10.5 4.5t-4.5 10.5v670q0 6 4.5 10.5t10.5 4.5h423q6 0 10.5 -4.5t4.5 -10.5v-42q0 -6 -4.5 -10.5t-10.5 -4.5h-353v-247h273q6 0 10.5 -4.5t4.5 -10.5v-42q0 -6 -4.5 -10.5
t-10.5 -4.5zM318 937l131 -97q13 -9 3 -21l-12 -18q-8 -13 -21 -4l-113 69l-113 -69q-13 -9 -22 4l-12 18q-8 12 4 21l131 97q12 9 24 0z" />
    <glyph glyph-name="Edieresis" unicode="&#xcb;" horiz-adv-x="613" 
d="M130 843q0 22 14.5 37t36.5 15t37 -15t15 -37t-15 -36.5t-37 -14.5t-36.5 14.5t-14.5 36.5zM379 843q0 22 14.5 37t36.5 15t37 -15t15 -37t-15 -36.5t-37 -14.5t-36.5 14.5t-14.5 36.5zM458 309h-273v-237h353q6 0 10.5 -4.5t4.5 -10.5v-42q0 -6 -4.5 -10.5t-10.5 -4.5
h-423q-6 0 -10.5 4.5t-4.5 10.5v670q0 6 4.5 10.5t10.5 4.5h423q6 0 10.5 -4.5t4.5 -10.5v-42q0 -6 -4.5 -10.5t-10.5 -4.5h-353v-247h273q6 0 10.5 -4.5t4.5 -10.5v-42q0 -6 -4.5 -10.5t-10.5 -4.5z" />
    <glyph glyph-name="Igrave" unicode="&#xcc;" horiz-adv-x="233" 
d="M159 685v-670q0 -6 -4.5 -10.5t-10.5 -4.5h-55q-6 0 -10.5 4.5t-4.5 10.5v670q0 6 4.5 10.5t10.5 4.5h55q6 0 10.5 -4.5t4.5 -10.5zM70 937l131 -97q13 -9 3 -21l-12 -18q-8 -13 -21 -4l-138 84q-13 8 -5 20l22 32q7 13 20 4z" />
    <glyph glyph-name="Iacute" unicode="&#xcd;" horiz-adv-x="233" 
d="M74 15v670q0 6 4.5 10.5t10.5 4.5h55q6 0 10.5 -4.5t4.5 -10.5v-670q0 -6 -4.5 -10.5t-10.5 -4.5h-55q-6 0 -10.5 4.5t-4.5 10.5zM32 840l131 97q13 9 20 -4l22 -32q8 -12 -5 -20l-138 -84q-13 -9 -21 4l-12 18q-10 12 3 21z" />
    <glyph glyph-name="Icircumflex" unicode="&#xce;" horiz-adv-x="310" 
d="M197 685v-670q0 -6 -4.5 -10.5t-10.5 -4.5h-55q-6 0 -10.5 4.5t-4.5 10.5v670q0 6 4.5 10.5t10.5 4.5h55q6 0 10.5 -4.5t4.5 -10.5zM167 937l131 -97q13 -9 3 -21l-12 -18q-8 -13 -21 -4l-113 69l-113 -69q-13 -9 -22 4l-12 18q-8 12 4 21l131 97q12 9 24 0z" />
    <glyph glyph-name="Idieresis" unicode="&#xcf;" horiz-adv-x="352" 
d="M218 685v-670q0 -6 -4.5 -10.5t-10.5 -4.5h-55q-6 0 -10.5 4.5t-4.5 10.5v670q0 6 4.5 10.5t10.5 4.5h55q6 0 10.5 -4.5t4.5 -10.5zM2 858q11 37 49 37q22 0 37 -15t15 -37t-15 -36.5t-37 -14.5q-18 0 -31 10t-18 26q-4 15 0 30zM249 843q0 22 14.5 37t36.5 15t37 -15
t15 -37t-15 -36.5t-37 -14.5t-36.5 14.5t-14.5 36.5z" />
    <glyph glyph-name="Eth" unicode="&#xd0;" horiz-adv-x="736" 
d="M106 700h224q77 0 138.5 -22.5t99 -58t63 -83t35.5 -93t10 -92.5q0 -48 -10 -94.5t-35 -93.5t-63.5 -82.5t-99.5 -58t-138 -22.5h-224q-6 0 -10.5 4.5t-4.5 10.5v300h-46q-6 0 -10.5 4.5t-4.5 10.5v31q0 6 4.5 10.5t10.5 4.5h46v309q0 6 4.5 10.5t10.5 4.5zM176 376h173
q6 0 10.5 -4.5t4.5 -10.5v-31q0 -6 -4.5 -10.5t-10.5 -4.5h-173v-243h154q64 0 113.5 22.5t76 54.5t43 73t21.5 71.5t5 57.5t-5 57t-21.5 71.5t-43 73t-76 54t-113.5 22.5h-154v-253z" />
    <glyph glyph-name="Ntilde" unicode="&#xd1;" horiz-adv-x="763" 
d="M171 0h-56q-6 0 -10.5 4.5t-4.5 10.5v676q0 6 4.5 10.5t10.5 4.5h1q16 0 25 -11l437 -505v495q0 6 4.5 10.5t10.5 4.5h55q6 0 10.5 -4.5t4.5 -10.5v-677q0 -14 -15 -14t-24 11l-438 507v-497q0 -6 -4.5 -10.5t-10.5 -4.5zM502 886l20 -11q13 -8 6 -20q-36 -62 -98 -62
q-22 0 -51.5 20t-52.5 20q-28 0 -47 -28q-9 -12 -22 -7l-17 8q-13 7 -8 21q29 68 95 68q25 0 55.5 -20t49.5 -20q27 0 48 26q10 12 22 5z" />
    <glyph glyph-name="Ograve" unicode="&#xd2;" horiz-adv-x="812" 
d="M406 710q77 0 138.5 -23.5t99 -60.5t63 -86t35.5 -95.5t10 -93.5q0 -48 -10 -95.5t-35.5 -96t-63 -85t-99 -60t-138.5 -23.5t-138.5 23.5t-99 60t-63 85t-35.5 96t-10 95.5q0 47 10 93.5t35.5 95.5t63 86t99 60.5t138.5 23.5zM406 68q64 0 113 23t75.5 55.5t43.5 74.5
t21.5 72.5t4.5 57.5q0 26 -5 56.5t-21.5 72.5t-43 74t-75.5 55t-113 23t-113.5 -23t-76 -55t-43 -74t-21.5 -72.5t-5 -56.5q0 -27 5 -57.5t21.5 -72.5t43 -74.5t76 -55.5t113.5 -23zM359 937l131 -97q13 -9 3 -21l-12 -18q-8 -13 -21 -4l-138 84q-13 8 -5 20l22 32
q7 13 20 4z" />
    <glyph glyph-name="Oacute" unicode="&#xd3;" horiz-adv-x="812" 
d="M406 710q77 0 138.5 -23.5t99 -60.5t63 -86t35.5 -95.5t10 -93.5q0 -48 -10 -95.5t-35.5 -96t-63 -85t-99 -60t-138.5 -23.5t-138.5 23.5t-99 60t-63 85t-35.5 96t-10 95.5q0 47 10 93.5t35.5 95.5t63 86t99 60.5t138.5 23.5zM406 68q64 0 113 23t75.5 55.5t43.5 74.5
t21.5 72.5t4.5 57.5q0 26 -5 56.5t-21.5 72.5t-43 74t-75.5 55t-113 23t-113.5 -23t-76 -55t-43 -74t-21.5 -72.5t-5 -56.5q0 -27 5 -57.5t21.5 -72.5t43 -74.5t76 -55.5t113.5 -23zM321 840l131 97q13 9 20 -4l22 -32q8 -12 -5 -20l-138 -84q-13 -9 -21 4l-12 18
q-10 12 3 21z" />
    <glyph glyph-name="Ocircumflex" unicode="&#xd4;" horiz-adv-x="812" 
d="M406 710q77 0 138.5 -23.5t99 -60.5t63 -86t35.5 -95.5t10 -93.5q0 -48 -10 -95.5t-35.5 -96t-63 -85t-99 -60t-138.5 -23.5t-138.5 23.5t-99 60t-63 85t-35.5 96t-10 95.5q0 47 10 93.5t35.5 95.5t63 86t99 60.5t138.5 23.5zM406 68q64 0 113 23t75.5 55.5t43.5 74.5
t21.5 72.5t4.5 57.5q0 26 -5 56.5t-21.5 72.5t-43 74t-75.5 55t-113 23t-113.5 -23t-76 -55t-43 -74t-21.5 -72.5t-5 -56.5q0 -27 5 -57.5t21.5 -72.5t43 -74.5t76 -55.5t113.5 -23zM413 937l131 -97q13 -9 3 -21l-12 -18q-8 -13 -21 -4l-113 69l-113 -69q-13 -9 -22 4
l-12 18q-8 12 4 21l131 97q12 9 24 0z" />
    <glyph glyph-name="Otilde" unicode="&#xd5;" horiz-adv-x="812" 
d="M406 710q77 0 138.5 -23.5t99 -60.5t63 -86t35.5 -95.5t10 -93.5q0 -48 -10 -95.5t-35.5 -96t-63 -85t-99 -60t-138.5 -23.5t-138.5 23.5t-99 60t-63 85t-35.5 96t-10 95.5q0 47 10 93.5t35.5 95.5t63 86t99 60.5t138.5 23.5zM406 68q64 0 113 23t75.5 55.5t43.5 74.5
t21.5 72.5t4.5 57.5q0 26 -5 56.5t-21.5 72.5t-43 74t-75.5 55t-113 23t-113.5 -23t-76 -55t-43 -74t-21.5 -72.5t-5 -56.5q0 -27 5 -57.5t21.5 -72.5t43 -74.5t76 -55.5t113.5 -23zM527 886l20 -11q13 -8 6 -20q-36 -62 -98 -62q-23 0 -52 20t-52 20q-28 0 -47 -28
q-9 -12 -22 -7l-17 8q-13 7 -8 21q29 68 95 68q25 0 55.5 -20t49.5 -20q27 0 48 26q10 12 22 5z" />
    <glyph glyph-name="Odieresis" unicode="&#xd6;" horiz-adv-x="812" 
d="M406 710q77 0 138.5 -23.5t99 -60.5t63 -86t35.5 -95.5t10 -93.5q0 -48 -10 -95.5t-35.5 -96t-63 -85t-99 -60t-138.5 -23.5t-138.5 23.5t-99 60t-63 85t-35.5 96t-10 95.5q0 47 10 93.5t35.5 95.5t63 86t99 60.5t138.5 23.5zM406 68q64 0 113 23t75.5 55.5t43.5 74.5
t21.5 72.5t4.5 57.5q0 26 -5 56.5t-21.5 72.5t-43 74t-75.5 55t-113 23t-113.5 -23t-76 -55t-43 -74t-21.5 -72.5t-5 -56.5q0 -27 5 -57.5t21.5 -72.5t43 -74.5t76 -55.5t113.5 -23zM230 843q0 22 14.5 37t36.5 15t37 -15t15 -37t-15 -36.5t-37 -14.5t-36.5 14.5t-14.5 36.5
zM479 843q0 22 14.5 37t36.5 15t37 -15t15 -37t-15 -36.5t-37 -14.5t-36.5 14.5t-14.5 36.5z" />
    <glyph glyph-name="multiply" unicode="&#xd7;" horiz-adv-x="524" 
d="M152 346l109 -109l109 109q11 11 22 1l20 -20q11 -10 0 -21l-109 -109l110 -110q11 -11 0 -22l-20 -20q-11 -11 -22 0l-110 110l-110 -110q-11 -11 -21 0l-20 20q-10 11 1 22l109 110l-108 109q-11 11 0 22l18 18q11 11 22 0z" />
    <glyph glyph-name="Oslash" unicode="&#xd8;" horiz-adv-x="812" 
d="M655 613q97 -101 97 -262q0 -48 -10 -95.5t-35.5 -96t-63 -85t-99 -60t-138.5 -23.5q-133 0 -218 67l-38 -46q-11 -11 -22 -1l-20 16q-11 11 -1 21l40 49q-87 99 -87 254q0 47 10 93.5t35.5 95.5t63 86t99 60.5t138.5 23.5q122 0 207 -60l38 45q11 12 21 2l20 -16
q12 -10 2 -22zM147 351q0 -110 56 -188l356 423q-63 46 -153 46q-64 0 -113.5 -23t-76 -55t-43 -74t-21.5 -72.5t-5 -56.5zM406 68q64 0 113 23t75.5 55.5t43.5 74.5t21.5 72.5t4.5 57.5q0 115 -64 196l-358 -425q66 -54 164 -54z" />
    <glyph glyph-name="Ugrave" unicode="&#xd9;" horiz-adv-x="720" 
d="M447 819l-12 -18q-8 -13 -21 -4l-138 84q-13 8 -5 20l22 32q7 13 20 4l131 -97q13 -9 3 -21zM559 700h56q6 0 10.5 -4.5t4.5 -10.5v-421q0 -47 -14.5 -92t-45 -86.5t-85 -67t-126.5 -25.5q-71 0 -125.5 25.5t-84.5 67t-44.5 86.5t-14.5 92v421q0 6 4.5 10.5t10.5 4.5h54
q6 0 10.5 -4.5t4.5 -10.5v-421q0 -19 5 -42t18 -51.5t32.5 -51.5t53.5 -39t76 -16q52 0 91 23t58 57.5t27.5 65t8.5 54.5v421q0 6 4.5 10.5t10.5 4.5z" />
    <glyph glyph-name="Uacute" unicode="&#xda;" horiz-adv-x="720" 
d="M284 801l-12 18q-10 12 3 21l131 97q13 9 20 -4l22 -32q8 -12 -5 -20l-138 -84q-13 -9 -21 4zM559 700h56q6 0 10.5 -4.5t4.5 -10.5v-421q0 -47 -14.5 -92t-45 -86.5t-85 -67t-126.5 -25.5q-71 0 -125.5 25.5t-84.5 67t-44.5 86.5t-14.5 92v421q0 6 4.5 10.5t10.5 4.5h54
q6 0 10.5 -4.5t4.5 -10.5v-421q0 -19 5 -42t18 -51.5t32.5 -51.5t53.5 -39t76 -16q52 0 91 23t58 57.5t27.5 65t8.5 54.5v421q0 6 4.5 10.5t10.5 4.5z" />
    <glyph glyph-name="Ucircumflex" unicode="&#xdb;" horiz-adv-x="720" 
d="M559 700h56q6 0 10.5 -4.5t4.5 -10.5v-421q0 -47 -14.5 -92t-45 -86.5t-85 -67t-126.5 -25.5q-71 0 -125.5 25.5t-84.5 67t-44.5 86.5t-14.5 92v421q0 6 4.5 10.5t10.5 4.5h54q6 0 10.5 -4.5t4.5 -10.5v-421q0 -19 5 -42t18 -51.5t32.5 -51.5t53.5 -39t76 -16q52 0 91 23
t58 57.5t27.5 65t8.5 54.5v421q0 6 4.5 10.5t10.5 4.5zM360 866l-113 -69q-13 -9 -22 4l-12 18q-8 12 4 21l131 97q12 9 24 0l131 -97q13 -9 3 -21l-12 -18q-8 -13 -21 -4z" />
    <glyph glyph-name="Udieresis" unicode="&#xdc;" horiz-adv-x="720" 
d="M184 843q0 22 14.5 37t36.5 15t37 -15t15 -37t-15 -36.5t-37 -14.5t-36.5 14.5t-14.5 36.5zM433 843q0 22 14.5 37t36.5 15t37 -15t15 -37t-15 -36.5t-37 -14.5t-36.5 14.5t-14.5 36.5zM559 700h56q6 0 10.5 -4.5t4.5 -10.5v-421q0 -47 -14.5 -92t-45 -86.5t-85 -67
t-126.5 -25.5q-71 0 -125.5 25.5t-84.5 67t-44.5 86.5t-14.5 92v421q0 6 4.5 10.5t10.5 4.5h54q6 0 10.5 -4.5t4.5 -10.5v-421q0 -19 5 -42t18 -51.5t32.5 -51.5t53.5 -39t76 -16q52 0 91 23t58 57.5t27.5 65t8.5 54.5v421q0 6 4.5 10.5t10.5 4.5z" />
    <glyph glyph-name="Yacute" unicode="&#xdd;" horiz-adv-x="622" 
d="M353 318v-303q0 -6 -4.5 -10.5t-10.5 -4.5h-56q-6 0 -10.5 4.5t-4.5 10.5v302l-229 370q-3 5 -0.5 9t7.5 4h66q15 0 23 -13l176 -290l176 290q8 13 23 13h68q5 0 7 -4.5t0 -8.5zM226 840l131 97q5 4 11 2.5t9 -6.5l22 -32q8 -12 -5 -20l-138 -84q-13 -9 -22 4l-12 18
q-8 12 4 21z" />
    <glyph glyph-name="Thorn" unicode="&#xde;" horiz-adv-x="626" 
d="M319 95h-136v-80q0 -6 -4.5 -10.5t-10.5 -4.5h-53q-6 0 -10.5 4.5t-4.5 10.5v670q0 6 4.5 10.5t10.5 4.5h53q6 0 10.5 -4.5t4.5 -10.5v-80h136q67 0 117.5 -24.5t77.5 -64.5t39.5 -81.5t12.5 -84.5t-12.5 -84.5t-39.5 -81.5t-77.5 -64.5t-117.5 -24.5zM183 536v-372h128
q51 0 87.5 20.5t54.5 52t25.5 60t7.5 53.5t-7.5 53.5t-25.5 60t-54.5 52t-87.5 20.5h-128z" />
    <glyph glyph-name="germandbls" unicode="&#xdf;" horiz-adv-x="640" 
d="M452 176q0 33 -25.5 65.5t-51 61.5t-25.5 55q0 24 21 48.5t42 53.5t21 65q0 6 -0.5 13.5t-7 27t-18 33.5t-36.5 25.5t-60 11.5q-20 0 -39 -5t-40.5 -17t-34.5 -38.5t-13 -64.5v-566q0 -6 -4.5 -10.5t-10.5 -4.5h-55q-6 0 -10.5 4.5t-4.5 10.5v564q0 47 13.5 83.5
t36.5 56.5t45.5 33.5t49 18t37.5 6t20 1.5q49 0 88 -13.5t61.5 -33.5t37 -46t19.5 -48t5 -43q0 -33 -11 -59.5t-24 -40.5t-24 -29t-11 -28q0 -19 15 -39.5t33.5 -37t33.5 -48t15 -70.5q0 -81 -62.5 -131t-182.5 -51q-6 0 -10.5 4.5t-4.5 10.5v36q0 6 4.5 10.5t10.5 4.5h6
q81 0 116 34.5t35 85.5z" />
    <glyph glyph-name="agrave" unicode="&#xe0;" horiz-adv-x="532" 
d="M219 737l131 -97q13 -9 3 -21l-12 -18q-8 -13 -21 -4l-138 84q-13 8 -5 20l22 32q7 13 20 4zM115 419l-12 32q-7 14 8 20q82 37 164 37q47 0 81 -12.5t52.5 -31t28.5 -48.5t12.5 -55t2.5 -60v-286q0 -6 -4.5 -10.5t-10.5 -4.5h-14q-15 0 -19 14l-15 51q-29 -38 -72.5 -56
t-83.5 -18q-52 0 -89 16t-54 41t-23.5 47t-6.5 42q0 87 53.5 125t137.5 38q64 0 117 -13v20q0 85 -26.5 110.5t-85.5 21.5q-61 -8 -121 -29q-15 -5 -20 9zM368 133v86q-56 14 -115 14q-117 0 -117 -87q0 -42 28.5 -64t71.5 -22q44 0 79 21.5t53 51.5z" />
    <glyph glyph-name="aacute" unicode="&#xe1;" horiz-adv-x="532" 
d="M182 640l131 97q5 4 11 2.5t9 -6.5l22 -32q8 -12 -5 -20l-138 -84q-13 -9 -22 4l-12 18q-8 12 4 21zM111 471q82 37 164 37q47 0 81 -12.5t52.5 -31t28.5 -48.5t12.5 -55t2.5 -60v-286q0 -6 -4.5 -10.5t-10.5 -4.5h-14q-15 0 -19 14l-15 51q-29 -38 -72.5 -56t-83.5 -18
q-52 0 -89 16t-54 41t-23.5 47t-6.5 42q0 87 53.5 125t137.5 38q64 0 117 -13v20q0 85 -26.5 110.5t-85.5 21.5q-61 -8 -121 -29q-15 -5 -20 9l-12 32q-7 14 8 20zM368 133v86q-56 14 -115 14q-117 0 -117 -87q0 -42 28.5 -64t71.5 -22q44 0 79 21.5t53 51.5z" />
    <glyph glyph-name="acircumflex" unicode="&#xe2;" horiz-adv-x="532" 
d="M278 737l131 -97q13 -9 3 -21l-12 -18q-8 -13 -21 -4l-113 69l-113 -69q-13 -9 -22 4l-12 18q-8 12 4 21l131 97q12 9 24 0zM111 471q82 37 164 37q47 0 81 -12.5t52.5 -31t28.5 -48.5t12.5 -55t2.5 -60v-286q0 -6 -4.5 -10.5t-10.5 -4.5h-14q-15 0 -19 14l-15 51
q-29 -38 -72.5 -56t-83.5 -18q-52 0 -89 16t-54 41t-23.5 47t-6.5 42q0 87 53.5 125t137.5 38q64 0 117 -13v20q0 85 -26.5 110.5t-85.5 21.5q-61 -8 -121 -29q-15 -5 -20 9l-12 32q-7 14 8 20zM368 133v86q-56 14 -115 14q-117 0 -117 -87q0 -42 28.5 -64t71.5 -22
q44 0 79 21.5t53 51.5z" />
    <glyph glyph-name="atilde" unicode="&#xe3;" horiz-adv-x="532" 
d="M387 686l20 -11q13 -8 6 -20q-36 -62 -98 -62q-23 0 -52 20t-52 20q-28 0 -47 -28q-9 -12 -22 -7l-17 8q-13 7 -8 21q29 68 95 68q25 0 55.5 -20t49.5 -20q27 0 48 26q10 12 22 5zM115 419l-12 32q-7 14 8 20q82 37 164 37q47 0 81 -12.5t52.5 -31t28.5 -48.5t12.5 -55
t2.5 -60v-286q0 -6 -4.5 -10.5t-10.5 -4.5h-14q-15 0 -19 14l-15 51q-29 -38 -72.5 -56t-83.5 -18q-52 0 -89 16t-54 41t-23.5 47t-6.5 42q0 87 53.5 125t137.5 38q64 0 117 -13v20q0 85 -26.5 110.5t-85.5 21.5q-61 -8 -121 -29q-15 -5 -20 9zM368 133v86q-56 14 -115 14
q-117 0 -117 -87q0 -42 28.5 -64t71.5 -22q44 0 79 21.5t53 51.5z" />
    <glyph glyph-name="adieresis" unicode="&#xe4;" horiz-adv-x="532" 
d="M90 643q0 22 14.5 37t36.5 15t37 -15t15 -37t-15 -36.5t-37 -14.5t-36.5 14.5t-14.5 36.5zM339 643q0 22 14.5 37t36.5 15t37 -15t15 -37t-15 -36.5t-37 -14.5t-36.5 14.5t-14.5 36.5zM115 419l-12 32q-7 14 8 20q82 37 164 37q47 0 81 -12.5t52.5 -31t28.5 -48.5
t12.5 -55t2.5 -60v-286q0 -6 -4.5 -10.5t-10.5 -4.5h-14q-15 0 -19 14l-15 51q-29 -38 -72.5 -56t-83.5 -18q-52 0 -89 16t-54 41t-23.5 47t-6.5 42q0 87 53.5 125t137.5 38q64 0 117 -13v20q0 85 -26.5 110.5t-85.5 21.5q-61 -8 -121 -29q-15 -5 -20 9zM368 133v86
q-56 14 -115 14q-117 0 -117 -87q0 -42 28.5 -64t71.5 -22q44 0 79 21.5t53 51.5z" />
    <glyph glyph-name="aring" unicode="&#xe5;" horiz-adv-x="532" 
d="M164 688q0 42 30 72t72 30t71.5 -30t29.5 -72t-29.5 -71.5t-71.5 -29.5t-72 29.5t-30 71.5zM217 688q0 -19 14.5 -33.5t34.5 -14.5q19 0 33.5 14.5t14.5 33.5q0 20 -14.5 34.5t-33.5 14.5q-20 0 -34.5 -14.5t-14.5 -34.5zM115 419l-12 32q-7 14 8 20q82 37 164 37
q47 0 81 -12.5t52.5 -31t28.5 -48.5t12.5 -55t2.5 -60v-286q0 -6 -4.5 -10.5t-10.5 -4.5h-14q-15 0 -19 14l-15 51q-29 -38 -72.5 -56t-83.5 -18q-52 0 -89 16t-54 41t-23.5 47t-6.5 42q0 87 53.5 125t137.5 38q64 0 117 -13v20q0 85 -26.5 110.5t-85.5 21.5
q-61 -8 -121 -29q-15 -5 -20 9zM368 133v86q-56 14 -115 14q-117 0 -117 -87q0 -42 28.5 -64t71.5 -22q44 0 79 21.5t53 51.5z" />
    <glyph glyph-name="ae" unicode="&#xe6;" horiz-adv-x="839" 
d="M794 299q0 -22 -3 -46q-2 -15 -17 -15h-346q1 -27 10 -55t27.5 -56.5t52 -46.5t76.5 -18q79 0 141 48q13 9 21 -2l23 -29q9 -13 -2 -22q-77 -65 -183 -65q-123 0 -189 80q-23 -32 -71 -56.5t-101 -24.5q-52 0 -89 16t-54 41t-23.5 47t-6.5 42q0 87 53.5 125t137.5 38
q60 0 97 -8q4 31 16 67q-8 53 -33 68t-75 12q-61 -8 -121 -29q-15 -5 -20 9l-12 32q-7 14 8 20q82 37 164 37q104 0 146 -61q66 63 173 63q95 0 147.5 -57t52.5 -154zM236 60q44 0 79 21.5t53 51.5q-17 40 -22 90q-54 10 -93 10q-117 0 -117 -87q0 -42 28.5 -64t71.5 -22z
M714 297q7 54 -21.5 96.5t-99.5 45.5q-132 0 -163 -142h284z" />
    <glyph glyph-name="ccedilla" unicode="&#xe7;" horiz-adv-x="551" 
d="M279 -76q-3 3 -3 7v60q-61 5 -105.5 31t-67.5 65.5t-33 80.5t-10 86q0 43 12.5 85t39.5 83t78 66.5t119 25.5q101 0 172 -69q10 -12 -1 -21l-33 -31q-11 -11 -22 0q-54 43 -117 43q-68 0 -116.5 -49t-48.5 -133q0 -77 44 -135t120 -58q71 0 121 45q11 11 21 0l25 -29
q10 -11 -1 -22q-61 -60 -149 -65v-27h13q42 -2 64.5 -27t22.5 -55q0 -49 -30 -75.5t-72 -26.5q-39 0 -69 17q-14 7 -6 21l6 14q6 13 20 7q24 -10 44 -10q28 0 40.5 16t12.5 33t-13 30.5t-42 13.5h-29q-4 0 -7 3z" />
    <glyph glyph-name="egrave" unicode="&#xe8;" horiz-adv-x="539" 
d="M357 619l-12 -18q-8 -13 -21 -4l-138 84q-13 8 -5 20l22 32q7 13 20 4l131 -97q13 -9 3 -21zM494 299q0 -22 -3 -46q-2 -15 -17 -15h-346q1 -27 10 -55t27.5 -56.5t52 -46.5t76.5 -18q79 0 141 48q13 9 21 -2l23 -29q9 -13 -2 -22q-77 -65 -183 -65q-68 0 -119 25
t-78 65.5t-39.5 83t-12.5 86.5q0 43 12.5 85t39.5 82.5t78 65.5t119 25q95 0 147.5 -57t52.5 -154zM414 297q7 54 -21.5 96.5t-99.5 45.5q-132 0 -163 -142h284z" />
    <glyph glyph-name="eacute" unicode="&#xe9;" horiz-adv-x="539" 
d="M353 681l-138 -84q-13 -9 -22 4l-12 18q-8 12 4 21l131 97q4 4 10.5 2.5t9.5 -6.5l22 -32q8 -12 -5 -20zM494 299q0 -22 -3 -46q-2 -15 -17 -15h-346q1 -27 10 -55t27.5 -56.5t52 -46.5t76.5 -18q79 0 141 48q13 9 21 -2l23 -29q9 -13 -2 -22q-77 -65 -183 -65
q-68 0 -119 25t-78 65.5t-39.5 83t-12.5 86.5q0 43 12.5 85t39.5 82.5t78 65.5t119 25q95 0 147.5 -57t52.5 -154zM414 297q7 54 -21.5 96.5t-99.5 45.5q-132 0 -163 -142h284z" />
    <glyph glyph-name="ecircumflex" unicode="&#xea;" horiz-adv-x="539" 
d="M287 666l-113 -69q-13 -9 -22 4l-12 18q-8 12 4 21l131 97q12 9 24 0l131 -97q13 -9 3 -21l-12 -18q-8 -13 -21 -4zM494 299q0 -22 -3 -46q-2 -15 -17 -15h-346q1 -27 10 -55t27.5 -56.5t52 -46.5t76.5 -18q79 0 141 48q13 9 21 -2l23 -29q9 -13 -2 -22q-77 -65 -183 -65
q-68 0 -119 25t-78 65.5t-39.5 83t-12.5 86.5q0 43 12.5 85t39.5 82.5t78 65.5t119 25q95 0 147.5 -57t52.5 -154zM414 297q7 54 -21.5 96.5t-99.5 45.5q-132 0 -163 -142h284z" />
    <glyph glyph-name="edieresis" unicode="&#xeb;" horiz-adv-x="539" 
d="M114 643q0 22 14.5 37t36.5 15t37 -15t15 -37t-15 -36.5t-37 -14.5t-36.5 14.5t-14.5 36.5zM363 643q0 22 14.5 37t36.5 15t37 -15t15 -37t-15 -36.5t-37 -14.5t-36.5 14.5t-14.5 36.5zM494 299q0 -22 -3 -46q-2 -15 -17 -15h-346q1 -27 10 -55t27.5 -56.5t52 -46.5
t76.5 -18q79 0 141 48q13 9 21 -2l23 -29q9 -13 -2 -22q-77 -65 -183 -65q-68 0 -119 25t-78 65.5t-39.5 83t-12.5 86.5q0 43 12.5 85t39.5 82.5t78 65.5t119 25q95 0 147.5 -57t52.5 -154zM414 297q7 54 -21.5 96.5t-99.5 45.5q-132 0 -163 -142h284z" />
    <glyph glyph-name="igrave" unicode="&#xec;" horiz-adv-x="233" 
d="M157 485v-471q0 -6 -4.5 -10.5t-10.5 -4.5h-53q-6 0 -10.5 4.5t-4.5 10.5v471q0 6 4.5 10.5t10.5 4.5h53q6 0 10.5 -4.5t4.5 -10.5zM70 737l131 -97q13 -9 3 -21l-12 -18q-8 -13 -21 -4l-138 84q-13 8 -5 20l22 32q7 13 20 4z" />
    <glyph glyph-name="iacute" unicode="&#xed;" horiz-adv-x="233" 
d="M157 485v-471q0 -6 -4.5 -10.5t-10.5 -4.5h-53q-6 0 -10.5 4.5t-4.5 10.5v471q0 6 4.5 10.5t10.5 4.5h53q6 0 10.5 -4.5t4.5 -10.5zM32 640l131 97q13 9 20 -4l22 -32q8 -12 -5 -20l-138 -84q-13 -9 -21 4l-12 18q-10 12 3 21z" />
    <glyph glyph-name="icircumflex" unicode="&#xee;" horiz-adv-x="310" 
d="M195 485v-471q0 -6 -4.5 -10.5t-10.5 -4.5h-53q-6 0 -10.5 4.5t-4.5 10.5v471q0 6 4.5 10.5t10.5 4.5h53q6 0 10.5 -4.5t4.5 -10.5zM167 737l131 -97q13 -9 3 -21l-12 -18q-8 -13 -21 -4l-113 69l-113 -69q-13 -9 -22 4l-12 18q-8 12 4 21l131 97q12 9 24 0z" />
    <glyph glyph-name="idieresis" unicode="&#xef;" horiz-adv-x="352" 
d="M133 14v471q0 6 4.5 10.5t10.5 4.5h53q6 0 10.5 -4.5t4.5 -10.5v-471q0 -6 -4.5 -10.5t-10.5 -4.5h-53q-6 0 -10.5 4.5t-4.5 10.5zM51 695q22 0 37 -15t15 -37t-15 -36.5t-37 -14.5t-36.5 14.5t-14.5 36.5t14.5 37t36.5 15zM300 695q22 0 37 -15t15 -37t-15 -36.5
t-37 -14.5t-36.5 14.5t-14.5 36.5t14.5 37t36.5 15z" />
    <glyph glyph-name="eth" unicode="&#xf0;" horiz-adv-x="583" 
d="M307 648l48 48q11 11 22 1l23 -22q11 -10 0 -21l-44 -44q166 -146 166 -388q0 -24 -5.5 -51t-21.5 -59t-40.5 -57t-66.5 -42.5t-96 -18.5q-53 -1 -95.5 15t-67 41t-40.5 56t-22 56.5t-6 47.5q0 28 5.5 56t21 59.5t40 55.5t67 40t97.5 16q71 0 126 -40q-33 94 -110 164
l-62 -62q-11 -10 -22 1l-22 22q-11 11 0 21l57 57q-30 20 -46 30q-13 7 -5 21l18 26q7 14 22 6q28 -13 59 -35zM292 63q71 0 111.5 48t40.5 110q-2 66 -41 107t-111 41t-111.5 -45t-39.5 -107t40 -108t111 -46z" />
    <glyph glyph-name="ntilde" unicode="&#xf1;" 
d="M163 357v-342q0 -6 -4.5 -10.5t-10.5 -4.5h-53q-6 0 -10.5 4.5t-4.5 10.5v470q0 6 4.5 10.5t10.5 4.5h13q15 0 20 -14l15 -48q66 70 164 70q53 0 92 -15.5t61 -38.5t35 -58t17 -66.5t4 -71.5v-243q0 -6 -4.5 -10.5t-10.5 -4.5h-54q-6 0 -10.5 4.5t-4.5 10.5v242v27
t-2.5 30t-7 34.5t-14 30.5t-22.5 28t-35 17.5t-49 7.5q-42 0 -82.5 -24.5t-56.5 -50.5zM409 686l20 -11q13 -8 6 -20q-36 -62 -98 -62q-23 0 -52 20t-52 20q-28 0 -47 -28q-9 -12 -22 -7l-17 8q-13 7 -8 21q29 68 95 68q25 0 55.5 -20t49.5 -20q27 0 48 26q10 12 22 5z" />
    <glyph glyph-name="ograve" unicode="&#xf2;" horiz-adv-x="618" 
d="M309 508q68 0 119 -25t78 -65.5t39.5 -82.5t12.5 -85q0 -44 -12.5 -86.5t-39.5 -82.5t-78 -64.5t-119 -24.5q-55 0 -99 16.5t-71.5 43t-45.5 61.5t-25.5 68.5t-7.5 68.5q0 43 12.5 85t39.5 82.5t78 65.5t119 25zM309 62q42 0 73.5 15t49 36.5t28 49.5t13.5 48.5t3 38.5
t-3 38.5t-13.5 48.5t-28 49.5t-49 36.5t-73.5 15q-51 0 -86.5 -21.5t-51.5 -55t-22 -60.5t-6 -51t6 -51t22 -60.5t51.5 -55t86.5 -21.5zM262 737l131 -97q13 -9 3 -21l-12 -18q-8 -13 -21 -4l-138 84q-13 8 -5 20l22 32q7 13 20 4z" />
    <glyph glyph-name="oacute" unicode="&#xf3;" horiz-adv-x="618" 
d="M309 508q68 0 119 -25t78 -65.5t39.5 -82.5t12.5 -85q0 -44 -12.5 -86.5t-39.5 -82.5t-78 -64.5t-119 -24.5q-55 0 -99 16.5t-71.5 43t-45.5 61.5t-25.5 68.5t-7.5 68.5q0 43 12.5 85t39.5 82.5t78 65.5t119 25zM309 62q42 0 73.5 15t49 36.5t28 49.5t13.5 48.5t3 38.5
t-3 38.5t-13.5 48.5t-28 49.5t-49 36.5t-73.5 15q-51 0 -86.5 -21.5t-51.5 -55t-22 -60.5t-6 -51t6 -51t22 -60.5t51.5 -55t86.5 -21.5zM224 640l131 97q13 9 20 -4l22 -32q8 -12 -5 -20l-138 -84q-13 -9 -21 4l-12 18q-10 12 3 21z" />
    <glyph glyph-name="ocircumflex" unicode="&#xf4;" horiz-adv-x="618" 
d="M309 508q68 0 119 -25t78 -65.5t39.5 -82.5t12.5 -85q0 -44 -12.5 -86.5t-39.5 -82.5t-78 -64.5t-119 -24.5q-55 0 -99 16.5t-71.5 43t-45.5 61.5t-25.5 68.5t-7.5 68.5q0 43 12.5 85t39.5 82.5t78 65.5t119 25zM309 62q42 0 73.5 15t49 36.5t28 49.5t13.5 48.5t3 38.5
t-3 38.5t-13.5 48.5t-28 49.5t-49 36.5t-73.5 15q-51 0 -86.5 -21.5t-51.5 -55t-22 -60.5t-6 -51t6 -51t22 -60.5t51.5 -55t86.5 -21.5zM321 737l131 -97q13 -9 3 -21l-12 -18q-8 -13 -21 -4l-113 69l-113 -69q-13 -9 -22 4l-12 18q-8 12 4 21l131 97q12 9 24 0z" />
    <glyph glyph-name="otilde" unicode="&#xf5;" horiz-adv-x="618" 
d="M309 508q68 0 119 -25t78 -65.5t39.5 -82.5t12.5 -85q0 -44 -12.5 -86.5t-39.5 -82.5t-78 -64.5t-119 -24.5q-55 0 -99 16.5t-71.5 43t-45.5 61.5t-25.5 68.5t-7.5 68.5q0 43 12.5 85t39.5 82.5t78 65.5t119 25zM309 62q42 0 73.5 15t49 36.5t28 49.5t13.5 48.5t3 38.5
t-3 38.5t-13.5 48.5t-28 49.5t-49 36.5t-73.5 15q-51 0 -86.5 -21.5t-51.5 -55t-22 -60.5t-6 -51t6 -51t22 -60.5t51.5 -55t86.5 -21.5zM430 686l20 -11q13 -8 6 -20q-36 -62 -98 -62q-22 0 -52 20t-52 20q-28 0 -47 -28q-9 -12 -22 -7l-17 8q-13 7 -8 21q29 68 95 68
q25 0 55.5 -20t49.5 -20q27 0 48 26q10 12 22 5z" />
    <glyph glyph-name="odieresis" unicode="&#xf6;" horiz-adv-x="618" 
d="M309 508q68 0 119 -25t78 -65.5t39.5 -82.5t12.5 -85q0 -44 -12.5 -86.5t-39.5 -82.5t-78 -64.5t-119 -24.5q-55 0 -99 16.5t-71.5 43t-45.5 61.5t-25.5 68.5t-7.5 68.5q0 43 12.5 85t39.5 82.5t78 65.5t119 25zM309 62q42 0 73.5 15t49 36.5t28 49.5t13.5 48.5t3 38.5
t-3 38.5t-13.5 48.5t-28 49.5t-49 36.5t-73.5 15q-51 0 -86.5 -21.5t-51.5 -55t-22 -60.5t-6 -51t6 -51t22 -60.5t51.5 -55t86.5 -21.5zM135 643q0 22 14.5 37t36.5 15t37 -15t15 -37t-15 -36.5t-37 -14.5t-36.5 14.5t-14.5 36.5zM384 643q0 22 14.5 37t36.5 15t37 -15
t15 -37t-15 -36.5t-37 -14.5t-36.5 14.5t-14.5 36.5z" />
    <glyph glyph-name="divide" unicode="&#xf7;" horiz-adv-x="462" 
d="M76 234h311q6 0 10.5 -4.5t4.5 -10.5v-45q0 -6 -4.5 -10.5t-10.5 -4.5h-311q-6 0 -10.5 4.5t-4.5 10.5v45q0 6 4.5 10.5t10.5 4.5zM181 76q4 17 17.5 27t32.5 10q22 0 37.5 -14.5t15.5 -37.5q0 -22 -15.5 -38t-37.5 -16q-39 0 -50 39q-5 15 0 30zM179 346q0 23 14.5 38
t37.5 15q22 0 37.5 -15t15.5 -38q0 -22 -15.5 -38t-37.5 -16q-23 0 -37.5 16t-14.5 38z" />
    <glyph glyph-name="oslash" unicode="&#xf8;" horiz-adv-x="618" 
d="M491 435q67 -72 67 -185q0 -44 -12.5 -86.5t-39.5 -82.5t-78 -64.5t-119 -24.5q-91 0 -153 45l-23 -28q-11 -11 -22 -1l-20 16q-11 11 -1 21l26 31q-56 71 -56 174q0 43 12.5 85t39.5 82.5t78 65.5t119 25q83 0 139 -37l24 29q11 11 21 1l20 -16q12 -11 2 -21zM143 250
q0 -63 27 -110l230 273q-38 25 -91 25q-51 0 -86.5 -21.5t-51.5 -55t-22 -60.5t-6 -51zM309 62q42 0 73.5 15t49 36.5t28 49.5t13.5 48.5t3 38.5q0 72 -36 124l-235 -278q43 -34 104 -34z" />
    <glyph glyph-name="ugrave" unicode="&#xf9;" 
d="M375 619l-12 -18q-8 -13 -21 -4l-138 84q-13 8 -5 20l22 32q7 13 20 4l131 -97q13 -9 3 -21zM428 500h53q6 0 10.5 -4.5t4.5 -10.5v-470q0 -6 -4.5 -10.5t-10.5 -4.5h-13q-15 0 -20 14l-15 48q-66 -70 -164 -70q-53 0 -92 15.5t-61 38.5t-35 58t-17 66.5t-4 71.5v243
q0 6 4.5 10.5t10.5 4.5h54q6 0 10.5 -4.5t4.5 -10.5v-242v-27t2.5 -30t7 -34.5t14 -30.5t22.5 -28t35 -17.5t49 -7.5q43 0 82.5 24.5t56.5 50.5v342q0 6 4.5 10.5t10.5 4.5z" />
    <glyph glyph-name="uacute" unicode="&#xfa;" 
d="M212 601l-12 18q-10 12 3 21l131 97q13 9 20 -4l22 -32q8 -12 -5 -20l-138 -84q-13 -9 -21 4zM428 500h53q6 0 10.5 -4.5t4.5 -10.5v-470q0 -6 -4.5 -10.5t-10.5 -4.5h-13q-15 0 -20 14l-15 48q-66 -70 -164 -70q-53 0 -92 15.5t-61 38.5t-35 58t-17 66.5t-4 71.5v243
q0 6 4.5 10.5t10.5 4.5h54q6 0 10.5 -4.5t4.5 -10.5v-242v-27t2.5 -30t7 -34.5t14 -30.5t22.5 -28t35 -17.5t49 -7.5q43 0 82.5 24.5t56.5 50.5v342q0 6 4.5 10.5t10.5 4.5z" />
    <glyph glyph-name="ucircumflex" unicode="&#xfb;" 
d="M413 143v342q0 6 4.5 10.5t10.5 4.5h53q6 0 10.5 -4.5t4.5 -10.5v-470q0 -6 -4.5 -10.5t-10.5 -4.5h-13q-15 0 -20 14l-15 48q-66 -70 -164 -70q-53 0 -92 15.5t-61 38.5t-35 58t-17 66.5t-4 71.5v243q0 6 4.5 10.5t10.5 4.5h54q6 0 10.5 -4.5t4.5 -10.5v-242v-27
t2.5 -30t7 -34.5t14 -30.5t22.5 -28t35 -17.5t49 -7.5q43 0 82.5 24.5t56.5 50.5zM300 737l131 -97q13 -9 3 -21l-12 -18q-8 -13 -21 -4l-113 69l-113 -69q-13 -9 -22 4l-12 18q-8 12 4 21l131 97q12 9 24 0z" />
    <glyph glyph-name="udieresis" unicode="&#xfc;" 
d="M112 643q0 22 14.5 37t36.5 15t37 -15t15 -37t-15 -36.5t-37 -14.5t-36.5 14.5t-14.5 36.5zM361 643q0 22 14.5 37t36.5 15t37 -15t15 -37t-15 -36.5t-37 -14.5t-36.5 14.5t-14.5 36.5zM413 143v342q0 6 4.5 10.5t10.5 4.5h53q6 0 10.5 -4.5t4.5 -10.5v-470
q0 -6 -4.5 -10.5t-10.5 -4.5h-13q-15 0 -20 14l-15 48q-66 -70 -164 -70q-53 0 -92 15.5t-61 38.5t-35 58t-17 66.5t-4 71.5v243q0 6 4.5 10.5t10.5 4.5h54q6 0 10.5 -4.5t4.5 -10.5v-242v-27t2.5 -30t7 -34.5t14 -30.5t22.5 -28t35 -17.5t49 -7.5q43 0 82.5 24.5t56.5 50.5
z" />
    <glyph glyph-name="yacute" unicode="&#xfd;" horiz-adv-x="565" 
d="M126 486l157 -379l152 379q7 14 21 14h64q5 0 8 -4.5t1 -9.5l-288 -679q-6 -14 -21 -14h-58q-5 0 -8 4.5t-1 9.5l86 203l-203 476q-2 5 1 9.5t8 4.5h60q14 0 21 -14zM198 640l131 97q5 4 11 2.5t9 -6.5l22 -32q8 -12 -5 -20l-138 -84q-13 -9 -22 4l-12 18q-8 12 4 21z
" />
    <glyph glyph-name="thorn" unicode="&#xfe;" horiz-adv-x="611" 
d="M287 -9q-66 5 -124 35v-215q0 -6 -4.5 -10.5t-10.5 -4.5h-53q-6 0 -10.5 4.5t-4.5 10.5v876q0 6 4.5 10.5t10.5 4.5h53q6 0 10.5 -4.5t4.5 -10.5v-215q68 35 139 35q68 0 119 -25t78 -65.5t39.5 -82.5t12.5 -85q0 -42 -12 -83t-37.5 -80.5t-73 -65.5t-111.5 -29h-30z
M163 395v-292q23 -17 62 -30t68 -13q51 0 88 21t54.5 53t25 60.5t7.5 54.5t-7.5 54.5t-25 60.5t-54.5 53t-88 21q-29 0 -68 -13t-62 -30z" />
    <glyph glyph-name="ydieresis" unicode="&#xff;" horiz-adv-x="565" 
d="M107 643q0 22 14.5 37t36.5 15t37 -15t15 -37t-15 -36.5t-37 -14.5t-36.5 14.5t-14.5 36.5zM356 643q0 22 14.5 37t36.5 15t37 -15t15 -37t-15 -36.5t-37 -14.5t-36.5 14.5t-14.5 36.5zM126 486l157 -379l152 379q7 14 21 14h64q5 0 8 -4.5t1 -9.5l-288 -679
q-6 -14 -21 -14h-58q-5 0 -8 4.5t-1 9.5l86 203l-203 476q-2 5 1 9.5t8 4.5h60q14 0 21 -14z" />
    <glyph glyph-name="Amacron" unicode="&#x100;" horiz-adv-x="683" 
d="M552 14l-73 179h-278l-72 -179q-6 -14 -21 -14h-63q-5 0 -8 4.5t-1 9.5l284 679q5 13 20 13q13 0 18 -13l289 -679q2 -5 -1 -9.5t-8 -4.5h-65q-15 0 -21 14zM339 536l-110 -273h221zM206 851h271q6 0 10.5 -4.5t4.5 -10.5v-25q0 -6 -4.5 -10.5t-10.5 -4.5h-271
q-6 0 -10.5 4.5t-4.5 10.5v25q0 6 4.5 10.5t10.5 4.5z" />
    <glyph glyph-name="amacron" unicode="&#x101;" horiz-adv-x="532" 
d="M130 651h271q6 0 10.5 -4.5t4.5 -10.5v-25q0 -6 -4.5 -10.5t-10.5 -4.5h-271q-6 0 -10.5 4.5t-4.5 10.5v25q0 6 4.5 10.5t10.5 4.5zM115 419l-12 32q-7 14 8 20q82 37 164 37q47 0 81 -12.5t52.5 -31t28.5 -48.5t12.5 -55t2.5 -60v-286q0 -6 -4.5 -10.5t-10.5 -4.5h-14
q-15 0 -19 14l-15 51q-29 -38 -72.5 -56t-83.5 -18q-52 0 -89 16t-54 41t-23.5 47t-6.5 42q0 87 53.5 125t137.5 38q64 0 117 -13v20q0 85 -26.5 110.5t-85.5 21.5q-61 -8 -121 -29q-15 -5 -20 9zM368 133v86q-56 14 -115 14q-117 0 -117 -87q0 -42 28.5 -64t71.5 -22
q44 0 79 21.5t53 51.5z" />
    <glyph glyph-name="Abreve" unicode="&#x102;" horiz-adv-x="683" 
d="M552 14l-73 179h-278l-72 -179q-6 -14 -21 -14h-63q-5 0 -8 4.5t-1 9.5l284 679q5 13 20 13q13 0 18 -13l289 -679q2 -5 -1 -9.5t-8 -4.5h-65q-15 0 -21 14zM339 536l-110 -273h221zM436 915l25 -7q14 -5 9 -19q-39 -96 -129 -96q-93 0 -129 95q-5 14 9 19l27 9
q13 5 19 -9q23 -54 74 -54q55 0 76 53q6 14 19 9z" />
    <glyph glyph-name="abreve" unicode="&#x103;" horiz-adv-x="532" 
d="M361 715l25 -7q14 -5 9 -19q-39 -96 -129 -96q-93 0 -129 95q-5 14 9 19l27 9q13 5 19 -9q22 -54 74 -54q55 0 76 53q6 14 19 9zM115 419l-12 32q-7 14 8 20q82 37 164 37q47 0 81 -12.5t52.5 -31t28.5 -48.5t12.5 -55t2.5 -60v-286q0 -6 -4.5 -10.5t-10.5 -4.5h-14
q-15 0 -19 14l-15 51q-29 -38 -72.5 -56t-83.5 -18q-52 0 -89 16t-54 41t-23.5 47t-6.5 42q0 87 53.5 125t137.5 38q64 0 117 -13v20q0 85 -26.5 110.5t-85.5 21.5q-61 -8 -121 -29q-15 -5 -20 9zM368 133v86q-56 14 -115 14q-117 0 -117 -87q0 -42 28.5 -64t71.5 -22
q44 0 79 21.5t53 51.5z" />
    <glyph glyph-name="Aogonek" unicode="&#x104;" horiz-adv-x="683" 
d="M108 0h-63q-5 0 -8 4.5t-1 9.5l286 680q5 12 17 12q13 0 18 -12l290 -680q2 -5 -1 -9.5t-8 -4.5h-37v-6q0 -11 -17 -46t-17 -57q0 -60 64 -60q26 0 60 12q5 1 9.5 -2t4.5 -8v-20q0 -15 -14 -21q-37 -12 -68 -12q-50 0 -83 26t-33 78q0 31 25.5 68t25.5 45v3l-81 193h-275
l-73 -179q-6 -14 -21 -14zM339 533l-108 -270h217z" />
    <glyph glyph-name="aogonek" unicode="&#x105;" horiz-adv-x="532" 
d="M482 -169q26 0 60 12q5 1 9.5 -2t4.5 -8v-20q0 -15 -14 -21q-38 -12 -68 -12q-50 0 -83 26t-33 78q0 31 25 68t25 45l-19 68q-29 -38 -72.5 -56t-83.5 -18q-52 0 -89 16t-54 41t-23.5 47t-6.5 42q0 85 55 124t139 39q62 0 114 -16v23q0 45 -7 72t-23.5 40t-34 16.5
t-47.5 3.5q-40 0 -121 -28q-15 -5 -20 9l-12 31q-7 14 8 21q82 36 164 36q47 0 81 -12.5t52.5 -31t28.5 -48.5t12.5 -55t2.5 -60v-307q0 -11 -17 -46t-17 -57q0 -60 64 -60zM368 133v86q-48 14 -100 14q-57 0 -94.5 -20t-37.5 -67q0 -42 28.5 -64t71.5 -22q44 0 79 21.5
t53 51.5z" />
    <glyph glyph-name="Cacute" unicode="&#x106;" horiz-adv-x="718" 
d="M647 596l-31 -31q-11 -9 -22 0q-90 74 -188 74q-64 0 -113.5 -23.5t-76 -56.5t-43 -75.5t-21.5 -73t-5 -57.5t5 -58t21.5 -73t43 -75t76 -56t113.5 -23q98 0 190 71q12 9 21 -2q3 -4 31 -37q8 -12 -2 -22q-100 -87 -240 -87q-77 0 -138.5 23.5t-99 60.5t-63 86
t-35.5 96.5t-10 95.5q0 47 10 93.5t35.5 95.5t63 86t99 60.5t138.5 23.5q144 0 241 -94q11 -11 0 -22zM308 840l131 97q5 4 11 2.5t9 -6.5l22 -32q8 -12 -5 -20l-138 -84q-13 -9 -22 4l-12 18q-8 12 4 21z" />
    <glyph glyph-name="cacute" unicode="&#x107;" horiz-adv-x="551" 
d="M480 424l-33 -31q-11 -11 -22 0q-54 43 -117 43q-68 0 -116.5 -49t-48.5 -133q0 -77 44 -135t120 -58q71 0 121 45q11 11 21 0l25 -29q10 -11 -1 -22q-71 -66 -166 -66q-57 0 -101.5 17t-71.5 43.5t-44 62.5t-23.5 70.5t-6.5 71.5q0 43 12.5 85t39.5 83t78 66.5t119 25.5
q101 0 172 -69q10 -12 -1 -21zM208 640l131 97q5 4 11 2.5t9 -6.5l22 -32q8 -12 -5 -20l-138 -84q-13 -9 -22 4l-12 18q-8 12 4 21z" />
    <glyph glyph-name="Ccircumflex" unicode="&#x108;" horiz-adv-x="718" 
d="M647 596l-31 -31q-11 -9 -22 0q-90 74 -188 74q-64 0 -113.5 -23.5t-76 -56.5t-43 -75.5t-21.5 -73t-5 -57.5t5 -58t21.5 -73t43 -75t76 -56t113.5 -23q98 0 190 71q12 9 21 -2q3 -4 31 -37q8 -12 -2 -22q-100 -87 -240 -87q-77 0 -138.5 23.5t-99 60.5t-63 86
t-35.5 96.5t-10 95.5q0 47 10 93.5t35.5 95.5t63 86t99 60.5t138.5 23.5q144 0 241 -94q11 -11 0 -22zM416 937l131 -97q13 -9 3 -21l-12 -18q-8 -13 -21 -4l-113 69l-113 -69q-13 -9 -22 4l-12 18q-8 12 4 21l131 97q12 9 24 0z" />
    <glyph glyph-name="ccircumflex" unicode="&#x109;" horiz-adv-x="551" 
d="M487 424l-33 -31q-11 -11 -22 0q-54 43 -117 43q-68 0 -116.5 -49t-48.5 -133q0 -77 44 -135t120 -58q71 0 121 45q11 11 21 0l25 -29q11 -11 -1 -22q-71 -66 -166 -66q-57 0 -101.5 17t-71.5 43.5t-44 62.5t-23.5 70.5t-6.5 71.5q0 43 12.5 85t39.5 83t78 66.5t119 25.5
q101 0 172 -69q10 -12 -1 -21zM311 737l131 -97q13 -9 3 -21l-12 -18q-8 -13 -21 -4l-113 69l-113 -69q-13 -9 -22 4l-12 18q-8 12 4 21l131 97q12 9 24 0z" />
    <glyph glyph-name="Cdotaccent" unicode="&#x10a;" horiz-adv-x="718" 
d="M343 843q0 22 14.5 37t36.5 15t37 -15t15 -37t-15 -36.5t-37 -14.5t-36.5 14.5t-14.5 36.5zM647 596l-31 -31q-11 -9 -22 0q-90 74 -188 74q-64 0 -113.5 -23.5t-76 -56.5t-43 -75.5t-21.5 -73t-5 -57.5t5 -58t21.5 -73t43 -75t76 -56t113.5 -23q98 0 190 71q12 9 21 -2
q3 -4 31 -37q8 -12 -2 -22q-100 -87 -240 -87q-77 0 -138.5 23.5t-99 60.5t-63 86t-35.5 96.5t-10 95.5q0 47 10 93.5t35.5 95.5t63 86t99 60.5t138.5 23.5q144 0 241 -94q11 -11 0 -22z" />
    <glyph glyph-name="cdotaccent" unicode="&#x10b;" horiz-adv-x="551" 
d="M251 643q0 22 14.5 37t36.5 15t37 -15t15 -37t-15 -36.5t-37 -14.5t-36.5 14.5t-14.5 36.5zM487 424l-33 -31q-11 -11 -22 0q-54 43 -117 43q-68 0 -116.5 -49t-48.5 -133q0 -77 44 -135t120 -58q71 0 121 45q11 11 21 0l25 -29q11 -11 -1 -22q-71 -66 -166 -66
q-57 0 -101.5 17t-71.5 43.5t-44 62.5t-23.5 70.5t-6.5 71.5q0 43 12.5 85t39.5 83t78 66.5t119 25.5q101 0 172 -69q10 -12 -1 -21z" />
    <glyph glyph-name="Ccaron" unicode="&#x10c;" horiz-adv-x="718" 
d="M647 596l-31 -31q-11 -9 -22 0q-90 74 -188 74q-64 0 -113.5 -23.5t-76 -56.5t-43 -75.5t-21.5 -73t-5 -57.5t5 -58t21.5 -73t43 -75t76 -56t113.5 -23q98 0 190 71q12 9 21 -2q3 -4 31 -37q8 -12 -2 -22q-100 -87 -240 -87q-77 0 -138.5 23.5t-99 60.5t-63 86
t-35.5 96.5t-10 95.5q0 47 10 93.5t35.5 95.5t63 86t99 60.5t138.5 23.5q144 0 241 -94q11 -11 0 -22zM546 895l-131 -97q-12 -9 -24 0l-131 97q-11 8 -4 21l12 18q9 13 22 4l113 -69l113 69q13 9 21 -4l12 -18q9 -12 -3 -21z" />
    <glyph glyph-name="ccaron" unicode="&#x10d;" horiz-adv-x="551" 
d="M480 424l-33 -31q-11 -11 -22 0q-54 43 -117 43q-68 0 -116.5 -49t-48.5 -133q0 -77 44 -135t120 -58q71 0 121 45q11 11 21 0l25 -29q10 -11 -1 -22q-71 -66 -166 -66q-57 0 -101.5 17t-71.5 43.5t-44 62.5t-23.5 70.5t-6.5 71.5q0 43 12.5 85t39.5 83t78 66.5t119 25.5
q101 0 172 -69q10 -12 -1 -21zM438 695l-131 -97q-12 -9 -24 0l-131 97q-11 8 -4 21l12 18q9 13 22 4l113 -69l113 69q13 9 21 -4l12 -18q9 -12 -3 -21z" />
    <glyph glyph-name="Dcaron" unicode="&#x10e;" horiz-adv-x="745" 
d="M339 0h-224q-6 0 -10.5 4.5t-4.5 10.5v670q0 6 4.5 10.5t10.5 4.5h224q77 0 138.5 -22.5t99 -58t63 -83t35.5 -93t10 -92.5q0 -48 -10 -94.5t-35 -93.5t-63.5 -82.5t-99.5 -58t-138 -22.5zM185 72h154q64 0 114 22.5t77 54.5t44.5 73t22.5 72t5 57t-5 57t-22.5 71.5
t-44.5 72.5t-77 54.5t-114 22.5h-154v-557zM432 895l-131 -97q-12 -9 -24 0l-131 97q-11 8 -4 21l12 18q9 13 22 4l113 -69l113 69q13 9 21 -4l12 -18q9 -12 -3 -21z" />
    <glyph glyph-name="dcaron" unicode="&#x10f;" horiz-adv-x="731" 
d="M665 701q34 0 50 -19t16 -46q0 -42 -22.5 -98t-50.5 -99q-7 -12 -22 -6l-6 3q-13 8 -6 20q39 78 47 130q-25 -2 -44 13t-19 45q1 24 17 40.5t40 16.5zM448 472v215q0 6 4.5 10.5t10.5 4.5h53q6 0 10.5 -4.5t4.5 -10.5v-672q0 -6 -4.5 -10.5t-10.5 -4.5h-13q-15 0 -20 14
q-14 39 -16 48q-60 -70 -163 -70q-66 0 -115.5 24.5t-76.5 64.5t-39.5 82.5t-12.5 85.5t12.5 85t39.5 82.5t78 65.5t119 25q71 0 139 -35zM448 134v261q-23 17 -62 30t-68 13q-51 0 -88 -21t-54.5 -53t-25 -60.5t-7.5 -54.5q0 -18 3 -38t14 -47t28 -47.5t48.5 -35
t72.5 -14.5q45 0 82.5 20.5t56.5 46.5z" />
    <glyph glyph-name="Dcroat" unicode="&#x110;" horiz-adv-x="745" 
d="M57 381h43v304q0 6 4.5 10.5t10.5 4.5h224q77 0 138.5 -22.5t99 -58t63 -83t35.5 -93t10 -92.5q0 -48 -10 -94.5t-35 -93.5t-63.5 -82.5t-99.5 -58t-138 -22.5h-224q-6 0 -10.5 4.5t-4.5 10.5v301h-43q-6 0 -10.5 4.5t-4.5 10.5v35q0 6 4.5 10.5t10.5 4.5zM185 72h154
q64 0 114 22.5t77 54.5t44.5 73t22.5 72t5 57t-5 57t-22.5 71.5t-44.5 72.5t-77 54.5t-114 22.5h-154v-248h184q6 0 10.5 -4.5t4.5 -10.5v-35q0 -6 -4.5 -10.5t-10.5 -4.5h-184v-244z" />
    <glyph glyph-name="dcroat" unicode="&#x111;" horiz-adv-x="611" 
d="M531 652h38q6 0 10.5 -4.5t4.5 -10.5v-25q0 -6 -4.5 -10.5t-10.5 -4.5h-38v-582q0 -6 -4.5 -10.5t-10.5 -4.5h-13q-15 0 -20 14l-16 48q-60 -70 -163 -70q-66 0 -115.5 24.5t-76.5 64.5t-39.5 82.5t-12.5 85.5t12.5 85t39.5 82.5t78 65.5t119 25q71 0 139 -35v125h-108
q-6 0 -10.5 4.5t-4.5 10.5v25q0 6 4.5 10.5t10.5 4.5h108v33q0 6 4.5 10.5t10.5 4.5h53q6 0 10.5 -4.5t4.5 -10.5v-33zM309 67q45 0 82.5 20.5t56.5 46.5v261q-23 17 -62 30t-68 13q-51 0 -88 -21t-54.5 -53t-25 -60.5t-7.5 -54.5q0 -18 3 -38t14 -47t28 -47.5t48.5 -35
t72.5 -14.5z" />
    <glyph glyph-name="Emacron" unicode="&#x112;" horiz-adv-x="613" 
d="M458 309h-273v-237h353q6 0 10.5 -4.5t4.5 -10.5v-42q0 -6 -4.5 -10.5t-10.5 -4.5h-423q-6 0 -10.5 4.5t-4.5 10.5v670q0 6 4.5 10.5t10.5 4.5h423q6 0 10.5 -4.5t4.5 -10.5v-42q0 -6 -4.5 -10.5t-10.5 -4.5h-353v-247h273q6 0 10.5 -4.5t4.5 -10.5v-42q0 -6 -4.5 -10.5
t-10.5 -4.5zM199 851h271q6 0 10.5 -4.5t4.5 -10.5v-25q0 -6 -4.5 -10.5t-10.5 -4.5h-271q-6 0 -10.5 4.5t-4.5 10.5v25q0 6 4.5 10.5t10.5 4.5z" />
    <glyph glyph-name="emacron" unicode="&#x113;" horiz-adv-x="539" 
d="M445 636v-25q0 -6 -4.5 -10.5t-10.5 -4.5h-271q-6 0 -10.5 4.5t-4.5 10.5v25q0 6 4.5 10.5t10.5 4.5h271q6 0 10.5 -4.5t4.5 -10.5zM494 299q0 -22 -3 -46q-2 -15 -17 -15h-346q1 -27 10 -55t27.5 -56.5t52 -46.5t76.5 -18q79 0 141 48q13 9 21 -2l23 -29q9 -13 -2 -22
q-77 -65 -183 -65q-68 0 -119 25t-78 65.5t-39.5 83t-12.5 86.5q0 43 12.5 85t39.5 82.5t78 65.5t119 25q95 0 147.5 -57t52.5 -154zM414 297q7 54 -21.5 96.5t-99.5 45.5q-132 0 -163 -142h284z" />
    <glyph glyph-name="Ebreve" unicode="&#x114;" horiz-adv-x="613" 
d="M458 309h-273v-237h353q6 0 10.5 -4.5t4.5 -10.5v-42q0 -6 -4.5 -10.5t-10.5 -4.5h-423q-6 0 -10.5 4.5t-4.5 10.5v670q0 6 4.5 10.5t10.5 4.5h423q6 0 10.5 -4.5t4.5 -10.5v-42q0 -6 -4.5 -10.5t-10.5 -4.5h-353v-247h273q6 0 10.5 -4.5t4.5 -10.5v-42q0 -6 -4.5 -10.5
t-10.5 -4.5zM422 915l25 -7q14 -5 9 -19q-39 -96 -129 -96q-93 0 -129 95q-5 14 9 19l27 9q13 5 19 -9q22 -54 74 -54q55 0 76 53q6 14 19 9z" />
    <glyph glyph-name="ebreve" unicode="&#x115;" horiz-adv-x="539" 
d="M295 593q-93 0 -129 95q-5 14 9 19l27 9q13 5 19 -9q23 -54 74 -54q55 0 76 53q6 14 19 9l25 -7q14 -5 9 -19q-39 -96 -129 -96zM494 299q0 -22 -3 -46q-2 -15 -17 -15h-346q1 -27 10 -55t27.5 -56.5t52 -46.5t76.5 -18q79 0 141 48q13 9 21 -2l23 -29q9 -13 -2 -22
q-77 -65 -183 -65q-68 0 -119 25t-78 65.5t-39.5 83t-12.5 86.5q0 43 12.5 85t39.5 82.5t78 65.5t119 25q95 0 147.5 -57t52.5 -154zM414 297q7 54 -21.5 96.5t-99.5 45.5q-132 0 -163 -142h284z" />
    <glyph glyph-name="Edotaccent" unicode="&#x116;" horiz-adv-x="613" 
d="M283 843q0 22 14.5 37t36.5 15t37 -15t15 -37t-15 -36.5t-37 -14.5t-36.5 14.5t-14.5 36.5zM458 309h-273v-237h353q6 0 10.5 -4.5t4.5 -10.5v-42q0 -6 -4.5 -10.5t-10.5 -4.5h-423q-6 0 -10.5 4.5t-4.5 10.5v670q0 6 4.5 10.5t10.5 4.5h423q6 0 10.5 -4.5t4.5 -10.5v-42
q0 -6 -4.5 -10.5t-10.5 -4.5h-353v-247h273q6 0 10.5 -4.5t4.5 -10.5v-42q0 -6 -4.5 -10.5t-10.5 -4.5z" />
    <glyph glyph-name="edotaccent" unicode="&#x117;" horiz-adv-x="539" 
d="M244 643q0 22 14.5 37t36.5 15t37 -15t15 -37t-15 -36.5t-37 -14.5t-36.5 14.5t-14.5 36.5zM494 299q0 -22 -3 -46q-2 -15 -17 -15h-346q1 -27 10 -55t27.5 -56.5t52 -46.5t76.5 -18q79 0 141 48q13 9 21 -2l23 -29q9 -13 -2 -22q-77 -65 -183 -65q-68 0 -119 25
t-78 65.5t-39.5 83t-12.5 86.5q0 43 12.5 85t39.5 82.5t78 65.5t119 25q95 0 147.5 -57t52.5 -154zM414 297q7 54 -21.5 96.5t-99.5 45.5q-132 0 -163 -142h284z" />
    <glyph glyph-name="Eogonek" unicode="&#x118;" horiz-adv-x="613" 
d="M458 309h-273v-237h353q6 0 10.5 -4.5t4.5 -10.5v-63q0 -11 -17 -46t-17 -57q0 -60 64 -60q26 0 60 12q5 1 9.5 -2t4.5 -8v-20q0 -15 -14 -21q-37 -12 -68 -12q-50 0 -83 26t-33 78q0 31 25.5 68t25.5 45v3h-395q-6 0 -10.5 4.5t-4.5 10.5v670q0 6 4.5 10.5t10.5 4.5h423
q6 0 10.5 -4.5t4.5 -10.5v-42q0 -6 -4.5 -10.5t-10.5 -4.5h-353v-247h273q6 0 10.5 -4.5t4.5 -10.5v-42q0 -6 -4.5 -10.5t-10.5 -4.5z" />
    <glyph glyph-name="eogonek" unicode="&#x119;" horiz-adv-x="539" 
d="M456 108l23 -29q9 -13 -2 -22q-38 -31 -70 -44v-19q0 -11 -17 -46t-17 -57q0 -60 64 -60q26 0 60 12q5 1 9.5 -2t4.5 -8v-20q0 -15 -14 -21q-38 -12 -68 -12q-50 0 -83 26t-33 78q0 31 25.5 68t25.5 45v2q-40 -7 -70 -7q-68 0 -119 25t-78 65.5t-39.5 83t-12.5 86.5
q0 43 12.5 85t39.5 82.5t78 65.5t119 25q95 0 147.5 -57t52.5 -154q0 -22 -3 -46q-2 -15 -17 -15h-346q1 -27 10 -55t27.5 -56.5t52 -46.5t76.5 -18q79 0 141 48q13 9 21 -2zM293 439q-132 0 -163 -142h284q7 54 -21.5 96.5t-99.5 45.5z" />
    <glyph glyph-name="Ecaron" unicode="&#x11a;" horiz-adv-x="613" 
d="M458 309h-273v-237h353q6 0 10.5 -4.5t4.5 -10.5v-42q0 -6 -4.5 -10.5t-10.5 -4.5h-423q-6 0 -10.5 4.5t-4.5 10.5v670q0 6 4.5 10.5t10.5 4.5h423q6 0 10.5 -4.5t4.5 -10.5v-42q0 -6 -4.5 -10.5t-10.5 -4.5h-353v-247h273q6 0 10.5 -4.5t4.5 -10.5v-42q0 -6 -4.5 -10.5
t-10.5 -4.5zM466 895l-131 -97q-12 -9 -24 0l-131 97q-11 8 -4 21l12 18q9 13 22 4l113 -69l113 69q13 9 21 -4l12 -18q9 -12 -3 -21z" />
    <glyph glyph-name="ecaron" unicode="&#x11b;" horiz-adv-x="539" 
d="M428 695l-131 -97q-12 -9 -24 0l-131 97q-11 8 -4 21l12 18q9 13 22 4l113 -69l113 69q13 9 21 -4l12 -18q9 -12 -3 -21zM494 299q0 -22 -3 -46q-2 -15 -17 -15h-346q1 -27 10 -55t27.5 -56.5t52 -46.5t76.5 -18q79 0 141 48q13 9 21 -2l23 -29q9 -13 -2 -22
q-77 -65 -183 -65q-68 0 -119 25t-78 65.5t-39.5 83t-12.5 86.5q0 43 12.5 85t39.5 82.5t78 65.5t119 25q95 0 147.5 -57t52.5 -154zM414 297q7 54 -21.5 96.5t-99.5 45.5q-132 0 -163 -142h284z" />
    <glyph glyph-name="Gcircumflex" unicode="&#x11c;" horiz-adv-x="714" 
d="M568 257h-136q-6 0 -10.5 4.5t-4.5 10.5v42q0 6 4.5 10.5t10.5 4.5h207q6 0 10.5 -4.5t4.5 -10.5v-214q0 -16 -11 -25q-92 -84 -237 -84q-77 0 -138.5 23.5t-99 60t-63 85t-35.5 96t-10 95.5q0 47 10 93.5t35.5 95.5t63 86t99 60.5t138.5 23.5q78 0 129.5 -19.5
t95.5 -60.5q11 -12 1 -22q-5 -5 -10 -10.5t-11.5 -11.5t-10.5 -10q-9 -11 -21 -1q-71 62 -173 62q-64 0 -113.5 -23.5t-76.5 -56.5t-43.5 -75.5t-21.5 -73.5t-5 -57q0 -27 5 -58t21.5 -73t43.5 -75t76.5 -56t113.5 -23q94 0 162 51v140zM406 937l131 -97q13 -9 3 -21
l-12 -18q-8 -13 -21 -4l-113 69l-113 -69q-13 -9 -22 4l-12 18q-8 12 4 21l131 97q12 9 24 0z" />
    <glyph glyph-name="gcircumflex" unicode="&#x11d;" horiz-adv-x="553" 
d="M276 666l-113 -69q-13 -9 -22 4l-12 18q-8 12 4 21l131 97q12 9 24 0l131 -97q13 -9 3 -21l-12 -18q-8 -13 -21 -4zM310 41q109 -2 148 -38t36 -94q-1 -18 -11 -39t-31 -44.5t-64.5 -39t-102.5 -15.5q-62 0 -108.5 14t-70.5 37t-35 47t-11 48q2 66 75 103
q-32 12 -46.5 37t-14.5 49q-2 33 16.5 58t51.5 34q-48 64 -48 130q0 31 9.5 60.5t29.5 57.5t57.5 45t87.5 17q59 0 107 -28l64 58q11 10 22 -1l21 -21q11 -9 1 -21l-60 -64q29 -55 29 -103q0 -69 -44.5 -125t-139.5 -56q-43 0 -76 12q-35 3 -49 -13t-14 -39q0 -28 29 -46.5
t62 -18.5h24q24 -1 56 -1zM278 443q-31 0 -52.5 -13.5t-31 -34t-13.5 -37t-4 -30.5t4 -30.5t13.5 -37t31 -33.5t52.5 -13q40 0 64.5 24t30.5 46.5t6 43.5q0 20 -6 43t-30.5 47.5t-64.5 24.5zM420 -88q4 31 -25.5 46.5t-116.5 15.5q-86 0 -115.5 -15.5t-29.5 -45.5
q0 -6 3 -13.5t12.5 -18.5t24.5 -19.5t42.5 -15t62.5 -7.5q37 0 65 6.5t42 15.5t22.5 20.5t10.5 18.5t2 12z" />
    <glyph glyph-name="Gbreve" unicode="&#x11e;" horiz-adv-x="714" 
d="M568 257h-136q-6 0 -10.5 4.5t-4.5 10.5v42q0 6 4.5 10.5t10.5 4.5h207q6 0 10.5 -4.5t4.5 -10.5v-214q0 -16 -11 -25q-92 -84 -237 -84q-77 0 -138.5 23.5t-99 60t-63 85t-35.5 96t-10 95.5q0 47 10 93.5t35.5 95.5t63 86t99 60.5t138.5 23.5q78 0 129.5 -19.5
t95.5 -60.5q11 -12 1 -22q-5 -5 -10 -10.5t-11.5 -11.5t-10.5 -10q-9 -11 -21 -1q-71 62 -173 62q-64 0 -113.5 -23.5t-76.5 -56.5t-43.5 -75.5t-21.5 -73.5t-5 -57q0 -27 5 -58t21.5 -73t43.5 -75t76.5 -56t113.5 -23q94 0 162 51v140zM495 915l25 -7q14 -5 9 -19
q-39 -96 -129 -96q-93 0 -129 95q-5 14 9 19l27 9q13 5 19 -9q23 -54 74 -54q55 0 76 53q6 14 19 9z" />
    <glyph glyph-name="gbreve" unicode="&#x11f;" horiz-adv-x="553" 
d="M276 593q-93 0 -129 95q-5 14 9 19l27 9q13 5 19 -9q22 -54 74 -54q55 0 76 53q6 14 19 9l25 -7q14 -5 9 -19q-39 -96 -129 -96zM310 40q109 -2 148 -38t36 -94q-1 -18 -11 -39t-31 -44.5t-64.5 -39t-102.5 -15.5q-62 0 -108.5 14t-70.5 37t-35 47t-11 48q2 66 75 103
q-32 12 -46.5 37t-14.5 50q-2 33 16.5 58t51.5 34q-48 64 -48 130q0 31 9.5 60.5t29.5 57.5t57.5 45t87.5 17q59 0 107 -28l64 58q11 10 22 -1l21 -21q11 -9 1 -21l-60 -64q29 -55 29 -103q0 -69 -44.5 -125t-139.5 -56q-43 0 -76 12q-35 3 -49 -13t-14 -39
q0 -29 28.5 -47.5t62.5 -18.5l24 -1h56zM278 443q-31 0 -52.5 -13.5t-31 -34t-13.5 -37t-4 -30.5t4 -30.5t13.5 -37t31 -33.5t52.5 -13q40 0 64.5 24t30.5 46.5t6 43.5q0 20 -6 43t-30.5 47.5t-64.5 24.5zM420 -89q4 31 -25.5 46.5t-116.5 15.5q-86 0 -115.5 -15.5
t-29.5 -45.5q0 -6 3 -13.5t12.5 -18.5t24.5 -19.5t42.5 -15t62.5 -7.5q37 0 65 6.5t42 15.5t22.5 20.5t10.5 18.5t2 12z" />
    <glyph glyph-name="Gdotaccent" unicode="&#x120;" horiz-adv-x="714" 
d="M348 843q0 22 14.5 37t36.5 15t37 -15t15 -37t-15 -36.5t-37 -14.5t-36.5 14.5t-14.5 36.5zM568 257h-136q-6 0 -10.5 4.5t-4.5 10.5v42q0 6 4.5 10.5t10.5 4.5h207q6 0 10.5 -4.5t4.5 -10.5v-214q0 -16 -11 -25q-92 -84 -237 -84q-77 0 -138.5 23.5t-99 60t-63 85
t-35.5 96t-10 95.5q0 47 10 93.5t35.5 95.5t63 86t99 60.5t138.5 23.5q78 0 129.5 -19.5t95.5 -60.5q11 -12 1 -22q-5 -5 -10 -10.5t-11.5 -11.5t-10.5 -10q-9 -11 -21 -1q-71 62 -173 62q-64 0 -113.5 -23.5t-76.5 -56.5t-43.5 -75.5t-21.5 -73.5t-5 -57q0 -27 5 -58
t21.5 -73t43.5 -75t76.5 -56t113.5 -23q94 0 162 51v140z" />
    <glyph glyph-name="gdotaccent" unicode="&#x121;" horiz-adv-x="553" 
d="M225 643q0 22 14.5 37t36.5 15t37 -15t15 -37t-15 -36.5t-37 -14.5t-36.5 14.5t-14.5 36.5zM310 40q109 -2 148 -38t36 -94q-1 -18 -11 -39t-31 -44.5t-64.5 -39t-102.5 -15.5q-62 0 -108.5 14t-70.5 37t-35 47t-11 48q2 66 75 103q-32 12 -46.5 37t-14.5 50
q-2 33 16.5 58t51.5 34q-48 64 -48 130q0 31 9.5 60.5t29.5 57.5t57.5 45t87.5 17q59 0 107 -28l64 58q11 10 22 -1l21 -21q11 -9 1 -21l-60 -64q29 -55 29 -103q0 -69 -44.5 -125t-139.5 -56q-43 0 -76 12q-35 3 -49 -13t-14 -39q0 -29 28.5 -47.5t62.5 -18.5l24 -1h56z
M278 443q-31 0 -52.5 -13.5t-31 -34t-13.5 -37t-4 -30.5t4 -30.5t13.5 -37t31 -33.5t52.5 -13q40 0 64.5 24t30.5 46.5t6 43.5q0 20 -6 43t-30.5 47.5t-64.5 24.5zM420 -89q4 31 -25.5 46.5t-116.5 15.5q-86 0 -115.5 -15.5t-29.5 -45.5q0 -6 3 -13.5t12.5 -18.5t24.5 -19.5
t42.5 -15t62.5 -7.5q37 0 65 6.5t42 15.5t22.5 20.5t10.5 18.5t2 12z" />
    <glyph glyph-name="Gcommaaccent" unicode="&#x122;" horiz-adv-x="714" 
d="M568 257h-136q-6 0 -10.5 4.5t-4.5 10.5v42q0 6 4.5 10.5t10.5 4.5h207q6 0 10.5 -4.5t4.5 -10.5v-214q0 -16 -11 -25q-92 -84 -237 -84q-77 0 -138.5 23.5t-99 60t-63 85t-35.5 96t-10 95.5q0 47 10 93.5t35.5 95.5t63 86t99 60.5t138.5 23.5q78 0 129.5 -19.5
t95.5 -60.5q11 -12 1 -22q-5 -5 -10 -10.5t-11.5 -11.5t-10.5 -10q-9 -11 -21 -1q-71 62 -173 62q-64 0 -113.5 -23.5t-76.5 -56.5t-43.5 -75.5t-21.5 -73.5t-5 -57q0 -27 5 -58t21.5 -73t43.5 -75t76.5 -56t113.5 -23q94 0 162 51v140zM388 -333l-4 3q-14 5 -8 20
q30 64 36 105q-25 -2 -44 13t-19 45q1 24 17 40.5t40 16.5q34 0 50 -19t16 -46q0 -64 -62 -171q-8 -12 -22 -7z" />
    <glyph glyph-name="gcommaaccent" unicode="&#x123;" horiz-adv-x="553" 
d="M310 38q109 -2 148 -38t36 -94q-1 -18 -11 -39t-31 -44.5t-64.5 -39t-102.5 -15.5q-62 0 -108.5 14t-70.5 37t-35 47t-11 48q2 66 75 103q-32 12 -46.5 38.5t-14.5 50.5q-2 33 16.5 58t51.5 34q-48 64 -48 130q0 31 9.5 60.5t29.5 57.5t57.5 45t87.5 17q59 0 107 -28
l64 58q11 10 22 -1l21 -21q11 -9 1 -21l-60 -64q29 -55 29 -103q0 -69 -44.5 -125t-139.5 -56q-43 0 -76 12q-35 3 -49 -13t-14 -39q0 -28 29 -48t62 -20l24 -1h56zM278 443q-31 0 -52.5 -13.5t-31 -34t-13.5 -37t-4 -30.5t4 -30.5t13.5 -37t31 -33.5t52.5 -13q40 0 64.5 24
t30.5 46.5t6 43.5q0 20 -6 43t-30.5 47.5t-64.5 24.5zM420 -91q4 31 -25.5 46.5t-116.5 15.5q-86 0 -115.5 -15.5t-29.5 -45.5q0 -6 3 -13.5t12.5 -18.5t24.5 -19.5t42.5 -15t62.5 -7.5q37 0 65 6.5t42 15.5t22.5 20.5t10.5 18.5t2 12zM280 583q-34 0 -50 19t-16 46
q0 42 22 97.5t50 99.5q9 12 22 5l6 -3q15 -6 7 -19q-41 -82 -47 -130q25 2 44 -13t19 -45q-1 -24 -17 -40.5t-40 -16.5z" />
    <glyph glyph-name="Hcircumflex" unicode="&#x124;" horiz-adv-x="763" 
d="M185 309v-294q0 -6 -4.5 -10.5t-10.5 -4.5h-55q-6 0 -10.5 4.5t-4.5 10.5v670q0 6 4.5 10.5t10.5 4.5h55q6 0 10.5 -4.5t4.5 -10.5v-304h392v304q0 6 4.5 10.5t10.5 4.5h56q6 0 10.5 -4.5t4.5 -10.5v-670q0 -6 -4.5 -10.5t-10.5 -4.5h-56q-6 0 -10.5 4.5t-4.5 10.5v294
h-392zM393 937l131 -97q13 -9 3 -21l-12 -18q-8 -13 -21 -4l-113 69l-113 -69q-13 -9 -22 4l-12 18q-8 12 4 21l131 97q12 9 24 0z" />
    <glyph glyph-name="hcircumflex" unicode="&#x125;" 
d="M148 0h-53q-6 0 -10.5 4.5t-4.5 10.5v670q0 6 4.5 10.5t10.5 4.5h53q6 0 10.5 -4.5t4.5 -10.5v-235q68 57 152 57q62 0 104.5 -22t62 -61.5t27 -78t7.5 -87.5v-243q0 -6 -4.5 -10.5t-10.5 -4.5h-52q-6 0 -10.5 4.5t-4.5 10.5v243q0 98 -32.5 139.5t-102.5 41.5
q-42 0 -81.5 -21.5t-54.5 -48.5v-354q0 -6 -4.5 -10.5t-10.5 -4.5zM136 944l131 -97q13 -9 3 -21l-12 -18q-8 -13 -21 -4l-113 69l-113 -69q-13 -9 -22 4l-12 18q-8 12 4 21l131 97q12 9 24 0z" />
    <glyph glyph-name="Hbar" unicode="&#x126;" horiz-adv-x="761" 
d="M706 536h-44v-521q0 -6 -4.5 -10.5t-10.5 -4.5h-56q-6 0 -10.5 4.5t-4.5 10.5v294h-392v-294q0 -6 -4.5 -10.5t-10.5 -4.5h-55q-6 0 -10.5 4.5t-4.5 10.5v521h-44q-6 0 -10.5 4.5t-4.5 10.5v24q0 6 4.5 10.5t10.5 4.5h44v95q0 6 4.5 10.5t10.5 4.5h55q6 0 10.5 -4.5
t4.5 -10.5v-95h392v95q0 6 4.5 10.5t10.5 4.5h56q6 0 10.5 -4.5t4.5 -10.5v-95h44q6 0 10.5 -4.5t4.5 -10.5v-24q0 -6 -4.5 -10.5t-10.5 -4.5zM184 381h392v155h-392v-155z" />
    <glyph glyph-name="hbar" unicode="&#x127;" 
d="M35 637h45v48q0 6 4.5 10.5t10.5 4.5h53q6 0 10.5 -4.5t4.5 -10.5v-48h111q6 0 10.5 -4.5t4.5 -10.5v-30q0 -6 -4.5 -10.5t-10.5 -4.5h-111v-127q68 57 152 57q62 0 104.5 -22t62 -61.5t27 -78t7.5 -87.5v-243q0 -6 -4.5 -10.5t-10.5 -4.5h-52q-6 0 -10.5 4.5t-4.5 10.5
v243q0 98 -32.5 139.5t-102.5 41.5q-42 0 -81.5 -21.5t-54.5 -48.5v-354q0 -6 -4.5 -10.5t-10.5 -4.5h-53q-6 0 -10.5 4.5t-4.5 10.5v562h-45q-6 0 -10.5 4.5t-4.5 10.5v30q0 6 4.5 10.5t10.5 4.5z" />
    <glyph glyph-name="Itilde" unicode="&#x128;" horiz-adv-x="308" 
d="M196 685v-670q0 -6 -4.5 -10.5t-10.5 -4.5h-55q-6 0 -10.5 4.5t-4.5 10.5v670q0 6 4.5 10.5t10.5 4.5h55q6 0 10.5 -4.5t4.5 -10.5zM275 886l20 -11q13 -8 6 -20q-36 -62 -98 -62q-23 0 -52.5 20t-51.5 20q-28 0 -47 -28q-9 -12 -22 -7l-17 8q-13 7 -8 21q29 68 95 68
q25 0 55.5 -20t49.5 -20q27 0 48 26q10 12 22 5z" />
    <glyph glyph-name="itilde" unicode="&#x129;" horiz-adv-x="308" 
d="M194 485v-471q0 -6 -4.5 -10.5t-10.5 -4.5h-53q-6 0 -10.5 4.5t-4.5 10.5v471q0 6 4.5 10.5t10.5 4.5h53q6 0 10.5 -4.5t4.5 -10.5zM275 686l20 -11q13 -8 6 -20q-36 -62 -98 -62q-23 0 -52.5 20t-51.5 20q-28 0 -47 -28q-9 -12 -22 -7l-17 8q-13 7 -8 21q29 68 95 68
q25 0 55.5 -20t49.5 -20q27 0 48 26q10 12 22 5z" />
    <glyph glyph-name="Imacron" unicode="&#x12a;" horiz-adv-x="301" 
d="M193 685v-670q0 -6 -4.5 -10.5t-10.5 -4.5h-55q-6 0 -10.5 4.5t-4.5 10.5v670q0 6 4.5 10.5t10.5 4.5h55q6 0 10.5 -4.5t4.5 -10.5zM15 851h271q6 0 10.5 -4.5t4.5 -10.5v-25q0 -6 -4.5 -10.5t-10.5 -4.5h-271q-6 0 -10.5 4.5t-4.5 10.5v25q0 6 4.5 10.5t10.5 4.5z" />
    <glyph glyph-name="imacron" unicode="&#x12b;" horiz-adv-x="301" 
d="M191 485v-471q0 -6 -4.5 -10.5t-10.5 -4.5h-53q-6 0 -10.5 4.5t-4.5 10.5v471q0 6 4.5 10.5t10.5 4.5h53q6 0 10.5 -4.5t4.5 -10.5zM15 651h271q6 0 10.5 -4.5t4.5 -10.5v-25q0 -6 -4.5 -10.5t-10.5 -4.5h-271q-6 0 -10.5 4.5t-4.5 10.5v25q0 6 4.5 10.5t10.5 4.5z" />
    <glyph glyph-name="Ibreve" unicode="&#x12c;" horiz-adv-x="268" 
d="M176 685v-670q0 -6 -4.5 -10.5t-10.5 -4.5h-55q-6 0 -10.5 4.5t-4.5 10.5v670q0 6 4.5 10.5t10.5 4.5h55q6 0 10.5 -4.5t4.5 -10.5zM229 915l25 -7q14 -5 9 -19q-39 -96 -129 -96q-93 0 -129 95q-5 14 9 19l27 9q13 5 19 -9q22 -54 74 -54q55 0 76 53q6 14 19 9z" />
    <glyph glyph-name="ibreve" unicode="&#x12d;" horiz-adv-x="268" 
d="M174 485v-471q0 -6 -4.5 -10.5t-10.5 -4.5h-53q-6 0 -10.5 4.5t-4.5 10.5v471q0 6 4.5 10.5t10.5 4.5h53q6 0 10.5 -4.5t4.5 -10.5zM229 715l25 -7q14 -5 9 -19q-39 -96 -129 -96q-93 0 -129 95q-5 14 9 19l27 9q13 5 19 -9q22 -54 74 -54q55 0 76 53q6 14 19 9z" />
    <glyph glyph-name="Iogonek" unicode="&#x12e;" horiz-adv-x="278" 
d="M184 685v-699q0 -11 -17 -46t-17 -57q0 -60 64 -60q26 0 60 12q5 2 9.5 -1.5t4.5 -8.5v-20q0 -15 -14 -21q-37 -12 -68 -12q-50 0 -83 26t-33 78q0 31 25.5 68t25.5 45v11h-27q-6 0 -10.5 4.5t-4.5 10.5v670q0 6 4.5 10.5t10.5 4.5h55q6 0 10.5 -4.5t4.5 -10.5z" />
    <glyph glyph-name="iogonek" unicode="&#x12f;" horiz-adv-x="268" 
d="M174 485v-491q0 -11 -17 -46t-17 -57q0 -60 64 -60q26 0 60 12q5 1 9.5 -2t4.5 -8v-20q0 -15 -14 -21q-37 -12 -68 -12q-50 0 -83 26t-33 78q0 31 25.5 68t25.5 45v2h-25q-6 0 -10.5 4.5t-4.5 10.5v471q0 6 4.5 10.5t10.5 4.5h53q6 0 10.5 -4.5t4.5 -10.5zM82 645
q0 22 14.5 37t36.5 15t37 -15t15 -37t-15 -36.5t-37 -14.5t-36.5 14.5t-14.5 36.5z" />
    <glyph glyph-name="Idotaccent" unicode="&#x130;" horiz-adv-x="283" 
d="M90 843q0 22 14.5 37t36.5 15t37 -15t15 -37t-15 -36.5t-37 -14.5t-36.5 14.5t-14.5 36.5zM184 685v-670q0 -6 -4.5 -10.5t-10.5 -4.5h-55q-6 0 -10.5 4.5t-4.5 10.5v670q0 6 4.5 10.5t10.5 4.5h55q6 0 10.5 -4.5t4.5 -10.5z" />
    <glyph glyph-name="dotlessi" unicode="&#x131;" horiz-adv-x="243" 
d="M163 485v-471q0 -6 -4.5 -10.5t-10.5 -4.5h-53q-6 0 -10.5 4.5t-4.5 10.5v471q0 6 4.5 10.5t10.5 4.5h53q6 0 10.5 -4.5t4.5 -10.5z" />
    <glyph glyph-name="IJ" unicode="&#x132;" horiz-adv-x="847" 
d="M185 685v-670q0 -6 -4.5 -10.5t-10.5 -4.5h-55q-6 0 -10.5 4.5t-4.5 10.5v670q0 6 4.5 10.5t10.5 4.5h55q6 0 10.5 -4.5t4.5 -10.5zM277 177l44 16q14 5 19 -9q47 -118 160 -114q43 1 75 17.5t47.5 37.5t25 51t11 49t1.5 40v420q0 6 4.5 10.5t10.5 4.5h57q6 0 10.5 -4.5
t4.5 -10.5v-420q0 -37 -6.5 -72t-23.5 -72t-44 -64.5t-71.5 -45t-101.5 -17.5q-171 0 -232 164q-5 14 9 19z" />
    <glyph glyph-name="ij" unicode="&#x133;" horiz-adv-x="502" 
d="M91 645q0 22 14.5 37t36.5 15t37 -15t15 -37t-15 -36.5t-37 -14.5t-36.5 14.5t-14.5 36.5zM310 643q0 22 14.5 37t36.5 15t37 -15t15 -37t-15 -36.5t-37 -14.5t-36.5 14.5t-14.5 36.5zM183 485v-471q0 -6 -4.5 -10.5t-10.5 -4.5h-53q-6 0 -10.5 4.5t-4.5 10.5v471
q0 6 4.5 10.5t10.5 4.5h53q6 0 10.5 -4.5t4.5 -10.5zM237 -207q-62 0 -115 33q-12 9 -4 22l19 29q8 14 21 6q38 -18 72 -18q89 0 89 121v499q0 6 4.5 10.5t10.5 4.5h54q6 0 10.5 -4.5t4.5 -10.5v-499q0 -159 -117 -188q-22 -5 -49 -5z" />
    <glyph glyph-name="Jcircumflex" unicode="&#x134;" horiz-adv-x="604" 
d="M34 177l44 16q14 5 19 -9q47 -118 160 -114q43 1 75 17.5t47.5 37.5t25 51t11 49t1.5 40v420q0 6 4.5 10.5t10.5 4.5h57q6 0 10.5 -4.5t4.5 -10.5v-420q0 -37 -6.5 -72t-23.5 -72t-44 -64.5t-71.5 -45t-101.5 -17.5q-171 0 -232 164q-5 14 9 19zM472 942l131 -97
q13 -9 3 -21l-12 -18q-8 -13 -21 -4l-113 69l-113 -69q-13 -9 -22 4l-12 18q-8 12 4 21l131 97q12 9 24 0z" />
    <glyph glyph-name="jcircumflex" unicode="&#x135;" horiz-adv-x="253" 
d="M-18 -207q-54 4 -100 33q-12 9 -4 22l19 29q8 14 21 6q38 -18 72 -18q89 0 89 121v499q0 6 4.5 10.5t10.5 4.5h54q6 0 10.5 -4.5t4.5 -10.5v-499q0 -158 -114 -187q-18 -5 -37 -6h-30zM139 737l131 -97q13 -9 3 -21l-12 -18q-8 -13 -21 -4l-113 69l-113 -69q-13 -9 -22 4
l-12 18q-8 12 4 21l131 97q12 9 24 0z" />
    <glyph glyph-name="Kcommaaccent" unicode="&#x136;" horiz-adv-x="691" 
d="M170 0h-55q-6 0 -10.5 4.5t-4.5 10.5v670q0 6 4.5 10.5t10.5 4.5h55q6 0 10.5 -4.5t4.5 -10.5v-312l330 317q12 10 26 10h78q7 0 7 -7q0 -6 -5 -11l-335 -318l353 -340q7 -6 7 -15t-9 -9h-74q-14 0 -26 10l-352 343v-338q0 -6 -4.5 -10.5t-10.5 -4.5zM310 -333l-4 3
q-14 5 -8 20q30 64 36 105q-25 -2 -44 13t-19 45q1 24 17 40.5t40 16.5q34 0 50 -19t16 -46q0 -64 -62 -171q-8 -12 -22 -7z" />
    <glyph glyph-name="kcommaaccent" unicode="&#x137;" horiz-adv-x="541" 
d="M164 249v-234q0 -6 -4.5 -10.5t-10.5 -4.5h-54q-6 0 -10.5 4.5t-4.5 10.5v671q0 6 4.5 10.5t10.5 4.5h54q6 0 10.5 -4.5t4.5 -10.5v-420l223 223q11 11 26 11h72q4 0 5.5 -4t-1.5 -6l-235 -228l255 -252q3 -2 1.5 -6t-5.5 -4h-76q-15 0 -26 11zM236 -333l-4 3
q-14 5 -8 20q30 64 36 105q-25 -2 -44 13t-19 45q1 24 17 40.5t40 16.5q34 0 50 -19t16 -46q0 -64 -62 -171q-8 -12 -22 -7z" />
    <glyph glyph-name="kgreenlandic" unicode="&#x138;" horiz-adv-x="517" 
d="M164 249v-234q0 -6 -4.5 -10.5t-10.5 -4.5h-54q-6 0 -10.5 4.5t-4.5 10.5v470q0 6 4.5 10.5t10.5 4.5h54q6 0 10.5 -4.5t4.5 -10.5v-219l223 223q11 11 26 11h72q4 0 5.5 -4t-1.5 -6l-235 -228l255 -252q3 -2 1.5 -6t-5.5 -4h-76q-15 0 -26 11z" />
    <glyph glyph-name="Lacute" unicode="&#x139;" horiz-adv-x="520" 
d="M185 685v-613h260q6 0 10.5 -4.5t4.5 -10.5v-42q0 -6 -4.5 -10.5t-10.5 -4.5h-330q-6 0 -10.5 4.5t-4.5 10.5v670q0 6 4.5 10.5t10.5 4.5h55q6 0 10.5 -4.5t4.5 -10.5zM129 840l131 97q4 4 10.5 2.5t9.5 -6.5l22 -32q8 -12 -5 -20l-138 -84q-13 -9 -22 4l-12 18
q-8 12 4 21z" />
    <glyph glyph-name="lacute" unicode="&#x13a;" horiz-adv-x="263" 
d="M173 687v-672q0 -6 -4.5 -10.5t-10.5 -4.5h-53q-6 0 -10.5 4.5t-4.5 10.5v672q0 6 4.5 10.5t10.5 4.5h53q6 0 10.5 -4.5t4.5 -10.5zM69 846l131 97q4 4 10.5 2.5t9.5 -6.5l22 -32q8 -12 -5 -20l-138 -84q-13 -9 -22 4l-12 18q-8 12 4 21z" />
    <glyph glyph-name="Lcommaaccent" unicode="&#x13b;" horiz-adv-x="520" 
d="M185 685v-613h260q6 0 10.5 -4.5t4.5 -10.5v-42q0 -6 -4.5 -10.5t-10.5 -4.5h-330q-6 0 -10.5 4.5t-4.5 10.5v670q0 6 4.5 10.5t10.5 4.5h55q6 0 10.5 -4.5t4.5 -10.5zM254 -333l-4 3q-14 5 -8 20q30 64 36 105q-25 -2 -44 13t-19 45q1 24 17 40.5t40 16.5q34 0 50 -19
t16 -46q0 -64 -62 -171q-8 -12 -22 -7z" />
    <glyph glyph-name="lcommaaccent" unicode="&#x13c;" horiz-adv-x="263" 
d="M173 687v-672q0 -6 -4.5 -10.5t-10.5 -4.5h-53q-6 0 -10.5 4.5t-4.5 10.5v672q0 6 4.5 10.5t10.5 4.5h53q6 0 10.5 -4.5t4.5 -10.5zM103 -333l-4 3q-14 5 -8 20q30 64 36 105q-25 -2 -44 13t-19 45q1 24 17 40.5t40 16.5q34 0 50 -19t16 -46q0 -64 -62 -171
q-8 -12 -22 -7z" />
    <glyph glyph-name="Lcaron" unicode="&#x13d;" horiz-adv-x="520" 
d="M185 685v-613h260q6 0 10.5 -4.5t4.5 -10.5v-42q0 -6 -4.5 -10.5t-10.5 -4.5h-330q-6 0 -10.5 4.5t-4.5 10.5v670q0 6 4.5 10.5t10.5 4.5h55q6 0 10.5 -4.5t4.5 -10.5zM304 435l-6 3q-13 8 -6 20q39 78 47 130q-25 -2 -44 13t-19 45q1 24 17 40.5t40 16.5q34 0 50 -19
t16 -46q0 -42 -22.5 -98t-50.5 -99q-7 -12 -22 -6z" />
    <glyph glyph-name="lcaron" unicode="&#x13e;" horiz-adv-x="377" 
d="M173 687v-672q0 -6 -4.5 -10.5t-10.5 -4.5h-53q-6 0 -10.5 4.5t-4.5 10.5v672q0 6 4.5 10.5t10.5 4.5h53q6 0 10.5 -4.5t4.5 -10.5zM280 436l-6 3q-13 8 -6 20q39 78 47 130q-25 -2 -44 13t-19 45q1 24 17 40.5t40 16.5q34 0 50 -19t16 -46q0 -42 -22.5 -98t-50.5 -99
q-7 -12 -22 -6z" />
    <glyph glyph-name="Ldot" unicode="&#x13f;" horiz-adv-x="520" 
d="M185 685v-613h260q6 0 10.5 -4.5t4.5 -10.5v-42q0 -6 -4.5 -10.5t-10.5 -4.5h-330q-6 0 -10.5 4.5t-4.5 10.5v670q0 6 4.5 10.5t10.5 4.5h55q6 0 10.5 -4.5t4.5 -10.5zM275 315q0 24 16.5 40.5t40.5 16.5t41.5 -16.5t17.5 -40.5q0 -25 -17.5 -42t-41.5 -17t-40.5 17
t-16.5 42z" />
    <glyph glyph-name="ldot" unicode="&#x140;" horiz-adv-x="390" 
d="M173 687v-672q0 -6 -4.5 -10.5t-10.5 -4.5h-53q-6 0 -10.5 4.5t-4.5 10.5v672q0 6 4.5 10.5t10.5 4.5h53q6 0 10.5 -4.5t4.5 -10.5zM254 297q0 24 16.5 40.5t40.5 16.5t41.5 -16.5t17.5 -40.5q0 -25 -17.5 -42t-41.5 -17t-40.5 17t-16.5 42z" />
    <glyph glyph-name="Lslash" unicode="&#x141;" horiz-adv-x="540" 
d="M29 270l-11 19q-9 12 5 20l96 56v320q0 6 4.5 10.5t10.5 4.5h56q6 0 10.5 -4.5t4.5 -10.5v-271l140 81q12 8 21 -5l11 -19q7 -12 -5 -21l-167 -96v-282h260q6 0 10.5 -4.5t4.5 -10.5v-42q0 -6 -4.5 -10.5t-10.5 -4.5h-331q-6 0 -10.5 4.5t-4.5 10.5v289l-69 -40
q-12 -7 -21 6z" />
    <glyph glyph-name="lslash" unicode="&#x142;" horiz-adv-x="334" 
d="M304 454l12 -18q7 -12 -5 -21l-106 -61v-338q0 -6 -4.5 -10.5t-10.5 -4.5h-56q-6 0 -10.5 4.5t-4.5 10.5v288l-69 -40q-12 -7 -21 6l-11 19q-9 12 5 20l96 56v321q0 6 4.5 10.5t10.5 4.5h56q6 0 10.5 -4.5t4.5 -10.5v-272l78 45q13 9 21 -5z" />
    <glyph glyph-name="Nacute" unicode="&#x143;" horiz-adv-x="763" 
d="M171 0h-56q-6 0 -10.5 4.5t-4.5 10.5v676q0 6 4.5 10.5t10.5 4.5h1q16 0 25 -11l437 -505v495q0 6 4.5 10.5t10.5 4.5h55q6 0 10.5 -4.5t4.5 -10.5v-677q0 -14 -15 -14t-24 11l-438 507v-497q0 -6 -4.5 -10.5t-10.5 -4.5zM297 840l131 97q4 4 10.5 2.5t9.5 -6.5l22 -32
q8 -12 -5 -20l-138 -84q-13 -9 -22 4l-12 18q-8 12 4 21z" />
    <glyph glyph-name="nacute" unicode="&#x144;" 
d="M163 357v-342q0 -6 -4.5 -10.5t-10.5 -4.5h-53q-6 0 -10.5 4.5t-4.5 10.5v470q0 6 4.5 10.5t10.5 4.5h13q15 0 20 -14l15 -48q66 70 164 70q53 0 92 -15.5t61 -38.5t35 -58t17 -66.5t4 -71.5v-243q0 -6 -4.5 -10.5t-10.5 -4.5h-54q-6 0 -10.5 4.5t-4.5 10.5v242v27
t-2.5 30t-7 34.5t-14 30.5t-22.5 28t-35 17.5t-49 7.5q-42 0 -82.5 -24.5t-56.5 -50.5zM204 640l131 97q5 4 11 2.5t9 -6.5l22 -32q8 -12 -5 -20l-138 -84q-13 -9 -22 4l-12 18q-8 12 4 21z" />
    <glyph glyph-name="Ncommaaccent" unicode="&#x145;" horiz-adv-x="763" 
d="M171 0h-56q-6 0 -10.5 4.5t-4.5 10.5v676q0 6 4.5 10.5t10.5 4.5h1q16 0 25 -11l437 -505v495q0 6 4.5 10.5t10.5 4.5h55q6 0 10.5 -4.5t4.5 -10.5v-677q0 -14 -15 -14t-24 11l-438 507v-497q0 -6 -4.5 -10.5t-10.5 -4.5zM359 -333l-4 3q-14 5 -8 20q30 64 36 105
q-25 -2 -44 13t-19 45q1 24 17 40.5t40 16.5q34 0 50 -19t16 -46q0 -64 -62 -171q-8 -12 -22 -7z" />
    <glyph glyph-name="ncommaaccent" unicode="&#x146;" 
d="M163 357v-342q0 -6 -4.5 -10.5t-10.5 -4.5h-53q-6 0 -10.5 4.5t-4.5 10.5v470q0 6 4.5 10.5t10.5 4.5h13q15 0 20 -14l15 -48q66 70 164 70q53 0 92 -15.5t61 -38.5t35 -58t17 -66.5t4 -71.5v-243q0 -6 -4.5 -10.5t-10.5 -4.5h-54q-6 0 -10.5 4.5t-4.5 10.5v242v27
t-2.5 30t-7 34.5t-14 30.5t-22.5 28t-35 17.5t-49 7.5q-42 0 -82.5 -24.5t-56.5 -50.5zM266 -333l-4 3q-14 5 -8 20q30 64 36 105q-25 -2 -44 13t-19 45q1 24 17 40.5t40 16.5q34 0 50 -19t16 -46q0 -64 -62 -171q-8 -12 -22 -7z" />
    <glyph glyph-name="Ncaron" unicode="&#x147;" horiz-adv-x="763" 
d="M171 0h-56q-6 0 -10.5 4.5t-4.5 10.5v676q0 6 4.5 10.5t10.5 4.5h1q16 0 25 -11l437 -505v495q0 6 4.5 10.5t10.5 4.5h55q6 0 10.5 -4.5t4.5 -10.5v-677q0 -14 -15 -14t-24 11l-438 507v-497q0 -6 -4.5 -10.5t-10.5 -4.5zM524 895l-131 -97q-12 -9 -24 0l-131 97
q-11 8 -4 21l12 18q9 13 22 4l113 -69l113 69q13 9 21 -4l12 -18q9 -12 -3 -21z" />
    <glyph glyph-name="ncaron" unicode="&#x148;" 
d="M163 357v-342q0 -6 -4.5 -10.5t-10.5 -4.5h-53q-6 0 -10.5 4.5t-4.5 10.5v470q0 6 4.5 10.5t10.5 4.5h13q15 0 20 -14l15 -48q66 70 164 70q53 0 92 -15.5t61 -38.5t35 -58t17 -66.5t4 -71.5v-243q0 -6 -4.5 -10.5t-10.5 -4.5h-54q-6 0 -10.5 4.5t-4.5 10.5v242v27
t-2.5 30t-7 34.5t-14 30.5t-22.5 28t-35 17.5t-49 7.5q-42 0 -82.5 -24.5t-56.5 -50.5zM431 695l-131 -97q-12 -9 -24 0l-131 97q-11 8 -4 21l12 18q9 13 22 4l113 -69l113 69q13 9 21 -4l12 -18q9 -12 -3 -21z" />
    <glyph glyph-name="napostrophe" unicode="&#x149;" horiz-adv-x="674" 
d="M261 357v-342q0 -6 -4.5 -10.5t-10.5 -4.5h-53q-6 0 -10.5 4.5t-4.5 10.5v470q0 6 4.5 10.5t10.5 4.5h13q15 0 20 -14l15 -48q66 70 164 70q53 0 92 -15.5t61 -38.5t35 -58t17 -66.5t4 -71.5v-243q0 -6 -4.5 -10.5t-10.5 -4.5h-54q-6 0 -10.5 4.5t-4.5 10.5v242v27
t-2.5 30t-7 34.5t-14 30.5t-22.5 28t-35 17.5t-49 7.5q-42 0 -82.5 -24.5t-56.5 -50.5zM50 495l-4 3q-14 5 -8 20q30 64 36 105q-25 -2 -44 13t-19 45q1 24 17 40.5t40 16.5q34 0 50 -19t16 -46q0 -64 -62 -171q-8 -12 -22 -7z" />
    <glyph glyph-name="Eng" unicode="&#x14a;" horiz-adv-x="763" 
d="M496 -223q-62 0 -115 33q-12 9 -4 22l19 29q8 14 21 6q37 -18 72 -18q89 0 89 121v97l-392 441v-493q0 -6 -4.5 -10.5t-10.5 -4.5h-56q-6 0 -10.5 4.5t-4.5 10.5v677q0 6 4.5 10.5t10.5 4.5h2q16 0 25 -11l436 -504v493q0 6 4.5 10.5t10.5 4.5h55q6 0 10.5 -4.5
t4.5 -10.5l-1 -715q0 -159 -117 -188q-22 -5 -49 -5z" />
    <glyph glyph-name="eng" unicode="&#x14b;" 
d="M350 -221q-62 0 -115 33q-12 9 -4 22l19 29q8 14 21 6q37 -18 72 -18q89 0 89 121v285v27t-2.5 30t-7 34.5t-14 30.5t-22.5 28t-35 17.5t-49 7.5q-42 0 -82.5 -24.5t-56.5 -50.5v-342q0 -6 -4.5 -10.5t-10.5 -4.5h-53q-6 0 -10.5 4.5t-4.5 10.5v470q0 6 4.5 10.5
t10.5 4.5h13q15 0 20 -14l15 -48q66 70 164 70q53 0 92 -15.5t61 -38.5t35 -58t17 -66.5t4 -71.5v-286q0 -159 -117 -188q-22 -5 -49 -5z" />
    <glyph glyph-name="Omacron" unicode="&#x14c;" horiz-adv-x="812" 
d="M406 710q77 0 138.5 -23.5t99 -60.5t63 -86t35.5 -95.5t10 -93.5q0 -48 -10 -95.5t-35.5 -96t-63 -85t-99 -60t-138.5 -23.5t-138.5 23.5t-99 60t-63 85t-35.5 96t-10 95.5q0 47 10 93.5t35.5 95.5t63 86t99 60.5t138.5 23.5zM406 68q64 0 113 23t75.5 55.5t43.5 74.5
t21.5 72.5t4.5 57.5q0 26 -5 56.5t-21.5 72.5t-43 74t-75.5 55t-113 23t-113.5 -23t-76 -55t-43 -74t-21.5 -72.5t-5 -56.5q0 -27 5 -57.5t21.5 -72.5t43 -74.5t76 -55.5t113.5 -23zM270 854h271q6 0 10.5 -4.5t4.5 -10.5v-25q0 -6 -4.5 -10.5t-10.5 -4.5h-271
q-6 0 -10.5 4.5t-4.5 10.5v25q0 6 4.5 10.5t10.5 4.5z" />
    <glyph glyph-name="omacron" unicode="&#x14d;" horiz-adv-x="618" 
d="M309 508q68 0 119 -25t78 -65.5t39.5 -82.5t12.5 -85q0 -44 -12.5 -86.5t-39.5 -82.5t-78 -64.5t-119 -24.5q-55 0 -99 16.5t-71.5 43t-45.5 61.5t-25.5 68.5t-7.5 68.5q0 43 12.5 85t39.5 82.5t78 65.5t119 25zM309 62q42 0 73.5 15t49 36.5t28 49.5t13.5 48.5t3 38.5
t-3 38.5t-13.5 48.5t-28 49.5t-49 36.5t-73.5 15q-51 0 -86.5 -21.5t-51.5 -55t-22 -60.5t-6 -51t6 -51t22 -60.5t51.5 -55t86.5 -21.5zM173 651h271q6 0 10.5 -4.5t4.5 -10.5v-25q0 -6 -4.5 -10.5t-10.5 -4.5h-271q-6 0 -10.5 4.5t-4.5 10.5v25q0 6 4.5 10.5t10.5 4.5z" />
    <glyph glyph-name="Obreve" unicode="&#x14e;" horiz-adv-x="812" 
d="M406 710q77 0 138.5 -23.5t99 -60.5t63 -86t35.5 -95.5t10 -93.5q0 -48 -10 -95.5t-35.5 -96t-63 -85t-99 -60t-138.5 -23.5t-138.5 23.5t-99 60t-63 85t-35.5 96t-10 95.5q0 47 10 93.5t35.5 95.5t63 86t99 60.5t138.5 23.5zM406 68q64 0 113 23t75.5 55.5t43.5 74.5
t21.5 72.5t4.5 57.5q0 26 -5 56.5t-21.5 72.5t-43 74t-75.5 55t-113 23t-113.5 -23t-76 -55t-43 -74t-21.5 -72.5t-5 -56.5q0 -27 5 -57.5t21.5 -72.5t43 -74.5t76 -55.5t113.5 -23zM501 915l25 -7q14 -5 9 -19q-39 -96 -129 -96q-93 0 -129 95q-5 14 9 19l27 9q13 5 19 -9
q22 -54 74 -54q55 0 76 53q6 14 19 9z" />
    <glyph glyph-name="obreve" unicode="&#x14f;" horiz-adv-x="618" 
d="M309 508q68 0 119 -25t78 -65.5t39.5 -82.5t12.5 -85q0 -44 -12.5 -86.5t-39.5 -82.5t-78 -64.5t-119 -24.5q-55 0 -99 16.5t-71.5 43t-45.5 61.5t-25.5 68.5t-7.5 68.5q0 43 12.5 85t39.5 82.5t78 65.5t119 25zM309 62q42 0 73.5 15t49 36.5t28 49.5t13.5 48.5t3 38.5
t-3 38.5t-13.5 48.5t-28 49.5t-49 36.5t-73.5 15q-51 0 -86.5 -21.5t-51.5 -55t-22 -60.5t-6 -51t6 -51t22 -60.5t51.5 -55t86.5 -21.5zM408 715l25 -7q14 -5 9 -19q-39 -96 -129 -96q-93 0 -129 95q-5 14 9 19l27 9q13 5 19 -9q23 -54 74 -54q55 0 76 53q6 14 19 9z" />
    <glyph glyph-name="Ohungarumlaut" unicode="&#x150;" horiz-adv-x="812" 
d="M406 710q77 0 138.5 -23.5t99 -60.5t63 -86t35.5 -95.5t10 -93.5q0 -48 -10 -95.5t-35.5 -96t-63 -85t-99 -60t-138.5 -23.5t-138.5 23.5t-99 60t-63 85t-35.5 96t-10 95.5q0 47 10 93.5t35.5 95.5t63 86t99 60.5t138.5 23.5zM406 68q64 0 113 23t75.5 55.5t43.5 74.5
t21.5 72.5t4.5 57.5q0 26 -5 56.5t-21.5 72.5t-43 74t-75.5 55t-113 23t-113.5 -23t-76 -55t-43 -74t-21.5 -72.5t-5 -56.5q0 -27 5 -57.5t21.5 -72.5t43 -74.5t76 -55.5t113.5 -23zM564 932l-53 -126q-6 -14 -21 -14h-27q-5 0 -8.5 4.5t-2.5 9.5l40 126q5 14 20 14h43
q5 0 8 -4.5t1 -9.5zM391 932l-53 -126q-6 -14 -21 -14h-27q-5 0 -8.5 4.5t-2.5 9.5l40 126q5 14 20 14h43q5 0 8 -4.5t1 -9.5z" />
    <glyph glyph-name="ohungarumlaut" unicode="&#x151;" horiz-adv-x="618" 
d="M309 508q68 0 119 -25t78 -65.5t39.5 -82.5t12.5 -85q0 -44 -12.5 -86.5t-39.5 -82.5t-78 -64.5t-119 -24.5q-55 0 -99 16.5t-71.5 43t-45.5 61.5t-25.5 68.5t-7.5 68.5q0 43 12.5 85t39.5 82.5t78 65.5t119 25zM309 62q42 0 73.5 15t49 36.5t28 49.5t13.5 48.5t3 38.5
t-3 38.5t-13.5 48.5t-28 49.5t-49 36.5t-73.5 15q-51 0 -86.5 -21.5t-51.5 -55t-22 -60.5t-6 -51t6 -51t22 -60.5t51.5 -55t86.5 -21.5zM476 732l-53 -126q-6 -14 -21 -14h-27q-5 0 -8.5 4.5t-2.5 9.5l40 126q5 14 20 14h43q5 0 8 -4.5t1 -9.5zM303 732l-53 -126
q-6 -14 -21 -14h-27q-5 0 -8.5 4.5t-2.5 9.5l40 126q5 14 20 14h43q5 0 8 -4.5t1 -9.5z" />
    <glyph glyph-name="OE" unicode="&#x152;" horiz-adv-x="1009" 
d="M854 309h-273v-237h353q6 0 10.5 -4.5t4.5 -10.5v-42q0 -6 -4.5 -10.5t-10.5 -4.5h-438q-40 -9 -90 -9q-77 0 -138.5 23.5t-99 60t-63 85t-35.5 96t-10 95.5q0 47 10 93.5t35.5 95.5t63 86t99 60.5t138.5 23.5q53 0 93 -10h435q6 0 10.5 -4.5t4.5 -10.5v-42
q0 -6 -4.5 -10.5t-10.5 -4.5h-353v-247h273q6 0 10.5 -4.5t4.5 -10.5v-42q0 -6 -4.5 -10.5t-10.5 -4.5zM406 68q54 0 90 13v537q-42 14 -90 14q-64 0 -113.5 -23t-76 -55t-43 -74t-21.5 -72.5t-5 -56.5q0 -27 5 -57.5t21.5 -72.5t43 -74.5t76 -55.5t113.5 -23z" />
    <glyph glyph-name="oe" unicode="&#x153;" horiz-adv-x="985" 
d="M925 299q0 -22 -3 -46q-2 -15 -17 -15h-347q0 -67 47.5 -122t119.5 -55q83 0 141 45q13 9 22 -2l21 -26q11 -11 -1 -21q-77 -65 -183 -65q-137 0 -208 114q-70 -114 -208 -114q-68 0 -119 25t-78 65.5t-39.5 82.5t-12.5 85q0 34 7.5 67.5t25.5 69t45.5 62t71.5 43.5
t99 17q142 0 207 -113q60 116 209 116q95 0 147.5 -58t52.5 -155zM309 60q42 0 73.5 15.5t49 37t28 50t13.5 49t3 38.5t-3 38.5t-13.5 49t-28 50t-49 37t-73.5 15.5q-51 0 -86.5 -22t-51.5 -56t-22 -61t-6 -51t6 -51t22 -61t51.5 -56t86.5 -22zM840 297q7 55 -21 99t-99 47
q-130 0 -166 -146h286z" />
    <glyph glyph-name="Racute" unicode="&#x154;" horiz-adv-x="656" 
d="M411 881l-138 -84q-13 -9 -22 4l-12 18q-8 12 4 21l131 97q5 4 11 2.5t9 -6.5l22 -32q8 -12 -5 -20zM596 485q0 -76 -47.5 -135.5t-115.5 -74.5q40 -87 123 -261q2 -5 -1 -9.5t-8 -4.5h-57q-16 0 -21 14l-121 254h-165v-253q0 -6 -4.5 -10.5t-10.5 -4.5h-53
q-6 0 -10.5 4.5t-4.5 10.5v670q0 6 4.5 10.5t10.5 4.5h241q66 0 115 -21t75 -54.5t38 -68.5t12 -71zM183 341h183q42 1 72 17t45 39.5t21.5 45.5t6.5 42q0 21 -6.5 43.5t-21.5 46.5t-46.5 39t-74.5 15h-179v-288z" />
    <glyph glyph-name="racute" unicode="&#x155;" horiz-adv-x="365" 
d="M342 490l-7 -40q-3 -15 -18 -13q-3 0 -8.5 0.5t-8.5 0.5q-48 0 -86 -22.5t-51 -58.5v-342q0 -6 -4.5 -10.5t-10.5 -4.5h-53q-6 0 -10.5 4.5t-4.5 10.5v470q0 6 4.5 10.5t10.5 4.5h13q15 0 20 -14l15 -48q74 70 164 70q15 0 23 -1q6 -1 9.5 -6t2.5 -11zM98 640l131 97
q5 4 11 2.5t9 -6.5l22 -32q8 -12 -5 -20l-138 -84q-13 -9 -22 4l-12 18q-8 12 4 21z" />
    <glyph glyph-name="Rcommaaccent" unicode="&#x156;" horiz-adv-x="656" 
d="M183 268v-253q0 -6 -4.5 -10.5t-10.5 -4.5h-53q-6 0 -10.5 4.5t-4.5 10.5v670q0 6 4.5 10.5t10.5 4.5h241q66 0 115 -21t75 -54.5t38 -68.5t12 -71q0 -75 -47 -133t-116 -77q40 -87 123 -261q2 -5 -1 -9.5t-8 -4.5h-57q-16 0 -21 14l-121 254h-165zM183 341h183
q42 1 72 17t45 39.5t21.5 45.5t6.5 42q0 21 -6.5 43.5t-21.5 46.5t-46.5 39t-74.5 15h-179v-288zM306 -333l-4 3q-14 5 -8 20q30 64 36 105q-25 -2 -44 13t-19 45q1 24 17 40.5t40 16.5q34 0 50 -19t16 -46q0 -64 -62 -171q-8 -12 -22 -7z" />
    <glyph glyph-name="rcommaaccent" unicode="&#x157;" horiz-adv-x="365" 
d="M342 490l-7 -40q-3 -15 -18 -13q-3 0 -8.5 0.5t-8.5 0.5q-48 0 -86 -22.5t-51 -58.5v-342q0 -6 -4.5 -10.5t-10.5 -4.5h-53q-6 0 -10.5 4.5t-4.5 10.5v470q0 6 4.5 10.5t10.5 4.5h13q15 0 20 -14l15 -48q74 70 164 70q15 0 23 -1q6 -1 9.5 -6t2.5 -11zM92 -333l-4 3
q-14 5 -8 20q30 64 36 105q-25 -2 -44 13t-19 45q1 24 17 40.5t40 16.5q34 0 50 -19t16 -46q0 -64 -62 -171q-8 -12 -22 -7z" />
    <glyph glyph-name="Rcaron" unicode="&#x158;" horiz-adv-x="656" 
d="M183 268v-253q0 -6 -4.5 -10.5t-10.5 -4.5h-53q-6 0 -10.5 4.5t-4.5 10.5v670q0 6 4.5 10.5t10.5 4.5h241q66 0 115 -21t75 -54.5t38 -68.5t12 -71q0 -77 -48 -138t-115 -72q40 -87 123 -261q2 -5 -1 -9.5t-8 -4.5h-57q-16 0 -21 14l-121 254h-165zM183 341h183
q42 1 72 17t45 39.5t21.5 45.5t6.5 42q0 21 -6.5 43.5t-21.5 46.5t-46.5 39t-74.5 15h-179v-288zM442 895l-131 -97q-12 -9 -24 0l-131 97q-11 8 -4 21l12 18q9 13 22 4l113 -69l113 69q13 9 21 -4l12 -18q9 -12 -3 -21z" />
    <glyph glyph-name="rcaron" unicode="&#x159;" horiz-adv-x="365" 
d="M342 490l-7 -40q-3 -15 -18 -13q-3 0 -8.5 0.5t-8.5 0.5q-48 0 -86 -22.5t-51 -58.5v-342q0 -6 -4.5 -10.5t-10.5 -4.5h-53q-6 0 -10.5 4.5t-4.5 10.5v470q0 6 4.5 10.5t10.5 4.5h13q15 0 20 -14l15 -48q74 70 164 70q15 0 23 -1q6 -1 9.5 -6t2.5 -11zM326 695l-131 -97
q-12 -9 -24 0l-131 97q-11 8 -4 21l12 18q9 13 22 4l113 -69l113 69q13 9 21 -4l12 -18q9 -12 -3 -21z" />
    <glyph glyph-name="Sacute" unicode="&#x15a;" horiz-adv-x="613" 
d="M150 537v-1q0 -41 30 -69t74.5 -41.5t97 -32t97 -39.5t74.5 -65t30 -107q0 -81 -69 -137t-176 -56q-122 0 -235 54q-12 7 -7 21q2 5 6 13t7.5 14.5t6.5 12.5q5 14 20 8q104 -44 194 -44q65 0 111.5 31t50.5 81q3 40 -16.5 68.5t-54 44t-76.5 28.5t-85.5 27.5t-80 34
t-60.5 55t-26 85.5q-4 91 56.5 139.5t157.5 48.5q103 0 220 -46q14 -5 9 -20q-3 -9 -8 -23.5t-7 -19.5q-5 -14 -20 -9q-116 37 -191 37q-55 0 -91.5 -22.5t-38.5 -70.5zM222 840l131 97q5 4 11 2.5t9 -6.5l22 -32q8 -12 -5 -20l-138 -84q-13 -9 -22 4l-12 18q-8 12 4 21z
" />
    <glyph glyph-name="sacute" unicode="&#x15b;" horiz-adv-x="483" 
d="M325 681l-138 -84q-13 -9 -22 4l-12 18q-8 12 4 21l131 97q4 4 10.5 2.5t9.5 -6.5l22 -32q8 -12 -5 -20zM254 291q36 -11 59.5 -21.5t52 -29t43 -46t14.5 -64.5q0 -61 -50.5 -99.5t-128.5 -38.5q-94 0 -171 40q-12 7 -7 21q3 5 8.5 14.5t7.5 14.5q5 14 19 8
q71 -33 137 -33q41 0 70 20t29 52q0 17 -7.5 31t-15.5 22.5t-28.5 18t-30.5 13t-38 12.5q-31 10 -44.5 15t-39 18t-37 26.5t-21.5 35.5t-10 49q1 65 44 101.5t114 36.5q80 0 160 -35q14 -5 8 -20q-5 -10 -15 -34q-7 -13 -21 -8q-72 28 -113 28q-95 0 -99 -65q0 -32 27.5 -49
t83.5 -34z" />
    <glyph glyph-name="Scircumflex" unicode="&#x15c;" horiz-adv-x="613" 
d="M150 537v-1q0 -41 30 -69t74.5 -41.5t97 -32t97 -39.5t74.5 -65t30 -107q0 -81 -69 -137t-176 -56q-122 0 -235 54q-12 7 -7 21q2 5 6 13t7.5 14.5t6.5 12.5q5 14 20 8q104 -44 194 -44q65 0 111.5 31t50.5 81q3 40 -16.5 68.5t-54 44t-76.5 28.5t-85.5 27.5t-80 34
t-60.5 55t-26 85.5q-4 91 56.5 139.5t157.5 48.5q103 0 220 -46q14 -5 9 -20q-3 -9 -8 -23.5t-7 -19.5q-5 -14 -20 -9q-116 37 -191 37q-55 0 -91.5 -22.5t-38.5 -70.5zM309 937l131 -97q13 -9 3 -21l-12 -18q-8 -13 -21 -4l-113 69l-113 -69q-13 -9 -22 4l-12 18
q-8 12 4 21l131 97q12 9 24 0z" />
    <glyph glyph-name="scircumflex" unicode="&#x15d;" horiz-adv-x="483" 
d="M242 666l-113 -69q-13 -9 -22 4l-12 18q-8 12 4 21l131 97q12 9 24 0l131 -97q13 -9 3 -21l-12 -18q-8 -13 -21 -4zM254 291q36 -11 59.5 -21.5t52 -29t43 -46t14.5 -64.5q0 -61 -50.5 -99.5t-128.5 -38.5q-94 0 -171 40q-12 7 -7 21q3 5 8.5 14.5t7.5 14.5q5 14 19 8
q71 -33 137 -33q41 0 70 20t29 52q0 17 -7.5 31t-15.5 22.5t-28.5 18t-30.5 13t-38 12.5q-31 10 -44.5 15t-39 18t-37 26.5t-21.5 35.5t-10 49q1 65 44 101.5t114 36.5q80 0 160 -35q14 -5 8 -20q-5 -10 -15 -34q-7 -13 -21 -8q-72 28 -113 28q-95 0 -99 -65q0 -32 27.5 -49
t83.5 -34z" />
    <glyph glyph-name="Scedilla" unicode="&#x15e;" horiz-adv-x="613" 
d="M283 -73q-3 3 -3 7v56q-112 4 -207 53q-12 7 -7 21q2 5 6 13t7.5 14.5t6.5 12.5q5 14 20 8q104 -44 194 -44q65 0 111.5 31t50.5 81q3 40 -16.5 68.5t-54 44t-76.5 28.5t-85.5 27.5t-80 34t-60.5 55t-26 85.5q-4 91 56.5 139.5t157.5 48.5q103 0 220 -46q14 -5 9 -20
q-3 -9 -8 -23.5t-7 -19.5q-5 -14 -20 -9q-116 37 -191 37q-55 0 -91.5 -22.5t-38.5 -70.5v-1q0 -41 30 -69t74.5 -41.5t97 -32t97 -39.5t74.5 -65t30 -107q0 -77 -63 -131.5t-162 -60.5v-24h13q42 -2 64.5 -27t22.5 -55q0 -49 -30 -75.5t-72 -26.5q-39 0 -69 17q-14 7 -6 21
l6 14q6 13 20 7q24 -10 44 -10q28 0 40.5 16t12.5 33t-13 30.5t-42 13.5h-29q-4 0 -7 3z" />
    <glyph glyph-name="scedilla" unicode="&#x15f;" horiz-adv-x="483" 
d="M219 -76q-3 3 -3 7v62q-76 4 -143 39q-12 7 -7 21q3 5 8.5 14.5t7.5 14.5q5 14 19 8q71 -33 137 -33q41 0 70 20t29 52q0 17 -7.5 31t-15.5 22.5t-28.5 18t-30.5 13t-38 12.5q-31 10 -44.5 15t-39 18t-37 26.5t-21.5 35.5t-10 49q1 65 44 101.5t114 36.5q80 0 160 -35
q14 -5 8 -20q-5 -10 -15 -34q-7 -13 -21 -8q-72 28 -113 28q-95 0 -99 -65q0 -32 27.5 -49t83.5 -34q36 -11 59.5 -21.5t52 -29t43 -46t14.5 -64.5q0 -57 -44 -94t-115 -43v-30h13q42 -2 64.5 -27t22.5 -55q0 -49 -30 -75.5t-72 -26.5q-39 0 -69 17q-14 7 -6 21l6 14
q6 13 20 7q24 -10 44 -10q28 0 40.5 16t12.5 33t-13 30.5t-42 13.5h-29q-4 0 -7 3z" />
    <glyph glyph-name="Scaron" unicode="&#x160;" horiz-adv-x="613" 
d="M150 537v-1q0 -41 30 -69t74.5 -41.5t97 -32t97 -39.5t74.5 -65t30 -107q0 -81 -69 -137t-176 -56q-122 0 -235 54q-12 7 -7 21q2 5 6 13t7.5 14.5t6.5 12.5q5 14 20 8q104 -44 194 -44q65 0 111.5 31t50.5 81q3 40 -16.5 68.5t-54 44t-76.5 28.5t-85.5 27.5t-80 34
t-60.5 55t-26 85.5q-4 91 56.5 139.5t157.5 48.5q103 0 220 -46q14 -5 9 -20q-3 -9 -8 -23.5t-7 -19.5q-5 -14 -20 -9q-116 37 -191 37q-55 0 -91.5 -22.5t-38.5 -70.5zM449 895l-131 -97q-12 -9 -24 0l-131 97q-11 8 -4 21l12 18q9 13 22 4l113 -69l113 69q13 9 21 -4
l12 -18q9 -12 -3 -21z" />
    <glyph glyph-name="scaron" unicode="&#x161;" horiz-adv-x="483" 
d="M381 695l-131 -97q-12 -9 -24 0l-131 97q-11 8 -4 21l12 18q9 13 22 4l113 -69l113 69q13 9 21 -4l12 -18q9 -12 -3 -21zM254 291q36 -11 59.5 -21.5t52 -29t43 -46t14.5 -64.5q0 -61 -50.5 -99.5t-128.5 -38.5q-94 0 -171 40q-12 7 -7 21q3 5 8.5 14.5t7.5 14.5
q5 14 19 8q71 -33 137 -33q41 0 70 20t29 52q0 17 -7.5 31t-15.5 22.5t-28.5 18t-30.5 13t-38 12.5q-31 10 -44.5 15t-39 18t-37 26.5t-21.5 35.5t-10 49q1 65 44 101.5t114 36.5q80 0 160 -35q14 -5 8 -20q-5 -10 -15 -34q-7 -13 -21 -8q-72 28 -113 28q-95 0 -99 -65
q0 -32 27.5 -49t83.5 -34z" />
    <glyph glyph-name="Tcommaaccent" unicode="&#x162;" horiz-adv-x="596" 
d="M254 15v613h-194q-6 0 -10.5 4.5t-4.5 10.5v42q0 6 4.5 10.5t10.5 4.5h476q6 0 10.5 -4.5t4.5 -10.5v-42q0 -6 -4.5 -10.5t-10.5 -4.5h-196v-613q0 -6 -4.5 -10.5t-10.5 -4.5h-56q-6 0 -10.5 4.5t-4.5 10.5zM276 -333l-4 3q-14 5 -8 20q30 64 36 105q-25 -2 -44 13
t-19 45q1 24 17 40.5t40 16.5q34 0 50 -19t16 -46q0 -64 -62 -171q-8 -12 -22 -7z" />
    <glyph glyph-name="tcommaaccent" unicode="&#x163;" horiz-adv-x="301" 
d="M74 434h-49q-6 0 -10.5 4.5t-4.5 10.5v36q0 6 4.5 10.5t10.5 4.5h49l7 85q0 6 4.5 10.5t11.5 4.5h46q6 0 10.5 -4.5t4.5 -10.5v-85h92q6 0 10.5 -4.5t4.5 -10.5v-36q0 -6 -4.5 -10.5t-10.5 -4.5h-92v-302q0 -37 12.5 -56t51.5 -16q24 2 43 6q14 4 18 -11l5 -26
q3 -16 -12 -19q-51 -14 -102 -14q-26 0 -45.5 10.5t-29.5 24.5t-16 33t-7.5 31t-1.5 23v316zM128 -333l-4 3q-14 5 -8 20q30 64 36 105q-25 -2 -44 13t-19 45q1 24 17 40.5t40 16.5q34 0 50 -19t16 -46q0 -64 -62 -171q-8 -12 -22 -7z" />
    <glyph glyph-name="Tcaron" unicode="&#x164;" horiz-adv-x="596" 
d="M254 15v613h-194q-6 0 -10.5 4.5t-4.5 10.5v42q0 6 4.5 10.5t10.5 4.5h476q6 0 10.5 -4.5t4.5 -10.5v-42q0 -6 -4.5 -10.5t-10.5 -4.5h-196v-613q0 -6 -4.5 -10.5t-10.5 -4.5h-56q-6 0 -10.5 4.5t-4.5 10.5zM441 895l-131 -97q-12 -9 -24 0l-131 97q-11 8 -4 21l12 18
q9 13 22 4l113 -69l113 69q13 9 21 -4l12 -18q9 -12 -3 -21z" />
    <glyph glyph-name="tcaron" unicode="&#x165;" horiz-adv-x="516" 
d="M74 434h-49q-6 0 -10.5 4.5t-4.5 10.5v36q0 6 4.5 10.5t10.5 4.5h49l7 85q0 6 4.5 10.5t11.5 4.5h46q6 0 10.5 -4.5t4.5 -10.5v-85h92q6 0 10.5 -4.5t4.5 -10.5v-36q0 -6 -4.5 -10.5t-10.5 -4.5h-92v-302q0 -37 12.5 -56t51.5 -16q24 2 43 6q14 4 18 -11l5 -26
q3 -16 -12 -19q-51 -14 -102 -14q-26 0 -45.5 10.5t-29.5 24.5t-16 33t-7.5 31t-1.5 23v316zM374 439l-6 3q-13 8 -6 20q39 78 47 130q-25 -2 -44 13t-19 45q1 24 17 40.5t40 16.5q34 0 50 -19t16 -46q0 -42 -22.5 -98t-50.5 -99q-7 -12 -22 -6z" />
    <glyph glyph-name="Tbar" unicode="&#x166;" horiz-adv-x="596" 
d="M341 375h93q6 0 10.5 -4.5t4.5 -10.5v-23q0 -6 -4.5 -10.5t-10.5 -4.5h-93v-307q0 -6 -4.5 -10.5t-10.5 -4.5h-56q-6 0 -10.5 4.5t-4.5 10.5v307h-93q-6 0 -10.5 4.5t-4.5 10.5v23q0 6 4.5 10.5t10.5 4.5h93v253h-195q-6 0 -10.5 4.5t-4.5 10.5v42q0 6 4.5 10.5t10.5 4.5
h476q6 0 10.5 -4.5t4.5 -10.5v-42q0 -6 -4.5 -10.5t-10.5 -4.5h-195v-253z" />
    <glyph glyph-name="tbar" unicode="&#x167;" horiz-adv-x="301" 
d="M24 331h50v103h-49q-6 0 -10.5 4.5t-4.5 10.5v36q0 6 4.5 10.5t10.5 4.5h49l7 85q0 6 4.5 10.5t11.5 4.5h46q6 0 10.5 -4.5t4.5 -10.5v-85h92q6 0 10.5 -4.5t4.5 -10.5v-36q0 -6 -4.5 -10.5t-10.5 -4.5h-92v-103h92q6 0 10.5 -4.5t4.5 -10.5v-30q0 -6 -4.5 -10.5
t-10.5 -4.5h-92v-139q0 -37 12.5 -56t51.5 -16q24 2 43 6q14 4 18 -11l5 -26q3 -16 -12 -19q-51 -14 -102 -14q-26 0 -45.5 10.5t-29.5 24.5t-16 33t-7.5 31t-1.5 23v153h-50q-6 0 -10.5 4.5t-4.5 10.5v30q0 6 4.5 10.5t10.5 4.5z" />
    <glyph glyph-name="Utilde" unicode="&#x168;" horiz-adv-x="720" 
d="M559 700h56q6 0 10.5 -4.5t4.5 -10.5v-421q0 -47 -14.5 -92t-45 -86.5t-85 -67t-126.5 -25.5q-71 0 -125.5 25.5t-84.5 67t-44.5 86.5t-14.5 92v421q0 6 4.5 10.5t10.5 4.5h54q6 0 10.5 -4.5t4.5 -10.5v-421q0 -19 5 -42t18 -51.5t32.5 -51.5t53.5 -39t76 -16q52 0 91 23
t58 57.5t27.5 65t8.5 54.5v421q0 6 4.5 10.5t10.5 4.5zM305 833q-28 0 -47 -28q-9 -12 -22 -7l-17 8q-13 7 -8 21q29 68 95 68q25 0 55.5 -20t49.5 -20q27 0 48 26q10 12 22 5l20 -11q13 -8 6 -20q-36 -62 -98 -62q-23 0 -52 20t-52 20z" />
    <glyph glyph-name="utilde" unicode="&#x169;" 
d="M413 143v342q0 6 4.5 10.5t10.5 4.5h53q6 0 10.5 -4.5t4.5 -10.5v-470q0 -6 -4.5 -10.5t-10.5 -4.5h-13q-15 0 -20 14l-15 48q-66 -70 -164 -70q-53 0 -92 15.5t-61 38.5t-35 58t-17 66.5t-4 71.5v243q0 6 4.5 10.5t10.5 4.5h54q6 0 10.5 -4.5t4.5 -10.5v-242v-27
t2.5 -30t7 -34.5t14 -30.5t22.5 -28t35 -17.5t49 -7.5q43 0 82.5 24.5t56.5 50.5zM409 686l20 -11q13 -8 6 -20q-36 -62 -98 -62q-23 0 -52 20t-52 20q-28 0 -47 -28q-9 -12 -22 -7l-17 8q-13 7 -8 21q29 68 95 68q25 0 55.5 -20t49.5 -20q27 0 48 26q10 12 22 5z" />
    <glyph glyph-name="Umacron" unicode="&#x16a;" horiz-adv-x="720" 
d="M510 836v-25q0 -6 -4.5 -10.5t-10.5 -4.5h-271q-6 0 -10.5 4.5t-4.5 10.5v25q0 6 4.5 10.5t10.5 4.5h271q6 0 10.5 -4.5t4.5 -10.5zM559 700h56q6 0 10.5 -4.5t4.5 -10.5v-421q0 -47 -14.5 -92t-45 -86.5t-85 -67t-126.5 -25.5q-71 0 -125.5 25.5t-84.5 67t-44.5 86.5
t-14.5 92v421q0 6 4.5 10.5t10.5 4.5h54q6 0 10.5 -4.5t4.5 -10.5v-421q0 -19 5 -42t18 -51.5t32.5 -51.5t53.5 -39t76 -16q52 0 91 23t58 57.5t27.5 65t8.5 54.5v421q0 6 4.5 10.5t10.5 4.5z" />
    <glyph glyph-name="umacron" unicode="&#x16b;" 
d="M413 143v342q0 6 4.5 10.5t10.5 4.5h53q6 0 10.5 -4.5t4.5 -10.5v-470q0 -6 -4.5 -10.5t-10.5 -4.5h-13q-15 0 -20 14l-15 48q-66 -70 -164 -70q-53 0 -92 15.5t-61 38.5t-35 58t-17 66.5t-4 71.5v243q0 6 4.5 10.5t10.5 4.5h54q6 0 10.5 -4.5t4.5 -10.5v-242v-27
t2.5 -30t7 -34.5t14 -30.5t22.5 -28t35 -17.5t49 -7.5q43 0 82.5 24.5t56.5 50.5zM152 651h271q6 0 10.5 -4.5t4.5 -10.5v-25q0 -6 -4.5 -10.5t-10.5 -4.5h-271q-6 0 -10.5 4.5t-4.5 10.5v25q0 6 4.5 10.5t10.5 4.5z" />
    <glyph glyph-name="Ubreve" unicode="&#x16c;" horiz-adv-x="720" 
d="M360 793q-93 0 -129 95q-5 14 9 19l27 9q13 5 19 -9q23 -54 74 -54q55 0 76 53q6 14 19 9l25 -7q14 -5 9 -19q-39 -96 -129 -96zM559 700h56q6 0 10.5 -4.5t4.5 -10.5v-421q0 -47 -14.5 -92t-45 -86.5t-85 -67t-126.5 -25.5q-71 0 -125.5 25.5t-84.5 67t-44.5 86.5
t-14.5 92v421q0 6 4.5 10.5t10.5 4.5h54q6 0 10.5 -4.5t4.5 -10.5v-421q0 -19 5 -42t18 -51.5t32.5 -51.5t53.5 -39t76 -16q52 0 91 23t58 57.5t27.5 65t8.5 54.5v421q0 6 4.5 10.5t10.5 4.5z" />
    <glyph glyph-name="ubreve" unicode="&#x16d;" 
d="M413 143v342q0 6 4.5 10.5t10.5 4.5h53q6 0 10.5 -4.5t4.5 -10.5v-470q0 -6 -4.5 -10.5t-10.5 -4.5h-13q-15 0 -20 14l-15 48q-66 -70 -164 -70q-53 0 -92 15.5t-61 38.5t-35 58t-17 66.5t-4 71.5v243q0 6 4.5 10.5t10.5 4.5h54q6 0 10.5 -4.5t4.5 -10.5v-242v-27
t2.5 -30t7 -34.5t14 -30.5t22.5 -28t35 -17.5t49 -7.5q43 0 82.5 24.5t56.5 50.5zM375 715l25 -7q14 -5 9 -19q-39 -96 -129 -96q-93 0 -129 95q-5 14 9 19l27 9q13 5 19 -9q23 -54 74 -54q55 0 76 53q6 14 19 9z" />
    <glyph glyph-name="Uring" unicode="&#x16e;" horiz-adv-x="720" 
d="M258 888q0 42 30 72t72 30t71.5 -30t29.5 -72t-29.5 -71.5t-71.5 -29.5t-72 29.5t-30 71.5zM311 888q0 -19 14.5 -33.5t34.5 -14.5q19 0 33.5 14.5t14.5 33.5q0 20 -14.5 34.5t-33.5 14.5q-20 0 -34.5 -14.5t-14.5 -34.5zM559 700h56q6 0 10.5 -4.5t4.5 -10.5v-421
q0 -47 -14.5 -92t-45 -86.5t-85 -67t-126.5 -25.5q-71 0 -125.5 25.5t-84.5 67t-44.5 86.5t-14.5 92v421q0 6 4.5 10.5t10.5 4.5h54q6 0 10.5 -4.5t4.5 -10.5v-421q0 -19 5 -42t18 -51.5t32.5 -51.5t53.5 -39t76 -16q52 0 91 23t58 57.5t27.5 65t8.5 54.5v421q0 6 4.5 10.5
t10.5 4.5z" />
    <glyph glyph-name="uring" unicode="&#x16f;" 
d="M186 688q0 42 30 72t72 30t71.5 -30t29.5 -72t-29.5 -71.5t-71.5 -29.5t-72 29.5t-30 71.5zM239 688q0 -19 14.5 -33.5t34.5 -14.5q19 0 33.5 14.5t14.5 33.5q0 20 -14.5 34.5t-33.5 14.5q-20 0 -34.5 -14.5t-14.5 -34.5zM413 143v342q0 6 4.5 10.5t10.5 4.5h53
q6 0 10.5 -4.5t4.5 -10.5v-470q0 -6 -4.5 -10.5t-10.5 -4.5h-13q-15 0 -20 14l-15 48q-66 -70 -164 -70q-53 0 -92 15.5t-61 38.5t-35 58t-17 66.5t-4 71.5v243q0 6 4.5 10.5t10.5 4.5h54q6 0 10.5 -4.5t4.5 -10.5v-242v-27t2.5 -30t7 -34.5t14 -30.5t22.5 -28t35 -17.5
t49 -7.5q43 0 82.5 24.5t56.5 50.5z" />
    <glyph glyph-name="Uhungarumlaut" unicode="&#x170;" horiz-adv-x="720" 
d="M511 932l-53 -126q-6 -14 -21 -14h-27q-5 0 -8.5 4.5t-2.5 9.5l40 126q5 14 20 14h43q5 0 8 -4.5t1 -9.5zM559 700h56q6 0 10.5 -4.5t4.5 -10.5v-421q0 -47 -14.5 -92t-45 -86.5t-85 -67t-126.5 -25.5q-71 0 -125.5 25.5t-84.5 67t-44.5 86.5t-14.5 92v421q0 6 4.5 10.5
t10.5 4.5h54q6 0 10.5 -4.5t4.5 -10.5v-421q0 -19 5 -42t18 -51.5t32.5 -51.5t53.5 -39t76 -16q52 0 91 23t58 57.5t27.5 65t8.5 54.5v421q0 6 4.5 10.5t10.5 4.5zM338 932l-53 -126q-6 -14 -21 -14h-27q-5 0 -8.5 4.5t-2.5 9.5l40 126q5 14 20 14h43q5 0 8 -4.5t1 -9.5z
" />
    <glyph glyph-name="uhungarumlaut" unicode="&#x171;" 
d="M413 143v342q0 6 4.5 10.5t10.5 4.5h53q6 0 10.5 -4.5t4.5 -10.5v-470q0 -6 -4.5 -10.5t-10.5 -4.5h-13q-15 0 -20 14l-15 48q-66 -70 -164 -70q-53 0 -92 15.5t-61 38.5t-35 58t-17 66.5t-4 71.5v243q0 6 4.5 10.5t10.5 4.5h54q6 0 10.5 -4.5t4.5 -10.5v-242v-27
t2.5 -30t7 -34.5t14 -30.5t22.5 -28t35 -17.5t49 -7.5q43 0 82.5 24.5t56.5 50.5zM430 732l-53 -126q-6 -14 -21 -14h-27q-5 0 -8.5 4.5t-2.5 9.5l40 126q5 14 20 14h43q5 0 8 -4.5t1 -9.5zM257 732l-53 -126q-6 -14 -21 -14h-27q-5 0 -8.5 4.5t-2.5 9.5l40 126q5 14 20 14
h43q5 0 8 -4.5t1 -9.5z" />
    <glyph glyph-name="Uogonek" unicode="&#x172;" horiz-adv-x="720" 
d="M630 264q0 -48 -14 -94.5t-50 -90t-89 -64.5v-21q0 -11 -17 -46t-17 -57q0 -60 64 -60q26 0 60 12q5 1 9.5 -2t4.5 -8v-20q0 -15 -14 -21q-37 -12 -68 -12q-50 0 -83 26t-33 78q0 31 25.5 68t25.5 45v4q-40 -8 -75 -8q-71 0 -125.5 25.5t-84.5 67t-44.5 86.5t-14.5 92
v421q0 6 4.5 10.5t10.5 4.5h54q6 0 10.5 -4.5t4.5 -10.5v-421q0 -19 5 -42t18 -51.5t32.5 -51.5t53.5 -39t76 -16q52 0 91 23t58 57.5t27.5 65t8.5 54.5v421q0 6 4.5 10.5t10.5 4.5h56q6 0 10.5 -4.5t4.5 -10.5v-421z" />
    <glyph glyph-name="uogonek" unicode="&#x173;" 
d="M413 143v342q0 6 4.5 10.5t10.5 4.5h53q6 0 10.5 -4.5t4.5 -10.5v-491q0 -11 -17 -46t-17 -57q0 -60 64 -60q26 0 60 12q5 1 9.5 -2t4.5 -8v-20q0 -15 -14 -21q-38 -12 -68 -12q-50 0 -83 26t-33 78q0 31 25.5 68t25.5 45v3l-20 62q-66 -70 -164 -70q-53 0 -92 15.5
t-61 38.5t-35 58t-17 66.5t-4 71.5v243q0 6 4.5 10.5t10.5 4.5h54q6 0 10.5 -4.5t4.5 -10.5v-242v-27t2.5 -30t7 -34.5t14 -30.5t22.5 -28t35 -17.5t49 -7.5q43 0 82.5 24.5t56.5 50.5z" />
    <glyph glyph-name="Wcircumflex" unicode="&#x174;" horiz-adv-x="1137" 
d="M1029 700h63q5 0 8 -4.5t1 -9.5l-292 -681q-3 -11 -16 -11q-12 0 -15 11l-210 517l-212 -518q-3 -10 -15 -10q-11 0 -14 10l-291 682q-2 5 1 9.5t8 4.5h62q14 0 21 -14l214 -519l206 526q5 14 19 14q15 0 20 -14l206 -526l215 519q7 14 21 14zM580 937l131 -97
q13 -9 3 -21l-12 -18q-8 -13 -21 -4l-113 69l-113 -69q-13 -9 -22 4l-12 18q-8 12 4 21l131 97q12 9 24 0z" />
    <glyph glyph-name="wcircumflex" unicode="&#x175;" horiz-adv-x="797" 
d="M541 150l130 336q5 14 20 14h61q5 0 8 -4.5t1 -9.5l-200 -481q-7 -13 -21 -13t-19 14l-123 323l-123 -324q-5 -13 -19 -13t-19 13l-201 481q-2 5 1 9.5t8 4.5h61q15 0 20 -14l130 -336l126 350q4 11 16 11t16 -11zM410 737l131 -97q13 -9 3 -21l-12 -18q-8 -13 -21 -4
l-113 69l-113 -69q-13 -9 -22 4l-12 18q-8 12 4 21l131 97q12 9 24 0z" />
    <glyph glyph-name="Ycircumflex" unicode="&#x176;" horiz-adv-x="622" 
d="M327 937l131 -97q13 -9 3 -21l-12 -18q-8 -13 -21 -4l-113 69l-113 -69q-13 -9 -22 4l-12 18q-8 12 4 21l131 97q12 9 24 0zM353 318v-303q0 -6 -4.5 -10.5t-10.5 -4.5h-56q-6 0 -10.5 4.5t-4.5 10.5v302l-229 370q-3 5 -0.5 9t7.5 4h66q15 0 23 -13l176 -290l176 290
q8 13 23 13h68q5 0 7 -4.5t0 -8.5z" />
    <glyph glyph-name="ycircumflex" unicode="&#x177;" horiz-adv-x="565" 
d="M126 486l157 -379l152 379q7 14 21 14h64q5 0 8 -4.5t1 -9.5l-288 -679q-6 -14 -21 -14h-58q-5 0 -8 4.5t-1 9.5l86 203l-203 476q-2 5 1 9.5t8 4.5h60q14 0 21 -14zM294 737l131 -97q13 -9 3 -21l-12 -18q-8 -13 -21 -4l-113 69l-113 -69q-13 -9 -22 4l-12 18
q-8 12 4 21l131 97q12 9 24 0z" />
    <glyph glyph-name="Ydieresis" unicode="&#x178;" horiz-adv-x="622" 
d="M353 318v-303q0 -6 -4.5 -10.5t-10.5 -4.5h-56q-6 0 -10.5 4.5t-4.5 10.5v302l-229 370q-3 5 -0.5 9t7.5 4h66q15 0 23 -13l176 -290l176 290q8 13 23 13h68q5 0 7 -4.5t0 -8.5zM137 858q11 37 49 37q22 0 37 -15t15 -37t-15 -36.5t-37 -14.5q-18 0 -31 10t-18 26
q-5 15 0 30zM384 843q0 22 14.5 37t36.5 15t37 -15t15 -37t-15 -36.5t-37 -14.5t-36.5 14.5t-14.5 36.5z" />
    <glyph glyph-name="Zacute" unicode="&#x179;" horiz-adv-x="631" 
d="M196 72h360q6 0 10.5 -4.5t4.5 -10.5v-42q0 -6 -4.5 -10.5t-10.5 -4.5h-469q-14 0 -14 14q0 15 7 26l354 589h-335q-6 0 -10.5 4.5t-4.5 10.5v41q0 6 4.5 10.5t10.5 4.5h449q12 0 12 -12q0 -13 -6 -22zM231 840l131 97q4 4 10.5 2.5t9.5 -6.5l22 -32q8 -12 -5 -20
l-138 -84q-13 -9 -22 4l-12 18q-8 12 4 21z" />
    <glyph glyph-name="zacute" unicode="&#x17a;" horiz-adv-x="477" 
d="M69 440v45q0 6 4.5 10.5t10.5 4.5h325q12 0 12 -12q0 -10 -6 -21l-239 -392h235q6 0 10.5 -4.5t4.5 -10.5v-45q0 -6 -4.5 -10.5t-10.5 -4.5h-340q-13 0 -13 13q0 14 7 24l232 388h-213q-6 0 -10.5 4.5t-4.5 10.5zM169 640l131 97q4 4 10.5 2.5t9.5 -6.5l22 -32
q8 -12 -5 -20l-138 -84q-13 -9 -22 4l-12 18q-8 12 4 21z" />
    <glyph glyph-name="Zdotaccent" unicode="&#x17b;" horiz-adv-x="631" 
d="M264 843q0 22 14.5 37t36.5 15t37 -15t15 -37t-15 -36.5t-37 -14.5t-36.5 14.5t-14.5 36.5zM196 72h360q6 0 10.5 -4.5t4.5 -10.5v-42q0 -6 -4.5 -10.5t-10.5 -4.5h-469q-14 0 -14 14q0 15 7 26l354 589h-335q-6 0 -10.5 4.5t-4.5 10.5v41q0 6 4.5 10.5t10.5 4.5h449
q12 0 12 -12q0 -13 -6 -22z" />
    <glyph glyph-name="zdotaccent" unicode="&#x17c;" horiz-adv-x="477" 
d="M192 643q0 22 14.5 37t36.5 15t37 -15t15 -37t-15 -36.5t-37 -14.5t-36.5 14.5t-14.5 36.5zM69 440v45q0 6 4.5 10.5t10.5 4.5h325q12 0 12 -12q0 -10 -6 -21l-239 -392h235q6 0 10.5 -4.5t4.5 -10.5v-45q0 -6 -4.5 -10.5t-10.5 -4.5h-340q-13 0 -13 13q0 14 7 24
l232 388h-213q-6 0 -10.5 4.5t-4.5 10.5z" />
    <glyph glyph-name="Zcaron" unicode="&#x17d;" horiz-adv-x="631" 
d="M196 72h360q6 0 10.5 -4.5t4.5 -10.5v-42q0 -6 -4.5 -10.5t-10.5 -4.5h-466q-6 0 -10.5 4.5t-4.5 10.5v2q0 14 8 28l351 584h-335q-6 0 -10.5 4.5t-4.5 10.5v41q0 6 4.5 10.5t10.5 4.5h441q6 0 10.5 -4.5t4.5 -10.5v-3q0 -15 -8 -28zM458 895l-131 -97q-12 -9 -24 0
l-131 97q-11 8 -4 21l12 18q9 13 22 4l113 -69l113 69q13 9 21 -4l12 -18q9 -12 -3 -21z" />
    <glyph glyph-name="zcaron" unicode="&#x17e;" horiz-adv-x="477" 
d="M69 440v45q0 6 4.5 10.5t10.5 4.5h325q12 0 12 -12q0 -10 -6 -21l-239 -392h235q6 0 10.5 -4.5t4.5 -10.5v-45q0 -6 -4.5 -10.5t-10.5 -4.5h-340q-13 0 -13 13q0 14 7 24l232 388h-213q-6 0 -10.5 4.5t-4.5 10.5zM382 695l-131 -97q-12 -9 -24 0l-131 97q-11 8 -4 21
l12 18q9 13 22 4l113 -69l113 69q13 9 21 -4l12 -18q9 -12 -3 -21z" />
    <glyph glyph-name="longs" unicode="&#x17f;" horiz-adv-x="353" 
d="M358 671l-10 -33q-5 -14 -19 -9q-39 12 -76 12q-96 0 -96 -96v-529q0 -6 -4.5 -10.5t-10.5 -4.5h-54q-6 0 -10.5 4.5t-4.5 10.5v419h-48q-6 0 -10.5 4.5t-4.5 10.5v35q0 6 4.5 10.5t10.5 4.5h48v49q0 79 48 119.5t122 40.5q55 0 106 -19q14 -5 9 -19z" />
    <glyph glyph-name="florin" unicode="&#x192;" horiz-adv-x="398" 
d="M-85 -177l13 33q5 13 20 9q33 -11 73 -11q86 0 96 86v495h-49q-6 0 -10.5 4.5t-4.5 10.5v35q0 6 4.5 10.5t10.5 4.5h49v48q0 79 48 119.5t122 40.5q49 0 107 -21q14 -5 9 -20l-14 -34q-5 -13 -19 -8q-39 14 -74 14q-41 0 -65.5 -18.5t-30.5 -68.5v-52h92q6 0 10.5 -4.5
t4.5 -10.5v-35q0 -6 -4.5 -10.5t-10.5 -4.5h-92v-491q0 -78 -48 -118.5t-122 -40.5q-55 0 -106 19q-15 4 -9 19z" />
    <glyph glyph-name="Scommaaccent" unicode="&#x218;" horiz-adv-x="613" 
d="M283 -331l-16 7q-13 8 -6 20q31 66 36 95q-23 2 -38 19t-15 40q0 25 16.5 42t41.5 17q34 0 50 -19.5t16 -46.5q0 -63 -64 -168q-8 -13 -21 -6zM150 537v-1q0 -41 30 -69t74.5 -41.5t97 -32t97 -39.5t74.5 -65t30 -107q0 -81 -69 -137t-176 -56q-122 0 -235 54
q-12 7 -7 21q2 5 6 13t7.5 14.5t6.5 12.5q5 14 20 8q104 -44 194 -44q65 0 111.5 31t50.5 81q3 40 -16.5 68.5t-54 44t-76.5 28.5t-85.5 27.5t-80 34t-60.5 55t-26 85.5q-4 91 56.5 139.5t157.5 48.5q103 0 220 -46q14 -5 9 -20q-3 -9 -8 -23.5t-7 -19.5q-5 -14 -20 -9
q-116 37 -191 37q-55 0 -91.5 -22.5t-38.5 -70.5z" />
    <glyph glyph-name="scommaaccent" unicode="&#x219;" horiz-adv-x="483" 
d="M237 -90q34 0 50 -19t16 -46q0 -64 -62 -171q-8 -12 -22 -7l-4 3q-14 5 -8 20q30 64 36 105q-25 -2 -44 13t-19 45q1 24 17 40.5t40 16.5zM254 291q36 -11 59.5 -21.5t52 -29t43 -46t14.5 -64.5q0 -61 -50.5 -99.5t-128.5 -38.5q-94 0 -171 40q-12 7 -7 21q3 5 8.5 14.5
t7.5 14.5q5 14 19 8q71 -33 137 -33q41 0 70 20t29 52q0 17 -7.5 31t-15.5 22.5t-28.5 18t-30.5 13t-38 12.5q-31 10 -44.5 15t-39 18t-37 26.5t-21.5 35.5t-10 49q1 65 44 101.5t114 36.5q80 0 160 -35q14 -5 8 -20q-5 -10 -15 -34q-7 -13 -21 -8q-72 28 -113 28
q-95 0 -99 -65q0 -32 27.5 -49t83.5 -34z" />
    <glyph glyph-name="circumflex" unicode="&#x2c6;" horiz-adv-x="518" 
d="M277 737l131 -97q13 -9 3 -21l-12 -18q-8 -13 -21 -4l-113 69l-113 -69q-13 -9 -22 4l-12 18q-8 12 4 21l131 97q12 9 24 0z" />
    <glyph glyph-name="caron" unicode="&#x2c7;" horiz-adv-x="500" 
d="M408 695l-131 -97q-12 -9 -24 0l-131 97q-11 8 -4 21l12 18q9 13 22 4l113 -69l113 69q13 9 21 -4l12 -18q9 -12 -3 -21z" />
    <glyph glyph-name="breve" unicode="&#x2d8;" horiz-adv-x="508" 
d="M359 715l25 -7q14 -5 9 -19q-39 -96 -129 -96q-93 0 -129 95q-5 14 9 19l27 9q13 5 19 -9q22 -54 74 -54q55 0 76 53q6 14 19 9z" />
    <glyph glyph-name="dotaccent" unicode="&#x2d9;" horiz-adv-x="579" 
d="M234 643q0 22 14.5 37t36.5 15t37 -15t15 -37t-15 -36.5t-37 -14.5t-36.5 14.5t-14.5 36.5z" />
    <glyph glyph-name="ring" unicode="&#x2da;" horiz-adv-x="523" 
d="M160 688q0 42 30 72t72 30t71.5 -30t29.5 -72t-29.5 -71.5t-71.5 -29.5t-72 29.5t-30 71.5zM213 688q0 -19 14.5 -33.5t34.5 -14.5q19 0 33.5 14.5t14.5 33.5q0 20 -14.5 34.5t-33.5 14.5q-20 0 -34.5 -14.5t-14.5 -34.5z" />
    <glyph glyph-name="ogonek" unicode="&#x2db;" horiz-adv-x="608" 
d="M306 29h13q6 0 10.5 -4.5t4.5 -10.5v-20q0 -11 -17 -46t-17 -57q0 -60 64 -60q26 0 60 12q5 1 9.5 -2t4.5 -8v-20q0 -15 -14 -21q-38 -12 -68 -12q-50 0 -83 26t-33 78q0 31 25.5 68t25.5 45v17q0 6 4.5 10.5t10.5 4.5z" />
    <glyph glyph-name="tilde" unicode="&#x2dc;" horiz-adv-x="518" 
d="M385 686l20 -11q13 -8 6 -20q-36 -62 -98 -62q-23 0 -52 20t-52 20q-28 0 -47 -28q-9 -12 -22 -7l-17 8q-13 7 -8 21q29 68 95 68q25 0 55.5 -20t49.5 -20q27 0 48 26q10 12 22 5z" />
    <glyph glyph-name="hungarumlaut" unicode="&#x2dd;" horiz-adv-x="530" 
d="M435 732l-53 -126q-6 -14 -21 -14h-27q-5 0 -8.5 4.5t-2.5 9.5l40 126q5 14 20 14h43q5 0 8 -4.5t1 -9.5zM262 732l-53 -126q-6 -14 -21 -14h-27q-5 0 -8.5 4.5t-2.5 9.5l40 126q5 14 20 14h43q5 0 8 -4.5t1 -9.5z" />
    <glyph glyph-name="Delta" unicode="&#x394;" horiz-adv-x="728" 
d="M653 0h-578q-5 0 -8 4.5t-1 9.5l292 677q2 4 6 4t6 -4l292 -677q2 -5 -1 -9.5t-8 -4.5zM364 506l-183 -434h366z" />
    <glyph glyph-name="Delta" unicode="&#x2206;" horiz-adv-x="728" 
d="M653 0h-578q-5 0 -8 4.5t-1 9.5l292 677q2 4 6 4t6 -4l292 -677q2 -5 -1 -9.5t-8 -4.5zM364 506l-183 -434h366z" />
    <glyph glyph-name="Omega" unicode="&#x3a9;" horiz-adv-x="850" 
d="M664 72h111q6 0 10.5 -4.5t4.5 -10.5v-42q0 -6 -4.5 -10.5t-10.5 -4.5h-220q-6 0 -10.5 4.5t-4.5 10.5v44q0 15 13 23q51 31 82.5 88.5t40 100t8.5 78.5q0 26 -5 57t-21.5 73.5t-43.5 75.5t-76.5 56.5t-113.5 23.5t-113 -23.5t-75.5 -56.5t-43.5 -75.5t-21.5 -73
t-4.5 -57.5q0 -35 8.5 -78t40 -100.5t81.5 -89.5q13 -8 13 -23v-43q0 -6 -4.5 -10.5t-10.5 -4.5h-219q-6 0 -10.5 4.5t-4.5 10.5v42q0 6 4.5 10.5t10.5 4.5h112q-108 119 -108 277q0 47 10 93.5t35 95.5t63 86t99.5 60.5t137.5 23.5q77 0 138.5 -23.5t99 -60.5t63 -86
t35.5 -95.5t10 -93.5q0 -160 -106 -277z" />
    <glyph glyph-name="Omega" unicode="&#x2126;" horiz-adv-x="850" 
d="M664 72h111q6 0 10.5 -4.5t4.5 -10.5v-42q0 -6 -4.5 -10.5t-10.5 -4.5h-220q-6 0 -10.5 4.5t-4.5 10.5v44q0 15 13 23q51 31 82.5 88.5t40 100t8.5 78.5q0 26 -5 57t-21.5 73.5t-43.5 75.5t-76.5 56.5t-113.5 23.5t-113 -23.5t-75.5 -56.5t-43.5 -75.5t-21.5 -73
t-4.5 -57.5q0 -35 8.5 -78t40 -100.5t81.5 -89.5q13 -8 13 -23v-43q0 -6 -4.5 -10.5t-10.5 -4.5h-219q-6 0 -10.5 4.5t-4.5 10.5v42q0 6 4.5 10.5t10.5 4.5h112q-108 119 -108 277q0 47 10 93.5t35 95.5t63 86t99.5 60.5t137.5 23.5q77 0 138.5 -23.5t99 -60.5t63 -86
t35.5 -95.5t10 -93.5q0 -160 -106 -277z" />
    <glyph glyph-name="pi" unicode="&#x3c0;" horiz-adv-x="630" 
d="M463 -2q-26 0 -45.5 10.5t-29.5 24.5t-16 33t-7.5 31t-1.5 23l1 305h-154v-410q0 -6 -4.5 -10.5t-10.5 -4.5h-53q-6 0 -10.5 4.5t-4.5 10.5v410h-62q-6 0 -10.5 4.5t-4.5 10.5v45q0 6 4.5 10.5t10.5 4.5h487q6 0 10.5 -4.5t4.5 -10.5v-45q0 -6 -4.5 -10.5t-10.5 -4.5
h-105v-291q0 -37 12.5 -56t51.5 -16q24 2 43 6q14 4 18 -11l5 -26q3 -16 -12 -19q-51 -14 -102 -14z" />
    <glyph glyph-name="endash" unicode="&#x2013;" horiz-adv-x="550" 
d="M455 292h-360q-6 0 -10.5 4.5t-4.5 10.5v30q0 6 4.5 10.5t10.5 4.5h360q6 0 10.5 -4.5t4.5 -10.5v-30q0 -6 -4.5 -10.5t-10.5 -4.5z" />
    <glyph glyph-name="emdash" unicode="&#x2014;" horiz-adv-x="672" 
d="M577 292h-482q-6 0 -10.5 4.5t-4.5 10.5v30q0 6 4.5 10.5t10.5 4.5h482q6 0 10.5 -4.5t4.5 -10.5v-30q0 -6 -4.5 -10.5t-10.5 -4.5z" />
    <glyph glyph-name="quoteleft" unicode="&#x2018;" horiz-adv-x="244" 
d="M154 709l6 -3q15 -6 7 -19q-41 -82 -47 -130q25 2 44 -13t19 -45q-1 -24 -17 -40.5t-40 -16.5q-34 0 -50 19t-16 46q0 42 22 97.5t50 99.5q9 12 22 5z" />
    <glyph glyph-name="quoteright" unicode="&#x2019;" horiz-adv-x="244" 
d="M89 448l-6 3q-13 8 -6 20q39 78 47 130q-25 -2 -44 13t-19 45q1 24 17 40.5t40 16.5q34 0 50 -19t16 -46q0 -42 -22.5 -98t-50.5 -99q-7 -12 -22 -6z" />
    <glyph glyph-name="quotesinglbase" unicode="&#x201a;" horiz-adv-x="284" 
d="M109 -159l-6 3q-13 8 -6 20q39 78 47 130q-25 -2 -44 13t-19 45q1 24 17 40.5t40 16.5q34 0 50 -19t16 -46q0 -42 -22.5 -98t-50.5 -99q-7 -12 -22 -6z" />
    <glyph glyph-name="quotedblleft" unicode="&#x201c;" horiz-adv-x="416" 
d="M154 709l6 -3q15 -6 7 -19q-41 -82 -47 -130q25 2 44 -13t19 -45q-1 -24 -17 -40.5t-40 -16.5q-34 0 -50 19t-16 46q0 42 22 97.5t50 99.5q9 12 22 5zM326 709l6 -3q15 -6 7 -19q-41 -82 -47 -130q25 2 44 -13t19 -45q-1 -24 -17 -40.5t-40 -16.5q-34 0 -50 19t-16 46
q0 42 22 97.5t50 99.5q9 12 22 5z" />
    <glyph glyph-name="quotedblright" unicode="&#x201d;" horiz-adv-x="416" 
d="M261 448l-6 3q-13 8 -6 20q39 78 47 130q-25 -2 -44 13t-19 45q1 24 17 40.5t40 16.5q34 0 50 -19t16 -46q0 -42 -22.5 -98t-50.5 -99q-7 -12 -22 -6zM89 448l-6 3q-13 8 -6 20q39 78 47 130q-25 -2 -44 13t-19 45q1 24 17 40.5t40 16.5q34 0 50 -19t16 -46
q0 -42 -22.5 -98t-50.5 -99q-7 -12 -22 -6z" />
    <glyph glyph-name="quotedblbase" unicode="&#x201e;" horiz-adv-x="431" 
d="M109 -159l-6 3q-13 8 -6 20q39 78 47 130q-25 -2 -44 13t-19 45q1 24 17 40.5t40 16.5q34 0 50 -19t16 -46q0 -42 -22.5 -98t-50.5 -99q-7 -12 -22 -6zM296 -159l-6 3q-13 8 -6 20q39 78 47 130q-25 -2 -44 13t-19 45q1 24 17 40.5t40 16.5q34 0 50 -19t16 -46
q0 -42 -22.5 -98t-50.5 -99q-7 -12 -22 -6z" />
    <glyph glyph-name="dagger" unicode="&#x2020;" horiz-adv-x="552" 
d="M315 428v-573q0 -6 -4.5 -10.5t-10.5 -4.5h-48q-6 0 -10.5 4.5t-4.5 10.5v573h-142q-6 0 -10.5 4.5t-4.5 10.5v42q0 6 4.5 10.5t10.5 4.5h142v187q0 6 4.5 10.5t10.5 4.5h48q6 0 10.5 -4.5t4.5 -10.5v-187h142q6 0 10.5 -4.5t4.5 -10.5v-42q0 -6 -4.5 -10.5t-10.5 -4.5
h-142z" />
    <glyph glyph-name="daggerdbl" unicode="&#x2021;" horiz-adv-x="552" 
d="M315 43v-188q0 -6 -4.5 -10.5t-10.5 -4.5h-48q-6 0 -10.5 4.5t-4.5 10.5v188h-142q-6 0 -10.5 4.5t-4.5 10.5v42q0 6 4.5 10.5t10.5 4.5h142v313h-142q-6 0 -10.5 4.5t-4.5 10.5v42q0 6 4.5 10.5t10.5 4.5h142v187q0 6 4.5 10.5t10.5 4.5h48q6 0 10.5 -4.5t4.5 -10.5
v-187h142q6 0 10.5 -4.5t4.5 -10.5v-42q0 -6 -4.5 -10.5t-10.5 -4.5h-142v-313h142q6 0 10.5 -4.5t4.5 -10.5v-42q0 -6 -4.5 -10.5t-10.5 -4.5h-142z" />
    <glyph glyph-name="bullet" unicode="&#x2022;" horiz-adv-x="387" 
d="M191 177q-45 0 -78 33.5t-33 78.5q0 46 33.5 80.5t77.5 34.5q48 0 82 -34.5t34 -80.5t-34 -79t-82 -33z" />
    <glyph glyph-name="ellipsis" unicode="&#x2026;" horiz-adv-x="645" 
d="M80 53q0 24 16.5 40.5t40.5 16.5t41 -16.5t17 -40.5t-17 -41t-41 -17t-40.5 17t-16.5 41zM285 53q0 24 16.5 40.5t40.5 16.5t41 -16.5t17 -40.5t-17 -41t-41 -17t-40.5 17t-16.5 41zM490 53q0 24 16.5 40.5t40.5 16.5t41 -16.5t17 -40.5t-17 -41t-41 -17t-40.5 17
t-16.5 41z" />
    <glyph glyph-name="perthousand" unicode="&#x2030;" horiz-adv-x="1096" 
d="M504 686l-217 -672q-5 -14 -20 -14h-32q-11 0 -11 10q0 3 1 4l219 672q5 14 20 14h30q11 0 11 -10q0 -1 -1 -2v-2zM174 704q52 0 86.5 -26t46.5 -58t12 -67q0 -59 -34.5 -105t-110.5 -46q-75 0 -109.5 46t-34.5 105q0 57 34.5 104t109.5 47zM174 453q27 0 45.5 11.5
t27 29t11.5 32t3 27.5t-3 27.5t-11.5 32t-27 28.5t-45.5 11t-45.5 -11t-27 -28.5t-11.5 -32t-3 -27.5t3 -27.5t11.5 -32t27 -29t45.5 -11.5zM558 300q75 0 110 -47t35 -104q0 -58 -35 -104.5t-110 -46.5q-76 0 -110.5 46t-34.5 105q0 35 12 67t46.5 58t86.5 26zM558 49
q26 0 44.5 11.5t27 29t11.5 32t3 27.5t-3 27.5t-11.5 32t-27 28.5t-44.5 11q-35 0 -56 -20t-26.5 -40t-5.5 -39t5.5 -39t26.5 -40.5t56 -20.5zM921 300q75 0 110 -47t35 -104q0 -58 -35 -104.5t-110 -46.5q-76 0 -110.5 46t-34.5 105q0 35 12 67t46.5 58t86.5 26zM921 49
q26 0 44.5 11.5t27 29t11.5 32t3 27.5t-3 27.5t-11.5 32t-27 28.5t-44.5 11q-35 0 -56 -20t-26.5 -40t-5.5 -39t5.5 -39t26.5 -40.5t56 -20.5z" />
    <glyph glyph-name="guilsinglleft" unicode="&#x2039;" horiz-adv-x="267" 
d="M105 251l121 -144q11 -11 -1 -21l-12 -12q-12 -10 -21 1l-159 167q-3 4 -3 9t3 9l159 168q9 11 21 1l13 -13q11 -11 1 -21z" />
    <glyph glyph-name="guilsinglright" unicode="&#x203a;" horiz-adv-x="267" 
d="M41 107l121 144l-122 144q-10 10 1 21l13 13q12 10 21 -1l159 -168q3 -4 3 -9t-3 -9l-159 -167q-9 -11 -21 -1l-12 12q-12 10 -1 21z" />
    <glyph glyph-name="fraction" unicode="&#x2044;" horiz-adv-x="53" 
d="M224 687l-335 -674q-7 -13 -22 -13h-31q-5 0 -7.5 4t-0.5 9l336 674q6 13 22 13h30q5 0 7.5 -4t0.5 -9z" />
    <glyph glyph-name="zerosuperior" unicode="&#x2070;" horiz-adv-x="315" 
d="M157 805q46 0 76.5 -29t41 -64.5t10.5 -74.5q0 -65 -30.5 -116.5t-97.5 -51.5q-45 0 -75.5 28.5t-41 64t-10.5 75.5q0 39 10.5 74.5t41 64.5t75.5 29zM157 513q24 0 41 14.5t24 36.5t10 39.5t3 33.5t-3 33t-10 39.5t-24 36.5t-41 14t-40.5 -14t-23.5 -36.5t-10 -40
t-3 -32.5q0 -16 3 -33.5t10 -39.5t23.5 -36.5t40.5 -14.5z" />
    <glyph glyph-name="foursuperior" unicode="&#x2074;" horiz-adv-x="278" 
d="M213 535v-49q0 -6 -4.5 -10.5t-10.5 -4.5h-21q-6 0 -10.5 4.5t-4.5 10.5v49h-128q-14 0 -14 14t8 27l136 210q8 13 23 13h11q6 0 10.5 -4.5t4.5 -10.5v-204h30q6 0 10.5 -4.5t4.5 -10.5v-15q0 -6 -4.5 -10.5t-10.5 -4.5h-30zM162 702l-79 -122h79v122z" />
    <glyph glyph-name="fivesuperior" unicode="&#x2075;" horiz-adv-x="273" 
d="M41 525l10 9q9 9 22 0q28 -23 54 -23q31 0 48.5 19.5t17.5 46.5q0 28 -17 45.5t-49 17.5h-61q-6 0 -10.5 4.5t-4.5 10.5v129q0 6 4.5 10.5t10.5 4.5h137q6 0 10.5 -4.5t4.5 -10.5v-14q0 -6 -4.5 -10.5t-10.5 -4.5h-101v-71h25q62 0 89 -34t27 -76q0 -37 -27.5 -72.5
t-88.5 -35.5q-49 0 -87 38q-10 10 1 21z" />
    <glyph glyph-name="sixsuperior" unicode="&#x2076;" horiz-adv-x="290" 
d="M182 794l5 -7q8 -14 -5 -21q-62 -40 -84 -89q21 11 47 11q43 0 70.5 -21t35.5 -44.5t8 -47.5q0 -36 -27 -72.5t-87 -34.5q-61 2 -87.5 38t-26.5 74q0 148 130 220q12 7 21 -6zM145 512q31 0 48 19.5t17 46.5q0 26 -17 46t-48 20t-48 -18t-18 -46q0 -27 18 -47.5t48 -20.5
z" />
    <glyph glyph-name="sevensuperior" unicode="&#x2077;" horiz-adv-x="242" 
d="M20 772v13q0 6 4.5 10.5t10.5 4.5h174q10 0 10 -10q0 -11 -4 -19l-120 -285q-6 -14 -21 -14h-23q-5 0 -8 4.5t-1 9.5l111 271h-118q-6 0 -10.5 4.5t-4.5 10.5z" />
    <glyph glyph-name="eightsuperior" unicode="&#x2078;" horiz-adv-x="274" 
d="M30 706q0 36 24.5 66.5t82.5 30.5t82.5 -30.5t24.5 -66.5q0 -47 -35 -72q35 -26 35 -73q0 -35 -24.5 -65.5t-82.5 -30.5t-82.5 30.5t-24.5 65.5q0 47 35 73q-35 25 -35 72zM137 654q25 0 42 13.5t17 38.5q0 26 -17 40.5t-42 14.5t-42 -14.5t-17 -40.5q0 -25 17 -38.5
t42 -13.5zM137 613q-25 0 -42 -13t-17 -39t17 -40t42 -14t42 14t17 40t-17 39t-42 13z" />
    <glyph glyph-name="ninesuperior" unicode="&#x2079;" horiz-adv-x="290" 
d="M108 478l-5 7q-7 13 5 20q61 38 84 90q-21 -11 -46 -11q-62 0 -88.5 35.5t-26.5 76.5q0 11 3 24t11 28.5t20 28t33 20.5t48 7q60 -2 86.5 -38t26.5 -74q0 -81 -38.5 -137t-91.5 -84q-12 -7 -21 7zM146 760q-31 0 -48.5 -19.5t-17.5 -46.5t17.5 -46.5t48.5 -19.5t47.5 18
t17.5 46q0 27 -17.5 47.5t-47.5 20.5z" />
    <glyph glyph-name="zeroinferior" unicode="&#x2080;" horiz-adv-x="315" 
d="M157 168q46 0 76.5 -29t41 -64.5t10.5 -74.5q0 -65 -30.5 -116.5t-97.5 -51.5q-45 0 -75.5 28.5t-41 64t-10.5 75.5q0 39 10.5 74.5t41 64.5t75.5 29zM157 -124q24 0 41 14.5t24 36.5t10 39.5t3 33.5t-3 33t-10 39.5t-24 36.5t-41 14t-40.5 -14t-23.5 -36.5t-10 -40
t-3 -32.5q0 -16 3 -33.5t10 -39.5t23.5 -36.5t40.5 -14.5z" />
    <glyph glyph-name="oneinferior" unicode="&#x2081;" horiz-adv-x="198" 
d="M148 156v-303q0 -6 -4.5 -10.5t-10.5 -4.5h-21q-6 0 -10.5 4.5t-4.5 10.5v237l-43 -25q-13 -9 -22 4l-3 6q-9 12 3 21l84 65q10 7 20 7q12 0 12 -12z" />
    <glyph glyph-name="twoinferior" unicode="&#x2082;" horiz-adv-x="263" 
d="M43 99l-9 8q-10 12 1 21q45 42 95 42q46 0 73.5 -24.5t27.5 -71.5q0 -32 -42 -91l-79 -99h98q6 0 10.5 -4.5t4.5 -10.5v-16q0 -6 -4.5 -10.5t-10.5 -4.5h-168q-9 0 -9 9q0 11 6 17l115 149q9 11 15 21t9.5 16t5 12t1.5 8v6v4q0 20 -12.5 33.5t-39.5 13.5q-30 0 -67 -29
q-11 -11 -21 1z" />
    <glyph glyph-name="threeinferior" unicode="&#x2083;" horiz-adv-x="257" 
d="M227 74q0 -43 -38 -74q38 -31 38 -72q0 -35 -24.5 -65.5t-83.5 -30.5q-49 0 -88 31q-12 10 -1 21l7 9q10 12 22 3q36 -23 60 -23q25 0 42.5 14.5t17.5 40.5t-17 39t-43 13h-26q-6 0 -10.5 4.5t-4.5 10.5v11q0 6 4.5 10.5t10.5 4.5h26q25 0 42.5 13.5t17.5 39.5t-17.5 40
t-42.5 14q-26 0 -59 -21q-12 -7 -22 3l-6 7q-10 10 1 21q40 32 86 32q59 0 83.5 -30.5t24.5 -65.5z" />
    <glyph glyph-name="fourinferior" unicode="&#x2084;" horiz-adv-x="278" 
d="M213 -98v-49q0 -6 -4.5 -10.5t-10.5 -4.5h-21q-6 0 -10.5 4.5t-4.5 10.5v49h-128q-14 0 -14 14t8 27l136 210q8 13 23 13h11q6 0 10.5 -4.5t4.5 -10.5v-204h30q6 0 10.5 -4.5t4.5 -10.5v-15q0 -6 -4.5 -10.5t-10.5 -4.5h-30zM162 69l-79 -122h79v122z" />
    <glyph glyph-name="fiveinferior" unicode="&#x2085;" horiz-adv-x="273" 
d="M41 -112l10 9q9 9 22 0q28 -23 54 -23q31 0 48.5 19.5t17.5 46.5q0 28 -17 45.5t-49 17.5h-61q-6 0 -10.5 4.5t-4.5 10.5v129q0 6 4.5 10.5t10.5 4.5h137q6 0 10.5 -4.5t4.5 -10.5v-14q0 -6 -4.5 -10.5t-10.5 -4.5h-101v-71h25q62 0 89 -34t27 -76q0 -37 -27.5 -72.5
t-88.5 -35.5q-49 0 -87 38q-10 10 1 21z" />
    <glyph glyph-name="sixinferior" unicode="&#x2086;" horiz-adv-x="290" 
d="M182 161l5 -7q8 -14 -5 -21q-62 -40 -84 -89q21 11 47 11q43 0 70.5 -21t35.5 -44.5t8 -47.5q0 -36 -27 -72.5t-87 -34.5q-61 2 -87.5 38t-26.5 74q0 82 38 136t92 84q12 7 21 -6zM145 -121q31 0 48 19.5t17 46.5q0 26 -17 46t-48 20t-48 -18t-18 -46q0 -27 18 -47.5
t48 -20.5z" />
    <glyph glyph-name="seveninferior" unicode="&#x2087;" horiz-adv-x="242" 
d="M20 138v13q0 6 4.5 10.5t10.5 4.5h167q14 0 14 -14q0 -12 -5 -25l-116 -275q-6 -14 -21 -14h-23q-5 0 -8 4.5t-1 9.5l111 271h-118q-6 0 -10.5 4.5t-4.5 10.5z" />
    <glyph glyph-name="eightinferior" unicode="&#x2088;" horiz-adv-x="274" 
d="M30 72q0 36 24.5 66.5t82.5 30.5t82.5 -30.5t24.5 -66.5q0 -47 -35 -72q35 -26 35 -73q0 -35 -24.5 -65.5t-82.5 -30.5t-82.5 30.5t-24.5 65.5q0 47 35 73q-35 25 -35 72zM137 20q25 0 42 13.5t17 38.5q0 26 -17 40.5t-42 14.5t-42 -14.5t-17 -40.5q0 -25 17 -38.5
t42 -13.5zM137 -21q-25 0 -42 -13t-17 -39t17 -40t42 -14t42 14t17 40t-17 39t-42 13z" />
    <glyph glyph-name="nineinferior" unicode="&#x2089;" horiz-adv-x="290" 
d="M108 -155l-5 7q-7 13 5 20q61 38 84 90q-21 -11 -46 -11q-62 0 -88.5 35.5t-26.5 76.5q0 11 3 24t11 28.5t20 28t33 20.5t48 7q60 -2 86.5 -38t26.5 -74q0 -81 -38.5 -137t-91.5 -84q-12 -7 -21 7zM146 127q-31 0 -48.5 -19.5t-17.5 -46.5t17.5 -46.5t48.5 -19.5t47.5 18
t17.5 46q0 27 -17.5 47.5t-47.5 20.5z" />
    <glyph glyph-name="Euro" unicode="&#x20ac;" horiz-adv-x="547" 
d="M367 389h-207l-2 -35q0 -26 2 -39h163q5 0 8.5 -4.5t1.5 -9.5l-6 -22q-5 -14 -20 -14h-142q10 -54 28.5 -96.5t55.5 -75t87 -32.5q67 0 117 40q11 10 22 -1l21 -21q4 -4 4 -10t-4 -10q-72 -66 -160 -66q-57 0 -102 23t-74.5 63t-47.5 86t-28 100h-59q-6 0 -9.5 4.5
t-1.5 9.5l7 22q3 14 19 14h37v74h-52q-6 0 -9.5 4.5t-1.5 9.5l7 22q3 14 19 14h44q10 53 28 98.5t47 86t74.5 64t102.5 23.5q91 0 158 -65q11 -11 0 -22l-24 -24q-11 -9 -22 0q-49 42 -112 42q-130 0 -171 -203h218q5 0 8.5 -4.5t1.5 -9.5l-6 -22q-5 -14 -20 -14z" />
    <glyph glyph-name="afii61289" unicode="&#x2113;" horiz-adv-x="433" 
d="M20 314v37q0 6 4.5 10.5t10.5 4.5h45v175q0 50 15.5 85.5t40.5 52t48.5 23.5t48.5 7q82 0 126 -52.5t44 -126.5q0 -98 -70.5 -164t-169.5 -66v-114q0 -24 3 -42t11 -39t28 -32t49 -10q32 2 74 23q13 8 21 -6q3 -5 8.5 -14t8.5 -13q7 -12 -4 -22q-47 -33 -106 -36
q-47 -3 -82 11t-52 34.5t-27.5 50t-12.5 48t-2 37.5v123h-45q-6 0 -10.5 4.5t-4.5 10.5zM163 366h10q67 0 112 49.5t41 126.5q-2 49 -29.5 75.5t-64.5 23.5q-69 -6 -69 -92v-183z" />
    <glyph glyph-name="trademark" unicode="&#x2122;" horiz-adv-x="670" 
d="M518 640l-75 -179q-2 -5 -8 -5q-5 0 -7 5l-75 179l-53 -166q-5 -14 -20 -14h-19q-5 0 -8.5 4.5t-1.5 9.5l88 263q1 6 8 6t8 -6l81 -187l81 188q2 5 7 5t7 -5l89 -264q1 -5 -2 -9.5t-8 -4.5h-18q-15 0 -20 14zM126 702h-66q-6 0 -10.5 4.5t-4.5 10.5v10q0 6 4.5 10.5
t10.5 4.5h177q6 0 10.5 -4.5t4.5 -10.5v-10q0 -6 -4.5 -10.5t-10.5 -4.5h-66v-227q0 -6 -4.5 -10.5t-10.5 -4.5h-15q-6 0 -10.5 4.5t-4.5 10.5v227z" />
    <glyph glyph-name="estimated" unicode="&#x212e;" horiz-adv-x="816" 
d="M646 132l13 -10q12 -10 2 -22q-48 -56 -107.5 -82t-145.5 -26q-77 0 -138.5 23.5t-100 60.5t-64 86t-35.5 96.5t-10 95.5q0 47 10 94t35.5 96t64 86.5t100 61t138.5 23.5q76 0 137 -23t99 -59t64 -84t36.5 -94t11.5 -94q0 -6 -4.5 -10.5t-10.5 -4.5h-552v-208
q75 -103 219 -103q128 0 217 96q11 11 21 1zM408 672q-142 0 -219 -102v-181h435v184q-71 99 -216 99z" />
    <glyph glyph-name="onethird" unicode="&#x2153;" horiz-adv-x="592" 
d="M148 689v-304q0 -6 -4.5 -10.5t-10.5 -4.5h-21q-6 0 -10.5 4.5t-4.5 10.5v236q-9 -5 -43 -27q-14 -8 -21 5l-5 7q-8 14 4 22l85 65q8 7 20 7q11 0 11 -11zM452 687l-335 -674q-7 -13 -22 -13h-31q-5 0 -7.5 4t-0.5 9l336 674q6 13 22 13h30q5 0 7.5 -4t0.5 -9zM534 239
q0 -43 -38 -74q38 -31 38 -72q0 -35 -24.5 -65.5t-83.5 -30.5q-49 0 -88 31q-12 10 -1 21l7 9q10 12 22 3q36 -23 60 -23q25 0 42.5 14.5t17.5 40.5t-17 39t-43 13h-26q-6 0 -10.5 4.5t-4.5 10.5v11q0 6 4.5 10.5t10.5 4.5h26q25 0 42.5 13.5t17.5 39.5t-17.5 40t-42.5 14
q-26 0 -59 -21q-12 -7 -22 3l-6 7q-10 10 1 21q40 32 86 32q59 0 83.5 -30.5t24.5 -65.5z" />
    <glyph glyph-name="twothirds" unicode="&#x2154;" horiz-adv-x="633" 
d="M164 548q27 29 30 54q4 24 -7.5 42t-43.5 18q-30 0 -67 -29q-11 -11 -21 1l-9 8q-10 12 1 21q45 42 95 42q47 0 75.5 -27.5t25.5 -76.5q-4 -32 -42 -83l-88 -99h107q6 0 10.5 -4.5t4.5 -10.5v-16q0 -6 -4.5 -10.5t-10.5 -4.5h-165q-14 0 -14 14q0 15 9 26zM557 165
q38 -31 38 -72q0 -35 -24.5 -65.5t-83.5 -30.5q-49 0 -88 31q-12 10 -1 21l7 9q10 12 22 3q36 -23 60 -23q25 0 42.5 14.5t17.5 40.5t-17 39t-43 13h-26q-6 0 -10.5 4.5t-4.5 10.5v11q0 6 4.5 10.5t10.5 4.5h26q25 0 42.5 13.5t17.5 39.5t-17.5 40t-42.5 14q-26 0 -59 -21
q-12 -7 -22 3l-6 7q-10 10 1 21q40 32 86 32q59 0 83.5 -30.5t24.5 -65.5q0 -43 -38 -74zM475 700h30q5 0 7.5 -4t0.5 -9l-335 -674q-6 -13 -22 -13h-31q-5 0 -7.5 4t-0.5 9l336 674q7 13 22 13z" />
    <glyph glyph-name="oneeighth" unicode="&#x215b;" horiz-adv-x="585" 
d="M510 164q35 -26 35 -73q0 -35 -24.5 -65.5t-82.5 -30.5t-82.5 30.5t-24.5 65.5q0 47 35 73q-35 25 -35 72q0 36 24.5 66.5t82.5 30.5t82.5 -30.5t24.5 -66.5q0 -47 -35 -72zM438 37q25 0 42 14t17 40t-17 39t-42 13t-42 -13t-17 -39t17 -40t42 -14zM438 184q25 0 42 13.5
t17 38.5q0 26 -17 40.5t-42 14.5t-42 -14.5t-17 -40.5q0 -25 17 -38.5t42 -13.5zM97 385v236q-9 -5 -43 -27q-14 -8 -21 5l-5 7q-8 14 4 22l93 67q8 5 15 5q8 0 8 -8v-307q0 -6 -4.5 -10.5t-10.5 -4.5h-21q-6 0 -10.5 4.5t-4.5 10.5zM414 700h30q5 0 7.5 -4t0.5 -9
l-335 -674q-7 -13 -22 -13h-31q-5 0 -7.5 4t-0.5 9l336 674q6 13 22 13z" />
    <glyph glyph-name="threeeighths" unicode="&#x215c;" horiz-adv-x="578" 
d="M123 405q25 0 42.5 14.5t17.5 40.5t-17 39t-43 13h-26q-6 0 -10.5 4.5t-4.5 10.5v11q0 6 4.5 10.5t10.5 4.5h26q25 0 42.5 13.5t17.5 39.5t-17.5 40t-42.5 14q-26 0 -59 -21q-12 -7 -22 3l-6 7q-10 10 1 21q40 32 86 32q59 0 83.5 -30.5t24.5 -65.5q0 -43 -38 -74
q38 -31 38 -72q0 -35 -24.5 -65.5t-83.5 -30.5q-49 0 -88 31q-12 10 -1 21l7 9q10 12 22 3q36 -23 60 -23zM445 700h30q5 0 7.5 -4t0.5 -9l-335 -674q-6 -13 -22 -13h-31q-5 0 -7.5 4t-0.5 9l336 674q7 13 22 13zM519 164q35 -26 35 -73q0 -35 -24.5 -65.5t-82.5 -30.5
t-82.5 30.5t-24.5 65.5q0 47 35 73q-35 25 -35 72q0 36 24.5 66.5t82.5 30.5t82.5 -30.5t24.5 -66.5q0 -47 -35 -72zM447 37q25 0 42 14t17 40t-17 39t-42 13t-42 -13t-17 -39t17 -40t42 -14zM447 184q25 0 42 13.5t17 38.5q0 26 -17 40.5t-42 14.5t-42 -14.5t-17 -40.5
q0 -25 17 -38.5t42 -13.5z" />
    <glyph glyph-name="fiveeighths" unicode="&#x215d;" horiz-adv-x="596" 
d="M235 476q0 -37 -27.5 -72.5t-88.5 -35.5q-49 0 -87 38q-10 10 1 21l10 9q9 9 22 0q28 -23 54 -23q31 0 48.5 19.5t17.5 46.5q0 28 -17 45.5t-49 17.5h-61q-6 0 -10.5 4.5t-4.5 10.5v129q0 6 4.5 10.5t10.5 4.5h137q6 0 10.5 -4.5t4.5 -10.5v-14q0 -6 -4.5 -10.5
t-10.5 -4.5h-101v-71h25q62 0 89 -34t27 -76zM521 164q35 -26 35 -73q0 -35 -24.5 -65.5t-82.5 -30.5t-82.5 30.5t-24.5 65.5q0 47 35 73q-35 25 -35 72q0 36 24.5 66.5t82.5 30.5t82.5 -30.5t24.5 -66.5q0 -47 -35 -72zM449 37q25 0 42 14t17 40t-17 39t-42 13t-42 -13
t-17 -39t17 -40t42 -14zM449 184q25 0 42 13.5t17 38.5q0 26 -17 40.5t-42 14.5t-42 -14.5t-17 -40.5q0 -25 17 -38.5t42 -13.5zM447 700h30q5 0 7.5 -4t0.5 -9l-335 -674q-6 -13 -22 -13h-31q-5 0 -7.5 4t-0.5 9l336 674q7 13 22 13z" />
    <glyph glyph-name="seveneighths" unicode="&#x215e;" horiz-adv-x="548" 
d="M55 386l111 271h-118q-6 0 -10.5 4.5t-4.5 10.5v13q0 6 4.5 10.5t10.5 4.5h165q6 0 10.5 -4.5t4.5 -10.5q0 -15 -6 -29l-114 -270q-6 -14 -21 -14h-23q-5 0 -8 4.5t-1 9.5zM470 164q35 -26 35 -73q0 -35 -24.5 -65.5t-82.5 -30.5t-82.5 30.5t-24.5 65.5q0 47 35 73
q-35 25 -35 72q0 36 24.5 66.5t82.5 30.5t82.5 -30.5t24.5 -66.5q0 -47 -35 -72zM398 37q25 0 42 14t17 40t-17 39t-42 13t-42 -13t-17 -39t17 -40t42 -14zM398 184q25 0 42 13.5t17 38.5q0 26 -17 40.5t-42 14.5t-42 -14.5t-17 -40.5q0 -25 17 -38.5t42 -13.5zM396 700h30
q5 0 7.5 -4t0.5 -9l-335 -674q-7 -13 -22 -13h-31q-5 0 -7.5 4t-0.5 9l336 674q6 13 22 13z" />
    <glyph glyph-name="arrowleft" unicode="&#x2190;" horiz-adv-x="607" 
d="M532 235h-348l165 -180q10 -12 -1 -21l-19 -19q-11 -10 -22 1l-243 242q-3 4 -3 9t3 8l243 243q11 11 22 0l19 -19q11 -9 1 -21l-164 -178h347q6 0 10.5 -4.5t4.5 -10.5v-35q0 -6 -4.5 -10.5t-10.5 -4.5z" />
    <glyph glyph-name="arrowup" unicode="&#x2191;" horiz-adv-x="591" 
d="M327 375v-348q0 -6 -4.5 -10.5t-10.5 -4.5h-35q-6 0 -10.5 4.5t-4.5 10.5v347l-178 -164q-10 -10 -22 1l-19 19q-10 11 1 22l242 242q4 4 9 4t8 -4l243 -242q11 -11 1 -22l-19 -19q-10 -12 -21 -1z" />
    <glyph glyph-name="arrowright" unicode="&#x2192;" horiz-adv-x="607" 
d="M423 235h-348q-6 0 -10.5 4.5t-4.5 10.5v35q0 6 4.5 10.5t10.5 4.5h347l-164 178q-11 11 1 21l19 19q11 11 22 0l242 -243q4 -3 4 -8t-4 -9l-242 -242q-11 -11 -22 -1l-19 19q-12 10 -1 21z" />
    <glyph glyph-name="arrowdown" unicode="&#x2193;" horiz-adv-x="591" 
d="M327 483v-348l180 165q12 10 21 -1l19 -19q10 -11 -1 -22l-243 -243q-3 -3 -8 -3t-9 3l-242 243q-11 11 -1 22l19 19q11 11 22 1l178 -164v347q0 6 4.5 10.5t10.5 4.5h35q6 0 10.5 -4.5t4.5 -10.5z" />
    <glyph glyph-name="partialdiff" unicode="&#x2202;" horiz-adv-x="583" 
d="M208 673l18 26q6 13 22 7q49 -25 95 -67t87.5 -101.5t66.5 -142t25 -173.5q0 -24 -5.5 -51t-21.5 -59t-40.5 -57t-66.5 -42.5t-96 -18.5q-53 -1 -95.5 15t-67 41t-40.5 56t-22 56.5t-6 47.5q0 28 5.5 56t21 59.5t40 55.5t67 40t97.5 16q71 0 126 -40q-57 163 -205 255
q-13 7 -5 21zM292 63q71 0 111.5 48t40.5 110q-2 66 -41 107t-111 41t-111.5 -45t-39.5 -107t40 -108t111 -46z" />
    <glyph glyph-name="product" unicode="&#x220f;" horiz-adv-x="615" 
d="M126 15v612h-66q-6 0 -10.5 4.5t-4.5 10.5v43q0 6 4.5 10.5t10.5 4.5h495q6 0 10.5 -4.5t4.5 -10.5v-43q0 -6 -4.5 -10.5t-10.5 -4.5h-67v-612q0 -6 -4.5 -10.5t-10.5 -4.5h-56q-6 0 -10.5 4.5t-4.5 10.5v612h-190v-612q0 -6 -4.5 -10.5t-10.5 -4.5h-56q-6 0 -10.5 4.5
t-4.5 10.5z" />
    <glyph glyph-name="summation" unicode="&#x2211;" horiz-adv-x="491" 
d="M340 337l-185 -268h291q6 0 10.5 -4.5t4.5 -10.5v-39q0 -6 -4.5 -10.5t-10.5 -4.5h-396q-11 0 -11 11t6 20l214 318l-214 318q-6 11 -6 21q0 12 11 12h396q6 0 10.5 -4.5t4.5 -10.5v-39q0 -6 -4.5 -10.5t-10.5 -4.5h-291l185 -270q10 -12 0 -24z" />
    <glyph glyph-name="minus" unicode="&#x2212;" horiz-adv-x="557" 
d="M90 418h384q6 0 10.5 -4.5t4.5 -10.5v-34q0 -6 -4.5 -10.5t-10.5 -4.5h-384q-6 0 -10.5 4.5t-4.5 10.5v34q0 6 4.5 10.5t10.5 4.5z" />
    <glyph glyph-name="radical" unicode="&#x221a;" horiz-adv-x="656" 
d="M257 163l216 525q7 14 21 14h117q6 0 10.5 -4.5t4.5 -10.5v-29q0 -6 -4.5 -10.5t-10.5 -4.5h-72l-274 -643q-3 -6 -10 -6t-10 6l-209 486q-2 5 1 9.5t8 4.5h61q14 0 21 -14z" />
    <glyph glyph-name="infinity" unicode="&#x221e;" horiz-adv-x="671" 
d="M214 158q-67 0 -100.5 42t-33.5 100t33.5 100.5t100.5 42.5q35 0 67.5 -22t54.5 -58q49 80 121 80q67 0 100.5 -43t33.5 -101q0 -57 -33.5 -99t-100.5 -42q-34 0 -66 21t-55 55q-47 -76 -122 -76zM447 221q34 0 55 23t21 55q0 33 -20.5 54t-55.5 21q-55 0 -84 -75
q30 -78 84 -78zM224 220q53 0 83 80q-27 78 -83 78q-34 0 -55 -21t-21 -57q0 -38 21 -59t55 -21z" />
    <glyph glyph-name="integral" unicode="&#x222b;" horiz-adv-x="452" 
d="M454 660l-19 -28q-7 -14 -21 -6q-39 18 -72 18q-89 0 -89 -122v-528q0 -159 -117 -188q-22 -5 -49 -5q-62 0 -115 33q-13 9 -4 22q12 20 19 29q8 14 21 6q38 -18 72 -18q89 0 89 121v528v2q0 15 0.5 29.5t9 47t24 55.5t50 41.5t82.5 18.5q67 0 115 -34q11 -8 4 -22z" />
    <glyph glyph-name="approxequal" unicode="&#x2248;" horiz-adv-x="568" 
d="M115 335l-23 16q-5 3 -6.5 9t2.5 11q53 76 127 76q28 0 73 -25.5t71 -25.5q37 0 73 41q10 10 21 1l8 -6t8.5 -6.5t7.5 -5.5q11 -10 3 -23q-52 -75 -122 -75q-32 0 -79.5 26.5t-67.5 26.5q-38 0 -73 -37q-10 -10 -23 -3zM115 127l-23 16q-5 3 -6.5 9t2.5 11q53 76 127 76
q29 0 73.5 -26t70.5 -26q37 0 73 41q10 11 21 2l8 -6t8.5 -6.5t7.5 -5.5q11 -10 3 -23q-52 -75 -122 -75q-32 0 -79.5 26.5t-67.5 26.5q-35 0 -73 -37q-10 -10 -23 -3z" />
    <glyph glyph-name="notequal" unicode="&#x2260;" horiz-adv-x="502" 
d="M407 118h-175l-33 -104q-5 -14 -20 -14h-30q-5 0 -8.5 4.5t-1.5 9.5l33 104h-77q-6 0 -10.5 4.5t-4.5 10.5v27q0 6 4.5 10.5t10.5 4.5h95l53 164h-148q-6 0 -10.5 4.5t-4.5 10.5v27q0 6 4.5 10.5t10.5 4.5h167l29 90q5 14 20 14h30q5 0 8.5 -4.5t1.5 -9.5l-29 -90h85
q6 0 10.5 -4.5t4.5 -10.5v-27q0 -6 -4.5 -10.5t-10.5 -4.5h-104l-53 -164h157q6 0 10.5 -4.5t4.5 -10.5v-27q0 -6 -4.5 -10.5t-10.5 -4.5z" />
    <glyph glyph-name="lessequal" unicode="&#x2264;" horiz-adv-x="420" 
d="M45 65h326q6 0 10.5 -4.5t4.5 -10.5v-35q0 -6 -4.5 -10.5t-10.5 -4.5h-326q-6 0 -10.5 4.5t-4.5 10.5v35q0 6 4.5 10.5t10.5 4.5zM377 481l-224 -143l224 -145q14 -8 5 -21l-16 -28q-9 -13 -21 -5l-308 185q-7 4 -7 12q0 10 7 13l308 185q12 7 21 -5l16 -27q9 -13 -5 -21
z" />
    <glyph glyph-name="greaterequal" unicode="&#x2265;" horiz-adv-x="420" 
d="M49 65h326q6 0 10.5 -4.5t4.5 -10.5v-35q0 -6 -4.5 -10.5t-10.5 -4.5h-326q-6 0 -10.5 4.5t-4.5 10.5v35q0 6 4.5 10.5t10.5 4.5zM267 338l-224 143q-14 8 -5 21l16 27q7 13 21 5l308 -185q7 -3 7 -13q0 -8 -7 -12l-308 -185q-12 -8 -21 5l-16 28q-9 13 5 21z" />
    <glyph glyph-name="lozenge" unicode="&#x25ca;" horiz-adv-x="649" 
d="M69 364l247 343q3 5 8.5 5t9.5 -5l246 -343q9 -12 0 -24l-246 -341q-4 -5 -9.5 -5t-8.5 5l-247 341q-9 12 0 24zM325 586l-164 -234l164 -233l163 233z" />
    <glyph glyph-name="CR" horiz-adv-x="250" 
 />
    <glyph glyph-name="zero.oldstyle" horiz-adv-x="572" 
d="M286 506q50 0 90 -17.5t64.5 -44.5t41.5 -62.5t23.5 -69.5t6.5 -68q0 -33 -5.5 -64.5t-21.5 -66t-40 -60.5t-65.5 -42.5t-93.5 -16.5q-65 0 -112 25.5t-70.5 66.5t-33.5 81.5t-10 82.5q0 32 5.5 64t21.5 67.5t40 62.5t65.5 44.5t93.5 17.5zM286 63q38 0 66.5 16
t42.5 36.5t22 49.5t9.5 45.5t1.5 33.5t-1.5 34.5t-9.5 48t-22 53t-42.5 39.5t-66.5 17q-39 0 -67.5 -16.5t-42 -38t-21.5 -51t-9.5 -46.5t-1.5 -34t1.5 -34t9.5 -47t21.5 -51.5t42 -38t67.5 -16.5z" />
    <glyph glyph-name="one.oldstyle" horiz-adv-x="454" 
d="M70 60h117v338l-114 -76q-13 -7 -21 4l-13 16q-8 12 2 22l156 140q12 10 26 10h32q6 0 10.5 -4.5t4.5 -10.5v-439h109q6 0 10.5 -4.5t4.5 -10.5v-30q0 -6 -4.5 -10.5t-10.5 -4.5h-309q-6 0 -10.5 4.5t-4.5 10.5v30q0 6 4.5 10.5t10.5 4.5z" />
    <glyph glyph-name="two.oldstyle" horiz-adv-x="416" 
d="M79 404l-20 24q-9 13 2 22q63 57 143 57q66 0 109 -36t43 -102q0 -67 -62 -143l-132 -162h169q6 0 10.5 -4.5t4.5 -10.5v-34q0 -6 -4.5 -10.5t-10.5 -4.5h-271q-14 0 -14 14t9 25q30 37 90.5 114.5t93.5 117.5q43 56 43 95q0 28 -18.5 53t-59.5 25q-42 0 -103 -43
q-12 -9 -22 3z" />
    <glyph glyph-name="three.oldstyle" horiz-adv-x="466" 
d="M406 335q0 -38 -16.5 -78t-55.5 -61q38 -22 55 -62t17 -77q0 -20 -5 -41.5t-18.5 -46t-34 -43t-56 -31t-80.5 -12.5q-37 0 -69.5 10.5t-50 22t-41.5 30.5q-10 10 -2 22l22 26q8 11 21 2q60 -46 120 -46q49 0 83 27.5t34 79.5q0 51 -34 79t-83 28h-55q-6 0 -10.5 4.5
t-4.5 10.5v34q0 6 4.5 10.5t10.5 4.5h55q49 0 83 28t34 79q0 52 -34 80t-83 28q-57 0 -120 -48q-12 -9 -21 3l-22 26q-8 12 2 22q70 60 161 60q55 0 95.5 -17.5t60.5 -45t29 -54.5t9 -54z" />
    <glyph glyph-name="four.oldstyle" horiz-adv-x="510" 
d="M381 19v-120q0 -6 -4.5 -10.5t-10.5 -4.5h-53q-6 0 -10.5 4.5t-4.5 10.5v120h-253q-6 0 -10.5 4.5t-4.5 10.5v15q0 14 8 27l270 411q8 13 23 13h35q6 0 10.5 -4.5t4.5 -10.5v-399h84q6 0 10.5 -4.5t4.5 -10.5v-37q0 -6 -4.5 -10.5t-10.5 -4.5h-84zM298 350l-170 -264h170
v264z" />
    <glyph glyph-name="five.oldstyle" horiz-adv-x="504" 
d="M71 -23l28 25q11 10 22 -1q54 -50 113 -50q60 0 96.5 40t36.5 91q0 58 -37.5 92t-102.5 34h-113q-6 0 -10.5 4.5t-4.5 10.5v262q0 6 4.5 10.5t10.5 4.5h284q6 0 10.5 -4.5t4.5 -10.5v-39q0 -6 -4.5 -10.5t-10.5 -4.5h-219v-154h54q61 0 104.5 -18t65.5 -48.5t31.5 -63
t9.5 -70.5q0 -27 -10 -57.5t-31.5 -62.5t-66 -53t-103.5 -21q-92 0 -163 73q-10 10 1 21z" />
    <glyph glyph-name="six.oldstyle" horiz-adv-x="537" 
d="M329 612l20 -29q8 -12 -5 -20q-73 -50 -122 -107t-66 -108q26 23 58.5 33t53.5 10q49 0 87 -14t60.5 -35t37 -49t19.5 -53t5 -50q0 -26 -9.5 -56t-31 -63t-65.5 -54.5t-103 -21.5q-47 0 -84.5 14.5t-59.5 36t-36.5 49t-20 50.5t-6.5 45q-10 276 247 427q5 4 11.5 2.5
t9.5 -7.5zM268 64q62 0 95.5 39t33.5 93q0 53 -33 91.5t-96 38.5q-60 0 -94 -38t-34 -92t34 -93t94 -39z" />
    <glyph glyph-name="seven.oldstyle" horiz-adv-x="420" 
d="M283 432h-238q-6 0 -10.5 4.5t-4.5 10.5v38q0 6 4.5 10.5t10.5 4.5h321q6 0 10.5 -4.5t4.5 -10.5v-6q0 -15 -6 -29l-229 -552q-6 -14 -21 -14h-52q-5 0 -8 4.5t-1 9.5z" />
    <glyph glyph-name="eight.oldstyle" horiz-adv-x="526" 
d="M260 -5q-100 0 -148.5 56t-48.5 122q0 42 21 79t60 56q-75 50 -75 138q0 24 9 51t29.5 55.5t61.5 47t96 18.5q56 0 96.5 -17.5t60.5 -45.5t28.5 -55t8.5 -54q0 -35 -18 -72.5t-57 -65.5q38 -19 60 -56.5t22 -78.5q0 -30 -10.5 -59t-32.5 -56.5t-64.5 -45t-98.5 -17.5z
M266 281q-64 -2 -96 -38.5t-32 -69.5q0 -55 36.5 -86t85.5 -31q54 0 93 29.5t39 87.5q0 41 -30 74.5t-96 33.5zM384 446q0 51 -36 80t-85 29q-48 0 -83.5 -29t-35.5 -80q0 -22 9.5 -44t38.5 -42.5t74 -22.5q44 2 72.5 24.5t37 44t8.5 40.5z" />
    <glyph glyph-name="nine.oldstyle" horiz-adv-x="537" 
d="M208 -114l-20 29q-8 13 4 21q73 49 122.5 106.5t66.5 108.5q-47 -43 -112 -43q-49 0 -87 14t-60.5 35t-37 49t-19.5 53t-5 50q0 26 9.5 56t31 63t65.5 54.5t103 21.5q47 0 84.5 -14.5t59.5 -36t36.5 -49t20 -50.5t6.5 -45q10 -275 -247 -428q-14 -8 -21 5zM269 435
q-61 0 -95 -39t-34 -93q0 -53 33 -91.5t96 -38.5q60 0 94 38t34 92t-34 93t-94 39z" />
    <glyph glyph-name="Euro.oldstyle" horiz-adv-x="536" 
d="M87 220h15q-1 11 -1 30q0 18 1 29h-27q-5 0 -8.5 4.5t-1.5 9.5l2 7q5 14 20 14h20q17 86 74.5 139t145.5 53q78 0 137 -41q11 -8 4 -22l-23 -34q-8 -12 -21 -4q-46 29 -97 29t-86 -34t-48 -86h162q5 0 8 -4.5t2 -9.5l-2 -7q-5 -14 -20 -14h-157q-1 -9 -1 -28q0 -20 1 -31
h111q5 0 8 -4.5t2 -9.5l-2 -7q-5 -14 -20 -14h-93q30 -121 135 -121q46 0 93 25q12 7 21 -6l17 -30q8 -13 -4 -22q-53 -37 -127 -37q-94 0 -150.5 53t-70.5 138h-31q-5 0 -8.5 4.5t-1.5 9.5l2 7q5 14 20 14z" />
    <glyph glyph-name="florin.oldstyle" horiz-adv-x="408" 
d="M-75 -60l13 33q5 13 20 9q33 -11 73 -11q86 0 96 86v166h-49q-6 0 -10.5 4.5t-4.5 10.5v35q0 6 4.5 10.5t10.5 4.5h49v57q0 79 48 119.5t122 40.5q49 0 107 -21q14 -5 9 -20l-14 -34q-5 -13 -19 -8q-39 14 -74 14q-41 0 -65.5 -18.5t-30.5 -68.5v-61h92q6 0 10.5 -4.5
t4.5 -10.5v-35q0 -6 -4.5 -10.5t-10.5 -4.5h-92v-162q0 -78 -48 -118.5t-122 -40.5q-55 0 -106 19q-15 4 -9 19z" />
    <glyph glyph-name="sterling.oldstyle" horiz-adv-x="593" 
d="M82 6l-25 17q-5 3 -6.5 9t2.5 11q31 43 71 65v103h-45q-6 0 -10.5 4.5t-4.5 10.5v34q0 6 4.5 10.5t10.5 4.5h45v73q0 79 47.5 119.5t121.5 40.5q50 0 105 -19q14 -5 9 -19q0 -1 -4.5 -13.5t-6.5 -19.5q-5 -13 -19 -10q-44 14 -80 14q-86 0 -90 -87v-79h156q6 0 10.5 -4.5
t4.5 -10.5v-34q0 -6 -4.5 -10.5t-10.5 -4.5h-156v-82q37 -5 89 -34.5t86 -29.5q51 0 95 51q10 11 21 2l24 -20q11 -11 3 -23q-57 -87 -144 -87q-38 0 -96 33t-87 33q-52 0 -94 -45q-10 -10 -22 -3z" />
    <glyph glyph-name="yen.oldstyle" horiz-adv-x="595" 
d="M454 87h-114v-72q0 -6 -4.5 -10.5t-10.5 -4.5h-56q-6 0 -10.5 4.5t-4.5 10.5v72h-112q-6 0 -10.5 4.5t-4.5 10.5v27q0 6 4.5 10.5t10.5 4.5h112v47h-112q-6 0 -10.5 4.5t-4.5 10.5v27q0 6 4.5 10.5t10.5 4.5h112l-185 240q-3 4 -1 8t7 4h83q14 0 24 -12l115 -160l116 160
q10 12 24 12h83q4 0 6 -4t0 -8l-186 -239v-1h114q6 0 10.5 -4.5t4.5 -10.5v-27q0 -6 -4.5 -10.5t-10.5 -4.5h-114v-47h114q6 0 10.5 -4.5t4.5 -10.5v-27q0 -6 -4.5 -10.5t-10.5 -4.5z" />
    <glyph glyph-name="percent.oldstyle" horiz-adv-x="787" 
d="M471 560h31q5 0 8.5 -4.5t1.5 -9.5l-171 -532q-5 -14 -20 -14h-32q-5 0 -8.5 4.5t-1.5 9.5l172 532q5 14 20 14zM612 300q75 0 110 -47t35 -104q0 -58 -35 -104.5t-110 -46.5q-76 0 -110.5 46t-34.5 105q0 35 12 67t46.5 58t86.5 26zM612 49q26 0 44.5 11.5t27 29
t11.5 32t3 27.5t-3 27.5t-11.5 32t-27 28.5t-44.5 11q-35 0 -56 -20t-26.5 -40t-5.5 -39t5.5 -39t26.5 -40.5t56 -20.5zM319 412q0 -59 -34.5 -105t-110.5 -46q-75 0 -109.5 46t-34.5 105q0 57 34.5 104t109.5 47q52 0 86.5 -26t46.5 -58t12 -67zM174 312q27 0 45.5 11.5
t27 29t11.5 32t3 27.5t-3 27.5t-11.5 32t-27 28.5t-45.5 11t-45.5 -11t-27 -28.5t-11.5 -32t-3 -27.5t3 -27.5t11.5 -32t27 -29t45.5 -11.5z" />
    <glyph glyph-name="commaaccent" horiz-adv-x="276" 
d="M120 -333l-4 3q-14 5 -8 20q30 64 36 105q-25 -2 -44 13t-19 45q1 24 17 40.5t40 16.5q34 0 50 -19t16 -46q0 -64 -62 -171q-8 -12 -22 -7z" />
    <glyph glyph-name="a.alt" horiz-adv-x="612" 
d="M290 -8q-62 3 -108.5 28.5t-71.5 64.5t-37 80.5t-12 83.5v2q0 43 12.5 85.5t39.5 82.5t76.5 64.5t115.5 24.5q103 0 163 -70q2 9 16 48q5 14 20 14h13q6 0 10.5 -4.5t4.5 -10.5v-470q0 -6 -4.5 -10.5t-10.5 -4.5h-13q-15 0 -20 14q-14 39 -16 48q-55 -64 -148 -70h-30z
M310 433q-41 0 -72.5 -14.5t-48.5 -35t-28 -47.5t-14 -47t-3 -38v-2q0 -18 3 -38t14 -47t28 -47.5t48.5 -35t72.5 -14.5q45 0 82.5 20.5t56.5 46.5v232q-18 25 -56 46t-83 21z" />
    <glyph glyph-name="aogonek.alt" horiz-adv-x="605" 
d="M289 -8q-62 3 -108.5 28.5t-71.5 64.5t-37 80.5t-12 83.5v2q0 43 12.5 85.5t39.5 82.5t76.5 64.5t115.5 24.5q103 0 163 -70q2 9 16 48q5 14 20 14h13q6 0 10.5 -4.5t4.5 -10.5v-491q0 -11 -17 -46t-17 -57q0 -60 64 -60q26 0 60 12q5 1 9.5 -2t4.5 -8v-20q0 -15 -14 -21
q-37 -12 -68 -12q-50 0 -83 26t-33 78q0 31 25.5 68t25.5 45v3q-16 44 -21 62q-55 -64 -148 -70h-30zM309 433q-41 0 -72.5 -14.5t-48.5 -35t-28 -47.5t-14 -47t-3 -38v-2q0 -18 3 -38t14 -47t28 -47.5t48.5 -35t72.5 -14.5q45 0 82.5 20.5t56.5 46.5v232q-18 25 -56 46
t-83 21z" />
    <glyph glyph-name="amacron.alt" horiz-adv-x="612" 
d="M504 500h13q6 0 10.5 -4.5t4.5 -10.5v-470q0 -6 -4.5 -10.5t-10.5 -4.5h-13q-15 0 -20 14q-14 39 -16 48q-60 -70 -163 -70q-66 0 -115.5 24.5t-76.5 64.5t-39.5 82.5t-12.5 85.5v2q0 43 12.5 85.5t39.5 82.5t76.5 64.5t115.5 24.5q103 0 163 -70q2 9 16 48q5 14 20 14z
M449 134v232q-18 25 -56 46t-83 21q-41 0 -72.5 -14.5t-48.5 -35t-28 -47.5t-14 -47t-3 -38v-2q0 -18 3 -38t14 -47t28 -47.5t48.5 -35t72.5 -14.5q45 0 82.5 20.5t56.5 46.5zM458 636v-25q0 -6 -4.5 -10.5t-10.5 -4.5h-271q-6 0 -10.5 4.5t-4.5 10.5v25q0 6 4.5 10.5
t10.5 4.5h271q6 0 10.5 -4.5t4.5 -10.5z" />
    <glyph glyph-name="adieresis.alt" horiz-adv-x="612" 
d="M140 643q0 22 14.5 37t36.5 15t37 -15t15 -37t-15 -36.5t-37 -14.5t-36.5 14.5t-14.5 36.5zM389 643q0 22 14.5 37t36.5 15t37 -15t15 -37t-15 -36.5t-37 -14.5t-36.5 14.5t-14.5 36.5zM504 500h13q6 0 10.5 -4.5t4.5 -10.5v-470q0 -6 -4.5 -10.5t-10.5 -4.5h-13
q-15 0 -20 14q-14 39 -16 48q-60 -70 -163 -70q-66 0 -115.5 24.5t-76.5 64.5t-39.5 82.5t-12.5 85.5v2q0 43 12.5 85.5t39.5 82.5t76.5 64.5t115.5 24.5q103 0 163 -70q2 9 16 48q5 14 20 14zM449 134v232q-18 25 -56 46t-83 21q-41 0 -72.5 -14.5t-48.5 -35t-28 -47.5
t-14 -47t-3 -38v-2q0 -18 3 -38t14 -47t28 -47.5t48.5 -35t72.5 -14.5q45 0 82.5 20.5t56.5 46.5z" />
    <glyph glyph-name="aring.alt" horiz-adv-x="612" 
d="M205 688q0 42 30 72t72 30t71.5 -30t29.5 -72t-29.5 -71.5t-71.5 -29.5t-72 29.5t-30 71.5zM258 688q0 -19 14.5 -33.5t34.5 -14.5q19 0 33.5 14.5t14.5 33.5q0 20 -14.5 34.5t-33.5 14.5q-20 0 -34.5 -14.5t-14.5 -34.5zM504 500h13q6 0 10.5 -4.5t4.5 -10.5v-470
q0 -6 -4.5 -10.5t-10.5 -4.5h-13q-15 0 -20 14q-14 39 -16 48q-60 -70 -163 -70q-66 0 -115.5 24.5t-76.5 64.5t-39.5 82.5t-12.5 85.5v2q0 43 12.5 85.5t39.5 82.5t76.5 64.5t115.5 24.5q103 0 163 -70q2 9 16 48q5 14 20 14zM449 134v232q-18 25 -56 46t-83 21
q-41 0 -72.5 -14.5t-48.5 -35t-28 -47.5t-14 -47t-3 -38v-2q0 -18 3 -38t14 -47t28 -47.5t48.5 -35t72.5 -14.5q45 0 82.5 20.5t56.5 46.5z" />
    <glyph glyph-name="agrave.alt" horiz-adv-x="612" 
d="M504 500h13q6 0 10.5 -4.5t4.5 -10.5v-470q0 -6 -4.5 -10.5t-10.5 -4.5h-13q-15 0 -20 14q-14 39 -16 48q-60 -70 -163 -70q-66 0 -115.5 24.5t-76.5 64.5t-39.5 82.5t-12.5 85.5v2q0 43 12.5 85.5t39.5 82.5t76.5 64.5t115.5 24.5q103 0 163 -70q2 9 16 48q5 14 20 14z
M449 134v232q-18 25 -56 46t-83 21q-41 0 -72.5 -14.5t-48.5 -35t-28 -47.5t-14 -47t-3 -38v-2q0 -18 3 -38t14 -47t28 -47.5t48.5 -35t72.5 -14.5q45 0 82.5 20.5t56.5 46.5zM352 619l-12 -18q-8 -13 -21 -4l-138 84q-13 8 -5 20l22 32q7 13 20 4l131 -97q13 -9 3 -21z" />
    <glyph glyph-name="acircumflex.alt" horiz-adv-x="612" 
d="M304 666l-113 -69q-13 -9 -22 4l-12 18q-8 12 4 21l131 97q12 9 24 0l131 -97q13 -9 3 -21l-12 -18q-8 -13 -21 -4zM504 500h13q6 0 10.5 -4.5t4.5 -10.5v-470q0 -6 -4.5 -10.5t-10.5 -4.5h-13q-15 0 -20 14q-14 39 -16 48q-60 -70 -163 -70q-66 0 -115.5 24.5
t-76.5 64.5t-39.5 82.5t-12.5 85.5v2q0 43 12.5 85.5t39.5 82.5t76.5 64.5t115.5 24.5q103 0 163 -70q2 9 16 48q5 14 20 14zM449 134v232q-18 25 -56 46t-83 21q-41 0 -72.5 -14.5t-48.5 -35t-28 -47.5t-14 -47t-3 -38v-2q0 -18 3 -38t14 -47t28 -47.5t48.5 -35t72.5 -14.5
q45 0 82.5 20.5t56.5 46.5z" />
    <glyph glyph-name="aacute.alt" horiz-adv-x="612" 
d="M427 681l-138 -84q-13 -9 -22 4l-12 18q-8 12 4 21l131 97q4 4 10.5 2.5t9.5 -6.5l22 -32q8 -12 -5 -20zM504 500h13q6 0 10.5 -4.5t4.5 -10.5v-470q0 -6 -4.5 -10.5t-10.5 -4.5h-13q-15 0 -20 14q-14 39 -16 48q-60 -70 -163 -70q-66 0 -115.5 24.5t-76.5 64.5
t-39.5 82.5t-12.5 85.5v2q0 43 12.5 85.5t39.5 82.5t76.5 64.5t115.5 24.5q103 0 163 -70q2 9 16 48q5 14 20 14zM449 134v232q-18 25 -56 46t-83 21q-41 0 -72.5 -14.5t-48.5 -35t-28 -47.5t-14 -47t-3 -38v-2q0 -18 3 -38t14 -47t28 -47.5t48.5 -35t72.5 -14.5
q45 0 82.5 20.5t56.5 46.5z" />
    <glyph glyph-name="atilde.alt" horiz-adv-x="612" 
d="M258 633q-28 0 -47 -28q-9 -12 -22 -7l-17 8q-13 7 -8 21q29 68 95 68q25 0 55.5 -20t49.5 -20q27 0 48 26q10 12 22 5l20 -11q13 -8 6 -20q-36 -62 -98 -62q-22 0 -52 20t-52 20zM504 500h13q6 0 10.5 -4.5t4.5 -10.5v-470q0 -6 -4.5 -10.5t-10.5 -4.5h-13q-15 0 -20 14
q-14 39 -16 48q-60 -70 -163 -70q-66 0 -115.5 24.5t-76.5 64.5t-39.5 82.5t-12.5 85.5v2q0 43 12.5 85.5t39.5 82.5t76.5 64.5t115.5 24.5q103 0 163 -70q2 9 16 48q5 14 20 14zM449 134v232q-18 25 -56 46t-83 21q-41 0 -72.5 -14.5t-48.5 -35t-28 -47.5t-14 -47t-3 -38
v-2q0 -18 3 -38t14 -47t28 -47.5t48.5 -35t72.5 -14.5q45 0 82.5 20.5t56.5 46.5z" />
    <glyph glyph-name="abreve.alt" horiz-adv-x="612" 
d="M307 593q-93 0 -129 95q-5 14 9 19l27 9q13 5 19 -9q22 -54 74 -54q55 0 76 53q6 14 19 9l25 -7q14 -5 9 -19q-39 -96 -129 -96zM504 500h13q6 0 10.5 -4.5t4.5 -10.5v-470q0 -6 -4.5 -10.5t-10.5 -4.5h-13q-15 0 -20 14q-14 39 -16 48q-60 -70 -163 -70
q-66 0 -115.5 24.5t-76.5 64.5t-39.5 82.5t-12.5 85.5v2q0 43 12.5 85.5t39.5 82.5t76.5 64.5t115.5 24.5q103 0 163 -70q2 9 16 48q5 14 20 14zM449 134v232q-18 25 -56 46t-83 21q-41 0 -72.5 -14.5t-48.5 -35t-28 -47.5t-14 -47t-3 -38v-2q0 -18 3 -38t14 -47t28 -47.5
t48.5 -35t72.5 -14.5q45 0 82.5 20.5t56.5 46.5z" />
    <glyph glyph-name="parenleft.case" horiz-adv-x="267" 
d="M30 355q0 248 149 472q8 13 20 5l25 -17q14 -7 6 -21q-115 -218 -115 -438q0 -228 115 -446q8 -13 -6 -21l-24 -16q-14 -8 -21 4q-149 227 -149 478z" />
    <glyph glyph-name="parenright.case" horiz-adv-x="267" 
d="M237 355q0 -249 -149 -478q-7 -12 -21 -4l-24 16q-14 7 -6 21q115 221 115 446q0 217 -115 438q-8 14 5 21l25 17q14 8 21 -5q149 -226 149 -472z" />
    <glyph glyph-name="hyphen.case" horiz-adv-x="432" 
d="M95 378h242q6 0 10.5 -4.5t4.5 -10.5v-36q0 -6 -4.5 -10.5t-10.5 -4.5h-242q-6 0 -10.5 4.5t-4.5 10.5v36q0 6 4.5 10.5t10.5 4.5z" />
    <glyph glyph-name="bracketleft.case" horiz-adv-x="235" 
d="M30 -120v948q0 6 4.5 10.5t10.5 4.5h145q6 0 10.5 -4.5t4.5 -10.5v-27q0 -6 -4.5 -10.5t-10.5 -4.5h-78v-864h78q6 0 10.5 -4.5t4.5 -10.5v-27q0 -6 -4.5 -10.5t-10.5 -4.5h-145q-6 0 -10.5 4.5t-4.5 10.5z" />
    <glyph glyph-name="bracketright.case" horiz-adv-x="235" 
d="M205 828v-948q0 -6 -4.5 -10.5t-10.5 -4.5h-145q-6 0 -10.5 4.5t-4.5 10.5v27q0 6 4.5 10.5t10.5 4.5h78v864h-78q-6 0 -10.5 4.5t-4.5 10.5v27q0 6 4.5 10.5t10.5 4.5h145q6 0 10.5 -4.5t4.5 -10.5z" />
    <glyph glyph-name="braceleft.case" horiz-adv-x="290" 
d="M95 673q0 37 9.5 66.5t26.5 47t33 29.5t35.5 17t28.5 6.5t17 2.5q6 0 10.5 -4.5t4.5 -10.5v-27q0 -13 -15 -15q-67 -10 -67 -122v-215q0 -31 -20.5 -56t-53.5 -37q34 -11 54 -37t20 -59v-214q0 -112 67 -122q15 -2 15 -15v-27q0 -6 -4.5 -10.5t-10.5 -4.5q-8 1 -17 2.5
t-28.5 6.5t-35.5 17t-33 29.5t-26.5 47t-9.5 66.5v212q0 62 -51 80q-14 5 -14 19v16q0 14 14 19q51 20 51 80v212z" />
    <glyph glyph-name="bar.case" horiz-adv-x="177" 
d="M102 -135h-27q-6 0 -10.5 4.5t-4.5 10.5v944q0 6 4.5 10.5t10.5 4.5h27q6 0 10.5 -4.5t4.5 -10.5v-944q0 -6 -4.5 -10.5t-10.5 -4.5z" />
    <glyph glyph-name="braceright.case" horiz-adv-x="290" 
d="M45 842q8 -1 17 -2.5t28.5 -6.5t35.5 -17t33 -29.5t26.5 -47t9.5 -66.5v-212q0 -60 50 -80q15 -5 15 -19v-16q0 -14 -15 -19q-50 -18 -50 -80v-212q0 -37 -9.5 -66.5t-26.5 -47t-33 -29.5t-35.5 -17t-28.5 -6.5t-17 -2.5q-6 0 -10.5 4.5t-4.5 10.5v27q0 13 15 15
q67 10 67 122v214q0 33 20 59t54 37q-33 12 -53.5 37t-20.5 56v215q0 112 -67 122q-15 2 -15 15v27q0 6 4.5 10.5t10.5 4.5z" />
    <glyph glyph-name="guilsinglleft.case" horiz-adv-x="267" 
d="M105 348l121 -144q11 -11 -1 -21l-12 -12q-12 -10 -21 1l-159 167q-3 5 -3 9t3 9l159 168q9 11 21 1l13 -13q11 -11 1 -21z" />
    <glyph glyph-name="guilsinglright.case" horiz-adv-x="267" 
d="M41 204l121 144l-122 144q-10 10 1 21l13 13q12 10 21 -1l159 -168q3 -5 3 -9t-3 -9l-159 -167q-9 -11 -21 -1l-12 12q-12 10 -1 21z" />
    <glyph glyph-name="guillemotleft.case" horiz-adv-x="435" 
d="M105 348l121 -144q11 -11 -1 -21l-12 -12q-12 -10 -21 1l-159 167q-3 5 -3 9t3 9l159 168q9 11 21 1l13 -13q11 -11 1 -21zM273 348l121 -144q11 -11 -1 -21l-12 -12q-12 -10 -21 1l-159 167q-3 5 -3 9t3 9l159 168q9 11 21 1l13 -13q11 -11 1 -21z" />
    <glyph glyph-name="guillemotright.case" horiz-adv-x="435" 
d="M209 204l121 144l-122 144q-10 10 1 21l13 13q12 10 21 -1l159 -168q3 -5 3 -9t-3 -9l-159 -167q-9 -11 -21 -1l-12 12q-12 10 -1 21zM41 204l121 144l-122 144q-10 10 1 21l13 13q12 10 21 -1l159 -168q3 -5 3 -9t-3 -9l-159 -167q-9 -11 -21 -1l-12 12q-12 10 -1 21z
" />
    <glyph glyph-name="endash.case" horiz-adv-x="550" 
d="M455 342h-360q-6 0 -10.5 4.5t-4.5 10.5v30q0 6 4.5 10.5t10.5 4.5h360q6 0 10.5 -4.5t4.5 -10.5v-30q0 -6 -4.5 -10.5t-10.5 -4.5z" />
    <glyph glyph-name="emdash.case" horiz-adv-x="672" 
d="M577 342h-482q-6 0 -10.5 4.5t-4.5 10.5v30q0 6 4.5 10.5t10.5 4.5h482q6 0 10.5 -4.5t4.5 -10.5v-30q0 -6 -4.5 -10.5t-10.5 -4.5z" />
    <glyph glyph-name="bullet.case" horiz-adv-x="387" 
d="M191 238q-45 0 -78 33t-33 79t33.5 80.5t77.5 34.5q48 0 82 -34.5t34 -80.5t-34 -79t-82 -33z" />
    <glyph glyph-name="periodcentered.case" horiz-adv-x="236" 
d="M60 375q0 24 16.5 40.5t40.5 16.5t41.5 -16.5t17.5 -40.5q0 -25 -17.5 -42t-41.5 -17t-40.5 17t-16.5 42z" />
    <glyph glyph-name="brokenbar.case" horiz-adv-x="176" 
d="M116 232v-351q0 -6 -4.5 -10.5t-10.5 -4.5h-26q-6 0 -10.5 4.5t-4.5 10.5v351q0 6 4.5 10.5t10.5 4.5h26q6 0 10.5 -4.5t4.5 -10.5zM116 824v-351q0 -6 -4.5 -10.5t-10.5 -4.5h-26q-6 0 -10.5 4.5t-4.5 10.5v351q0 6 4.5 10.5t10.5 4.5h26q6 0 10.5 -4.5t4.5 -10.5z" />
    <glyph glyph-name="numbersign.oldstyle" horiz-adv-x="571" 
d="M75 383h78v102q0 6 4.5 10.5t10.5 4.5h27q6 0 10.5 -4.5t4.5 -10.5v-102h151v102q0 6 4.5 10.5t10.5 4.5h27q6 0 10.5 -4.5t4.5 -10.5v-102h78q6 0 10.5 -4.5t4.5 -10.5v-27q0 -6 -4.5 -10.5t-10.5 -4.5h-78v-151h78q6 0 10.5 -4.5t4.5 -10.5v-27q0 -6 -4.5 -10.5
t-10.5 -4.5h-78v-103q0 -6 -4.5 -10.5t-10.5 -4.5h-27q-6 0 -10.5 4.5t-4.5 10.5v103h-151v-103q0 -6 -4.5 -10.5t-10.5 -4.5h-27q-6 0 -10.5 4.5t-4.5 10.5v103h-78q-6 0 -10.5 4.5t-4.5 10.5v27q0 6 4.5 10.5t10.5 4.5h78v151h-78q-6 0 -10.5 4.5t-4.5 10.5v27
q0 6 4.5 10.5t10.5 4.5zM210 326v-151h151v151h-151z" />
    <glyph glyph-name="dollar.oldstyle" horiz-adv-x="492" 
d="M251 -98h-27q-6 0 -10.5 4.5t-4.5 10.5v76q-73 5 -136 39q-12 7 -7 21q3 5 8.5 14.5t7.5 14.5q6 15 19 7q58 -26 108 -31v170q-28 10 -43 15.5t-37.5 18t-34 26t-20.5 34.5t-9 48q1 61 39.5 97t104.5 40v74q0 6 4.5 10.5t10.5 4.5h27q6 0 10.5 -4.5t4.5 -10.5v-76
q63 -8 117 -32q14 -5 8 -20q-5 -10 -15 -34q-7 -13 -21 -8q-53 21 -89 26v-150q33 -11 56 -21.5t48.5 -28.5t39 -45t13.5 -62q0 -57 -43.5 -94t-113.5 -43v-76q0 -6 -4.5 -10.5t-10.5 -4.5zM336 144q-8 38 -70 65v-150q58 12 69 55q3 10 1 30zM143 374q0 -43 66 -68v130
q-65 -12 -66 -62z" />
    <glyph glyph-name="cent.oldstyle" horiz-adv-x="551" 
d="M318 -105h-27q-6 0 -10.5 4.5t-4.5 10.5v83q-61 5 -105.5 30.5t-67.5 65.5t-33 80.5t-10 84.5q0 40 11 79.5t34.5 78t67.5 65t103 32.5v72q0 6 4.5 10.5t10.5 4.5h27q6 0 10.5 -4.5t4.5 -10.5v-71q87 -8 147 -65q11 -11 0 -21l-33 -31q-10 -10 -23 -1q-45 37 -91 46v-379
q53 8 95 47q11 11 21 0l25 -29q10 -11 -1 -22q-58 -55 -140 -63v-82q0 -6 -4.5 -10.5t-10.5 -4.5zM143 254q0 -73 35 -127.5t98 -66.5v377q-58 -11 -95.5 -58.5t-37.5 -124.5z" />
    <glyph glyph-name="zero.denom" horiz-adv-x="315" 
d="M157 330q46 0 76.5 -29t41 -64.5t10.5 -74.5q0 -65 -30.5 -116.5t-97.5 -51.5q-45 0 -75.5 28.5t-41 64t-10.5 75.5q0 39 10.5 74.5t41 64.5t75.5 29zM157 38q24 0 41 14.5t24 36.5t10 39.5t3 33.5t-3 33t-10 39.5t-24 36.5t-41 14t-40.5 -14t-23.5 -36.5t-10 -40
t-3 -32.5q0 -16 3 -33.5t10 -39.5t23.5 -36.5t40.5 -14.5z" />
    <glyph glyph-name="one.denom" horiz-adv-x="198" 
d="M148 317v-302q0 -6 -4.5 -10.5t-10.5 -4.5h-21q-6 0 -10.5 4.5t-4.5 10.5v238l-43 -26q-13 -9 -22 4l-3 6q-9 12 3 21l81 64q10 8 22 8q13 0 13 -13z" />
    <glyph glyph-name="two.denom" horiz-adv-x="263" 
d="M44 261l-9 8q-10 12 1 21q45 42 95 42q46 0 73.5 -24.5t27.5 -71.5q0 -32 -42 -91l-79 -99h98q6 0 10.5 -4.5t4.5 -10.5v-16q0 -6 -4.5 -10.5t-10.5 -4.5h-171q-8 0 -8 8q0 7 5 14l118 153q9 11 15 21t9.5 16t5 12t1.5 8v6v4q0 20 -12.5 33.5t-39.5 13.5q-30 0 -67 -29
q-11 -11 -21 1z" />
    <glyph glyph-name="three.denom" horiz-adv-x="257" 
d="M227 236q0 -51 -38 -74q17 -8 27.5 -28t10.5 -44q0 -35 -24.5 -65.5t-83.5 -30.5q-49 0 -88 31q-12 10 -1 21l7 9q10 12 22 3q36 -23 60 -23q25 0 42.5 14.5t17.5 40.5t-17 39t-43 13h-26q-6 0 -10.5 4.5t-4.5 10.5v11q0 6 4.5 10.5t10.5 4.5h26q25 0 42.5 13.5
t17.5 39.5t-17.5 40t-42.5 14q-26 0 -59 -21q-12 -7 -22 3l-6 7q-10 10 1 21q40 32 86 32q59 0 83.5 -30.5t24.5 -65.5z" />
    <glyph glyph-name="four.denom" horiz-adv-x="278" 
d="M213 64v-49q0 -6 -4.5 -10.5t-10.5 -4.5h-21q-6 0 -10.5 4.5t-4.5 10.5v49h-128q-14 0 -14 14t8 27l136 210q8 13 23 13h11q6 0 10.5 -4.5t4.5 -10.5v-204h30q6 0 10.5 -4.5t4.5 -10.5v-15q0 -6 -4.5 -10.5t-10.5 -4.5h-30zM162 231l-79 -122h79v122z" />
    <glyph glyph-name="five.denom" horiz-adv-x="273" 
d="M41 50l10 9q9 9 22 0q28 -23 54 -23q31 0 48.5 19.5t17.5 46.5q0 28 -17 45.5t-49 17.5h-61q-6 0 -10.5 4.5t-4.5 10.5v129q0 6 4.5 10.5t10.5 4.5h137q6 0 10.5 -4.5t4.5 -10.5v-14q0 -6 -4.5 -10.5t-10.5 -4.5h-101v-71h25q62 0 89 -34t27 -76q0 -37 -27.5 -72.5
t-88.5 -35.5q-49 0 -87 38q-10 10 1 21z" />
    <glyph glyph-name="six.denom" horiz-adv-x="290" 
d="M182 323l5 -7q8 -14 -5 -21q-62 -40 -84 -89q21 11 47 11q43 0 70.5 -21t35.5 -44.5t8 -47.5q0 -36 -27 -72.5t-87 -34.5q-61 2 -87.5 38t-26.5 74q0 82 38 136t92 84q12 7 21 -6zM145 41q31 0 48 19.5t17 46.5q0 26 -17 46t-48 20t-48 -18t-18 -46q0 -27 18 -47.5
t48 -20.5z" />
    <glyph glyph-name="seven.denom" horiz-adv-x="242" 
d="M20 300v13q0 6 4.5 10.5t10.5 4.5h166q13 0 13 -13q0 -11 -5 -24l-114 -277q-6 -14 -21 -14h-23q-5 0 -8 4.5t-1 9.5l109 271h-116q-6 0 -10.5 4.5t-4.5 10.5z" />
    <glyph glyph-name="eight.denom" horiz-adv-x="274" 
d="M30 234q0 36 24.5 66.5t82.5 30.5t82.5 -30.5t24.5 -66.5q0 -47 -35 -72q35 -26 35 -73q0 -35 -24.5 -65.5t-82.5 -30.5t-82.5 30.5t-24.5 65.5q0 47 35 73q-35 25 -35 72zM137 182q25 0 42 13.5t17 38.5q0 26 -17 40.5t-42 14.5t-42 -14.5t-17 -40.5q0 -25 17 -38.5
t42 -13.5zM137 141q-25 0 -42 -13t-17 -39t17 -40t42 -14t42 14t17 40t-17 39t-42 13z" />
    <glyph glyph-name="nine.denom" horiz-adv-x="290" 
d="M108 7l-5 7q-7 13 5 20q61 38 84 90q-21 -11 -46 -11q-62 0 -88.5 35.5t-26.5 76.5q0 11 3 24t11 28.5t20 28t33 20.5t48 7q60 -2 86.5 -38t26.5 -74q0 -81 -38.5 -137t-91.5 -84q-12 -7 -21 7zM146 289q-31 0 -48.5 -19.5t-17.5 -46.5t17.5 -46.5t48.5 -19.5t47.5 18
t17.5 46q0 27 -17.5 47.5t-47.5 20.5z" />
    <glyph glyph-name="zero.num" horiz-adv-x="315" 
d="M157 706q46 0 76.5 -29t41 -64.5t10.5 -74.5q0 -65 -30.5 -116.5t-97.5 -51.5q-45 0 -75.5 28.5t-41 64t-10.5 75.5q0 39 10.5 74.5t41 64.5t75.5 29zM157 414q24 0 41 14.5t24 36.5t10 39.5t3 33.5t-3 33t-10 39.5t-24 36.5t-41 14t-40.5 -14t-23.5 -36.5t-10 -40
t-3 -32.5q0 -16 3 -33.5t10 -39.5t23.5 -36.5t40.5 -14.5z" />
    <glyph glyph-name="one.num" horiz-adv-x="198" 
d="M148 688v-303q0 -6 -4.5 -10.5t-10.5 -4.5h-21q-6 0 -10.5 4.5t-4.5 10.5v238l-43 -25q-13 -9 -22 4l-3 5q-9 12 3 21l84 65q11 7 20 7q12 0 12 -12z" />
    <glyph glyph-name="two.num" horiz-adv-x="263" 
d="M42 634l-9 8q-10 12 1 21q45 42 95 42q46 0 73.5 -24.5t27.5 -71.5q0 -32 -42 -91l-79 -99h98q6 0 10.5 -4.5t4.5 -10.5v-16q0 -6 -4.5 -10.5t-10.5 -4.5h-169q-9 0 -9 9q0 8 5 16l117 150q9 11 15 21t9.5 16t5 12t1.5 8v6v4q0 20 -12.5 33.5t-39.5 13.5q-30 0 -67 -29
q-11 -11 -21 1z" />
    <glyph glyph-name="three.num" horiz-adv-x="257" 
d="M227 608q0 -23 -10.5 -43.5t-27.5 -30.5q38 -21 38 -72q0 -35 -24.5 -65.5t-83.5 -30.5q-49 0 -88 31q-12 10 -1 21l7 9q10 12 22 3q36 -23 60 -23q25 0 42.5 14.5t17.5 40.5t-17 39t-43 13h-26q-6 0 -10.5 4.5t-4.5 10.5v11q0 6 4.5 10.5t10.5 4.5h26q25 0 42.5 13.5
t17.5 39.5t-17.5 40t-42.5 14q-26 0 -59 -21q-12 -7 -22 3l-6 7q-10 10 1 21q40 32 86 32q59 0 83.5 -30.5t24.5 -65.5z" />
    <glyph glyph-name="four.num" horiz-adv-x="278" 
d="M213 436v-49q0 -6 -4.5 -10.5t-10.5 -4.5h-21q-6 0 -10.5 4.5t-4.5 10.5v49h-128q-14 0 -14 14t8 27l136 210q8 13 23 13h11q6 0 10.5 -4.5t4.5 -10.5v-204h30q6 0 10.5 -4.5t4.5 -10.5v-15q0 -6 -4.5 -10.5t-10.5 -4.5h-30zM162 603l-79 -122h79v122z" />
    <glyph glyph-name="five.num" horiz-adv-x="273" 
d="M41 426l10 9q9 9 22 0q28 -23 54 -23q31 0 48.5 19.5t17.5 46.5q0 28 -17 45.5t-49 17.5h-61q-6 0 -10.5 4.5t-4.5 10.5v129q0 6 4.5 10.5t10.5 4.5h137q6 0 10.5 -4.5t4.5 -10.5v-14q0 -6 -4.5 -10.5t-10.5 -4.5h-101v-71h25q62 0 89 -34t27 -76q0 -37 -27.5 -72.5
t-88.5 -35.5q-49 0 -87 38q-10 10 1 21z" />
    <glyph glyph-name="six.num" horiz-adv-x="290" 
d="M182 695l5 -7q8 -14 -5 -21q-62 -40 -84 -89q21 11 47 11q43 0 70.5 -21t35.5 -44.5t8 -47.5q0 -36 -27 -72.5t-87 -34.5q-61 2 -87.5 38t-26.5 74q0 82 38 136t92 84q12 7 21 -6zM145 413q31 0 48 19.5t17 46.5q0 26 -17 46t-48 20t-48 -18t-18 -46q0 -27 18 -47.5
t48 -20.5z" />
    <glyph glyph-name="seven.num" horiz-adv-x="242" 
d="M20 672v13q0 6 4.5 10.5t10.5 4.5h169q13 0 13 -13q0 -11 -5 -24l-117 -277q-6 -14 -21 -14h-23q-5 0 -8 4.5t-1 9.5l111 271h-118q-6 0 -10.5 4.5t-4.5 10.5z" />
    </font>
</defs>
</svg>
